<svg width="134" height="165" viewBox="0 0 134 165" fill="none" xmlns="http://www.w3.org/2000/svg">
<path d="M1.44886 23.9091V5.90909H5.02841V8.10795H5.19034C5.34943 7.75568 5.57955 7.39773 5.88068 7.03409C6.1875 6.66477 6.58523 6.35795 7.07386 6.11364C7.56818 5.86364 8.18182 5.73864 8.91477 5.73864C9.86932 5.73864 10.75 5.98864 11.5568 6.48864C12.3636 6.98295 13.0085 7.73011 13.4915 8.73011C13.9744 9.72443 14.2159 10.9716 14.2159 12.4716C14.2159 13.9318 13.9801 15.1648 13.5085 16.1705C13.0426 17.1705 12.4063 17.929 11.5994 18.446C10.7983 18.9574 9.90057 19.2131 8.90625 19.2131C8.2017 19.2131 7.60227 19.0966 7.10795 18.8636C6.61932 18.6307 6.21875 18.3381 5.90625 17.9858C5.59375 17.6278 5.35511 17.267 5.19034 16.9034H5.07955V23.9091H1.44886ZM5.00284 12.4545C5.00284 13.233 5.1108 13.9119 5.3267 14.4915C5.54261 15.071 5.85511 15.5227 6.2642 15.8466C6.6733 16.1648 7.17045 16.3239 7.75568 16.3239C8.34659 16.3239 8.84659 16.1619 9.25568 15.8381C9.66477 15.5085 9.97443 15.054 10.1847 14.4744C10.4006 13.8892 10.5085 13.2159 10.5085 12.4545C10.5085 11.6989 10.4034 11.0341 10.1932 10.4602C9.98295 9.88636 9.6733 9.4375 9.2642 9.11364C8.85511 8.78977 8.35227 8.62784 7.75568 8.62784C7.16477 8.62784 6.66477 8.78409 6.25568 9.09659C5.85227 9.40909 5.54261 9.85227 5.3267 10.4261C5.1108 11 5.00284 11.6761 5.00284 12.4545ZM22.6023 19.2557C21.2557 19.2557 20.0966 18.983 19.125 18.4375C18.1591 17.8864 17.4148 17.108 16.892 16.1023C16.3693 15.0909 16.108 13.8949 16.108 12.5142C16.108 11.1676 16.3693 9.9858 16.892 8.96875C17.4148 7.9517 18.1506 7.15909 19.0994 6.59091C20.054 6.02273 21.1733 5.73864 22.4574 5.73864C23.321 5.73864 24.125 5.87784 24.8693 6.15625C25.6193 6.42898 26.2727 6.84091 26.8295 7.39205C27.392 7.94318 27.8295 8.63636 28.142 9.47159C28.4545 10.3011 28.6108 11.2727 28.6108 12.3864V13.3835H17.5568V11.1335H25.1932C25.1932 10.6108 25.0795 10.1477 24.8523 9.74432C24.625 9.34091 24.3097 9.02557 23.9062 8.7983C23.5085 8.56534 23.0455 8.44886 22.517 8.44886C21.9659 8.44886 21.4773 8.5767 21.0511 8.83239C20.6307 9.08239 20.3011 9.42045 20.0625 9.84659C19.8239 10.267 19.7017 10.7358 19.696 11.2528V13.392C19.696 14.0398 19.8153 14.5994 20.054 15.071C20.2983 15.5426 20.642 15.9062 21.0852 16.1619C21.5284 16.4176 22.054 16.5455 22.6619 16.5455C23.0653 16.5455 23.4347 16.4886 23.7699 16.375C24.1051 16.2614 24.392 16.0909 24.6307 15.8636C24.8693 15.6364 25.0511 15.358 25.1761 15.0284L28.5341 15.25C28.3636 16.0568 28.0142 16.7614 27.4858 17.3636C26.9631 17.9602 26.2869 18.4261 25.4574 18.7614C24.6335 19.0909 23.6818 19.2557 22.6023 19.2557ZM30.9801 19V5.90909H34.5V8.19318H34.6364C34.875 7.38068 35.2756 6.76705 35.8381 6.35227C36.4006 5.93182 37.0483 5.72159 37.7812 5.72159C37.9631 5.72159 38.1591 5.73295 38.3693 5.75568C38.5795 5.77841 38.7642 5.80966 38.9233 5.84943V9.07102C38.7528 9.01989 38.517 8.97443 38.2159 8.93466C37.9148 8.89489 37.6392 8.875 37.3892 8.875C36.8551 8.875 36.3778 8.99148 35.9574 9.22443C35.5426 9.4517 35.2131 9.76989 34.9688 10.179C34.7301 10.5881 34.6108 11.0597 34.6108 11.5938V19H30.9801ZM40.8004 19V5.90909H44.2607V8.21875H44.4141C44.6868 7.4517 45.1413 6.84659 45.7777 6.40341C46.4141 5.96023 47.1754 5.73864 48.0618 5.73864C48.9595 5.73864 49.7237 5.96307 50.3544 6.41193C50.9851 6.85511 51.4055 7.45739 51.6158 8.21875H51.7521C52.0192 7.46875 52.5021 6.86932 53.201 6.42045C53.9055 5.96591 54.7379 5.73864 55.6982 5.73864C56.9197 5.73864 57.9112 6.12784 58.6726 6.90625C59.4396 7.67898 59.8232 8.77557 59.8232 10.196V19H56.201V10.9119C56.201 10.1847 56.0078 9.6392 55.6214 9.27557C55.2351 8.91193 54.7521 8.73011 54.1726 8.73011C53.5135 8.73011 52.9993 8.94034 52.63 9.3608C52.2607 9.77557 52.076 10.3239 52.076 11.0057V19H48.5561V10.8352C48.5561 10.1932 48.3714 9.68182 48.0021 9.30114C47.6385 8.92045 47.1584 8.73011 46.5618 8.73011C46.1584 8.73011 45.7947 8.83239 45.4709 9.03693C45.1527 9.2358 44.8999 9.51705 44.7124 9.88068C44.5249 10.2386 44.4311 10.6591 44.4311 11.142V19H40.8004ZM62.6911 19V5.90909H66.3217V19H62.6911ZM63.2109 4.22159L65.0178 0.34375H68.3757L65.7763 4.22159H63.2109ZM76.1932 5.90909V8.63636H68.3097V5.90909H76.1932ZM70.0994 2.77273H73.7301V14.9773C73.7301 15.3125 73.7813 15.5739 73.8835 15.7614C73.9858 15.9432 74.1278 16.071 74.3097 16.1449C74.4972 16.2187 74.7131 16.2557 74.9574 16.2557C75.1278 16.2557 75.2983 16.2415 75.4688 16.2131C75.6392 16.179 75.7699 16.1534 75.8608 16.1364L76.4318 18.8381C76.25 18.8949 75.9943 18.9602 75.6648 19.0341C75.3352 19.1136 74.9347 19.1619 74.4631 19.179C73.5881 19.2131 72.821 19.0966 72.1619 18.8295C71.5085 18.5625 71 18.1477 70.6364 17.5852C70.2727 17.0227 70.0938 16.3125 70.0994 15.4545V2.77273ZM84.3835 19.2557C83.0369 19.2557 81.8778 18.983 80.9062 18.4375C79.9403 17.8864 79.196 17.108 78.6733 16.1023C78.1506 15.0909 77.8892 13.8949 77.8892 12.5142C77.8892 11.1676 78.1506 9.9858 78.6733 8.96875C79.196 7.9517 79.9318 7.15909 80.8807 6.59091C81.8352 6.02273 82.9545 5.73864 84.2386 5.73864C85.1023 5.73864 85.9063 5.87784 86.6506 6.15625C87.4006 6.42898 88.054 6.84091 88.6108 7.39205C89.1733 7.94318 89.6108 8.63636 89.9233 9.47159C90.2358 10.3011 90.392 11.2727 90.392 12.3864V13.3835H79.3381V11.1335H86.9744C86.9744 10.6108 86.8608 10.1477 86.6335 9.74432C86.4063 9.34091 86.0909 9.02557 85.6875 8.7983C85.2898 8.56534 84.8267 8.44886 84.2983 8.44886C83.7472 8.44886 83.2585 8.5767 82.8324 8.83239C82.4119 9.08239 82.0824 9.42045 81.8438 9.84659C81.6051 10.267 81.483 10.7358 81.4773 11.2528V13.392C81.4773 14.0398 81.5966 14.5994 81.8352 15.071C82.0795 15.5426 82.4233 15.9062 82.8665 16.1619C83.3097 16.4176 83.8352 16.5455 84.4432 16.5455C84.8466 16.5455 85.2159 16.4886 85.5511 16.375C85.8864 16.2614 86.1733 16.0909 86.4119 15.8636C86.6506 15.6364 86.8324 15.358 86.9574 15.0284L90.3153 15.25C90.1449 16.0568 89.7955 16.7614 89.267 17.3636C88.7443 17.9602 88.0682 18.4261 87.2386 18.7614C86.4148 19.0909 85.4631 19.2557 84.3835 19.2557ZM96.392 11.4318V19H92.7614V5.90909H96.2216V8.21875H96.375C96.6648 7.45739 97.1506 6.85511 97.8324 6.41193C98.5142 5.96307 99.3409 5.73864 100.312 5.73864C101.222 5.73864 102.014 5.9375 102.69 6.33523C103.366 6.73295 103.892 7.30114 104.267 8.03977C104.642 8.77273 104.83 9.64773 104.83 10.6648V19H101.199V11.3125C101.205 10.5114 101 9.88636 100.585 9.4375C100.17 8.98295 99.5994 8.75568 98.8722 8.75568C98.3835 8.75568 97.9517 8.8608 97.5767 9.07102C97.2074 9.28125 96.9176 9.58807 96.7074 9.99148C96.5028 10.3892 96.3977 10.8693 96.392 11.4318ZM113.606 19.2557C112.282 19.2557 111.137 18.9744 110.171 18.4119C109.211 17.8437 108.469 17.054 107.947 16.0426C107.424 15.0256 107.163 13.8466 107.163 12.5057C107.163 11.1534 107.424 9.97159 107.947 8.96023C108.469 7.94318 109.211 7.15341 110.171 6.59091C111.137 6.02273 112.282 5.73864 113.606 5.73864C114.93 5.73864 116.072 6.02273 117.032 6.59091C117.998 7.15341 118.742 7.94318 119.265 8.96023C119.788 9.97159 120.049 11.1534 120.049 12.5057C120.049 13.8466 119.788 15.0256 119.265 16.0426C118.742 17.054 117.998 17.8437 117.032 18.4119C116.072 18.9744 114.93 19.2557 113.606 19.2557ZM113.623 16.4432C114.225 16.4432 114.728 16.2727 115.131 15.9318C115.535 15.5852 115.839 15.1136 116.043 14.517C116.254 13.9205 116.359 13.2415 116.359 12.4801C116.359 11.7188 116.254 11.0398 116.043 10.4432C115.839 9.84659 115.535 9.375 115.131 9.02841C114.728 8.68182 114.225 8.50852 113.623 8.50852C113.015 8.50852 112.504 8.68182 112.089 9.02841C111.68 9.375 111.37 9.84659 111.16 10.4432C110.955 11.0398 110.853 11.7188 110.853 12.4801C110.853 13.2415 110.955 13.9205 111.16 14.517C111.37 15.1136 111.68 15.5852 112.089 15.9318C112.504 16.2727 113.015 16.4432 113.623 16.4432ZM133.302 9.64205L129.978 9.84659C129.921 9.5625 129.799 9.30682 129.612 9.07955C129.424 8.84659 129.177 8.66193 128.87 8.52557C128.569 8.38352 128.208 8.3125 127.788 8.3125C127.225 8.3125 126.751 8.43182 126.364 8.67045C125.978 8.90341 125.785 9.21591 125.785 9.60795C125.785 9.92045 125.91 10.1847 126.16 10.4006C126.41 10.6165 126.839 10.7898 127.447 10.9205L129.816 11.3977C131.089 11.6591 132.038 12.0795 132.663 12.6591C133.288 13.2386 133.6 14 133.6 14.9432C133.6 15.8011 133.347 16.554 132.842 17.2017C132.342 17.8494 131.654 18.3551 130.779 18.7188C129.91 19.0767 128.907 19.2557 127.771 19.2557C126.038 19.2557 124.657 18.8949 123.629 18.1733C122.606 17.446 122.006 16.4574 121.83 15.2074L125.401 15.0199C125.509 15.5483 125.771 15.9517 126.185 16.2301C126.6 16.5028 127.131 16.6392 127.779 16.6392C128.415 16.6392 128.927 16.517 129.313 16.2727C129.705 16.0227 129.904 15.7017 129.91 15.3097C129.904 14.9801 129.765 14.7102 129.492 14.5C129.219 14.2841 128.799 14.1193 128.231 14.0057L125.964 13.554C124.685 13.2983 123.734 12.8551 123.109 12.2244C122.489 11.5937 122.18 10.7898 122.18 9.8125C122.18 8.97159 122.407 8.24716 122.862 7.6392C123.322 7.03125 123.967 6.5625 124.796 6.23295C125.631 5.90341 126.609 5.73864 127.728 5.73864C129.381 5.73864 130.683 6.08807 131.631 6.78693C132.586 7.4858 133.143 8.4375 133.302 9.64205ZM5.18182 48.2472C4.34659 48.2472 3.60227 48.1023 2.94886 47.8125C2.29545 47.517 1.77841 47.0824 1.39773 46.5085C1.02273 45.929 0.835227 45.2074 0.835227 44.3438C0.835227 43.6165 0.96875 43.0057 1.2358 42.5114C1.50284 42.017 1.86648 41.6193 2.3267 41.3182C2.78693 41.017 3.30966 40.7898 3.89489 40.6364C4.4858 40.483 5.10511 40.375 5.75284 40.3125C6.5142 40.233 7.12784 40.1591 7.59375 40.0909C8.05966 40.017 8.39773 39.9091 8.60795 39.767C8.81818 39.625 8.9233 39.4148 8.9233 39.1364V39.0852C8.9233 38.5455 8.75284 38.1278 8.41193 37.8324C8.0767 37.5369 7.59943 37.3892 6.98011 37.3892C6.3267 37.3892 5.80682 37.5341 5.42045 37.8239C5.03409 38.108 4.77841 38.4659 4.65341 38.8977L1.29545 38.625C1.46591 37.8295 1.80114 37.142 2.30114 36.5625C2.80114 35.9773 3.44602 35.5284 4.2358 35.2159C5.03125 34.8977 5.9517 34.7386 6.99716 34.7386C7.72443 34.7386 8.42045 34.8239 9.08523 34.9943C9.75568 35.1648 10.3494 35.429 10.8665 35.7869C11.3892 36.1449 11.8011 36.6051 12.1023 37.1676C12.4034 37.7244 12.554 38.392 12.554 39.1705V48H9.1108V46.1847H9.00852C8.7983 46.5938 8.51705 46.9545 8.16477 47.267C7.8125 47.5739 7.3892 47.8153 6.89489 47.9915C6.40057 48.1619 5.82955 48.2472 5.18182 48.2472ZM6.22159 45.7415C6.75568 45.7415 7.22727 45.6364 7.63636 45.4261C8.04545 45.2102 8.36648 44.9205 8.59943 44.5568C8.83239 44.1932 8.94886 43.7812 8.94886 43.321V41.9318C8.83523 42.0057 8.67898 42.0739 8.48011 42.1364C8.28693 42.1932 8.06818 42.2472 7.82386 42.2983C7.57955 42.3437 7.33523 42.3864 7.09091 42.4261C6.84659 42.4602 6.625 42.4915 6.42614 42.5199C6 42.5824 5.62784 42.6818 5.30966 42.8182C4.99148 42.9545 4.74432 43.1392 4.56818 43.3722C4.39205 43.5994 4.30398 43.8835 4.30398 44.2244C4.30398 44.7188 4.48295 45.0966 4.84091 45.358C5.20455 45.6136 5.66477 45.7415 6.22159 45.7415ZM17.1435 52.9091C16.6832 52.9091 16.2514 52.8722 15.848 52.7983C15.4503 52.7301 15.1207 52.642 14.8594 52.5341L15.6776 49.8239C16.1037 49.9545 16.4872 50.0256 16.8281 50.0369C17.1747 50.0483 17.473 49.9688 17.723 49.7983C17.9787 49.6278 18.1861 49.3381 18.3452 48.929L18.5582 48.375L13.8622 34.9091H17.6804L20.3906 44.5227H20.527L23.2628 34.9091H27.1065L22.0185 49.4148C21.7741 50.1193 21.4418 50.733 21.0213 51.2557C20.6065 51.7841 20.081 52.1903 19.4446 52.4744C18.8082 52.7642 18.0412 52.9091 17.1435 52.9091ZM37.3594 42.4261V34.9091H40.9901V48H37.5043V45.6222H37.3679C37.0724 46.3892 36.581 47.0057 35.8935 47.4716C35.2116 47.9375 34.3793 48.1705 33.3963 48.1705C32.5213 48.1705 31.7514 47.9716 31.0866 47.5739C30.4219 47.1761 29.902 46.6108 29.527 45.8778C29.1577 45.1449 28.9702 44.267 28.9645 43.2443V34.9091H32.5952V42.5966C32.6009 43.3693 32.8082 43.9801 33.2173 44.429C33.6264 44.8778 34.1747 45.1023 34.8622 45.1023C35.2997 45.1023 35.7088 45.0028 36.0895 44.804C36.4702 44.5994 36.777 44.2983 37.0099 43.9006C37.2486 43.5028 37.3651 43.0114 37.3594 42.4261ZM48.718 48.2131C47.7237 48.2131 46.8232 47.9574 46.0163 47.446C45.2152 46.929 44.5788 46.1705 44.1072 45.1705C43.6413 44.1648 43.4084 42.9318 43.4084 41.4716C43.4084 39.9716 43.6499 38.7244 44.1328 37.7301C44.6158 36.7301 45.2578 35.983 46.0589 35.4886C46.8658 34.9886 47.7493 34.7386 48.7095 34.7386C49.4425 34.7386 50.0533 34.8636 50.5419 35.1136C51.0362 35.358 51.4339 35.6648 51.7351 36.0341C52.0419 36.3977 52.2749 36.7557 52.4339 37.108H52.5447V30.5455H56.1669V48H52.5874V45.9034H52.4339C52.2635 46.267 52.022 46.6278 51.7095 46.9858C51.4027 47.3381 51.0021 47.6307 50.5078 47.8636C50.0192 48.0966 49.4226 48.2131 48.718 48.2131ZM49.8686 45.3239C50.4538 45.3239 50.9482 45.1648 51.3516 44.8466C51.7607 44.5227 52.0732 44.071 52.2891 43.4915C52.5107 42.9119 52.6214 42.233 52.6214 41.4545C52.6214 40.6761 52.5135 40 52.2976 39.4261C52.0817 38.8523 51.7692 38.4091 51.3601 38.0966C50.951 37.7841 50.4538 37.6278 49.8686 37.6278C49.272 37.6278 48.7692 37.7898 48.3601 38.1136C47.951 38.4375 47.6413 38.8864 47.4311 39.4602C47.2209 40.0341 47.1158 40.6989 47.1158 41.4545C47.1158 42.2159 47.2209 42.8892 47.4311 43.4744C47.647 44.054 47.9567 44.5085 48.3601 44.8381C48.7692 45.1619 49.272 45.3239 49.8686 45.3239ZM62.8849 48.2472C62.0497 48.2472 61.3054 48.1023 60.652 47.8125C59.9986 47.517 59.4815 47.0824 59.1009 46.5085C58.7259 45.929 58.5384 45.2074 58.5384 44.3438C58.5384 43.6165 58.6719 43.0057 58.9389 42.5114C59.206 42.017 59.5696 41.6193 60.0298 41.3182C60.4901 41.017 61.0128 40.7898 61.598 40.6364C62.1889 40.483 62.8082 40.375 63.456 40.3125C64.2173 40.233 64.831 40.1591 65.2969 40.0909C65.7628 40.017 66.1009 39.9091 66.3111 39.767C66.5213 39.625 66.6264 39.4148 66.6264 39.1364V39.0852C66.6264 38.5455 66.456 38.1278 66.1151 37.8324C65.7798 37.5369 65.3026 37.3892 64.6832 37.3892C64.0298 37.3892 63.5099 37.5341 63.1236 37.8239C62.7372 38.108 62.4815 38.4659 62.3565 38.8977L58.9986 38.625C59.169 37.8295 59.5043 37.142 60.0043 36.5625C60.5043 35.9773 61.1491 35.5284 61.9389 35.2159C62.7344 34.8977 63.6548 34.7386 64.7003 34.7386C65.4276 34.7386 66.1236 34.8239 66.7884 34.9943C67.4588 35.1648 68.0526 35.429 68.5696 35.7869C69.0923 36.1449 69.5043 36.6051 69.8054 37.1676C70.1065 37.7244 70.2571 38.392 70.2571 39.1705V48H66.8139V46.1847H66.7116C66.5014 46.5938 66.2202 46.9545 65.8679 47.267C65.5156 47.5739 65.0923 47.8153 64.598 47.9915C64.1037 48.1619 63.5327 48.2472 62.8849 48.2472ZM63.9247 45.7415C64.4588 45.7415 64.9304 45.6364 65.3395 45.4261C65.7486 45.2102 66.0696 44.9205 66.3026 44.5568C66.5355 44.1932 66.652 43.7812 66.652 43.321V41.9318C66.5384 42.0057 66.3821 42.0739 66.1832 42.1364C65.9901 42.1932 65.7713 42.2472 65.527 42.2983C65.2827 42.3437 65.0384 42.3864 64.794 42.4261C64.5497 42.4602 64.3281 42.4915 64.1293 42.5199C63.7031 42.5824 63.331 42.6818 63.0128 42.8182C62.6946 42.9545 62.4474 43.1392 62.2713 43.3722C62.0952 43.5994 62.0071 43.8835 62.0071 44.2244C62.0071 44.7188 62.1861 45.0966 62.544 45.358C62.9077 45.6136 63.3679 45.7415 63.9247 45.7415ZM73.0739 48V34.9091H76.5938V37.1932H76.7301C76.9688 36.3807 77.3693 35.767 77.9318 35.3523C78.4943 34.9318 79.142 34.7216 79.875 34.7216C80.0568 34.7216 80.2528 34.733 80.4631 34.7557C80.6733 34.7784 80.858 34.8097 81.017 34.8494V38.071C80.8466 38.0199 80.6108 37.9744 80.3097 37.9347C80.0085 37.8949 79.733 37.875 79.483 37.875C78.9489 37.875 78.4716 37.9915 78.0511 38.2244C77.6364 38.4517 77.3068 38.7699 77.0625 39.179C76.8239 39.5881 76.7045 40.0597 76.7045 40.5938V48H73.0739ZM90.5135 34.9091V37.6364H82.63V34.9091H90.5135ZM84.4197 31.7727H88.0504V43.9773C88.0504 44.3125 88.1016 44.5739 88.2038 44.7614C88.3061 44.9432 88.4482 45.071 88.63 45.1449C88.8175 45.2187 89.0334 45.2557 89.2777 45.2557C89.4482 45.2557 89.6186 45.2415 89.7891 45.2131C89.9595 45.179 90.0902 45.1534 90.1811 45.1364L90.7521 47.8381C90.5703 47.8949 90.3146 47.9602 89.9851 48.0341C89.6555 48.1136 89.255 48.1619 88.7834 48.179C87.9084 48.2131 87.1413 48.0966 86.4822 47.8295C85.8288 47.5625 85.3203 47.1477 84.9567 46.5852C84.593 46.0227 84.4141 45.3125 84.4197 44.4545V31.7727ZM98.7038 48.2557C97.3572 48.2557 96.1982 47.983 95.2266 47.4375C94.2607 46.8864 93.5163 46.108 92.9936 45.1023C92.4709 44.0909 92.2095 42.8949 92.2095 41.5142C92.2095 40.1676 92.4709 38.9858 92.9936 37.9688C93.5163 36.9517 94.2521 36.1591 95.201 35.5909C96.1555 35.0227 97.2749 34.7386 98.5589 34.7386C99.4226 34.7386 100.227 34.8778 100.971 35.1562C101.721 35.429 102.374 35.8409 102.931 36.392C103.494 36.9432 103.931 37.6364 104.244 38.4716C104.556 39.3011 104.712 40.2727 104.712 41.3864V42.3835H93.6584V40.1335H101.295C101.295 39.6108 101.181 39.1477 100.954 38.7443C100.727 38.3409 100.411 38.0256 100.008 37.7983C99.6101 37.5653 99.147 37.4489 98.6186 37.4489C98.0675 37.4489 97.5788 37.5767 97.1527 37.8324C96.7322 38.0824 96.4027 38.4205 96.1641 38.8466C95.9254 39.267 95.8033 39.7358 95.7976 40.2528V42.392C95.7976 43.0398 95.9169 43.5994 96.1555 44.071C96.3999 44.5426 96.7436 44.9062 97.1868 45.1619C97.63 45.4176 98.1555 45.5455 98.7635 45.5455C99.1669 45.5455 99.5362 45.4886 99.8714 45.375C100.207 45.2614 100.494 45.0909 100.732 44.8636C100.971 44.6364 101.153 44.358 101.278 44.0284L104.636 44.25C104.465 45.0568 104.116 45.7614 103.587 46.3636C103.065 46.9602 102.388 47.4261 101.559 47.7614C100.735 48.0909 99.7834 48.2557 98.7038 48.2557ZM116.369 48.2472C115.534 48.2472 114.79 48.1023 114.136 47.8125C113.483 47.517 112.966 47.0824 112.585 46.5085C112.21 45.929 112.023 45.2074 112.023 44.3438C112.023 43.6165 112.156 43.0057 112.423 42.5114C112.69 42.017 113.054 41.6193 113.514 41.3182C113.974 41.017 114.497 40.7898 115.082 40.6364C115.673 40.483 116.293 40.375 116.94 40.3125C117.702 40.233 118.315 40.1591 118.781 40.0909C119.247 40.017 119.585 39.9091 119.795 39.767C120.006 39.625 120.111 39.4148 120.111 39.1364V39.0852C120.111 38.5455 119.94 38.1278 119.599 37.8324C119.264 37.5369 118.787 37.3892 118.168 37.3892C117.514 37.3892 116.994 37.5341 116.608 37.8239C116.222 38.108 115.966 38.4659 115.841 38.8977L112.483 38.625C112.653 37.8295 112.989 37.142 113.489 36.5625C113.989 35.9773 114.634 35.5284 115.423 35.2159C116.219 34.8977 117.139 34.7386 118.185 34.7386C118.912 34.7386 119.608 34.8239 120.273 34.9943C120.943 35.1648 121.537 35.429 122.054 35.7869C122.577 36.1449 122.989 36.6051 123.29 37.1676C123.591 37.7244 123.741 38.392 123.741 39.1705V48H120.298V46.1847H120.196C119.986 46.5938 119.705 46.9545 119.352 47.267C119 47.5739 118.577 47.8153 118.082 47.9915C117.588 48.1619 117.017 48.2472 116.369 48.2472ZM117.409 45.7415C117.943 45.7415 118.415 45.6364 118.824 45.4261C119.233 45.2102 119.554 44.9205 119.787 44.5568C120.02 44.1932 120.136 43.7812 120.136 43.321V41.9318C120.023 42.0057 119.866 42.0739 119.668 42.1364C119.474 42.1932 119.256 42.2472 119.011 42.2983C118.767 42.3437 118.523 42.3864 118.278 42.4261C118.034 42.4602 117.812 42.4915 117.614 42.5199C117.188 42.5824 116.815 42.6818 116.497 42.8182C116.179 42.9545 115.932 43.1392 115.756 43.3722C115.58 43.5994 115.491 43.8835 115.491 44.2244C115.491 44.7188 115.67 45.0966 116.028 45.358C116.392 45.6136 116.852 45.7415 117.409 45.7415ZM7.41477 77.2557C6.06818 77.2557 4.90909 76.983 3.9375 76.4375C2.97159 75.8864 2.22727 75.108 1.70455 74.1023C1.18182 73.0909 0.920455 71.8949 0.920455 70.5142C0.920455 69.1676 1.18182 67.9858 1.70455 66.9688C2.22727 65.9517 2.96307 65.1591 3.91193 64.5909C4.86648 64.0227 5.9858 63.7386 7.26989 63.7386C8.13352 63.7386 8.9375 63.8778 9.68182 64.1562C10.4318 64.429 11.0852 64.8409 11.642 65.392C12.2045 65.9432 12.642 66.6364 12.9545 67.4716C13.267 68.3011 13.4233 69.2727 13.4233 70.3864V71.3835H2.36932V69.1335H10.0057C10.0057 68.6108 9.89205 68.1477 9.66477 67.7443C9.4375 67.3409 9.12216 67.0256 8.71875 66.7983C8.32102 66.5653 7.85795 66.4489 7.32955 66.4489C6.77841 66.4489 6.28977 66.5767 5.86364 66.8324C5.44318 67.0824 5.11364 67.4205 4.875 67.8466C4.63636 68.267 4.5142 68.7358 4.50852 69.2528V71.392C4.50852 72.0398 4.62784 72.5994 4.86648 73.071C5.1108 73.5426 5.45455 73.9062 5.89773 74.1619C6.34091 74.4176 6.86648 74.5455 7.47443 74.5455C7.87784 74.5455 8.24716 74.4886 8.58239 74.375C8.91761 74.2614 9.20455 74.0909 9.44318 73.8636C9.68182 73.6364 9.86364 73.358 9.98864 73.0284L13.3466 73.25C13.1761 74.0568 12.8267 74.7614 12.2983 75.3636C11.7756 75.9602 11.0994 76.4261 10.2699 76.7614C9.44602 77.0909 8.49432 77.2557 7.41477 77.2557ZM19.4233 69.4318V77H15.7926V63.9091H19.2528V66.2188H19.4062C19.696 65.4574 20.1818 64.8551 20.8636 64.4119C21.5455 63.9631 22.3722 63.7386 23.3438 63.7386C24.2528 63.7386 25.0455 63.9375 25.7216 64.3352C26.3977 64.733 26.9233 65.3011 27.2983 66.0398C27.6733 66.7727 27.8608 67.6477 27.8608 68.6648V77H24.2301V69.3125C24.2358 68.5114 24.0313 67.8864 23.6165 67.4375C23.2017 66.983 22.6307 66.7557 21.9034 66.7557C21.4148 66.7557 20.983 66.8608 20.608 67.071C20.2386 67.2812 19.9489 67.5881 19.7386 67.9915C19.5341 68.3892 19.429 68.8693 19.4233 69.4318ZM36.6371 77.2557C35.2962 77.2557 34.1428 76.9716 33.1768 76.4034C32.2166 75.8295 31.478 75.0341 30.9609 74.017C30.4496 73 30.1939 71.8295 30.1939 70.5057C30.1939 69.1648 30.4524 67.9886 30.9695 66.9773C31.4922 65.9602 32.2337 65.1676 33.1939 64.5994C34.1541 64.0256 35.2962 63.7386 36.62 63.7386C37.7621 63.7386 38.7621 63.946 39.62 64.3608C40.478 64.7756 41.157 65.358 41.657 66.108C42.157 66.858 42.4325 67.7386 42.4837 68.75H39.0575C38.9609 68.0966 38.7053 67.571 38.2905 67.1733C37.8814 66.7699 37.3445 66.5682 36.6797 66.5682C36.1172 66.5682 35.6257 66.7216 35.2053 67.0284C34.7905 67.3295 34.4666 67.7699 34.2337 68.3494C34.0007 68.929 33.8842 69.6307 33.8842 70.4545C33.8842 71.2898 33.9979 72 34.2251 72.5852C34.4581 73.1705 34.7848 73.6165 35.2053 73.9233C35.6257 74.2301 36.1172 74.3835 36.6797 74.3835C37.0945 74.3835 37.4666 74.2983 37.7962 74.1278C38.1314 73.9574 38.407 73.7102 38.6229 73.3864C38.8445 73.0568 38.9893 72.6619 39.0575 72.2017H42.4837C42.4268 73.2017 42.1541 74.0824 41.6655 74.8438C41.1825 75.5994 40.5149 76.1903 39.6626 76.6165C38.8104 77.0426 37.8018 77.2557 36.6371 77.2557ZM50.723 77.2557C49.3991 77.2557 48.2543 76.9744 47.2884 76.4119C46.3281 75.8437 45.5866 75.054 45.0639 74.0426C44.5412 73.0256 44.2798 71.8466 44.2798 70.5057C44.2798 69.1534 44.5412 67.9716 45.0639 66.9602C45.5866 65.9432 46.3281 65.1534 47.2884 64.5909C48.2543 64.0227 49.3991 63.7386 50.723 63.7386C52.0469 63.7386 53.1889 64.0227 54.1491 64.5909C55.1151 65.1534 55.8594 65.9432 56.3821 66.9602C56.9048 67.9716 57.1662 69.1534 57.1662 70.5057C57.1662 71.8466 56.9048 73.0256 56.3821 74.0426C55.8594 75.054 55.1151 75.8437 54.1491 76.4119C53.1889 76.9744 52.0469 77.2557 50.723 77.2557ZM50.7401 74.4432C51.3423 74.4432 51.8452 74.2727 52.2486 73.9318C52.652 73.5852 52.956 73.1136 53.1605 72.517C53.3707 71.9205 53.4759 71.2415 53.4759 70.4801C53.4759 69.7188 53.3707 69.0398 53.1605 68.4432C52.956 67.8466 52.652 67.375 52.2486 67.0284C51.8452 66.6818 51.3423 66.5085 50.7401 66.5085C50.1321 66.5085 49.6207 66.6818 49.206 67.0284C48.7969 67.375 48.4872 67.8466 48.277 68.4432C48.0724 69.0398 47.9702 69.7188 47.9702 70.4801C47.9702 71.2415 48.0724 71.9205 48.277 72.517C48.4872 73.1136 48.7969 73.5852 49.206 73.9318C49.6207 74.2727 50.1321 74.4432 50.7401 74.4432ZM63.1577 69.4318V77H59.527V63.9091H62.9872V66.2188H63.1406C63.4304 65.4574 63.9162 64.8551 64.598 64.4119C65.2798 63.9631 66.1065 63.7386 67.0781 63.7386C67.9872 63.7386 68.7798 63.9375 69.456 64.3352C70.1321 64.733 70.6577 65.3011 71.0327 66.0398C71.4077 66.7727 71.5952 67.6477 71.5952 68.6648V77H67.9645V69.3125C67.9702 68.5114 67.7656 67.8864 67.3509 67.4375C66.9361 66.983 66.3651 66.7557 65.6378 66.7557C65.1491 66.7557 64.7173 66.8608 64.3423 67.071C63.973 67.2812 63.6832 67.5881 63.473 67.9915C63.2685 68.3892 63.1634 68.8693 63.1577 69.4318ZM81.4197 63.9091V66.6364H73.5362V63.9091H81.4197ZM75.326 60.7727H78.9567V72.9773C78.9567 73.3125 79.0078 73.5739 79.1101 73.7614C79.2124 73.9432 79.3544 74.071 79.5362 74.1449C79.7237 74.2187 79.9396 74.2557 80.1839 74.2557C80.3544 74.2557 80.5249 74.2415 80.6953 74.2131C80.8658 74.179 80.9964 74.1534 81.0874 74.1364L81.6584 76.8381C81.4766 76.8949 81.2209 76.9602 80.8913 77.0341C80.5618 77.1136 80.1612 77.1619 79.6896 77.179C78.8146 77.2131 78.0476 77.0966 77.3885 76.8295C76.7351 76.5625 76.2266 76.1477 75.8629 75.5852C75.4993 75.0227 75.3203 74.3125 75.326 73.4545V60.7727ZM83.7848 77V63.9091H87.3047V66.1932H87.4411C87.6797 65.3807 88.0803 64.767 88.6428 64.3523C89.2053 63.9318 89.853 63.7216 90.5859 63.7216C90.7678 63.7216 90.9638 63.733 91.174 63.7557C91.3842 63.7784 91.5689 63.8097 91.728 63.8494V67.071C91.5575 67.0199 91.3217 66.9744 91.0206 66.9347C90.7195 66.8949 90.4439 66.875 90.1939 66.875C89.6598 66.875 89.1825 66.9915 88.7621 67.2244C88.3473 67.4517 88.0178 67.7699 87.7734 68.179C87.5348 68.5881 87.4155 69.0597 87.4155 69.5938V77H83.7848ZM96.9631 77.2472C96.1278 77.2472 95.3835 77.1023 94.7301 76.8125C94.0767 76.517 93.5597 76.0824 93.179 75.5085C92.804 74.929 92.6165 74.2074 92.6165 73.3438C92.6165 72.6165 92.75 72.0057 93.017 71.5114C93.2841 71.017 93.6477 70.6193 94.108 70.3182C94.5682 70.017 95.0909 69.7898 95.6761 69.6364C96.267 69.483 96.8864 69.375 97.5341 69.3125C98.2955 69.233 98.9091 69.1591 99.375 69.0909C99.8409 69.017 100.179 68.9091 100.389 68.767C100.599 68.625 100.705 68.4148 100.705 68.1364V68.0852C100.705 67.5455 100.534 67.1278 100.193 66.8324C99.858 66.5369 99.3807 66.3892 98.7614 66.3892C98.108 66.3892 97.5881 66.5341 97.2017 66.8239C96.8153 67.108 96.5597 67.4659 96.4347 67.8977L93.0767 67.625C93.2472 66.8295 93.5824 66.142 94.0824 65.5625C94.5824 64.9773 95.2273 64.5284 96.017 64.2159C96.8125 63.8977 97.733 63.7386 98.7784 63.7386C99.5057 63.7386 100.202 63.8239 100.866 63.9943C101.537 64.1648 102.131 64.429 102.648 64.7869C103.17 65.1449 103.582 65.6051 103.884 66.1676C104.185 66.7244 104.335 67.392 104.335 68.1705V77H100.892V75.1847H100.79C100.58 75.5938 100.298 75.9545 99.946 76.267C99.5938 76.5739 99.1705 76.8153 98.6761 76.9915C98.1818 77.1619 97.6108 77.2472 96.9631 77.2472ZM98.0028 74.7415C98.5369 74.7415 99.0085 74.6364 99.4176 74.4261C99.8267 74.2102 100.148 73.9205 100.381 73.5568C100.614 73.1932 100.73 72.7812 100.73 72.321V70.9318C100.616 71.0057 100.46 71.0739 100.261 71.1364C100.068 71.1932 99.8494 71.2472 99.6051 71.2983C99.3608 71.3437 99.1165 71.3864 98.8722 71.4261C98.6278 71.4602 98.4062 71.4915 98.2074 71.5199C97.7813 71.5824 97.4091 71.6818 97.0909 71.8182C96.7727 71.9545 96.5256 72.1392 96.3494 72.3722C96.1733 72.5994 96.0852 72.8835 96.0852 73.2244C96.0852 73.7188 96.2642 74.0966 96.6222 74.358C96.9858 74.6136 97.446 74.7415 98.0028 74.7415ZM107.152 77V63.9091H110.672V66.1932H110.808C111.047 65.3807 111.447 64.767 112.01 64.3523C112.572 63.9318 113.22 63.7216 113.953 63.7216C114.135 63.7216 114.331 63.733 114.541 63.7557C114.751 63.7784 114.936 63.8097 115.095 63.8494V67.071C114.925 67.0199 114.689 66.9744 114.388 66.9347C114.087 66.8949 113.811 66.875 113.561 66.875C113.027 66.875 112.55 66.9915 112.129 67.2244C111.714 67.4517 111.385 67.7699 111.141 68.179C110.902 68.5881 110.783 69.0597 110.783 69.5938V77H107.152ZM7.41477 106.256C6.06818 106.256 4.90909 105.983 3.9375 105.438C2.97159 104.886 2.22727 104.108 1.70455 103.102C1.18182 102.091 0.920455 100.895 0.920455 99.5142C0.920455 98.1676 1.18182 96.9858 1.70455 95.9688C2.22727 94.9517 2.96307 94.1591 3.91193 93.5909C4.86648 93.0227 5.9858 92.7386 7.26989 92.7386C8.13352 92.7386 8.9375 92.8778 9.68182 93.1562C10.4318 93.429 11.0852 93.8409 11.642 94.392C12.2045 94.9432 12.642 95.6364 12.9545 96.4716C13.267 97.3011 13.4233 98.2727 13.4233 99.3864V100.384H2.36932V98.1335H10.0057C10.0057 97.6108 9.89205 97.1477 9.66477 96.7443C9.4375 96.3409 9.12216 96.0256 8.71875 95.7983C8.32102 95.5653 7.85795 95.4489 7.32955 95.4489C6.77841 95.4489 6.28977 95.5767 5.86364 95.8324C5.44318 96.0824 5.11364 96.4205 4.875 96.8466C4.63636 97.267 4.5142 97.7358 4.50852 98.2528V100.392C4.50852 101.04 4.62784 101.599 4.86648 102.071C5.1108 102.543 5.45455 102.906 5.89773 103.162C6.34091 103.418 6.86648 103.545 7.47443 103.545C7.87784 103.545 8.24716 103.489 8.58239 103.375C8.91761 103.261 9.20455 103.091 9.44318 102.864C9.68182 102.636 9.86364 102.358 9.98864 102.028L13.3466 102.25C13.1761 103.057 12.8267 103.761 12.2983 104.364C11.7756 104.96 11.0994 105.426 10.2699 105.761C9.44602 106.091 8.49432 106.256 7.41477 106.256ZM19.4233 88.5455V106H15.7926V88.5455H19.4233ZM34.7685 92.9091V94.6136H27.9844V92.9091H34.7685ZM29.9616 89.7727H31.973V102.25C31.973 102.818 32.0554 103.244 32.2202 103.528C32.3906 103.807 32.6065 103.994 32.8679 104.091C33.1349 104.182 33.4162 104.227 33.7116 104.227C33.9332 104.227 34.1151 104.216 34.2571 104.193C34.3991 104.165 34.5128 104.142 34.598 104.125L35.0071 105.932C34.8707 105.983 34.6804 106.034 34.4361 106.085C34.1918 106.142 33.8821 106.17 33.5071 106.17C32.9389 106.17 32.3821 106.048 31.8366 105.804C31.2969 105.56 30.848 105.188 30.4901 104.688C30.1378 104.188 29.9616 103.557 29.9616 102.795V89.7727ZM37.794 106V92.9091H39.7372V94.8864H39.8736C40.1122 94.2386 40.544 93.7131 41.169 93.3097C41.794 92.9062 42.4986 92.7045 43.2827 92.7045C43.4304 92.7045 43.6151 92.7074 43.8366 92.7131C44.0582 92.7187 44.2259 92.7273 44.3395 92.7386V94.7841C44.2713 94.767 44.1151 94.7415 43.8707 94.7074C43.6321 94.6676 43.3793 94.6477 43.1122 94.6477C42.4759 94.6477 41.9077 94.7812 41.4077 95.0483C40.9134 95.3097 40.5213 95.6733 40.2315 96.1392C39.9474 96.5994 39.8054 97.125 39.8054 97.7159V106H37.794ZM50.576 106.307C49.7464 106.307 48.9936 106.151 48.3175 105.838C47.6413 105.52 47.1044 105.062 46.7067 104.466C46.3089 103.864 46.1101 103.136 46.1101 102.284C46.1101 101.534 46.2578 100.926 46.5533 100.46C46.8487 99.9886 47.2436 99.6193 47.7379 99.3523C48.2322 99.0852 48.7777 98.8864 49.3743 98.7557C49.9766 98.6193 50.5817 98.5114 51.1896 98.4318C51.9851 98.3295 52.63 98.2528 53.1243 98.2017C53.6243 98.1449 53.9879 98.0511 54.2152 97.9205C54.4482 97.7898 54.5646 97.5625 54.5646 97.2386V97.1705C54.5646 96.3295 54.3345 95.6761 53.8743 95.2102C53.4197 94.7443 52.7294 94.5114 51.8033 94.5114C50.843 94.5114 50.0902 94.7216 49.5447 95.142C48.9993 95.5625 48.6158 96.0114 48.3942 96.4886L46.4851 95.8068C46.826 95.0114 47.2805 94.392 47.8487 93.9489C48.4226 93.5 49.0476 93.1875 49.7237 93.0114C50.4055 92.8295 51.076 92.7386 51.7351 92.7386C52.1555 92.7386 52.6385 92.7898 53.1839 92.892C53.7351 92.9886 54.2663 93.1903 54.7777 93.4972C55.2947 93.804 55.7237 94.267 56.0646 94.8864C56.4055 95.5057 56.576 96.3352 56.576 97.375V106H54.5646V104.227H54.4624C54.326 104.511 54.0987 104.815 53.7805 105.139C53.4624 105.463 53.0391 105.739 52.5107 105.966C51.9822 106.193 51.3374 106.307 50.576 106.307ZM50.8828 104.5C51.6783 104.5 52.3487 104.344 52.8942 104.031C53.4453 103.719 53.8601 103.315 54.1385 102.821C54.4226 102.327 54.5646 101.807 54.5646 101.261V99.4205C54.4794 99.5227 54.2919 99.6165 54.0021 99.7017C53.718 99.7812 53.3885 99.8523 53.0135 99.9148C52.6442 99.9716 52.2834 100.023 51.9311 100.068C51.5845 100.108 51.3033 100.142 51.0874 100.17C50.5646 100.239 50.076 100.349 49.6214 100.503C49.1726 100.651 48.8089 100.875 48.5305 101.176C48.2578 101.472 48.1214 101.875 48.1214 102.386C48.1214 103.085 48.38 103.614 48.897 103.972C49.4197 104.324 50.0817 104.5 50.8828 104.5ZM60.5199 106V88.5455H62.5312V94.9886H62.7017C62.8494 94.7614 63.054 94.4716 63.3153 94.1193C63.5824 93.7614 63.9631 93.4432 64.4574 93.1648C64.9574 92.8807 65.6335 92.7386 66.4858 92.7386C67.5881 92.7386 68.5597 93.0142 69.4006 93.5653C70.2415 94.1165 70.8977 94.8977 71.3693 95.9091C71.8409 96.9205 72.0767 98.1136 72.0767 99.4886C72.0767 100.875 71.8409 102.077 71.3693 103.094C70.8977 104.105 70.2443 104.889 69.4091 105.446C68.5739 105.997 67.6108 106.273 66.5199 106.273C65.679 106.273 65.0057 106.134 64.5 105.855C63.9943 105.571 63.6051 105.25 63.3324 104.892C63.0597 104.528 62.8494 104.227 62.7017 103.989H62.4631V106H60.5199ZM62.4972 99.4545C62.4972 100.443 62.642 101.315 62.9318 102.071C63.2216 102.821 63.6449 103.409 64.2017 103.835C64.7585 104.256 65.4403 104.466 66.2472 104.466C67.0881 104.466 67.7898 104.244 68.3523 103.801C68.9205 103.352 69.3466 102.75 69.6307 101.994C69.9205 101.233 70.0653 100.386 70.0653 99.4545C70.0653 98.5341 69.9233 97.7045 69.6392 96.9659C69.3608 96.2216 68.9375 95.6335 68.3693 95.2017C67.8068 94.7642 67.0994 94.5455 66.2472 94.5455C65.429 94.5455 64.7415 94.7528 64.1847 95.1676C63.6278 95.5767 63.2074 96.1506 62.9233 96.8892C62.6392 97.6222 62.4972 98.4773 62.4972 99.4545ZM79.0057 106.307C78.1761 106.307 77.4233 106.151 76.7472 105.838C76.071 105.52 75.5341 105.062 75.1364 104.466C74.7386 103.864 74.5398 103.136 74.5398 102.284C74.5398 101.534 74.6875 100.926 74.983 100.46C75.2784 99.9886 75.6733 99.6193 76.1676 99.3523C76.6619 99.0852 77.2074 98.8864 77.804 98.7557C78.4063 98.6193 79.0114 98.5114 79.6193 98.4318C80.4148 98.3295 81.0597 98.2528 81.554 98.2017C82.054 98.1449 82.4176 98.0511 82.6449 97.9205C82.8778 97.7898 82.9943 97.5625 82.9943 97.2386V97.1705C82.9943 96.3295 82.7642 95.6761 82.304 95.2102C81.8494 94.7443 81.1591 94.5114 80.233 94.5114C79.2727 94.5114 78.5199 94.7216 77.9744 95.142C77.429 95.5625 77.0455 96.0114 76.8239 96.4886L74.9148 95.8068C75.2557 95.0114 75.7102 94.392 76.2784 93.9489C76.8523 93.5 77.4773 93.1875 78.1534 93.0114C78.8352 92.8295 79.5057 92.7386 80.1648 92.7386C80.5852 92.7386 81.0682 92.7898 81.6136 92.892C82.1648 92.9886 82.696 93.1903 83.2074 93.4972C83.7244 93.804 84.1534 94.267 84.4943 94.8864C84.8352 95.5057 85.0057 96.3352 85.0057 97.375V106H82.9943V104.227H82.892C82.7557 104.511 82.5284 104.815 82.2102 105.139C81.892 105.463 81.4688 105.739 80.9403 105.966C80.4119 106.193 79.767 106.307 79.0057 106.307ZM79.3125 104.5C80.108 104.5 80.7784 104.344 81.3239 104.031C81.875 103.719 82.2898 103.315 82.5682 102.821C82.8523 102.327 82.9943 101.807 82.9943 101.261V99.4205C82.9091 99.5227 82.7216 99.6165 82.4318 99.7017C82.1477 99.7812 81.8182 99.8523 81.4432 99.9148C81.0739 99.9716 80.7131 100.023 80.3608 100.068C80.0142 100.108 79.733 100.142 79.517 100.17C78.9943 100.239 78.5057 100.349 78.0511 100.503C77.6023 100.651 77.2386 100.875 76.9602 101.176C76.6875 101.472 76.5511 101.875 76.5511 102.386C76.5511 103.085 76.8097 103.614 77.3267 103.972C77.8494 104.324 78.5114 104.5 79.3125 104.5ZM88.6768 92.9091H90.6882V106.955C90.6882 107.761 90.549 108.46 90.2706 109.051C89.9979 109.642 89.5831 110.099 89.0263 110.423C88.4751 110.747 87.7791 110.909 86.9382 110.909C86.87 110.909 86.8018 110.909 86.7337 110.909C86.6655 110.909 86.5973 110.909 86.5291 110.909V109.034C86.5973 109.034 86.6598 109.034 86.7166 109.034C86.7734 109.034 86.8359 109.034 86.9041 109.034C87.5178 109.034 87.9666 108.852 88.2507 108.489C88.5348 108.131 88.6768 107.619 88.6768 106.955V92.9091ZM89.6655 90.7273C89.2734 90.7273 88.9354 90.5938 88.6513 90.3267C88.3729 90.0597 88.2337 89.7386 88.2337 89.3636C88.2337 88.9886 88.3729 88.6676 88.6513 88.4006C88.9354 88.1335 89.2734 88 89.6655 88C90.0575 88 90.3928 88.1335 90.6712 88.4006C90.9553 88.6676 91.0973 88.9886 91.0973 89.3636C91.0973 89.7386 90.9553 90.0597 90.6712 90.3267C90.3928 90.5938 90.0575 90.7273 89.6655 90.7273ZM99.6903 106.273C98.5085 106.273 97.4716 105.991 96.5795 105.429C95.6932 104.866 95 104.08 94.5 103.068C94.0057 102.057 93.7585 100.875 93.7585 99.5227C93.7585 98.1591 94.0057 96.9687 94.5 95.9517C95 94.9347 95.6932 94.1449 96.5795 93.5824C97.4716 93.0199 98.5085 92.7386 99.6903 92.7386C100.872 92.7386 101.906 93.0199 102.793 93.5824C103.685 94.1449 104.378 94.9347 104.872 95.9517C105.372 96.9687 105.622 98.1591 105.622 99.5227C105.622 100.875 105.372 102.057 104.872 103.068C104.378 104.08 103.685 104.866 102.793 105.429C101.906 105.991 100.872 106.273 99.6903 106.273ZM99.6903 104.466C100.588 104.466 101.327 104.236 101.906 103.776C102.486 103.315 102.915 102.71 103.193 101.96C103.472 101.21 103.611 100.398 103.611 99.5227C103.611 98.6477 103.472 97.8324 103.193 97.0767C102.915 96.321 102.486 95.7102 101.906 95.2443C101.327 94.7784 100.588 94.5455 99.6903 94.5455C98.7926 94.5455 98.054 94.7784 97.4744 95.2443C96.8949 95.7102 96.4659 96.321 96.1875 97.0767C95.9091 97.8324 95.7699 98.6477 95.7699 99.5227C95.7699 100.398 95.9091 101.21 96.1875 101.96C96.4659 102.71 96.8949 103.315 97.4744 103.776C98.054 104.236 98.7926 104.466 99.6903 104.466ZM6.27273 135.213C5.27841 135.213 4.37784 134.957 3.57102 134.446C2.76989 133.929 2.13352 133.17 1.66193 132.17C1.19602 131.165 0.963068 129.932 0.963068 128.472C0.963068 126.972 1.20455 125.724 1.6875 124.73C2.17045 123.73 2.8125 122.983 3.61364 122.489C4.42045 121.989 5.30398 121.739 6.2642 121.739C6.99716 121.739 7.60795 121.864 8.09659 122.114C8.59091 122.358 8.98864 122.665 9.28977 123.034C9.59659 123.398 9.82955 123.756 9.98864 124.108H10.0994V117.545H13.7216V135H10.142V132.903H9.98864C9.81818 133.267 9.5767 133.628 9.2642 133.986C8.95739 134.338 8.55682 134.631 8.0625 134.864C7.57386 135.097 6.97727 135.213 6.27273 135.213ZM7.4233 132.324C8.00852 132.324 8.50284 132.165 8.90625 131.847C9.31534 131.523 9.62784 131.071 9.84375 130.491C10.0653 129.912 10.1761 129.233 10.1761 128.455C10.1761 127.676 10.0682 127 9.85227 126.426C9.63636 125.852 9.32386 125.409 8.91477 125.097C8.50568 124.784 8.00852 124.628 7.4233 124.628C6.8267 124.628 6.32386 124.79 5.91477 125.114C5.50568 125.437 5.19602 125.886 4.9858 126.46C4.77557 127.034 4.67045 127.699 4.67045 128.455C4.67045 129.216 4.77557 129.889 4.9858 130.474C5.2017 131.054 5.51136 131.509 5.91477 131.838C6.32386 132.162 6.8267 132.324 7.4233 132.324ZM22.6726 135.256C21.326 135.256 20.1669 134.983 19.1953 134.438C18.2294 133.886 17.4851 133.108 16.9624 132.102C16.4396 131.091 16.1783 129.895 16.1783 128.514C16.1783 127.168 16.4396 125.986 16.9624 124.969C17.4851 123.952 18.2209 123.159 19.1697 122.591C20.1243 122.023 21.2436 121.739 22.5277 121.739C23.3913 121.739 24.1953 121.878 24.9396 122.156C25.6896 122.429 26.343 122.841 26.8999 123.392C27.4624 123.943 27.8999 124.636 28.2124 125.472C28.5249 126.301 28.6811 127.273 28.6811 128.386V129.384H17.6271V127.134H25.2635C25.2635 126.611 25.1499 126.148 24.9226 125.744C24.6953 125.341 24.38 125.026 23.9766 124.798C23.5788 124.565 23.1158 124.449 22.5874 124.449C22.0362 124.449 21.5476 124.577 21.1214 124.832C20.701 125.082 20.3714 125.42 20.1328 125.847C19.8942 126.267 19.772 126.736 19.7663 127.253V129.392C19.7663 130.04 19.8857 130.599 20.1243 131.071C20.3686 131.543 20.7124 131.906 21.1555 132.162C21.5987 132.418 22.1243 132.545 22.7322 132.545C23.1357 132.545 23.505 132.489 23.8402 132.375C24.1754 132.261 24.4624 132.091 24.701 131.864C24.9396 131.636 25.1214 131.358 25.2464 131.028L28.6044 131.25C28.4339 132.057 28.0845 132.761 27.5561 133.364C27.0334 133.96 26.3572 134.426 25.5277 134.761C24.7038 135.091 23.7521 135.256 22.6726 135.256ZM43.5682 121.909V124.636H35.6847V121.909H43.5682ZM37.4744 118.773H41.1051V130.977C41.1051 131.312 41.1563 131.574 41.2585 131.761C41.3608 131.943 41.5028 132.071 41.6847 132.145C41.8722 132.219 42.0881 132.256 42.3324 132.256C42.5028 132.256 42.6733 132.241 42.8438 132.213C43.0142 132.179 43.1449 132.153 43.2358 132.136L43.8068 134.838C43.625 134.895 43.3693 134.96 43.0398 135.034C42.7102 135.114 42.3097 135.162 41.8381 135.179C40.9631 135.213 40.196 135.097 39.5369 134.83C38.8835 134.562 38.375 134.148 38.0114 133.585C37.6477 133.023 37.4688 132.312 37.4744 131.455V118.773ZM54.3281 129.426V121.909H57.9588V135H54.473V132.622H54.3366C54.0412 133.389 53.5497 134.006 52.8622 134.472C52.1804 134.937 51.348 135.17 50.3651 135.17C49.4901 135.17 48.7202 134.972 48.0554 134.574C47.3906 134.176 46.8707 133.611 46.4957 132.878C46.1264 132.145 45.9389 131.267 45.9332 130.244V121.909H49.5639V129.597C49.5696 130.369 49.777 130.98 50.1861 131.429C50.5952 131.878 51.1435 132.102 51.831 132.102C52.2685 132.102 52.6776 132.003 53.0582 131.804C53.4389 131.599 53.7457 131.298 53.9787 130.901C54.2173 130.503 54.3338 130.011 54.3281 129.426ZM71.755 125.642L68.4311 125.847C68.3743 125.562 68.2521 125.307 68.0646 125.08C67.8771 124.847 67.63 124.662 67.3232 124.526C67.022 124.384 66.6612 124.312 66.2408 124.312C65.6783 124.312 65.2038 124.432 64.8175 124.67C64.4311 124.903 64.2379 125.216 64.2379 125.608C64.2379 125.92 64.3629 126.185 64.6129 126.401C64.8629 126.616 65.2919 126.79 65.8999 126.92L68.2692 127.398C69.5419 127.659 70.4908 128.08 71.1158 128.659C71.7408 129.239 72.0533 130 72.0533 130.943C72.0533 131.801 71.8004 132.554 71.2947 133.202C70.7947 133.849 70.1072 134.355 69.2322 134.719C68.3629 135.077 67.3601 135.256 66.2237 135.256C64.4908 135.256 63.1101 134.895 62.0817 134.173C61.0589 133.446 60.4595 132.457 60.2834 131.207L63.8544 131.02C63.9624 131.548 64.2237 131.952 64.6385 132.23C65.0533 132.503 65.5845 132.639 66.2322 132.639C66.8686 132.639 67.38 132.517 67.7663 132.273C68.1584 132.023 68.3572 131.702 68.3629 131.31C68.3572 130.98 68.218 130.71 67.9453 130.5C67.6726 130.284 67.2521 130.119 66.6839 130.006L64.4169 129.554C63.1385 129.298 62.1868 128.855 61.5618 128.224C60.9425 127.594 60.6328 126.79 60.6328 125.812C60.6328 124.972 60.8601 124.247 61.3146 123.639C61.7749 123.031 62.4197 122.562 63.2493 122.233C64.0845 121.903 65.0618 121.739 66.1811 121.739C67.8345 121.739 69.1357 122.088 70.0845 122.787C71.0391 123.486 71.5959 124.437 71.755 125.642ZM11.5227 154.105L9.21307 154.514C9.11648 154.219 8.96307 153.937 8.75284 153.67C8.5483 153.403 8.26989 153.185 7.91761 153.014C7.56534 152.844 7.125 152.759 6.59659 152.759C5.875 152.759 5.27273 152.92 4.78977 153.244C4.30682 153.562 4.06534 153.974 4.06534 154.48C4.06534 154.918 4.22727 155.27 4.55114 155.537C4.875 155.804 5.39773 156.023 6.11932 156.193L8.19886 156.67C9.40341 156.949 10.3011 157.378 10.892 157.957C11.483 158.537 11.7784 159.29 11.7784 160.216C11.7784 161 11.5511 161.699 11.0966 162.312C10.6477 162.92 10.0199 163.398 9.21307 163.744C8.41193 164.091 7.48295 164.264 6.42614 164.264C4.96023 164.264 3.7642 163.952 2.83807 163.327C1.91193 162.696 1.34375 161.801 1.13352 160.642L3.59659 160.267C3.75 160.909 4.06534 161.395 4.54261 161.724C5.01989 162.048 5.64205 162.21 6.40909 162.21C7.24432 162.21 7.91193 162.037 8.41193 161.69C8.91193 161.338 9.16193 160.909 9.16193 160.403C9.16193 159.994 9.00852 159.651 8.7017 159.372C8.40057 159.094 7.9375 158.884 7.3125 158.741L5.09659 158.256C3.875 157.977 2.97159 157.534 2.38636 156.926C1.80682 156.318 1.51705 155.548 1.51705 154.616C1.51705 153.844 1.73295 153.168 2.16477 152.588C2.59659 152.009 3.19318 151.557 3.95455 151.233C4.71591 150.903 5.58807 150.739 6.57102 150.739C7.9858 150.739 9.09943 151.045 9.91193 151.659C10.7244 152.267 11.2614 153.082 11.5227 154.105ZM22.8729 158.571V150.909H25.4297V164H22.924V161.733H22.7876C22.4865 162.432 22.0036 163.014 21.3388 163.48C20.6797 163.94 19.8587 164.17 18.8757 164.17C18.0348 164.17 17.2905 163.986 16.6428 163.616C16.0007 163.241 15.495 162.688 15.1257 161.955C14.7621 161.222 14.5803 160.315 14.5803 159.236V150.909H17.1286V158.929C17.1286 159.821 17.3757 160.531 17.87 161.06C18.3643 161.588 19.0064 161.852 19.7962 161.852C20.2734 161.852 20.7479 161.733 21.2195 161.494C21.6967 161.256 22.0916 160.895 22.4041 160.412C22.7223 159.929 22.8786 159.315 22.8729 158.571ZM34.4957 164.264C33.206 164.264 32.0952 163.989 31.1634 163.438C30.2372 162.881 29.5213 162.099 29.0156 161.094C28.5156 160.082 28.2656 158.898 28.2656 157.54C28.2656 156.199 28.5156 155.017 29.0156 153.994C29.5213 152.972 30.2259 152.173 31.1293 151.599C32.0384 151.026 33.1009 150.739 34.3168 150.739C35.0554 150.739 35.7713 150.861 36.4645 151.105C37.1577 151.349 37.7798 151.733 38.331 152.256C38.8821 152.778 39.3168 153.457 39.6349 154.293C39.9531 155.122 40.1122 156.131 40.1122 157.318V158.222H29.706V156.312H37.6151C37.6151 155.642 37.4787 155.048 37.206 154.531C36.9332 154.009 36.5497 153.597 36.0554 153.295C35.5668 152.994 34.9929 152.844 34.3338 152.844C33.6179 152.844 32.9929 153.02 32.4588 153.372C31.9304 153.719 31.5213 154.173 31.2315 154.736C30.9474 155.293 30.8054 155.898 30.8054 156.551V158.043C30.8054 158.918 30.9588 159.662 31.2656 160.276C31.5781 160.889 32.0128 161.358 32.5696 161.682C33.1264 162 33.777 162.159 34.5213 162.159C35.0043 162.159 35.4446 162.091 35.8423 161.955C36.2401 161.812 36.5838 161.602 36.8736 161.324C37.1634 161.045 37.3849 160.702 37.5384 160.293L39.9503 160.727C39.7571 161.437 39.4105 162.06 38.9105 162.594C38.4162 163.122 37.794 163.534 37.044 163.83C36.2997 164.119 35.4503 164.264 34.4957 164.264ZM45.4879 156.227V164H42.9396V150.909H45.3857V153.04H45.5476C45.8487 152.347 46.3203 151.79 46.9624 151.369C47.6101 150.949 48.4254 150.739 49.4084 150.739C50.3004 150.739 51.0817 150.926 51.7521 151.301C52.4226 151.67 52.9425 152.222 53.3118 152.955C53.6811 153.687 53.8658 154.594 53.8658 155.673V164H51.3175V155.98C51.3175 155.031 51.0703 154.29 50.576 153.756C50.0817 153.216 49.4027 152.946 48.5391 152.946C47.9482 152.946 47.4226 153.074 46.9624 153.33C46.5078 153.585 46.147 153.96 45.88 154.455C45.6186 154.943 45.4879 155.534 45.4879 156.227ZM45.8374 149.324L44.1243 149.273C44.1243 148.33 44.3771 147.577 44.8828 147.014C45.3942 146.452 46.0249 146.17 46.7749 146.17C47.1214 146.17 47.4254 146.23 47.6868 146.349C47.9482 146.463 48.1925 146.597 48.4197 146.75C48.6527 146.898 48.8828 147.031 49.1101 147.151C49.343 147.264 49.6016 147.321 49.8857 147.321C50.2152 147.321 50.4822 147.196 50.6868 146.946C50.897 146.696 51.0021 146.386 51.0021 146.017L52.6811 146.128C52.6811 147.077 52.4254 147.824 51.9141 148.369C51.4027 148.909 50.7749 149.182 50.0305 149.188C49.6271 149.188 49.2919 149.131 49.0249 149.017C48.7635 148.898 48.5305 148.764 48.326 148.616C48.1214 148.463 47.9112 148.327 47.6953 148.207C47.4794 148.088 47.2209 148.028 46.9197 148.028C46.6016 148.028 46.3402 148.153 46.1357 148.403C45.9368 148.648 45.8374 148.955 45.8374 149.324ZM62.7976 164.264C61.5703 164.264 60.4993 163.983 59.5845 163.42C58.6697 162.858 57.9595 162.071 57.4538 161.06C56.9482 160.048 56.6953 158.866 56.6953 157.514C56.6953 156.156 56.9482 154.969 57.4538 153.952C57.9595 152.935 58.6697 152.145 59.5845 151.582C60.4993 151.02 61.5703 150.739 62.7976 150.739C64.0249 150.739 65.0959 151.02 66.0107 151.582C66.9254 152.145 67.6357 152.935 68.1413 153.952C68.647 154.969 68.8999 156.156 68.8999 157.514C68.8999 158.866 68.647 160.048 68.1413 161.06C67.6357 162.071 66.9254 162.858 66.0107 163.42C65.0959 163.983 64.0249 164.264 62.7976 164.264ZM62.8061 162.125C63.6016 162.125 64.2607 161.915 64.7834 161.494C65.3061 161.074 65.6925 160.514 65.9425 159.815C66.1982 159.116 66.326 158.347 66.326 157.506C66.326 156.67 66.1982 155.903 65.9425 155.205C65.6925 154.5 65.3061 153.935 64.7834 153.509C64.2607 153.082 63.6016 152.869 62.8061 152.869C62.005 152.869 61.3402 153.082 60.8118 153.509C60.2891 153.935 59.8999 154.5 59.6442 155.205C59.3942 155.903 59.2692 156.67 59.2692 157.506C59.2692 158.347 59.3942 159.116 59.6442 159.815C59.8999 160.514 60.2891 161.074 60.8118 161.494C61.3402 161.915 62.005 162.125 62.8061 162.125ZM81.554 154.105L79.2443 154.514C79.1477 154.219 78.9943 153.937 78.7841 153.67C78.5795 153.403 78.3011 153.185 77.9489 153.014C77.5966 152.844 77.1563 152.759 76.6278 152.759C75.9063 152.759 75.304 152.92 74.821 153.244C74.3381 153.562 74.0966 153.974 74.0966 154.48C74.0966 154.918 74.2585 155.27 74.5824 155.537C74.9063 155.804 75.429 156.023 76.1506 156.193L78.2301 156.67C79.4347 156.949 80.3324 157.378 80.9233 157.957C81.5142 158.537 81.8097 159.29 81.8097 160.216C81.8097 161 81.5824 161.699 81.1278 162.312C80.679 162.92 80.0511 163.398 79.2443 163.744C78.4432 164.091 77.5142 164.264 76.4574 164.264C74.9915 164.264 73.7955 163.952 72.8693 163.327C71.9432 162.696 71.375 161.801 71.1648 160.642L73.6278 160.267C73.7813 160.909 74.0966 161.395 74.5739 161.724C75.0511 162.048 75.6733 162.21 76.4403 162.21C77.2756 162.21 77.9432 162.037 78.4432 161.69C78.9432 161.338 79.1932 160.909 79.1932 160.403C79.1932 159.994 79.0398 159.651 78.733 159.372C78.4318 159.094 77.9688 158.884 77.3438 158.741L75.1278 158.256C73.9063 157.977 73.0028 157.534 72.4176 156.926C71.8381 156.318 71.5483 155.548 71.5483 154.616C71.5483 153.844 71.7642 153.168 72.196 152.588C72.6278 152.009 73.2244 151.557 73.9858 151.233C74.7472 150.903 75.6193 150.739 76.6023 150.739C78.017 150.739 79.1307 151.045 79.9432 151.659C80.7557 152.267 81.2926 153.082 81.554 154.105ZM86.2905 164.162C85.8246 164.162 85.424 163.997 85.0888 163.668C84.7536 163.332 84.5859 162.929 84.5859 162.457C84.5859 161.991 84.7536 161.594 85.0888 161.264C85.424 160.929 85.8246 160.761 86.2905 160.761C86.7564 160.761 87.157 160.929 87.4922 161.264C87.8274 161.594 87.995 161.991 87.995 162.457C87.995 162.77 87.9155 163.057 87.7564 163.318C87.603 163.574 87.3984 163.778 87.1428 163.932C86.8871 164.085 86.603 164.162 86.2905 164.162Z" fill="#1C2441"/>
</svg>
