<?xml version="1.0" standalone="no"?><svg xmlns:xlink="http://www.w3.org/1999/xlink" xmlns="http://www.w3.org/2000/svg" viewBox="0 0 1000 562.5026674064275" preserveAspectRatio="xMaxYMax slice"><g transform="scale(0.8535700567624088)"><rect x="0" y="0" width="1171.5555555555557" height="659" fill="#70b39b"/><rect x="0" y="0" width="73.22" height="73.22" fill="#75b6a3"/><polygon points="0,0 73.22,0 73.22,73.22" fill="#a3cbba"/><rect x="73.22" y="0" width="73.22" height="73.22" fill="#7fbcb3"/><rect x="73.22" y="0" width="73.22" height="73.22" fill="#75b6a3"/><rect x="146.44" y="0" width="73.22" height="73.22" fill="#7bb7a4"/><polygon points="146.44,0 219.66,73.22 146.44,73.22" fill="#7dbab0"/><rect x="219.67" y="0" width="73.22" height="73.22" fill="#86bbac"/><polygon points="219.67,0 292.89,0 219.67,73.22" fill="#ded9ed"/><rect x="292.89" y="0" width="73.22" height="73.22" fill="#79b7a0"/><path d="M 292.89 73.22 A 73.22 73.22 0 0 0 366.11 0 L 292.89 0" fill="#9dc3bd"/><rect x="366.11" y="0" width="73.22" height="73.22" fill="#77b5a0"/><path d="M 366.11 0 A 73.22 73.22 0 0 1  439.33000000000004 73.22 L 366.11 0 A 73.22 73.22 0 0 0 439.33000000000004 73.22" fill="#c7d1dc"/><rect x="439.33" y="0" width="73.22" height="73.22" fill="#add0c0"/><path d="M 439.33 0 A 73.22 73.22 0 0 1 512.55 73.22 L 439.33 73.22" fill="#7ab6a2"/><rect x="512.56" y="0" width="73.22" height="73.22" fill="#bed8ca"/><rect x="512.56" y="0" width="73.22" height="73.22" fill="#88c1c2"/><rect x="585.78" y="0" width="73.22" height="73.22" fill="#76b59f"/><polygon points="585.78,0 659,73.22 585.78,73.22" fill="#93bfb5"/><rect x="659" y="0" width="73.22" height="73.22" fill="#8fbeb3"/><rect x="659" y="0" width="73.22" height="73.22" fill="#bccdd4"/><rect x="732.22" y="0" width="73.22" height="73.22" fill="#b8ccd1"/><path d="M 732.22 0 A 73.22 73.22 0 0 1  805.44 73.22 L 732.22 0 A 73.22 73.22 0 0 0 805.44 73.22" fill="#74b59d"/><rect x="805.44" y="0" width="73.22" height="73.22" fill="#a4c5c2"/><rect x="805.44" y="0" width="73.22" height="73.22" fill="#a6c6c4"/><rect x="878.67" y="0" width="73.22" height="73.22" fill="#76b69e"/><path d="M 878.67 73.22 A 73.22 73.22 0 0 0 951.89 0 L 878.67 0" fill="#d3d5e5"/><rect x="951.89" y="0" width="73.22" height="73.22" fill="#c3dacd"/><rect x="951.89" y="0" width="73.22" height="73.22" fill="#bcd7c9"/><rect x="1025.11" y="0" width="73.22" height="73.22" fill="#97c9da"/><polygon points="1025.11,0 1098.33,73.22 1025.11,73.22" fill="#bacdd3"/><rect x="1098.33" y="0" width="73.22" height="73.22" fill="#87c0c0"/><polygon points="1098.33,0 1171.55,73.22 1098.33,73.22" fill="#81b9a8"/><rect x="0" y="73.22" width="73.22" height="73.22" fill="#75b6a3"/><path d="M 0 146.44 A 73.22 73.22 0 0 1  73.22 73.22 L 0 146.44 A 73.22 73.22 0 0 0 73.22 73.22" fill="#98cadc"/><rect x="73.22" y="73.22" width="73.22" height="73.22" fill="#eeeee7"/><path d="M 73.22 146.44 A 73.22 73.22 0 0 1  146.44 73.22 L 73.22 146.44 A 73.22 73.22 0 0 0 146.44 73.22" fill="#93c7d3"/><rect x="146.44" y="73.22" width="73.22" height="73.22" fill="#8ebeb2"/><path d="M 146.44 146.44 A 73.22 73.22 0 0 1  219.66 73.22 L 219.66 146.44" fill="#8dbdb1"/><rect x="219.67" y="73.22" width="73.22" height="73.22" fill="#8ac2c6"/><rect x="219.67" y="73.22" width="73.22" height="73.22" fill="#7fbcb3"/><rect x="292.89" y="73.22" width="73.22" height="73.22" fill="#aac7c7"/><rect x="292.89" y="73.22" width="73.22" height="73.22" fill="#98c6b3"/><rect x="366.11" y="73.22" width="73.22" height="73.22" fill="#a6c6c4"/><path d="M 366.11 73.22 A 73.22 73.22 0 0 0 439.33000000000004 146.44 L 439.33000000000004 73.22" fill="#b8d5c6"/><rect x="439.33" y="73.22" width="73.22" height="73.22" fill="#9ccce3"/><polygon points="439.33,73.22 512.55,73.22 439.33,146.44" fill="#afc9cb"/><rect x="512.56" y="73.22" width="73.22" height="73.22" fill="#cbd3df"/><path d="M 512.56 146.44 A 73.22 73.22 0 0 1  585.78 73.22 L 512.56 146.44 A 73.22 73.22 0 0 0 585.78 73.22" fill="#c8d2dd"/><rect x="585.78" y="73.22" width="73.22" height="73.22" fill="#a0c9b8"/><rect x="585.78" y="73.22" width="73.22" height="73.22" fill="#d4e2d7"/><rect x="659" y="73.22" width="73.22" height="73.22" fill="#b4cbce"/><rect x="659" y="73.22" width="73.22" height="73.22" fill="#9bcce1"/><rect x="732.22" y="73.22" width="73.22" height="73.22" fill="#d1e1d6"/><polygon points="805.44,73.22 805.44,146.44 732.22,146.44" fill="#a8c7c5"/><rect x="805.44" y="73.22" width="73.22" height="73.22" fill="#70b39c"/><rect x="805.44" y="73.22" width="73.22" height="73.22" fill="#9dc8b6"/><rect x="878.67" y="73.22" width="73.22" height="73.22" fill="#c5d1db"/><path d="M 878.67 146.44 A 73.22 73.22 0 0 1  951.89 73.22 L 878.67 146.44 A 73.22 73.22 0 0 0 951.89 73.22" fill="#95c8d7"/><rect x="951.89" y="73.22" width="73.22" height="73.22" fill="#d9d8ea"/><path d="M 951.89 73.22 A 73.22 73.22 0 0 0 1025.11 146.44 L 1025.11 73.22" fill="#72b49e"/><rect x="1025.11" y="73.22" width="73.22" height="73.22" fill="#77b7a6"/><path d="M 1025.11 146.44 A 73.22 73.22 0 0 1  1098.33 73.22 L 1098.33 146.44" fill="#eeeee7"/><rect x="1098.33" y="73.22" width="73.22" height="73.22" fill="#9fcee6"/><path d="M 1098.33 73.22 A 73.22 73.22 0 0 0 1171.55 146.44 L 1171.55 73.22" fill="#75b6a3"/><rect x="0" y="146.44" width="73.22" height="73.22" fill="#bfcfd6"/><path d="M 0 146.44 A 73.22 73.22 0 0 0 73.22 219.66 L 73.22 146.44" fill="#92c7d3"/><rect x="73.22" y="146.44" width="73.22" height="73.22" fill="#b3d3c4"/><path d="M 73.22 219.66 A 73.22 73.22 0 0 1  146.44 146.44 L 146.44 219.66" fill="#cfd4e2"/><rect x="146.44" y="146.44" width="73.22" height="73.22" fill="#9cc8b6"/><path d="M 146.44 146.44 A 73.22 73.22 0 0 0 219.66 219.66 L 219.66 146.44" fill="#a4c5c2"/><rect x="219.67" y="146.44" width="73.22" height="73.22" fill="#caddd1"/><rect x="219.67" y="146.44" width="73.22" height="73.22" fill="#71b39c"/><rect x="292.89" y="146.44" width="73.22" height="73.22" fill="#91c6d1"/><rect x="292.89" y="146.44" width="73.22" height="73.22" fill="#ecede6"/><rect x="366.11" y="146.44" width="73.22" height="73.22" fill="#95c5b2"/><path d="M 366.11 219.66 A 73.22 73.22 0 0 1  439.33000000000004 146.44 L 439.33000000000004 219.66" fill="#81bdb7"/><rect x="439.33" y="146.44" width="73.22" height="73.22" fill="#94bfb6"/><path d="M 439.33 146.44 A 73.22 73.22 0 0 1 512.55 219.66 L 439.33 219.66" fill="#a5c6c3"/><rect x="512.56" y="146.44" width="73.22" height="73.22" fill="#95c0b7"/><polygon points="512.56,146.44 585.78,219.66 512.56,219.66" fill="#b6cbd0"/><rect x="585.78" y="146.44" width="73.22" height="73.22" fill="#d0d4e3"/><rect x="585.78" y="146.44" width="73.22" height="73.22" fill="#7fbaa4"/><rect x="659" y="146.44" width="73.22" height="73.22" fill="#b7ccd0"/><polygon points="659,146.44 732.22,146.44 732.22,219.66" fill="#88bea9"/><rect x="732.22" y="146.44" width="73.22" height="73.22" fill="#9ccce2"/><rect x="732.22" y="146.44" width="73.22" height="73.22" fill="#92c3b0"/><rect x="805.44" y="146.44" width="73.22" height="73.22" fill="#97c9da"/><polygon points="805.44,146.44 878.6600000000001,146.44 805.44,219.66" fill="#77b69f"/><rect x="878.67" y="146.44" width="73.22" height="73.22" fill="#9cc8b6"/><rect x="878.67" y="146.44" width="73.22" height="73.22" fill="#9ac7b4"/><rect x="951.89" y="146.44" width="73.22" height="73.22" fill="#a0cab8"/><polygon points="951.89,146.44 1025.11,146.44 1025.11,219.66" fill="#b9d5c7"/><rect x="1025.11" y="146.44" width="73.22" height="73.22" fill="#95c4b1"/><path d="M 1025.11 219.66 A 73.22 73.22 0 0 1  1098.33 146.44 L 1025.11 219.66 A 73.22 73.22 0 0 0 1098.33 146.44" fill="#b9d5c7"/><rect x="1098.33" y="146.44" width="73.22" height="73.22" fill="#b7ccd1"/><path d="M 1098.33 219.66 A 73.22 73.22 0 0 1  1171.55 146.44 L 1098.33 219.66 A 73.22 73.22 0 0 0 1171.55 146.44" fill="#b6cbcf"/><rect x="0" y="219.67" width="73.22" height="73.22" fill="#9ccce1"/><path d="M 0 219.67 A 73.22 73.22 0 0 1 73.22 292.89 L 0 292.89" fill="#83beba"/><rect x="73.22" y="219.67" width="73.22" height="73.22" fill="#8ec4cc"/><polygon points="146.44,219.67 146.44,292.89 73.22,292.89" fill="#a6c6c4"/><rect x="146.44" y="219.67" width="73.22" height="73.22" fill="#dfdaee"/><path d="M 146.44 219.67 A 73.22 73.22 0 0 1 219.66 292.89 L 146.44 292.89" fill="#8fbeb2"/><rect x="219.67" y="219.67" width="73.22" height="73.22" fill="#7bbaad"/><rect x="219.67" y="219.67" width="73.22" height="73.22" fill="#a1c4c0"/><rect x="292.89" y="219.67" width="73.22" height="73.22" fill="#81bba5"/><rect x="292.89" y="219.67" width="73.22" height="73.22" fill="#bacdd2"/><rect x="366.11" y="219.67" width="73.22" height="73.22" fill="#edeee7"/><path d="M 366.11 292.89 A 73.22 73.22 0 0 1  439.33000000000004 219.67 L 366.11 292.89 A 73.22 73.22 0 0 0 439.33000000000004 219.67" fill="#7ab7a3"/><rect x="439.33" y="219.67" width="73.22" height="73.22" fill="#75b6a3"/><polygon points="439.33,219.67 512.55,292.89 439.33,292.89" fill="#99c1b9"/><rect x="512.56" y="219.67" width="73.22" height="73.22" fill="#7fbcb3"/><rect x="512.56" y="219.67" width="73.22" height="73.22" fill="#b2cacd"/><rect x="585.78" y="219.67" width="73.22" height="73.22" fill="#7ab9ac"/><polygon points="585.78,219.67 659,292.89 585.78,292.89" fill="#cbded2"/><rect x="659" y="219.67" width="73.22" height="73.22" fill="#94c8d5"/><path d="M 659 292.89 A 73.22 73.22 0 0 1  732.22 219.67 L 659 292.89 A 73.22 73.22 0 0 0 732.22 219.67" fill="#d8d7e9"/><rect x="732.22" y="219.67" width="73.22" height="73.22" fill="#ddd9ed"/><path d="M 732.22 292.89 A 73.22 73.22 0 0 0 805.44 219.67 L 732.22 219.67" fill="#8fbeb2"/><rect x="805.44" y="219.67" width="73.22" height="73.22" fill="#b7d4c6"/><polygon points="878.6600000000001,219.67 878.6600000000001,292.89 805.44,292.89" fill="#c7d1dd"/><rect x="878.67" y="219.67" width="73.22" height="73.22" fill="#94c8d5"/><rect x="878.67" y="219.67" width="73.22" height="73.22" fill="#81b9a8"/><rect x="951.89" y="219.67" width="73.22" height="73.22" fill="#87bea9"/><path d="M 951.89 219.67 A 73.22 73.22 0 0 1 1025.11 292.89 L 951.89 292.89" fill="#8fbeb2"/><rect x="1025.11" y="219.67" width="73.22" height="73.22" fill="#caddd2"/><polygon points="1025.11,219.67 1098.33,292.89 1025.11,292.89" fill="#dee7dd"/><rect x="1098.33" y="219.67" width="73.22" height="73.22" fill="#91c3af"/><polygon points="1098.33,219.67 1171.55,219.67 1171.55,292.89" fill="#d8d7e9"/><rect x="0" y="292.89" width="73.22" height="73.22" fill="#77b6a1"/><polygon points="0,292.89 73.22,292.89 73.22,366.11" fill="#9dc3bd"/><rect x="73.22" y="292.89" width="73.22" height="73.22" fill="#d8e4da"/><rect x="73.22" y="292.89" width="73.22" height="73.22" fill="#d7e4d9"/><rect x="146.44" y="292.89" width="73.22" height="73.22" fill="#97cada"/><path d="M 146.44 366.11 A 73.22 73.22 0 0 0 219.66 292.89 L 146.44 292.89" fill="#bcd7c9"/><rect x="219.67" y="292.89" width="73.22" height="73.22" fill="#89c2c4"/><path d="M 219.67 366.11 A 73.22 73.22 0 0 0 292.89 292.89 L 219.67 292.89" fill="#d9e4da"/><rect x="292.89" y="292.89" width="73.22" height="73.22" fill="#8fc5ce"/><polygon points="292.89,292.89 366.11,292.89 366.11,366.11" fill="#88c1c2"/><rect x="366.11" y="292.89" width="73.22" height="73.22" fill="#c4dbce"/><path d="M 366.11 292.89 A 73.22 73.22 0 0 1 439.33000000000004 366.11 L 366.11 366.11" fill="#a3cbba"/><rect x="439.33" y="292.89" width="73.22" height="73.22" fill="#b3cace"/><path d="M 439.33 292.89 A 73.22 73.22 0 0 0 512.55 366.11 L 512.55 292.89" fill="#9ccce2"/><rect x="512.56" y="292.89" width="73.22" height="73.22" fill="#74b5a1"/><path d="M 512.56 366.11 A 73.22 73.22 0 0 0 585.78 292.89 L 512.56 292.89" fill="#77b5a0"/><rect x="585.78" y="292.89" width="73.22" height="73.22" fill="#77b7a6"/><rect x="585.78" y="292.89" width="73.22" height="73.22" fill="#7ab7a3"/><rect x="659" y="292.89" width="73.22" height="73.22" fill="#96c9d8"/><path d="M 659 366.11 A 73.22 73.22 0 0 1  732.22 292.89 L 659 366.11 A 73.22 73.22 0 0 0 732.22 292.89" fill="#7ab9ac"/><rect x="732.22" y="292.89" width="73.22" height="73.22" fill="#9ccce2"/><path d="M 732.22 366.11 A 73.22 73.22 0 0 1  805.44 292.89 L 732.22 366.11 A 73.22 73.22 0 0 0 805.44 292.89" fill="#bad6c8"/><rect x="805.44" y="292.89" width="73.22" height="73.22" fill="#76b59f"/><rect x="805.44" y="292.89" width="73.22" height="73.22" fill="#99cbde"/><rect x="878.67" y="292.89" width="73.22" height="73.22" fill="#70b39b"/><path d="M 878.67 366.11 A 73.22 73.22 0 0 1  951.89 292.89 L 878.67 366.11 A 73.22 73.22 0 0 0 951.89 292.89" fill="#dcd9ec"/><rect x="951.89" y="292.89" width="73.22" height="73.22" fill="#cedfd4"/><rect x="951.89" y="292.89" width="73.22" height="73.22" fill="#a2c4c0"/><rect x="1025.11" y="292.89" width="73.22" height="73.22" fill="#dfdaee"/><polygon points="1025.11,292.89 1098.33,292.89 1098.33,366.11" fill="#7cbaae"/><rect x="1098.33" y="292.89" width="73.22" height="73.22" fill="#d5d6e7"/><rect x="1098.33" y="292.89" width="73.22" height="73.22" fill="#9ec8b7"/><rect x="0" y="366.11" width="73.22" height="73.22" fill="#a4cbba"/><path d="M 0 439.33000000000004 A 73.22 73.22 0 0 1  73.22 366.11 L 73.22 439.33000000000004" fill="#a3c5c1"/><rect x="73.22" y="366.11" width="73.22" height="73.22" fill="#76b6a4"/><rect x="73.22" y="366.11" width="73.22" height="73.22" fill="#7dbab0"/><rect x="146.44" y="366.11" width="73.22" height="73.22" fill="#90c5ce"/><path d="M 146.44 366.11 A 73.22 73.22 0 0 1 219.66 439.33000000000004 L 146.44 439.33000000000004" fill="#8fc5cd"/><rect x="219.67" y="366.11" width="73.22" height="73.22" fill="#9ccce2"/><rect x="219.67" y="366.11" width="73.22" height="73.22" fill="#74b49e"/><rect x="292.89" y="366.11" width="73.22" height="73.22" fill="#90c2ae"/><rect x="292.89" y="366.11" width="73.22" height="73.22" fill="#8cc3c8"/><rect x="366.11" y="366.11" width="73.22" height="73.22" fill="#98cadc"/><polygon points="366.11,366.11 439.33000000000004,366.11 439.33000000000004,439.33000000000004" fill="#9ecde5"/><rect x="439.33" y="366.11" width="73.22" height="73.22" fill="#c1cfd8"/><polygon points="439.33,366.11 512.55,366.11 512.55,439.33000000000004" fill="#9dcde4"/><rect x="512.56" y="366.11" width="73.22" height="73.22" fill="#7db7a5"/><polygon points="512.56,366.11 585.78,366.11 512.56,439.33000000000004" fill="#86bbab"/><rect x="585.78" y="366.11" width="73.22" height="73.22" fill="#bed8ca"/><polygon points="585.78,366.11 659,366.11 659,439.33000000000004" fill="#b6cbd0"/><rect x="659" y="366.11" width="73.22" height="73.22" fill="#87c0c1"/><rect x="659" y="366.11" width="73.22" height="73.22" fill="#9ec3bd"/><rect x="732.22" y="366.11" width="73.22" height="73.22" fill="#97c9da"/><path d="M 732.22 366.11 A 73.22 73.22 0 0 1  805.44 439.33000000000004 L 732.22 366.11 A 73.22 73.22 0 0 0 805.44 439.33000000000004" fill="#78b7a7"/><rect x="805.44" y="366.11" width="73.22" height="73.22" fill="#8dc4ca"/><polygon points="878.6600000000001,366.11 878.6600000000001,439.33000000000004 805.44,439.33000000000004" fill="#78b8a8"/><rect x="878.67" y="366.11" width="73.22" height="73.22" fill="#b8ccd1"/><rect x="878.67" y="366.11" width="73.22" height="73.22" fill="#94c7d4"/><rect x="951.89" y="366.11" width="73.22" height="73.22" fill="#88c1c2"/><rect x="951.89" y="366.11" width="73.22" height="73.22" fill="#8fc5cd"/><rect x="1025.11" y="366.11" width="73.22" height="73.22" fill="#8fc5ce"/><path d="M 1025.11 439.33000000000004 A 73.22 73.22 0 0 0 1098.33 366.11 L 1025.11 366.11" fill="#8cc3c9"/><rect x="1098.33" y="366.11" width="73.22" height="73.22" fill="#96c9d8"/><path d="M 1098.33 439.33000000000004 A 73.22 73.22 0 0 1  1171.55 366.11 L 1171.55 439.33000000000004" fill="#7fb8a6"/><rect x="0" y="439.33" width="73.22" height="73.22" fill="#95c8d7"/><rect x="0" y="439.33" width="73.22" height="73.22" fill="#e2e9e0"/><rect x="73.22" y="439.33" width="73.22" height="73.22" fill="#75b6a3"/><rect x="73.22" y="439.33" width="73.22" height="73.22" fill="#90beb3"/><rect x="146.44" y="439.33" width="73.22" height="73.22" fill="#81bdb6"/><path d="M 146.44 439.33 A 73.22 73.22 0 0 0 219.66 512.55 L 219.66 439.33" fill="#bbcdd3"/><rect x="219.67" y="439.33" width="73.22" height="73.22" fill="#92c6d1"/><path d="M 219.67 439.33 A 73.22 73.22 0 0 1 292.89 512.55 L 219.67 512.55" fill="#71b39b"/><rect x="292.89" y="439.33" width="73.22" height="73.22" fill="#82beb9"/><polygon points="292.89,439.33 366.11,512.55 292.89,512.55" fill="#c2dacd"/><rect x="366.11" y="439.33" width="73.22" height="73.22" fill="#a7c6c4"/><rect x="366.11" y="439.33" width="73.22" height="73.22" fill="#dad8ea"/><rect x="439.33" y="439.33" width="73.22" height="73.22" fill="#8ec4cc"/><rect x="439.33" y="439.33" width="73.22" height="73.22" fill="#a6ccbc"/><rect x="512.56" y="439.33" width="73.22" height="73.22" fill="#89bfaa"/><path d="M 512.56 439.33 A 73.22 73.22 0 0 1 585.78 512.55 L 512.56 512.55" fill="#8fbeb2"/><rect x="585.78" y="439.33" width="73.22" height="73.22" fill="#76b7a5"/><rect x="585.78" y="439.33" width="73.22" height="73.22" fill="#8dbdb1"/><rect x="659" y="439.33" width="73.22" height="73.22" fill="#7fbaa4"/><polygon points="732.22,439.33 732.22,512.55 659,512.55" fill="#95c8d7"/><rect x="732.22" y="439.33" width="73.22" height="73.22" fill="#b9d5c7"/><polygon points="805.44,439.33 805.44,512.55 732.22,512.55" fill="#a3cbba"/><rect x="805.44" y="439.33" width="73.22" height="73.22" fill="#8ebeb2"/><rect x="805.44" y="439.33" width="73.22" height="73.22" fill="#96c0b7"/><rect x="878.67" y="439.33" width="73.22" height="73.22" fill="#d6d6e7"/><rect x="878.67" y="439.33" width="73.22" height="73.22" fill="#94bfb6"/><rect x="951.89" y="439.33" width="73.22" height="73.22" fill="#beced6"/><polygon points="951.89,439.33 1025.11,512.55 951.89,512.55" fill="#79b8a9"/><rect x="1025.11" y="439.33" width="73.22" height="73.22" fill="#a5c5c2"/><polygon points="1025.11,439.33 1098.33,439.33 1098.33,512.55" fill="#c4d0da"/><rect x="1098.33" y="439.33" width="73.22" height="73.22" fill="#99cbdd"/><path d="M 1098.33 512.55 A 73.22 73.22 0 0 0 1171.55 439.33 L 1098.33 439.33" fill="#9ec9b7"/><rect x="0" y="512.56" width="73.22" height="73.22" fill="#82bca6"/><path d="M 0 512.56 A 73.22 73.22 0 0 1  73.22 585.78 L 0 512.56 A 73.22 73.22 0 0 0 73.22 585.78" fill="#78b6a1"/><rect x="73.22" y="512.56" width="73.22" height="73.22" fill="#94c4b1"/><polygon points="73.22,512.56 146.44,512.56 146.44,585.78" fill="#88bea9"/><rect x="146.44" y="512.56" width="73.22" height="73.22" fill="#d9d8ea"/><rect x="146.44" y="512.56" width="73.22" height="73.22" fill="#e4eae1"/><rect x="219.67" y="512.56" width="73.22" height="73.22" fill="#86c0bf"/><rect x="219.67" y="512.56" width="73.22" height="73.22" fill="#e7ebe3"/><rect x="292.89" y="512.56" width="73.22" height="73.22" fill="#70b39b"/><polygon points="366.11,512.56 366.11,585.78 292.89,585.78" fill="#8dc4ca"/><rect x="366.11" y="512.56" width="73.22" height="73.22" fill="#cedfd4"/><polygon points="439.33000000000004,512.56 439.33000000000004,585.78 366.11,585.78" fill="#8fc2ae"/><rect x="439.33" y="512.56" width="73.22" height="73.22" fill="#c9d2de"/><path d="M 439.33 585.78 A 73.22 73.22 0 0 1  512.55 512.56 L 439.33 585.78 A 73.22 73.22 0 0 0 512.55 512.56" fill="#9bc2bb"/><rect x="512.56" y="512.56" width="73.22" height="73.22" fill="#e5eae2"/><path d="M 512.56 512.56 A 73.22 73.22 0 0 1 585.78 585.78 L 512.56 585.78" fill="#b5d3c5"/><rect x="585.78" y="512.56" width="73.22" height="73.22" fill="#8ac2c5"/><rect x="585.78" y="512.56" width="73.22" height="73.22" fill="#7cb7a4"/><rect x="659" y="512.56" width="73.22" height="73.22" fill="#ddd9ed"/><path d="M 659 512.56 A 73.22 73.22 0 0 1  732.22 585.78 L 659 512.56 A 73.22 73.22 0 0 0 732.22 585.78" fill="#e5eae2"/><rect x="732.22" y="512.56" width="73.22" height="73.22" fill="#75b69e"/><rect x="732.22" y="512.56" width="73.22" height="73.22" fill="#93c7d4"/><rect x="805.44" y="512.56" width="73.22" height="73.22" fill="#8bc3c7"/><rect x="805.44" y="512.56" width="73.22" height="73.22" fill="#a8cdbd"/><rect x="878.67" y="512.56" width="73.22" height="73.22" fill="#99c6b4"/><polygon points="878.67,512.56 951.89,512.56 878.67,585.78" fill="#c9d2de"/><rect x="951.89" y="512.56" width="73.22" height="73.22" fill="#89bcae"/><polygon points="951.89,512.56 1025.11,585.78 951.89,585.78" fill="#7cbaaf"/><rect x="1025.11" y="512.56" width="73.22" height="73.22" fill="#8bc3c7"/><path d="M 1025.11 512.56 A 73.22 73.22 0 0 1 1098.33 585.78 L 1025.11 585.78" fill="#bfcfd6"/><rect x="1098.33" y="512.56" width="73.22" height="73.22" fill="#efefe8"/><polygon points="1098.33,512.56 1171.55,512.56 1098.33,585.78" fill="#9fc9b7"/><rect x="0" y="585.78" width="73.22" height="73.22" fill="#77b7a7"/><path d="M 0 585.78 A 73.22 73.22 0 0 0 73.22 659 L 73.22 585.78" fill="#c2d0d8"/><rect x="73.22" y="585.78" width="73.22" height="73.22" fill="#9ac2ba"/><polygon points="73.22,585.78 146.44,585.78 73.22,659" fill="#edeee7"/><rect x="146.44" y="585.78" width="73.22" height="73.22" fill="#8ec4cc"/><rect x="146.44" y="585.78" width="73.22" height="73.22" fill="#d2d5e4"/><rect x="219.67" y="585.78" width="73.22" height="73.22" fill="#8fbeb2"/><polygon points="292.89,585.78 292.89,659 219.67,659" fill="#81b9a8"/><rect x="292.89" y="585.78" width="73.22" height="73.22" fill="#84baaa"/><path d="M 292.89 659 A 73.22 73.22 0 0 0 366.11 585.78 L 292.89 585.78" fill="#a5c5c2"/><rect x="366.11" y="585.78" width="73.22" height="73.22" fill="#74b49e"/><path d="M 366.11 659 A 73.22 73.22 0 0 1  439.33000000000004 585.78 L 366.11 659 A 73.22 73.22 0 0 0 439.33000000000004 585.78" fill="#81bdb7"/><rect x="439.33" y="585.78" width="73.22" height="73.22" fill="#a8cdbd"/><rect x="439.33" y="585.78" width="73.22" height="73.22" fill="#b0c9cb"/><rect x="512.56" y="585.78" width="73.22" height="73.22" fill="#c5dbce"/><polygon points="512.56,585.78 585.78,659 512.56,659" fill="#7bb9ac"/><rect x="585.78" y="585.78" width="73.22" height="73.22" fill="#bbcdd3"/><path d="M 585.78 659 A 73.22 73.22 0 0 1  659 585.78 L 585.78 659 A 73.22 73.22 0 0 0 659 585.78" fill="#71b39c"/><rect x="659" y="585.78" width="73.22" height="73.22" fill="#7db7a4"/><rect x="659" y="585.78" width="73.22" height="73.22" fill="#d8e4da"/><rect x="732.22" y="585.78" width="73.22" height="73.22" fill="#9ac2ba"/><path d="M 732.22 585.78 A 73.22 73.22 0 0 0 805.44 659 L 805.44 585.78" fill="#81b9a8"/><rect x="805.44" y="585.78" width="73.22" height="73.22" fill="#7dbbb1"/><polygon points="805.44,585.78 878.6600000000001,659 805.44,659" fill="#b6cbd0"/><rect x="878.67" y="585.78" width="73.22" height="73.22" fill="#aed0c1"/><polygon points="878.67,585.78 951.89,585.78 878.67,659" fill="#a2c4c0"/><rect x="951.89" y="585.78" width="73.22" height="73.22" fill="#c5dbce"/><rect x="951.89" y="585.78" width="73.22" height="73.22" fill="#bad6c8"/><rect x="1025.11" y="585.78" width="73.22" height="73.22" fill="#a6ccbb"/><polygon points="1025.11,585.78 1098.33,585.78 1098.33,659" fill="#80bcb5"/><rect x="1098.33" y="585.78" width="73.22" height="73.22" fill="#b0d1c2"/><path d="M 1098.33 659 A 73.22 73.22 0 0 0 1171.55 585.78 L 1098.33 585.78" fill="#a9cebd"/></g></svg>