<svg width="830" height="1024" viewBox="0 0 830 1024" fill="none" xmlns="http://www.w3.org/2000/svg">
<path d="M829.007 0H-506V1024H829.007V0Z" fill="white"/>
<path d="M100.815 0H-20.5452V146.28H100.815V0Z" fill="#FDFCFB"/>
<path d="M-20.5452 0C11.6414 0 42.5098 15.4116 65.2691 42.8445C88.0285 70.2773 100.815 107.484 100.815 146.28L-20.5452 0C-20.5452 38.7959 -7.75912 76.0029 15.0002 103.436C37.7596 130.869 68.6279 146.28 100.815 146.28" fill="#222946"/>
<path d="M222.174 0H100.814V146.28H222.174V0Z" fill="#B0B3BD"/>
<path d="M100.814 0C100.814 38.7959 113.601 76.0029 136.36 103.436C159.119 130.869 189.988 146.28 222.174 146.28V0" fill="#394059"/>
<path d="M343.55 0H222.19V146.28H343.55V0Z" fill="#444B63"/>
<path d="M343.55 0H222.19V146.28H343.55V0Z" fill="#818696"/>
<path d="M464.91 0H343.55V146.28H464.91V0Z" fill="#FCFAF8"/>
<path d="M464.91 0H343.55V146.28H464.91V0Z" fill="#A7AAB6"/>
<path d="M586.269 0H464.91V146.28H586.269V0Z" fill="#F3F3F5"/>
<path d="M464.91 0C497.096 0 527.965 15.4116 550.724 42.8445C573.483 70.2773 586.269 107.484 586.269 146.28L464.91 0C464.91 38.7959 477.696 76.0029 500.455 103.436C523.214 130.869 554.083 146.28 586.269 146.28" fill="#F0F0F2"/>
<path d="M707.645 0H586.285V146.28H707.645V0Z" fill="#FFFFFE"/>
<path d="M586.285 0L707.645 146.28H586.285V0Z" fill="#FFFEFE"/>
<path d="M829.005 0H707.645V146.28H829.005V0Z" fill="#F7F3ED"/>
<path d="M707.645 146.28C707.645 107.484 720.431 70.2773 743.19 42.8445C765.95 15.4116 796.818 0 829.005 0L707.645 146.28C739.832 146.28 770.7 130.869 793.459 103.436C816.219 76.0029 829.005 38.7959 829.005 0" fill="#FAF7F4"/>
<path d="M100.815 146.28H-20.5452V292.56H100.815V146.28Z" fill="#FEFEFE"/>
<path d="M-20.5452 146.28C11.6414 146.28 42.5098 161.692 65.2691 189.125C88.0285 216.558 100.815 253.765 100.815 292.56H-20.5452" fill="#656B7E"/>
<path d="M222.174 146.28H100.814V292.56H222.174V146.28Z" fill="#F9F6F2"/>
<path d="M100.814 146.28C100.814 185.076 113.601 222.283 136.36 249.716C159.119 277.149 189.988 292.56 222.174 292.56V146.28" fill="#FEFEFE"/>
<path d="M343.55 146.28H222.19V292.56H343.55V146.28Z" fill="#434962"/>
<path d="M343.55 146.28H222.19V292.56H343.55V146.28Z" fill="#AFB2BC"/>
<path d="M464.91 146.28H343.55V292.56H464.91V146.28Z" fill="#202844"/>
<path d="M343.55 146.28C359.487 146.28 375.268 150.064 389.992 157.415C404.716 164.766 418.095 175.541 429.364 189.125C440.633 202.708 449.573 218.834 455.672 236.581C461.77 254.329 464.91 273.351 464.91 292.56L343.55 146.28C343.55 185.076 356.336 222.283 379.095 249.716C401.855 277.149 432.723 292.56 464.91 292.56" fill="#F8F6F1"/>
<path d="M586.269 146.28H464.91V292.56H586.269V146.28Z" fill="#FAF7F4"/>
<path d="M586.269 146.28V292.56H464.91L586.269 146.28Z" fill="#C7C9D0"/>
<path d="M707.645 146.28H586.285V292.56H707.645V146.28Z" fill="#212946"/>
<path fill-rule="evenodd" clip-rule="evenodd" d="M646.965 292.56C680.477 292.56 707.645 259.814 707.645 219.42C707.645 179.026 680.477 146.28 646.965 146.28C613.452 146.28 586.285 179.026 586.285 219.42C586.285 259.814 613.452 292.56 646.965 292.56ZM646.965 270.618C670.424 270.618 689.441 247.696 689.441 219.42C689.441 191.144 670.424 168.222 646.965 168.222C623.506 168.222 604.489 191.144 604.489 219.42C604.489 247.696 623.506 270.618 646.965 270.618Z" fill="#FAF8F4"/>
<path d="M829.005 146.28H707.645V292.56H829.005V146.28Z" fill="#656A7E"/>
<path fill-rule="evenodd" clip-rule="evenodd" d="M768.325 292.56C801.837 292.56 829.005 259.814 829.005 219.42C829.005 179.026 801.837 146.28 768.325 146.28C734.812 146.28 707.645 179.026 707.645 219.42C707.645 259.814 734.812 292.56 768.325 292.56ZM768.325 270.618C791.784 270.618 810.801 247.696 810.801 219.42C810.801 191.144 791.784 168.222 768.325 168.222C744.866 168.222 725.849 191.144 725.849 219.42C725.849 247.696 744.866 270.618 768.325 270.618Z" fill="#FEFDFD"/>
<path d="M100.815 292.58H-20.5452V438.86H100.815V292.58Z" fill="#FBF9F6"/>
<path fill-rule="evenodd" clip-rule="evenodd" d="M40.1347 438.86C73.647 438.86 100.815 406.114 100.815 365.72C100.815 325.326 73.647 292.58 40.1347 292.58C6.62212 292.58 -20.5452 325.326 -20.5452 365.72C-20.5452 406.114 6.62212 438.86 40.1347 438.86ZM40.1347 416.918C63.5935 416.918 82.6106 393.996 82.6106 365.72C82.6106 337.444 63.5935 314.522 40.1347 314.522C16.6759 314.522 -2.34121 337.444 -2.34121 365.72C-2.34121 393.996 16.6759 416.918 40.1347 416.918Z" fill="#F7F3ED"/>
<path d="M222.174 292.58H100.814V438.86H222.174V292.58Z" fill="#F7F4EE"/>
<path d="M100.814 438.86C100.814 400.064 113.601 362.857 136.36 335.424C159.119 307.991 189.988 292.58 222.174 292.58L100.814 438.86C133.001 438.86 163.869 423.448 186.629 396.015C209.388 368.583 222.174 331.376 222.174 292.58" fill="#ECEDEF"/>
<path d="M343.55 292.58H222.19V438.86H343.55V292.58Z" fill="#1E2643"/>
<path d="M222.19 438.86C222.19 400.064 234.976 362.857 257.736 335.424C280.495 307.991 311.363 292.58 343.55 292.58L222.19 438.86C254.377 438.86 285.245 423.448 308.004 396.015C330.764 368.583 343.55 331.376 343.55 292.58" fill="#D5D7DC"/>
<path d="M464.91 292.58H343.55V438.86H464.91V292.58Z" fill="#FCFAF8"/>
<path d="M343.55 292.58C359.487 292.58 375.268 296.363 389.992 303.715C404.716 311.066 418.095 321.841 429.364 335.424C440.633 349.008 449.573 365.133 455.672 382.881C461.77 400.628 464.91 419.65 464.91 438.86H343.55" fill="#FDFDFB"/>
<path d="M586.269 292.58H464.91V438.86H586.269V292.58Z" fill="#ADB0BA"/>
<path d="M464.91 438.86C464.91 400.064 477.696 362.857 500.455 335.424C523.214 307.991 554.083 292.58 586.269 292.58V438.86" fill="#A3A6B2"/>
<path d="M707.645 292.58H586.285V438.86H707.645V292.58Z" fill="#FEFEFD"/>
<path d="M586.285 292.58H707.645L586.285 438.86V292.58Z" fill="#757A8B"/>
<path d="M829.005 292.58H707.645V438.86H829.005V292.58Z" fill="#F6F2EC"/>
<path d="M707.645 438.86C739.832 438.86 770.7 423.448 793.459 396.015C816.219 368.583 829.005 331.376 829.005 292.58H707.645" fill="#BDC0C8"/>
<path d="M100.815 438.86H-20.5452V585.14H100.815V438.86Z" fill="#F8F5F0"/>
<path d="M-20.5452 438.86C11.6414 438.86 42.5098 454.272 65.2691 481.704C88.0285 509.137 100.815 546.344 100.815 585.14L-20.5452 438.86C-20.5452 458.07 -17.4061 477.091 -11.3072 494.839C-5.20832 512.586 3.73095 528.712 15.0002 542.296C37.7596 569.728 68.6279 585.14 100.815 585.14" fill="#FCFBF9"/>
<path d="M222.174 438.86H100.814V585.14H222.174V438.86Z" fill="#F8F5F0"/>
<path d="M100.814 585.14C100.814 546.344 113.601 509.137 136.36 481.704C159.119 454.272 189.988 438.86 222.174 438.86L100.814 585.14C116.752 585.14 132.533 581.356 147.257 574.005C161.981 566.654 175.359 555.879 186.629 542.296C197.898 528.712 206.837 512.586 212.936 494.839C219.035 477.091 222.174 458.07 222.174 438.86" fill="#FBF9F7"/>
<path d="M343.55 438.86H222.19V585.14H343.55V438.86Z" fill="#FDFDFC"/>
<path d="M343.55 438.86H222.19V585.14H343.55V438.86Z" fill="#FCFBF9"/>
<path d="M464.91 438.86H343.55V585.14H464.91V438.86Z" fill="#FDFCFA"/>
<path fill-rule="evenodd" clip-rule="evenodd" d="M404.23 585.14C437.742 585.14 464.91 552.394 464.91 512C464.91 471.606 437.742 438.86 404.23 438.86C370.717 438.86 343.55 471.606 343.55 512C343.55 552.394 370.717 585.14 404.23 585.14ZM404.23 563.198C427.689 563.198 446.706 540.276 446.706 512C446.706 483.724 427.689 460.802 404.23 460.802C380.771 460.802 361.754 483.724 361.754 512C361.754 540.276 380.771 563.198 404.23 563.198Z" fill="#FBFAF7"/>
<path d="M586.269 438.86H464.91V585.14H586.269V438.86Z" fill="#7A7E8F"/>
<path d="M464.91 585.14C464.91 546.344 477.696 509.137 500.455 481.704C523.214 454.272 554.083 438.86 586.269 438.86L464.91 585.14C497.096 585.14 527.965 569.728 550.724 542.296C573.483 514.863 586.269 477.656 586.269 438.86" fill="#F8F5F0"/>
<path d="M707.645 438.86H586.285V585.14H707.645V438.86Z" fill="#ADAFBA"/>
<path d="M586.285 438.86C618.472 438.86 649.34 454.272 672.099 481.704C694.859 509.137 707.645 546.344 707.645 585.14H586.285" fill="#FEFEFD"/>
<path d="M829.005 438.86H707.645V585.14H829.005V438.86Z" fill="#969AA7"/>
<path d="M707.645 438.86L829.005 585.14H707.645V438.86Z" fill="#3D445D"/>
<path d="M100.815 585.14H-20.5452V731.42H100.815V585.14Z" fill="#F8F5F1"/>
<path d="M-20.5452 731.42C11.6414 731.42 42.5098 716.009 65.2691 688.576C88.0285 661.143 100.815 623.936 100.815 585.14H-20.5452" fill="white"/>
<path d="M222.174 585.14H100.814V731.42H222.174V585.14Z" fill="#565C72"/>
<path d="M100.814 585.14C100.814 623.936 113.601 661.143 136.36 688.576C159.119 716.009 189.988 731.42 222.174 731.42V585.14" fill="#F0F0F2"/>
<path d="M343.55 585.14H222.19V731.42H343.55V585.14Z" fill="#494F66"/>
<path d="M222.19 585.14H343.55V731.42L222.19 585.14Z" fill="#B9BCC5"/>
<path d="M464.91 585.14H343.55V731.42H464.91V585.14Z" fill="#353C56"/>
<path d="M343.55 585.14C359.487 585.14 375.268 588.924 389.992 596.275C404.716 603.626 418.095 614.401 429.364 627.985C440.633 641.568 449.573 657.694 455.672 675.441C461.77 693.189 464.91 712.211 464.91 731.42L343.55 585.14C343.55 623.936 356.336 661.143 379.095 688.576C401.855 716.009 432.723 731.42 464.91 731.42" fill="#F8F5F1"/>
<path d="M586.269 585.14H464.91V731.42H586.269V585.14Z" fill="#F3F3F5"/>
<path d="M464.91 731.42C464.91 692.624 477.696 655.417 500.455 627.985C523.214 600.552 554.083 585.14 586.269 585.14L464.91 731.42C497.096 731.42 527.965 716.009 550.724 688.576C573.483 661.143 586.269 623.936 586.269 585.14" fill="#FEFEFE"/>
<path d="M707.645 585.14H586.285V731.42H707.645V585.14Z" fill="#FDFCFA"/>
<path d="M586.285 585.14C618.472 585.14 649.34 600.552 672.099 627.985C694.859 655.417 707.645 692.624 707.645 731.42L586.285 585.14C586.285 623.936 599.071 661.143 621.831 688.576C644.59 716.009 675.458 731.42 707.645 731.42" fill="#FDFDFB"/>
<path d="M829.005 585.14H707.645V731.42H829.005V585.14Z" fill="#F7F4EE"/>
<path fill-rule="evenodd" clip-rule="evenodd" d="M768.325 731.42C801.837 731.42 829.005 698.674 829.005 658.28C829.005 617.886 801.837 585.14 768.325 585.14C734.812 585.14 707.645 617.886 707.645 658.28C707.645 698.674 734.812 731.42 768.325 731.42ZM768.325 709.478C791.784 709.478 810.801 686.556 810.801 658.28C810.801 630.004 791.784 607.082 768.325 607.082C744.866 607.082 725.849 630.004 725.849 658.28C725.849 686.556 744.866 709.478 768.325 709.478Z" fill="#222A46"/>
<path d="M100.815 731.42H-20.5452V877.701H100.815V731.42Z" fill="#F9F7F3"/>
<path d="M-20.5452 731.42C11.6414 731.42 42.5098 746.832 65.2691 774.265C88.0285 801.698 100.815 838.905 100.815 877.701L-20.5452 731.42C-20.5452 770.216 -7.75912 807.423 15.0002 834.856C37.7596 862.289 68.6279 877.701 100.815 877.701" fill="#6D7285"/>
<path d="M222.174 731.42H100.814V877.701H222.174V731.42Z" fill="#F7F4EF"/>
<path d="M100.814 877.701C133.001 877.701 163.869 862.289 186.629 834.856C209.388 807.423 222.174 770.216 222.174 731.42H100.814" fill="#686D81"/>
<path d="M343.55 731.42H222.19V877.701H343.55V731.42Z" fill="#BBBDC6"/>
<path d="M222.19 731.42C254.377 731.42 285.245 746.832 308.004 774.265C330.764 801.698 343.55 838.905 343.55 877.701L222.19 731.42C222.19 770.216 234.976 807.423 257.736 834.856C280.495 862.289 311.363 877.701 343.55 877.701" fill="#FFFEFE"/>
<path d="M464.91 731.42H343.55V877.701H464.91V731.42Z" fill="#FCFBF9"/>
<path d="M464.91 731.42H343.55V877.701H464.91V731.42Z" fill="#D0D2D8"/>
<path d="M586.269 731.42H464.91V877.701H586.269V731.42Z" fill="#F7F3ED"/>
<path d="M586.269 731.42H464.91V877.701H586.269V731.42Z" fill="#FEFDFC"/>
<path d="M707.645 731.42H586.285V877.701H707.645V731.42Z" fill="#8E92A0"/>
<path d="M707.645 731.42H586.285V877.701H707.645V731.42Z" fill="#F7F3EE"/>
<path d="M829.005 731.42H707.645V877.701H829.005V731.42Z" fill="#6F7587"/>
<path d="M829.005 731.42H707.645V877.701H829.005V731.42Z" fill="#F9F6F2"/>
<path d="M100.815 877.72H-20.5452V1024H100.815V877.72Z" fill="#FAF8F4"/>
<path d="M100.815 877.72H-20.5452V1024H100.815V877.72Z" fill="#858999"/>
<path d="M222.174 877.72H100.814V1024H222.174V877.72Z" fill="#FDFCFA"/>
<path d="M100.814 877.72C100.814 916.516 113.601 953.723 136.36 981.155C159.119 1008.59 189.988 1024 222.174 1024V877.72" fill="#FCFBF9"/>
<path d="M343.55 877.72H222.19V1024H343.55V877.72Z" fill="#5C6176"/>
<path fill-rule="evenodd" clip-rule="evenodd" d="M282.87 1024C316.382 1024 343.55 991.254 343.55 950.86C343.55 910.466 316.382 877.72 282.87 877.72C249.357 877.72 222.19 910.466 222.19 950.86C222.19 991.254 249.357 1024 282.87 1024ZM282.87 1002.06C306.329 1002.06 325.346 979.136 325.346 950.86C325.346 922.584 306.329 899.662 282.87 899.662C259.411 899.662 240.394 922.584 240.394 950.86C240.394 979.136 259.411 1002.06 282.87 1002.06Z" fill="#FCFBF9"/>
<path d="M464.91 877.72H343.55V1024H464.91V877.72Z" fill="#F9F6F2"/>
<path fill-rule="evenodd" clip-rule="evenodd" d="M404.23 1024C437.742 1024 464.91 991.254 464.91 950.86C464.91 910.466 437.742 877.72 404.23 877.72C370.717 877.72 343.55 910.466 343.55 950.86C343.55 991.254 370.717 1024 404.23 1024ZM404.23 1002.06C427.689 1002.06 446.706 979.136 446.706 950.86C446.706 922.584 427.689 899.662 404.23 899.662C380.771 899.662 361.754 922.584 361.754 950.86C361.754 979.136 380.771 1002.06 404.23 1002.06Z" fill="#FAF7F4"/>
<path d="M586.269 877.72H464.91V1024H586.269V877.72Z" fill="#FDFDFB"/>
<path d="M586.269 877.72H464.91V1024H586.269V877.72Z" fill="#F7F4EF"/>
<path d="M707.645 877.72H586.285V1024H707.645V877.72Z" fill="#DADCE0"/>
<path d="M586.285 877.72H707.645V1024L586.285 877.72Z" fill="#7D8292"/>
<path d="M829.005 877.72H707.645V1024H829.005V877.72Z" fill="#BABDC6"/>
<path d="M707.645 1024C707.645 985.204 720.431 947.997 743.19 920.564C765.95 893.131 796.818 877.72 829.005 877.72V1024" fill="#DBDCE1"/>
<rect width="829" height="1024" fill="#1C2441" fill-opacity="0.65"/>
</svg>
