<?xml version="1.0" encoding="UTF-8"?>
<svg id="Capa_1" data-name="Capa 1" xmlns="http://www.w3.org/2000/svg" viewBox="0 0 851.62 825.05">
  <defs>
    <style>
      .cls-1 {
        fill: #989898;
      }

      .cls-2 {
        fill: #455a64;
      }

      .cls-3 {
        fill: #34b296;
      }

      .cls-4 {
        fill: #192e35;
      }

      .cls-5 {
        fill: #1b2545;
      }

      .cls-6 {
        fill: #d2bfdd;
      }

      .cls-7 {
        fill: #009578;
      }
    </style>
  </defs>
  <path class="cls-3" d="M602.51,255.01s29.54,9.75,42.16,83.31c11.98,69.79,37.97,104.48,37.97,104.48l99.62,17.37-46.92,82.88-135.45-47.46-7.09-138.57,9.7-102.01Z"/>
  <path class="cls-3" d="M422.71,253.22s-44.62,5.83-57.15,51.07c-12.53,45.24-26.19,151.69-26.19,151.69l-81.6,138.12,54.16,33.66,80.88-109.53c9.28-12.57,15.69-27.15,17.87-42.63,.8-5.66,1.09-11.53,.75-17.81l-1.94-33.87,13.22-170.71Z"/>
  <path class="cls-3" d="M411.88,255.61l-16.12,111.81c-2.33,16.17-1.17,32.65,3.41,48.33l2.15,77.74s.69,28.63,22.98,42c4.37,2.62,113.74,4.37,113.74,4.37h48.12l17.46-169.55-1.1-115.29s-40.14-14.63-55.89-16.38c-9.88-1.1-52.66-2.5-87.7,.71l-47.04,16.27Z"/>
  <path class="cls-7" d="M367.51,476.38c-.4,.29-4.69-6.58-12.6-12.26-3.93-2.81-7.81-4.94-10.82-5.99-2.96-1.2-4.77-2.06-4.71-2.27s2,.26,5.12,1.21c3.17,.79,7.3,2.83,11.36,5.75,8.22,5.92,12.04,13.43,11.65,13.56Z"/>
  <path class="cls-7" d="M602.02,320.37c.11,0,.23,1.86,.35,5.22,.13,3.36,.22,8.23,.26,14.24,.09,12.03-.13,28.64-.97,46.98-.85,18.34-2.16,34.91-3.35,46.87-.59,5.98-1.13,10.82-1.57,14.15-.43,3.34-.72,5.17-.83,5.16-.11-.01-.03-1.87,.21-5.22,.27-3.62,.63-8.41,1.06-14.19,.9-11.98,2.03-28.54,2.87-46.85,.84-18.31,1.24-34.9,1.44-46.91,.1-5.8,.19-10.6,.25-14.23,.07-3.36,.16-5.22,.27-5.22Z"/>
  <path class="cls-7" d="M397.11,374.57c-.11,0-.23,1.86-.35,5.22-.13,3.36-.22,8.23-.26,14.24-.09,12.03,.13,28.64,.97,46.98,.85,18.34,2.16,34.91,3.35,46.87,.59,5.98,1.13,10.82,1.57,14.15,.43,3.34,.72,5.17,.83,5.16,.11-.01,.03-1.87-.21-5.22-.27-3.62-.63-8.41-1.06-14.19-.9-11.98-2.03-28.54-2.87-46.85-.84-18.31-1.24-34.9-1.44-46.91-.1-5.8-.19-10.6-.25-14.23-.07-3.36-.16-5.22-.27-5.22Z"/>
  <path class="cls-4" d="M422.86,534.98l-32.5,46.04s-128.08-38.95-160.35-37.16c-32.27,1.79-58.7,14.72-64.98,40.93-6.27,26.21-7.13,62.37,30.52,87.47,37.65,25.1,224.76,38.97,224.76,38.97h74.04l121.02-159.56-10.63-8.76-181.88-7.93Z"/>
  <path class="cls-2" d="M454.6,639.79c0,.06-.84,.04-2.43-.04-1.59-.13-3.95-.12-6.95-.54-6.03-.6-14.69-2.16-25.1-5.18-10.42-2.99-22.46-7.73-35.4-13.85-12.95-6.11-26.76-13.62-41.28-21.42-14.52-7.78-28.58-14.76-41.81-20.06-13.23-5.28-25.57-8.95-36.17-10.82-10.59-1.9-19.34-2.38-25.36-2.21-3.02-.07-5.34,.26-6.93,.27-1.59,.07-2.43,.09-2.43,.03,0-.06,.82-.18,2.4-.35,1.59-.12,3.92-.54,6.95-.57,6.05-.36,14.87-.06,25.57,1.72,10.71,1.73,23.19,5.32,36.52,10.56,13.34,5.25,27.47,12.23,42.02,20.02,14.53,7.8,28.29,15.34,41.15,21.5,12.85,6.16,24.78,10.98,35.09,14.1,10.3,3.14,18.88,4.86,24.85,5.65,2.97,.52,5.32,.61,6.89,.84,1.58,.19,2.41,.31,2.41,.36Z"/>
  <path class="cls-4" d="M542.11,698.21c23.78-9.34,154.6-50.97,200.91-104.48,38.56-44.56-22.77-84.45-22.77-84.45,0,0-43.02-1.38-57.37,0-14.35,1.38-219.63,140.11-219.63,140.11,0,0,35.86,69.92,34.96,72.61l63.9-23.78Z"/>
  <path class="cls-2" d="M606.54,543.05s-.17,.17-.56,.45c-.47,.32-1.03,.7-1.72,1.17-1.65,1.08-3.89,2.53-6.71,4.37-5.99,3.82-14.45,9.21-24.85,15.83-21.17,13.31-50.22,31.56-82.3,51.72-15.85,9.88-30.95,19.3-44.71,27.87l.29-.92c9.52,22.91,17.64,42.44,23.44,56.4,2.78,6.83,5,12.29,6.59,16.19,.7,1.8,1.27,3.23,1.7,4.33,.37,.99,.55,1.51,.51,1.52-.04,.02-.29-.47-.73-1.43-.49-1.07-1.12-2.48-1.91-4.24-1.68-3.86-4.03-9.26-6.98-16.02-5.93-13.9-14.24-33.36-23.98-56.17l-.25-.58,.54-.34c13.74-8.61,28.82-18.06,44.64-27.98,32.18-20.01,61.31-38.12,82.55-51.32,10.51-6.44,19.06-11.69,25.12-15.4,2.89-1.73,5.18-3.11,6.87-4.12,.72-.42,1.32-.76,1.81-1.04,.41-.23,.63-.33,.65-.31Z"/>
  <path class="cls-2" d="M425.79,604.76c-.08,.19-2.45-.58-6.08-2.28-3.63-1.7-8.48-4.43-13.44-8.05-4.95-3.63-9.01-7.43-11.73-10.38-2.73-2.94-4.17-4.97-4.01-5.1,.37-.34,6.92,7.07,16.7,14.18,9.73,7.17,18.77,11.18,18.56,11.63Z"/>
  <path class="cls-1" d="M473.76,536.72h0c0-2.09,1.68-3.8,3.77-3.82l109.75-1.38,43.34-134.33c1.46-4.52,5.73-7.54,10.48-7.41l166.59,4.68c7.35,.21,12.3,7.59,9.71,14.46l-52.33,138.82-287.58-7.19c-2.07-.05-3.73-1.75-3.73-3.82Z"/>
  <g>
    <path class="cls-5" d="M476.29,47.06c15.68-15.96,40.42-25.38,60.92-16.42,13.78,6.03,23.13,18.96,35.22,27.9,8.81,6.51,19.69,11.55,24.31,21.48,4.07,8.76,2.11,18.95,1.12,28.56-.98,9.61-.29,20.69,7.15,26.85,3.91,3.23,9.05,4.51,13.45,7.03,8.86,5.07,14.12,14.95,16.02,24.98,1.9,10.03,.87,20.36-.16,30.51l-42.22,8.05-6.93-11.66-2.42,18.34-53.88,4.86-52.58-170.49Z"/>
    <g>
      <path class="cls-6" d="M469.57,78.91l-.1,11-3.52,151.34c-.31,19.11,19.2,35.37,41.06,35.47h0c22.08,.11,31.1-15.43,31.75-34.73,.69-20.26,1.81-28.03,1.81-28.03,0,0,28.01-3.64,34.83-37.56,3.39-16.87,3.33-44.66,2.5-67.4-.75-20.46-19.53-36.19-41.34-34.57l-66.99,4.48Z"/>
      <path class="cls-5" d="M540.68,214.07s-24.2,1.21-48.04-14.03c0,0,11.18,24.32,47.67,21.92l.37-7.89Z"/>
    </g>
    <path class="cls-5" d="M495.3,43c6.59,8.85,9.72,15.64,13.67,31.37,1.93,7.7-4.33,13.14-10.55,17.85-2.92,2.2-7.13,.66-7.93-2.9h0s2.16,24.1-6.55,34.91c-4.09,5.07-4.26,11.56-3.29,17.04,.99,5.59,3.87,10.62,7.78,14.74,10.1,10.62,12.91,27.95,5.94,40.98-1.78,3.34-4.11,6.39-5.54,9.9-.82,2.01-1.29,4.25-1.16,6.4,.16,2.65-1.67,5-4.3,5.38-29.9,4.34-60.31,5.25-90.42,2.72-2.12-.18-3.94-1.68-4.43-3.75-2.36-9.99,1.58-20.88,6.62-30.08,5.64-10.27,12.81-20.12,14.75-31.68,1.83-10.87-1.14-22.6,3.23-32.72,5.36-12.42,19.94-18.3,27.23-29.7,6.88-10.75,6.33-24.85,12.5-36.03,7.92-14.35,27.41-20.98,42.44-14.43"/>
    <path class="cls-5" d="M494.04,73.35c11.44,5.88,3.08,23.53,14.19,30.01,10.12,5.9,36.4,.69,47.99-1.05-.43-2.57-.86-5.14-1.29-7.71,1.17,2.25,2.39,4.56,4.29,6.24,1.91,1.68,4.69,2.62,7.04,1.67,3.89-1.57,4.4-6.91,3.4-10.98-1.6-6.52-5.4-12.35-10.11-17.13-8.56-8.69-20.3-14.17-32.46-15.14-12.16-.97-24.63,2.57-34.45,9.79"/>
    <path class="cls-5" d="M519.67,162.04c-2.36-.14-3.81,.76-4.11,2.8-.28,1.91,.92,2.72,2.77,3.07,5.64,1.07,10.73,3.35,15.04,7.24,1.56,1.41,3.21,1.66,4.58-.08,1.07-1.36,.95-2.8-.3-4.27-2.89-3.39-13.85-8.77-17.98-8.76Z"/>
    <path class="cls-5" d="M514.81,141.93c-.44-2.99-2.06-5.15-5.02-5.24-3.14-.09-5.35,1.69-5.39,5.13-.03,3.11,1.69,4.92,4.78,5.11,3.47,.21,4.96-1.99,5.63-5.01Z"/>
    <path class="cls-5" d="M553.63,138.46c.32,3.54,1.8,5.52,5.01,5.61,3.43,.1,5.49-1.88,5.41-5.16-.07-2.92-1.85-4.93-5.16-4.89-3.24,.04-4.65,2.01-5.26,4.44Z"/>
    <path class="cls-5" d="M564.77,110.93c-2.09,.25-4.18,.49-6.27,.78-1.98,.27-3.52,1.3-3.08,3.41,.43,2.09,1.98,3.2,4.34,2.76,1.89-.35,3.8-.7,5.71-.77,2.26-.08,4.65-.25,4.46-3.08-.19-2.94-2.7-3.28-5.17-3.1Z"/>
    <path class="cls-5" d="M506.05,120.21c2.15-.96,7.65,1.63,6.88-3.8-.66-4.6-5.49-2.06-8.56-2.31-.67-.06-1.37,.31-2.06,.46-1.93,.41-4.16,.68-3.53,3.48,.54,2.41,2.47,2.68,4.59,2.36,.7-.11,1.41-.1,2.68-.19Z"/>
  </g>
  <rect class="cls-3" x="466.16" y="238.93" width="74.53" height="39.68"/>
  <path class="cls-7" d="M529.95,231.27c-.3,0-.6,.01-.89,.02-11.49,.29-22.98,.77-34.47,.92-5.8,.07-11.61,.07-17.41-.09-4.36-.12-9.32-.97-13.21,1.55-.7,.46-1.35,1.01-1.92,1.62-2.8,2.99-4.19,7.33-3.46,11.39,28.42-1.03,56.85-1.67,85.28-1.92-.22-4.27-1.16-8.98-4.63-11.48-2.62-1.89-6.03-2.04-9.29-1.99Z"/>
</svg>