<?xml version="1.0" standalone="no"?><svg xmlns:xlink="http://www.w3.org/1999/xlink" xmlns="http://www.w3.org/2000/svg" viewBox="0 0 1000 636.3670010876741" preserveAspectRatio="xMaxYMax slice"><g transform="scale(1.1939343359993886)"><rect x="0" y="0" width="837.5714285714286" height="533" fill="#ffffff"/><rect x="0" y="0" width="76.14" height="76.14" fill="#6b7183"/><path d="M 0 0 A 76.14 76.14 0 0 1  76.14 76.14 L 0 0 A 76.14 76.14 0 0 0 76.14 76.14" fill="#fcfaf8"/><rect x="76.14" y="0" width="76.14" height="76.14" fill="#fefefe"/><path d="M 76.14 76.14 A 76.14 76.14 0 0 0 152.28 0 L 76.14 0" fill="#dddee2"/><rect x="152.29" y="0" width="76.14" height="76.14" fill="#f8f5f0"/><polygon points="152.29,0 228.43,0 228.43,76.14" fill="#f9f6f2"/><rect x="228.43" y="0" width="76.14" height="76.14" fill="#3d445c"/><polygon points="304.57,0 304.57,76.14 228.43,76.14" fill="#7a7f90"/><rect x="304.57" y="0" width="76.14" height="76.14" fill="#fdfcfb"/><path d="M 304.57 0 A 76.14 76.14 0 0 1  380.71 76.14 L 304.57 0 A 76.14 76.14 0 0 0 380.71 76.14" fill="#222946"/><rect x="380.71" y="0" width="76.14" height="76.14" fill="#b0b3bd"/><path d="M 380.71 0 A 76.14 76.14 0 0 0 456.84999999999997 76.14 L 456.84999999999997 0" fill="#394059"/><rect x="456.86" y="0" width="76.14" height="76.14" fill="#444b63"/><rect x="456.86" y="0" width="76.14" height="76.14" fill="#818696"/><rect x="533" y="0" width="76.14" height="76.14" fill="#fcfaf8"/><rect x="533" y="0" width="76.14" height="76.14" fill="#a7aab6"/><rect x="609.14" y="0" width="76.14" height="76.14" fill="#f3f3f5"/><path d="M 609.14 0 A 76.14 76.14 0 0 1  685.28 76.14 L 609.14 0 A 76.14 76.14 0 0 0 685.28 76.14" fill="#f0f0f2"/><rect x="685.29" y="0" width="76.14" height="76.14" fill="#fffffe"/><polygon points="685.29,0 761.43,76.14 685.29,76.14" fill="#fffefe"/><rect x="761.43" y="0" width="76.14" height="76.14" fill="#f7f3ed"/><path d="M 761.43 76.14 A 76.14 76.14 0 0 1  837.5699999999999 0 L 761.43 76.14 A 76.14 76.14 0 0 0 837.5699999999999 0" fill="#faf7f4"/><rect x="0" y="76.14" width="76.14" height="76.14" fill="#3c435c"/><rect x="0" y="76.14" width="76.14" height="76.14" fill="#5e6479"/><rect x="76.14" y="76.14" width="76.14" height="76.14" fill="#f9f6f2"/><g transform="translate(76.14,76.14) scale(3.807) rotate(0)"><path fill-rule="evenodd" clip-rule="evenodd" d="M10 20C15.5228 20 20 15.5228 20 10C20 4.47715 15.5228 0 10 0C4.47715 0 0 4.47715 0 10C0 15.5228 4.47715 20 10 20ZM10 17C13.866 17 17 13.866 17 10C17 6.13401 13.866 3 10 3C6.13401 3 3 6.13401 3 10C3 13.866 6.13401 17 10 17Z" fill="#f8f5f0"/></g><rect x="152.29" y="76.14" width="76.14" height="76.14" fill="#8a8e9d"/><path d="M 152.29 152.28 A 76.14 76.14 0 0 1  228.43 76.14 L 228.43 152.28" fill="#4e546b"/><rect x="228.43" y="76.14" width="76.14" height="76.14" fill="#858999"/><path d="M 228.43 152.28 A 76.14 76.14 0 0 1  304.57 76.14 L 228.43 152.28 A 76.14 76.14 0 0 0 304.57 76.14" fill="#fbfaf8"/><rect x="304.57" y="76.14" width="76.14" height="76.14" fill="#fefefe"/><path d="M 304.57 76.14 A 76.14 76.14 0 0 1 380.71 152.28 L 304.57 152.28" fill="#656b7e"/><rect x="380.71" y="76.14" width="76.14" height="76.14" fill="#f9f6f2"/><path d="M 380.71 76.14 A 76.14 76.14 0 0 0 456.84999999999997 152.28 L 456.84999999999997 76.14" fill="#fefefe"/><rect x="456.86" y="76.14" width="76.14" height="76.14" fill="#434962"/><rect x="456.86" y="76.14" width="76.14" height="76.14" fill="#afb2bc"/><rect x="533" y="76.14" width="76.14" height="76.14" fill="#202844"/><path d="M 533 76.14 A 76.14 76.14 0 0 1  609.14 152.28 L 533 76.14 A 76.14 76.14 0 0 0 609.14 152.28" fill="#f8f6f1"/><rect x="609.14" y="76.14" width="76.14" height="76.14" fill="#faf7f4"/><polygon points="685.28,76.14 685.28,152.28 609.14,152.28" fill="#c7c9d0"/><rect x="685.29" y="76.14" width="76.14" height="76.14" fill="#212946"/><g transform="translate(685.29,76.14) scale(3.807) rotate(0)"><path fill-rule="evenodd" clip-rule="evenodd" d="M10 20C15.5228 20 20 15.5228 20 10C20 4.47715 15.5228 0 10 0C4.47715 0 0 4.47715 0 10C0 15.5228 4.47715 20 10 20ZM10 17C13.866 17 17 13.866 17 10C17 6.13401 13.866 3 10 3C6.13401 3 3 6.13401 3 10C3 13.866 6.13401 17 10 17Z" fill="#faf8f4"/></g><rect x="761.43" y="76.14" width="76.14" height="76.14" fill="#656a7e"/><g transform="translate(761.43,76.14) scale(3.807) rotate(0)"><path fill-rule="evenodd" clip-rule="evenodd" d="M10 20C15.5228 20 20 15.5228 20 10C20 4.47715 15.5228 0 10 0C4.47715 0 0 4.47715 0 10C0 15.5228 4.47715 20 10 20ZM10 17C13.866 17 17 13.866 17 10C17 6.13401 13.866 3 10 3C6.13401 3 3 6.13401 3 10C3 13.866 6.13401 17 10 17Z" fill="#fefdfd"/></g><rect x="0" y="152.29" width="76.14" height="76.14" fill="#fefefd"/><polygon points="0,152.29 76.14,152.29 0,228.43" fill="#a3a6b2"/><rect x="76.14" y="152.29" width="76.14" height="76.14" fill="#abaeb9"/><path d="M 76.14 152.29 A 76.14 76.14 0 0 1  152.28 228.43 L 76.14 152.29 A 76.14 76.14 0 0 0 152.28 228.43" fill="#fefefd"/><rect x="152.29" y="152.29" width="76.14" height="76.14" fill="#f8f5f0"/><path d="M 152.29 152.29 A 76.14 76.14 0 0 1 228.43 228.43 L 152.29 228.43" fill="#f9f7f3"/><rect x="228.43" y="152.29" width="76.14" height="76.14" fill="#f7f3ed"/><rect x="228.43" y="152.29" width="76.14" height="76.14" fill="#f7f3ee"/><rect x="304.57" y="152.29" width="76.14" height="76.14" fill="#fbf9f6"/><g transform="translate(304.57,152.29) scale(3.807) rotate(0)"><path fill-rule="evenodd" clip-rule="evenodd" d="M10 20C15.5228 20 20 15.5228 20 10C20 4.47715 15.5228 0 10 0C4.47715 0 0 4.47715 0 10C0 15.5228 4.47715 20 10 20ZM10 17C13.866 17 17 13.866 17 10C17 6.13401 13.866 3 10 3C6.13401 3 3 6.13401 3 10C3 13.866 6.13401 17 10 17Z" fill="#f7f3ed"/></g><rect x="380.71" y="152.29" width="76.14" height="76.14" fill="#f7f4ee"/><path d="M 380.71 228.43 A 76.14 76.14 0 0 1  456.84999999999997 152.29 L 380.71 228.43 A 76.14 76.14 0 0 0 456.84999999999997 152.29" fill="#ecedef"/><rect x="456.86" y="152.29" width="76.14" height="76.14" fill="#1e2643"/><path d="M 456.86 228.43 A 76.14 76.14 0 0 1  533 152.29 L 456.86 228.43 A 76.14 76.14 0 0 0 533 152.29" fill="#d5d7dc"/><rect x="533" y="152.29" width="76.14" height="76.14" fill="#fcfaf8"/><path d="M 533 152.29 A 76.14 76.14 0 0 1 609.14 228.43 L 533 228.43" fill="#fdfdfb"/><rect x="609.14" y="152.29" width="76.14" height="76.14" fill="#adb0ba"/><path d="M 609.14 228.43 A 76.14 76.14 0 0 1  685.28 152.29 L 685.28 228.43" fill="#a3a6b2"/><rect x="685.29" y="152.29" width="76.14" height="76.14" fill="#fefefd"/><polygon points="685.29,152.29 761.43,152.29 685.29,228.43" fill="#757a8b"/><rect x="761.43" y="152.29" width="76.14" height="76.14" fill="#f6f2ec"/><path d="M 761.43 228.43 A 76.14 76.14 0 0 0 837.5699999999999 152.29 L 761.43 152.29" fill="#bdc0c8"/><rect x="0" y="228.43" width="76.14" height="76.14" fill="#fcfbfa"/><polygon points="0,228.43 76.14,304.57 0,304.57" fill="#656a7e"/><rect x="76.14" y="228.43" width="76.14" height="76.14" fill="#ffffff"/><rect x="76.14" y="228.43" width="76.14" height="76.14" fill="#585e73"/><rect x="152.29" y="228.43" width="76.14" height="76.14" fill="#272f4a"/><polygon points="228.43,228.43 228.43,304.57 152.29,304.57" fill="#f7f4ee"/><rect x="228.43" y="228.43" width="76.14" height="76.14" fill="#3d445d"/><g transform="translate(228.43,228.43) scale(3.807) rotate(0)"><path fill-rule="evenodd" clip-rule="evenodd" d="M10 20C15.5228 20 20 15.5228 20 10C20 4.47715 15.5228 0 10 0C4.47715 0 0 4.47715 0 10C0 15.5228 4.47715 20 10 20ZM10 17C13.866 17 17 13.866 17 10C17 6.13401 13.866 3 10 3C6.13401 3 3 6.13401 3 10C3 13.866 6.13401 17 10 17Z" fill="#fdfcfb"/></g><rect x="304.57" y="228.43" width="76.14" height="76.14" fill="#f8f5f0"/><path d="M 304.57 228.43 A 76.14 76.14 0 0 1  380.71 304.57 L 304.57 228.43 A 76.14 76.14 0 0 0 380.71 304.57" fill="#fcfbf9"/><rect x="380.71" y="228.43" width="76.14" height="76.14" fill="#f8f5f0"/><path d="M 380.71 304.57 A 76.14 76.14 0 0 1  456.84999999999997 228.43 L 380.71 304.57 A 76.14 76.14 0 0 0 456.84999999999997 228.43" fill="#fbf9f7"/><rect x="456.86" y="228.43" width="76.14" height="76.14" fill="#fdfdfc"/><rect x="456.86" y="228.43" width="76.14" height="76.14" fill="#fcfbf9"/><rect x="533" y="228.43" width="76.14" height="76.14" fill="#fdfcfa"/><g transform="translate(533,228.43) scale(3.807) rotate(0)"><path fill-rule="evenodd" clip-rule="evenodd" d="M10 20C15.5228 20 20 15.5228 20 10C20 4.47715 15.5228 0 10 0C4.47715 0 0 4.47715 0 10C0 15.5228 4.47715 20 10 20ZM10 17C13.866 17 17 13.866 17 10C17 6.13401 13.866 3 10 3C6.13401 3 3 6.13401 3 10C3 13.866 6.13401 17 10 17Z" fill="#fbfaf7"/></g><rect x="609.14" y="228.43" width="76.14" height="76.14" fill="#7a7e8f"/><path d="M 609.14 304.57 A 76.14 76.14 0 0 1  685.28 228.43 L 609.14 304.57 A 76.14 76.14 0 0 0 685.28 228.43" fill="#f8f5f0"/><rect x="685.29" y="228.43" width="76.14" height="76.14" fill="#adafba"/><path d="M 685.29 228.43 A 76.14 76.14 0 0 1 761.43 304.57 L 685.29 304.57" fill="#fefefd"/><rect x="761.43" y="228.43" width="76.14" height="76.14" fill="#969aa7"/><polygon points="761.43,228.43 837.5699999999999,304.57 761.43,304.57" fill="#3d445d"/><rect x="0" y="304.57" width="76.14" height="76.14" fill="#fcfbf9"/><rect x="0" y="304.57" width="76.14" height="76.14" fill="#eeeef0"/><rect x="76.14" y="304.57" width="76.14" height="76.14" fill="#f6f3ed"/><g transform="translate(76.14,304.57) scale(3.807) rotate(0)"><path fill-rule="evenodd" clip-rule="evenodd" d="M10 20C15.5228 20 20 15.5228 20 10C20 4.47715 15.5228 0 10 0C4.47715 0 0 4.47715 0 10C0 15.5228 4.47715 20 10 20ZM10 17C13.866 17 17 13.866 17 10C17 6.13401 13.866 3 10 3C6.13401 3 3 6.13401 3 10C3 13.866 6.13401 17 10 17Z" fill="#fcfdfd"/></g><rect x="152.29" y="304.57" width="76.14" height="76.14" fill="#fefefd"/><path d="M 152.29 380.71 A 76.14 76.14 0 0 1  228.43 304.57 L 152.29 380.71 A 76.14 76.14 0 0 0 228.43 304.57" fill="#5c6277"/><rect x="228.43" y="304.57" width="76.14" height="76.14" fill="#abaeb9"/><rect x="228.43" y="304.57" width="76.14" height="76.14" fill="#b9bcc5"/><rect x="304.57" y="304.57" width="76.14" height="76.14" fill="#f8f5f1"/><path d="M 304.57 380.71 A 76.14 76.14 0 0 0 380.71 304.57 L 304.57 304.57" fill="#ffffff"/><rect x="380.71" y="304.57" width="76.14" height="76.14" fill="#565c72"/><path d="M 380.71 304.57 A 76.14 76.14 0 0 0 456.84999999999997 380.71 L 456.84999999999997 304.57" fill="#f0f0f2"/><rect x="456.86" y="304.57" width="76.14" height="76.14" fill="#494f66"/><polygon points="456.86,304.57 533,304.57 533,380.71" fill="#b9bcc5"/><rect x="533" y="304.57" width="76.14" height="76.14" fill="#353c56"/><path d="M 533 304.57 A 76.14 76.14 0 0 1  609.14 380.71 L 533 304.57 A 76.14 76.14 0 0 0 609.14 380.71" fill="#f8f5f1"/><rect x="609.14" y="304.57" width="76.14" height="76.14" fill="#f3f3f5"/><path d="M 609.14 380.71 A 76.14 76.14 0 0 1  685.28 304.57 L 609.14 380.71 A 76.14 76.14 0 0 0 685.28 304.57" fill="#fefefe"/><rect x="685.29" y="304.57" width="76.14" height="76.14" fill="#fdfcfa"/><path d="M 685.29 304.57 A 76.14 76.14 0 0 1  761.43 380.71 L 685.29 304.57 A 76.14 76.14 0 0 0 761.43 380.71" fill="#fdfdfb"/><rect x="761.43" y="304.57" width="76.14" height="76.14" fill="#f7f4ee"/><g transform="translate(761.43,304.57) scale(3.807) rotate(0)"><path fill-rule="evenodd" clip-rule="evenodd" d="M10 20C15.5228 20 20 15.5228 20 10C20 4.47715 15.5228 0 10 0C4.47715 0 0 4.47715 0 10C0 15.5228 4.47715 20 10 20ZM10 17C13.866 17 17 13.866 17 10C17 6.13401 13.866 3 10 3C6.13401 3 3 6.13401 3 10C3 13.866 6.13401 17 10 17Z" fill="#222a46"/></g><rect x="0" y="380.71" width="76.14" height="76.14" fill="#faf8f5"/><path d="M 0 456.84999999999997 A 76.14 76.14 0 0 1  76.14 380.71 L 76.14 456.84999999999997" fill="#4b5168"/><rect x="76.14" y="380.71" width="76.14" height="76.14" fill="#fdfcfb"/><polygon points="76.14,380.71 152.28,380.71 76.14,456.84999999999997" fill="#f6f2ec"/><rect x="152.29" y="380.71" width="76.14" height="76.14" fill="#fafafb"/><polygon points="152.29,380.71 228.43,380.71 152.29,456.84999999999997" fill="#f7f4ef"/><rect x="228.43" y="380.71" width="76.14" height="76.14" fill="#fefdfd"/><polygon points="228.43,380.71 304.57,456.84999999999997 228.43,456.84999999999997" fill="#2b334e"/><rect x="304.57" y="380.71" width="76.14" height="76.14" fill="#f9f7f3"/><path d="M 304.57 380.71 A 76.14 76.14 0 0 1  380.71 456.84999999999997 L 304.57 380.71 A 76.14 76.14 0 0 0 380.71 456.84999999999997" fill="#6d7285"/><rect x="380.71" y="380.71" width="76.14" height="76.14" fill="#f7f4ef"/><path d="M 380.71 456.84999999999997 A 76.14 76.14 0 0 0 456.84999999999997 380.71 L 380.71 380.71" fill="#686d81"/><rect x="456.86" y="380.71" width="76.14" height="76.14" fill="#bbbdc6"/><path d="M 456.86 380.71 A 76.14 76.14 0 0 1  533 456.84999999999997 L 456.86 380.71 A 76.14 76.14 0 0 0 533 456.84999999999997" fill="#fffefe"/><rect x="533" y="380.71" width="76.14" height="76.14" fill="#fcfbf9"/><rect x="533" y="380.71" width="76.14" height="76.14" fill="#d0d2d8"/><rect x="609.14" y="380.71" width="76.14" height="76.14" fill="#f7f3ed"/><rect x="609.14" y="380.71" width="76.14" height="76.14" fill="#fefdfc"/><rect x="685.29" y="380.71" width="76.14" height="76.14" fill="#8e92a0"/><rect x="685.29" y="380.71" width="76.14" height="76.14" fill="#f7f3ee"/><rect x="761.43" y="380.71" width="76.14" height="76.14" fill="#6f7587"/><rect x="761.43" y="380.71" width="76.14" height="76.14" fill="#f9f6f2"/><rect x="0" y="456.86" width="76.14" height="76.14" fill="#fffefe"/><path d="M 0 533 A 76.14 76.14 0 0 1  76.14 456.86 L 0 533 A 76.14 76.14 0 0 0 76.14 456.86" fill="#dedfe3"/><rect x="76.14" y="456.86" width="76.14" height="76.14" fill="#f3f3f5"/><g transform="translate(76.14,456.86) scale(3.807) rotate(0)"><path fill-rule="evenodd" clip-rule="evenodd" d="M10 20C15.5228 20 20 15.5228 20 10C20 4.47715 15.5228 0 10 0C4.47715 0 0 4.47715 0 10C0 15.5228 4.47715 20 10 20ZM10 17C13.866 17 17 13.866 17 10C17 6.13401 13.866 3 10 3C6.13401 3 3 6.13401 3 10C3 13.866 6.13401 17 10 17Z" fill="#f7f4ef"/></g><rect x="152.29" y="456.86" width="76.14" height="76.14" fill="#fbfaf8"/><rect x="152.29" y="456.86" width="76.14" height="76.14" fill="#fbfaf7"/><rect x="228.43" y="456.86" width="76.14" height="76.14" fill="#fefdfd"/><rect x="228.43" y="456.86" width="76.14" height="76.14" fill="#353c56"/><rect x="304.57" y="456.86" width="76.14" height="76.14" fill="#faf8f4"/><rect x="304.57" y="456.86" width="76.14" height="76.14" fill="#858999"/><rect x="380.71" y="456.86" width="76.14" height="76.14" fill="#fdfcfa"/><path d="M 380.71 456.86 A 76.14 76.14 0 0 0 456.84999999999997 533 L 456.84999999999997 456.86" fill="#fcfbf9"/><rect x="456.86" y="456.86" width="76.14" height="76.14" fill="#5c6176"/><g transform="translate(456.86,456.86) scale(3.807) rotate(0)"><path fill-rule="evenodd" clip-rule="evenodd" d="M10 20C15.5228 20 20 15.5228 20 10C20 4.47715 15.5228 0 10 0C4.47715 0 0 4.47715 0 10C0 15.5228 4.47715 20 10 20ZM10 17C13.866 17 17 13.866 17 10C17 6.13401 13.866 3 10 3C6.13401 3 3 6.13401 3 10C3 13.866 6.13401 17 10 17Z" fill="#fcfbf9"/></g><rect x="533" y="456.86" width="76.14" height="76.14" fill="#f9f6f2"/><g transform="translate(533,456.86) scale(3.807) rotate(0)"><path fill-rule="evenodd" clip-rule="evenodd" d="M10 20C15.5228 20 20 15.5228 20 10C20 4.47715 15.5228 0 10 0C4.47715 0 0 4.47715 0 10C0 15.5228 4.47715 20 10 20ZM10 17C13.866 17 17 13.866 17 10C17 6.13401 13.866 3 10 3C6.13401 3 3 6.13401 3 10C3 13.866 6.13401 17 10 17Z" fill="#faf7f4"/></g><rect x="609.14" y="456.86" width="76.14" height="76.14" fill="#fdfdfb"/><rect x="609.14" y="456.86" width="76.14" height="76.14" fill="#f7f4ef"/><rect x="685.29" y="456.86" width="76.14" height="76.14" fill="#dadce0"/><polygon points="685.29,456.86 761.43,456.86 761.43,533" fill="#7d8292"/><rect x="761.43" y="456.86" width="76.14" height="76.14" fill="#babdc6"/><path d="M 761.43 533 A 76.14 76.14 0 0 1  837.5699999999999 456.86 L 837.5699999999999 533" fill="#dbdce1"/></g></svg>