<?xml version="1.0" standalone="no"?><svg xmlns:xlink="http://www.w3.org/1999/xlink" xmlns="http://www.w3.org/2000/svg" viewBox="0 0 1000 636.3636363636364" preserveAspectRatio="xMaxYMax slice"><g transform="scale(1.5408320493066257)"><rect x="0" y="0" width="649" height="413" fill="#ffffff"/><rect x="0" y="0" width="59" height="59" fill="#d4fcee"/><polygon points="59,0 59,59 0,59" fill="#8fb7a9"/><rect x="59" y="0" width="59" height="59" fill="#bad3ca"/><path d="M 59 0 A 59 59 0 0 1  118 59 L 59 0 A 59 59 0 0 0 118 59" fill="#feffff"/><rect x="118" y="0" width="59" height="59" fill="#e9fef6"/><polygon points="118,0 177,59 118,59" fill="#649c88"/><rect x="177" y="0" width="59" height="59" fill="#d8e6e1"/><g transform="translate(177,0) scale(2.95) rotate(0)"><path fill-rule="evenodd" clip-rule="evenodd" d="M10 20C15.5228 20 20 15.5228 20 10C20 4.47715 15.5228 0 10 0C4.47715 0 0 4.47715 0 10C0 15.5228 4.47715 20 10 20ZM10 17C13.866 17 17 13.866 17 10C17 6.13401 13.866 3 10 3C6.13401 3 3 6.13401 3 10C3 13.866 6.13401 17 10 17Z" fill="#e4fdf4"/></g><rect x="236" y="0" width="59" height="59" fill="#78a997"/><rect x="236" y="0" width="59" height="59" fill="#6fa390"/><rect x="295" y="0" width="59" height="59" fill="#dffdf2"/><rect x="295" y="0" width="59" height="59" fill="#f5fefb"/><rect x="354" y="0" width="59" height="59" fill="#a0c3b6"/><path d="M 354 0 A 59 59 0 0 1  413 59 L 354 0 A 59 59 0 0 0 413 59" fill="#ddfdf2"/><rect x="413" y="0" width="59" height="59" fill="#bdd5cc"/><polygon points="413,0 472,0 472,59" fill="#e9fef6"/><rect x="472" y="0" width="59" height="59" fill="#e0ebe7"/><g transform="translate(472,0) scale(2.95) rotate(0)"><path fill-rule="evenodd" clip-rule="evenodd" d="M10 20C15.5228 20 20 15.5228 20 10C20 4.47715 15.5228 0 10 0C4.47715 0 0 4.47715 0 10C0 15.5228 4.47715 20 10 20ZM10 17C13.866 17 17 13.866 17 10C17 6.13401 13.866 3 10 3C6.13401 3 3 6.13401 3 10C3 13.866 6.13401 17 10 17Z" fill="#99beb1"/></g><rect x="531" y="0" width="59" height="59" fill="#defdf2"/><path d="M 531 59 A 59 59 0 0 1  590 0 L 531 59 A 59 59 0 0 0 590 0" fill="#f9fffd"/><rect x="590" y="0" width="59" height="59" fill="#d9fcf0"/><path d="M 590 59 A 59 59 0 0 1  649 0 L 590 59 A 59 59 0 0 0 649 0" fill="#75a795"/><rect x="0" y="59" width="59" height="59" fill="#c6dad3"/><g transform="translate(0,59) scale(2.95) rotate(0)"><path fill-rule="evenodd" clip-rule="evenodd" d="M10 20C15.5228 20 20 15.5228 20 10C20 4.47715 15.5228 0 10 0C4.47715 0 0 4.47715 0 10C0 15.5228 4.47715 20 10 20ZM10 17C13.866 17 17 13.866 17 10C17 6.13401 13.866 3 10 3C6.13401 3 3 6.13401 3 10C3 13.866 6.13401 17 10 17Z" fill="#8db6a7"/></g><rect x="59" y="59" width="59" height="59" fill="#eefef8"/><g transform="translate(59,59) scale(2.95) rotate(0)"><path fill-rule="evenodd" clip-rule="evenodd" d="M10 20C15.5228 20 20 15.5228 20 10C20 4.47715 15.5228 0 10 0C4.47715 0 0 4.47715 0 10C0 15.5228 4.47715 20 10 20ZM10 17C13.866 17 17 13.866 17 10C17 6.13401 13.866 3 10 3C6.13401 3 3 6.13401 3 10C3 13.866 6.13401 17 10 17Z" fill="#679e8a"/></g><rect x="118" y="59" width="59" height="59" fill="#d8fcf0"/><polygon points="118,59 177,118 118,118" fill="#f5fefb"/><rect x="177" y="59" width="59" height="59" fill="#5b9681"/><polygon points="177,59 236,118 177,118" fill="#d2fced"/><rect x="236" y="59" width="59" height="59" fill="#e3fdf4"/><rect x="236" y="59" width="59" height="59" fill="#f4fefb"/><rect x="295" y="59" width="59" height="59" fill="#e2fdf4"/><rect x="295" y="59" width="59" height="59" fill="#f0fef9"/><rect x="354" y="59" width="59" height="59" fill="#c3fbe7"/><path d="M 354 118 A 59 59 0 0 1  413 59 L 354 118 A 59 59 0 0 0 413 59" fill="#e3fdf4"/><rect x="413" y="59" width="59" height="59" fill="#78a897"/><polygon points="472,59 472,118 413,118" fill="#f0fef9"/><rect x="472" y="59" width="59" height="59" fill="#cbfceb"/><rect x="472" y="59" width="59" height="59" fill="#eefef8"/><rect x="531" y="59" width="59" height="59" fill="#e5fdf5"/><g transform="translate(531,59) scale(2.95) rotate(0)"><path fill-rule="evenodd" clip-rule="evenodd" d="M10 20C15.5228 20 20 15.5228 20 10C20 4.47715 15.5228 0 10 0C4.47715 0 0 4.47715 0 10C0 15.5228 4.47715 20 10 20ZM10 17C13.866 17 17 13.866 17 10C17 6.13401 13.866 3 10 3C6.13401 3 3 6.13401 3 10C3 13.866 6.13401 17 10 17Z" fill="#fbfdfc"/></g><rect x="590" y="59" width="59" height="59" fill="#669d89"/><path d="M 590 118 A 59 59 0 0 1  649 59 L 590 118 A 59 59 0 0 0 649 59" fill="#fbfffd"/><rect x="0" y="118" width="59" height="59" fill="#d2e2dc"/><path d="M 0 177 A 59 59 0 0 1  59 118 L 0 177 A 59 59 0 0 0 59 118" fill="#f5fefb"/><rect x="59" y="118" width="59" height="59" fill="#ffffff"/><rect x="59" y="118" width="59" height="59" fill="#7eac9c"/><rect x="118" y="118" width="59" height="59" fill="#a6c6bb"/><path d="M 118 177 A 59 59 0 0 1  177 118 L 177 177" fill="#629b87"/><rect x="177" y="118" width="59" height="59" fill="#f3fefa"/><polygon points="236,118 236,177 177,177" fill="#f3fefa"/><rect x="236" y="118" width="59" height="59" fill="#6ea28f"/><path d="M 236 118 A 59 59 0 0 1 295 177 L 236 177" fill="#dafdf0"/><rect x="295" y="118" width="59" height="59" fill="#c1d7cf"/><polygon points="295,118 354,177 295,177" fill="#9fc2b6"/><rect x="354" y="118" width="59" height="59" fill="#74a694"/><rect x="354" y="118" width="59" height="59" fill="#cafcea"/><rect x="413" y="118" width="59" height="59" fill="#ebfef7"/><g transform="translate(413,118) scale(2.95) rotate(0)"><path fill-rule="evenodd" clip-rule="evenodd" d="M10 20C15.5228 20 20 15.5228 20 10C20 4.47715 15.5228 0 10 0C4.47715 0 0 4.47715 0 10C0 15.5228 4.47715 20 10 20ZM10 17C13.866 17 17 13.866 17 10C17 6.13401 13.866 3 10 3C6.13401 3 3 6.13401 3 10C3 13.866 6.13401 17 10 17Z" fill="#eafef7"/></g><rect x="472" y="118" width="59" height="59" fill="#dcfdf1"/><polygon points="472,118 531,177 472,177" fill="#ccfceb"/><rect x="531" y="118" width="59" height="59" fill="#fdfffe"/><path d="M 531 118 A 59 59 0 0 1  590 177 L 531 118 A 59 59 0 0 0 590 177" fill="#c7fbe9"/><rect x="590" y="118" width="59" height="59" fill="#d2fced"/><rect x="590" y="118" width="59" height="59" fill="#f3f7f6"/><rect x="0" y="177" width="59" height="59" fill="#e0fdf3"/><polygon points="0,177 59,177 59,236" fill="#dcfdf1"/><rect x="59" y="177" width="59" height="59" fill="#c7dbd4"/><path d="M 59 236 A 59 59 0 0 1  118 177 L 118 236" fill="#f0f5f4"/><rect x="118" y="177" width="59" height="59" fill="#ccfceb"/><path d="M 118 236 A 59 59 0 0 1  177 177 L 118 236 A 59 59 0 0 0 177 177" fill="#cdfceb"/><rect x="177" y="177" width="59" height="59" fill="#aecbc1"/><rect x="177" y="177" width="59" height="59" fill="#79a998"/><rect x="236" y="177" width="59" height="59" fill="#e3fdf4"/><g transform="translate(236,177) scale(2.95) rotate(0)"><path fill-rule="evenodd" clip-rule="evenodd" d="M10 20C15.5228 20 20 15.5228 20 10C20 4.47715 15.5228 0 10 0C4.47715 0 0 4.47715 0 10C0 15.5228 4.47715 20 10 20ZM10 17C13.866 17 17 13.866 17 10C17 6.13401 13.866 3 10 3C6.13401 3 3 6.13401 3 10C3 13.866 6.13401 17 10 17Z" fill="#c8fbe9"/></g><rect x="295" y="177" width="59" height="59" fill="#74a694"/><polygon points="295,177 354,177 354,236" fill="#86b2a2"/><rect x="354" y="177" width="59" height="59" fill="#679e8a"/><g transform="translate(354,177) scale(2.95) rotate(0)"><path fill-rule="evenodd" clip-rule="evenodd" d="M10 20C15.5228 20 20 15.5228 20 10C20 4.47715 15.5228 0 10 0C4.47715 0 0 4.47715 0 10C0 15.5228 4.47715 20 10 20ZM10 17C13.866 17 17 13.866 17 10C17 6.13401 13.866 3 10 3C6.13401 3 3 6.13401 3 10C3 13.866 6.13401 17 10 17Z" fill="#6ea290"/></g><rect x="413" y="177" width="59" height="59" fill="#9dc1b4"/><path d="M 413 236 A 59 59 0 0 1  472 177 L 413 236 A 59 59 0 0 0 472 177" fill="#e2ede9"/><rect x="472" y="177" width="59" height="59" fill="#fbfffd"/><g transform="translate(472,177) scale(2.95) rotate(0)"><path fill-rule="evenodd" clip-rule="evenodd" d="M10 20C15.5228 20 20 15.5228 20 10C20 4.47715 15.5228 0 10 0C4.47715 0 0 4.47715 0 10C0 15.5228 4.47715 20 10 20ZM10 17C13.866 17 17 13.866 17 10C17 6.13401 13.866 3 10 3C6.13401 3 3 6.13401 3 10C3 13.866 6.13401 17 10 17Z" fill="#f4fefb"/></g><rect x="531" y="177" width="59" height="59" fill="#cffcec"/><rect x="531" y="177" width="59" height="59" fill="#fbfcfc"/><rect x="590" y="177" width="59" height="59" fill="#caddd6"/><rect x="590" y="177" width="59" height="59" fill="#9cbfb3"/><rect x="0" y="236" width="59" height="59" fill="#639b87"/><rect x="0" y="236" width="59" height="59" fill="#6aa08d"/><rect x="59" y="236" width="59" height="59" fill="#f1f6f4"/><rect x="59" y="236" width="59" height="59" fill="#cee0da"/><rect x="118" y="236" width="59" height="59" fill="#f9fffd"/><path d="M 118 295 A 59 59 0 0 1  177 236 L 118 295 A 59 59 0 0 0 177 236" fill="#8fb8a9"/><rect x="177" y="236" width="59" height="59" fill="#e5fdf5"/><g transform="translate(177,236) scale(2.95) rotate(0)"><path fill-rule="evenodd" clip-rule="evenodd" d="M10 20C15.5228 20 20 15.5228 20 10C20 4.47715 15.5228 0 10 0C4.47715 0 0 4.47715 0 10C0 15.5228 4.47715 20 10 20ZM10 17C13.866 17 17 13.866 17 10C17 6.13401 13.866 3 10 3C6.13401 3 3 6.13401 3 10C3 13.866 6.13401 17 10 17Z" fill="#d2e2dd"/></g><rect x="236" y="236" width="59" height="59" fill="#c3fbe7"/><polygon points="236,236 295,236 236,295" fill="#e7fdf6"/><rect x="295" y="236" width="59" height="59" fill="#f5fefb"/><path d="M 295 295 A 59 59 0 0 1  354 236 L 295 295 A 59 59 0 0 0 354 236" fill="#dfebe7"/><rect x="354" y="236" width="59" height="59" fill="#d4e4de"/><g transform="translate(354,236) scale(2.95) rotate(0)"><path fill-rule="evenodd" clip-rule="evenodd" d="M10 20C15.5228 20 20 15.5228 20 10C20 4.47715 15.5228 0 10 0C4.47715 0 0 4.47715 0 10C0 15.5228 4.47715 20 10 20ZM10 17C13.866 17 17 13.866 17 10C17 6.13401 13.866 3 10 3C6.13401 3 3 6.13401 3 10C3 13.866 6.13401 17 10 17Z" fill="#f8faf9"/></g><rect x="413" y="236" width="59" height="59" fill="#d4fcee"/><rect x="413" y="236" width="59" height="59" fill="#f8fffc"/><rect x="472" y="236" width="59" height="59" fill="#b2cec4"/><g transform="translate(472,236) scale(2.95) rotate(0)"><path fill-rule="evenodd" clip-rule="evenodd" d="M10 20C15.5228 20 20 15.5228 20 10C20 4.47715 15.5228 0 10 0C4.47715 0 0 4.47715 0 10C0 15.5228 4.47715 20 10 20ZM10 17C13.866 17 17 13.866 17 10C17 6.13401 13.866 3 10 3C6.13401 3 3 6.13401 3 10C3 13.866 6.13401 17 10 17Z" fill="#c3fbe7"/></g><rect x="531" y="236" width="59" height="59" fill="#b6d0c7"/><polygon points="531,236 590,236 531,295" fill="#a7c7bb"/><rect x="590" y="236" width="59" height="59" fill="#7fad9d"/><g transform="translate(590,236) scale(2.95) rotate(0)"><path fill-rule="evenodd" clip-rule="evenodd" d="M10 20C15.5228 20 20 15.5228 20 10C20 4.47715 15.5228 0 10 0C4.47715 0 0 4.47715 0 10C0 15.5228 4.47715 20 10 20ZM10 17C13.866 17 17 13.866 17 10C17 6.13401 13.866 3 10 3C6.13401 3 3 6.13401 3 10C3 13.866 6.13401 17 10 17Z" fill="#d2fced"/></g><rect x="0" y="295" width="59" height="59" fill="#95bbae"/><rect x="0" y="295" width="59" height="59" fill="#8fb8a9"/><rect x="59" y="295" width="59" height="59" fill="#56937d"/><g transform="translate(59,295) scale(2.95) rotate(0)"><path fill-rule="evenodd" clip-rule="evenodd" d="M10 20C15.5228 20 20 15.5228 20 10C20 4.47715 15.5228 0 10 0C4.47715 0 0 4.47715 0 10C0 15.5228 4.47715 20 10 20ZM10 17C13.866 17 17 13.866 17 10C17 6.13401 13.866 3 10 3C6.13401 3 3 6.13401 3 10C3 13.866 6.13401 17 10 17Z" fill="#e9fef6"/></g><rect x="118" y="295" width="59" height="59" fill="#9fc1b5"/><g transform="translate(118,295) scale(2.95) rotate(0)"><path fill-rule="evenodd" clip-rule="evenodd" d="M10 20C15.5228 20 20 15.5228 20 10C20 4.47715 15.5228 0 10 0C4.47715 0 0 4.47715 0 10C0 15.5228 4.47715 20 10 20ZM10 17C13.866 17 17 13.866 17 10C17 6.13401 13.866 3 10 3C6.13401 3 3 6.13401 3 10C3 13.866 6.13401 17 10 17Z" fill="#6a9f8c"/></g><rect x="177" y="295" width="59" height="59" fill="#fdfffe"/><rect x="177" y="295" width="59" height="59" fill="#f8fffc"/><rect x="236" y="295" width="59" height="59" fill="#d7fcef"/><polygon points="236,295 295,295 295,354" fill="#bcd4cb"/><rect x="295" y="295" width="59" height="59" fill="#d0fcec"/><g transform="translate(295,295) scale(2.95) rotate(0)"><path fill-rule="evenodd" clip-rule="evenodd" d="M10 20C15.5228 20 20 15.5228 20 10C20 4.47715 15.5228 0 10 0C4.47715 0 0 4.47715 0 10C0 15.5228 4.47715 20 10 20ZM10 17C13.866 17 17 13.866 17 10C17 6.13401 13.866 3 10 3C6.13401 3 3 6.13401 3 10C3 13.866 6.13401 17 10 17Z" fill="#98bdb0"/></g><rect x="354" y="295" width="59" height="59" fill="#edfef8"/><path d="M 354 354 A 59 59 0 0 1  413 295 L 413 354" fill="#78a997"/><rect x="413" y="295" width="59" height="59" fill="#d4fcee"/><rect x="413" y="295" width="59" height="59" fill="#d5e4df"/><rect x="472" y="295" width="59" height="59" fill="#dfebe7"/><g transform="translate(472,295) scale(2.95) rotate(0)"><path fill-rule="evenodd" clip-rule="evenodd" d="M10 20C15.5228 20 20 15.5228 20 10C20 4.47715 15.5228 0 10 0C4.47715 0 0 4.47715 0 10C0 15.5228 4.47715 20 10 20ZM10 17C13.866 17 17 13.866 17 10C17 6.13401 13.866 3 10 3C6.13401 3 3 6.13401 3 10C3 13.866 6.13401 17 10 17Z" fill="#f3f7f6"/></g><rect x="531" y="295" width="59" height="59" fill="#e8f0ed"/><path d="M 531 354 A 59 59 0 0 1  590 295 L 531 354 A 59 59 0 0 0 590 295" fill="#f4f8f6"/><rect x="590" y="295" width="59" height="59" fill="#edf3f1"/><path d="M 590 295 A 59 59 0 0 0 649 354 L 649 295" fill="#cefcec"/><rect x="0" y="354" width="59" height="59" fill="#b3cec5"/><path d="M 0 413 A 59 59 0 0 1  59 354 L 0 413 A 59 59 0 0 0 59 354" fill="#f2fefa"/><rect x="59" y="354" width="59" height="59" fill="#ccded8"/><g transform="translate(59,354) scale(2.95) rotate(0)"><path fill-rule="evenodd" clip-rule="evenodd" d="M10 20C15.5228 20 20 15.5228 20 10C20 4.47715 15.5228 0 10 0C4.47715 0 0 4.47715 0 10C0 15.5228 4.47715 20 10 20ZM10 17C13.866 17 17 13.866 17 10C17 6.13401 13.866 3 10 3C6.13401 3 3 6.13401 3 10C3 13.866 6.13401 17 10 17Z" fill="#dafdf1"/></g><rect x="118" y="354" width="59" height="59" fill="#fbfffd"/><g transform="translate(118,354) scale(2.95) rotate(0)"><path fill-rule="evenodd" clip-rule="evenodd" d="M10 20C15.5228 20 20 15.5228 20 10C20 4.47715 15.5228 0 10 0C4.47715 0 0 4.47715 0 10C0 15.5228 4.47715 20 10 20ZM10 17C13.866 17 17 13.866 17 10C17 6.13401 13.866 3 10 3C6.13401 3 3 6.13401 3 10C3 13.866 6.13401 17 10 17Z" fill="#cafcea"/></g><rect x="177" y="354" width="59" height="59" fill="#f0f6f4"/><rect x="177" y="354" width="59" height="59" fill="#fafcfb"/><rect x="236" y="354" width="59" height="59" fill="#d4e3de"/><rect x="236" y="354" width="59" height="59" fill="#cafcea"/><rect x="295" y="354" width="59" height="59" fill="#88b3a4"/><polygon points="295,354 354,354 295,413" fill="#edf3f1"/><rect x="354" y="354" width="59" height="59" fill="#fdfffe"/><g transform="translate(354,354) scale(2.95) rotate(0)"><path fill-rule="evenodd" clip-rule="evenodd" d="M10 20C15.5228 20 20 15.5228 20 10C20 4.47715 15.5228 0 10 0C4.47715 0 0 4.47715 0 10C0 15.5228 4.47715 20 10 20ZM10 17C13.866 17 17 13.866 17 10C17 6.13401 13.866 3 10 3C6.13401 3 3 6.13401 3 10C3 13.866 6.13401 17 10 17Z" fill="#f7fefc"/></g><rect x="413" y="354" width="59" height="59" fill="#d0e1db"/><g transform="translate(413,354) scale(2.95) rotate(0)"><path fill-rule="evenodd" clip-rule="evenodd" d="M10 20C15.5228 20 20 15.5228 20 10C20 4.47715 15.5228 0 10 0C4.47715 0 0 4.47715 0 10C0 15.5228 4.47715 20 10 20ZM10 17C13.866 17 17 13.866 17 10C17 6.13401 13.866 3 10 3C6.13401 3 3 6.13401 3 10C3 13.866 6.13401 17 10 17Z" fill="#fafcfb"/></g><rect x="472" y="354" width="59" height="59" fill="#ebfef7"/><polygon points="531,354 531,413 472,413" fill="#eefef8"/><rect x="531" y="354" width="59" height="59" fill="#609a85"/><rect x="531" y="354" width="59" height="59" fill="#dbfdf1"/><rect x="590" y="354" width="59" height="59" fill="#f2fefa"/><g transform="translate(590,354) scale(2.95) rotate(0)"><path fill-rule="evenodd" clip-rule="evenodd" d="M10 20C15.5228 20 20 15.5228 20 10C20 4.47715 15.5228 0 10 0C4.47715 0 0 4.47715 0 10C0 15.5228 4.47715 20 10 20ZM10 17C13.866 17 17 13.866 17 10C17 6.13401 13.866 3 10 3C6.13401 3 3 6.13401 3 10C3 13.866 6.13401 17 10 17Z" fill="#bed6cd"/></g></g></svg>