<?xml version="1.0" encoding="UTF-8"?>
<svg id="Capa_1" data-name="Capa 1" xmlns="http://www.w3.org/2000/svg" viewBox="0 0 386.68 444.96">
  <defs>
    <style>
      .cls-1 {
        fill: #d3c0df;
      }

      .cls-2 {
        fill: #fff;
      }

      .cls-3 {
        fill: #1c2545;
      }

      .cls-4 {
        fill: #009579;
      }

      .cls-5 {
        fill: #83cfeb;
      }
    </style>
  </defs>
  <path class="cls-4" d="M314.34,362.04c-.16-.67-.36-1.32-.55-1.98-5.58-19.4-12.3-38.42-18.84-57.5-4.21-12.27-8.49-24.51-12.74-36.77-.8-.88-1.81-.6-2.8-.53-3.06,.2-6.11,.46-9.16,.69-6.8,.51-13.59,1.02-20.39,1.56-6.95,.55-13.89,1.09-20.84,1.62-7.02,.54-14.05,1-21.07,1.56-9.01,.72-18.01,1.43-27.02,2.1-9.01,.67-18,1.59-27.04,1.94-.76,.03-1.55,.1-1.99,.9,.19,2.51,.35,4.9-.79,7.38-11.48,24.98-22.85,50.01-34.24,75.03-1.15,2.53-2.27,5.07-3.6,8.04,8.46,0,16.43-.02,24.39,0,19.99,.05,39.98,.11,59.97,.16l14.81-30.78,18.06,30.86c8.62,.02,17.24,.03,25.86,.04,18.25,.02,36.5-.17,54.75-.28,4.02-.02,4.16-.22,3.22-4.04Z"/>
  <path class="cls-1" d="M349.05,191.6c10.49,10.76,20.04,22.22,25.34,36.54,4.17,11.27,4.45,22.51-1.95,33.17-5.55,9.23-14.13,14.24-24.46,16.36-11.47,2.35-22.66,.36-33.76-2.61-9.85-2.64-19.28-6.45-28.72-10.24-1.83-.01-3.37-.97-4.95-1.68-14.43-6.42-28.39-13.78-42.29-21.25-11.54-6.2-22.87-12.77-34.45-18.9-.68-.36-1.33-.76-1.99-1.15-4.48-2.7-7.88-2.38-11.86,1.11-.58,.51-1.08,1.09-1.68,1.56-2.03,1.58-4.19,1.53-5.8-.11-1.42-1.45-1.45-3.79,.02-5.67,1.69-2.16,3.97-3.57,6.31-4.91,.63-.36,1.95-.46,1.09-1.7-.69-1-1.22-2.53-3-1.53-2.18,1.23-3.78,3.07-5.38,4.95-2.27,2.68-5.38,2.3-6.93-.71-.78-1.51-.29-2.82,.48-4.12,1.95-3.25,4.8-5.53,8.04-7.38,.88-.5,1.78-.95,1.9-2.12,.05-.46,.15-.97-.23-1.3-.42-.36-.88-.07-1.28,.14-1.75,.96-3.43,2.02-4.9,3.39-.5,.47-.97,.98-1.49,1.44-2.12,1.87-4.26,1.98-5.93,.32-1.67-1.66-1.7-4.23,.15-6.19,3.2-3.39,7.14-5.75,11.29-7.79,.62-.3,1.28-.52,1.89-.83q3.55-1.61,5.1-4.29c-2.8,.31-5.01,1.39-7.27,2.33-2,.97-3.89,2.12-5.66,3.48-2.17,1.66-4.63,1.51-6.18-.27-1.59-1.82-1.3-4.11,.86-6.05,1.6-1.44,3.45-2.53,5.36-3.52,2.27-1.11,4.54-2.19,6.92-3.05,9.32-3.12,18.79-2.77,28.64-1.08-1.82-2.02-3.8-3.32-5.61-4.83-1.66-1.39-2.86-3.03-2.58-5.34,.51-4.17,5.09-6.1,8.52-3.43,5.88,4.57,11.55,9.42,15.6,15.79,1.47,2.3,3.43,3.82,5.76,5.09,12.87,6.97,25.57,14.26,38.55,21.03,6.25,3.26,12.51,6.52,18.97,9.37,2.92,1.49,5.89,2.87,8.94,4.06,3.88,1.81,7.73,3.65,11.8,5.01,1.58,.74,3.25,1.27,5.03,1.87-.63-1.42-2.25-2.06-2.53-3.6,.06-.93,.7-1.53,1.32-2.08,6.38-5.62,12.51-11.5,18.84-17.17,4.05-3.62,7.92-7.45,12.06-10.98,.61-.52,1.08-1.36,2.1-1.13Z"/>
  <path class="cls-3" d="M176.85,182.58c-1.9,1.13-3.86,2.18-5.46,3.73-1.71,1.65-1.84,3.53-.46,5.07,1.31,1.45,3.49,1.61,5.16,.26,1.91-1.54,3.89-2.92,6.24-3.68,1.29,.48,2.34,1.18,2.42,2.74-3.64,1.93-7.37,3.71-10.54,6.41-.99,.84-2.01,1.68-2.85,2.65-1.39,1.61-1.23,3.87,.23,5.17,1.51,1.35,3.3,1.33,4.92-.3,1.96-1.98,4.05-3.76,6.55-4.96,.73-.35,1.86-1.84,2.38-.48,.44,1.14,1.05,3.08-.93,4.02-1.67,.79-3.14,1.88-4.64,2.96-1.79,1.28-3.1,2.96-4.3,4.73-1.45,2.14-1.06,4.03,.9,5.35,1.66,1.11,3.51,.65,4.92-1.37,1.43-2.05,3.24-3.63,5.37-4.91,1.15-.69,2-.87,2.76,.54,.49,.92,1.25,1.71,1.97,2.67-3,1.36-5.8,2.88-8.04,5.25-1.89,2.01-2.12,4.17-.55,5.67,1.69,1.62,3.61,1.48,5.59-.62,1.41-1.49,3.1-2.48,4.92-3.3,2.57-1.16,4.86-1.17,7.55,.4,9.71,5.66,19.59,11.04,29.44,16.45,12.21,6.71,24.53,13.21,37.03,19.38,5.96,2.94,12.04,5.62,18.07,8.41-1.01,.61-2.13,.87-3.29,.98-9.01,.7-18.02,1.4-27.03,2.09-6.72,.52-13.44,1.02-20.16,1.54-9.47,.73-18.93,1.47-28.4,2.2-8.4,.65-16.79,1.29-25.19,1.94-7.71,.59-15.42,1.19-23.14,1.76-2.13,.16-4.26,.22-6.39,.32-3.32-1.2-6.6-2.43-8.97-5.28-2.01-2.42-3.25-5.04-3.36-8.31-.38-10.94-.93-21.87-1.42-32.81-.02-.53,.03-1.08-.57-1.69-1.32,1.19-2.68,2.37-3.99,3.6-3.52,3.31-7.07,6.57-10.49,9.98-1.34,1.33-2.23,1.21-3.31-.18-.65-.84-1.28-1.72-2.24-2.27-2.47-1.48-4.34-3.66-6.14-5.8-3.16-3.77-6.76-7.09-10.06-10.72-4.79-5.26-9.81-10.33-14.57-15.61-.46-.51-1-.96-1.14-1.69-.91-1.03-1.73-2.15-2.75-3.06-1.16-1.04-1.25-1.72-.02-2.86,8.3-7.68,16.53-15.42,24.77-23.16,1.16-1.09,2.26-2.26,3.39-3.39,.75-.78,1.6-.32,2.36-.12,15.33,3.96,29.42,1.55,42.1-8.12,1.48-1.13,2.72-1.06,4.03,.27,5.46,5.48,10.94,10.93,16.39,16.42,.48,.49,.98,.99,.94,1.76Z"/>
  <path class="cls-3" d="M312.29,225.21c-4.12-1.25-8.05-2.96-11.83-5.03-3-1.81-5.35-4.42-8.09-6.62-.62,.8-.02,1.9-.8,2.55-1.12-.03-2.03-.66-2.99-1.12-17.84-8.67-35.05-18.52-52.52-27.87-4.86-2.6-8.05-6.28-11.16-10.42-3.57-4.75-8.25-8.39-12.83-12.08-2.16-1.74-4.61-1.31-6.35,.69-1.74,2.01-1.63,4.58,.48,6.55,1.84,1.72,3.84,3.26,5.78,4.88,.58,.48,1.17,.94,1.76,1.4-.12,.21-.24,.41-.36,.62-2.49-.4-4.97-.95-7.48-1.17-7.42-.63-14.81-.67-21.94,2.02-.98-.31-1.72-.95-2.43-1.66-5.83-5.85-11.69-11.68-17.52-17.54-1.93-1.93-1.96-2.27-.32-4.44,4.16-5.51,7.16-11.55,8.65-18.32,.15-.66,.28-1.37,.98-1.73,.6-.04,1.2-.09,1.8-.13,.61,.06,1.22,.16,1.76,.48,8.01,4.85,16.57,4.84,25.36,2.91,8.74-1.93,16.69-5.56,23.76-11.07,.91-.71,1.88-1.32,2.9-1.84,6.58-1.37,13.18-2.86,19.9-3.13,9.07-.36,17.49,2.16,25.41,6.59,25.18,14.1,48.35,30.92,69.18,50.92,2.21,2.12,4.24,4.43,6.45,6.55,1.34,1.29,1.81,2.36-.05,3.53-.3,.19-.49,.57-.73,.86-5.21,4.7-10.43,9.37-15.62,14.09-5.36,4.87-10.7,9.77-16.03,14.68-.89,.82-1.69,1.75-2.53,2.63-.41,1.25-1.52,1.69-2.57,2.2Z"/>
  <path class="cls-1" d="M85.63,204.85c4.48,4.7,8.97,9.37,13.43,14.09,6.18,6.56,12.32,13.15,18.48,19.73-19.42,21.25-34.45,45.14-43.47,72.61-4.14,12.62-6.77,25.54-7.81,38.81-.22,2.79,.24,4.97,1.73,7.28,4.08,6.33,6.03,13.52,7.89,20.72,.56,2.19-.83,4.64-2.91,5.36-2.56,.89-5.13-.09-6.08-2.63-.93-2.5-1.53-5.12-2.28-7.69-.25-.86-.32-1.78-1.15-2.72-.88,4.67-2.08,9.04-3.91,13.21-4.01,9.16-9.96,16.67-18.72,21.74-.4,.23-.8,.46-1.21,.66-2.16,1.01-4.2,.47-5.15-1.35-.95-1.82-.27-3.93,1.83-5,3.68-1.89,6.73-4.53,9.48-7.55,1.03-1.13,1.94-2.36,3.23-3.95-3.26,.97-6,1.34-8.29,3.71-3.29,3.42-7.22,6.18-11.69,7.99-.78,.31-1.58,.64-2.39,.77-2.24,.35-3.91-.61-4.36-2.4-.49-1.95,.49-3.77,2.61-4.48,2.81-.94,5.24-2.5,7.6-4.22,.42-.31,.78-.71,1.18-1.08-3.03-2.18-3.02-2.17-5.76-.15-2.69,1.99-5.71,3.27-8.98,3.92-2.46,.49-4.41-.58-4.92-2.64-.49-1.96,.86-3.88,3.33-4.39,2.37-.49,4.48-1.44,6.49-2.78,1.27-.85,1.64-1.61,.69-2.92-.57-.79-.94-1.72-1.48-2.72-1.99,1.79-3.98,3.33-6.27,4.4-.9,.42-1.83,.82-2.8,1.01-2.18,.45-4.12-.63-4.59-2.41-.49-1.86,.54-3.72,2.68-4.45,3.09-1.06,5.47-2.99,7.42-5.56,.8-1.05,1.05-2.15,.86-3.44-1.22-8.08-.99-16.13-.12-24.26,1.29-12.05,3.4-23.93,6.64-35.59,7.26-26.17,19.06-50.2,34.64-72.4,7.27-10.37,15.24-20.17,24.12-29.22Z"/>
  <path class="cls-1" d="M228.9,126.27c-2.42,2.72-5.45,4.64-8.54,6.44-8.72,5.08-18.06,8.13-28.24,8.26-6.21,.08-11.93-1.51-17-5.19,2.67-.55,5.33-1.2,8.03-1.6,1.29-.19,1.65-.61,1.52-1.87-.49-4.79-.92-9.58-1.3-14.38-.07-.93-.54-1.33-1.27-1.69-11.26-5.55-16.06-14.76-15.21-27.09,.08-1.23-.21-2.12-.94-3.13-2.65-3.67-3.85-7.75-3.05-12.32,.43-2.46,2.04-4,3.9-5.39,1.27-.48,2.48-.36,3.64,.33,.81-2.82,1.31-5.76,1.84-8.7,.47-2.64,1.05-3.02,3.55-2.3,7.29,2.1,14.6,2.5,21.95,.33,.71-.21,1.67-.58,2.06,.28,.37,.81-.49,1.35-1.08,1.8-1.34,1.01-2.74,1.94-4.36,3.25,5.04,.3,9.7,.68,13.77-2.55,1.74-1.38,2.14-1.2,2.52,1.1,.47,2.82,1.91,4.93,4.29,6.49,1.65,1.08,3.52,1.9,4.71,3.6,.65,.92,1.47,.42,2.28,.23,1.66-.39,3.3-1.44,5.04-.24,3.8,2.07,4.67,5.3,3.8,9.31-.96,4.43-2.87,8.21-6.98,10.53-.47,.27-1.09,.5-1.14,1.05-.28,3.46-2.17,6.49-2.59,9.91-4.89,9.28-13.44,14.45-22.11,16.05,.91,.01,1.64,.45,2.41,.73,5.07,1.86,10.27,3,15.71,2.93,1.64-.02,3.38-.46,4.94,.51,.02,.07,.04,.15,.07,.22,.59,1.24-.24,3.22,.87,3.8,1.34,.7,3.06-.33,4.64-.5,.75-.08,1.5-.14,2.26-.21Z"/>
  <path class="cls-5" d="M173.32,135.92c-1.44,7.58-4.48,14.45-9.29,20.5-1.02,1.28-1.15,2.04,.16,3.31,6.1,5.93,12.07,11.99,18.08,18.01,.59,.59,1.12,1.25,1.68,1.87-2.37,.99-4.74,1.98-7.11,2.96-5.92-5.88-11.88-11.73-17.74-17.68-1.22-1.24-1.97-1.3-3.35-.22-8.45,6.61-18.05,9.87-28.81,10.05-5.48,.09-10.7-1-15.93-2.35-4.13-1.76-8.19-3.6-11.88-6.27-7.36-5.33-12.86-12.06-16.45-20.38-2.11-4.89-3.27-10.01-3.5-15.33-.15-2.16-.17-4.31,0-6.47,.43-9.64,3.89-18.21,9.63-25.81,5.98-7.93,13.91-13.24,23.4-16.21,23.68-7.39,50.11,4.67,59.03,29.12,1.51,4.13,2.33,8.43,2.63,12.92,.26,4.07-.23,7.99-.55,11.97Z"/>
  <path class="cls-3" d="M227.02,71.93c-2.13,.15-4.29,.24-6.18,1.4-.71,.43-1.13,.34-1.38-.4-.57-1.7-2.01-2.39-3.43-3.17-3.65-2-6.06-4.87-6.07-9.55-4.93,4.66-10.69,4.19-17.12,3.48,2.64-1.97,4.81-3.6,6.99-5.23-4.45,1.12-8.85,1.69-13.36,1.58-3.94-.09-7.75-.85-11.46-2.06-1.28-.42-1.75-.29-1.94,1.1-.32,2.34-.87,4.65-1.22,6.99-.31,2.09-1.13,3.33-3.49,2.62-.51-.15-1.03-.25-1.54-.37-1.89-4.32-1.94-8.78-.74-13.25,.36-1.34,.27-2.29-.6-3.35-.61-.75-1.06-1.7-1.36-2.63-1.02-3.11-.7-4.04,1.88-6.14,7.97-6.49,17.24-8.1,27.17-7.17,5.71,.53,11.38,1.65,15.84,5.39,3.33,2.79,6.89,4.88,10.71,6.88,7.25,3.8,10.3,12.48,8.07,21.25-.23,.89-.49,1.77-.74,2.65Z"/>
  <path class="cls-3" d="M221.07,122.96c-9.79,.49-18.82-1.16-23.78-4.37,.78-.96,1.97-.68,2.93-.93,7.91-2.1,14.03-6.57,18.37-13.5,.37-.59,.46-1.56,1.53-1.42,.14,6.75,1.29,13.45,.94,20.22Z"/>
  <path class="cls-5" d="M184.75,190.69c-.81-.91-1.61-1.82-2.42-2.74,1.97-1.17,4.13-1.83,6.34-2.37,.61-.15,1.18-.32,1.62,.33,.47,.7-.31,.89-.52,1.3-1.06,2.04-2.87,3.01-5.02,3.48Z"/>
  <path class="cls-2" d="M135.34,197.54c0-1.07,0-2.14,0-3.22,0-.78,.01-1.66,1.05-1.73,1.11-.07,1.36,.75,1.42,1.68,.27,4.13,.51,8.25,.83,12.37,.33,4.2,.69,8.39,1.14,12.57,.11,1.05,.13,1.99-1.01,2.13-1.16,.14-1.39-.85-1.51-1.85-.92-7.3-1.4-14.63-1.92-21.96Z"/>
  <path class="cls-2" d="M289.54,210.04c-.21,.78-.51,1.74-1.48,1.22-2.78-1.48-5.07-3.65-7.35-5.8-.41-.39-.37-1.02-.01-1.48,.37-.48,1-.6,1.44-.26,2.41,1.86,4.78,3.78,7.14,5.7,.15,.12,.17,.41,.26,.62Z"/>
  <path class="cls-3" d="M180.99,81.68c-.31,1.2-.82,2.22-2.23,2.19-1.39-.03-2.07-1.03-2.08-2.26,0-1.28,.83-2.2,2.15-2.2,1.38,0,1.87,1.08,2.16,2.27Z"/>
  <path class="cls-3" d="M203.33,79.71c1.46,0,2.1,.87,2.06,2.17-.04,1.33-.82,2.09-2.23,2.04-1.32-.05-1.91-.82-1.92-2.07,0-1.37,.67-2.13,2.08-2.14Z"/>
  <path class="cls-3" d="M202.17,71.99c-1.03-.34-2.75,.68-2.76-1.4,0-1.41,1.28-1.47,2.18-1.28,1.19,.25,3.2-.43,3.32,1.45,.12,2.03-1.78,.87-2.73,1.23Z"/>
  <path class="cls-3" d="M179.12,71.6c-.27,.01-.6-.04-.87,.05-1.24,.42-2.52,.31-2.61-1.13-.09-1.42,1.36-1.31,2.41-1.36,.38-.02,.76,0,1.14,0,1.06-.02,2.18,.19,2.09,1.45-.08,1.13-1.12,1.26-2.15,.99Z"/>
  <path class="cls-2" d="M117.85,166.31c-5.6-.79-10.48-3.33-14.97-6.58-13.09-9.47-19.24-26.18-15.45-41.65,3.99-16.28,16.66-28.02,32.98-30.57,24.42-3.82,46.35,14.95,46.36,39.66,0,3.54-.23,7.03-1.43,10.4-.36,.95-1.26,.71-1.96,.87-3.97,.88-8,1.42-11.99,2.2-3.88,.76-7.08,2.64-10.08,5.18-6.97,5.89-13.61,12.12-20.25,18.37-.92,.87-1.86,1.86-3.21,2.13Z"/>
  <path class="cls-3" d="M117.85,166.31c6.65-6.1,13.23-12.28,19.97-18.27,3.8-3.38,7.53-6.98,12.88-7.9,4.88-.84,9.76-1.72,14.64-2.58-3.29,14.36-17,27.05-31.48,29.16-.98,.14-1.96,.31-2.94,.47-2.79,.41-5.59,.39-8.38,0-1.58-.21-3.17-.32-4.68-.89Z"/>
  <path class="cls-5" d="M122.53,167.2c2.79,0,5.59,0,8.38,0-2.79,.83-5.59,.82-8.38,0Z"/>
  <path class="cls-3" d="M197.57,98.31c-2.23,1.67-4.44,2.4-6.84,2.57-.8,.06-1.67,.09-1.73-1.05-.06-1.11,.72-1.2,1.56-1.28,2.33-.22,4.49-.92,6.26-2.51,.76-.68,1.56-1.22,2.32-.21,.77,1.02-.3,1.47-.91,2-.29,.26-.64,.46-.66,.48Z"/>
</svg>