<?xml version="1.0" encoding="UTF-8"?>
<svg id="Capa_1" data-name="Capa 1" xmlns="http://www.w3.org/2000/svg" viewBox="0 0 672.73 557.61">
  <defs>
    <style>
      .cls-1 {
        fill: #94c3dc;
      }

      .cls-2 {
        fill: none;
        stroke-width: 3.34px;
      }

      .cls-2, .cls-3, .cls-4, .cls-5, .cls-6, .cls-7, .cls-8, .cls-9, .cls-10, .cls-11, .cls-12, .cls-13, .cls-14 {
        stroke-miterlimit: 10;
      }

      .cls-2, .cls-7, .cls-8 {
        stroke: #eeeae4;
      }

      .cls-15 {
        fill: #252f55;
      }

      .cls-3 {
        fill: #fff;
      }

      .cls-3, .cls-4, .cls-5, .cls-6, .cls-9, .cls-10, .cls-11, .cls-12, .cls-13, .cls-14 {
        stroke: #1d2441;
      }

      .cls-16 {
        fill: #d1bedc;
      }

      .cls-17, .cls-13 {
        fill: #455a64;
      }

      .cls-4 {
        fill: #fbfbfb;
      }

      .cls-5 {
        stroke-width: .21px;
      }

      .cls-5, .cls-6, .cls-9 {
        fill: #1d2441;
      }

      .cls-18 {
        fill: #039478;
      }

      .cls-19 {
        fill: #34b296;
      }

      .cls-20 {
        fill: #1d2440;
      }

      .cls-6 {
        stroke-width: .85px;
      }

      .cls-7 {
        stroke-width: 2.72px;
      }

      .cls-7, .cls-21 {
        fill: #181b33;
      }

      .cls-22 {
        fill: #55907a;
      }

      .cls-23 {
        opacity: .3;
      }

      .cls-8 {
        fill: #6a81b0;
        stroke-width: 3.38px;
      }

      .cls-24, .cls-12 {
        fill: #192e35;
      }

      .cls-25 {
        fill: #0f6753;
      }

      .cls-26 {
        fill: #1b2545;
      }

      .cls-27 {
        fill: #d2bfdd;
      }

      .cls-28 {
        fill: #5f8486;
      }

      .cls-10 {
        fill: #e1e0e0;
      }

      .cls-29 {
        fill: #cfccd1;
      }

      .cls-11 {
        fill: #ebebeb;
      }

      .cls-30 {
        fill: #70b39b;
      }
    </style>
  </defs>
  <g>
    <polygon class="cls-1" points="389.36 107.53 390.22 95.12 397.9 89.52 405.16 96.24 404.22 108.98 389.36 107.53"/>
    <polygon class="cls-30" points="408.76 107.3 410.72 95.38 419.09 90.66 425.96 97.81 423.89 110.03 408.76 107.3"/>
    <g>
      <polygon class="cls-10" points="447.45 119.89 437.3 336.17 273.49 331.66 263.74 315.14 281.36 114.13 433.81 104.34 447.45 119.89"/>
      <g class="cls-23">
        <polygon class="cls-14" points="437.3 336.17 423.65 320.63 433.81 104.34 447.45 119.89 437.3 336.17"/>
      </g>
      <g>
        <polygon class="cls-4" points="433.81 104.34 423.65 320.63 263.74 315.14 275.84 102.15 433.81 104.34"/>
        <path class="cls-12" d="M433.81,104.34c-1.57-.02-62.09-.79-157.97-2l.19-.17c-3.37,59.52-7.54,133.25-12.05,212.99l-.23-.24c.83,.03,1.74,.06,2.64,.09,56.26,1.94,109.67,3.78,157.27,5.41l-.22,.2c6.13-127.73,10.28-214.43,10.37-216.28-.08,1.84-4.07,88.56-9.94,216.3v.21s-.22,0-.22,0c-47.59-1.63-101-3.45-157.27-5.37-.9-.03-1.81-.06-2.64-.09h-.24s.01-.24,.01-.24c4.55-79.74,8.75-153.47,12.14-212.99v-.18s.19,0,.19,0c95.88,1.44,156.4,2.35,157.96,2.37Z"/>
      </g>
      <path class="cls-10" d="M292.61,154.26l59.12,1.68c.27,0,.49-.2,.5-.46l.16-5.21c0-.26-.2-.48-.47-.48l-59.12-1.68c-.27,0-.49,.2-.5,.46l-.16,5.21c0,.26,.2,.48,.47,.48Z"/>
      <path class="cls-10" d="M292.07,166.15l59.12,1.68c.27,0,.49-.2,.5-.46l.16-5.21c0-.26-.2-.48-.47-.48l-59.12-1.68c-.27,0-.49,.2-.5,.46l-.16,5.21c0,.26,.2,.48,.47,.48Z"/>
      <path class="cls-10" d="M291.53,178.04l59.12,1.68c.27,0,.49-.2,.5-.46l.16-5.21c0-.26-.2-.48-.47-.48l-59.12-1.68c-.27,0-.49,.2-.5,.46l-.16,5.21c0,.26,.2,.48,.47,.48Z"/>
      <path class="cls-10" d="M290.99,189.93l59.12,1.68c.27,0,.49-.2,.5-.46l.16-5.21c0-.26-.2-.48-.47-.48l-59.12-1.68c-.27,0-.49,.2-.5,.46l-.16,5.21c0,.26,.2,.48,.47,.48Z"/>
      <path class="cls-10" d="M290.45,201.82l59.12,1.68c.27,0,.49-.2,.5-.46l.16-5.21c0-.26-.2-.48-.47-.48l-59.12-1.68c-.27,0-.49,.2-.5,.46l-.16,5.21c0,.26,.2,.48,.47,.48Z"/>
      <path class="cls-10" d="M289.91,213.71l59.12,1.68c.27,0,.49-.2,.5-.46l.16-5.21c0-.26-.2-.48-.47-.48l-59.12-1.68c-.27,0-.49,.2-.5,.46l-.16,5.21c0,.26,.2,.48,.47,.48Z"/>
      <path class="cls-10" d="M289.38,225.6l59.12,1.68c.27,0,.49-.2,.5-.46l.16-5.21c0-.26-.2-.48-.47-.48l-59.12-1.68c-.27,0-.49,.2-.5,.46l-.16,5.21c0,.26,.2,.48,.47,.48Z"/>
      <path class="cls-10" d="M356.15,215.49l59.12,1.68c.27,0,.49-.2,.5-.46l.16-5.21c0-.26-.2-.48-.47-.48l-59.12-1.68c-.27,0-.49,.2-.5,.46l-.16,5.21c0,.26,.2,.48,.47,.48Z"/>
      <path class="cls-10" d="M355.61,227.37l59.12,1.68c.27,0,.49-.2,.5-.46l.16-5.21c0-.26-.2-.48-.47-.48l-59.12-1.68c-.27,0-.49,.2-.5,.46l-.16,5.21c0,.26,.2,.48,.47,.48Z"/>
      <path class="cls-10" d="M354.96,239.91l59.12,1.68c.27,0,.49-.2,.5-.46l.16-5.21c0-.26-.2-.48-.47-.48l-59.12-1.68c-.27,0-.49,.2-.5,.46l-.16,5.21c0,.26,.2,.48,.47,.48Z"/>
      <path class="cls-10" d="M354.31,252.45l59.12,1.68c.27,0,.49-.2,.5-.46l.16-5.21c0-.26-.2-.48-.47-.48l-59.12-1.68c-.27,0-.49,.2-.5,.46l-.16,5.21c0,.26,.2,.48,.47,.48Z"/>
      <path class="cls-10" d="M353.66,264.99l59.12,1.68c.27,0,.49-.2,.5-.46l.16-5.21c0-.26-.2-.48-.47-.48l-59.12-1.68c-.27,0-.49,.2-.5,.46l-.16,5.21c0,.26,.2,.48,.47,.48Z"/>
      <path class="cls-10" d="M353.01,277.53l59.12,1.68c.27,0,.49-.2,.5-.46l.16-5.21c0-.26-.2-.48-.47-.48l-59.12-1.68c-.27,0-.49,.2-.5,.46l-.16,5.21c0,.26,.2,.48,.47,.48Z"/>
      <path class="cls-10" d="M352.36,290.06l59.12,1.68c.27,0,.49-.2,.5-.46l.16-5.21c0-.26-.2-.48-.47-.48l-59.12-1.68c-.27,0-.49,.2-.5,.46l-.16,5.21c0,.26,.2,.48,.47,.48Z"/>
      <path class="cls-10" d="M285.53,299.46l123.24,3.51c1.17,.03,2.15-.86,2.18-2l.06-2.03c.03-1.14-.89-2.09-2.06-2.12l-123.24-3.51c-1.17-.03-2.15,.86-2.18,2l-.06,2.03c-.03,1.14,.89,2.09,2.06,2.12Z"/>
      <path class="cls-10" d="M293.57,138.78l40.93,1.16c.27,0,.49-.2,.5-.46l.16-5.21c0-.26-.2-.48-.47-.48l-40.93-1.16c-.27,0-.49,.2-.5,.46l-.16,5.21c0,.26,.2,.48,.47,.48Z"/>
      <path class="cls-12" d="M272.58,320.02s.26,.02,.78,.05c.53,.02,1.29,.05,2.29,.09,2.03,.07,5,.18,8.85,.32,7.71,.26,18.9,.65,32.84,1.12,27.9,.91,66.82,2.19,110.93,3.63h.24s.01-.22,.01-.22c.42-8.55,.86-17.52,1.3-26.65,2.37-49.05,4.51-93.46,6.06-125.61,.75-16.07,1.36-29.07,1.78-38.07,.2-4.49,.35-7.97,.46-10.35,.05-1.18,.08-2.07,.11-2.69,.02-.61,.02-.92,.02-.92,0,0-.03,.31-.07,.92-.04,.62-.09,1.52-.16,2.69-.13,2.38-.31,5.86-.55,10.35-.46,9-1.12,22-1.94,38.06-1.59,32.15-3.78,76.55-6.21,125.6-.44,9.13-.88,18.1-1.3,26.65l.25-.22c-44.11-1.38-83.03-2.6-110.94-3.48-13.94-.42-25.13-.75-32.84-.98-3.84-.11-6.82-.19-8.85-.24-1-.02-1.77-.04-2.29-.05-.52,0-.78,0-.78,0Z"/>
      <path class="cls-12" d="M285.57,326.5s.25,.02,.73,.05c.5,.02,1.22,.05,2.16,.1,1.92,.08,4.73,.19,8.36,.33,7.29,.27,17.87,.66,31.07,1.15,26.43,.94,63.36,2.25,105.41,3.75h.24s.01-.22,.01-.22c.56-10.32,1.15-21.05,1.74-32.02,2.6-48.4,4.95-92.21,6.66-123.94,.83-15.85,1.5-28.68,1.96-37.56,.22-4.43,.39-7.87,.51-10.21,.05-1.16,.09-2.05,.12-2.66,.02-.6,.02-.91,.02-.91,0,0-.03,.31-.07,.9-.04,.61-.09,1.5-.17,2.65-.14,2.35-.34,5.78-.6,10.21-.5,8.88-1.22,21.7-2.12,37.55-1.74,31.72-4.14,75.53-6.8,123.93-.59,10.97-1.18,21.7-1.73,32.02l.25-.22c-42.05-1.43-78.98-2.69-105.42-3.59-13.21-.43-23.79-.77-31.08-1.01-3.63-.11-6.44-.19-8.36-.25-.94-.02-1.67-.04-2.16-.05-.49,0-.74,0-.74,0Z"/>
      <g>
        <polygon class="cls-12" points="338.52 101.58 340.94 99.29 369.73 99.42 371.13 101.98 338.52 101.58"/>
        <rect class="cls-12" x="348.08" y="92.13" width="13.31" height="32.61" transform="translate(467.77 -244.87) rotate(90.74)"/>
        <rect class="cls-12" x="353.29" y="97.85" width="2.66" height="34.87" rx="1.25" ry="1.25" transform="translate(474.51 -237.8) rotate(90.75)"/>
        <path class="cls-13" d="M361.88,111.93h-.02l-14.34-.18c-.41,0-.8-.2-1.03-.53-.23-.33-.29-.75-.14-1.12l4.22-11.02c-1.87-1.35-2.99-3.46-3.02-5.72-.06-3.96,3.21-7.27,7.29-7.37,2.04-.06,4,.69,5.46,2.09,1.46,1.4,2.25,3.27,2.23,5.26-.03,2.36-1.23,4.53-3.22,5.88l3.77,11.1c.13,.38,.06,.79-.18,1.11-.24,.31-.62,.5-1.02,.5Zm-6.84-25.07c-.06,0-.12,0-.17,0-3.52,.09-6.46,3.05-6.41,6.48,.03,2.09,1.12,4.03,2.91,5.21l.3,.19-4.47,11.66c-.04,.11-.03,.22,.04,.32,.07,.1,.17,.15,.29,.15l14.34,.18c.13,0,.23-.05,.3-.14,.07-.09,.09-.21,.05-.32l-3.99-11.74,.3-.18c1.91-1.16,3.07-3.16,3.1-5.33,.02-1.75-.67-3.4-1.96-4.63-1.24-1.19-2.88-1.84-4.63-1.84Z"/>
        <path class="cls-13" d="M370.73,114.16s-.12-.01-.33-.02c-.24,0-.55-.01-.94-.02-.85-.02-2.02-.04-3.45-.07-2.94-.05-6.95-.11-11.37-.18-4.43-.05-8.44-.09-11.38-.12-1.43,0-2.6,0-3.45-.01-.38,0-.7,0-.94,.01-.21,0-.33,.01-.33,.02,0,0,.11,.02,.33,.03,.24,0,.55,.02,.94,.04,.85,.02,2.02,.05,3.45,.09,2.91,.07,6.93,.14,11.38,.2,4.44,.06,8.46,.1,11.38,.1,1.46,0,2.63,0,3.45-.01,.41,0,.72-.01,.94-.03,.22-.01,.33-.03,.33-.03Z"/>
        <path class="cls-13" d="M371.19,101.7s-.12-.01-.33-.02c-.24,0-.55-.01-.94-.02-.85-.02-2.02-.04-3.45-.07-2.94-.05-6.95-.11-11.37-.18-4.43-.05-8.44-.09-11.38-.12-1.43,0-2.6,0-3.45-.01-.38,0-.7,0-.94,.01-.21,0-.33,.01-.33,.02,0,0,.11,.02,.33,.03,.24,0,.55,.02,.94,.04,.85,.02,2.02,.05,3.45,.09,2.91,.07,6.93,.14,11.38,.2,4.44,.06,8.46,.1,11.38,.1,1.46,0,2.63,0,3.45-.01,.41,0,.72-.01,.94-.03,.22-.01,.33-.03,.33-.03Z"/>
      </g>
      <path class="cls-11" d="M341.36,285.03l-51.85-1.47c-1.02-.03-1.82-.85-1.79-1.84l1.37-45.45c.03-.99,.88-1.77,1.9-1.74l51.85,1.47c1.02,.03,1.82,.85,1.79,1.84l-1.37,45.45c-.03,.99-.88,1.77-1.9,1.74Z"/>
      <path class="cls-11" d="M413.12,202.01l-51.85-1.47c-1.02-.03-1.82-.85-1.79-1.84l1.37-45.45c.03-.99,.88-1.77,1.9-1.74l51.85,1.47c1.02,.03,1.82,.85,1.79,1.84l-1.37,45.45c-.03,.99-.88,1.77-1.9,1.74Z"/>
    </g>
    <path class="cls-12" d="M295.24,185.4s-.27-.01-.73-.2c-.45-.19-1.11-.59-1.66-1.36-.54-.75-1-1.89-.81-3.22,.08-.61,.28-1.25,.61-1.86,.37-.71,.91-1.39,1.59-1.98,1.27-1.13,3.03-1.89,4.95-2.36,1.93-.47,4.04-.76,6.27-.79,4.45-.06,9.42,.94,13.93,3.43,1.12,.64,2.16,1.41,2.95,2.4,.78,.99,1.29,2.18,1.33,3.42,.05,1.24-.49,2.43-1.32,3.28-.83,.86-1.89,1.4-2.94,1.79-2.13,.77-4.28,.89-6.25,.98-1.98,.07-3.83-.03-5.5-.23-3.35-.4-5.97-1.18-7.73-1.81-.88-.32-1.55-.59-2-.8-.45-.2-.68-.32-.67-.33,0-.01,.25,.07,.71,.25,.46,.18,1.14,.43,2.02,.71,1.77,.57,4.38,1.3,7.7,1.66,1.66,.18,3.49,.25,5.44,.17,1.95-.1,4.07-.24,6.11-.99,1.01-.38,2.01-.91,2.77-1.7,.76-.78,1.24-1.85,1.19-2.97-.03-1.11-.5-2.23-1.23-3.15-.74-.93-1.73-1.67-2.82-2.29-4.41-2.44-9.3-3.43-13.68-3.4-2.2,.01-4.28,.29-6.18,.73-1.89,.45-3.59,1.17-4.82,2.23-.36,.31-.69,.65-.96,1-.66,.84-1.07,1.76-1.19,2.64-.21,1.25,.21,2.35,.7,3.09,.51,.75,1.12,1.16,1.55,1.37,.44,.21,.7,.26,.69,.28Z"/>
    <path class="cls-12" d="M292.68,140.13s-.27-.01-.73-.2c-.45-.19-1.11-.59-1.66-1.36-.54-.75-1-1.89-.81-3.22,.17-1.32,.93-2.73,2.2-3.85,1.27-1.13,3.03-1.89,4.95-2.36,1.93-.47,4.04-.76,6.27-.79,4.45-.06,9.42,.94,13.93,3.43,1.12,.64,2.16,1.41,2.95,2.4,.78,.99,1.29,2.18,1.32,3.42,.05,1.24-.49,2.43-1.32,3.28-.83,.86-1.89,1.4-2.94,1.79-2.13,.77-4.28,.89-6.25,.98-1.98,.07-3.83-.03-5.5-.23-3.35-.4-5.97-1.18-7.73-1.81-.88-.32-1.55-.59-2-.8-.45-.2-.68-.32-.67-.33,0-.01,.25,.07,.71,.25,.46,.18,1.14,.43,2.02,.71,1.77,.57,4.38,1.3,7.7,1.66,1.66,.18,3.49,.25,5.44,.17,1.95-.1,4.07-.24,6.11-.99,1.01-.38,2.01-.91,2.77-1.7,.76-.78,1.24-1.85,1.19-2.97-.03-1.12-.5-2.23-1.23-3.15-.74-.93-1.73-1.67-2.82-2.29-4.41-2.44-9.3-3.43-13.68-3.4-2.2,.01-4.28,.29-6.18,.73-1.89,.45-3.59,1.17-4.82,2.23-1.23,1.05-1.97,2.39-2.16,3.64-.21,1.25,.21,2.35,.7,3.09,.51,.75,1.12,1.16,1.55,1.37,.44,.21,.7,.26,.69,.28Z"/>
  </g>
  <g>
    <g>
      <path class="cls-3" d="M184.22,161.13l-1.75-6.3c2.24-3.58,3.4-7.86,3.06-12.42-.78-10.28-9.38-18.63-19.98-19.35-13.32-.91-24.26,9.86-23.12,22.77,.91,10.35,9.76,18.6,20.45,19.11,5.47,.26,10.51-1.46,14.45-4.46h0s6.9,.67,6.9,.67Z"/>
      <path class="cls-12" d="M184.22,161.13s-.16-.03-.47-.06c-.32-.04-.76-.09-1.33-.15-1.18-.13-2.89-.31-5.1-.55l.07,.16h0c.03-.05,.02-.11-.02-.15-.04-.03-.09-.02-.12,0-2.18,1.63-5.41,3.42-9.65,4.11-2.1,.36-4.44,.38-6.86,.02-2.42-.36-4.94-1.15-7.32-2.46-2.38-1.31-4.61-3.14-6.42-5.43-1.81-2.29-3.2-5.05-3.91-8.07-1.44-6.01,.09-13.14,4.79-18.24l.88-.95,.96-.86c.61-.6,1.36-1.05,2.03-1.58,1.44-.92,2.94-1.75,4.53-2.31,3.16-1.18,6.52-1.59,9.71-1.31,3.19,.3,6.2,1.3,8.78,2.77,2.58,1.47,4.74,3.4,6.38,5.54,3.29,4.3,4.46,9.26,4.24,13.39-.19,4.17-1.62,7.5-3.02,9.78,0,.03,0,.05,0,.08,.59,2.01,1.04,3.56,1.35,4.64,.15,.52,.27,.92,.36,1.21,.08,.27,.13,.42,.13,.42,0,0-.02-.13-.09-.39-.08-.29-.18-.69-.31-1.2-.29-1.1-.71-2.68-1.25-4.74v.07c1.44-2.28,2.92-5.64,3.15-9.86,.26-4.18-.9-9.24-4.23-13.63-1.66-2.18-3.85-4.16-6.48-5.67-2.62-1.51-5.7-2.53-8.96-2.85-3.26-.29-6.69,.13-9.92,1.33-1.63,.57-3.16,1.42-4.63,2.36-.69,.54-1.45,.99-2.08,1.61l-.99,.88-.9,.97c-4.8,5.21-6.36,12.5-4.87,18.63,.73,3.08,2.15,5.89,4.01,8.22,1.86,2.34,4.14,4.19,6.57,5.52,2.43,1.33,4.99,2.12,7.46,2.47,2.47,.35,4.84,.31,6.97-.07,4.29-.73,7.54-2.57,9.72-4.25l-.14-.14h0c-.03,.05-.03,.11,.02,.15,.02,.01,.03,.02,.05,.02,2.25,.19,3.98,.33,5.18,.43,.56,.04,.99,.08,1.31,.1,.29,.02,.43,.03,.43,.02Z"/>
    </g>
    <polygon class="cls-9" points="163.55 154.11 152.18 146.73 154.83 142.88 162.46 147.83 171.94 135.65 175.75 138.44 163.55 154.11"/>
  </g>
  <g>
    <g>
      <path class="cls-21" d="M508.33,429.25l-.93,9.87-1.23,11.41v.31h-4.63l.31-5.86-5.86,5.55-.31,.31h-22.82s-.31-8.94,5.24-12.03c0,0,8.33-2.47,9.25-5.86,0,0,2.47-3.39,2.47-7.09l18.5,3.39Z"/>
      <line class="cls-7" x1="490.61" y1="438.04" x2="488.14" y2="435.58"/>
    </g>
    <g>
      <path class="cls-21" d="M554.42,444.06l-.62,.93c-1.85,3.08,0,5.86,0,5.86h22.82l3.39-5.24,3.08,5.24h5.24l-1.85-6.78-4.63-17.58-20.04,4.63s.62,3.7,.62,5.86c0,0-.62,2.16-5.86,5.55,0,0-1.54,.62-2.16,1.54Z"/>
      <line class="cls-7" x1="564.44" y1="438.66" x2="562.28" y2="437.12"/>
      <line class="cls-7" x1="563.52" y1="440.51" x2="561.36" y2="438.35"/>
    </g>
    <g>
      <path class="cls-24" d="M449.87,206.82c-9.6,9.94-22.62,15.66-36.65,16.11-14.03,.45-27.41-4.44-37.66-13.75h0c-21.16-19.23-22.25-51.56-2.43-72.09,9.6-9.94,22.62-15.66,36.65-16.11,14.03-.44,27.41,4.44,37.66,13.75,8.32,7.56,13.54,17.15,15.6,27.25,3.18,15.58-1.15,32.39-13.17,44.84Zm-71.9-.13c9.56,8.69,22.04,13.25,35.13,12.83,13.09-.42,25.24-5.75,34.2-15.03,8.96-9.28,13.65-21.38,13.22-34.09-.43-12.7-5.93-24.49-15.49-33.17-9.56-8.69-22.04-13.25-35.14-12.83-13.09,.42-25.24,5.75-34.2,15.03-11.22,11.62-15.26,27.29-12.29,41.84,1.92,9.42,6.79,18.37,14.55,25.42Z"/>
      <path class="cls-22" d="M451.16,204.36c-9.6,9.94-22.62,15.66-36.65,16.11-14.03,.45-27.41-4.44-37.66-13.75h0c-21.16-19.23-22.25-51.56-2.43-72.09,9.6-9.94,22.62-15.66,36.65-16.11,14.03-.45,27.41,4.44,37.66,13.75,8.32,7.56,13.54,17.15,15.6,27.25,3.18,15.58-1.15,32.38-13.17,44.84Zm-71.9-.13c9.56,8.69,22.04,13.25,35.13,12.83,13.09-.42,25.24-5.75,34.2-15.03,8.96-9.28,13.65-21.38,13.22-34.09-.43-12.7-5.93-24.49-15.49-33.17-9.56-8.69-22.04-13.25-35.14-12.83-13.09,.42-25.24,5.75-34.2,15.03-11.22,11.62-15.25,27.3-12.29,41.84,1.92,9.42,6.79,18.37,14.55,25.42Z"/>
    </g>
    <g>
      <path class="cls-26" d="M523.45,168.98c-1.72-7.22-2.38-15.62-8.57-20.33-4.59-3.49-9.82-4.47-15.65-4.23-2.87,.12-6.11,1.4-8.61,2.77-3.43,1.88-4.88,5.7-6.53,9.17-3.31,6.95-2.89,16.36-.65,18.97l29.93,15.33c5.98-3.02,9.72-4.22,10.68-11.95,.4-3.25,.17-6.55-.59-9.74Z"/>
      <path class="cls-26" d="M483.46,159.9s-4.08,14.8-4.43,25.27l-.12,3.49s12.71,8.7,23.96,7.26l-1.08-14.66-18.34-21.36Z"/>
      <path class="cls-27" d="M513.93,197.23c-4.98-.06-9.19,3.5-14.17,3.48-1.72,0-4.07-1.44-5.93-2.94-.79-1.12-.65-2.45-.81-3.71-.07-.56,.31-.98,.83-1.15,3.19-1.05,6-2.73,8.49-4.97,.09-.08,.24-.14,.27-.12-2.25,.87-4.67,.99-7.14,.97-6.67-.05-12.24-5.38-12.44-12.07-.04-1.36-.32-2.45-1.31-3.45-1.08-1.1-1.67-2.53-1.73-4.1-.08-1.93,.87-3.19,2.78-3.48,.99-.15,1.39-.56,1.34-1.5,0-.14,0-.28,.01-.41,.36-3.42,.57-10.21,3.15-10.21,4.83-4.87,10.45-1.75,15.04-4.7,2.23-1.43,2.34,5.36,2.92,8.29,.66,3.3,2.57,5.73,5.49,7.38,.43,.25,1.07,.38,1.18,.89,.3,1.36,1.18,1.09,2.11,.91,1.21-.23,2.45-.56,3.57,.32,.85,.94,1.09,2.12,1.31,3.31-.16,2.56-1.65,4.24-3.62,5.68-2.15,1.57-3.41,3.75-3.1,6.43,.53,4.55,1.37,9.07,1.96,13.61,.07,.53,.31,1.09-.19,1.55Z"/>
      <path class="cls-26" d="M495.55,180.76c-.46-.05-.89,0-1-.47-.12-.54,.26-.76,.69-.84,1.24-.24,2.33-.77,3.29-1.6,.3-.26,.69-.35,.98,0,.33,.38,.19,.78-.15,1.09-1.12,1.01-2.42,1.62-3.81,1.83Z"/>
      <path class="cls-26" d="M502.96,173.26c.04,.54-.36,.97-1.03,1.02-.75,.05-1.21-.41-1.22-1.18,0-.72,.46-1.12,1.12-1.15,.68-.03,1.1,.38,1.13,1.31Z"/>
      <path class="cls-26" d="M489.39,173.58c-.95-.03-1.33-.46-1.31-1.13,.02-.67,.47-1.12,1.15-1.1,.74,.02,1.21,.47,1.15,1.24-.05,.69-.46,1.08-1,1Z"/>
      <path class="cls-26" d="M501.99,168.28c-.36,0-.59,0-.81,0-.51,.01-.94-.16-.97-.71-.03-.62,.46-.68,.94-.68,.23,0,.45,0,.68,.01,.67,.04,1.6,.02,1.57,.86-.03,.92-.98,.43-1.4,.52Z"/>
      <path class="cls-26" d="M489.6,167.75c-.68-.21-1.87,.2-1.95-.86-.07-.86,.97-.53,1.54-.56,.66-.03,1.5-.04,1.58,.84,.07,.77-.68,.51-1.17,.58Z"/>
      <path class="cls-26" d="M508.83,196.25c.29-2.59-.79-5.2-.48-7.79,.33-2.75,2.16-5.1,2.92-7.77,1.21-4.27-.45-8.81-1.05-13.23-2.55-.31-4.93-1.79-6.63-3.71-2.04-2.31-3.28-5.18-4.48-7.99,.07,2.76,1.06,5.49,2.77,7.69-1.13,.23-2.33-.24-3.18-1-.85-.76-1.41-1.78-1.86-2.81-1.11-2.5-2.13-3.11-2.22-5.82-.38,3.89,.49,5.76,1.75,9.46-.71-.21-1.48-.02-2.22,.08-.74,.1-1.59,.08-2.11-.43-.35-.35-.48-.84-.58-1.32-.7-3.3-1.24-4.64-.76-7.98-.91,1.81-.97,1.66-1.76,3.62-.75,1.87-.83,3.91-.21,5.82-.29,.36-.92,.3-1.27,0-.35-.31-.48-.79-.55-1.24-.27-1.66,.03-3.35,.34-5.01-1.02,1.75-1.36,3.79-1.92,5.72-.56,1.94-1.46,3.92-3.2,5.03-.3-2.9-.19-4.88,.25-7.59,.34-2.07,1.36-4.13,2.29-6.02,1.05-2.12,2.51-4.2,4.13-5.58,3-2.55,4.26-1.45,6.18-.48l.23,.09s0-.09,.02-.14l.09-.4c4.99-1.09,10.29-.85,15.15,.69,3.62,1.14,3.95,8.7,4.83,5.11,.53-2.17,3.44-.19,3.47-.13,4.26,7.46,8.78,19.3,8.99,38h0l-18.94,5.13Z"/>
    </g>
    <g>
      <path class="cls-19" d="M467.3,229.93l11.89-10.8,8.05,12.41c-.16,1.11-10.43,22.57-14.87,27.02-5.07,5.07-11.98,4.68-15.03-2.32-2.4-5.52-6.4-22.53-6.4-22.53l16.36-3.78Z"/>
      <path class="cls-19" d="M485.77,197.44c-2.84,.99-9.37,4.46-11.28,6.73-.92,1.1-1.81,2.35-2.4,3.6-1.49,3.17-4.31,26.71-4.31,26.71l12.66,8.9,11.02-41.17,1.83-7.24-7.53,2.47Z"/>
      <path class="cls-19" d="M483,268.7v-10.06s-.68-10.18-1.58-19.6c-1.43-14.97,2.6-24.28,3.15-25.86,.31-.89,8.58-17.51,8.58-17.51,0,0,1.74,5.12,8.71,3.91,9.73-1.69,13.27-6.8,13.27-6.8l12.57,2.64s4.9,19.08,5.62,25.41c.39,3.39-.54,23.46-.54,23.46l3.73,9.85c.22,.53-3.22,15.23-3.89,15.84-.67,.61-12.73,3.32-12.88,3.83-.15,.5-22.99,9.78-22.98,9.4,.01-.38-10.99-13.06-10.99-13.06l-2.78-1.44Z"/>
    </g>
    <path class="cls-15" d="M538.73,262.8c2.25,3.71,7.4,17.92,9.4,25.17,9.13,33.1,20.88,76.04,23.45,85.11,3.42,12.09,13.1,41.88,17,60.09h-33.28s-16-57-22.68-72.74c-6.93-16.31-18.49-47.08-18.49-47.08l-2.64,119.82h-34.47s.24-29.69,0-52.19c-.22-20.7,1.24-62.86,1.22-73.6-.02-13.08,4.76-39.17,4.76-39.17,0,0,7.66,.72,21.15-.18,10.53-.7,33.19-7.48,33.19-7.48l1.38,2.24Z"/>
    <polygon class="cls-27" points="454.56 215.47 463.19 224.12 463.61 230.87 454.27 233.03 453.07 233.27 452.36 229.03 446.59 221.58 454.56 215.47"/>
    <path class="cls-22" d="M508.57,270.66l1.67-1.57c1.49-1.4,.66-4.6-.91-6.16l-58.73-58.89-7.85,7.37,58.64,58.8c1.98,1.88,5.26,2.25,7.18,.44Z"/>
    <g>
      <path class="cls-27" d="M450.61,211.62c-.28-.26-.82-.41-1.19-.31-.37,.11-.66,.37-.93,.63-1.91,1.88-3.02,4.5-3.03,7.14,0,1.13,.31,2.43,1.35,2.95l1.18-.66c.37-.46,1.46-1.22,1.6-1.79,.61-2.37-.27-2.27,1.26-6.37,.15-.4,.32-1.08-.25-1.59Z"/>
      <path class="cls-27" d="M450.33,214.97c.33-.56,.7-1.1,1.17-1.49,.47-.39,1.05-.61,1.55-.45,.81,.25,1.21,1.39,1.12,2.44-.09,1.06-.56,2.05-1.01,3.01-.97,2.03-1.93,4.07-2.9,6.1l-.56-.4c-.4,.38-.98,.18-1.25-.27-.27-.45-.3-1.07-.28-1.66,.08-2.54,.89-5.11,2.17-7.28Z"/>
      <path class="cls-27" d="M451.75,221.06c.67-1.43,1.78-2.63,2.9-3.78,.39-.4,.81-.81,1.35-.99,.54-.18,1.25-.05,1.52,.43,.26,.46,.03,1.02-.21,1.5-1.45,2.94-3.12,5.79-4.99,8.51l-1.73-1.7c-.79-1.38,.5-2.54,1.17-3.97Z"/>
    </g>
    <g>
      <g>
        <path class="cls-27" d="M505.55,239.86l-1.59-.33-8.33-6.89-4.56-3.72c-.38-.31-.84-.52-1.33-.6l-3.85-.58s-1.37,1.75,.69,2.85l2.47,1.24,2.26,2.59-.29,.56s-14.83,2.23-15.76,3.33c-.93,1.1,0,2.1,.41,2.3,.41,.2,1.13,.1,1.13,.1,0,0-.72,1.7,1.44,3.09,0,0-1.65,2.1,1.23,3.09,0,0,.82,1.6,2.47,2.1,1.65,.5,10.49,1.5,11.42,1.5s10.63,.01,10.63,.01l2.13,.34-.58-11Z"/>
        <path class="cls-5" d="M476.45,240.76c.08,.41,1.83,.36,4.1,.21,2.27-.16,4.12-.29,4.06-.58,.06-.42-1.85-.03-4.09,.13-2.24,.15-3.99-.07-4.07,.24Z"/>
        <path class="cls-5" d="M478.24,243.83c-.02,.21,.39,.11,1,.19,.62,.07,1.47,.19,2.44,.25,.97,.06,1.84-.03,2.46-.05,.62-.04,1.02-.04,1.02-.18,0-.33-.38-.1-1.01-.14-.64-.06-1.5-.02-2.44-.08-.94-.06-1.81-.12-2.45-.12-.63,0-1.03,.06-1.02,.12Z"/>
        <path class="cls-5" d="M479.41,246.91c0,.24,1.55,.31,3.77,.47,1.11,.07,2.09,.15,2.74,.41,.2,.08,.68,.56,.68,.32s-.24-.48-.54-.61c-.68-.37-1.74-.51-2.84-.57-2.22-.16-3.8-.5-3.8-.02Z"/>
      </g>
      <g>
        <path class="cls-19" d="M527.71,195.42s6.27,1.05,11.02,10.11c2.63,5.01,14.91,35.14,15.64,37.78,3.12,11.3-2.91,18.59-8.72,19.08-6.39,.54-39.43-6.14-39.43-6.14l-.73-17.36,30.14,4.44-14.48-27.27s-.56-18.16,6.56-20.65Z"/>
        <path class="cls-19" d="M545.77,250.82s-.15-.76-.81-1.83c-.65-1.06-1.81-2.39-3.39-3.5-1.59-1.1-3.26-1.73-4.51-1.97-1.25-.26-2.04-.2-2.04-.15,0,.08,.77,.13,1.96,.46,1.19,.32,2.78,.97,4.32,2.03,1.53,1.07,2.69,2.31,3.39,3.3,.71,.99,1.01,1.68,1.09,1.65Z"/>
      </g>
    </g>
    <path class="cls-26" d="M524.99,223.74c.14,.23,.34,.53,.51,.84,1.72,3.2,3.66,6.27,5.92,9.13,.4,.51,.87,1.08,.17,1.63-.68,.54-1.04-.15-1.38-.58-2.37-3.04-4.45-6.26-6.21-9.69-.2-.39-.56-.85-.01-1.26,.27-.2,.57-.26,1-.07Z"/>
  </g>
  <g>
    <g>
      <path class="cls-26" d="M209.61,426.31v12.84s3.4,9.44,6.04,9.82c0,0,1.89,.76-.38,1.89h-25.3s-1.51,0-1.89-2.27v-20.39l21.53-1.89Z"/>
      <line class="cls-2" x1="206.03" y1="434.05" x2="202.63" y2="434.05"/>
      <line class="cls-2" x1="206.03" y1="438.02" x2="202.63" y2="438.02"/>
      <line class="cls-2" x1="206.78" y1="441.42" x2="203.38" y2="441.42"/>
    </g>
    <path class="cls-25" d="M187.8,278.19v18.18l7.39,58.06s-5.46,27.23-6.89,42.6c-1.25,13.35-3.37,36.63-3.37,36.63l26.08-.04,10.95-77.52,4.87-48.35,8.83-28.64-47.86-.92Z"/>
    <g>
      <path class="cls-26" d="M238.38,423.77s-3.39,10.53-3.92,13.99c0,0,.78,5.95,1.6,7.51,0,0,2.13,4.05,2.99,4.8s.29,1.44,.29,1.44c0,0-1.31,1.08-2,.65s-22.53-4.48-22.53-4.48c0,0-6.42-.61-4.79-4.65l3.05-21.89,25.31,2.62Z"/>
      <line class="cls-8" x1="231.41" y1="428.82" x2="226.63" y2="427.76"/>
      <line class="cls-8" x1="229.98" y1="432.36" x2="225.2" y2="431.29"/>
      <line class="cls-8" x1="228.51" y1="436.71" x2="223.73" y2="435.64"/>
    </g>
    <polygon class="cls-18" points="201.47 283.31 241.89 275.63 247.96 359.22 242.91 417.33 241.82 431.86 210.22 430.58 217.31 358.81 201.47 283.31"/>
    <g>
      <path class="cls-26" d="M235.61,143.69c-.27,2.49-1.53,4.32-3.7,5.52-.3,.16-.61,.29-.92,.43-.22-.11-.17-.33-.19-.51-.09-.96-.18-1.92-.39-2.86-.08-.35-.24-.56-.6-.63-.39-.08-.75-.26-1.11-.43-.07,.13,0,.23,.02,.33,.24,1.11-.21,2-1.26,2.45-.77,.33-1.59,.45-2.42,.49-1.7,.07-3.38-.12-5.06-.43-.52-.09-.51-.1-.64,.41-.17,.67-.37,1.33-.66,1.96-.5,1.22-1.17,2.34-2.02,3.36-.25,.3-.38,.28-.65-.06-.56-.71-1.15-1.39-1.96-1.81-1.2-.63-2.44-.86-3.73-.26-1.3,.61-1.92,1.67-1.99,3.06-.11,2.23,.71,4.13,2.15,5.78,.33,.38,.44,.71,.22,1.19-.58,1.3-1.04,2.65-1.69,3.91-1.2,2.33-3.13,3.69-5.7,4.14-.23,.04-.47,.05-.7,.02-.41-.05-.84,.1-1.23-.13-.54-.49-.91-1.12-1.32-1.71-1.74-2.52-3.3-5.13-4.55-7.93-.78-1.76-1.43-3.56-1.88-5.43-.26-1.07-.45-2.15-.53-3.24-.18-2.65,.32-5.17,1.46-7.58,.61-1.28,1.31-2.49,2.21-3.57,.94-1.12,2.04-2.08,3.31-2.83,.93-.56,1.95-.91,2.98-1.24,.4-.13,.77-.36,1.05-.65,1.88-1.97,4.2-3.16,6.79-3.88,2.22-.62,4.47-.97,6.78-1.04,.77-.02,1.54-.09,2.31-.06,2.42,.09,4.83,.3,7.2,.88,1.69,.41,3.32,.95,4.83,1.84,.9,.53,1.62,1.25,2.14,2.15,.77,1.32,.27,2.26-1.41,2.45,1.67,1.24,2.63,2.83,2.83,4.84,.04,.36,.04,.73,0,1.09Z"/>
      <path class="cls-16" d="M202.75,169.63c2.85-.25,4.92-1.67,6.19-4.2,.67-1.34,1.18-2.76,1.78-4.13,.09-.21,0-.33-.12-.47-1.3-1.37-2.11-2.99-2.36-4.86-.18-1.32-.06-2.6,.9-3.65,1.07-1.17,2.77-1.47,4.42-.81,1.06,.42,1.87,1.15,2.52,2.07,.09,.12,.17,.24,.27,.37,.94-1.07,1.64-2.27,2.21-3.54,.13-.11,.28-.18,.45-.16,1.39,.15,2.78,.17,4.17,.17,.08,0,.16,.04,.24,.05,.37,.37,.79,.36,1.26,.2,.27-.09,.57-.14,.85-.14,.38,0,.73-.09,1.06-.3,1.3-.15,2.6-.35,3.88-.59,.17-.03,.33-.04,.47,.1,.15,1.09,.18,2.19,.27,3.28,.1,1.27,.2,2.54,.31,3.81,.03,.37-.04,.74,.07,1.11,.04,.14,.06,.26,.25,.25,.82-.04,1.51,.94,1.34,1.86-.11,.58-.39,1.08-.92,1.35-.4,.2-.42,.49-.38,.85,.15,1.42,.33,2.85,.22,4.27-.16,2.09-.89,3.98-2.17,5.64-1.54,2.01-3.56,3.31-6.02,3.92-.09,.02-.18,.06-.27,.1-.19,.12-.39,.19-.62,.22-1.41,.18-2.82,.19-4.25,.09-2.05-.15-4.03-.57-5.97-1.25-.91-.32-1.8-.69-2.71-1.16,.98,1.29,1.91,2.55,2.96,3.72,1.42,1.59,2.94,3.06,4.69,4.29,.12,.09,.73,.73,.71,.92-.48,1.52-3.49,1.08-4.98,.52-4.48,.09-8.98,.44-13.07-1.08-.52-.19-.52-.22-.42-.96,.15-1.12,1.11-8.47,1.24-9.59,.09-.73,.17-1.46,.26-2.2,.42-.1,.85,.01,1.26-.07Z"/>
      <path class="cls-26" d="M217.98,182.44c-2.33-1.62-4.31-3.6-6.09-5.79-.74-.91-1.46-1.83-2.14-2.81,.16-.05,.25,.04,.34,.09,3.58,1.8,7.37,2.61,11.37,2.46,.73-.03,1.45-.14,2.17-.21-.1,.68-.21,1.36-.31,2.04-.15,1.08-.3,2.17-.44,3.25-.1,.78-.21,1.55-.31,2.33-.03,.19-.02,.39-.33,.26-1.42-.55-2.84-1.08-4.26-1.62Z"/>
      <path class="cls-16" d="M230.94,149.72c-.95,.15-1.91,.31-2.86,.45-.5,.08-1,.16-1.5,.14-.01,0-.03-.01-.03-.03-.28-.69-.3-.71-1.08-.65-.29,.02-.57,.08-.85,.13-.5,.09-.96,.24-1.14,.79-.85,0-1.7,.02-2.55,0-.79-.03-1.57-.15-2.37-.15,.3-.77,.57-1.55,.72-2.36,.04-.25,.15-.24,.33-.21,.58,.1,1.15,.21,1.73,.29,1.84,.24,3.68,.4,5.52-.07,1.25-.32,1.91-1.13,1.78-2.18-.04-.33-.15-.66-.24-1.03,.58,.4,1.19,.61,1.82,.74,.14,.03,.21,.07,.24,.22,.2,.82,.34,1.64,.41,2.48,.04,.45,.08,.9,.12,1.35-.01,.03-.03,.05-.04,.08Z"/>
      <path class="cls-28" d="M202.75,169.63c-.42,.13-.84,.04-1.26,.07-.03-.03-.06-.05-.09-.08,.45,0,.9,0,1.35,.01Z"/>
      <path class="cls-29" d="M235.61,143.69c0-.36,0-.73,0-1.09,.11,.36,.11,.73,0,1.09Z"/>
      <path class="cls-26" d="M222.54,161.41c.24,.01,.4,.12,.53,.3,.81,1.16,1.88,1.95,3.24,2.37,.35,.11,.51,.43,.4,.75-.11,.34-.38,.48-.76,.36-1.62-.52-2.91-1.48-3.87-2.88-.12-.18-.2-.36-.07-.57,.13-.21,.32-.29,.53-.33Z"/>
      <path class="cls-26" d="M211.77,154.54c.34,.02,.73,.34,1.07,.74,.57,.68,.8,1.53,1.04,2.36,.1,.36-.13,.59-.45,.68-.32,.09-.53-.1-.65-.38-.17-.4-.25-.84-.44-1.24-.24-.5-.47-.95-1.11-1.03-.31-.04-.49-.3-.47-.64,.02-.3,.36-.5,1.01-.49Z"/>
      <path class="cls-26" d="M224.85,157.36c-.69,0-1.25-.52-1.26-1.2-.01-.68,.58-1.27,1.26-1.27,.68,0,1.22,.56,1.22,1.24,0,.7-.51,1.21-1.22,1.22Z"/>
      <path class="cls-26" d="M223.48,150.56c-.04-.49,.06-.65,.51-.78,.62-.18,1.25-.3,1.9-.3,.62,0,.8,.22,.69,.84-.16,.21-.36,.34-.63,.33-.57-.02-1.13,.1-1.66,.26-.4,.12-.64,0-.81-.35Z"/>
    </g>
    <path class="cls-16" d="M180.93,214.67s-6.66,35.95-6.34,39.31c.32,3.36,2.09,8.71,6.11,9.63,4.02,.92,7.72,0,7.72,0l-4.82-44.15-2.67-4.78Z"/>
    <g>
      <g>
        <path class="cls-16" d="M288.3,176.74c.28-.41,.21-.98-.21-1.27-.11-.07-.22-.11-.33-.1-.45,.07-1.63,.91-2.54,.92-.91,.01-2.45-.26-3.36,.56-.91,.82-3.12,5.3-3.4,6.28-.28,.97-1.27,9.53-1.27,9.53l11.11-15.93Z"/>
        <path class="cls-24" d="M292.14,175.61c-.05,.05-10.87,4.69-15.62,6.72-1.06,.45-1.3,1.78-.46,2.57h0c.52,.49,1.3,.6,1.93,.29l15.52-7.34,1.28-1.89-2.66-.36Z"/>
        <path class="cls-16" d="M280.68,185.06l3.45-2.46,4.55-6.41s1.86-1.08,2.83-.4c.97,.68,1.28,1.46,.83,2.34,0,0,2.57,.6,2.76,1.43,.18,.84-.37,2.87-.37,2.87,0,0,.38,1.56,.02,2.39-.36,.83-.32,1.54-.32,1.54,0,0,1.67,1.98,.95,4-.72,2.02-3.72,6.54-5.33,7.7-1.61,1.17-4.65,2.57-4.65,2.57l-1.99,4.04-8.25-7.24,5.52-12.36Z"/>
        <path class="cls-6" d="M288.54,176.46c.3,.08-.03,.34-.18,.56-.16,.24-.4,.34-.65,.7-.52,.76-1.26,1.81-2.08,2.96-.41,.57-.8,1.12-1.16,1.62-.18,.25-.38,.48-.59,.66-.21,.18-.45,.32-.66,.42-.44,.2-.81,.29-1.07,.35-.01,0-.25,.01-.25,0,0-.01,0,0,.24-.07,.25-.08,.62-.19,1.03-.39,.89-.36,1.48-1.57,2.33-2.68,.82-1.15,1.57-2.19,2.12-2.93,.26-.35,.48-.64,.66-.88,.16-.21,.25-.32,.26-.31Z"/>
        <path class="cls-6" d="M289.6,183.12c-.04-.13,.55-1.15,1.33-2.52,.77-1.37,1.43-2.45,1.48-2.44,.27,.05-.55,1.15-1.33,2.52-.77,1.37-1.41,2.66-1.48,2.44Z"/>
        <path class="cls-6" d="M290.68,187.13s-.04-.14-.12-.35c-.08-.21-.25-.48-.54-.67-.28-.19-.61-.25-.83-.26-.23,0-.38,.03-.38,0,0-.02,.13-.1,.38-.12,.25-.03,.61,.02,.93,.24,.32,.22,.5,.53,.55,.77,.06,.24,.08,.32,0,.39Z"/>
        <path class="cls-6" d="M294.51,188.33s-.14-.07-.34-.23c-.2-.15-.47-.36-.81-.51-.34-.15-.68-.19-.91-.14q-.26,.1-.34,.17s.04-.19,.31-.28c.26-.09,.65-.06,1.01,.11,.37,.16,.64,.4,.82,.57,.18,.18,.34,.25,.26,.31Z"/>
        <path class="cls-6" d="M293.03,184.96c-.12-.04,.3-.61,.76-1.31,.46-.7,.8-1.37,.9-1.22s-.3,.61-.76,1.31c-.46,.7-.68,1.3-.9,1.22Z"/>
        <path class="cls-6" d="M286.42,185.25s-.02-.14-.09-.34c-.06-.2-.21-.46-.47-.65-.26-.18-.57-.24-.78-.23-.22,0-.35,.04-.36,.02,0-.02,.11-.1,.35-.13,.23-.03,.58,0,.89,.22,.3,.21,.45,.53,.48,.75,.04,.23-.01,.37-.03,.36Z"/>
        <path class="cls-17" d="M277.4,185.23s.15-.15,.3-.42c.15-.27,.26-.72,.08-1.16-.18-.44-.56-.71-.86-.82-.3-.12-.51-.12-.51-.14,0-.02,.22-.07,.55,.04,.33,.09,.77,.38,.97,.87,.2,.5,.05,1-.13,1.28-.19,.29-.39,.38-.4,.37Z"/>
      </g>
      <g>
        <path class="cls-16" d="M247.92,205.72l13.08,10.86,16.06-23.28,10.44,5.98s-15.65,34.95-19.89,38.04c-4.24,3.09-7.82,2.29-13.28-.16-5.46-2.45-24.9-21.43-24.9-21.43l18.48-10.01Z"/>
        <path class="cls-16" d="M261.47,226.25c-.13-.02,.23-2.21,.07-4.92-.14-2.71-.74-4.86-.61-4.89,.1-.04,.89,2.1,1.03,4.87,.16,2.77-.39,4.97-.49,4.95Z"/>
      </g>
    </g>
    <g>
      <path class="cls-20" d="M194.52,187.95s11.12,.16,11.28,13.61c.16,13.45-2.83,31.44-2.83,31.44l-28.39-4.85s3.52-25.04,6.53-32.25c3.03-7.26,8.81-9.16,13.41-7.94Z"/>
      <path class="cls-20" d="M199.8,178.27l-.35,2.19s-15.17,9.73-16.03,12.24c-1.33,3.89,1.57,36.77,2.85,46.09,1.28,9.32,1.54,29.86,1.54,29.86-.93,2.42-1.99,4.6-2.34,7.98-.35,3.35,2.34,6.4,2.34,6.4,16.28,5.15,36.17,1.2,57.68-3.56l-.2-5.92-7.03-64.28s2.05-16.71-6.35-21.54c-.92-.53-8.25-4.57-8.25-4.57l-23.85-4.88Z"/>
      <g class="cls-23">
        <path d="M224.2,206.13s-.13,9.25,5,19.83c5.13,10.58,12.76,17.18,12.76,17.18l-2.28-19.23-15.49-17.78Z"/>
      </g>
      <g>
        <path class="cls-20" d="M236.94,189.9c-2.66-2.09-7.61-3.22-10.43-1.35-1.26,.84-2.72,2.1-3.42,4.09-2.41,6.83-.97,14.18,.96,19.64,1.93,5.45,11.24,15.96,11.24,15.96l23.02-13.55s-15.41-18.12-17.01-19.99c-.84-.98-2.88-3.64-4.35-4.8Z"/>
        <path class="cls-20" d="M236.94,189.9s.18,.11,.49,.38c.31,.26,.74,.68,1.27,1.25,1.07,1.14,2.47,2.92,4.37,5.08,3.76,4.39,9.08,10.6,15.39,17.96l.14,.16-.19,.11c-6.51,3.84-13.92,8.21-21.75,12.83-.43,.25-.86,.51-1.26,.74l-.15,.09-.12-.13c-2.57-2.95-4.97-5.92-7.11-8.9-1.07-1.49-2.08-2.99-2.94-4.54-.43-.77-.82-1.56-1.13-2.37-.31-.81-.56-1.62-.8-2.42-1.92-6.41-1.97-12.7-.22-17.49,.42-1.22,1.17-2.24,2.02-3.03,.86-.77,1.76-1.45,2.77-1.77,1-.32,1.98-.37,2.86-.33,.89,.05,1.69,.2,2.38,.39,1.4,.38,2.4,.92,3.05,1.31,.65,.4,.93,.68,.93,.68-.02,.02-.32-.24-.97-.61-.65-.36-1.65-.88-3.04-1.22-.69-.18-1.48-.32-2.35-.35-.87-.03-1.82,.04-2.78,.35-.96,.3-1.83,.98-2.66,1.74-.82,.78-1.53,1.77-1.92,2.94-1.69,4.73-1.62,10.94,.31,17.3,.24,.79,.49,1.6,.8,2.39,.3,.79,.69,1.56,1.12,2.32,.85,1.52,1.85,3.01,2.92,4.5,2.14,2.97,4.53,5.93,7.09,8.86l-.27-.04c.4-.23,.83-.49,1.26-.74,7.83-4.6,15.25-8.96,21.77-12.8l-.05,.27c-6.26-7.4-11.54-13.64-15.27-18.05-1.87-2.18-3.26-3.99-4.29-5.15-.51-.58-.93-1.01-1.22-1.28-.29-.28-.45-.41-.44-.42Z"/>
      </g>
      <path class="cls-24" d="M183.11,200.14s.04,.13,.07,.39c.03,.3,.06,.67,.11,1.12,.08,1.04,.18,2.43,.31,4.13,.23,3.55,.55,8.33,.89,13.63,.36,5.32,.74,10.13,1.06,13.61,.16,1.69,.3,3.08,.39,4.12,.04,.45,.07,.82,.1,1.12,.02,.26,.02,.39,0,.39-.01,0-.05-.13-.09-.38-.05-.3-.11-.67-.18-1.11-.15-.97-.33-2.37-.53-4.11-.4-3.48-.83-8.29-1.18-13.62-.36-5.32-.6-10.15-.77-13.64-.07-1.7-.13-3.1-.17-4.14-.01-.45-.02-.82-.03-1.13,0-.26,0-.39,.02-.39Z"/>
      <path class="cls-24" d="M234.02,278.19s-.14,.06-.43,.13c-.33,.08-.74,.17-1.24,.29-.54,.13-1.2,.26-1.98,.4-.77,.15-1.66,.31-2.64,.46-1.96,.33-4.31,.59-6.92,.84-2.62,.21-5.5,.37-8.53,.41-3.03,.02-5.92-.08-8.54-.25-2.62-.21-4.97-.44-6.93-.74-.98-.13-1.87-.29-2.64-.43-.78-.13-1.44-.27-1.98-.39-.5-.12-.91-.21-1.24-.29-.28-.07-.43-.11-.43-.13,0-.01,.16,0,.44,.05,.33,.06,.75,.13,1.26,.21,.54,.1,1.21,.21,1.99,.33,.78,.12,1.66,.26,2.64,.37,1.96,.27,4.31,.47,6.92,.66,2.61,.15,5.49,.24,8.51,.22,3.02-.04,5.89-.18,8.5-.37,2.61-.23,4.95-.46,6.91-.75,.98-.12,1.86-.27,2.64-.39,.78-.12,1.44-.23,1.99-.34,.51-.09,.92-.16,1.26-.22,.29-.05,.44-.06,.44-.05Z"/>
    </g>
  </g>
</svg>