<?xml version="1.0" encoding="UTF-8"?>
<svg id="Capa_1" data-name="Capa 1" xmlns="http://www.w3.org/2000/svg" viewBox="0 0 535.52 754.78">
  <defs>
    <style>
      .cls-1 {
        fill: #d3c0df;
      }

      .cls-2 {
        stroke: #efeae4;
        stroke-miterlimit: 10;
        stroke-width: 1.42px;
      }

      .cls-2, .cls-3 {
        fill: #171b33;
      }

      .cls-4 {
        fill: #232f55;
      }

      .cls-5 {
        fill: #34b296;
      }

      .cls-6 {
        fill: #1c2545;
      }

      .cls-7 {
        fill: #009579;
      }

      .cls-8 {
        fill: #727e88;
      }

      .cls-9 {
        fill: #1b2545;
      }
    </style>
  </defs>
  <path class="cls-3" d="M313.22,587.1l2.17,23.2,2.9,26.82v.72h10.87l-.72-13.77,13.77,13.05,.72,.72h53.65s.72-21.02-12.32-28.27c0,0-19.57-5.8-21.75-13.77,0,0-5.8-7.97-5.8-16.67l-43.5,7.97Z"/>
  <path class="cls-3" d="M221.88,621.9l1.45,2.17c4.35,7.25,0,13.77,0,13.77h-53.65l-7.97-12.32-7.25,12.32h-12.32l4.35-15.95,10.87-41.32,47.12,10.87s-1.45,8.7-1.45,13.77c0,0,1.45,5.07,13.77,13.05,0,0,3.62,1.45,5.07,3.62Z"/>
  <polygon class="cls-9" points="266.82 276.83 297.27 339.17 324.82 402.97 338.59 440.67 354.54 491.41 366.86 541.43 374.11 584.2 302.34 592.9 295.82 555.21 287.85 519.68 276.97 485.61 265.37 450.81 246.52 403.69 237.82 346.42 230.58 289.88 266.82 276.83"/>
  <path class="cls-4" d="M265.37,268.85s-2.17,15.95-6.52,21.02c0,0-7.25,11.6-20.3,15.95l4.35,47.12,6.52,42.05v44.95s-5.07,49.3-12.32,68.14l-16.67,65.24-5.07,24.65-71.04-18.12,16.67-66.69,10.87-42.77s5.8-32.62,5.8-47.12c0,0-1.45-41.32-6.52-63.79l-4.35-36.25-3.51-34.23,102.11-20.14Z"/>
  <polygon class="cls-9" points="268.27 272.48 160.98 265.23 164.61 302.93 268.27 275.38 268.27 272.48"/>
  <line class="cls-2" x1="362.15" y1="607.76" x2="367.95" y2="601.97"/>
  <line class="cls-2" x1="356.35" y1="603.41" x2="363.6" y2="597.62"/>
  <line class="cls-2" x1="198.32" y1="609.21" x2="203.39" y2="605.59"/>
  <line class="cls-2" x1="200.49" y1="613.56" x2="205.56" y2="608.49"/>
  <g>
    <path class="cls-6" d="M206.79,144.39c.7-4.45,1.01-9.01,2.2-13.32,1.15-4.19-1.61-6.96-2.66-10.36-.16-.53-.85-.57-1.3-.82-3.03-1.65-5.13-4.09-6-7.45-1.06-4.09,1.34-6.71,5.51-6.09,.75,.11,1.51,.25,2.23,.47,1.44,.42,2.68,.67,2.35-1.56-.08-.54,.32-.82,.77-1.03,5.7-2.51,8.77-6.97,9.65-13.05,.08-.57,.22-1.14,.37-1.87,1.4,.88,2.7,1.73,4.04,2.53,7.26,4.34,15.05,6.75,23.58,6.3,1.08-.06,1.6,.14,1.66,1.32,.08,1.52,.49,3.03,.47,4.54-.03,1.51,.66,1.76,1.89,1.61,.35-.04,.7-.03,1.05-.05-.31-2.26-.63-4.52-.94-6.79-.07-.55-.28-1.05,.32-1.58,1.69-1.49,1.86-2.62,.8-4.6-1.1-2.05-2.72-3.67-4.55-5.07-6.67-5.12-14.07-8.1-22.62-7.67-2.07,.1-4.12,.43-5.97,1.32-2.8,1.36-5.77,2.21-8.66,3.3-11.22,4.22-17.67,14.95-16.41,26.86,.68,6.41,1.38,12.85,.23,19.3-.48,2.67-1.22,5.24-2.58,7.61-1.6,2.79-2.98,15.96,.18,16.21,3.33,.26,6.67,.49,10,.73,.6,.44,3.83-10.28,4.4-10.79Z"/>
    <path class="cls-5" d="M153.86,297.3c15.47-.25,29.69-5.45,43.77-11.15,8.03-3.25,15.87-6.92,23.62-10.76,.97-.48,1.93-.73,3.02-.7,6.27,.18,12.54,.31,18.81,.46,1.44,.34,2.94-.14,4.38,.28,5.01-.16,10.02-.03,15.02,.36,2.07-.26,4-.85,5.59-2.28,1.93-1.74,2.83-3.91,2.43-6.46-.79-4.94-.68-9.91-.65-14.88,.03-5.67,.47-11.31,1.36-16.92-.2-.24-.47-.37-.77-.38-4.12-.23-8.09,.39-11.75,2.38-1.39,.75-2.1,2.58-1.8,4.08,.21,1.01,.89,.77,1.49,.57,1.57-.54,3.18-.81,4.81-1.07,1.19-.19,2.35-.09,3.43,.48,1.15,.61,1.44,1.64,1.24,2.85-.2,1.24-1.12,1.65-2.2,1.55-4.78-.44-8.64,1.77-12.43,4.19-2.67,1.71-5.24,3.57-7.83,5.4-1.86,1.31-2.06,1.31-3.19-.7-4.77-8.43-9.55-16.86-14.3-25.3-1.01-1.79-2.05-3.56-3.04-5.36-.59-1.06-.5-1.96,.24-2.92,2.65-3.44,5.28-6.9,7.96-10.32,.88-1.12,2.02-1.8,3.52-1.59,2.73,.39,3.74,2.59,2.17,4.85-1.5,2.17-3.21,4.19-4.82,6.29-.28,.37-.6,.72-.83,1.14-.19,.36-.46,.76-.23,1.15,.28,.46,.81,.43,1.28,.36,1.35-.21,2.61-.68,3.83-1.28,4-1.97,7.91-4.14,12.04-5.84,3.81-1.57,7.67-2.98,11.89-2.92,1.97,.03,2.66,.51,2.78,1.93,.13,1.54-.76,2.57-2.58,2.68-4.48,.25-8.61,1.71-12.65,3.53-.38,.17-.76,.33-1.09,.56-1.02,.7-1.02,1.16,.02,1.81,1.66,1.03,3.2,1.43,5.21,.39,3.52-1.81,7.38-2.69,11.37-2.79,.77-.02,1.51-.19,2.27-.24,1.61-.11,2.91,.63,3.3,1.81,.53,1.62-.58,3.06-2.58,3.05-2.78-.01-5.51,.27-8.21,.88-1.21,.27-2.38,.64-3.52,1.11-1.22,.5-1.55,1.24-1,2.49,1.01,2.31,1.51,2.62,3.86,1.72,4.15-1.58,8.41-1.99,12.79-1.42,.5-3.88,.95-7.77,1.51-11.64,.27-1.89,1.4-.7,2.02-.34,5.64,3.26,11.41,6.26,17.28,9.07,9.14,4.38,18.41,8.46,28.27,11.03,5.17,1.35,10.41,2.28,15.77,2.03,6.12-.29,11.49-2.72,16.21-6.48,6.15-4.89,11.02-10.99,15.75-17.2,9.6-12.59,18.44-25.7,27.08-38.95,5.25-8.05,10.3-16.22,15.48-24.32,.6-.93,.47-1.37-.5-1.88-.73-.38-1.69-.66-1.84-1.72-10.04-6-19.95-12.23-29.94-18.3-1.39-.85-2.67-1.88-4.2-2.5-1.07,.16-1.74-.66-2.5-1.13-.89-.56-1.2-.35-1.71,.47-5.03,7.98-10.08,15.96-15.2,23.89-6.96,10.79-14.2,21.39-21.76,31.76-1.31,1.8-2.71,3.53-4.05,5.3-.78,1.03-1.63,1.26-2.9,.77-10.98-4.22-21.31-9.76-31.55-15.5-6.75-3.79-13.37-7.79-19.97-11.83-2.65-1.63-4.75-3.98-7.52-5.47-3.93-2.12-8.07-3.36-12.48-3.92-3.9-.5-7.84-.25-11.74-.69-.67-.61-1.5-.57-2.32-.59-9.52-.19-19.04-.61-28.57-.78-3.32-.06-6.65-.29-9.99-.27-.88,0-1.77-.04-2.5,.58-3.5-.42-7.02-.36-10.53-.33-8.13,.08-15.26,2.78-21.18,8.39-2.91,2.76-4.95,6.19-6.97,9.65-6.39,10.93-12.83,21.82-18.58,33.1-6.74,13.21-13.12,26.6-17.48,40.82-2.09,6.81-3.67,13.74-3.87,20.96-.19,6.63,1.17,12.77,4.72,18.37,4.94,7.79,12.23,12.07,21.12,13.85,2.17,.43,4.38,.7,6.61,.73Z"/>
    <path class="cls-1" d="M254.23,115.71c-.23-1.01,.43-1.76,.8-2.58,1.21-2.71,1.22-6.12-2.42-7.56-2.41-.27-2.59-2.07-2.68-3.93-.02-.41-.02-.82-.07-1.23-.26-2.26-.72-2.73-3.03-2.69-8.99,.18-17.07-2.6-24.51-7.48-.44-.29-.88-.59-1.35-.82-.81-.39-1.34-.14-1.64,.7-.18,.5-.28,1.02-.36,1.54-.8,5.4-3.79,9.23-8.49,11.82-.86,.47-1.61,.95-1.74,2.03-.12,.97-.77,1.04-1.55,.9-1.15-.2-2.29-.52-3.47-.57-3.72-.17-6.08,2.62-5.28,6.25,.76,3.47,2.76,6.06,5.75,7.86,1.17,.71,2.03,1.55,2.43,2.86,.09,.28,.17,.58,.35,.81,2.15,2.66,1.81,5.59,1.22,8.68-.61,3.22-1.04,6.48-1.47,9.74-.12,.91-.47,1.84,.04,2.75,1.11,.82,2.42,.89,3.7,.85,6.15-.17,12.28,.6,18.43,.37,1.73-.06,3.47,.81,5.19-.04,.58-1.2-.58-1.24-1.13-1.46-2.24-.93-4.32-2.12-6.31-3.47-1.31-.88-2.47-1.94-3.59-3.05,4,1.25,8.05,1.73,12.27,1.26,8.54-.95,16.08-8.76,16.25-17.43,.05-2.57,.65-4.56,2.66-6.11Z"/>
    <path class="cls-1" d="M271.9,230.37c-2-1.32-4.24-.75-6.35-.64-2.44,.13-4.87,.78-7.1,1.81-1.28,.59-1.82,.41-2.38-.86-1.16-2.66-1.33-2.02,1.15-2.95,3.53-1.31,7.25-1.79,11.03-1.63,1.39,.06,2.4-.57,2.85-1.9,.44-1.31,.03-2.46-1.04-3.29-.81-.63-1.84-.81-2.82-.73-5.32,.42-10.58,1.13-15.36,3.8-.35,.19-.72,.45-1.13,.11-.85-.71-1.94-.99-3.2-1.6,3.79-1.9,7.36-3.43,11.24-4.12,1.2-.21,2.42-.34,3.65-.41,1.99-.12,2.98-1.36,2.8-3.28-.14-1.47-.82-2.29-2.47-2.35-4.57-.15-8.8,1.19-12.88,3-4.18,1.86-8.25,3.95-12.35,5.97-1.38,.68-2.81,1.07-4.53,1.31,.81-1.9,2.28-3.1,3.27-4.62,.76-1.17,1.71-2.22,2.56-3.33,1.68-2.18,1.73-3.73,.17-5.06-1.76-1.5-4.42-1.54-5.87,.25-3.12,3.86-6.05,7.88-9.1,11.81-.64,.82-.16,1.44,.2,2.08,2.71,4.86,5.43,9.71,8.17,14.55,3.31,5.86,6.69,11.68,9.95,17.58,.74,1.33,1.29,1.27,2.4,.49,4.16-2.93,8.22-6.01,12.73-8.41,2.57-1.37,5.25-1.95,8.12-1.74,1.45,.11,2.58-.28,2.8-1.93,.25-1.94-.5-3.24-2.11-3.71-2.74-.8-5.31,.13-7.9,.8-.37,.1-.68,.47-1.13,.28,.46-3.73,1.64-4.81,5.89-5.66,2.65-.53,5.32-.8,8.02-.73,1.8-1.57,1.95-2.6,.69-4.88Z"/>
    <path class="cls-1" d="M374.79,129.18c1.82,2.06,4.36,3.09,6.62,4.5,8.62,5.37,17.31,10.63,25.97,15.94,.48,.3,.9,.8,1.56,.37,2.67-4.88,4.91-10,8.3-14.46,1.45-1.91,3.23-3.36,5.49-4.24,1.89-.74,2.59-2.23,1.97-3.89-.64-1.71-1.97-2.16-4.07-1.37-2.75,1.04-4.94,2.85-6.75,5.04-1.85-2.59-.87-4.58,1.07-6.5,1.98-1.97,4.21-3.55,6.69-4.78,2.13-1.06,2.66-2.05,1.96-3.63-.73-1.66-2.56-2.28-4.48-1.42-3.53,1.58-6.67,3.76-9.08,6.78-1.69,2.11-2.15-.35-3.11-.7-1.32-.47-.47-1.3,.06-1.88,2.62-2.92,5.82-5.08,9.28-6.86,1.91-.98,2.5-2.21,1.79-3.75-.72-1.54-2.61-2.15-4.38-1.29-4.55,2.2-8.66,5.1-11.66,9.15-1.49,2.01-3.13,1.83-5.31,1.71,2.25-3.25,4.81-6.01,7.77-8.38,1-.8,2.14-1.44,3.21-2.16,1.76-1.18,2.17-2.48,1.25-3.97-.92-1.48-2.34-1.82-4.07-.92-4.53,2.36-7.91,6.01-11.01,9.95-2.21,2.81-4.3,5.72-6.45,8.58-1.1,1.46-2.43,2.66-4.15,4.01,.71-3.63,1.37-6.93,1.98-10.24,.39-2.15-1.05-4.15-3.17-4.53-2.24-.4-3.63,.51-4.13,2.94-1.09,5.33-2.09,10.67-3.13,16.01Z"/>
    <path class="cls-7" d="M236.66,145.72c-.81-.07-1.61-.14-2.42-.22-.69,.5-1.51,.37-2.21,.24-3.14-.59-6.33,.02-9.44-.36-5-.61-10.05,.15-15.03-.67-.27-.04-.52-.21-.77-.33-.59,.02-1.17,.03-1.76,.05-.88,.46-1.83,.81-2.62,1.39-2,1.46-2.47,3.6-2.38,5.93,7.09,.12,14.19,.04,21.27,.44,4.1,.23,8.21-.04,12.29,.33,3.28,.3,6.55,.22,9.83,.29-.04-4.03-1.35-6.16-4.32-6.88-.78-.19-1.62-.15-2.43-.22Z"/>
    <path class="cls-6" d="M254.23,115.71c-1.32,.25-3.1,2.35-3.05,3.69,.21,5.63-1.57,10.5-5.64,14.42-3.72,3.58-8.2,5.13-13.38,5.11-3.62-.01-7.02-.71-10.44-1.93,1.69,2.81,6.41,6,12.53,8.5,.39,.39,1.39,4.1,2.38,7.42,.86,2.89,3.36,5.04,6.36,5.28,.17,.01,.32,.02,.44,0,4.66-.5,9.31-1.12,13.76-2.7,.98-.35,1.97-.71,2.89-1.19,2.05-1.05-2.56-17.27-3.03-20.23-.97-6.12-1.88-12.25-2.81-18.38Z"/>
    <path class="cls-8" d="M247.47,275.43c-1.43-.51-2.92-.25-4.38-.28,1.43,.61,2.92,.16,4.38,.28Z"/>
    <path class="cls-7" d="M160.88,250.11c2.14-.74,4.59-1.53,7-2.43,2.36-.88,4.68-1.86,7.02-2.8,.72-.29,1.58-.55,1.1-1.58-.39-.82-1.07-.63-1.8-.31-4.46,1.95-9.01,3.66-13.67,5.06-.66,.2-1.45,.41-1.23,1.39,.14,.65,.71,.69,1.59,.67Z"/>
    <path class="cls-7" d="M328.51,190.84c-.95,.06-4.76,5.08-4.51,5.73,.39,.98,1.24,.98,1.79,.31,1.22-1.49,2.35-3.08,3.39-4.71,.55-.87-.12-1.23-.68-1.34Z"/>
    <path class="cls-6" d="M232.72,124.08c.78,.05,1.26-.25,1.36-.92,.09-.63-.3-.9-.91-1.01-1.86-.35-3.54-1.11-4.96-2.39-.51-.46-1.06-.55-1.51,.03-.35,.45-.31,.92,.1,1.41,.95,1.12,4.57,2.89,5.93,2.89Z"/>
    <path class="cls-6" d="M225.01,112.76c-.14-.99-.68-1.7-1.65-1.73-1.03-.03-1.77,.56-1.78,1.69-.01,1.03,.56,1.62,1.58,1.69,1.14,.07,1.64-.66,1.86-1.65Z"/>
    <path class="cls-6" d="M240.22,111.61c.11,1.17,.6,1.82,1.65,1.85,1.13,.03,1.81-.62,1.78-1.7-.02-.96-.61-1.63-1.7-1.61-1.07,.01-1.53,.66-1.73,1.46Z"/>
    <path class="cls-6" d="M242.69,102.53c-.69,.08-1.38,.16-2.07,.26-.65,.09-1.16,.43-1.02,1.13,.14,.69,.65,1.06,1.43,.91,.62-.12,1.25-.23,1.88-.25,.74-.03,1.53-.08,1.47-1.02-.06-.97-.89-1.08-1.71-1.02Z"/>
    <path class="cls-6" d="M223.33,105.59c.71-.32,2.52,.54,2.27-1.25-.22-1.52-1.81-.68-2.82-.76-.22-.02-.45,.1-.68,.15-.64,.14-1.37,.22-1.16,1.15,.18,.79,.82,.88,1.51,.78,.23-.04,.46-.03,.88-.06Z"/>
  </g>
</svg>