<?xml version="1.0" encoding="UTF-8"?>
<svg id="Capa_1" data-name="Capa 1" xmlns="http://www.w3.org/2000/svg" viewBox="0 0 386.68 444.96">
  <defs>
    <style>
      .cls-1 {
        fill: #d3c0df;
      }

      .cls-2 {
        fill: #fff;
      }

      .cls-3 {
        fill: #1c2545;
      }

      .cls-4 {
        fill: #b098c8;
      }

      .cls-5 {
        fill: #83cfeb;
      }
    </style>
  </defs>
  <g id="_3UyqtS" data-name="3UyqtS">
    <g>
      <path class="cls-1" d="M200.93,312.72c-.88,2.97-.45,6.03-.54,9.05-.55,17.11-.99,34.23-1.55,51.34-.2,6.18-5.26,10.72-11.54,10.57-1.15,.75-2.45,.8-3.77,.83-14.19,.25-28.37-.53-42.55-.7-7.21-.08-14.45,0-21.66-.4-9.92-.55-19.85-.08-29.75-.6-7.84-.41-15.66-.23-23.49-.41-1.3-.03-2.64,.1-3.74-.83-1.22-.62-2.57-.37-3.85-.47-4.97-.35-8.08-3.54-7.69-8.54,.42-5.36,1.21-10.69,1.87-16.02,1.3-10.5,2.47-21.02,3.98-31.48,1.87-12.95,2.51-26.08,5.63-38.85,1-4.07,2.93-7.78,4.37-11.68,3.13,.99,4.93-.97,6.8-2.97,2.02-2.16,4.13-4.25,6.29-6.26,.49-.46,1.1-1.13,1.8-.75,.9,.5,.45,1.42,.19,2.1-1.23,3.16-2.62,6.26-3.95,9.39-.71,1.67-.25,2.32,1.43,2.7,15.24,3.43,29.02,.69,41.04-9.58,7.88-6.74,12.87-15.2,14.94-25.38,.24-1.16,.29-2.51,1.86-2.84,3.88,.43,7.81,.03,11.68,.72,.85,.15,1.74,.16,2.43,.8,4.77,.32,9.55,.62,14.32,.98,1.08,.08,2.08-.1,3.06-.46,24.8-9.18,49.5-18.61,72.37-32.12,3.3-1.95,6.39-4.21,9.52-6.42,2.77-1.96,4.09-4.6,4.77-7.76,1.84-8.62,2.59-17.37,3.13-26.14,.86-14,.75-28.03,.49-42.04-.31-16.88-1.09-33.75-2.42-50.58-.18-2.34-.37-4.68-.51-7.03-.26-4.23-.42-3.31,3.17-3.96,1.55-1.27,3.5-1.01,5.25-1.15,11.01-.87,21.99-2.05,33-2.83,2.25-.16,4.49-.56,6.76-.58,.86,0,1.74-.21,2.53,.34,5.49,.06,5.39,.06,5.66,5.54,.3,6.16,.79,12.32,1.21,18.47,.84,.99,1.05,2.23,1.05,3.43,0,3.83,.56,7.63,.61,11.45,.12,8.78,.76,17.54,.66,26.32,.56,8.87,.54,17.76,.22,26.62-.65,18.07-1.13,36.18-5.09,53.94-2.41,10.82-6.2,21.06-13.57,29.61-6.25,7.24-13.68,13.13-21.7,18.27-23.15,14.84-48.42,25.26-73.94,35.12-5.73,1.52-11.19,3.73-16.96,6.2,1.42,.85,2.16,.2,2.91-.1,3.39-1.32,6.76-2.73,10.25-3.79,1.06-.32,2.14-.84,3.24-.04,.18,.2,.41,.4,.42,.65,.24,5.72,.29,11.44-.05,17.15-.03,.44-.34,.79-.56,1.16Z"/>
      <path class="cls-3" d="M62.35,381.58c7.58,0,15.18-.36,22.72,.12,8.27,.53,16.54-.09,24.77,.49,8.96,.63,17.94-.07,26.86,.55,8.44,.58,16.89-.1,25.3,.51,8.44,.61,16.87,.21,25.3,.44-1,2.21,.75,3.45,1.96,4.52,9.1,8.05,18.36,15.93,27.48,23.95,7.1,6.25,14.08,12.63,21.12,18.95,1.45,.6,2.62,1.46,2.81,3.17-3.22,.02-6.44,.07-9.66,.07-41.53,0-83.06,0-124.59,0-1.1,0-2.28,.31-3.23-.6-5.21-4.97-11.86-7.9-17.48-12.26-12.56-9.74-20.19-22.53-23.26-38.08-.12-.59-.08-1.21-.11-1.82Z"/>
      <path class="cls-3" d="M136.47,241.49c-1.56,7.85-4.39,15.11-9.32,21.54-11.36,14.79-31.49,21.41-49.27,16.11-1.36-.4-1.84-.81-1.17-2.3,1.74-3.87,3.3-7.82,4.56-12.06-2.94,2.94-6.03,5.74-8.76,8.86-1.88,2.14-3.59,2.65-5.85,.88-5.4-3.95-6.5-7.53-3.96-13.78,2.64-6.5,6.88-12.05,10.81-17.79,9.88-14.44,19.48-29.03,25.2-45.75,1.26-3.69,2.43-7.44,3.35-11.23,3.6-14.75,12.82-23.39,27.76-26.05,4.43-.79,8.65-2.47,13.19-2.92,11.34-1.15,22.22,6.31,25.13,17.33,.32,1.21,.09,1.61-1.02,1.68-1.13,.07-2.26,.08-3.39,.12-1.43,.84-2.71,.07-3.95-.45-2.99-1.25-5.69-2.98-8.18-5.41,.06,3.76-.5,7.37-1.52,10.91-.75,2.6-1.51,5.18-2.48,7.7-1.05,2.74-1.53,2.9-4.26,1.82-1.66-.66-3.39-1.28-4.84,.29-1.37,1.48-1.16,3.18-.23,4.84,.47,.85,1.07,1.6,1.85,2.18,1.57,1.18,1.93,2.72,1.7,4.62-1.47,12.09-2.98,24.17-4.47,36.25-.11,.93,.03,1.95-.89,2.61Z"/>
      <path class="cls-4" d="M201.4,291.01c6.26-2.54,12.53-5.05,18.77-7.64,16.29-6.76,32.35-13.98,47.56-22.99,9.74-5.77,18.99-12.12,26.88-20.32,7.37-7.66,11.72-16.89,14.43-27.01,2.29-8.54,3.47-17.24,4.31-26.04,.84-8.8,1.07-17.62,1.62-26.43,.59-9.39,.05-18.77,.46-28.14,.06-1.31-1.26-2.64,.04-3.91,.95-.79,1.98-.41,2.98-.19,9.22,2.1,18.44,4.18,27.65,6.32,.85,.2,1.7,.39,2.26,1.16,2.26,.33,2.7,1.29,2.12,3.66-7.93,32.13-16.51,64.06-28.33,95.02-3.04,7.97-6.78,15.62-10.89,23.1-6.81,12.4-17.48,20.2-30.1,25.9-23.15,10.45-47.21,18.41-71.25,26.44-2.96,.99-5.97,1.86-8.95,2.78,.02-5.92-.27-11.85,.17-17.77,.05-.64-.23-.95-.72-1.2-.06-1.07,1.11-1.67,1.03-2.74Z"/>
      <path class="cls-5" d="M348.34,135.83c-10.28-2.32-20.56-4.65-30.84-6.96-.67-.15-1.36-.22-2.04-.33-.52-.66-.57-1.43-.55-2.23,.24-8.09-.5-16.16-.64-24.25-.09-5.11-.54-10.22-.82-15.33,1.74-1.45,3.76-1.49,5.61-.57,1.91,.94,1.93,2.74,1.64,4.75-.52,3.67-.73,7.38-1.09,11.42,4.04-3.27,7.04-7.06,9.91-10.96,4.09-5.56,7.53-11.48,9.91-18,.92-2.52,2.42-3.22,4.61-2.38,2.15,.83,2.57,2.23,1.61,4.91-1.86,5.19-4.44,10.01-7.41,14.64-.81,1.25-1.19,1.6,.83,2.22,3.42,1.04,5.24-.08,6.86-2.9,1.95-3.39,4.19-6.61,6.26-9.93,1.52-2.44,3.21-3.12,5.11-1.94,1.81,1.12,2.12,3.16,.65,5.49-2.51,3.97-5.1,7.89-7.69,11.82-1.93,2.92,1.53,3.06,2.44,4.4,.89,1.31,1.48-.43,1.91-1.04,1.77-2.48,3.45-5.02,5.11-7.56,1.47-2.25,3.32-2.88,5.21-1.7,1.81,1.13,2.01,2.78,.58,5.22-1.8,3.08-3.65,6.19-6.06,8.8-2.44,2.65-3.55,5.42-2.48,9.11,1.96-2.08,3.9-4.12,5.84-6.18,1.93-2.06,3.81-2.36,5.34-.86,1.53,1.51,1.33,3.41-.52,5.5-4.49,5.08-8.99,10.17-13.45,15.28-2.48,2.85-3.9,6.36-5.85,9.54Z"/>
      <path class="cls-5" d="M306.6,62.72c-5.29,.93-10.67,1.05-16,1.57-9.12,.89-18.25,1.67-27.38,2.47-1.38,.12-2.77,.13-4.15,.18-2.9-4.64-5.79-9.29-8.71-13.92-1.94-3.06-1.79-5.3,.53-6.83,2.44-1.61,5.23-.77,7.06,2.09,1.9,2.97,3.81,5.94,6.11,9.51,1.26-11.83,1.07-22.82-2.2-33.62-.18-.58-.38-1.16-.58-1.73-.71-2.01-.36-3.67,1.75-4.51,1.97-.79,3.95,.25,4.7,2.51,1.65,4.95,2.96,9.99,3.25,15.23,.06,1.03,.29,2.04,.46,3.23,1.58-.89,2.96-1.72,4.38-2.46,1.13-.59,.84-1.6,.87-2.52,.16-4.97-1.12-9.84-1.14-14.8,0-2.7,1.23-4.07,3.62-4.04,1.66,.02,2.58,.79,2.75,2.48,.5,5.01,1.05,10.01,1.54,15.02,.18,1.78,1.75,2.64,4.43,2.46,1.96-.13,1.29-1.6,1.23-2.53-.17-2.86-.48-5.71-.84-8.55-.33-2.64,.92-4.48,3.28-4.65,2.42-.17,3.16,.78,3.45,3.74,.47,4.75,.67,9.51,.63,14.29-.02,2.44,2.56,3.03,3.8,5.34,.51-3.4,.74-6.12,.78-8.87,.04-2.6,1.32-3.99,3.47-3.99,2.21,0,3.4,1.37,3.28,4.03-.26,5.47-.63,10.93-.91,16.39-.21,4.17-.25,8.34,.53,12.48Z"/>
      <path class="cls-5" d="M136.47,241.49c1.35-11.37,2.69-22.75,4.05-34.12,.23-1.9,.45-3.8,.76-5.68,.21-1.29-.28-2.11-1.29-2.85-1.58-1.17-2.75-2.67-3.14-4.65-.65-3.3,1.86-5.76,5.09-4.86,1.31,.37,2.51,1.14,3.96,1.82,2.89-7.16,5.53-14.41,4.72-23.07,3.93,4.26,7.95,7.15,13.12,8.06,1.1,4.44,2.18,8.9,3.35,13.32,.14,.54,.07,1.29,1.04,1.56,2.86,.8,3.86,2.78,2.45,5.33-.98,1.78-.93,3.34-.49,5.18,2.46,10.37-3.76,20.78-14.08,23.62-.93,.26-1.84,.42-2.52,1.17-1.69,.28-3.35,.74-5.09,.65-1.74-.09-1.58,.61-.87,1.82,1.27,2.17,3.6,3.47,4.65,5.79-.44,2.61-.96,5.22-1,7.88-4.9-.32-9.79-.65-14.69-.97Z"/>
      <path class="cls-3" d="M152.17,234.58c-2.92-2-4.89-4.8-6.95-8.32,3.03,.48,5.59-.8,8.26,.06-.44,2.75-.87,5.51-1.31,8.26Z"/>
      <path class="cls-3" d="M201.4,291.01c1.63,1.65-.16,2.03-1.03,2.74-4.71,1.24-9.16,3.17-13.68,4.93-.89,.35-2.04,1.28-2.68-.17-.64-1.47,.82-1.72,1.71-2.04,5.19-1.92,10.19-4.4,15.68-5.46Z"/>
      <path class="cls-2" d="M168.08,397.36c-.63,2.55-1.53,5.17-2.68,7.7-1.91,4.22-4.4,8.06-7.47,11.53-.65,.73-1.45,1.61-2.39,.79-1.02-.88-.07-1.68,.56-2.4,4.4-5.04,7.61-10.72,9.33-17.21,.11-.42,.28-.82,.41-1.24,.25-.85,.9-1.04,1.62-.84,.75,.21,.65,.91,.62,1.67Z"/>
      <path class="cls-3" d="M322.5,105.63c.24,.15,.62,.35,.96,.6,3.08,2.3,5.23,5.28,6.43,8.91,.27,.83,.76,1.98-.61,2.4-1.24,.38-1.38-.72-1.65-1.51-1.1-3.2-2.91-5.88-5.67-7.88-.59-.43-1.06-.92-.81-1.73,.18-.56,.58-.84,1.34-.8Z"/>
      <path class="cls-3" d="M160.76,191.58c.03,1.36-.58,2.19-1.76,2.25-1.1,.06-2.01-.52-2.11-1.77-.1-1.3,.5-2.27,1.86-2.25,1.06,.02,1.96,.62,2.02,1.77Z"/>
      <path class="cls-3" d="M159.7,183.14c-.35,1.31-1.68,1.13-2.67,1.41-.84,.24-1.78,1.05-2.56-.1-.33-.48-.27-1.16,.15-1.43,1.32-.88,2.8-1.39,4.43-1.02,.48,.11,.64,.54,.66,1.14Z"/>
      <path class="cls-3" d="M164.3,203.71c-.12,1.09-.84,1.3-1.67,1.17-.92-.15-1.96-.35-2.06-1.54-.08-.94,.5-1.49,1.45-1.22,.92,.26,2.14,.24,2.27,1.6Z"/>
    </g>
  </g>
</svg>