<?xml version="1.0" encoding="UTF-8"?>
<svg id="Capa_1" data-name="Capa 1" xmlns="http://www.w3.org/2000/svg" xmlns:xlink="http://www.w3.org/1999/xlink" viewBox="0 0 779.21 864">
  <defs>
    <style>
      .cls-1 {
        fill: #83ceeb;
      }

      .cls-2 {
        fill: #252f55;
      }

      .cls-3 {
        fill: #d1bedc;
      }

      .cls-4 {
        fill: #699fb4;
      }

      .cls-5 {
        fill: #1b2545;
      }

      .cls-6 {
        clip-path: url(#clippath);
      }

      .cls-7, .cls-8 {
        fill: none;
      }

      .cls-9 {
        fill: #648190;
      }

      .cls-10 {
        fill: #ad2b17;
      }

      .cls-8 {
        stroke: #fff;
        stroke-linecap: round;
        stroke-linejoin: round;
        stroke-width: 3.84px;
      }

      .cls-11, .cls-12 {
        fill: #181b33;
      }

      .cls-13 {
        fill: #e84a23;
        filter: url(#drop-shadow-1);
      }

      .cls-14 {
        fill: #df3214;
      }

      .cls-12 {
        stroke: #eeeae4;
        stroke-miterlimit: 10;
        stroke-width: 1.55px;
      }
    </style>
    <filter id="drop-shadow-1" filterUnits="userSpaceOnUse">
      <feOffset dx="7" dy="7"/>
      <feGaussianBlur result="blur" stdDeviation="9"/>
      <feFlood flood-color="#7b3232" flood-opacity=".75"/>
      <feComposite in2="blur" operator="in"/>
      <feComposite in="SourceGraphic"/>
    </filter>
    <clipPath id="clippath">
      <path class="cls-7" d="M495.67,362.26l-128.01,125.82-104.23-182.27,34.97-112.44,93.58-78.75,120.61-50.74,57.73,12.59,181.31,84.31s29.6,62.32,14.86,77.59c-14.74,15.27-125.29,93.73-125.29,93.73l-56.27,69.74-89.26-39.58Z"/>
    </clipPath>
  </defs>
  <polygon class="cls-10" points="325.46 476.19 329.95 591.23 661.46 202.58 325.46 476.19"/>
  <polygon class="cls-13" points="663.82 200.26 127.77 437.81 535.68 543.39 663.82 200.26"/>
  <polygon class="cls-14" points="276.31 476.26 329.95 591.23 360.77 498.12 663.82 200.26 276.31 476.26"/>
  <line class="cls-8" x1="268.28" y1="562.6" x2="185.18" y2="633.66"/>
  <line class="cls-8" x1="314.91" y1="621.14" x2="108.74" y2="797.45"/>
  <g class="cls-6">
    <g>
      <path class="cls-5" d="M426,237.37c1.81-.44,3.58-.05,5.34,.35,.7,.16,.93-.01,.82-.65-.14-.83,.29-1.12,.98-1.46,3.9-1.97,6.04-5.21,6.61-9.52,.04-.31-.11-.68,.28-1.01,3.33,2.34,6.9,4.24,10.88,5.31,2.88,.77,5.8,1.24,8.78,.97,.88-.08,1.11,.2,1.16,1,.06,1.11,.22,2.22,.32,3.34,.07,.71,.21,1.12,1.15,1.03,1.86-.18,3.16,1.09,3.19,2.95,.03,2.14-.97,3.84-2.46,5.27-.57,.55-.8,1.08-.79,1.88,.05,8.08-5.54,13.69-13.61,13.73-2.5,.01-4.92-.39-7.31-1.2,1.56,2.06,3.64,3.42,5.85,4.61,1.16,.62,2.36,1.17,3.64,1.47,.89,.21,1.02,.71,.88,1.49-.2,1.15-.35,2.3-.52,3.45,2.66,.09,5.32,.2,7.98,.27,1.94,.05,2.15-.17,2.23-2.1,.02-.42-.09-.88,.21-1.26,.23-3.29,1.22-6.37,2.45-9.4,3.62-8.94,3.6-17.9,.1-26.87-.23-.58-.39-1.12-.29-1.81,.15-1.11-.46-2.07-1.15-2.91-3.16-3.82-7.34-6.04-12.01-7.33-4.8-1.32-9.37-.92-13.89,1.6-3.1,1.73-5.89,3.52-7.6,6.69-1.08,2-1.27,4.27-1.99,6.38-.42,1.24-.82,2.49-1.23,3.74Z"/>
      <circle class="cls-9" cx="463.1" cy="245.45" r="1.86"/>
      <path class="cls-11" d="M516.24,628.03l1.87,19.86,2.49,22.96v.62s9.31,0,9.31,0l-.62-11.79,11.79,11.17,.62,.62h31.65s14.27,0,14.27,0c0,0,.62-18-10.55-24.2,0,0-16.76-4.96-18.62-11.79,0,0-4.97-6.83-4.97-14.27l-37.23,6.83Z"/>
      <path class="cls-11" d="M438.05,657.83l1.24,1.86c3.72,6.2,0,11.79,0,11.79h-45.92s-6.83-10.54-6.83-10.54l-6.2,10.55h-10.55s3.72-13.65,3.72-13.65l9.3-35.37,40.34,9.3s-1.24,7.45-1.24,11.79c0,0,1.24,4.34,11.79,11.17,0,0,3.1,1.24,4.34,3.1Z"/>
      <path class="cls-3" d="M429.87,269.79c5.28-.06,10.54,.39,15.82,.37,1.82,0,3.66,.26,5.5,.2,.84-1.19,.69-2.6,.86-3.93,.08-.59-.33-1.04-.88-1.22-3.38-1.11-6.36-2.9-9.01-5.27-.1-.09-.26-.15-.29-.12,2.38,.92,4.96,1.05,7.57,1.03,7.07-.06,12.98-5.71,13.19-12.8,.04-1.44,.34-2.59,1.39-3.66,1.14-1.16,1.77-2.68,1.84-4.35,.08-2.04-.92-3.39-2.95-3.69-1.05-.16-1.47-.59-1.42-1.59,0-.15,0-.29-.01-.44-.39-3.63-.6-3.3-3.34-3.3-5.77,0-11.09-1.85-15.95-4.98-2.36-1.52-2.48-1.84-3.1,1.26-.7,3.5-2.73,6.08-5.82,7.83-.46,.26-1.13,.4-1.25,.94-.32,1.44-1.25,1.16-2.24,.97-1.28-.25-2.6-.59-3.79,.34-.9,1-1.15,2.25-1.39,3.51,.17,2.71,1.76,4.5,3.84,6.02,2.28,1.67,3.62,3.97,3.29,6.81-.56,4.83-1.45,9.62-2.08,14.44-.07,.56-.33,1.15,.21,1.64Z"/>
      <path class="cls-3" d="M397.87,162.82c-3.05-1.64-6.1-3.26-9.13-4.93-5.25-2.89-10.47-5.82-15.71-8.73-.21-.12-.41-.27-.61-.4,1.35-1.59,2.66-3.23,3.39-5.2,1.75-4.76,3.27-9.59,4.64-14.47,.12-.43,.25-.87,.47-1.25,.57-1.01,1.44-1.37,2.53-.9,1,.44,1.63,1.15,1.28,2.35-.74,2.56-1.49,5.12-2.27,7.83,1.09-.65,2.01-1.23,2.96-1.76,.58-.32,.8-.82,.99-1.41,1.05-3.22,2.37-6.33,3.99-9.32,.82-1.51,1.94-2.03,3.11-1.42,1.17,.6,1.41,1.83,.58,3.37-1.06,1.98-1.96,4.03-2.82,6.09-.37,.87-.35,1.31,.84,1.35,2.68,.09,2.66,.15,3.86-2.33,1.13-2.33,2.27-4.65,3.45-6.95,.67-1.3,1.82-1.7,2.97-1.15,1.09,.52,1.43,1.75,.72,3.07-1.53,2.85-2.9,5.78-4.24,8.73-.35,.78-.36,1.34,.28,1.99,.72,.72,1.31,1.58,2.01,2.46,1.06-1.93,2.05-3.82,3.12-5.66,1.02-1.77,2.22-3.43,3.55-4.98,.89-1.03,2.11-1.22,3.02-.53,1.05,.8,1.22,1.94,.2,3.13-4,4.67-6.24,10.26-8.38,15.89-.64,1.69-.85,3.55-1.33,5.63,2.25-1.7,4.28-3.26,6.33-4.78,1.01-.75,2.13-1.16,3.33-.46,1.11,.64,1.52,1.65,1.4,2.91-.08,.83-.58,1.31-1.2,1.78-4.46,3.34-8.89,6.71-13.34,10.07Z"/>
      <path class="cls-5" d="M449.36,252.32c.49-.06,.95,0,1.06-.5,.13-.57-.28-.81-.73-.9-1.32-.26-2.47-.81-3.49-1.69-.32-.27-.73-.37-1.04,0-.35,.4-.2,.83,.16,1.16,1.18,1.07,2.57,1.72,4.04,1.94Z"/>
      <path class="cls-5" d="M441.5,244.37c-.04,.57,.39,1.03,1.09,1.08,.79,.05,1.28-.43,1.29-1.25,.01-.77-.49-1.19-1.18-1.22-.72-.03-1.16,.4-1.2,1.39Z"/>
      <path class="cls-5" d="M455.89,244.7c1-.03,1.41-.49,1.39-1.2-.02-.71-.5-1.19-1.22-1.17-.79,.02-1.28,.5-1.22,1.31,.05,.73,.49,1.14,1.06,1.06Z"/>
      <path class="cls-5" d="M442.52,239.09c.38,0,.62,0,.86,0,.54,.01,1-.17,1.03-.76,.04-.66-.49-.73-1-.72-.24,0-.48,0-.72,.01-.71,.05-1.69,.02-1.66,.91,.04,.97,1.04,.45,1.49,.55Z"/>
      <path class="cls-5" d="M455.67,238.52c.73-.22,1.98,.21,2.07-.91,.07-.91-1.03-.56-1.63-.59-.7-.04-1.59-.04-1.68,.89-.07,.82,.72,.54,1.24,.61Z"/>
      <g>
        <path class="cls-3" d="M575.66,170.84c1.56,1,3.39,1.33,5.07,2.06,3.85,1.68,7.83,3.07,11.73,4.63,3.81,1.53,7.59,3.13,11.39,4.69,.22,.09,.47,.12,.7,.18,.93-5.75,4.29-10.45,6.7-15.56,.46-.96,1.04-1.87,1.53-2.81,.54-1.03,.19-2.31-.72-2.81-1.06-.59-2.22-.29-2.85,.84-1.23,2.2-2.39,4.44-3.56,6.63-1.84-2.7-.68-5.17,.59-7.62,1.13-2.18,1.65-4.57,2.39-6.89,.38-1.17-.12-2.11-1.15-2.52-1.04-.41-2.07-.03-2.57,1.05-.41,.88-.63,1.84-.94,2.76-.59,1.75-1.02,3.56-2.05,5.13-.09-.02-.2,0-.26-.05-.91-.64-2.21-1.11-2.61-1.98-.41-.9,.62-2.02,.92-3.08,.66-2.29,1.43-4.54,2.13-6.82,.44-1.45,0-2.47-1.18-2.83-1.24-.38-2.27,.24-2.75,1.7-.87,2.69-1.75,5.37-2.56,8.08-.42,1.42-1.09,2.32-2.76,2.08-.72-.1-1.43,.14-2.37,.59,.24-.77,.38-1.31,.57-1.82,1.17-3.27,1.81-6.65,2.19-10.09,.19-1.73-.42-2.68-1.77-2.81-1.3-.13-2.19,.69-2.33,2.4-.29,3.57-1.14,7.01-2.36,10.35-1.37,3.73-2.88,7.41-5.57,10.69-.38-2.54-.73-4.93-1.09-7.33-.14-.94-.36-1.85-1.3-2.31-.94-.46-1.92-.77-2.9-.1-1.03,.71-1.39,1.71-1.21,2.93,.48,3.18,.97,6.35,1.41,9.53,.05,.38,.61,1.15-.47,1.12Z"/>
        <path class="cls-5" d="M588.03,167.39c-.1,.47,.11,.77,.44,1.03,2.16,1.71,3.68,3.85,4.42,6.53,.12,.44,.36,.85,.93,.7,.64-.18,.61-.66,.46-1.17-.86-3-2.57-5.42-5.04-7.31-.55-.42-.88-.16-1.2,.23Z"/>
      </g>
      <path class="cls-4" d="M569.83,167.86l35.38,14.27s-5.58,15.52-15.51,29.79c0,0-17.06,24.52-19.54,26.38l-28.54,29.17-25.44,21.72-21.1,15.52-7.45,4.35-14.28-37.23s11.17-4.97,21.1-14.9l28.54-25.45s21.1-21.72,27.92-31.65c0,0,11.79-16.76,13.03-20.48l5.89-11.48Z"/>
      <polygon class="cls-5" points="476.47 362.43 502.54 415.79 526.13 470.4 537.93 502.67 551.59 546.1 562.15 588.92 568.36 625.53 506.93 632.99 501.34 600.72 494.5 570.32 485.19 541.15 475.26 511.37 459.11 471.03 451.66 422.01 445.44 373.61 476.47 362.43"/>
      <path class="cls-2" d="M475.22,355.6s-1.86,13.65-5.58,18c0,0-6.2,9.93-17.37,13.66l3.73,40.34,5.59,35.99v38.48s-4.33,42.2-10.53,58.34l-14.26,55.85-4.34,21.1-60.82-15.5,14.26-57.1,9.3-36.62s4.96-27.93,4.96-40.34c0,0-1.25-35.37-5.6-54.61l-3.73-31.03-3.01-29.3,87.4-17.26Z"/>
      <polygon class="cls-5" points="477.71 358.71 385.86 352.52 388.97 384.79 477.71 361.19 477.71 358.71"/>
      <path class="cls-1" d="M483.28,271.2l-25.44-2.48-22.9-1.35-29.23-1.74-22.34-14.27s-9.93-3.72-8.69-16.13c0,0,2.48-20.48,7.44-29.17,0,0,11.16-27.31,14.89-31.03l5.58-8.07-32.89-21.71-15.51,27.93-11.16,27.93-5.58,20.48s-4.34,18,1.87,34.75c0,0,1.86,10.55,19.24,25.44l24.21,14.89-1.23,51.51s0,8.69,6.83,9.93l85.64,5.57s9.31,1.24,11.17-6.83l13.64-68.27s.62-14.89-13.04-17.99l-2.48,.62Z"/>
      <line class="cls-12" x1="558.13" y1="645.7" x2="563.09" y2="640.74"/>
      <line class="cls-12" x1="553.16" y1="641.98" x2="559.37" y2="637.02"/>
      <line class="cls-12" x1="417.88" y1="646.97" x2="422.22" y2="643.87"/>
      <line class="cls-12" x1="419.74" y1="650.7" x2="424.08" y2="646.35"/>
      <path class="cls-5" d="M429.87,269.79c.51-3.64,1.01-7.29,1.53-10.93,.3-2.06,.62-4.12,.96-6.17,.08-.47,0-.86-.26-1.23-.17-.24-.33-.49-.44-.75-.84-2.02-1.89-3.75-3.95-4.91-1.79-1-2.39-3.07-3.1-4.92-1.69,4.33-4.05,8.25-7.17,11.71-4.63,5.13-8.54,10.68-10.14,17.56-.58,3.65-.44,7.2,1.6,10.42,2.32,3.67,5.62,5.71,10.06,5.63,1.57-.03,2.92-.62,4.05-1.74,3.66-3.63,5.58-8.13,6.54-13.1,.1-.52,.21-1.05,.32-1.57Z"/>
      <circle class="cls-9" cx="428.97" cy="246.7" r="1.86"/>
    </g>
  </g>
</svg>