<?xml version="1.0" encoding="UTF-8"?>
<svg id="Capa_1" data-name="Capa 1" xmlns="http://www.w3.org/2000/svg" viewBox="0 0 386.68 444.96">
  <defs>
    <style>
      .cls-1 {
        fill: #34b296;
      }

      .cls-2 {
        fill: #5eb2ca;
      }

      .cls-3 {
        fill: #1c2545;
      }

      .cls-4 {
        fill: #009579;
      }

      .cls-5 {
        fill: #83cfeb;
      }
    </style>
  </defs>
  <g id="R6nhXC">
    <g>
      <path class="cls-5" d="M229.78,350.52c-4.51-2.15-6.77-5.74-6.91-10.7-.55-18.6-1.09-37.19-1.65-55.79-.17-5.53-.48-11.05-.55-16.58-.02-1.76-.61-2.11-2.25-2.2-15.17-.79-30.29-2.06-45.25-4.78-15.97-2.91-31.62-6.95-45.94-14.9-16.96-9.42-30.09-23.09-41.69-38.33-18.32-24.07-31.85-50.84-43.65-78.56-1.85-4.34-3.32-8.84-5.29-13.11-1.24-2.69-.55-3.84,2.14-4.29,.66-.96,1.64-1.4,2.7-1.77,12.36-4.35,24.72-8.73,37.12-12.98,1.42-.49,2.84-.95,4.38-.8,2.29-.73,4.99-2.55,6.76-1.89,1.84,.69,2.01,4.1,2.91,6.32,9.69,23.79,20.83,46.82,35.76,67.84,6.96,9.79,14.61,18.99,24.73,25.76,4.3,2.88,9.15,4.55,14.05,6.08,.42,.13,.78,.09,1-.35,2.96-.01,5.64,1.24,8.47,1.84,14.18,3.01,28.54,4.27,42.98,5.17,10.14,.63,20.28,.75,30.39,.38,9.79-.36,19.66-.39,29.35-2.25,4.71,.8,9.4-.11,14.08-.31,5.5-.24,11-.74,16.51-.93,4.5-.15,8.94,.87,13.44,.81,19.5,1.37,36.89,18.44,39.24,38.15,2.41,20.21,5.11,40.39,7.68,60.58,1.44,11.34,2.86,22.68,4.34,34.02,.57,4.32,.1,8.22-3.72,11.03-.69,.97-1.69,1.37-2.81,1.58-1.68,.31-3.37,.65-5.09,.6-14.09-.38-28.15,.64-42.23,.64-13.58,0-27.15,.46-40.72,.77-9.55,.22-19.11,.08-28.65,.48-5.42,.23-10.84,.71-16.27,.51-2-.07-4.1-.01-5.36-2.07Z"/>
      <path class="cls-4" d="M229.78,350.52c5.67,2.1,11.5,.92,17.27,.86,.89,0,1.78-.27,2.68-.29,16.46-.23,32.94-.21,49.39-.74,11.74-.38,23.5-.05,35.22-.68,9.64-.52,19.27-.17,28.9-.46,2.62-.08,5.16-.58,7.68-1.21-.86,8.78-1.71,17.57-2.6,26.35-1.09,10.78-2.35,21.54-3.3,32.34-.62,7.14-.43,7.16-7.45,7.16H183.75c-1.07,0-2.14,0-3.74,0,4.59-5.98,8.77-11.58,13.13-17.05,11.65-14.62,23.37-29.18,35.06-43.77,.62-.77,1.43-1.43,1.58-2.51Z"/>
      <path class="cls-2" d="M279.25,204.87c-1.53,2.34-4.15,1.64-6.16,1.75-14.91,.86-29.83,1.91-44.77,1.28-11.77-.5-23.52-1.22-35.22-2.83-7.04-.97-13.97-2.29-20.9-3.77-1.48-.32-2.89-.81-4.07-1.8-7.07-9.33-12.48-19.68-17.94-29.95-10.12-19.07-19.04-38.72-27.39-58.63-1.95-4.64-2.19-3.39,2.25-5.39,.64-.29,1.27-.58,1.91-.87,1.76-1.97,4.33-2.48,6.6-3.39,10.78-4.31,21.48-8.85,32.29-13.1,1.31-.51,2.59-1.05,4.04-.89,4.96-1.84,4.86-1.8,6.96,3.05,10.88,25.18,21.96,50.27,36.75,73.5,3.14,4.93,6.95,8.87,12.24,11.67,17.16,9.09,34.87,16.94,52.74,24.47,1.59,1.44,1.84,3.06,.67,4.88Z"/>
      <path class="cls-3" d="M276.25,127.63c-2.24-2.3-4.75-4.35-6.42-7.16-1.39-2.34-2.28-4.75-.62-7.35,1.69-2.66,4.32-2.69,6.97-2.34,2.91,.39,5.49,1.8,7.91,3.02,.8-.23,.61-.68,.59-1.03-.36-5.52,1.41-7.06,6.9-5.58,7.32,1.98,13.5,6.07,19.17,10.99,6.66,5.78,11.96,12.78,17.08,19.83,5.43,7.48,5.29,16,2.35,24.51-3.45,10-9.75,18.12-17.19,25.46-6.89,3.14-15.68,.33-19.01-6.2-2.15-4.21-3.65-8.71-5.35-13.12-.84-2.18-.1-3.71,2-4.64,.92-.41,1.88-.73,2.66-1.4,1.49-1.29,2.1-2.92,1.72-4.86-.37-1.89-1.73-2.48-3.47-2.79-2.88-.52-3.4-1.66-2.54-4.47,.54-1.77,2.61-3.34,1.62-5.23-.87-1.67-3.18-1.96-4.79-2.97-2.63-1.66-5.47-3.06-7.33-5.69-1.85-2.6-.91-4.38,2.42-4.7-1.68-1.31-3.83-2.07-4.69-4.26Z"/>
      <path class="cls-1" d="M276.25,127.63c2.01,1.46,4.02,2.93,6.08,4.43-.69,.69-1.41,.33-2.03,.36-2.32,.14-2.42,1.43-1.61,3.09,.53,1.09,1.44,1.91,2.4,2.68,2.69,2.15,5.65,3.88,8.78,5.24,2.04,.89,2.88,1.75,1.48,3.89-.81,1.25-1.27,2.73-1.86,4.11-.73,1.73-.25,2.86,1.74,2.73,2.83-.17,4.4,1.03,4.77,3.81,.37,2.81-1.26,5.45-3.93,6.41-3.48,1.26-3.69,1.67-2.39,4.94,1.53,3.82,3.01,7.66,4.66,11.43,2.1,4.81,5.8,7.31,11.12,7.26,2.52-.02,5.03-.04,7.55-.05,.62,4.01,1.3,8.01,1.85,12.03,.34,2.49,.91,4.36,4.16,3.76,1.38-.26,2.98-.39,4.35,.46-2.6,.02-5.21,.07-7.81,.07-10.7,0-21.35,.93-32,1.75-1.52,.12-3.26,.63-4.3-1.17,.06-1.67-.23-3.29-.67-4.88,0-.57,.01-1.14,.02-1.71,1.58-3.14,4.91-5.02,6.18-8.65-2.65-.6-5.59,.1-7.98-1.6-4.53-1.33-9.07-2.66-12.78-5.76-7.51-6.27-9.61-16.06-5.32-24.99,.8-1.67,1.28-3.13,.73-5.1-.75-2.66,.9-4.59,3.71-4.79,.95-.07,1.14-.7,1.45-1.27,1.08-1.92,2.14-3.86,3.15-5.82,2.33-4.56,4.9-8.96,8.51-12.66Z"/>
      <path class="cls-1" d="M82.92,95.73c-11.33,3.98-22.66,7.96-33.99,11.94-3.4,1.2-6.8,2.4-10.2,3.6,.08-1.43-1.13-2.05-1.9-2.92-4.72-5.37-9.94-10.24-15.14-15.13-1.75-1.65-3.14-3.42-.97-5.62,2.03-2.06,4.12-1.18,5.8,.53,1.83,1.86,3.42,3.95,5.48,5.65,1.02-3.13,1.02-5.59-1.39-7.81-3.19-2.93-5.64-6.53-8.17-10.04-1.32-1.83-1.54-3.6,.39-4.99,1.95-1.41,3.82-.89,5.28,.95,2.05,2.6,4.03,5.27,6.09,7.86,.57,.72,1.41,1.98,2.23,.43,.71-1.34,3.87-1.6,2.01-4.11-2.87-3.88-5.8-7.71-8.69-11.57-1.44-1.93-2.28-3.9,.22-5.68,1.9-1.35,3.82-.78,5.52,1.73,2.6,3.83,5.41,7.5,8.37,11.05,1.14,1.37,5.74,1.78,6.95,.53,.98-1.01-.23-1.6-.68-2.2-3.33-4.45-6.13-9.2-8.4-14.26-.64-1.42-1.11-2.89-.03-4.27,1.01-1.28,2.47-1.23,3.88-.9,1.16,.27,1.84,1.14,2.31,2.21,3.47,7.93,8.62,14.7,14.34,21.11,2.29,2.57,5,4.6,8.01,7.45-.65-3.67-1.26-6.64-1.68-9.63-.29-2.06-.85-4.22,.44-6.16,1.21-1.81,3.07-2.11,5.07-1.91,2.01,.2,2.62,1.67,2.92,3.33,1.18,6.6,2.18,13.24,3.53,19.81,.62,3.04,.01,6.45,2.37,9.04Z"/>
      <path class="cls-1" d="M169.9,87.28c-14.31,5.79-28.62,11.59-42.93,17.38-3.07-6.61-8.51-11.39-13.04-16.86-1.67-2.01-3.5-3.89-5.23-5.84-1.57-1.77-1.37-3.46,.32-5.01,1.68-1.54,3.29-1.22,4.74,.33,2.04,2.18,4.02,4.4,6.16,6.75,1.29-3.49,.48-6.05-1.83-8.55-2.66-2.88-4.61-6.33-6.67-9.67-1.33-2.16-1.17-4.16,1.09-5.41,2.14-1.18,3.73-.18,4.95,1.86,1.55,2.58,3.27,5.06,5.01,7.52,.54,.77,1.2,2.57,2.36,1.05,.97-1.26,4.34-1.64,2.15-4.52-2.86-3.77-5.28-7.83-7.78-11.84-1.31-2.1-1.69-3.91,.52-5.49,1.81-1.3,3.86-.52,5.46,1.95,2.08,3.2,4.1,6.45,6.21,9.63,3.07,4.61,3.09,4.59,8.87,2.76-2.36-4.43-5.35-8.49-7.1-13.2-.45-1.22-.9-2.46-1.44-3.64-1.03-2.28-.48-3.99,1.85-4.86,2.37-.89,3.92,.31,4.69,2.47,1.59,4.47,3.69,8.68,6.2,12.7,3.21,5.13,6.85,9.92,11.01,14.31,.72,.76,1.36,1.76,3.01,1.85-.44-3.95-.91-7.78-1.28-11.63-.18-1.9,.22-3.58,2.29-4.43,2.01-.83,3.75-.36,5.33,.91,.99,.79,1.38,1.93,1.51,3.18,.76,7.38,1.54,14.75,2.31,22.13,.15,1.46-.17,3.06,1.22,4.16Z"/>
      <path class="cls-3" d="M276.8,188.02c3.07,.17,6.1,.85,9.79,.43-2.39,3.95-4.38,7.51-7.99,9.82-.6-3.42-1.2-6.83-1.8-10.25Z"/>
      <path class="cls-3" d="M224.9,265.06c-.99,.15-1.99-.16-2.03-1.21-.04-1.3,1.14-1.49,2.18-1.49,5.83,0,11.61-.61,17.38-1.3,1.29-.15,2.57-.38,3.86-.54,1-.12,1.89,.14,2.06,1.24,.18,1.22-.9,1.11-1.64,1.23-5.44,.89-10.91,1.46-16.42,1.71-1.8,.08-3.6,.23-5.39,.35Z"/>
      <path class="cls-3" d="M252.61,367.52c-1.16,8.99-.82,17.64,1.31,26.2,.19,.76,.59,1.71-.57,1.97-1.27,.28-1.68-.6-1.95-1.72-2.15-8.77-2.49-17.62-1.25-26.55,.12-.89,.06-1.99,1.34-1.93,1.58,.07,1.04,1.38,1.12,2.03Z"/>
      <path class="cls-3" d="M274.4,150.3c-.13,1.46-.82,2.13-2.15,2.1-1.34-.03-2.08-.82-2.04-2.06,.04-1.23,.92-2.15,2.13-2.04,1.07,.09,2.05,.79,2.06,2.01Z"/>
      <path class="cls-3" d="M274.91,140.37c1.24,.84,3.25,.86,3.76,2.8,.2,.73-.34,1.59-1.15,1.25-1.49-.62-3.38-.89-3.97-2.72-.21-.63,.32-1.34,1.36-1.33Z"/>
      <path class="cls-3" d="M267.79,161.26c-.2,1.04-1.06,1.29-1.98,1.34-.85,.04-1.64-.26-1.71-1.26-.09-1.44,1.12-1.18,1.9-1.2,.71-.02,1.7-.16,1.78,1.13Z"/>
      <path class="cls-3" d="M148.81,89.56c-1.03-.17-1.44-.87-1.1-1.91,1.33-4.09,3.59-7.55,7.17-10.05,.58-.4,1.18-.8,1.85-.07,.6,.65,.57,1.32-.09,1.81-3.24,2.4-5.39,5.54-6.62,9.36-.22,.69-.66,.83-1.2,.85Z"/>
    </g>
  </g>
</svg>