<?xml version="1.0" encoding="UTF-8"?>
<svg id="Capa_1" data-name="Capa 1" xmlns="http://www.w3.org/2000/svg" viewBox="0 0 625.24 476.73">
  <defs>
    <style>
      .cls-1 {
        fill: #d3c0df;
      }

      .cls-2 {
        fill: #f5f5f5;
      }

      .cls-3 {
        fill: #455a64;
      }

      .cls-4 {
        fill: #34b296;
      }

      .cls-5, .cls-6 {
        fill: #1c2545;
      }

      .cls-7 {
        fill: #009579;
      }

      .cls-8 {
        fill: #192e35;
      }

      .cls-6 {
        stroke: #1c2545;
        stroke-miterlimit: 10;
        stroke-width: .5px;
      }

      .cls-9 {
        fill: #83cfeb;
      }

      .cls-10 {
        fill: #b79cc9;
      }

      .cls-11 {
        fill: #8c8491;
      }

      .cls-12 {
        fill: #1d1d1b;
      }
    </style>
  </defs>
  <path class="cls-9" d="M530.01,348.88c-.1,.04-.59-1.45-1.79-3.64-.59-1.1-1.4-2.35-2.39-3.66-1.02-1.3-2.23-2.65-3.63-3.93-1.42-1.26-2.9-2.32-4.29-3.19-1.41-.85-2.74-1.52-3.9-1.99-2.31-.96-3.83-1.29-3.81-1.39,0-.04,.39,.03,1.08,.18,.35,.07,.77,.17,1.24,.32,.48,.15,1.03,.3,1.62,.54,1.19,.43,2.56,1.08,4.01,1.92,1.44,.86,2.95,1.93,4.4,3.22,1.43,1.3,2.66,2.69,3.67,4.02,.99,1.35,1.78,2.64,2.34,3.78,.31,.55,.51,1.09,.71,1.55,.21,.46,.35,.87,.46,1.2,.22,.67,.33,1.05,.29,1.06Z"/>
  <path class="cls-10" d="M495.56,266.52c.06,.33,.16,.77,.21,1.22,.54,4.52,1.4,8.98,2.72,13.34,.24,.78,.52,1.66-.54,1.98-1.04,.31-1.15-.65-1.34-1.3-1.37-4.62-2.33-9.33-2.8-14.13-.05-.55-.26-1.24,.56-1.48,.4-.11,.78-.04,1.19,.37Z"/>
  <g>
    <g id="OYJhNN">
      <g>
        <path class="cls-9" d="M417.29,172.72c-2.02-.84-4.13-1.49-6.03-2.64-7.46-4.52-11.98-11-13.26-19.69-.31-2.12-.23-4.24-.12-6.36,.03-.6-.11-.92-.55-1.3-3.14-2.64-5.36-5.87-6.15-9.98-.78-4.01,1.29-7.14,5.24-8,.59-.13,1.1,.06,1.65,.06,.14-.13,.32-.22,.51-.19,.8,.13,.9-.33,.97-.98,.3-2.78,.45-5.57,.88-8.33,.05-.33,.13-.66,.19-.99,.13-.65,.47-.96,1.17-.88,1.6,.18,3.2,.07,4.81,.08,7.69,.03,15.01-1.72,22.04-4.71,4.78-2.03,9.35-4.46,13.56-7.53,.24-.18,.49-.33,.75-.48,.63-.37,.96-.18,1.06,.53,.17,1.18,.25,2.37,.48,3.55,1.63,8.3,6.18,14.32,13.97,17.77,.93,.41,1.27,.97,1.27,1.96,0,2.45,.02,2.4,2.38,1.91,1.85-.39,3.69-.92,5.62-.81,4.97,.03,7.79,4.04,6.31,9.17-1.5,5.19-4.73,8.98-9.7,11.18-.64,.28-.99,.63-1.22,1.29-.85,2.48-1.88,4.89-3.38,7.03-.89,1.28-.98,2.51-.75,3.97,1.15,7.45,2.23,14.92,3.35,22.38,.63,4.23,1.27,8.45,1.95,12.67,.16,1,0,1.52-1.16,1.68-4.71,.64-9.41,1.38-14.12,2.07-4.26,.63-8.53,1.24-12.79,1.88-4.63,.69-9.26,1.4-13.88,2.11-.5,.08-.72-.05-.8-.61-.78-5.48-1.6-10.95-2.41-16.43,.25-.45,.72-.5,1.14-.62,6.28-1.73,11.83-4.84,16.81-9,1.26-1.05,2.33-2.31,3.55-3.42,.13-.06-.11-.18,0-.07,.02,.02,0,.05-.08,.08-3.18,1.35-6.5,2.16-9.91,2.58-3.6,.45-7.2,.43-10.79-.19-.88-.15-1.77-.27-2.55-.75Z"/>
        <path class="cls-5" d="M467.72,125.71c-1.84,.61-3.79,.63-5.65,1.13-.68,.18-1.38,.3-2.06,.46-.48,.11-.68-.02-.66-.54,.03-.74-.08-1.5,.03-2.23,.14-.93-.33-1.24-1.09-1.58-7.95-3.57-12.6-9.72-14.15-18.25-.23-1.27-.35-2.56-.53-3.94-2.31,1.58-4.59,3.1-6.97,4.46-6.91,3.94-14.22,6.76-22.11,8.04-4.32,.7-8.65,.78-12.99,.47-.54-.04-.5,.22-.57,.56-.5,2.29-.59,4.63-.86,6.94-.13,1.07-.19,2.14-.24,3.22-.03,.59-.34,.68-.82,.59-.33-.06-.65-.15-.98-.22-1.25-3.01-.94-6.19-.92-9.33,0-.73-.21-1.48,.1-2.2,.15-.34-.15-.44-.39-.55-2.81-1.3-2.95-3.78-1.93-6.13,1.21-2.8,3.24-5,5.5-6.97,7.47-6.47,16.09-10.58,25.83-12.17,8.02-1.31,15.66-.22,22.77,4.08,2.32,1.4,4.94,2.3,7.18,3.9,6.27,4.5,10.61,10.22,11.63,18.09,.07,.52,.07,1.04,.1,1.56,.21,1-.07,2.02,.16,3.02-.11,2.54-.04,5.08-.38,7.6Z"/>
        <path class="cls-5" d="M417.29,172.72c1.52,.1,2.97,.57,4.49,.72,6.63,.67,13-.29,19.16-2.79,.13-.05,.27-.07,.7-.19-6.34,6.86-13.72,11.42-22.51,13.65-.61-3.8-1.23-7.59-1.84-11.39Z"/>
        <path class="cls-11" d="M468.1,118.11c-.35-.99-.14-2.01-.16-3.02,.28,.99,.17,2.01,.16,3.02Z"/>
        <path class="cls-5" d="M423.4,156.87c-.83,.03-1.25-.42-1.41-1.16-.15-.74,.22-1.25,.88-1.49,.52-.19,1.09-.22,1.63-.36,2.22-.6,4.26-1.54,5.96-3.15,.76-.72,1.74-.81,2.28-.25,.67,.68,.55,1.49-.36,2.31-2.57,2.3-5.58,3.63-8.98,4.1Z"/>
        <path class="cls-5" d="M410.4,136.45c1.41,0,2.46,1.08,2.43,2.49-.03,1.33-1.13,2.43-2.42,2.42-1.33-.01-2.52-1.23-2.47-2.52,.04-1.31,1.15-2.38,2.47-2.38Z"/>
        <path class="cls-5" d="M437.74,137.81c1.4-.02,2.55,1.07,2.53,2.42-.01,1.29-1.12,2.44-2.4,2.49-1.34,.06-2.48-1.08-2.48-2.47,0-1.39,.99-2.42,2.35-2.44Z"/>
        <path class="cls-5" d="M409.56,125.46c1.05-.03,2.07,.14,3.09,.37,.95,.22,1.29,.87,1.08,1.75-.2,.89-.92,1.13-1.73,.98-1.21-.22-2.42-.41-3.65-.38-.96,.02-1.5-.54-1.5-1.43,0-.87,.58-1.32,1.48-1.3,.41,0,.82,0,1.23,0Z"/>
        <path class="cls-5" d="M439.62,129.96c-1.32-.32-2.73-.4-4.14-.45-.8-.03-1.17-.59-1.19-1.35-.03-.75,.41-1.23,1.11-1.31,1.63-.17,3.27-.06,4.86,.39,.76,.21,1.04,.82,.98,1.55-.06,.68-.79,1.19-1.6,1.16Z"/>
      </g>
    </g>
    <path class="cls-8" d="M514.83,372.41c0,.14-94.61,.26-211.3,.26s-211.32-.12-211.32-.26,94.59-.26,211.32-.26,211.3,.12,211.3,.26Z"/>
    <path class="cls-1" d="M365.48,233.86l-5.22,47.15s-9.43-14.25-15.81-7.9c-6.08,6.05-16.81,50.25-16.81,50.25,0,0-.15,14.41,7.52,18.22,24.55,12.19,59.83-17.56,59.83-17.56l8.33-114.12-7.1-12.89c-12.7,7.04-23.56,11.01-30.74,36.85Z"/>
    <path class="cls-1" d="M496.38,274.96l7.2,62.89,3.6,34.75h-121.72l4.93-53.26-9.68-84.15c.84-29.74,12.26-42.1,35.62-44.94,.19-.02-2.04,.25-1.84,.23,3.22-.38,0,0,1.84-.23,15.11,4.65,33.02,3.86,48.13-.81l.35-.17c7.01,.3,22.48,1.74,28.44,2.88,18.77,3.6,33.01,18.36,36.76,30.99,3.09,10.39,21.51,101.6,21.51,101.6h-44.46l-10.69-49.75Z"/>
    <g>
      <path class="cls-9" d="M368.52,310.65l-26.76-82.16-2.42-13.8s-7.28-30.75-7.6-33.8c-.37-3.52-2.16-4.18-3.45-3.96-2.01,.35-3.17,2.99-2.94,6.02,.08,1.05,1.98,17.51,1.98,17.51,0,0-.9-1.28-3.67-4.1-2.77-2.82-8.68-3.97-14.53-3.15-5.85,.82-7.42,1.57-7.2,3.86,.09,.92,.68,1.6,1.39,2.09,1.16,.81,2.61,1.09,4.02,.92,9.39-1.19,12.46,3.57,12.46,3.57l.32,1.8s-6.16-3.47-10.52-1.25c-.71,.36-1.26,.82-1.7,1.32-2.5,.29-4.8,1.92-5.87,4.2-1.11,2.37-.84,5.33,.68,7.46,.73,1.02,1.96,1.9,3.15,1.53,.63-.2,1.1-.71,1.55-1.19,.24-.25,.49-.5,.77-.71l1.6,4.93s4.18,10.89,5.46,15.83l13.03,82.73c1.81,11.47,12.67,19.23,24.11,17.22h0c12.44-2.18,20.06-14.88,16.15-26.88Z"/>
      <path class="cls-9" d="M338.93,227.65c-1.68,.66-3.58-.42-4.68-1.84-1.1-1.43-1.68-3.19-2.67-4.69-2.96-4.5-9.13-6.13-11.88-10.76-.38-.65-.65-1.56-.1-2.07,.51-.47,1.33-.23,1.97,.04,5.48,2.31,10.96,4.61,16.44,6.92"/>
      <path class="cls-5" d="M338.01,215.24c.03-.06-.58-.39-1.7-.93-1.12-.54-2.76-1.29-4.78-2.19-2.12-.93-4.52-1.98-7.15-3.13-.68-.29-1.37-.59-2.07-.89-.68-.23-1.46-.84-2.63-.45-.58,.22-.92,.91-.88,1.44,.01,.54,.19,.99,.41,1.4,.46,.76,.97,1.46,1.58,2.1,2.45,2.56,5.41,4.01,7.63,5.83,1.13,.89,2.09,1.85,2.8,2.89,.71,1.03,1.2,2.15,1.76,3.13,1.04,2.03,2.72,3.27,4.02,3.48,1.32,.24,1.98-.26,1.94-.28-.02-.1-.7,.24-1.85-.1-1.15-.32-2.56-1.46-3.48-3.44-.5-.97-.96-2.11-1.69-3.25-.73-1.15-1.75-2.2-2.91-3.15-2.29-1.93-5.22-3.43-7.48-5.8-.57-.58-1.04-1.25-1.44-1.89-.37-.64-.4-1.33-.02-1.44,.4-.18,1.15,.13,1.86,.43,.71,.29,1.4,.58,2.08,.86,2.66,1.07,5.09,2.06,7.23,2.92,2.06,.82,3.74,1.47,4.91,1.89,1.17,.43,1.83,.63,1.85,.57Z"/>
      <path class="cls-9" d="M320.34,205.52c-.13,.04-.06-1.44-1.42-3.05-.67-.79-1.74-1.47-3.09-1.77-1.34-.32-2.89-.3-4.52-.16-1.63,.13-3.23,.28-4.69,.09-1.45-.19-2.74-.64-3.65-1.35-.93-.71-1.22-1.72-1.19-2.33,.03-.63,.19-.94,.21-.94,.06,.01-.01,.35,.04,.93,.05,.57,.37,1.39,1.22,1.98,.83,.59,2.06,.98,3.43,1.12,1.38,.15,2.93-.01,4.57-.15,1.65-.14,3.28-.15,4.72,.23,1.44,.35,2.62,1.16,3.3,2.06,.7,.89,.96,1.79,1.06,2.39,.09,.61,.04,.96,0,.96Z"/>
      <path class="cls-5" d="M317.03,209.63s-.37-.08-1-.27c-.6-.17-1.62-.43-2.54,.15-.45,.28-.71,.81-.7,1.46-.01,.64,.2,1.34,.38,2.11,.18,.76,.35,1.72-.11,2.62-.46,.87-1.38,1.44-2.37,1.57-1.02,.14-1.99-.26-2.7-.84-.71-.59-1.22-1.33-1.46-2.16-.41-1.59-.43-3.02-.39-4.22,.06-1.2,.27-2.17,.54-2.8,.27-.63,.56-.89,.58-.87,.05,.04-.16,.34-.34,.96-.19,.62-.32,1.56-.32,2.73,.01,1.16,.1,2.59,.5,4.04,.42,1.33,1.86,2.72,3.5,2.52,.8-.1,1.54-.58,1.89-1.22,.35-.65,.26-1.44,.09-2.19-.16-.75-.38-1.51-.34-2.27,0-.75,.4-1.52,1-1.83,1.2-.66,2.29-.23,2.88,0,.62,.27,.93,.47,.91,.51Z"/>
      <path class="cls-5" d="M308.2,215.92s.16,.33,0,.94c-.15,.58-.65,1.46-1.73,1.9-1.06,.42-2.57,.23-3.73-.73-1.16-.95-1.89-2.5-2.08-4.16-.18-1.67,.21-3.29,.93-4.55,.72-1.27,1.75-2.14,2.68-2.67,.94-.54,1.8-.76,2.4-.85,.6-.08,.93-.05,.93,0,.03,.13-1.35,.14-3.08,1.25-.85,.55-1.77,1.4-2.4,2.57-.64,1.16-.98,2.66-.81,4.18,.16,1.52,.82,2.93,1.81,3.77,.98,.85,2.27,1.06,3.18,.75,.93-.31,1.44-1.03,1.64-1.54,.21-.52,.18-.86,.23-.86Z"/>
      <path class="cls-5" d="M320.73,225.7c-.01-.06,.57-.24,1.58-.15,.99,.09,2.43,.53,3.65,1.71l-.54,.22c0-.7,.04-1.46,.13-2.23,.5-4.34,2.53-7.35,2.65-7.24,.18,.08-1.53,3.14-2,7.32-.09,.75-.14,1.48-.15,2.16l-.02,.75-.52-.53c-1.07-1.08-2.35-1.57-3.27-1.76-.93-.2-1.51-.16-1.51-.24Z"/>
    </g>
    <g>
      <path class="cls-9" d="M440.87,343.88c-.4,.13-5.44-2.12-9.95-4.21-4.79-2.22-10.05-3.24-15.32-2.97l-19.71,1c-.25,.01-.69,.91-.59,1.14,.44,.98,1.3,2.63,3,3.57,1.87,1.04,11.48,1.38,14.33,1.46,.31,0,.45,.38,.24,.6h0c-2.79,2.87-6.59,4.53-10.59,4.64l-1.82,.05s-.03,0-.05,0c-1.46-.12-.86-.08-2.26-.52-.01,0-.31-.1-.32-.1l-5.11-2.07c-1.55-.7-3.19-.59-3.87,.98-.61,1.41-.16,3.36,4.07,5.49,2.15,1.08,7.82,3.45,9.18,3.92,.13,.05,.22,.16,.23,.3,.04,.63,.18,2.44,.5,3.48,.34,1.13,3.09,2.26,3.71,2.51,.08,.03,.15,.09,.19,.17,.36,.73,2.2,4.45,3,5.37,.4,.46,3.52,1.43,6.85,2.36,5.36,1.51,11.04,1.47,16.38-.12l7.67-2.29c.15-.04,.25-.18,.25-.34v-23.87"/>
      <path class="cls-1" d="M436.14,339.74l70.52-8.36c.2-.03,.33-.22,.3-.41l.11-6.25c-.04-.22,2.19,.07,2.41,.07l39.22-.89c.18,0,2.81,.64,2.83,.82l.65,10.19s0,1.16,0,1.17c.52,19.62-12.47,35.53-31.77,35.73l-86.84-.96c-.2,0-.36-.18-.35-.38l2.24-27.59c.01-.16,.52-3.11,.68-3.13Z"/>
    </g>
    <path class="cls-6" d="M415.5,342.01s-.55,.72-1.61,1.72c-1.06,.99-2.6,2.3-4.53,3.43-1.93,1.13-3.88,1.76-5.31,2.05-1.43,.29-2.33,.31-2.34,.25-.05-.19,3.6-.52,7.39-2.75,1.88-1.1,3.43-2.35,4.55-3.26,1.11-.92,1.8-1.49,1.85-1.44Z"/>
    <path class="cls-4" d="M140.37,317.95s13.29,43.19,9.32,53.76c-.44,1.17,2.3,.97,2.3,.97l108.58,.19-10.65-100.34c0-.07,0-.13-.01-.2l-9.02-71.76c-.09-.71-.6-1.3-1.29-1.49-4.27-1.16-19.65-5.13-31.42-5.56-13.8-.51-33.75,2.23-33.75,2.23,0,0-17.9,1.85-27.76,5.4-.79,.29-1.27,1.08-1.16,1.91l-5.14,114.89Z"/>
    <path class="cls-5" d="M175.54,89.31c8.62-8.77,22.22-13.95,33.49-9.02,7.58,3.31,12.71,10.42,19.36,15.34,4.84,3.58,10.83,6.35,13.36,11.81,2.24,4.81,1.16,10.42,.62,15.7-.54,5.28-.16,11.37,3.93,14.76,2.15,1.78,4.97,2.48,7.39,3.87,4.87,2.79,7.76,8.22,8.8,13.73,1.04,5.51,.48,11.19-.09,16.77l-23.21,4.42-3.81-6.41-1.33,10.08-29.62,2.67-28.9-93.72Z"/>
    <g>
      <path class="cls-1" d="M171.85,106.82l-.06,6.05-1.93,90.64c-.17,10.51,10.55,19.44,22.57,19.5h0c12.13,.06,17.1-8.48,17.45-19.09,.38-11.14,.99-22.86,.99-22.86,0,0,15.4-2,19.14-20.65,1.86-9.27,1.83-24.55,1.37-37.05-.41-11.25-10.73-19.89-22.72-19.01l-36.83,2.46Z"/>
      <path class="cls-5" d="M210.94,181.12s-13.3,.66-26.41-7.71c0,0,6.14,13.37,26.21,12.05l.2-4.34Z"/>
    </g>
    <path class="cls-4" d="M151.08,199.32s-32.16,7.55-38.4,38.04c-2.87,14.01-6.88,94.47,11.86,106.97,24.19,16.13,54.95,1.45,54.95,1.45l-3.95-38.92h-19.97l-2.69-42.64c.75,3.27-1.8-64.91-1.8-64.91Z"/>
    <path class="cls-4" d="M265.48,333.27c6.23-.64,12.18-3.74,16.28-8.48,4.1-4.74,6.3-11.08,6.03-17.34l-13.13-55.82s-8.52-47.91-35.45-52.22l9.18,73.03-.88,15.39s.42,10.18,1.45,29.26l16.53,16.18Z"/>
    <path class="cls-5" d="M185.99,87.08c3.62,4.86,5.34,8.6,7.51,17.24,1.06,4.23-2.38,7.23-5.8,9.81-1.6,1.21-3.92,.37-4.36-1.6h0s1.19,13.25-3.6,19.19c-2.25,2.78-2.34,6.36-1.81,9.37,.54,3.07,2.13,5.84,4.28,8.1,5.55,5.84,7.1,15.37,3.27,22.53-.98,1.83-2.26,3.51-3.04,5.44-.45,1.1-.71,2.34-.64,3.52,.09,1.46-.92,2.75-2.36,2.96-16.44,2.39-33.15,2.89-49.7,1.49-1.17-.1-2.16-.92-2.43-2.06-1.3-5.49,.87-11.48,3.64-16.53,3.1-5.65,7.04-11.06,8.11-17.41,1-5.98-.63-12.42,1.77-17.99,2.95-6.83,10.96-10.06,14.97-16.32,3.78-5.91,3.48-13.66,6.87-19.81,4.35-7.89,15.07-11.53,23.33-7.93"/>
    <path class="cls-5" d="M185.3,103.77c6.29,3.23,1.69,12.93,7.8,16.49,5.56,3.24,20.01,.38,26.38-.58-.24-1.41-.47-2.83-.71-4.24,.64,1.24,1.31,2.51,2.36,3.43,1.05,.92,2.58,1.44,3.87,.92,2.14-.86,2.42-3.8,1.87-6.04-.88-3.58-2.97-6.79-5.56-9.42-4.7-4.78-11.16-7.79-17.84-8.32-6.68-.53-13.54,1.41-18.94,5.38"/>
    <path class="cls-7" d="M155.57,306.87s-.04-.19-.07-.56c-.03-.42-.06-.96-.1-1.61-.08-1.47-.19-3.47-.33-5.9-.28-4.99-.72-11.87-1.24-19.47-.53-7.57-1-14.42-1.35-19.47-.16-2.44-.29-4.44-.39-5.9-.03-.65-.06-1.18-.08-1.61-.01-.37-.01-.56,0-.56,.02,0,.05,.19,.1,.55,.05,.42,.11,.95,.18,1.6,.14,1.46,.32,3.46,.55,5.89,.44,4.98,.99,11.86,1.51,19.46,.52,7.6,.9,14.5,1.09,19.49,.09,2.5,.15,4.52,.16,5.92,0,.65,0,1.18,0,1.61,0,.37-.02,.56-.03,.56Z"/>
    <g>
      <path class="cls-3" d="M195.77,270.38c6.99,5.77,23.45,19.43,23.45,19.43l9.22-1.64-27.92-23.49c-1.5-1.26-3.72-1.14-5.07,.28h0c-1.48,1.56-1.34,4.05,.32,5.42Z"/>
      <path class="cls-3" d="M195.04,267.38l-3.62-3.27c-.71-.64-.78-1.73-.17-2.46h0c.65-.77,1.81-.84,2.55-.16l3.49,3.19-2.24,2.7Z"/>
      <path class="cls-8" d="M205.82,269.14c.1,.1-.9,1.33-2.25,2.75-1.35,1.42-2.52,2.49-2.62,2.39-.1-.1,.9-1.33,2.25-2.75,1.34-1.42,2.52-2.49,2.62-2.39Z"/>
      <path class="cls-8" d="M206.1,280.64c-.04,.06-1.12-.62-2.79-1.82-1.67-1.2-3.92-2.94-6.28-5-1.17-1.01-2.36-2.06-2.94-3.38-.58-1.32-.48-2.69-.09-3.67,.39-1,1.02-1.63,1.48-1.99,.47-.35,.78-.46,.79-.43,.02,.04-.25,.2-.66,.59-.4,.39-.95,1.02-1.26,1.96-.32,.92-.36,2.18,.18,3.35,.54,1.19,1.66,2.17,2.84,3.19,2.35,2.05,4.56,3.83,6.16,5.1,1.61,1.27,2.61,2.05,2.56,2.11Z"/>
    </g>
    <g>
      <path class="cls-1" d="M175.86,309.99c6.63-2.23,13.68-.73,20.31-2.96,2.22-.75,4.51-1.53,6.27-3.09,2.11-1.87,3.18-4.62,4.86-6.88,5.02-6.76,14.4-8.16,22.77-9.02,1.96-.2,3.96-.4,5.86,.08s3.73,1.79,4.26,3.68c.54,1.89-.69,4.25-2.64,4.45,1.83,.08,3.12,1.94,3.46,3.75,.34,1.81,.04,3.68,.28,5.5,.34,2.56,1.74,4.95,1.66,7.53-.11,3.53-3.04,6.44-6.3,7.8-3.26,1.36-6.87,1.53-10.36,2.03-17.17,2.42-30.23,12.17-46.79,19.53"/>
      <path class="cls-1" d="M241.16,302.37c.57,1.18,2.31,1.44,3.38,.7,1.07-.75,1.49-2.2,1.3-3.49s-.88-2.46-1.66-3.52c-1.41-1.93-3.11-3.62-4.81-5.31l-5.32,4.45,7.1,7.17Z"/>
      <path class="cls-6" d="M239.2,296.56c0,.16-3.26-.1-7.19,.51-3.94,.58-6.96,1.79-7.02,1.64-.02-.06,.7-.44,1.94-.9,1.24-.46,3.01-.96,5-1.26,2-.3,3.83-.34,5.15-.27,1.32,.07,2.13,.22,2.12,.28Z"/>
      <path class="cls-6" d="M241.54,306.98c-.03,.16-2.74-.4-6.1-.3-3.37,.07-6.04,.76-6.08,.6-.05-.12,2.62-1.05,6.07-1.12,3.45-.1,6.16,.7,6.12,.82Z"/>
      <path class="cls-6" d="M240.98,303.9c-.08,0,0-.78-.15-2-.15-1.21-.59-2.89-1.61-4.44-.21-.33-.45-.64-.68-.93l-.15-.19,.17-.16c1.11-1.09,1.42-2.55,1.38-3.52-.02-.99-.3-1.57-.22-1.6,.04-.03,.43,.51,.56,1.57,.13,1.03-.13,2.66-1.36,3.91l.02-.35c.25,.3,.5,.62,.73,.97,1.08,1.64,1.49,3.43,1.54,4.7,.05,1.28-.16,2.05-.22,2.03Z"/>
    </g>
    <path class="cls-3" d="M241.17,301.8l8.72,8.19,1.12,4.86-8.07-1.82c-1.16-4.11-2.01-8.02-1.77-11.23Z"/>
    <path class="cls-2" d="M229.36,312.23c-.18,.32-47.07,23.44-47.07,23.44v4.97l47.85-24.89,59.38-2.24v-3.52l-60.16,2.24Z"/>
    <path class="cls-8" d="M182.29,341.36c.33-.22,51.77-4.86,51.77-4.86l55.46-22.99-59.38,2.24-47.85,24.89v.72Z"/>
    <g>
      <path class="cls-1" d="M231.55,329.04c-.42-2.69,2.16-5,4.79-5.72s5.44-.43,8.1-1.04c1.71-.39,3.31-1.13,4.94-1.76,8.2-3.15,17.2-3.31,25.98-3.43,1.09,2.34,.19,5.43-1.99,6.82,.8,2.1,.56,4.5-.27,6.59-.83,2.09-2.2,3.92-3.66,5.63-1.24,1.45-2.6,2.87-4.34,3.63-1.73,.76-3.67,.81-5.56,.85-5.89,.12-12.21,.13-17.09-3.18-3.79-2.57-6.41-6.99-10.8-8.3,.35,.01,.69,.03,1.04,.04"/>
      <path class="cls-6" d="M270.85,325.78s-.4,.07-1.13,.11c-.84,.03-1.87,.06-3.08,.1-2.6,.06-6.19,.11-10.15,.13-1.98,0-3.86,0-5.59,0-.87-.02-1.72-.1-2.47-.38-.75-.28-1.38-.74-1.79-1.3-.41-.56-.57-1.23-.47-1.77,.09-.55,.35-.96,.62-1.23,.58-.54,1.08-.45,1.05-.44,.02,.05-.44,.05-.91,.58-.46,.49-.81,1.66,0,2.64,.37,.48,.95,.88,1.63,1.11,.69,.23,1.49,.3,2.34,.31,1.73-.01,3.61-.03,5.58-.04,3.96-.02,7.55,0,10.15,.03,1.21,.03,2.24,.05,3.08,.07,.73,.03,1.13,.06,1.13,.1Z"/>
      <path class="cls-6" d="M267.83,330.71s-.5,.13-1.42,.28c-.92,.14-2.25,.33-3.9,.49-1.65,.15-3.64,.27-5.85,.14-2.21-.12-4.6-.63-7.06-1.19-4.91-1.2-9.47-1.57-12.77-1.57-1.65,0-2.99,.06-3.91,.11-.92,.05-1.44,.08-1.44,.04,0-.03,.5-.13,1.42-.25,.92-.11,2.26-.24,3.93-.27,3.32-.1,7.96,.22,12.89,1.43,2.46,.56,4.81,1.08,6.98,1.22,2.17,.16,4.14,.08,5.78-.03,1.65-.11,2.98-.25,3.91-.32,.92-.08,1.44-.11,1.44-.08Z"/>
      <path class="cls-6" d="M262.93,335.99s-.39,.11-1.1,.21c-.71,.09-1.75,.22-3.03,.33-2.56,.21-6.17,.43-10.08-.33-3.95-.75-7.02-2.76-9.37-3.7-2.35-1.01-3.96-1.12-3.95-1.21,0-.02,.41-.05,1.12,.06,.72,.1,1.75,.35,2.96,.81,2.44,.88,5.5,2.81,9.34,3.53,3.82,.74,7.4,.58,9.95,.47,1.2-.07,2.21-.12,3.04-.17,.72-.04,1.12-.04,1.12,0Z"/>
    </g>
    <path class="cls-4" d="M169.83,196.43s4.85,.83,22.34,.11c17.5-.73,18.07-3.71,18.07-3.71l11.71,12.44-11.12,22.92-14.94,11.15-20.35-8.36-16.77-13.01,11.06-21.55Z"/>
    <g>
      <g>
        <path class="cls-12" d="M355.38,122.98c0,1.72,1.39,3.11,3.11,3.11s3.11-1.39,3.11-3.11-1.39-3.11-3.11-3.11-3.11,1.39-3.11,3.11Z"/>
        <circle class="cls-12" cx="346.04" cy="122.98" r="3.11"/>
        <path class="cls-12" d="M330.5,121.43c-.86,1.49-.35,3.39,1.14,4.25,1.49,.86,3.39,.35,4.25-1.14,.86-1.49,.35-3.39-1.14-4.25-1.49-.86-3.39-.35-4.25,1.14Z"/>
      </g>
      <path class="cls-12" d="M345.84,86.63s-.21-.02-.63-.01c-.46,.01-1.07,.03-1.85,.05-.41,.02-.86,.02-1.36,.06-.5,.07-1.04,.15-1.63,.23-.59,.09-1.23,.18-1.9,.27-.67,.17-1.38,.34-2.13,.53-2.99,.77-6.61,2.08-10.31,4.49-3.7,2.37-7.54,5.77-10.66,10.38-3.06,4.62-5.42,10.43-6.05,16.96-.06,1.63-.26,3.3-.1,4.98,.06,.84,.04,1.7,.17,2.55,.13,.85,.26,1.71,.39,2.57,.7,3.41,1.71,6.9,3.46,10.14,1.71,3.26,3.93,6.36,6.63,9.12,2.75,2.7,5.97,5.05,9.55,6.86,3.57,1.82,7.52,3.08,11.64,3.57,1.02,.2,2.06,.2,3.1,.26,1.04,.07,2.09,.11,3.14,.06,2.1-.09,4.2-.35,6.28-.79,4.52-.96,8.77-2.8,12.51-5.26l-.38,.04c4.34,1.74,8.59,3.45,12.74,5.11l.75,.3-.22-.78c-1.29-4.68-2.54-9.22-3.75-13.62l-.06,.34c3.58-4.75,5.86-10.18,6.8-15.57,.47-2.69,.67-5.38,.5-7.98-.06-1.3-.12-2.58-.36-3.83-.1-.63-.19-1.25-.29-1.86-.11-.61-.3-1.21-.45-1.8-2.46-9.59-8.37-16.67-14.22-20.73-2.93-2.06-5.82-3.54-8.46-4.46-.66-.24-1.29-.46-1.91-.68-.63-.16-1.23-.31-1.81-.46-.58-.14-1.13-.28-1.66-.41-.53-.1-1.04-.16-1.52-.23-.96-.12-1.81-.29-2.55-.33-.73-.02-1.35-.05-1.87-.06-.47-.01-.85-.02-1.14-.03-.26,0-.39,0-.39,.01s.13,.03,.39,.05c.29,.02,.67,.05,1.14,.09,.52,.03,1.13,.08,1.86,.13,.74,.06,1.57,.24,2.53,.38,3.75,.69,9.37,2.18,15.12,6.38,5.74,4.06,11.49,11.07,13.86,20.5,.14,.59,.32,1.17,.43,1.77,.09,.61,.18,1.22,.27,1.83,.23,1.22,.29,2.48,.34,3.76,.17,2.55-.04,5.18-.52,7.82-.94,5.28-3.19,10.58-6.71,15.23l-.11,.15,.05,.18c1.2,4.4,2.44,8.95,3.72,13.63l.54-.48c-4.15-1.67-8.4-3.38-12.74-5.13l-.2-.08-.18,.12c-3.66,2.4-7.81,4.2-12.23,5.14-2.03,.44-4.09,.69-6.14,.78-1.03,.05-2.05,.01-3.07-.06-1.02-.06-2.04-.06-3.03-.26-4.02-.48-7.89-1.7-11.38-3.48-3.5-1.76-6.65-4.05-9.35-6.69-2.65-2.7-4.82-5.73-6.51-8.91-1.73-3.18-2.73-6.59-3.43-9.93-.13-.84-.26-1.68-.39-2.52-.12-.83-.11-1.67-.17-2.5-.16-1.66,.03-3.29,.08-4.89,.58-6.41,2.87-12.13,5.85-16.7,3.04-4.56,6.8-7.94,10.43-10.32,3.63-2.42,7.19-3.76,10.14-4.57,.74-.2,1.44-.38,2.1-.56,.67-.11,1.3-.21,1.88-.31,.58-.1,1.12-.18,1.62-.27,.5-.05,.95-.07,1.35-.1,.78-.06,1.39-.1,1.84-.13,.41-.03,.63-.06,.63-.07Z"/>
    </g>
    <path class="cls-7" d="M155.35,308.59c-2.23,1.47-4.73,3.19-7.31,4.81-2.52,1.58-5.11,3.04-7.66,4.56-.79,.47-1.65,1.09-2.26-.11-.49-.96,.18-1.46,1-1.91,5.03-2.77,9.9-5.8,14.56-9.16,.66-.47,1.43-1.06,2.19-.15,.51,.6,.14,1.16-.52,1.96Z"/>
    <path class="cls-5" d="M207.55,160.34c1.3,.08,2.09-.42,2.26-1.54,.15-1.05-.51-1.49-1.52-1.69-3.1-.59-5.9-1.84-8.27-3.98-.86-.77-1.77-.91-2.52,.04-.59,.75-.52,1.54,.17,2.35,1.59,1.87,7.62,4.82,9.88,4.81Z"/>
    <path class="cls-5" d="M196.72,141.47c-.24-1.64-1.13-2.83-2.76-2.88-1.72-.05-2.94,.93-2.96,2.82-.02,1.71,.93,2.71,2.63,2.81,1.91,.12,2.73-1.1,3.09-2.75Z"/>
    <path class="cls-5" d="M218.06,139.56c.18,1.95,.99,3.03,2.75,3.09,1.89,.06,3.02-1.03,2.97-2.84-.04-1.61-1.02-2.71-2.83-2.69-1.78,.02-2.56,1.1-2.89,2.44Z"/>
    <path class="cls-5" d="M224.18,124.42c-1.15,.14-2.3,.27-3.44,.43-1.09,.15-1.93,.71-1.69,1.88,.24,1.15,1.09,1.76,2.39,1.52,1.04-.19,2.09-.39,3.14-.42,1.24-.04,2.55-.14,2.45-1.7-.11-1.62-1.48-1.8-2.84-1.7Z"/>
    <path class="cls-5" d="M191.9,129.52c1.18-.53,4.21,.89,3.78-2.09-.36-2.53-3.02-1.13-4.71-1.27-.37-.03-.75,.17-1.13,.25-1.06,.23-2.29,.37-1.94,1.91,.3,1.32,1.36,1.47,2.52,1.3,.38-.06,.77-.06,1.47-.1Z"/>
    <path class="cls-7" d="M172.74,191.4c.95-.08,1.9-.17,2.85-.25,.81,.59,1.78,.43,2.6,.28,3.71-.7,7.46,.02,11.14-.42,5.9-.72,11.85,.17,17.72-.79,.32-.05,.61-.25,.91-.38,.69,.02,1.39,.04,2.08,.06,1.03,.54,2.16,.96,3.09,1.64,2.35,1.72,2.92,4.24,2.8,7-8.36,.14-16.74,.05-25.08,.52-4.84,.27-9.69-.05-14.49,.39-3.87,.35-7.73,.26-11.59,.34,.05-4.76,1.59-7.27,5.1-8.12,.92-.22,1.91-.18,2.87-.26Z"/>
    <path class="cls-10" d="M458.82,184.46c-.18,0-.36,.01-.54,.02-6.97,.31-13.93,.73-20.9,.94-3.52,.11-7.04,.17-10.56,.14-2.65-.02-5.67-.48-8,1.09-.42,.28-.8,.63-1.15,1-1.67,1.85-2.46,4.49-1.97,6.95,17.23-.94,34.47-1.65,51.72-2.13-.18-2.59-.81-5.44-2.94-6.92-1.61-1.12-3.68-1.17-5.66-1.1Z"/>
    <path class="cls-6" d="M412.89,359.64c0,.13-2.48,0-5.41-.77-2.93-.77-5.14-1.87-5.09-1.99,.06-.14,2.33,.73,5.22,1.49,2.89,.77,5.29,1.12,5.27,1.27Z"/>
    <path class="cls-6" d="M412.09,364.51c0,.14-1.34,.22-2.92-.21-1.59-.43-2.7-1.18-2.63-1.3,.07-.13,1.25,.39,2.77,.79,1.51,.42,2.79,.56,2.79,.71Z"/>
    <polygon class="cls-1" points="369.23 313.51 327.64 328.48 306.8 242.88 347.71 231.9 369.23 313.51"/>
    <polygon class="cls-1" points="369.55 304.82 328.26 320.31 332.82 334 346.5 340.64 361.86 336.73 375.78 326.11 378.18 317.09 369.55 304.82"/>
    <path class="cls-10" d="M363.67,298.82c-.07-.33-.18-.77-.24-1.21-.67-4.5-1.64-8.94-3.07-13.26-.26-.77-.56-1.64,.49-1.99,1.03-.34,1.16,.62,1.37,1.27,1.5,4.58,2.58,9.26,3.18,14.05,.07,.55,.3,1.23-.52,1.49-.4,.13-.78,.07-1.2-.34Z"/>
  </g>
</svg>