<?xml version="1.0" encoding="UTF-8"?>
<svg id="Capa_1" data-name="Capa 1" xmlns="http://www.w3.org/2000/svg" viewBox="0 0 751.33 665.52">
  <defs>
    <style>
      .cls-1 {
        stroke: #1d2441;
        stroke-miterlimit: 10;
        stroke-width: .3px;
      }

      .cls-1, .cls-2 {
        fill: #1d2440;
      }

      .cls-3 {
        fill: #cbcaca;
      }

      .cls-4 {
        fill: #fff;
      }

      .cls-5 {
        fill: #727f87;
      }

      .cls-6 {
        fill: #d1bedc;
      }

      .cls-7 {
        fill: #455a64;
      }

      .cls-8 {
        fill: #e4e4e3;
      }

      .cls-9 {
        fill: #039478;
      }

      .cls-10 {
        fill: #808181;
      }

      .cls-11 {
        opacity: .3;
      }

      .cls-12 {
        fill: #192e35;
      }

      .cls-13 {
        fill: #b3b2b2;
      }

      .cls-14 {
        fill: #0f6753;
      }

      .cls-15 {
        fill: #1b2545;
      }

      .cls-16 {
        fill: #f6f2eb;
      }

      .cls-17 {
        fill: #5f8486;
      }

      .cls-18 {
        fill: #cfccd1;
      }
    </style>
  </defs>
  <g>
    <path class="cls-15" d="M326.6,81.56c-1.73,5.05-5.21,8.25-10.3,9.72-.69,.2-1.41,.31-2.11,.46-.39-.34-.19-.76-.14-1.15,.26-2.04,.54-4.07,.54-6.13,0-.76-.23-1.27-.95-1.59-.77-.35-1.43-.9-2.11-1.42-.21,.24-.1,.48-.11,.7-.03,2.42-1.38,4.06-3.77,4.49-1.75,.32-3.51,.19-5.26-.13-3.57-.65-6.97-1.84-10.3-3.27-1.03-.44-1.02-.44-1.53,.54-.67,1.31-1.39,2.59-2.29,3.75-1.61,2.3-3.53,4.32-5.77,6.02-.66,.5-.93,.41-1.32-.43-.82-1.74-1.73-3.42-3.22-4.69-2.2-1.88-4.66-2.94-7.63-2.3-2.99,.64-4.78,2.56-5.57,5.41-1.28,4.57-.47,8.92,1.74,13.03,.51,.95,.57,1.68-.1,2.57-1.82,2.42-3.41,5.01-5.36,7.33-3.59,4.28-8.24,6.18-13.8,5.92-.5-.02-.99-.11-1.47-.29-.82-.31-1.78-.19-2.49-.84-.88-1.28-1.36-2.76-1.93-4.18-2.42-6.05-4.43-12.22-5.69-18.63-.79-4.02-1.28-8.07-1.34-12.17-.04-2.34,.08-4.68,.43-6.98,.87-5.59,3.11-10.59,6.62-15.05,1.86-2.37,3.9-4.56,6.28-6.37,2.48-1.89,5.22-3.35,8.21-4.32,2.21-.72,4.48-.97,6.77-1.17,.9-.08,1.76-.38,2.49-.86,4.84-3.2,10.22-4.58,15.93-4.86,4.89-.24,9.75,.11,14.57,1.05,1.61,.31,3.24,.55,4.82,.97,4.99,1.33,9.89,2.91,14.53,5.23,3.32,1.66,6.45,3.55,9.16,6.11,1.62,1.53,2.76,3.36,3.43,5.48,.97,3.09-.51,4.82-4.08,4.43,2.89,3.37,4.12,7.12,3.6,11.38-.09,.78-.27,1.53-.51,2.27Z"/>
    <path class="cls-6" d="M246.1,119.89c6.03,.84,11.02-1.13,14.85-5.79,2.02-2.46,3.76-5.16,5.64-7.74,.29-.39,.18-.68-.03-1.04-2.04-3.46-2.97-7.21-2.61-11.22,.25-2.82,1.11-5.43,3.59-7.16,2.78-1.93,6.45-1.75,9.57,.4,2,1.38,3.34,3.28,4.26,5.49,.12,.29,.25,.58,.39,.91,2.46-1.79,4.48-3.93,6.27-6.31,.32-.17,.67-.25,1.02-.13,2.81,.97,5.69,1.66,8.58,2.31,.17,.04,.32,.15,.47,.23,.6,.94,1.48,1.12,2.51,1.01,.61-.07,1.24-.02,1.84,.11,.8,.17,1.57,.16,2.33-.12,2.77,.29,5.56,.5,8.34,.62,.36,.01,.71,.08,.92,.43-.2,2.33-.65,4.63-.99,6.94-.39,2.69-.79,5.37-1.15,8.06-.11,.78-.44,1.52-.38,2.34,.02,.31,0,.57,.4,.65,1.71,.3,2.69,2.66,1.9,4.5-.49,1.15-1.33,2.06-2.55,2.37-.92,.24-1.11,.82-1.2,1.58-.36,3.02-.65,6.07-1.55,8.98-1.32,4.26-3.73,7.84-7.17,10.7-4.16,3.45-8.96,5.19-14.36,5.3-.2,0-.41,.05-.61,.07-.45,.16-.91,.2-1.38,.16-3.02-.29-5.96-.94-8.86-1.83-4.19-1.27-8.11-3.09-11.81-5.41-1.74-1.09-3.41-2.29-5.09-3.68,1.42,3.14,2.77,6.19,4.39,9.12,2.19,3.97,4.67,7.74,7.71,11.12,.21,.24,1.17,1.87,1.05,2.24-1.72,2.92-7.75,.59-10.59-1.27-9.34-1.93-18.86-3.32-26.63-8.42-.99-.65-.97-.71-.42-2.19,.85-2.26,6.3-17.07,7.11-19.34,.53-1.48,1.05-2.96,1.57-4.44,.92-.02,1.75,.43,2.66,.46Z"/>
    <path class="cls-15" d="M271.68,153.71c-4.07-4.46-7.24-9.52-9.91-14.91-1.1-2.23-2.16-4.49-3.11-6.85,.35-.04,.49,.2,.67,.35,6.58,5.43,14.08,8.9,22.46,10.49,1.52,.29,3.07,.4,4.61,.59-.54,1.36-1.08,2.72-1.6,4.09-.83,2.18-1.64,4.36-2.46,6.55-.58,1.56-1.16,3.13-1.75,4.69-.14,.39-.22,.8-.82,.39-2.68-1.81-5.39-3.59-8.09-5.38Z"/>
    <path class="cls-6" d="M314.06,91.88c-2.05-.14-4.1-.27-6.16-.41-1.07-.08-2.14-.14-3.18-.43-.02-.02-.05-.04-.05-.07-.25-1.56-.29-1.61-1.93-1.87-.61-.1-1.22-.1-1.84-.12-1.08-.05-2.11,.03-2.74,1.11-1.76-.4-3.54-.75-5.29-1.22-1.62-.44-3.2-1.05-4.84-1.43,.98-1.46,1.92-2.94,2.6-4.56,.21-.5,.42-.42,.78-.27,1.15,.48,2.29,.99,3.46,1.42,3.71,1.36,7.46,2.58,11.49,2.47,2.74-.07,4.49-1.44,4.73-3.68,.08-.71,0-1.44-.02-2.26,1.02,1.1,2.18,1.82,3.42,2.4,.27,.13,.4,.25,.4,.58,.03,1.79-.07,3.57-.32,5.34-.14,.95-.26,1.91-.38,2.87-.04,.05-.09,.1-.13,.14Z"/>
    <path class="cls-17" d="M246.1,119.89c-.93,.08-1.77-.31-2.66-.46-.05-.07-.1-.14-.15-.21,.94,.22,1.87,.45,2.81,.67Z"/>
    <path class="cls-18" d="M326.6,81.56c.17-.76,.34-1.51,.51-2.27,.06,.81-.12,1.57-.51,2.27Z"/>
    <path class="cls-15" d="M291.08,112.18c.49,.14,.78,.45,.95,.88,1.13,2.79,2.99,4.93,5.6,6.44,.68,.39,.85,1.13,.48,1.74-.39,.65-1.02,.82-1.74,.39-3.11-1.84-5.34-4.44-6.68-7.8-.17-.43-.24-.84,.13-1.23,.36-.37,.8-.46,1.26-.42Z"/>
    <path class="cls-15" d="M271.97,92.82c.7,.21,1.36,1.05,1.87,2.03,.87,1.69,.95,3.55,1.05,5.39,.05,.8-.55,1.16-1.25,1.2-.7,.04-1.05-.46-1.16-1.09-.17-.92-.13-1.86-.33-2.79-.26-1.15-.53-2.19-1.82-2.67-.63-.23-.88-.86-.68-1.54,.18-.61,.98-.86,2.33-.54Z"/>
    <path class="cls-15" d="M297.79,104.86c-1.43-.31-2.34-1.68-2.05-3.08,.29-1.41,1.8-2.37,3.21-2.03,1.4,.33,2.27,1.74,1.95,3.16-.33,1.45-1.63,2.27-3.11,1.95Z"/>
    <path class="cls-15" d="M298.16,90.09c.15-1.03,.43-1.32,1.44-1.38,1.37-.08,2.74-.03,4.08,.27,1.29,.28,1.57,.84,1.04,2.07-.43,.37-.91,.53-1.47,.38-1.18-.3-2.38-.33-3.58-.24-.88,.07-1.33-.29-1.51-1.1Z"/>
  </g>
  <path class="cls-5" d="M549.33,358c.75-.27,1.53-.13,2.29-.14-.75,.32-1.53,.08-2.29,.14Z"/>
  <g>
    <path class="cls-13" d="M151.31,401.57s36.34,16.38,74.2,16.38c35.06,0,72.15-17.65,72.15-17.65l-146.35,1.27Z"/>
    <rect class="cls-13" x="214.46" y="401.87" width="15.01" height="157.25"/>
    <rect class="cls-13" x="155.34" y="549.9" width="133.24" height="9.22"/>
    <path class="cls-10" d="M171.64,562.14c0,5.62-4.55,10.17-10.17,10.17s-10.17-4.55-10.17-10.17,4.55-10.17,10.17-10.17,10.17,4.55,10.17,10.17Z"/>
    <path class="cls-10" d="M230.85,562.14c0,5.62-4.55,10.17-10.17,10.17s-10.17-4.55-10.17-10.17,4.55-10.17,10.17-10.17,10.17,4.55,10.17,10.17Z"/>
    <path class="cls-10" d="M299.44,562.14c0,5.62-4.55,10.17-10.17,10.17s-10.17-4.55-10.17-10.17,4.55-10.17,10.17-10.17,10.17,4.55,10.17,10.17Z"/>
    <rect class="cls-13" x="205.09" y="458.47" width="20.42" height="8.45"/>
    <rect class="cls-13" x="201.37" y="452.55" width="7.44" height="20.28"/>
  </g>
  <g>
    <path class="cls-8" d="M142.71,162.22h65.97v219.34h-77.57V173.83c0-6.41,5.2-11.61,11.61-11.61Z"/>
    <path class="cls-12" d="M148.28,378.23c-.21,0-.37-47.59-.37-106.29s.17-106.3,.37-106.3,.37,47.58,.37,106.3-.17,106.29-.37,106.29Z"/>
  </g>
  <path class="cls-13" d="M131.1,381.11h192.04v23.85H139.06c-4.39,0-7.96-3.56-7.96-7.96v-15.9h0Z"/>
  <g>
    <path class="cls-2" d="M277.85,166.8s12.63,5.13,19.82,22.61c5.06,12.28,33.15,51.06,33.15,51.06l74.72,16.59,2.55,23.83-119.5-.98-16.61-52.88,5.87-60.23Z"/>
    <path class="cls-2" d="M227.54,144.77l-13.27,5.57c-12.27,5.15-27.97,16.99-33.23,29.21-12.65,29.4-24.09,67.29-28.49,100.78-4.43,33.77,4.4,83.73,4.4,83.73l112.13-64.08-6.55-4.59,21.25-115.61-3.96-13.99,2.65-11.83s-29.75-11.95-51.43-20.51l-3.5,11.31Z"/>
    <g class="cls-11">
      <path d="M216.82,330.65c.42-5.77,.83-11.55,1.25-17.32-1.3,1.24-3.06,2-4.85,2.08,2.8-2.68,5.29-5.68,7.41-8.92-1.7,.73-3.4,1.46-5.11,2.19,1.81-1.36,3.31-3.15,4.35-5.17-2.74-2.15-6.6-1.79-10.06-1.44-17.73,1.79-35.62,.61-53.4-.59-1.39-.09-3.97-.68-5.1-1.5,0,0-.36-4.88,.43-6.69,.79-1.81,2.02-1.3,3.88-1.96,1.87-.66,3.87-.8,5.85-.9,21.66-1.14,43.35,.64,64.97,2.43,1.33,.11,2.76,.25,3.8,1.1,1.77,1.44,1.62,4.13,1.31,6.38-1.1,8.09-2.2,16.17-3.3,24.26"/>
    </g>
    <path class="cls-12" d="M282.46,175.14s-.01,.38-.11,1.08c-.11,.78-.27,1.8-.45,3.09-.41,2.68-1.05,6.55-1.9,11.31-1.68,9.54-4.23,22.68-7.25,37.15-3.02,14.47-5.91,27.54-8.05,36.98-1.08,4.66-1.95,8.46-2.58,11.18-.31,1.26-.55,2.27-.74,3.03-.18,.69-.28,1.05-.31,1.05-.03,0,.03-.38,.16-1.08,.15-.77,.35-1.79,.6-3.06,.57-2.73,1.37-6.55,2.35-11.23,2.02-9.54,4.78-22.6,7.84-37.02,3.02-14.46,5.65-27.58,7.46-37.09,.89-4.7,1.61-8.53,2.13-11.27,.25-1.27,.44-2.29,.59-3.06,.14-.7,.23-1.06,.26-1.06Z"/>
    <path class="cls-12" d="M181.04,339.28s.21-.25,.67-.68c.52-.47,1.18-1.09,2.01-1.85,.87-.8,1.96-1.77,3.26-2.84,1.3-1.08,2.74-2.34,4.43-3.62,3.32-2.65,7.41-5.62,12.07-8.74,4.69-3.08,9.98-6.27,15.7-9.31,5.74-3.01,11.36-5.57,16.55-7.7,5.21-2.09,9.97-3.79,14.03-5.03,2.01-.67,3.87-1.15,5.49-1.61,1.62-.47,3.03-.82,4.18-1.09,1.09-.25,1.98-.46,2.66-.62,.61-.13,.93-.19,.94-.17,0,.03-.31,.13-.9,.31-.67,.19-1.54,.44-2.62,.75-1.14,.31-2.54,.7-4.14,1.21-1.61,.5-3.45,1.02-5.45,1.72-4.02,1.3-8.75,3.05-13.93,5.16-5.16,2.16-10.75,4.73-16.46,7.73-5.7,3.03-10.97,6.19-15.67,9.23-4.67,3.08-8.78,5.99-12.13,8.58-1.7,1.25-3.17,2.48-4.49,3.53-1.32,1.04-2.43,1.97-3.33,2.74-.86,.72-1.56,1.29-2.1,1.74-.49,.39-.75,.59-.77,.57Z"/>
    <path class="cls-12" d="M238.6,296.96c.1,.18-10.81,6.31-24.36,13.69-13.55,7.38-24.62,13.21-24.72,13.03-.1-.18,10.8-6.31,24.36-13.69,13.55-7.38,24.61-13.21,24.71-13.03Z"/>
    <g class="cls-11">
      <path d="M199.2,208.38c6.96,30.08,28.24,57.04,56.57,69.31-18.84-19.92-39.32-45.05-56.57-69.31Z"/>
    </g>
    <g class="cls-11">
      <path d="M280.68,185.47c2.74,12.74,.71,28.64-5.68,40l-1.59-3.3c2.26-9.56,5.49-26.55,7.28-36.69"/>
    </g>
  </g>
  <g>
    <path class="cls-7" d="M340.29,489.57l-13.44,40.45s36.6,27.25,34.85,34.96l-79.37-23.24,18.36-63.89,39.61,11.71Z"/>
    <path class="cls-15" d="M340.29,489.57l-13.44,40.45s36.6,27.25,34.85,34.96l-79.37-23.24,18.36-63.89,39.61,11.71Z"/>
    <path class="cls-16" d="M328.25,530c-.13,.38-2.12,0-4.39,.68-2.29,.63-3.76,2.02-4.08,1.76-.34-.18,.92-2.33,3.69-3.11,2.76-.81,4.97,.34,4.78,.67Z"/>
    <path class="cls-16" d="M335.57,535.88c-.02,.4-1.89,.57-3.69,1.82-1.83,1.2-2.68,2.88-3.07,2.75-.38-.05,.01-2.39,2.28-3.91,2.25-1.54,4.58-1.03,4.48-.66Z"/>
    <path class="cls-16" d="M337.38,547.23c-.38-.02-.35-2.11,1.27-3.95,1.6-1.84,3.68-2.15,3.75-1.77,.13,.38-1.38,1.18-2.69,2.7-1.34,1.49-1.93,3.09-2.33,3.02Z"/>
    <path class="cls-16" d="M330.29,520.44c-.27,.31-1.89-.75-4.12-1.24-2.22-.54-4.14-.3-4.25-.69-.14-.35,1.94-1.29,4.57-.68,2.63,.6,4.08,2.36,3.8,2.61Z"/>
  </g>
  <path class="cls-15" d="M363.44,507.63l-1.67,42.59s28.04,8.51,28.04,24.04l-67.56-.41-.11-66.47,41.3,.25Z"/>
  <path class="cls-14" d="M264.38,299.06s99.13,25.77,111.43,42.92c10.4,14.5-44.17,162.71-44.17,162.71l-43.06-3.71,18.56-123.97-111.06-35.3,16.78-42.64h51.52Z"/>
  <path class="cls-9" d="M271.48,322.26s101.33,24.62,111.58,42.12c4.78,8.17,1.65,34.97-.14,47.62-1.2,8.52-13.97,134.76-13.97,134.76l-62.14-5.83,14.15-135.85h0l-105.29-21.23s-56.52,4.3-58.71-19.8l23.59-31.97,55.68-27.52,35.26,17.69Z"/>
  <g>
    <path class="cls-6" d="M404.1,258.23c.64-.97,9.02-10.63,11.27-10.63s4.83,2.58,4.83,2.58c0,0,2.9-1.29,4.83-.64,1.93,.64,10.95,8.37,10.95,11.27v4.83s.32,1.61,0,3.86c-.32,2.25-5.8,6.12-5.8,6.12h-30.9s-5.91-3.98-5.17-7.73c.74-3.75,9.98-9.66,9.98-9.66Z"/>
    <path class="cls-1" d="M420.2,250.18s.71,.35,1.93,1.1c1.32,.83,3.04,1.92,5.11,3.22,.53,.36,1.11,.65,1.69,1.15,.55,.5,1,1.16,1.25,1.93,.27,.79,.22,1.6,.28,2.38,.04,.8,.08,1.62,.13,2.46,.16,3.38,.34,7.08,.53,10.95,.03,.59,.05,1.18,.08,1.76v.31s-.28,.07-.28,.07c-.64,.16-1.27,.31-1.89,.47h-.05s-.05,.01-.05,.01c-.9-.01-1.77-.38-2.42-.91-.67-.53-1.16-1.2-1.56-1.87-.79-1.36-1.26-2.79-1.62-4.16-.69-2.74-.96-5.26-1.06-7.43l.17,.23c-2.19-.86-4.01-1.58-5.4-2.13-1.27-.52-1.95-.82-1.93-.87s.74,.17,2.03,.6c1.42,.49,3.26,1.14,5.48,1.91l.16,.05v.18c.17,2.11,.49,4.62,1.2,7.28,.37,1.32,.84,2.7,1.59,3.96,.73,1.24,1.89,2.4,3.38,2.41h-.1c.62-.14,1.25-.3,1.89-.46l-.28,.38c-.03-.58-.05-1.17-.08-1.76-.17-3.88-.33-7.57-.47-10.96-.03-.84-.07-1.66-.1-2.46-.05-.81,0-1.58-.21-2.22-.2-.66-.58-1.25-1.05-1.69-.46-.43-1.07-.77-1.59-1.14-2.02-1.39-3.69-2.54-4.98-3.42-1.17-.82-1.8-1.3-1.77-1.34Z"/>
    <path class="cls-1" d="M399.28,274.52c0-.06,.74-.15,2.07-.28,1.5-.12,3.38-.27,5.63-.45h.04s.05,0,.05,0c1.83,.43,3.99,.85,6.36,1.15,1.19,.15,2.43,.27,3.71,.29,1.24,.03,2.65-.04,3.4-.97,.41-.49,.53-1.19,.54-1.89,.01-.71-.1-1.4-.12-2.18-.02-.54-.4-1.13-.84-1.58-.44-.47-.98-.84-1.53-1.15-2.25-1.26-4.64-1.29-6.63-1.17-2.05,.05-3.73-.77-4.38-1.75-.67-.96-.61-1.67-.58-1.65,.06-.02,.11,.64,.81,1.47,.67,.85,2.2,1.51,4.14,1.41,1.93-.18,4.54-.23,6.97,1.1,.6,.33,1.19,.73,1.71,1.25,.5,.52,1.01,1.16,1.06,2.08,.02,.66,.15,1.41,.13,2.19,0,.77-.13,1.65-.69,2.35-.5,.64-1.25,.96-1.94,1.11-.7,.16-1.41,.14-2.06,.13-1.32-.04-2.58-.17-3.79-.34-2.41-.34-4.57-.81-6.41-1.29h.09c-2.25,.09-4.15,.16-5.65,.21-1.34,.03-2.08,.02-2.09-.04Z"/>
    <path class="cls-1" d="M430.78,274.38c-.16-.11,1.11-2.52,2.49-5.6,1.39-3.08,2.65-5.54,2.85-5.45,.17,.08-.77,2.66-2.17,5.76-1.39,3.11-2.99,5.41-3.17,5.29Z"/>
  </g>
  <path class="cls-12" d="M363.73,280.91l111.49,1.48,35.9-100.66c.79-2.09-.18-4.44-2.23-5.35h0c-2.23-.99-4.82,.11-5.67,2.39l-35.37,95.32-104.14,1.03c-1.59,.02-2.87,1.31-2.87,2.9h0c0,1.6,1.29,2.89,2.89,2.9Z"/>
  <g>
    <g>
      <path class="cls-6" d="M340.08,253.09l13.04-1.05s.28-4.84,3.13-6.55c2.85-1.71,2.56-5.41,4.27-5.12,1.71,.28,2.85-.02,2.85-.02l10.82-9.09,9.11-5.98,7.12-1.42s4.27,1.14,0,5.12l-4.55,2.56-3.98,3.98,9.11-4.47c.85-.42,1.84-.43,2.69-.02,2.09,.99,5.97,2.9,6.99,3.92,1.42,1.42,0,2.85,0,2.85l3.98,3.42s.85,4.55-3.7,3.42l-3.7-.85-4.84,4.84s16.51-3.42,17.65-2.85c1.14,.57,2.56,3.13,0,5.41-2.56,2.28-12.52,1.71-14.8,3.98-2.28,2.28-17.33,16.02-21.03,16.88-3.7,.85-34.07,8.27-34.07,8.27l-.06-27.23Z"/>
      <path class="cls-6" d="M404.63,241.23c-.07,.06-.87-.59-2.24-1.59-.68-.5-1.5-1.09-2.41-1.72-.46-.32-.95-.63-1.46-.94-.51-.28-1.07-.66-1.53-.63-1.11,.07-2.2,.84-3.18,1.32-.98,.53-1.85,1.03-2.58,1.46-1.45,.86-2.35,1.41-2.41,1.33-.06-.08,.73-.79,2.12-1.77,.7-.49,1.55-1.05,2.52-1.62,.49-.29,1-.57,1.55-.86,.55-.28,1.19-.57,1.94-.6,.18-.02,.38,0,.59,.07,.19,.06,.34,.13,.5,.2,.3,.15,.58,.31,.84,.48,.53,.33,1.02,.67,1.47,1.01,.91,.67,1.7,1.31,2.35,1.87,1.3,1.1,2,1.92,1.91,2Z"/>
      <path class="cls-6" d="M364.66,239.28c.13,.17-1.23,1.34-2.8,2.87-1.57,1.53-2.87,2.79-3.04,2.64-.14-.13,.91-1.6,2.52-3.17,1.62-1.57,3.21-2.49,3.32-2.33Z"/>
    </g>
    <path class="cls-12" d="M243.77,166.8s1.27,1.47,3.15,4.59c1.88,3.11,4.53,7.75,7.73,13.77,6.41,12.03,15.24,29.46,25.59,50.69l-.21-.17c17.75,4.17,38.2,8.97,60.2,14.14l.28,.07v.29c0,9.7,0,19.81,0,30.15v.37s-.37,0-.37,0h-3.61c-23.99-.01-46.85-.02-67.63-.03-2.6,0-5.16,0-7.7,0-.32,0-.61,.02-1-.04-.35-.07-.68-.18-.98-.33-.61-.28-1.14-.64-1.66-1-1.03-.74-1.98-1.56-2.9-2.39-3.65-3.35-6.85-6.91-9.92-10.37-6.11-6.95-11.52-13.65-16.43-19.8-9.78-12.31-17.43-22.48-22.69-29.53-2.6-3.52-4.62-6.26-6.01-8.15-.66-.92-1.17-1.63-1.54-2.14-.34-.48-.5-.74-.5-.74,0,0,.2,.23,.56,.7,.38,.49,.91,1.19,1.6,2.09,1.42,1.87,3.47,4.58,6.12,8.06,5.33,6.99,13.04,17.11,22.87,29.37,4.93,6.12,10.37,12.79,16.48,19.72,3.07,3.44,6.28,6.99,9.9,10.3,.91,.82,1.84,1.62,2.84,2.33,.5,.34,1.02,.69,1.56,.93,.56,.28,1.02,.34,1.7,.31,2.53,0,5.1,0,7.7,0,20.79,0,43.64-.02,67.63-.03h3.61l-.37,.37c0-10.34,0-20.45,0-30.15l.28,.36c-21.98-5.21-42.43-10.05-60.17-14.25l-.14-.03-.06-.13c-10.28-21.25-19.03-38.72-25.35-50.79-3.15-6.04-5.74-10.71-7.57-13.84-.94-1.55-1.64-2.76-2.2-3.51-.53-.77-.79-1.18-.79-1.18Z"/>
    <path class="cls-12" d="M235.85,161.95c-.05,.13-1.86-.61-4.91-1.3-1.52-.36-3.37-.64-5.42-.82-2.06-.14-4.33-.16-6.7,.05-2.37,.24-4.6,.68-6.59,1.21-1.99,.56-3.74,1.18-5.17,1.82-2.87,1.25-4.51,2.31-4.58,2.2-.03-.04,.36-.34,1.1-.83,.73-.51,1.84-1.15,3.27-1.84,1.42-.71,3.19-1.39,5.2-2,2.02-.57,4.29-1.05,6.71-1.29,2.42-.22,4.74-.17,6.83,.01,2.09,.22,3.96,.57,5.49,.99,1.53,.42,2.75,.84,3.56,1.2,.81,.35,1.25,.57,1.23,.61Z"/>
    <path class="cls-2" d="M197.57,206.18s54.47,74.15,62.99,74.15,88.31-.65,88.31-.65v-30.15l-68.92-13.55s-29.64-61.33-36.19-69.19c-6.55-7.86-24.09-18.43-37.19-6.63-13.11,11.79-9,46.02-9,46.02Z"/>
    <path class="cls-4" d="M269.01,249.7c-.17-.07,1.23-3.48,4.06-7.01,2.81-3.54,5.82-5.67,5.93-5.52,.15,.17-2.6,2.52-5.34,5.98-2.76,3.45-4.44,6.65-4.64,6.54Z"/>
    <path class="cls-4" d="M267.18,240.45c-.12-.14,1.99-1.94,5.16-3.06,3.17-1.15,5.94-1.1,5.93-.91,.02,.22-2.63,.51-5.68,1.61-3.06,1.08-5.29,2.54-5.41,2.36Z"/>
  </g>
  <g>
    <path class="cls-3" d="M318.31,395.22c-1.16-2.4-3.94-3.45-6.48-4.27-50.13-16.16-103.92-23.91-155.74-14.5-6.23,1.13-12.67,2.62-17.62,6.58-4.95,3.96-7.93,11.07-5.28,16.82l10.64,3.41c53-5.91,106.7-5.53,159.61,1.13,3.57,.45,7.33,.9,10.63-.51,3.3-1.41,5.79-5.42,4.22-8.66Z"/>
    <path class="cls-12" d="M260.14,378.65s-.12,0-.34-.02c-.26-.03-.58-.08-.97-.13-.91-.14-2.15-.32-3.71-.56-3.22-.51-7.88-1.26-13.67-1.92-11.57-1.38-27.66-2.59-45.44-2.17-4.45,.09-8.78,.3-12.96,.64-4.19,.32-8.2,.55-12.07,.9-.49,.03-1,.03-1.5-.03-.46-.06-.9-.08-1.36-.06-.9,.04-1.8,.22-2.69,.41-1.79,.37-3.52,.73-5.2,1.08-3.34,.75-6.42,1.57-9.18,2.48-5.53,1.81-9.73,4.01-12.44,5.79-1.36,.88-2.39,1.63-3.05,2.16-.31,.24-.57,.43-.78,.59-.18,.13-.27,.19-.28,.18,0,0,.07-.09,.23-.24,.2-.18,.44-.39,.73-.65,.64-.57,1.64-1.36,2.99-2.29,2.68-1.87,6.88-4.17,12.43-6.05,2.77-.95,5.86-1.81,9.21-2.58,1.68-.36,3.41-.74,5.2-1.12,.89-.19,1.82-.39,2.8-.44,.48-.03,.99,0,1.47,.06,.45,.05,.91,.05,1.37,.02,3.81-.37,7.88-.61,12.06-.94,4.19-.35,8.53-.57,12.99-.66,17.82-.43,33.95,.87,45.52,2.39,5.79,.73,10.45,1.55,13.65,2.16,1.55,.29,2.79,.52,3.69,.69,.38,.08,.7,.15,.96,.2,.21,.05,.32,.08,.32,.09Z"/>
    <path class="cls-3" d="M134.51,296.96l85.44,2.98c1.26,.04,2.21,1.17,2.03,2.43l-12.3,102.47h19.25l9.94-112.8c.47-3.85-2.45-7.28-6.33-7.42l-100.33-3.6,2.3,15.94Z"/>
  </g>
  <polygon class="cls-7" points="588.62 289.49 575.23 289.49 575.23 292.46 604.72 574.23 618.47 574.23 588.62 289.49"/>
  <g>
    <g>
      <polygon class="cls-7" points="289.69 289.49 303.08 289.49 303.08 292.52 275.6 574.13 261.84 574.13 289.69 289.49"/>
      <path class="cls-12" d="M289.69,289.49s-.03,.51-.12,1.48c-.09,.98-.22,2.42-.39,4.3-.36,3.78-.88,9.34-1.56,16.5-1.37,14.33-3.36,35.06-5.83,60.74-4.98,51.33-11.89,122.44-19.58,201.65l-.37-.41c4.29,0,8.91,0,13.55,0h.21l-.37,.34c13.03-132.3,24.07-244.36,27.74-281.58h0c0-1.39,0-2.23,.01-3.02l.11,.11c-4.56-.03-7.9-.05-10.11-.06-1.09-.01-1.91-.02-2.46-.02-.54,0-.82-.02-.82-.02,0,0,.25-.01,.78-.02,.55,0,1.36-.01,2.44-.02,2.22-.01,5.58-.03,10.16-.06h.11s0,.11,0,.11c0,.79,0,1.63,.01,3.03h0s0,.01,0,.01c-3.6,37.23-14.44,149.31-27.23,281.63l-.03,.34h-.54c-4.64,0-9.26,0-13.55,0h-.41l.04-.41c7.82-79.3,14.84-150.5,19.9-201.88,2.56-25.64,4.62-46.33,6.05-60.64,.72-7.12,1.28-12.64,1.66-16.41,.19-1.86,.34-3.27,.44-4.25,.1-.95,.17-1.43,.17-1.43Z"/>
    </g>
    <rect class="cls-7" x="257.47" y="280.33" width="383.2" height="12.13"/>
    <path class="cls-12" d="M599.89,292.46c0,.21-76.38,.37-170.57,.37s-170.59-.17-170.59-.37,76.36-.37,170.59-.37,170.57,.17,170.57,.37Z"/>
  </g>
</svg>