<?xml version="1.0" encoding="UTF-8"?>
<svg id="Capa_1" data-name="Capa 1" xmlns="http://www.w3.org/2000/svg" viewBox="0 0 915.36 650.19">
  <defs>
    <style>
      .cls-1 {
        fill: #94c3dc;
      }

      .cls-2, .cls-3 {
        fill: #fff;
      }

      .cls-4 {
        fill: #f5f5f5;
      }

      .cls-5, .cls-6, .cls-7, .cls-3 {
        stroke-miterlimit: 10;
      }

      .cls-5, .cls-8 {
        fill: #192e35;
      }

      .cls-5, .cls-3 {
        stroke: #1d2441;
        stroke-width: .35px;
      }

      .cls-9 {
        fill: #fbcd48;
      }

      .cls-10 {
        fill: #eba522;
      }

      .cls-6 {
        stroke: #1b2444;
        stroke-width: 1.26px;
      }

      .cls-6, .cls-11 {
        fill: #1b2444;
      }

      .cls-12 {
        fill: #8b828f;
      }

      .cls-13 {
        opacity: .3;
      }

      .cls-7 {
        stroke: #1b2545;
        stroke-width: 2px;
      }

      .cls-7, .cls-14 {
        fill: #1d2441;
      }

      .cls-15 {
        fill: #d0bddc;
      }

      .cls-16 {
        fill: #e1e0e0;
      }
    </style>
  </defs>
  <g>
    <g>
      <circle class="cls-3" cx="521.76" cy="104.09" r="40.85" transform="translate(-4.27 24.34) rotate(-2.66)"/>
      <g>
        <path class="cls-5" d="M568.57,128.37s-.42-.15-1.21-.23c-.77-.08-1.96,.02-3.18,.71-.6,.35-1.2,.84-1.66,1.51-.45,.67-.77,1.51-.78,2.42-.07,1.8,.92,3.91,2.84,4.82,1.94,.86,4.19,.24,5.5-.99,.68-.61,1.11-1.39,1.32-2.17,.2-.79,.18-1.56,.05-2.24-.27-1.37-.97-2.34-1.54-2.87-.57-.54-.98-.73-.96-.77,0-.01,.11,.03,.3,.13,.1,.04,.21,.11,.34,.2,.13,.08,.28,.19,.43,.33,.61,.51,1.38,1.49,1.7,2.93,.15,.71,.19,1.53-.01,2.38-.21,.84-.67,1.69-1.39,2.35-.71,.67-1.64,1.17-2.68,1.39-1.03,.23-2.19,.15-3.23-.31-1.03-.49-1.84-1.31-2.34-2.24-.51-.93-.74-1.96-.7-2.93,.03-.98,.38-1.88,.87-2.59,.51-.71,1.15-1.21,1.79-1.56,1.3-.69,2.54-.75,3.33-.62,.2,.02,.38,.07,.53,.11,.15,.04,.28,.08,.37,.12,.2,.08,.3,.13,.29,.14Z"/>
        <path class="cls-5" d="M556.53,126.22s.1-.2,.31-.59c.22-.39,.54-.97,.95-1.71,.21-.38,.44-.8,.7-1.26,.24-.47,.45-1.02,.71-1.59,.25-.58,.52-1.2,.81-1.86,.16-.33,.28-.68,.39-1.05,.12-.37,.24-.74,.36-1.13,1.1-3.07,1.87-7.04,2.03-11.66,.14-4.62-.51-9.95-2.55-15.42-.26-.68-.52-1.37-.79-2.07-.31-.68-.66-1.35-.99-2.03-.17-.34-.34-.69-.51-1.03-.17-.35-.34-.7-.56-1.02-.41-.66-.83-1.33-1.25-2-.21-.34-.42-.68-.64-1.01-.24-.32-.49-.64-.74-.96-.49-.64-.99-1.29-1.49-1.95-.52-.64-1.12-1.22-1.69-1.84-.29-.31-.58-.62-.87-.92-.15-.15-.29-.31-.44-.46l-.48-.42c-1.3-1.11-2.56-2.33-4.05-3.29-.73-.5-1.43-1.05-2.2-1.52-.78-.44-1.57-.89-2.36-1.34-.4-.22-.79-.47-1.2-.66-.42-.18-.84-.37-1.27-.56-.85-.36-1.69-.77-2.57-1.1-1.79-.56-3.57-1.25-5.47-1.58-.47-.1-.94-.21-1.41-.31-.24-.05-.47-.11-.71-.15l-.72-.09c-.97-.11-1.94-.23-2.92-.34-.98-.07-1.98-.05-2.97-.08-.5,0-1-.05-1.5,0l-1.5,.11c-2.02,.07-4.01,.49-6.04,.84-.99,.27-1.99,.54-2.99,.82l-.75,.21c-.25,.08-.49,.18-.73,.27l-1.47,.56-1.47,.56-1.42,.69-1.42,.7-.71,.35c-.23,.13-.45,.28-.68,.42-.9,.56-1.81,1.12-2.72,1.69-.85,.65-1.71,1.31-2.57,1.96-3.33,2.75-6.29,6.05-8.72,9.77-2.34,3.78-4.08,7.85-5.16,12.04-.23,1.06-.46,2.11-.69,3.16-.13,1.07-.25,2.13-.38,3.18l-.09,.79-.02,.8-.03,1.59-.03,1.58,.12,1.57,.12,1.56,.06,.78,.13,.77c.18,1.02,.35,2.04,.53,3.05,.55,1.98,1.01,3.97,1.8,5.83l.53,1.41c.17,.47,.43,.9,.64,1.35,.45,.89,.86,1.8,1.34,2.66,.52,.84,1.04,1.67,1.55,2.5l.38,.62c.14,.2,.29,.39,.44,.58,.29,.38,.59,.77,.88,1.15,1.1,1.58,2.49,2.9,3.75,4.29,.67,.65,1.4,1.24,2.09,1.86,.35,.3,.69,.61,1.04,.91,.35,.29,.74,.54,1.11,.81,.74,.53,1.48,1.05,2.21,1.57,.75,.49,1.55,.9,2.31,1.35,1.5,.94,3.14,1.57,4.7,2.27l.59,.26c.2,.08,.4,.14,.6,.2,.4,.13,.8,.26,1.2,.39,.8,.25,1.59,.55,2.39,.75,.81,.18,1.61,.35,2.4,.53,.4,.09,.79,.17,1.18,.26,.4,.05,.79,.1,1.19,.15,.79,.09,1.57,.19,2.34,.28,.39,.06,.77,.07,1.16,.07,.39,0,.77,.02,1.15,.03,.76,.01,1.52,.05,2.26,.04,.74-.05,1.48-.11,2.21-.16,5.81-.48,10.92-2.15,15.05-4.23,.52-.26,1.03-.5,1.53-.76,.48-.29,.94-.58,1.4-.86,.46-.28,.91-.56,1.35-.83,.22-.14,.44-.26,.65-.41,.2-.15,.4-.31,.6-.46,.79-.6,1.55-1.18,2.27-1.72,.7-.57,1.31-1.19,1.91-1.73,.3-.28,.59-.55,.87-.81,.29-.26,.56-.52,.78-.8,.48-.54,.93-1.05,1.34-1.52,.41-.48,.81-.9,1.14-1.31,.31-.43,.59-.82,.84-1.17,.5-.69,.88-1.22,1.15-1.59,.26-.36,.4-.53,.4-.53,0,0-.12,.19-.37,.56-.26,.37-.63,.91-1.12,1.61-.25,.35-.52,.75-.83,1.18-.32,.42-.72,.85-1.13,1.33-.41,.48-.86,.99-1.33,1.54-.23,.28-.49,.55-.78,.81-.28,.27-.57,.54-.87,.82-.61,.55-1.2,1.18-1.91,1.75-.72,.55-1.48,1.14-2.27,1.74-.2,.15-.4,.31-.6,.46-.21,.15-.43,.28-.65,.42-.44,.28-.89,.56-1.35,.84-.46,.29-.93,.58-1.4,.88-.5,.26-1.01,.51-1.53,.77-4.14,2.11-9.27,3.81-15.12,4.3-.73,.06-1.47,.11-2.22,.17-.75,.01-1.51-.02-2.28-.03-.38,0-.77-.01-1.16-.02-.39,0-.78,0-1.17-.07-.78-.09-1.57-.18-2.36-.28-.4-.05-.8-.09-1.2-.15-.39-.09-.79-.17-1.19-.26-.8-.17-1.6-.35-2.42-.53-.81-.2-1.59-.5-2.4-.75-.4-.13-.81-.26-1.22-.39-.2-.07-.41-.13-.61-.2l-.59-.26c-1.57-.71-3.22-1.34-4.74-2.28-.77-.45-1.57-.86-2.33-1.35-.74-.52-1.48-1.05-2.23-1.58-.37-.27-.76-.52-1.12-.81-.35-.3-.7-.61-1.05-.92-.69-.62-1.43-1.21-2.11-1.87-1.28-1.4-2.67-2.72-3.79-4.32-.3-.39-.59-.77-.89-1.16-.15-.2-.3-.38-.44-.59l-.39-.63c-.52-.83-1.04-1.67-1.56-2.52-.48-.87-.9-1.78-1.35-2.68-.21-.46-.47-.89-.65-1.37l-.54-1.42c-.8-1.87-1.27-3.88-1.82-5.88-.18-1.02-.35-2.05-.53-3.08l-.13-.77-.06-.79-.12-1.58-.12-1.58,.03-1.59,.03-1.6,.02-.8,.09-.8c.13-1.07,.25-2.14,.38-3.21,.23-1.06,.46-2.12,.7-3.19,1.09-4.23,2.85-8.34,5.2-12.15,2.46-3.75,5.44-7.08,8.8-9.86,.87-.66,1.73-1.32,2.59-1.98,.92-.57,1.84-1.14,2.75-1.71,.23-.14,.45-.29,.69-.42l.72-.36,1.44-.71,1.43-.7,1.49-.56,1.48-.56c.25-.09,.49-.19,.74-.27l.76-.21c1.01-.28,2.02-.55,3.02-.82,2.04-.35,4.06-.77,6.1-.84l1.52-.11c.5-.04,1.01,0,1.51,0,1,.03,2.01,.02,3,.09,.99,.12,1.97,.23,2.94,.35l.73,.09c.24,.04,.48,.1,.72,.15,.48,.1,.95,.21,1.43,.31,1.92,.34,3.71,1.04,5.51,1.6,.88,.34,1.73,.75,2.59,1.12,.43,.19,.85,.38,1.27,.56,.42,.2,.81,.45,1.21,.67,.8,.45,1.59,.91,2.38,1.35,.77,.48,1.48,1.03,2.21,1.54,1.5,.97,2.77,2.2,4.07,3.32l.49,.43c.16,.15,.3,.31,.44,.47,.29,.31,.58,.62,.87,.93,.57,.63,1.17,1.22,1.7,1.86,.51,.66,1.01,1.32,1.5,1.97,.25,.32,.49,.65,.74,.97,.22,.34,.43,.68,.64,1.02,.42,.68,.84,1.35,1.25,2.02,.22,.33,.39,.68,.56,1.03,.17,.35,.34,.69,.51,1.04,.33,.69,.69,1.36,.99,2.05,.26,.7,.53,1.4,.79,2.08,2.03,5.51,2.66,10.88,2.51,15.52-.18,4.65-.98,8.63-2.1,11.7-.13,.39-.25,.77-.37,1.13-.11,.37-.24,.72-.4,1.05-.3,.66-.57,1.28-.83,1.86-.26,.57-.48,1.11-.72,1.59-.27,.46-.51,.88-.72,1.25-.43,.74-.76,1.3-.98,1.69-.22,.38-.35,.57-.35,.57Z"/>
      </g>
    </g>
    <g>
      <g>
        <path class="cls-1" d="M529.65,116.14v-12.61c.59,.09,1.15,.14,1.69,.14,3.2,0,4.69-1.66,5.29-2.65,.91-1.49,1.06-3.3,.42-4.82-.39-.93-1.61-3.08-4.58-3.08h-.1c-4.59,.08-5.13,4.04-5.19,4.93h-5.42c0-3.24,.88-5.77,2.63-7.54,2.47-2.5,6.06-2.87,7.99-2.87,2.95,0,10.61,1.83,10.61,10.21s-7.78,10.68-7.86,10.7l-.13,.03v7.57h-5.35Z"/>
        <path class="cls-14" d="M532.37,87.8c2.9,0,10.44,1.8,10.44,10.03s-7.41,10.45-7.73,10.53l-.26,.07v7.53s-5,0-5,0v-12.23c.52,.07,1.03,.11,1.51,.11,3.29,0,4.82-1.71,5.44-2.73,.93-1.54,1.1-3.4,.43-4.98-.4-.96-1.67-3.19-4.74-3.19h-.11c-4.49,.08-5.23,3.76-5.35,4.93h-5.09c.03-3.1,.9-5.54,2.58-7.24,2.43-2.45,5.97-2.82,7.86-2.82m0-.35c-2.47,0-10.9,.6-10.79,10.76h5.76s0-4.84,5.03-4.92c.03,0,.07,0,.1,0,2.55,0,3.87,1.68,4.41,2.98,.64,1.52,.45,3.26-.41,4.67-.81,1.33-2.41,2.56-5.14,2.56-.57,0-1.19-.05-1.86-.17v12.99h5.7v-7.61s7.99-2.07,7.99-10.87-7.56-10.38-10.79-10.38h0Z"/>
      </g>
      <g>
        <rect class="cls-1" x="529.64" y="119.17" width="5.43" height="5.05"/>
        <path class="cls-14" d="M534.89,119.34v4.7h-5.08v-4.7h5.08m.35-.35h-5.78v5.4h5.78v-5.4h0Z"/>
      </g>
    </g>
    <g>
      <g>
        <path class="cls-1" d="M509.37,124.22c-2.95,0-10.62-1.83-10.62-10.21s7.78-10.68,7.86-10.7l.13-.03v-7.57h5.35v12.61c-.59-.09-1.15-.14-1.69-.14-3.2,0-4.69,1.66-5.29,2.65-.91,1.49-1.06,3.3-.42,4.82,.39,.93,1.61,3.08,4.57,3.08h.1c4.59-.08,5.13-4.04,5.19-4.93h5.42c0,3.24-.88,5.77-2.63,7.54-2.47,2.5-6.06,2.87-7.98,2.87Z"/>
        <path class="cls-14" d="M511.92,95.88v12.23c-.52-.07-1.03-.11-1.51-.11-3.29,0-4.82,1.71-5.44,2.73-.93,1.54-1.1,3.4-.43,4.98,.4,.96,1.67,3.19,4.74,3.19h.11c4.49-.08,5.23-3.76,5.35-4.93h5.09c-.03,3.1-.9,5.54-2.58,7.24-2.43,2.45-5.97,2.82-7.86,2.82-2.9,0-10.44-1.8-10.44-10.03s7.41-10.45,7.73-10.53l.26-.07v-7.53h5m.35-.35h-5.7v7.61s-7.99,2.07-7.99,10.87,7.56,10.38,10.79,10.38c2.47,0,10.9-.6,10.79-10.76h-5.76s0,4.84-5.03,4.92c-.03,0-.07,0-.1,0-2.55,0-3.87-1.68-4.41-2.98-.64-1.52-.45-3.26,.41-4.67,.81-1.33,2.41-2.56,5.14-2.56,.57,0,1.19,.05,1.86,.17v-12.99h0Z"/>
      </g>
      <g>
        <rect class="cls-1" x="506.68" y="87.63" width="5.43" height="5.05"/>
        <path class="cls-14" d="M511.94,87.8v4.7h-5.08v-4.7h5.08m.35-.35h-5.78v5.4h5.78v-5.4h0Z"/>
      </g>
    </g>
  </g>
  <path class="cls-7" d="M867,525.6c0,.14-150.36,.26-335.8,.26s-399.02-.28-399.02-.42,213.51-.1,399.02-.1,335.8,.12,335.8,.26Z"/>
  <g>
    <g id="OYJhNN">
      <g>
        <path class="cls-15" d="M594.33,312.83c-3.11-1.29-6.34-2.29-9.25-4.05-11.45-6.94-18.4-16.89-20.36-30.23-.48-3.26-.35-6.51-.19-9.77,.04-.93-.16-1.42-.85-2-4.83-4.06-8.22-9.02-9.45-15.32-1.19-6.15,1.98-10.96,8.04-12.28,.9-.2,1.69,.09,2.54,.08,.22-.2,.5-.33,.78-.29,1.23,.2,1.38-.51,1.48-1.5,.45-4.27,.68-8.56,1.35-12.8,.08-.51,.19-1.01,.29-1.52,.19-1,.72-1.48,1.8-1.36,2.45,.27,4.92,.11,7.38,.12,11.81,.05,23.04-2.65,33.85-7.24,7.34-3.12,14.36-6.85,20.83-11.56,.37-.27,.76-.51,1.15-.74,.97-.56,1.48-.28,1.63,.82,.25,1.81,.39,3.65,.74,5.44,2.5,12.75,9.49,22,21.45,27.29,1.43,.63,1.95,1.49,1.95,3.01-.01,3.76,.03,3.69,3.65,2.94,2.84-.59,5.67-1.42,8.62-1.24,7.64,.05,11.97,6.2,9.69,14.08-2.3,7.97-7.26,13.79-14.9,17.17-.98,.43-1.52,.96-1.87,1.98-1.3,3.8-2.89,7.5-5.19,10.8-1.37,1.97-1.5,3.86-1.16,6.1,1.77,11.45,3.43,22.91,5.15,34.37,.97,6.49,.92,6.5,1.96,12.98,.25,1.54,.42,4.97-.18,6.63-5.33,12.57-13.56,20.8-13.56,20.8l-23.8,21.52c-24.72-25.92-20.74-25.76-24.7-31.98-.77,.12-2.98-3.81-3.1-4.67-1.2-8.42-1.72-11.69-2.96-20.09,.38-.7,1.1-.78,1.75-.95,9.65-2.66,18.16-7.44,25.82-13.82,1.94-1.62,3.57-3.55,5.45-5.25,.19-.09-.17-.28,0-.12,.03,.03,0,.07-.12,.12-4.88,2.08-9.98,3.31-15.23,3.97-5.53,.69-11.06,.67-16.57-.29-1.35-.23-2.72-.42-3.92-1.16Z"/>
        <path class="cls-11" d="M671.45,241.48c-2.82,.93-5.82,.96-8.67,1.74-1.04,.28-2.12,.46-3.17,.71-.74,.18-1.04-.04-1.01-.83,.05-1.14-.12-2.31,.04-3.43,.21-1.44-.51-1.91-1.67-2.43-12.2-5.48-19.34-14.93-21.73-28.03-.35-1.95-.54-3.93-.82-6.06-3.54,2.42-7.05,4.76-10.71,6.85-10.62,6.05-21.84,10.38-33.95,12.35-6.64,1.08-13.28,1.19-19.96,.72-.83-.06-.77,.34-.88,.86-.77,3.51-.9,7.11-1.33,10.66-.2,1.64-.29,3.29-.37,4.94-.04,.9-.52,1.05-1.25,.91-.5-.1-1-.22-1.5-.34-1.92-4.63-1.44-9.51-1.41-14.32,0-1.12-.33-2.27,.16-3.38,.23-.53-.23-.68-.6-.85-4.31-2-4.53-5.8-2.97-9.42,1.85-4.31,4.97-7.68,8.45-10.7,11.47-9.93,24.72-16.25,39.66-18.69,12.31-2.01,24.05-.33,34.98,6.26,3.56,2.15,7.59,3.53,11.02,5.99,9.63,6.9,16.3,15.7,17.86,27.78,.1,.79,.11,1.6,.16,2.4,.32,1.53-.11,3.1,.24,4.63-.17,3.89-.07,7.8-.59,11.68Z"/>
        <path class="cls-11" d="M594.35,313.29c2.33,.15,4.57,.87,6.9,1.11,10.18,1.03,19.97-.45,29.42-4.29,.2-.08,.41-.11,1.07-.29-9.74,10.53-21.07,17.53-34.56,20.97-.94-5.83-1.88-11.66-2.83-17.49Z"/>
        <path class="cls-12" d="M673.3,225.78c-.54-1.52-.22-3.09-.24-4.63,.43,1.53,.27,3.08,.24,4.63Z"/>
        <path class="cls-11" d="M604.65,285.31c-1.27,.05-1.93-.64-2.16-1.78-.23-1.14,.33-1.92,1.35-2.28,.8-.29,1.68-.34,2.5-.56,3.41-.92,6.55-2.36,9.15-4.83,1.17-1.11,2.67-1.25,3.5-.39,1.02,1.05,.85,2.3-.55,3.55-3.94,3.54-8.57,5.58-13.79,6.3Z"/>
        <path class="cls-11" d="M584.69,253.94c2.16,0,3.78,1.66,3.74,3.82-.04,2.04-1.73,3.73-3.72,3.71-2.04-.02-3.86-1.88-3.8-3.87,.07-2.02,1.77-3.66,3.79-3.66Z"/>
        <path class="cls-11" d="M626.68,256.03c2.15-.04,3.91,1.65,3.89,3.71-.02,1.98-1.72,3.74-3.69,3.83-2.05,.09-3.81-1.66-3.81-3.79,0-2.14,1.51-3.71,3.61-3.75Z"/>
        <path class="cls-11" d="M583.39,237.07c1.61-.04,3.18,.21,4.74,.57,1.46,.34,1.97,1.34,1.67,2.69-.31,1.37-1.41,1.73-2.66,1.51-1.86-.34-3.71-.63-5.6-.58-1.48,.04-2.31-.82-2.3-2.19,0-1.33,.9-2.02,2.27-2,.63,.01,1.25,0,1.88,0Z"/>
        <path class="cls-11" d="M629.55,243.98c-2.03-.49-4.19-.62-6.36-.7-1.22-.05-1.79-.9-1.83-2.07-.04-1.15,.63-1.89,1.7-2.01,2.51-.27,5.02-.09,7.46,.6,1.16,.33,1.6,1.26,1.5,2.38-.09,1.04-1.21,1.83-2.46,1.79Z"/>
      </g>
    </g>
    <polygon class="cls-4" points="461.96 600.06 559.73 603.23 635.53 532.89 540.54 532.89 461.96 600.06"/>
    <polygon class="cls-4" points="496.96 610.54 594.72 613.71 670.52 543.37 575.53 543.37 496.96 610.54"/>
    <polygon class="cls-16" points="480.51 603.57 578.27 606.73 654.07 536.4 559.08 536.4 480.51 603.57"/>
    <g>
      <polygon class="cls-4" points="571.19 532.89 666.18 532.89 590.38 603.23 489.49 599.96 571.19 532.89"/>
      <path class="cls-8" d="M571.19,532.89s-.13,.09-.39,.29c-.26,.21-.64,.51-1.13,.91-1.01,.82-2.48,2.01-4.4,3.57-3.86,3.15-9.5,7.75-16.67,13.6-14.35,11.75-34.81,28.49-59.27,48.51l-.52,.42,.67,.02c28.36,.93,61.51,2.01,96.75,3.17,1.39,.04,2.78,.09,4.13,.13h.12s.09-.08,.09-.08c27.91-25.92,53.9-50.05,75.77-70.37l.45-.42h-.62c-28.6,.04-52.35,.08-68.97,.11-8.28,.03-14.79,.05-19.24,.07-2.2,.02-3.9,.03-5.05,.03-1.14,.01-1.72,.04-1.72,.04,0,0,.6,.02,1.75,.04,1.16,0,2.86,.02,5.07,.03,4.45,.02,10.97,.04,19.26,.07,16.6,.03,40.33,.06,68.9,.11l-.16-.42c-21.89,20.3-47.9,44.41-75.83,70.3l.2-.08c-1.36-.04-2.74-.09-4.13-.13-35.25-1.13-68.39-2.19-96.76-3.1l.15,.44c24.38-20.07,44.77-36.85,59.07-48.63,7.14-5.9,12.76-10.54,16.6-13.72,1.91-1.59,3.37-2.81,4.38-3.64,.49-.41,.86-.72,1.12-.94,.25-.21,.37-.33,.37-.33Z"/>
    </g>
    <g>
      <path class="cls-8" d="M537.13,573.46c0,.16,15.15,.76,33.84,1.34,18.7,.59,33.86,.93,33.86,.77,0-.16-15.14-.76-33.84-1.34-18.69-.58-33.85-.93-33.86-.77Z"/>
      <path class="cls-8" d="M529.05,579.46c0,.16,15.39,.76,34.38,1.34,19,.58,34.39,.92,34.4,.77,0-.16-15.39-.76-34.38-1.34-18.99-.58-34.39-.92-34.4-.77Z"/>
      <path class="cls-8" d="M520.51,585.48c0,.16,15.5,.79,34.62,1.41,19.13,.62,34.64,.99,34.64,.84,0-.16-15.49-.79-34.62-1.41-19.12-.62-34.63-.99-34.64-.84Z"/>
      <path class="cls-8" d="M541.8,568.02c0,.16,15.59,.78,34.83,1.39,19.24,.61,34.84,.98,34.85,.82s-15.59-.78-34.83-1.39c-19.24-.61-34.84-.98-34.84-.82Z"/>
    </g>
    <g>
      <path class="cls-8" d="M574.02,545.53c0,.16,14.47,.56,32.31,.91,17.85,.34,32.32,.49,32.33,.33,0-.16-14.46-.56-32.32-.91-17.85-.34-32.32-.49-32.32-.34Z"/>
      <path class="cls-8" d="M565.94,551.53c0,.16,14.91,.57,33.31,.92,18.4,.35,33.32,.51,33.32,.35,0-.16-14.91-.57-33.31-.92-18.4-.35-33.31-.51-33.32-.35Z"/>
      <path class="cls-8" d="M557.86,557.54c0,.16,15.65,.59,34.95,.96,19.31,.37,34.96,.54,34.96,.39,0-.16-15.64-.59-34.95-.96-19.3-.37-34.96-.54-34.96-.39Z"/>
      <path class="cls-8" d="M549.78,563.54c0,.16,15.65,.59,34.95,.96,19.31,.37,34.96,.54,34.96,.39,0-.16-15.64-.59-34.95-.96-19.3-.37-34.96-.54-34.96-.39Z"/>
    </g>
    <polyline class="cls-1" points="580.9 334.18 526.69 345.32 528.71 404.77 534.62 504.72 537.66 524.28 738.69 527.44 735.28 426.76 731.35 394.22 724.3 335.34 668 329.35"/>
    <path class="cls-1" d="M526.69,345.32s-13.16,6.16-22.43,34.52c-6.73,20.61-34.13,91.56-34.13,91.56l-30.34-8.51s-22.33,26.74-17.27,36.06c5.06,9.32,38.74,26.38,38.74,26.38h48.7c5.92-4.39,8.1-8.24,10.22-15.13l24.75-80.13-18.24-84.76Z"/>
    <path class="cls-15" d="M427.5,483.87h0s-11.47,0-17.21-5.45c-5.74-5.45-16.35-10.61-12.04-20.36,0,0-5.16-6.02-1-12.62l.14-1.72s-12.91-5.45-9.18-12.04c3.73-6.6,10.9-3.73,10.9-3.73,0,0-14.09-9.52-16.63-12.13-6.79-6.97,.51-11.67,8.07-7.49,12.5,6.91,54.74,26.8,57.61,41.14v6.25s11.76,14.4,11.76,15.26c0,.18-.04,1.34-.25,3.13-1.84,15.91-21.78,21.97-32.16,9.77Z"/>
    <g>
      <path class="cls-2" d="M361.2,358.27c-.52-.65,64.15,103.6,64.15,103.6l2.94,34.98h100.92l-9.36-39.81s-17.45-46.77-17.25-47.31c.38-1.06-32.65-53.03-32.65-53.03l-108.75,1.58Z"/>
      <path class="cls-8" d="M361.2,358.27s.68-.03,1.98-.06c1.31-.03,3.24-.07,5.75-.12,5.05-.09,12.44-.22,21.9-.39,18.92-.3,46.09-.74,79.12-1.27h.15s.08,.12,.08,.12c8.65,13.63,18.15,28.57,28,44.71,1.22,2.02,2.45,4.06,3.64,6.16,.29,.53,.59,1.05,.86,1.61,.07,.15,.13,.27,.19,.46,.01,.04,.04,.08,.04,.22-.02,.16,0,.1,.02,.12,.01,0,.01,0,.01,0l.03,.1,.27,.85c.4,1.14,.79,2.28,1.19,3.43,1.66,4.57,3.35,9.21,5.06,13.91,3.48,9.38,7.04,18.99,10.67,28.79v.02s.01,.02,.01,.02c2.84,12.08,5.82,24.74,8.85,37.64,.17,.73,.34,1.46,.51,2.18l.09,.4h-.41c-35.91,0-70.08-.02-100.92-.03h-.27s-.02-.27-.02-.27c-1.02-12.24-1.99-23.91-2.91-34.98l.04,.12c-19.28-31.2-35.3-57.1-46.5-75.23-5.57-9.06-9.94-16.18-12.93-21.04-1.47-2.42-2.6-4.28-3.37-5.55-.37-.62-.65-1.1-.85-1.43-.19-.32-.28-.49-.27-.49,1.21,1.95,25.71,41.3,64.39,103.45l.03,.06v.07c.94,11.07,1.93,22.74,2.96,34.97l-.3-.27c30.84,0,65.01-.02,100.92-.03l-.31,.4c-.17-.72-.34-1.45-.51-2.18-3.03-12.89-6.01-25.56-8.85-37.64v.04c-3.62-9.81-7.18-19.42-10.65-28.8-1.71-4.7-3.39-9.34-5.05-13.92-.4-1.15-.8-2.3-1.19-3.44l-.28-.88-.03-.11c-.02-.07-.03-.15-.03-.22v-.11c-.23-.1,.33,.08,.2,.03-.06-.02-.12-.03-.17-.03-.09,0-.02,.05-.04,.04v-.04c-.04-.1-.11-.25-.17-.37-.26-.53-.55-1.05-.84-1.57-1.17-2.08-2.4-4.12-3.62-6.15-9.83-16.14-19.32-31.09-27.93-44.74l.22,.12c-33.07,.43-60.27,.79-79.22,1.03-9.45,.11-16.83,.19-21.87,.25-2.5,.02-4.41,.04-5.72,.05-1.29,0-1.94,0-1.94,0Z"/>
    </g>
    <path class="cls-15" d="M412.98,465.77c6.29-.4,12.59-.8,18.88-1.2,1.99-.13,4.17-.34,5.55-1.77,1.72-1.78,.88-5.82-1.29-7.01l-21.64-5.22"/>
    <path class="cls-15" d="M421.74,443.8c5.78,1.03,11.28,2.65,16.77,4.73,2.11,.8,2.69,2.44,2.48,4.33-.1,.92-.46,1.82-1.24,2.31-.78,.49-1.73,.64-2.65,.73-5.44,.52-10.64-.23-16.05-.98-5.41-.75-12.9,0-16.04,1.65"/>
    <path class="cls-15" d="M400.07,428.16c4.96,2.77,9.92,5.54,14.89,8.3,2.25,1.25,4.6,2.6,5.94,4.8,1.34,2.2,1.23,5.51-.92,6.92-1.69,1.11-3.92,.69-5.88,.19-5.55-1.41-11.02-3.15-16.37-5.2"/>
    <path class="cls-8" d="M722.54,443.11l-86.18,80.07-8.14,3.86-4.5,2.31,2.1-3.88,4.26-7.86,87.24-80.13c1.48-1.36,3.76-1.35,5.22,.03h0c1.62,1.52,1.62,4.1-.01,5.62Z"/>
    <path class="cls-15" d="M728.52,488.13l-6.76,1.2s-35.01-12.92-40.01-13.57c-3.86-.5-22.28,3.82-30.44,5.82-3.29,.8-5.7,3.77-5.55,7.15,0,.05,0,.1,0,.15,.16,2.72,1.99,5.07,4.51,6.11h0s-6.88,2.13-3.77,9.4c2.3,5.38,9.56,4.55,9.56,4.55l8.13,.16-5.65,2.57c-4.67,2.12-4.45,1.6-4.45,1.6,0,0-7.31,7.03-.25,9.96,4.31,1.79,7.39,1.3,7.39,1.3,0,0-2.11,7.55,3.54,8.85,5.65,1.3,43-1.54,43-1.54,0,0,1.98-1.11,9.59-1.76l10.53-.73,.6-41.22Z"/>
    <path class="cls-6" d="M652.03,495.04c.02,.27,4.32-.12,9.6-.88,5.29-.76,9.56-1.6,9.55-1.87-.02-.27-4.32,.12-9.61,.88-5.29,.76-9.56,1.6-9.55,1.87Z"/>
    <path class="cls-6" d="M664.13,509.12c0,.33,2.62,.52,5.85,.42,3.23-.1,5.84-.44,5.83-.77,0-.33-2.62-.52-5.85-.42-3.23,.1-5.84,.44-5.83,.77Z"/>
    <path class="cls-6" d="M661.6,524.23c0,.32,4.36-.61,9.74-2.08,5.38-1.47,9.74-2.93,9.74-3.25,0-.32-4.36,.61-9.74,2.08-5.38,1.47-9.74,2.93-9.73,3.25Z"/>
    <path class="cls-1" d="M722.32,335.53s27.68,4.21,42.82,22.41c10.55,12.68,79.25,78.01,86.65,99.9,5.22,15.44-4.04,41.81-30.64,47.68-15.21,3.36-99.43,35.62-99.43,35.62l-11.23-55.91,63.53-25.23s-51.57-45.73-51.84-47.56c-.27-1.82-4.44-78.26-4.44-78.26"/>
    <path class="cls-11" d="M732.41,418.69c.3,.29,.73,.67,1.11,1.1,3.89,4.24,9.04,9.19,13.61,12.69,.82,.63,1.75,1.32,.9,2.43-.83,1.09-1.65,.18-2.33-.35-4.81-3.73-10.25-8.86-14.27-13.43-.46-.52-1.19-1.08-.51-1.93,.33-.42,.77-.62,1.5-.5Z"/>
    <g>
      <path class="cls-9" d="M637.98,150.25c1.4,.23,35.21,8.71,43.11,34.24,7.9,25.52,5.22,33.24,5.22,33.24,0,0,1.94,1.24,3.48,3.14,1.37,1.69-.88,9.62-5.3,8.62-32.85-15.48-72.12-17.9-115.93-17.58l-31.9-1.15c-9.41,.87-10-3.69-5.98-5.95,3.08-1.73,25.71-9.86,25.71-9.86l5.32-3.69,14.3-18.87s-1.65-2.71,1.79-4.86c3.44-2.14,32.54-21.78,60.18-17.26Z"/>
      <path class="cls-10" d="M561.71,191.24s.45,.03,1.31,.04c1.02,0,2.25,0,3.74,0,3.25-.06,7.95,.09,13.75,.36,11.59,.66,27.6,2.47,44.84,6.62,17.27,4.04,32.5,9.22,43.44,13.12,5.48,1.94,9.88,3.61,12.93,4.74,1.4,.52,2.56,.94,3.51,1.3,.8,.29,1.24,.42,1.24,.42,0,0-.41-.2-1.2-.52-.95-.38-2.09-.84-3.47-1.4-3.03-1.19-7.41-2.91-12.87-4.91-10.91-4-26.15-9.25-43.45-13.3-17.28-4.16-33.34-5.91-44.95-6.47-11.63-.49-18.82,0-18.82,0Z"/>
      <path class="cls-10" d="M668.67,165.92s-36.49-6.79-53.08,.71c.64-.3,1.28-.61,1.93-.91-5.22,2.15-10.44,4.3-15.66,6.45-2.64,1.09-5.74,2.16-8.24,.77,0,0,8.45-7.24,23.9-12.06,15.45-4.82,39.84-6.48,51.15,5.05Z"/>
      <path class="cls-10" d="M669.2,166.12s-1.06-.92-3.23-2.23c-2.16-1.31-5.42-3.05-9.74-4.43-4.3-1.42-9.65-2.48-15.64-2.62-5.96-.15-12.69,.53-19.1,3.27-3.21,1.32-6.16,2.98-8.98,4.57-2.8,1.65-5.57,3.09-8.09,4.73-2.5,1.64-4.8,3.31-7.22,4.34-2.39,1.15-4.86,1.27-7.11,1.26-9.01-.09-14.49-2.08-14.07-2.64,0-.02,.1,.39,.7,.73,.59,.32,1.51,.7,2.74,1,2.46,.61,6.09,1.22,10.62,1.32,2.23,.04,4.85-.07,7.3-1.23,2.49-1.04,4.82-2.72,7.31-4.33,2.49-1.61,5.28-3.05,8.08-4.69,2.83-1.59,5.76-3.23,8.93-4.53,6.32-2.7,12.95-3.39,18.87-3.27,5.94,.11,11.25,1.12,15.53,2.48,4.3,1.33,7.56,3,9.75,4.24,1.09,.63,1.92,1.14,2.47,1.52,.56,.36,.87,.52,.87,.52Z"/>
      <g class="cls-13">
        <path d="M684.03,195.14c-6.57-.2-11.51-2.02-17.99-3.6-6.91-1.68-13.77-3.05-20.59-5.06-5.18-1.53-11.31-2.93-14.62-6.77-.56,2.71,.2,5.2,2.15,7.16,1.95,1.96,8.37,4.4,11.02,5.19,15.12,4.5,25.59,7.53,41.36,9-.1-1.63-1.33-5.92-1.33-5.92"/>
      </g>
      <path class="cls-10" d="M680.1,181.7c4.12,1.9,6.64,3.18,6.68,6.73,.03,2.95-.65,6.55-3.57,6.99-.89,.14-1.79-.06-2.67-.26-15.04-3.4-30.08-6.8-45.12-10.2-1.53-.34-3.18-.77-4.12-2.02-1.44-1.93-.3-4.89,1.72-6.2,2.02-1.3,4.57-1.39,6.98-1.38,13.67,.07,26.94,2.64,40.11,6.34"/>
      <path class="cls-10" d="M631.98,183.61c.07-.05-.78-.52-1.17-2.01-.38-1.4-.13-3.96,2-5.68,2.18-1.6,5.59-2.08,9.16-1.8,3.63,.27,7.63,.61,11.8,1.12,8.35,.98,15.81,2.6,21.07,4.25,2.64,.8,4.73,1.58,6.17,2.12,.59,.23,1.14,.44,1.65,.65,.38,.14,.58,.21,.59,.19,0-.02-.18-.12-.55-.29-.51-.23-1.04-.48-1.62-.74-1.42-.61-3.5-1.45-6.13-2.3-5.25-1.76-12.74-3.44-21.12-4.43-4.19-.51-8.19-.84-11.84-1.08-3.64-.24-7.14,.26-9.45,2.01-2.25,1.9-2.42,4.6-1.96,6.05,.23,.76,.61,1.27,.89,1.56,.31,.28,.49,.4,.5,.38Z"/>
      <polygon class="cls-2" points="571.52 178.3 600.06 178.37 597.46 186.35 566.47 184.97 571.52 178.3"/>
    </g>
  </g>
</svg>