<?xml version="1.0" encoding="UTF-8"?>
<svg id="Capa_1" data-name="Capa 1" xmlns="http://www.w3.org/2000/svg" viewBox="0 0 570.24 732.56">
  <defs>
    <style>
      .cls-1 {
        stroke: #eeeae4;
        stroke-width: 3.22px;
      }

      .cls-1, .cls-2 {
        stroke-miterlimit: 10;
      }

      .cls-1, .cls-3 {
        fill: #181b33;
      }

      .cls-4 {
        fill: #252f55;
      }

      .cls-2 {
        fill: #1d2441;
        stroke: #1d2441;
        stroke-width: .25px;
      }

      .cls-5 {
        fill: #455a64;
      }

      .cls-6 {
        fill: #34b296;
      }

      .cls-7 {
        fill: #192e35;
      }

      .cls-8 {
        fill: #1b2545;
      }

      .cls-9 {
        fill: #d2bfdd;
      }
    </style>
  </defs>
  <g>
    <path class="cls-3" d="M367.31,554.64l-1.48,15.8-1.97,18.27v.49h-7.41l.49-9.38-9.38,8.89-.49,.49h-36.53s-.49-14.32,8.39-19.25c0,0,13.33-3.95,14.81-9.38,0,0,3.95-5.43,3.95-11.36l29.62,5.43Z"/>
    <line class="cls-1" x1="338.94" y1="568.71" x2="334.99" y2="564.76"/>
  </g>
  <g>
    <path class="cls-3" d="M441.11,578.34l-.99,1.48c-2.96,4.94,0,9.38,0,9.38h36.53l5.43-8.39,4.94,8.39h8.39l-2.96-10.86-7.41-28.14-32.09,7.41s.99,5.92,.99,9.38c0,0-.99,3.46-9.38,8.89,0,0-2.47,.99-3.46,2.47Z"/>
    <line class="cls-1" x1="457.16" y1="569.7" x2="453.7" y2="567.23"/>
    <line class="cls-1" x1="455.68" y1="572.66" x2="452.22" y2="569.21"/>
  </g>
  <g>
    <path class="cls-7" d="M273.72,198.5c-15.37,15.92-36.21,25.08-58.68,25.79-22.47,.71-43.88-7.11-60.29-22.02h0c-33.87-30.78-35.62-82.56-3.89-115.42,15.37-15.92,36.21-25.08,58.68-25.79,22.47-.71,43.88,7.11,60.29,22.02,13.32,12.11,21.67,27.46,24.98,43.63,5.09,24.95-1.84,51.85-21.08,71.79Zm-115.12-.22c15.31,13.91,35.29,21.21,56.25,20.54,20.97-.66,40.41-9.21,54.75-24.06,14.34-14.85,21.86-34.23,21.17-54.57-.68-20.34-9.49-39.2-24.81-53.12-15.31-13.91-35.29-21.21-56.25-20.54-20.97,.66-40.41,9.21-54.75,24.06-17.96,18.6-24.42,43.7-19.67,66.98,3.08,15.09,10.87,29.41,23.3,40.71Z"/>
    <path class="cls-5" d="M275.79,194.57c-15.37,15.92-36.21,25.08-58.68,25.79-22.47,.71-43.88-7.11-60.29-22.02h0c-33.87-30.78-35.62-82.56-3.89-115.42,15.37-15.92,36.21-25.08,58.68-25.79,22.47-.71,43.88,7.11,60.29,22.02,13.32,12.11,21.67,27.46,24.98,43.63,5.09,24.95-1.84,51.85-21.08,71.79Zm-115.12-.22c15.31,13.91,35.29,21.21,56.25,20.54,20.97-.66,40.41-9.21,54.75-24.06,14.34-14.85,21.86-34.23,21.17-54.57-.68-20.34-9.49-39.2-24.81-53.12-15.31-13.91-35.29-21.21-56.25-20.54-20.97,.66-40.41,9.21-54.75,24.06-17.96,18.6-24.42,43.7-19.67,66.98,3.08,15.09,10.87,29.41,23.3,40.71Z"/>
  </g>
  <g>
    <path class="cls-8" d="M391.53,137.92c-2.76-11.56-3.81-25.01-13.72-32.54-7.35-5.59-15.73-7.15-25.06-6.77-4.6,.19-9.79,2.24-13.79,4.44-5.49,3.01-7.81,9.13-10.46,14.68-5.31,11.12-4.63,26.19-1.04,30.38l47.92,24.55c9.57-4.83,15.56-6.76,17.09-19.13,.64-5.21,.28-10.49-.94-15.6Z"/>
    <path class="cls-8" d="M327.5,123.38s-6.53,23.69-7.1,40.46l-.19,5.59s20.34,13.92,38.36,11.62l-1.72-23.47-29.36-34.2Z"/>
    <path class="cls-9" d="M376.29,183.15c-7.97-.09-14.72,5.61-22.69,5.57-2.75-.01-6.52-2.3-9.5-4.7-1.27-1.79-1.04-3.93-1.3-5.94-.12-.89,.5-1.57,1.32-1.84,5.11-1.68,9.61-4.37,13.6-7.96,.15-.13,.39-.22,.44-.18-3.6,1.39-7.48,1.59-11.43,1.56-10.68-.09-19.6-8.62-19.92-19.32-.06-2.18-.51-3.92-2.1-5.53-1.73-1.75-2.67-4.04-2.77-6.57-.13-3.08,1.39-5.11,4.45-5.57,1.58-.24,2.22-.89,2.14-2.41-.01-.22,0-.44,.02-.66,.58-5.48,.91-16.35,5.04-16.35,7.73-7.8,16.74-2.8,24.08-7.52,3.57-2.29,3.74,8.58,4.68,13.27,1.06,5.28,4.12,9.17,8.8,11.82,.69,.39,1.71,.6,1.89,1.42,.48,2.18,1.89,1.75,3.38,1.46,1.94-.37,3.92-.9,5.72,.51,1.36,1.5,1.74,3.39,2.1,5.29-.26,4.1-2.65,6.79-5.79,9.09-3.44,2.52-5.46,6-4.97,10.29,.84,7.29,2.2,14.52,3.14,21.8,.11,.84,.5,1.74-.31,2.48Z"/>
    <path class="cls-8" d="M346.86,156.78c-.74-.09-1.43,.01-1.6-.75-.19-.86,.42-1.22,1.1-1.35,1.99-.39,3.74-1.23,5.27-2.56,.48-.41,1.11-.56,1.57-.01,.52,.61,.31,1.25-.24,1.75-1.79,1.62-3.87,2.6-6.1,2.93Z"/>
    <path class="cls-8" d="M358.73,144.78c.07,.86-.58,1.56-1.65,1.63-1.2,.08-1.93-.65-1.95-1.88-.02-1.16,.74-1.8,1.79-1.84,1.09-.05,1.76,.61,1.81,2.09Z"/>
    <path class="cls-8" d="M336.99,145.28c-1.52-.04-2.13-.74-2.1-1.81,.03-1.07,.75-1.79,1.85-1.77,1.19,.03,1.93,.76,1.84,1.98-.08,1.1-.74,1.73-1.59,1.6Z"/>
    <path class="cls-8" d="M357.17,136.81c-.58,0-.94,0-1.3,0-.82,.02-1.5-.26-1.55-1.14-.05-1,.73-1.1,1.51-1.09,.36,0,.72,0,1.08,.02,1.07,.07,2.56,.03,2.51,1.37-.05,1.47-1.57,.69-2.24,.84Z"/>
    <path class="cls-8" d="M337.33,135.95c-1.1-.33-2.99,.32-3.13-1.38-.11-1.37,1.56-.85,2.46-.9,1.05-.05,2.4-.06,2.53,1.35,.11,1.23-1.08,.81-1.87,.93Z"/>
    <path class="cls-8" d="M368.12,181.59c.46-4.15-1.26-8.32-.76-12.47,.53-4.4,3.47-8.16,4.67-12.43,1.93-6.84-.72-14.11-1.69-21.18-4.08-.49-7.89-2.87-10.61-5.94-3.27-3.7-5.25-8.29-7.18-12.79,.11,4.42,1.69,8.79,4.44,12.31-1.81,.37-3.72-.39-5.09-1.6-1.36-1.22-2.25-2.85-2.99-4.5-1.77-4-3.41-4.98-3.56-9.33-.6,6.22,.78,9.22,2.8,15.15-1.14-.34-2.37-.04-3.55,.13-1.18,.17-2.54,.13-3.38-.7-.56-.55-.76-1.35-.92-2.11-1.13-5.29-1.98-7.42-1.21-12.77-1.46,2.89-1.55,2.65-2.81,5.79s-1.33,6.26-.33,9.33c-.47,.58-1.47,.49-2.03-.01-.56-.5-.77-1.26-.89-1.99-.43-2.66,.05-5.37,.54-8.02-1.63,2.81-2.17,6.06-3.08,9.16-.9,3.1-2.34,6.28-5.12,8.05-.48-4.64-.31-7.81,.41-12.15,.55-3.32,2.17-6.61,3.67-9.64,1.68-3.4,4.01-6.72,6.62-8.94,4.81-4.09,6.82-2.33,9.89-.77l.36,.15c.01-.07,.01-.15,.03-.22l.14-.63c7.99-1.75,16.47-1.36,24.26,1.1,5.79,1.83,6.32,13.92,7.73,8.18,.85-3.48,5.5-.3,5.56-.2,6.83,11.95,14.07,30.9,14.4,60.85h0l-30.32,8.21Z"/>
  </g>
  <g>
    <path class="cls-6" d="M301.63,235.5l19.03-17.29,12.9,19.87c-.26,1.78-16.69,36.14-23.81,43.26-8.12,8.12-19.19,7.5-24.07-3.72-3.85-8.84-10.24-36.07-10.24-36.07l26.19-6.05Z"/>
    <path class="cls-6" d="M331.2,183.48c-4.55,1.59-15.01,7.14-18.05,10.77-1.48,1.76-2.9,3.76-3.84,5.76-2.38,5.08-6.91,42.77-6.91,42.77l20.27,14.24,17.65-65.92,2.93-11.6-12.05,3.96Z"/>
    <path class="cls-6" d="M326.76,297.58v-16.1s-1.09-16.3-2.53-31.38c-2.28-23.97,4.16-38.87,5.04-41.4,.5-1.43,13.74-28.03,13.74-28.03,0,0,2.78,8.19,13.95,6.26,15.58-2.7,21.25-10.9,21.25-10.9l20.13,4.22s7.84,30.55,9,40.68c.62,5.43-.86,37.56-.86,37.56l5.98,15.78c.36,.85-5.16,24.39-6.23,25.36-1.08,.97-20.39,5.32-20.63,6.12-.24,.8-36.81,15.65-36.79,15.05,.02-.61-17.6-20.91-17.6-20.91l-4.46-2.3Z"/>
  </g>
  <path class="cls-4" d="M415.99,288.13c3.61,5.94,11.85,28.68,15.05,40.3,14.62,53,33.44,121.75,37.55,136.28,5.47,19.36,20.98,67.05,27.22,96.21h-53.28s-25.61-91.27-36.32-116.47c-11.09-26.12-29.6-75.38-29.6-75.38l-4.23,191.84h-55.2s.38-47.53,0-83.56c-.35-33.13,1.99-100.64,1.95-117.83-.04-20.93,7.63-62.71,7.63-62.71,0,0,12.27,1.15,33.87-.29,16.86-1.13,53.15-11.97,53.15-11.97l2.22,3.58Z"/>
  <polygon class="cls-9" points="281.23 212.35 295.05 226.21 295.72 237.02 280.77 240.47 278.85 240.85 277.71 234.06 268.47 222.13 281.23 212.35"/>
  <path class="cls-5" d="M367.7,300.72l2.68-2.51c2.39-2.24,1.05-7.37-1.46-9.86l-94.03-94.29-12.57,11.8,93.89,94.15c3.17,3.02,8.42,3.6,11.49,.71Z"/>
  <g>
    <path class="cls-9" d="M274.9,206.18c-.44-.41-1.31-.66-1.9-.49-.59,.17-1.06,.59-1.49,1.01-3.06,3.01-4.84,7.21-4.84,11.44,0,1.81,.49,3.89,2.16,4.72l1.89-1.06c.59-.73,2.33-1.96,2.57-2.86,.98-3.79-.43-3.63,2.02-10.2,.24-.64,.5-1.72-.4-2.55Z"/>
    <path class="cls-9" d="M274.45,211.55c.53-.9,1.12-1.77,1.87-2.39,.75-.62,1.67-.97,2.49-.72,1.3,.4,1.94,2.22,1.79,3.91-.15,1.69-.89,3.29-1.62,4.82-1.55,3.26-3.1,6.51-4.65,9.77l-.9-.64c-.64,.61-1.58,.3-2.01-.43-.43-.72-.47-1.72-.44-2.66,.13-4.07,1.42-8.19,3.47-11.65Z"/>
    <path class="cls-9" d="M276.73,221.3c1.07-2.29,2.85-4.21,4.65-6.05,.63-.64,1.29-1.3,2.16-1.59,.87-.29,2-.08,2.43,.69,.41,.74,.05,1.64-.33,2.4-2.33,4.71-5,9.26-8,13.62l-2.78-2.71c-1.26-2.2,.8-4.07,1.87-6.36Z"/>
  </g>
  <g>
    <g>
      <path class="cls-9" d="M362.87,251.4l-2.55-.52-13.34-11.03-7.3-5.95c-.61-.5-1.35-.83-2.14-.96l-6.17-.93s-2.19,2.81,1.11,4.56l3.96,1.99,3.62,4.15-.46,.9s-23.75,3.57-25.23,5.33c-1.48,1.76,0,3.36,.66,3.68,.66,.32,1.81,.16,1.81,.16,0,0-1.15,2.72,2.31,4.95,0,0-2.64,3.36,1.98,4.95,0,0,1.32,2.56,3.95,3.36,2.64,.8,16.8,2.4,18.28,2.4s17.03,.02,17.03,.02l3.42,.54-.93-17.61Z"/>
      <path class="cls-2" d="M316.28,252.85c.13,.65,2.93,.58,6.57,.34,3.63-.26,6.6-.46,6.5-.94,.1-.67-2.96-.04-6.55,.21-3.58,.24-6.39-.12-6.52,.38Z"/>
      <path class="cls-2" d="M319.14,257.76c-.04,.34,.62,.18,1.61,.31,.99,.12,2.36,.31,3.9,.4,1.56,.1,2.95-.04,3.94-.08,1-.06,1.63-.06,1.63-.29,0-.54-.61-.15-1.62-.22-1.02-.09-2.4-.03-3.9-.13-1.51-.09-2.9-.2-3.91-.19-1.01,0-1.64,.1-1.64,.2Z"/>
      <path class="cls-2" d="M321.01,262.7c0,.38,2.48,.49,6.03,.75,1.78,.11,3.35,.24,4.38,.66,.32,.12,1.09,.89,1.09,.51s-.38-.77-.87-.97c-1.09-.59-2.78-.81-4.55-.92-3.55-.26-6.08-.79-6.08-.03Z"/>
    </g>
    <g>
      <path class="cls-6" d="M398.35,180.25s10.04,1.68,17.65,16.19c4.21,8.02,23.87,56.26,25.03,60.49,4.99,18.1-4.66,29.76-13.96,30.55-10.23,.87-63.13-9.83-63.13-9.83l-1.17-27.79,48.26,7.11-23.19-43.66s-.89-29.08,10.51-33.06Z"/>
      <path class="cls-6" d="M427.26,268.95c.07-.02-.25-1.22-1.3-2.92-1.03-1.7-2.89-3.83-5.43-5.6-2.55-1.76-5.23-2.77-7.22-3.16-2-.41-3.27-.31-3.27-.24,0,.13,1.24,.21,3.14,.74,1.91,.51,4.45,1.56,6.92,3.25,2.46,1.71,4.3,3.7,5.42,5.29,1.13,1.58,1.62,2.69,1.74,2.64Z"/>
    </g>
  </g>
  <path class="cls-8" d="M394,225.6c.22,.36,.55,.84,.82,1.35,2.76,5.13,5.86,10.04,9.47,14.61,.65,.82,1.39,1.73,.28,2.61-1.09,.86-1.67-.24-2.2-.92-3.79-4.86-7.13-10.02-9.94-15.51-.32-.63-.9-1.35-.02-2.02,.43-.33,.91-.42,1.59-.12Z"/>
</svg>