<?xml version="1.0" encoding="UTF-8"?>
<svg id="Capa_1" data-name="Capa 1" xmlns="http://www.w3.org/2000/svg" viewBox="0 0 1302.12 1373.97">
  <defs>
    <style>
      .cls-1 {
        fill: #738086;
      }

      .cls-2 {
        fill: #fff;
      }

      .cls-3 {
        fill: #f5f5f5;
      }

      .cls-4 {
        fill: #d1bedc;
      }

      .cls-5 {
        fill: #455a64;
      }

      .cls-6 {
        fill: #b2b2b2;
      }

      .cls-7 {
        fill: #808181;
      }

      .cls-8 {
        stroke: #eeeae4;
        stroke-width: 1.42px;
      }

      .cls-8, .cls-9 {
        fill: #181b33;
      }

      .cls-8, .cls-10 {
        stroke-miterlimit: 10;
      }

      .cls-11 {
        fill: #0e6853;
      }

      .cls-12 {
        fill: #b0b0b0;
      }

      .cls-13 {
        opacity: .3;
      }

      .cls-14 {
        fill: #192e35;
      }

      .cls-15 {
        fill: #1b2545;
      }

      .cls-16, .cls-10 {
        fill: #1d243f;
      }

      .cls-17 {
        fill: #e3e2e2;
      }

      .cls-18 {
        fill: #d0bddb;
      }

      .cls-19 {
        fill: #cfccd1;
      }

      .cls-20 {
        fill: #e3e3e2;
      }

      .cls-21 {
        fill: #608385;
      }

      .cls-22 {
        fill: #92c1da;
      }

      .cls-23 {
        fill: #1d2441;
      }

      .cls-24 {
        fill: #009378;
      }

      .cls-10 {
        stroke: #1d2440;
        stroke-width: .3px;
      }

      .cls-25 {
        fill: #cbc9c9;
      }
    </style>
  </defs>
  <g>
    <path class="cls-9" d="M750.99,1138.21l2.19,23.4,2.92,27.05v.73h10.97l-.73-13.89,13.89,13.16,.73,.73h54.11s.73-21.2-12.43-28.52c0,0-19.74-5.85-21.94-13.89,0,0-5.85-8.04-5.85-16.82l-43.87,8.04Z"/>
    <line class="cls-8" x1="800.34" y1="1159.05" x2="806.19" y2="1153.2"/>
    <line class="cls-8" x1="794.49" y1="1154.67" x2="801.8" y2="1148.82"/>
  </g>
  <g>
    <path class="cls-9" d="M671.08,1168.3l1.46,2.19c4.39,7.31,0,13.89,0,13.89h-54.11l-8.04-12.43-7.31,12.43h-12.43l4.39-16.09,10.97-41.68,47.53,10.97s-1.46,8.77-1.46,13.89c0,0,1.46,5.12,13.89,13.16,0,0,3.66,1.46,5.12,3.66Z"/>
    <line class="cls-8" x1="647.32" y1="1155.51" x2="652.43" y2="1151.85"/>
    <line class="cls-8" x1="649.51" y1="1159.9" x2="654.63" y2="1154.78"/>
  </g>
  <path class="cls-15" d="M652.94,197.3c12.84-13.07,33.1-20.79,49.88-13.44,11.28,4.94,18.94,15.53,28.84,22.85,7.21,5.33,16.12,9.45,19.9,17.59,3.33,7.17,1.73,15.52,.92,23.39-.8,7.87-.24,16.94,5.85,21.98,3.2,2.65,7.41,3.69,11.01,5.76,7.25,4.16,11.56,12.24,13.12,20.46,1.55,8.21,.72,16.67-.13,24.98l-34.57,6.59-5.68-9.55-1.98,15.02-44.12,3.98-43.05-139.6Z"/>
  <g>
    <path class="cls-4" d="M647.45,223.38l-.09,9.01-2.88,135.02c-.26,15.65,15.72,28.96,33.62,29.05h0c18.08,.09,25.46-12.63,26-28.44,.56-16.59,1.48-34.05,1.48-34.05,0,0,22.93-2.98,28.52-30.75,2.78-13.81,2.73-36.57,2.05-55.18-.61-16.76-15.99-29.63-33.85-28.31l-54.85,3.66Z"/>
    <path class="cls-15" d="M705.67,334.05s-19.82,.99-39.34-11.49c0,0,9.15,19.91,39.03,17.95l.3-6.46Z"/>
  </g>
  <path class="cls-15" d="M668.51,193.97c5.39,7.24,7.96,12.81,11.19,25.69,1.58,6.31-3.54,10.76-8.64,14.61-2.39,1.8-5.84,.54-6.49-2.38h0s1.77,19.74-5.37,28.59c-3.35,4.15-3.49,9.47-2.69,13.95,.81,4.58,3.17,8.7,6.37,12.07,8.27,8.7,10.57,22.89,4.86,33.56-1.46,2.73-3.37,5.23-4.54,8.1-.67,1.64-1.06,3.48-.95,5.24,.13,2.17-1.36,4.09-3.52,4.41-24.49,3.55-49.38,4.3-74.03,2.23-1.74-.15-3.22-1.37-3.62-3.07-1.93-8.18,1.29-17.1,5.42-24.63,4.62-8.41,10.49-16.48,12.08-25.94,1.49-8.9-.94-18.5,2.64-26.79,4.39-10.17,16.32-14.98,22.3-24.32,5.64-8.8,5.18-20.35,10.23-29.5,6.48-11.75,22.44-17.18,34.75-11.81"/>
  <path class="cls-15" d="M667.48,220.83c9.37,4.82,2.52,19.27,11.62,24.57,8.29,4.83,29.81,.56,39.29-.86-.35-2.1-.7-4.21-1.06-6.31,.96,1.85,1.95,3.73,3.52,5.11,1.56,1.38,3.84,2.14,5.77,1.37,3.18-1.28,3.6-5.66,2.79-8.99-1.31-5.34-4.42-10.11-8.28-14.03-7.01-7.12-16.63-11.6-26.58-12.4-9.96-.8-20.16,2.11-28.21,8.02"/>
  <path class="cls-15" d="M700.63,303.1c1.93,.11,3.12-.62,3.36-2.29,.23-1.56-.75-2.22-2.27-2.51-4.61-.88-8.79-2.75-12.31-5.93-1.28-1.15-2.63-1.36-3.75,.06-.88,1.12-.78,2.29,.25,3.5,2.37,2.78,11.34,7.18,14.72,7.17Z"/>
  <path class="cls-15" d="M684.48,274.98c-.36-2.45-1.69-4.21-4.11-4.29-2.57-.08-4.38,1.39-4.41,4.2-.03,2.55,1.39,4.03,3.92,4.19,2.84,.17,4.06-1.63,4.61-4.1Z"/>
  <path class="cls-15" d="M716.27,272.14c.26,2.9,1.48,4.52,4.1,4.6,2.81,.08,4.5-1.54,4.43-4.23-.06-2.39-1.51-4.04-4.22-4-2.65,.04-3.81,1.64-4.31,3.63Z"/>
  <path class="cls-15" d="M725.4,249.6c-1.71,.21-3.42,.4-5.13,.64-1.62,.22-2.88,1.06-2.52,2.8,.35,1.71,1.62,2.62,3.55,2.26,1.55-.29,3.11-.58,4.68-.63,1.85-.07,3.81-.21,3.65-2.53-.16-2.41-2.21-2.68-4.23-2.54Z"/>
  <path class="cls-15" d="M677.32,257.19c1.76-.78,6.27,1.33,5.63-3.11-.54-3.77-4.5-1.68-7.01-1.89-.55-.05-1.12,.26-1.69,.38-1.58,.34-3.41,.55-2.89,2.85,.44,1.97,2.02,2.2,3.76,1.93,.57-.09,1.15-.09,2.19-.16Z"/>
  <g>
    <path class="cls-4" d="M881.49,480.26s22.7-16.34,28.62-18.97c5.92-2.63,15.35,.16,23.98-.35,8.62-.51,21.25-5.12,24.16-3.17,3.45,2.31-1.11,10.2-14.61,14.11h3.82s9.19,1.61,9.19,1.61c0,0,3.89-4.73,6.81-4.42,4.17,.44,3.73,3.86,3.73,3.86,0,0,7.02-6.87,8.36,1.39,0,0,7.71-2.12,7.69,3.56,0,0,1.23,4.67-14.81,4.42,0,0-14.72,11.46-18.16,12.45-3.44,.99-14.79-1.86-14.79-1.86,0,0-3.82,4.52-7.37,4.4-6.77-.24-23.91-3.01-23.91-3.01l-7.56,7.48-15.17-21.5Z"/>
    <path class="cls-23" d="M935.07,492.99c-.07-.06,.64-.93,1.88-2.53,1.17-1.6,3.09-3.95,3.89-7.39,.83-3.43-.37-7.74-3-11.63-.65-.99-1.36-1.97-2.12-2.96-.77-.98-1.5-2.08-2.38-2.84-.88-.8-1.99-.98-2.9-.29-.92,.65-1.36,1.86-1.42,3.14-.16,3.55,1.42,7,3.82,9.16l.54,.49-.59,.41c-1.9,1.33-3.53,2.87-4.87,4.48l-.34,.41-.41-.34c-5.11-4.19-10.35-6.38-14.09-7.51-3.76-1.13-6.04-1.36-6.02-1.52,0-.05,.58-.05,1.65,.06,1.06,.12,2.62,.35,4.55,.84,3.84,.97,9.27,3.06,14.59,7.29l-.75,.08c1.38-1.7,3.06-3.33,5.04-4.74l-.05,.9c-2.67-2.38-4.42-6.12-4.25-10.09,.06-1.44,.59-3.1,1.92-4.04,.63-.47,1.48-.74,2.3-.63,.82,.1,1.52,.53,2.06,.99,1.09,.97,1.76,2.05,2.53,3.04,.75,1.01,1.47,2.02,2.13,3.05,2.68,4.04,3.91,8.72,2.9,12.42-.99,3.66-3.07,5.96-4.36,7.49-1.36,1.52-2.19,2.28-2.24,2.23Z"/>
    <path class="cls-23" d="M957.95,472.47c.23,.24-2.95,3.76-7.11,7.86-1.06,1.02-1.99,2.01-3.06,2.85-1.09,.85-2.34,1.22-3.37,1.26-1.07,.03-1.84-.3-2.33-.5-.5-.22-.76-.39-.73-.47,.02-.08,.33-.06,.86,.02,.53,.07,1.28,.23,2.14,.11,.86-.14,1.88-.52,2.76-1.28,.89-.77,1.85-1.83,2.9-2.84,4.16-4.11,7.72-7.25,7.96-7.01Z"/>
    <path class="cls-23" d="M949.73,492.94c-.23-.27,4.37-4.38,9.3-10.11,4.96-5.72,8.37-10.86,8.67-10.67,.27,.15-2.72,5.65-7.76,11.45-5.01,5.82-10.03,9.57-10.21,9.33Z"/>
    <path class="cls-23" d="M963.73,485.89c-.16-.24,2.68-2.81,6.03-6.21,3.39-3.36,6.14-6.09,6.38-5.88,.26,.22-2.12,3.34-5.54,6.73-3.38,3.43-6.66,5.68-6.88,5.36Z"/>
    <path class="cls-23" d="M939.79,472.11c-.01-.33,1.96-.55,4.39-.49,2.44,.06,4.4,.38,4.38,.71-.02,.33-1.99,.55-4.39,.49-2.41-.06-4.37-.38-4.38-.71Z"/>
  </g>
  <g>
    <g>
      <path class="cls-4" d="M527.48,702.8s-14.38,25.06-15.07,28.4c0,0-1.42,7.07,.54,8.94,1.97,1.87,3.1,1.73,3.1,1.73,0,0-.75,4.65,2.28,7,3.03,2.35,3.66,1.42,3.66,1.42,0,0-.2,5.96,2.48,7.56,2.67,1.6,3.64,.46,3.64,.46,0,0-5.28,9.09,1.17,11.61,6.44,2.53,15-19.93,16.23-21.25,.43-.46-1.69,7.87,.39,6.57,3.88-2.43,10.16-9.05,10.16-9.05,0,0,3.37-2.25,3.18-7.42-.19-5.17-.9-18.7-1.88-22.75-.98-4.05-2.26-11.05-2.26-11.05l3.16-11.14-28.78-3.32-2.01,12.28Z"/>
      <path class="cls-23" d="M548.13,743.74c.31,.18-.95,2.84-2.52,6.08-1.58,3.24-2.9,5.86-3.23,5.73-.32-.12,.48-2.99,2.09-6.29,1.6-3.29,3.36-5.7,3.66-5.52Z"/>
      <path class="cls-23" d="M526.83,760.08c-.33-.1,.12-2.37,1.41-4.88,1.29-2.51,2.87-4.2,3.14-3.99,.29,.21-.78,2.16-2.02,4.57-1.24,2.41-2.2,4.41-2.54,4.3Z"/>
      <path class="cls-23" d="M521.88,742.72c.29,.14-.07,2.03,.26,4.49,.39,2.45,.52,4.5,.17,4.6-.32,.09-1.03-1.9-1.43-4.47-.37-2.65,.65-4.81,1-4.62Z"/>
      <path class="cls-23" d="M516.46,733.79c.34,.13-.1,1.99-.21,4.28-.13,2.3,.13,4.19-.22,4.28-.32,.11-1.18-1.81-1.04-4.35,.12-2.53,1.16-4.36,1.47-4.22Z"/>
    </g>
    <path class="cls-22" d="M612.17,362.89s-33.9,10.96-40.64,25.03c-6.74,14.07-39.05,184.54-40.68,188.68-1.63,4.14-8.77,113.82-8.77,113.82l41.19,7.45s17.04-92.21,26.79-123.01c9.75-30.79,20.04-129.57,20.04-129.57l2.07-82.4Z"/>
  </g>
  <path class="cls-23" d="M678.64,598.77c-4.06-.59-71.29-1.09-71.29-1.09,0,0-29.52,114.43-22.87,169.76,3.89,32.31,10.47,375.57,13.03,376.31,2.55,.75,76.37,0,76.37,0l26.52-457.18-21.77-87.81Z"/>
  <path class="cls-23" d="M794.57,709.62c-4.56-30.88-17.68-117.98-21.75-118.29-4.07-.31-95.52,5.86-97.44,5.26-1.92-.6,21.99,114.17,21.99,114.17-2.83,9.97,9.13,193.42,12.63,226.49,4.64,43.78,27.55,213.52,27.55,213.52l79.79-13.12s-17.14-189.27-18.05-206.55c-.91-17.28-.17-190.61-4.73-221.49Z"/>
  <g>
    <path class="cls-22" d="M741.11,353.02c.08-1.16,34.42,2.9,47.1,39.08,6.05,17.27,23.57,105.86,23.57,105.86l66.25-37,24.58,38.16c-1.7,0-46.46,55.71-88.97,56.27-42.52,.57-44.44-22.19-48.89-35.2-3.89-11.38-4.54-75.91-4.54-75.91l-19.09-91.27Z"/>
    <path class="cls-14" d="M810.22,502.21c.07,.03-.07,.63-.47,1.68-.4,1.05-1.11,2.53-2.19,4.26-2.13,3.45-6.06,7.88-11.85,10.91l-1.31,.69,.33-1.45c.27-1.19,.6-2.43,.99-3.68,2.28-7.04,6.37-12.53,9.81-15.85,1.72-1.67,3.27-2.85,4.37-3.61,1.12-.73,1.77-1.08,1.83-1,.14,.19-2.29,1.86-5.49,5.29-3.17,3.41-6.99,8.8-9.19,15.59-.38,1.2-.7,2.4-.97,3.55l-.99-.76c5.55-2.85,9.45-6.98,11.73-10.2,2.31-3.24,3.22-5.52,3.42-5.43Z"/>
  </g>
  <path class="cls-22" d="M705.09,349.99l15,.48,22.55,2.35,17.96,65.61s3,35.66,9.02,101.05c1.6,17.4,8.75,51.43,7.82,61.87-1.47,16.51-22.47,21.09-40.84,21.49-18.38,.4-64.25-1.74-86.21-1.07-23.82,.73-41.91,4.56-51.09-8.63-9.19-13.18-2.61-28.92-6.06-61.62-.29-2.71,1.14-36.44,1.35-39.47,2.09-30.22-2.21-52.59-.33-78.5,1.75-24.14,16.57-49.89,16.33-50.58,0,0,16.93-5.92,18.13-6.72,1.2-.8,15.28-5.41,15.28-5.41l12.05,9.46,18.07,3.44s15.49,2.58,24.95-4.3c5.57-4.05,6.02-9.46,6.02-9.46Z"/>
  <g>
    <rect class="cls-12" x="893.66" y="722.6" width="160.78" height="22.3" transform="translate(1948.09 1467.5) rotate(180)"/>
    <rect class="cls-3" x="896.28" y="725.39" width="158.15" height="16.64" transform="translate(1950.71 1467.41) rotate(180)"/>
    <g class="cls-13">
      <rect x="893.66" y="722.6" width="31.24" height="22.3"/>
    </g>
    <path class="cls-14" d="M896.28,729.02s.14,0,.41,.01c.27,0,.68,0,1.2,.01,1.06,0,2.61,.01,4.61,.02,4.01,0,9.81,.02,16.97,.04,14.33,0,34.12,.02,55.97,.03,21.86-.01,41.65-.03,55.98-.03,7.16-.02,12.95-.03,16.96-.04,2,0,3.55-.02,4.61-.02,.52,0,.92,0,1.2-.01,.27,0,.41-.01,.41-.01,0,0-.14,0-.41-.01-.28,0-.68,0-1.2-.01-1.06,0-2.61-.01-4.61-.02-4.01,0-9.8-.02-16.96-.04-14.33,0-34.12-.02-55.98-.03-21.85,.01-41.64,.03-55.97,.03-7.16,.02-12.95,.03-16.97,.04-2,0-3.55,.02-4.61,.02-.52,0-.93,0-1.2,.01-.27,0-.41,.01-.41,.01Z"/>
    <path class="cls-14" d="M896.28,733.47s.14,0,.41,.01c.27,0,.68,0,1.2,.01,1.06,0,2.61,.01,4.61,.02,4.01,0,9.81,.02,16.97,.04,14.33,0,34.12,.02,55.97,.03,21.86-.01,41.65-.03,55.98-.03,7.16-.02,12.95-.03,16.96-.04,2,0,3.55-.02,4.61-.02,.52,0,.92,0,1.2-.01,.27,0,.41-.01,.41-.01,0,0-.14,0-.41-.01-.28,0-.68,0-1.2-.01-1.06,0-2.61-.01-4.61-.02-4.01,0-9.8-.02-16.96-.04-14.33,0-34.12-.02-55.98-.03-21.85,.01-41.64,.03-55.97,.03-7.16,.02-12.95,.03-16.97,.04-2,0-3.55,.02-4.61,.02-.52,0-.93,0-1.2,.01-.27,0-.41,.01-.41,.01Z"/>
    <g>
      <rect class="cls-5" x="916.67" y="701.97" width="111.19" height="20.63" transform="translate(1944.52 1424.57) rotate(180)"/>
      <rect class="cls-5" x="906.99" y="702.08" width="30.26" height="20.4"/>
      <rect class="cls-3" x="906.99" y="704.88" width="27.41" height="14.65"/>
      <g class="cls-13">
        <rect x="906.99" y="702.08" width="30.26" height="20.4"/>
      </g>
      <path class="cls-20" d="M945.38,718.07s0-.2,0-.57c0-.38,0-.93,0-1.66,0-1.46,.01-3.61,.02-6.4l-.04,.05c12.88,.01,41.92,.04,75.65,.07h0l-.1-.12c0,2.96,0,5.88,0,8.63l.1-.12c-21.22,.02-40.12,.04-53.71,.05-6.8,.01-12.28,.03-16.06,.03-1.89,0-3.35,.01-4.35,.02-.49,0-.87,0-1.13,0-.26,0-.39,0-.39,0,0,0,.13,0,.38,0,.26,0,.63,0,1.12,0,.99,0,2.45,0,4.33,.02,3.78,0,9.24,.02,16.04,.03,13.62,.01,32.54,.03,53.79,.05h.1s0-.12,0-.12v-8.75h-.1c-33.73,.03-62.76,.06-75.65,.07h-.04v.05c.01,2.8,.02,4.96,.02,6.43,0,.72,0,1.27,0,1.65,0,.37,0,.55,0,.55Z"/>
      <path class="cls-14" d="M937.21,722.46c.06,0,.1-4.62,.1-10.33s-.05-10.33-.1-10.33-.1,4.62-.1,10.33,.05,10.33,.1,10.33Z"/>
    </g>
  </g>
  <g>
    <g>
      <path class="cls-15" d="M597.64,436.01c-2.69,7.84-8.09,12.8-16,15.09-1.07,.31-2.19,.48-3.28,.71-.61-.53-.3-1.18-.22-1.78,.41-3.16,.84-6.32,.84-9.52,0-1.18-.35-1.97-1.48-2.47-1.2-.54-2.23-1.39-3.27-2.21-.33,.38-.16,.75-.16,1.09-.04,3.75-2.14,6.3-5.85,6.97-2.72,.49-5.45,.29-8.16-.2-5.54-1.01-10.83-2.86-15.99-5.08-1.59-.68-1.59-.69-2.37,.84-1.05,2.03-2.16,4.02-3.56,5.82-2.5,3.58-5.48,6.7-8.96,9.34-1.02,.77-1.44,.63-2.05-.67-1.27-2.7-2.69-5.31-4.99-7.28-3.41-2.92-7.23-4.57-11.84-3.57-4.64,1-7.42,3.98-8.65,8.39-1.99,7.1-.73,13.85,2.7,20.23,.8,1.48,.89,2.61-.15,3.99-2.83,3.75-5.3,7.78-8.32,11.38-5.57,6.64-12.79,9.6-21.42,9.18-.78-.04-1.54-.17-2.28-.45-1.28-.48-2.77-.3-3.86-1.31-1.37-1.99-2.11-4.29-2.99-6.49-3.75-9.39-6.88-18.98-8.84-28.92-1.23-6.24-1.99-12.53-2.09-18.89-.05-3.63,.12-7.27,.67-10.84,1.35-8.67,4.83-16.44,10.28-23.36,2.89-3.68,6.06-7.08,9.76-9.89,3.85-2.93,8.11-5.2,12.74-6.7,3.42-1.11,6.96-1.51,10.52-1.82,1.39-.12,2.74-.59,3.87-1.33,7.51-4.97,15.87-7.11,24.74-7.55,7.6-.38,15.13,.17,22.62,1.62,2.5,.49,5.03,.85,7.48,1.51,7.75,2.06,15.35,4.53,22.56,8.13,5.16,2.58,10.02,5.52,14.23,9.48,2.52,2.37,4.29,5.21,5.32,8.51,1.5,4.8-.79,7.48-6.34,6.88,4.49,5.23,6.4,11.05,5.59,17.67-.13,1.2-.41,2.38-.79,3.53Z"/>
      <path class="cls-18" d="M472.66,495.52c9.36,1.3,17.1-1.76,23.05-9,3.14-3.82,5.83-8.02,8.76-12.02,.45-.61,.27-1.06-.05-1.61-3.17-5.38-4.61-11.2-4.05-17.41,.39-4.38,1.72-8.43,5.57-11.11,4.31-2.99,10.01-2.72,14.85,.63,3.1,2.14,5.18,5.09,6.62,8.52,.19,.45,.38,.9,.6,1.41,3.81-2.77,6.95-6.11,9.74-9.8,.5-.27,1.05-.38,1.59-.19,4.36,1.5,8.83,2.57,13.32,3.59,.27,.06,.49,.24,.74,.35,.92,1.46,2.29,1.74,3.9,1.56,.95-.11,1.93-.04,2.86,.16,1.24,.27,2.43,.25,3.62-.19,4.31,.46,8.62,.78,12.95,.96,.55,.02,1.1,.13,1.43,.66-.3,3.62-1.01,7.19-1.54,10.78-.61,4.17-1.23,8.34-1.79,12.52-.16,1.22-.68,2.37-.59,3.63,.03,.48,0,.89,.63,1,2.66,.47,4.17,4.12,2.95,6.99-.76,1.78-2.06,3.2-3.95,3.69-1.43,.37-1.72,1.27-1.86,2.45-.56,4.69-1.01,9.42-2.41,13.95-2.05,6.61-5.79,12.18-11.13,16.61-6.46,5.35-13.91,8.06-22.29,8.22-.32,0-.63,.07-.95,.11-.7,.25-1.41,.32-2.15,.24-4.69-.45-9.25-1.46-13.75-2.83-6.5-1.98-12.59-4.79-18.34-8.39-2.71-1.7-5.3-3.55-7.9-5.71,2.2,4.87,4.3,9.61,6.81,14.16,3.41,6.16,7.25,12.01,11.97,17.26,.33,.37,1.82,2.9,1.63,3.48-2.67,4.53-12.03,.91-16.44-1.97-14.51-2.99-29.29-5.16-41.34-13.07-1.53-1.01-1.5-1.11-.65-3.4,1.31-3.51,9.78-26.5,11.04-30.03,.82-2.3,1.63-4.6,2.44-6.9,1.42-.03,2.72,.66,4.13,.72Z"/>
      <path class="cls-15" d="M512.37,548.01c-6.32-6.92-11.24-14.78-15.38-23.15-1.71-3.46-3.35-6.97-4.83-10.63,.54-.06,.77,.32,1.04,.54,10.22,8.44,21.87,13.83,34.86,16.28,2.36,.45,4.77,.62,7.16,.91-.83,2.12-1.68,4.22-2.49,6.35-1.29,3.38-2.55,6.78-3.82,10.17-.91,2.42-1.81,4.85-2.72,7.28-.22,.6-.34,1.24-1.27,.61-4.16-2.82-8.37-5.57-12.56-8.35Z"/>
      <path class="cls-18" d="M578.17,452.03c-3.19-.21-6.37-.41-9.56-.64-1.66-.12-3.33-.21-4.94-.66-.03-.04-.08-.07-.08-.11-.39-2.43-.46-2.5-3-2.9-.94-.15-1.9-.15-2.85-.19-1.68-.08-3.27,.05-4.25,1.72-2.74-.62-5.5-1.17-8.21-1.9-2.52-.68-4.97-1.63-7.52-2.22,1.52-2.26,2.98-4.56,4.04-7.08,.33-.78,.65-.66,1.21-.43,1.78,.75,3.55,1.53,5.36,2.2,5.76,2.12,11.59,4,17.83,3.83,4.25-.11,6.98-2.24,7.34-5.71,.12-1.1-.01-2.23-.03-3.52,1.59,1.71,3.38,2.83,5.32,3.73,.42,.2,.62,.39,.62,.9,.04,2.78-.1,5.54-.5,8.28-.21,1.48-.4,2.97-.59,4.45-.07,.07-.13,.15-.2,.22Z"/>
      <path class="cls-21" d="M472.66,495.52c-1.44,.13-2.75-.48-4.13-.72-.08-.11-.16-.21-.23-.32,1.45,.35,2.91,.69,4.36,1.04Z"/>
      <path class="cls-19" d="M597.64,436.01c.26-1.18,.53-2.35,.79-3.53,.09,1.26-.18,2.43-.79,3.53Z"/>
      <path class="cls-15" d="M542.49,483.55c.76,.21,1.21,.7,1.48,1.36,1.76,4.33,4.65,7.66,8.7,10,1.06,.61,1.31,1.76,.74,2.7-.61,1-1.58,1.27-2.71,.61-4.83-2.85-8.29-6.9-10.37-12.11-.27-.66-.37-1.31,.2-1.9,.56-.58,1.24-.71,1.96-.66Z"/>
      <path class="cls-15" d="M512.82,453.48c1.08,.32,2.12,1.64,2.9,3.15,1.35,2.62,1.47,5.52,1.63,8.38,.07,1.24-.85,1.79-1.94,1.86-1.09,.07-1.63-.71-1.81-1.69-.26-1.43-.2-2.89-.52-4.33-.4-1.78-.83-3.41-2.83-4.14-.98-.36-1.37-1.34-1.06-2.39,.27-.95,1.51-1.34,3.62-.84Z"/>
      <path class="cls-15" d="M552.92,472.17c-2.22-.48-3.64-2.6-3.18-4.78,.45-2.19,2.8-3.68,4.99-3.16,2.18,.52,3.53,2.7,3.03,4.91-.51,2.26-2.53,3.53-4.83,3.03Z"/>
      <path class="cls-15" d="M553.48,449.25c.23-1.6,.66-2.06,2.23-2.15,2.13-.13,4.25-.04,6.34,.42,2,.44,2.43,1.3,1.61,3.21-.66,.58-1.42,.82-2.28,.59-1.83-.47-3.7-.52-5.56-.37-1.37,.11-2.06-.45-2.34-1.7Z"/>
    </g>
    <path class="cls-1" d="M943.44,865.19c1.17-.41,2.37-.21,3.56-.22-1.16,.5-2.38,.13-3.56,.22Z"/>
    <g>
      <path class="cls-6" d="M325.49,932.83s56.43,25.43,115.2,25.43c54.43,0,112.02-27.4,112.02-27.4l-227.22,1.97Z"/>
      <rect class="cls-6" x="423.53" y="933.31" width="23.31" height="244.14"/>
      <rect class="cls-6" x="331.75" y="1163.14" width="206.87" height="14.31"/>
      <path class="cls-7" d="M357.06,1182.14c0,8.72-7.07,15.79-15.79,15.79s-15.79-7.07-15.79-15.79,7.07-15.79,15.79-15.79,15.79,7.07,15.79,15.79Z"/>
      <path class="cls-7" d="M448.98,1182.14c0,8.72-7.07,15.79-15.79,15.79s-15.79-7.07-15.79-15.79,7.07-15.79,15.79-15.79,15.79,7.07,15.79,15.79Z"/>
      <path class="cls-7" d="M555.47,1182.14c0,8.72-7.07,15.79-15.79,15.79s-15.79-7.07-15.79-15.79,7.07-15.79,15.79-15.79,15.79,7.07,15.79,15.79Z"/>
    </g>
    <g>
      <path class="cls-17" d="M305.72,561.23h108.83v340.54h-120.44v-328.94c0-6.41,5.2-11.61,11.61-11.61Z"/>
      <path class="cls-14" d="M320.78,896.6c-.32,0-.58-73.89-.58-165.02s.26-165.04,.58-165.04,.58,73.88,.58,165.04-.26,165.02-.58,165.02Z"/>
    </g>
    <path class="cls-6" d="M294.12,901.08h298.15v37.03H302.07c-4.39,0-7.96-3.56-7.96-7.96v-29.08h0Z"/>
    <g>
      <path class="cls-16" d="M521.95,568.34s19.6,7.97,30.78,35.11c7.85,19.07,51.47,79.27,51.47,79.27l116,25.76,3.96,37-185.54-1.53-25.79-82.1,9.11-93.51Z"/>
      <path class="cls-16" d="M443.84,534.14l-20.6,8.65c-19.05,8-43.43,26.38-51.59,45.35-19.64,45.64-37.4,104.47-44.23,156.47-6.88,52.42,6.83,130,6.83,130l174.09-99.48-10.17-7.12,32.99-179.49-6.15-21.73,4.11-18.37s-46.19-18.55-79.84-31.84l-5.44,17.56Z"/>
      <g class="cls-13">
        <path d="M399.84,632.89c10.81,46.7,43.84,88.56,87.83,107.61-29.25-30.92-61.05-69.94-87.83-107.61Z"/>
      </g>
    </g>
    <path class="cls-15" d="M654.84,1097.5l-2.6,66.13s43.54,13.21,43.54,37.32l-104.88-.64-.18-103.2,64.13,.39Z"/>
    <path class="cls-15" d="M617.91,1076.68l-17.27,63.89s39.5,22.58,34.13,46.08l-102.11-23.99,22.82-100.65,62.43,14.67Z"/>
    <path class="cls-11" d="M501.04,773.68s153.9,40.01,173,66.64c16.15,22.52-68.58,252.62-68.58,252.62l-66.85-5.76,28.81-192.48-172.43-54.81,26.05-66.21h79.99Z"/>
    <path class="cls-24" d="M512.06,809.71s157.32,38.23,173.23,65.39c7.42,12.68,2.56,54.29-.22,73.94-1.87,13.23-21.69,209.22-21.69,209.22l-96.48-9.05,21.97-210.92h0l-163.46-32.95s-87.75,6.68-91.16-30.74l36.62-49.63,86.45-42.73,54.75,27.47Z"/>
    <g>
      <path class="cls-18" d="M717.96,710.3c1-1.5,14-16.5,17.5-16.5s7.5,4,7.5,4c0,0,4.5-2,7.5-1,3,1,17,13,17,17.5v7.5s.5,2.5,0,6c-.5,3.5-9,9.5-9,9.5h-47.97s-9.17-6.18-8.02-12c1.15-5.82,15.5-15,15.5-15Z"/>
      <path class="cls-10" d="M742.96,697.8c.04-.07,1.11,.54,3,1.7,2.05,1.29,4.72,2.98,7.93,5,.82,.56,1.72,1.01,2.62,1.79,.86,.77,1.55,1.8,1.94,2.99,.42,1.22,.34,2.49,.44,3.7,.06,1.24,.13,2.51,.2,3.82,.25,5.25,.53,10.99,.82,17.01,.04,.92,.08,1.83,.12,2.73l.02,.47-.46,.11c-.99,.25-1.97,.49-2.94,.73l-.07,.02h-.08c-1.4-.02-2.74-.59-3.76-1.41-1.03-.83-1.8-1.86-2.42-2.91-1.23-2.12-1.96-4.34-2.52-6.45-1.08-4.26-1.49-8.17-1.65-11.53l.26,.36c-3.4-1.34-6.22-2.45-8.39-3.31-1.96-.8-3.03-1.28-3-1.35s1.15,.26,3.16,.94c2.2,.77,5.06,1.76,8.51,2.97l.24,.08,.02,.28c.24,3.28,.74,7.17,1.85,11.3,.57,2.06,1.31,4.19,2.47,6.15,1.13,1.93,2.94,3.72,5.25,3.74l-.15,.02c.97-.24,1.94-.49,2.94-.73l-.44,.59c-.04-.9-.08-1.81-.13-2.73-.26-6.02-.51-11.76-.73-17.01-.05-1.31-.1-2.58-.15-3.82-.08-1.26,0-2.45-.33-3.45-.31-1.03-.9-1.94-1.63-2.63-.72-.66-1.67-1.19-2.46-1.77-3.13-2.15-5.73-3.94-7.73-5.31-1.81-1.28-2.79-2.01-2.75-2.08Z"/>
      <path class="cls-10" d="M710.49,735.58c0-.09,1.14-.24,3.21-.43,2.32-.19,5.26-.42,8.74-.7h.06s.08,.01,.08,.01c2.84,.66,6.19,1.31,9.88,1.79,1.84,.23,3.77,.41,5.76,.46,1.93,.05,4.12-.07,5.27-1.5,.64-.77,.83-1.85,.83-2.93,.02-1.1-.16-2.18-.19-3.38-.04-.84-.62-1.75-1.31-2.45-.69-.73-1.52-1.3-2.37-1.78-3.49-1.96-7.2-2.01-10.29-1.82-3.18,.08-5.79-1.19-6.8-2.72-1.05-1.5-.95-2.59-.9-2.57,.1-.03,.18,1,1.25,2.29,1.04,1.32,3.41,2.35,6.43,2.18,2.99-.29,7.05-.36,10.82,1.7,.93,.51,1.85,1.13,2.65,1.94,.78,.81,1.56,1.81,1.65,3.22,.03,1.03,.23,2.19,.21,3.39,0,1.19-.2,2.55-1.08,3.64-.78,.99-1.94,1.48-3.02,1.72-1.09,.24-2.18,.22-3.19,.2-2.05-.06-4.01-.26-5.88-.52-3.74-.53-7.09-1.25-9.96-2.01h.14c-3.5,.14-6.44,.24-8.77,.33-2.08,.05-3.23,.03-3.24-.06Z"/>
      <path class="cls-10" d="M759.39,735.37c-.26-.17,1.72-3.91,3.86-8.7,2.16-4.79,4.11-8.61,4.42-8.46,.27,.13-1.2,4.13-3.37,8.95-2.16,4.83-4.64,8.41-4.92,8.22Z"/>
    </g>
    <path class="cls-7" d="M655.3,745.51l173.09,2.29,55.73-156.28c1.23-3.25-.29-6.9-3.46-8.31h0c-3.45-1.54-7.49,.16-8.8,3.71l-54.91,147.98-161.68,1.6c-2.47,.02-4.46,2.03-4.46,4.5h0c0,2.48,2.01,4.49,4.49,4.5Z"/>
    <g>
      <g>
        <path class="cls-18" d="M618.57,702.32l20.24-1.62s.44-7.51,4.86-10.16c4.42-2.65,3.98-8.4,6.63-7.95,2.65,.44,4.42-.02,4.42-.02l16.79-14.12,14.14-9.28,11.05-2.21s6.63,1.77,0,7.95l-7.07,3.98-6.19,6.19,14.14-6.94c1.31-.65,2.85-.66,4.17-.03,3.25,1.54,9.26,4.5,10.85,6.09,2.21,2.21,0,4.42,0,4.42l6.19,5.3s1.33,7.07-5.74,5.3l-5.74-1.33-7.51,7.51s25.63-5.3,27.4-4.42c1.77,.88,3.98,4.86,0,8.4-3.98,3.53-19.44,2.65-22.98,6.19-3.54,3.53-26.91,24.88-32.65,26.2-5.74,1.33-52.9,12.84-52.9,12.84l-.09-42.28Z"/>
        <path class="cls-18" d="M718.8,683.91c-.1,.09-1.35-.92-3.48-2.46-1.06-.77-2.32-1.69-3.75-2.66-.71-.49-1.47-.98-2.26-1.46-.79-.44-1.67-1.03-2.37-.97-1.73,.11-3.41,1.3-4.94,2.05-1.52,.82-2.87,1.61-4,2.27-2.26,1.33-3.64,2.19-3.74,2.06-.09-.12,1.13-1.22,3.3-2.75,1.08-.76,2.41-1.62,3.92-2.51,.76-.44,1.55-.89,2.41-1.34,.86-.44,1.85-.89,3.01-.94,.27-.02,.58,.01,.92,.11,.29,.09,.53,.2,.77,.31,.46,.23,.9,.48,1.31,.74,.82,.52,1.58,1.04,2.29,1.56,1.42,1.04,2.64,2.03,3.64,2.9,2.01,1.71,3.1,2.99,2.97,3.11Z"/>
        <path class="cls-18" d="M656.73,680.87c.2,.27-1.91,2.09-4.35,4.45-2.43,2.38-4.46,4.33-4.71,4.09-.22-.2,1.41-2.49,3.91-4.93,2.52-2.43,4.98-3.86,5.16-3.61Z"/>
      </g>
      <path class="cls-14" d="M456.74,560.81c-.08,.2-2.89-.94-7.63-2.02-2.36-.55-5.22-.99-8.42-1.27-3.19-.22-6.72-.25-10.41,.07-3.68,.37-7.14,1.06-10.24,1.87-3.08,.87-5.81,1.84-8.03,2.83-4.45,1.94-7,3.59-7.12,3.41-.04-.07,.56-.52,1.7-1.29,1.13-.79,2.86-1.78,5.07-2.86,2.21-1.1,4.95-2.16,8.08-3.11,3.14-.89,6.67-1.63,10.42-2,3.76-.33,7.36-.27,10.61,.02,3.25,.34,6.14,.88,8.52,1.54,2.38,.65,4.26,1.3,5.52,1.86,1.26,.54,1.94,.88,1.91,.95Z"/>
      <path class="cls-16" d="M390.91,630.22s84.57,115.12,97.79,115.12,137.11-1.01,137.11-1.01v-46.81l-107-21.03s-46.01-95.21-56.19-107.42c-10.17-12.21-37.4-28.61-57.75-10.3-20.35,18.31-13.97,71.45-13.97,71.45Z"/>
      <path class="cls-2" d="M508.23,697.05c-.27-.11,1.91-5.41,6.3-10.88,4.36-5.5,9.04-8.81,9.2-8.57,.23,.27-4.04,3.91-8.3,9.29-4.29,5.35-6.89,10.32-7.21,10.16Z"/>
      <path class="cls-2" d="M505.38,682.69c-.19-.22,3.08-3.01,8.02-4.75,4.92-1.78,9.22-1.7,9.21-1.41,.03,.35-4.09,.79-8.82,2.5-4.75,1.68-8.21,3.95-8.41,3.66Z"/>
    </g>
    <g>
      <path class="cls-25" d="M584.78,922.99c-1.8-3.72-6.12-5.36-10.05-6.63-77.83-25.09-161.34-37.12-241.8-22.51-9.68,1.76-19.67,4.07-27.35,10.21-7.68,6.14-12.31,17.18-8.2,26.12l16.52,5.29c82.29-9.17,165.66-8.58,247.81,1.75,5.53,.7,11.38,1.4,16.51-.79,5.13-2.19,8.98-8.42,6.56-13.45Z"/>
      <path class="cls-14" d="M494.45,897.25s-.18,.01-.52-.03c-.41-.05-.9-.12-1.51-.2-1.42-.21-3.34-.5-5.77-.86-5-.8-12.23-1.95-21.22-2.98-17.96-2.14-42.94-4.03-70.54-3.36-6.9,.13-13.63,.47-20.12,1-6.5,.49-12.74,.85-18.74,1.4-.77,.05-1.55,.05-2.32-.05-.72-.1-1.4-.13-2.11-.1-1.4,.06-2.79,.34-4.18,.63-2.77,.58-5.47,1.14-8.07,1.68-5.18,1.16-9.96,2.44-14.25,3.85-8.58,2.8-15.1,6.22-19.31,8.99-2.12,1.37-3.7,2.53-4.74,3.36-.48,.37-.88,.67-1.2,.92-.28,.2-.42,.3-.44,.28-.01-.02,.11-.14,.36-.37,.31-.27,.68-.61,1.13-1.01,1-.89,2.54-2.12,4.64-3.55,4.16-2.9,10.69-6.47,19.3-9.39,4.3-1.47,9.1-2.81,14.3-4.01,2.61-.56,5.3-1.14,8.07-1.74,1.39-.3,2.83-.61,4.34-.68,.75-.04,1.54,0,2.28,.09,.69,.08,1.41,.08,2.13,.03,5.92-.57,12.23-.95,18.73-1.46,6.5-.55,13.25-.89,20.17-1.02,27.67-.66,52.71,1.36,70.67,3.71,8.99,1.13,16.22,2.41,21.2,3.35,2.41,.45,4.33,.81,5.73,1.08,.59,.12,1.08,.23,1.49,.31,.33,.08,.5,.12,.5,.14Z"/>
      <path class="cls-25" d="M299.42,770.43l132.65,4.63c1.96,.07,3.43,1.82,3.15,3.77l-19.09,159.09h29.89l15.43-175.13c.73-5.98-3.81-11.3-9.83-11.52l-155.77-5.59,3.57,24.75Z"/>
    </g>
    <polygon class="cls-5" points="1004.45 758.83 983.66 758.83 983.66 763.44 1029.44 1200.9 1050.79 1200.9 1004.45 758.83"/>
    <g>
      <g>
        <polygon class="cls-5" points="540.34 758.83 561.13 758.83 561.13 763.54 518.45 1200.75 497.1 1200.75 540.34 758.83"/>
        <path class="cls-14" d="M540.34,758.83s-.05,.79-.18,2.3c-.14,1.53-.34,3.76-.61,6.68-.56,5.88-1.37,14.5-2.42,25.62-2.13,22.24-5.22,54.43-9.05,94.3-7.74,79.69-18.46,190.1-30.39,313.08l-.58-.64c6.66,0,13.83,0,21.03,0h.32l-.58,.52c20.24-205.4,37.38-379.39,43.07-437.18v.02c0-2.18,.01-3.47,.02-4.71l.16,.16c-7.08-.04-12.26-.07-15.69-.09-1.7-.02-2.96-.03-3.83-.04-.84-.01-1.27-.03-1.27-.03,0,0,.39-.02,1.22-.03,.86,0,2.11-.02,3.79-.04,3.45-.02,8.66-.05,15.78-.09h.16s0,.16,0,.16c0,1.23,0,2.53,.02,4.71h0s0,.02,0,.02c-5.59,57.8-22.41,231.82-42.27,437.26l-.05,.52h-.85c-7.2,0-14.37,0-21.03,0h-.64l.06-.64c12.14-123.13,23.03-233.66,30.9-313.44,3.97-39.81,7.17-71.94,9.39-94.14,1.12-11.05,1.99-19.63,2.58-25.47,.3-2.88,.53-5.08,.69-6.59,.16-1.48,.26-2.22,.26-2.22Z"/>
      </g>
      <rect class="cls-5" x="490.32" y="744.6" width="594.95" height="18.83"/>
      <path class="cls-14" d="M1021.94,763.44c0,.32-118.58,.58-264.82,.58s-264.85-.26-264.85-.58,118.56-.58,264.85-.58,264.82,.26,264.82,.58Z"/>
    </g>
  </g>
</svg>