<?xml version="1.0" encoding="UTF-8"?>
<svg id="Capa_1" data-name="Capa 1" xmlns="http://www.w3.org/2000/svg" viewBox="0 0 1003 687.92">
  <defs>
    <style>
      .cls-1 {
        fill: #d1bedc;
      }

      .cls-2 {
        fill: #b59bc7;
      }

      .cls-3 {
        fill: #82cde9;
      }

      .cls-4 {
        fill: #385a65;
      }

      .cls-5 {
        opacity: .3;
      }

      .cls-6 {
        fill: #192e35;
      }

      .cls-7 {
        fill: #1b2545;
      }

      .cls-8 {
        fill: #5f8485;
      }

      .cls-9 {
        fill: #e1e0e0;
      }

      .cls-10 {
        fill: #1d2441;
      }

      .cls-11 {
        fill: #cfcbcf;
      }
    </style>
  </defs>
  <g>
    <polygon class="cls-4" points="176.14 546.33 259.01 491.33 660.57 489.45 678.95 547.15 176.14 546.33"/>
    <polygon class="cls-4" points="677.9 568.86 175.31 568.5 175.31 545.25 678.12 546.8 677.9 568.86"/>
    <path class="cls-6" d="M665.57,546.66c0,.22-108.53,.35-242.37,.29-133.89-.06-242.4-.29-242.4-.52,0-.22,108.5-.35,242.4-.29,133.84,.06,242.37,.29,242.37,.52Z"/>
  </g>
  <g>
    <path class="cls-9" d="M324.56,353.01s-8.96,1.9-10.52,8.15c-1.56,6.25,12.49,155.83,13.05,159.47,.89,5.72,5.8,12.99,16.86,12.6,9.64-.34,141.08-.04,174.17,.04,4.4,.01,7.04-3.67,7.62-8.05h0l-162.73-9.44-38.45-162.77Z"/>
    <g>
      <path class="cls-9" d="M320.48,358l14.1,161.31c.27,2.63,2.5,4.65,5.2,4.7l185.97,.82-35.73-34.84-120.81-.84-12.92-126.37c-.18-1.68-1.42-3.06-3.1-3.44l-27.06-6.2c-3.08-.7-5.96,1.77-5.65,4.87Z"/>
      <path class="cls-6" d="M320.48,358s-.05-.26-.03-.78c.02-.51,.16-1.31,.72-2.18,.55-.86,1.61-1.79,3.16-2.05,.76-.15,1.63-.02,2.47,.2,.86,.19,1.78,.4,2.75,.62,3.91,.88,8.71,1.97,14.37,3.24,2.83,.64,5.87,1.33,9.11,2.06,1.7,.28,3.24,1.76,3.44,3.6,.18,1.73,.37,3.51,.56,5.33,3.02,29.23,7.34,70.97,12.53,121.08l-.35-.31c36.26,.24,77.15,.5,120.81,.79h.16s.12,.12,.12,.12c11.45,11.16,23.48,22.89,35.73,34.83l.71,.69h-1c-2.6-.02-5.42-.03-8.24-.04-48.36-.22-94.43-.44-136.33-.63-10.47-.05-20.69-.1-30.61-.15-2.48-.01-4.94-.02-7.39-.04-1.23-.01-2.42,0-3.67-.03-1.29-.08-2.54-.61-3.48-1.46-.95-.85-1.57-2.03-1.75-3.27-.14-1.2-.21-2.34-.32-3.51-.2-2.32-.4-4.62-.6-6.9-1.58-18.24-3.04-35.23-4.38-50.75-2.66-31.02-4.8-56.12-6.29-73.49-.72-8.67-1.29-15.4-1.67-19.98-.18-2.27-.32-4.01-.41-5.2-.09-1.17-.11-1.77-.11-1.77,0,0,.08,.6,.2,1.77,.11,1.19,.28,2.92,.49,5.19,.42,4.58,1.03,11.31,1.82,19.97,1.55,17.36,3.79,42.46,6.55,73.46,1.37,15.51,2.87,32.5,4.48,50.74,.2,2.28,.4,4.58,.61,6.9,.11,1.15,.19,2.34,.32,3.47,.16,1.08,.71,2.11,1.54,2.86,.83,.75,1.92,1.21,3.05,1.28,1.18,.03,2.42,.02,3.63,.03,2.44,0,4.91,.02,7.39,.03,9.92,.04,20.14,.08,30.61,.12,41.9,.18,87.97,.37,136.33,.57,2.82,.01,5.64,.02,8.24,.04l-.29,.69c-12.25-11.95-24.28-23.68-35.72-34.84l.28,.11c-43.66-.32-84.55-.62-120.81-.89h-.32s-.03-.31-.03-.31c-5.06-50.12-9.28-91.87-12.23-121.1-.18-1.83-.36-3.6-.54-5.33-.18-1.67-1.55-3.02-3.14-3.29-3.24-.75-6.27-1.45-9.1-2.11-5.64-1.31-10.44-2.43-14.34-3.34-.97-.23-1.89-.44-2.75-.64-.86-.23-1.66-.35-2.4-.22-1.5,.23-2.55,1.12-3.1,1.95-.57,.84-.72,1.62-.76,2.13-.04,.51,0,.77-.02,.77Z"/>
    </g>
    <polygon class="cls-6" points="456.6 520.63 473.89 520.63 452.03 492.77 441.77 492.77 456.6 520.63"/>
    <path class="cls-6" d="M326.87,365.29l13.2,140.15,24.6-19.22-10.59-118.08c-.09-.95-.82-1.71-1.78-1.85l-23.06-3.24c-1.34-.19-2.51,.91-2.37,2.24Z"/>
    <polygon class="cls-6" points="353.28 520.63 371.12 520.63 389.25 492.77 378.99 492.77 353.28 520.63"/>
    <polygon class="cls-6" points="375.18 520.63 392.47 520.63 401.94 492.77 391.68 492.77 375.18 520.63"/>
    <polygon class="cls-6" points="396.34 520.63 413.63 520.63 414.56 492.77 404.3 492.77 396.34 520.63"/>
    <polygon class="cls-6" points="415.96 520.63 433.24 520.63 426.86 492.77 416.6 492.77 415.96 520.63"/>
    <polygon class="cls-6" points="436.41 520.63 453.69 520.63 439.61 492.77 429.35 492.77 436.41 520.63"/>
    <path class="cls-9" d="M473.02,515.2c0,.13-26.36,.24-58.87,.24s-58.88-.11-58.88-.24,26.35-.24,58.88-.24,58.87,.11,58.87,.24Z"/>
    <path class="cls-9" d="M469.88,510.09c0,.13-25.03,.24-55.91,.24s-55.91-.11-55.91-.24,25.03-.24,55.91-.24,55.91,.11,55.91,.24Z"/>
    <path class="cls-9" d="M469.88,505.45c0,.27-23.56,.48-52.61,.48s-52.61-.22-52.61-.48,23.55-.48,52.61-.48,52.61,.22,52.61,.48Z"/>
    <path class="cls-9" d="M470.61,501.22c0,.27-23.05,.48-51.48,.48s-51.48-.22-51.48-.48,23.04-.48,51.48-.48,51.48,.22,51.48,.48Z"/>
    <path class="cls-9" d="M473.02,498.14c0,.27-23.2,.48-51.81,.48s-51.82-.22-51.82-.48,23.19-.48,51.82-.48,51.81,.22,51.81,.48Z"/>
    <path class="cls-9" d="M475.57,494.91c0,.27-23.64,.48-52.78,.48s-52.79-.22-52.79-.48,23.63-.48,52.79-.48,52.78,.22,52.78,.48Z"/>
    <g>
      <path class="cls-9" d="M337.17,519.3c10.74-9.87,21.48-19.75,32.22-29.62"/>
      <path class="cls-6" d="M369.39,489.68c.15,.16-6.93,6.92-15.83,15.1-8.9,8.18-16.23,14.68-16.39,14.52-.15-.16,6.93-6.92,15.83-15.1,8.9-8.18,16.23-14.68,16.39-14.52Z"/>
    </g>
  </g>
  <g>
    <path class="cls-4" d="M902.53,379.35s-1.58-16.38-43.11-26.86c-20.05-5.06-67.92-7.49-73.35,23.08-.18,.99-23.82,193.28-23.82,193.28h88.5l51.78-189.51Z"/>
    <path class="cls-4" d="M888.51,568.86h-40.83l13.64-188.4c1-9.17,10.65-15.78,21.57-14.76l3.65,.34c10.91,1.01,17.82,11.34,17.51,23.11l-15.54,179.71Z"/>
    <path class="cls-6" d="M850.74,562.08c-.23-.02,2.66-37.13,6.44-82.88,3.78-45.77,7.03-82.84,7.26-82.82,.22,.02-2.66,37.12-6.44,82.89-3.78,45.75-7.03,82.83-7.26,82.81Z"/>
    <path class="cls-6" d="M894.69,370.45c-.06,.15-2.13-.88-5.74-1.33-3.56-.47-8.8-.1-13.62,2.6-4.81,2.72-7.78,6.98-9.16,10.24-1.43,3.29-1.57,5.57-1.73,5.54-.05,0-.05-.57,.08-1.58,.13-1.01,.45-2.46,1.12-4.17,1.28-3.4,4.28-7.89,9.29-10.72,5.02-2.82,10.48-3.1,14.11-2.47,1.84,.3,3.28,.76,4.23,1.16,.95,.4,1.45,.69,1.43,.73Z"/>
  </g>
  <g>
    <path class="cls-3" d="M554.05,463.77s-36.95-1.23-39.17-1.99c-2.21-.77-7.61-.92-10.24,0-2.63,.92-13.15,5.06-13.15,5.06l-22.32,6.59s-22.43,16.25-21.96,19.51c.47,3.25,2.91,5.48,6.92,3.8,4.01-1.69,24.27-13.34,24.27-13.34l22.23-2.61s30.4,12.1,36.54,11.5c6.14-.6,21.87-3.55,21.87-3.55,0,0,2.21-17.45,1.11-20.21-1.11-2.76-6.09-4.75-6.09-4.75Z"/>
    <g>
      <path class="cls-3" d="M448.81,507.39s18.73-22.24,23.92-25.24c5.19-3,34.07-8.25,34.07-8.25,0,0,9.25-4.25,12.64-2.75,3.38,1.5,39.26,7.5,40.84,7.75,1.58,.25-7.67,34.99-7.67,34.99,0,0-12.41,2.5-26.85-1.25-14.44-3.75-19.4-8.75-19.4-8.75l-14.41-4.19-8.82,3.73s-1.58,14.46-7.9,13.71l-2.93-2.25,2.26-15.99-9.25,4.25s-7.22,12-12.64,10.25c-5.41-1.75-3.84-6-3.84-6Z"/>
      <path class="cls-10" d="M448.81,507.39s-.23,.58-.14,1.74c.05,.57,.23,1.28,.7,1.95,.46,.68,1.19,1.28,2.12,1.71,.93,.43,2.03,.81,3.25,.52,1.2-.3,2.41-1.05,3.58-2.01,2.35-1.96,4.63-4.82,6.8-8.27l.04-.06,.05-.02c2.77-1.29,5.89-2.73,9.24-4.28l.38-.18-.06,.45c-.67,4.81-1.42,10.21-2.22,16l-.11-.29c.9,.68,1.91,1.46,2.94,2.24l-.13-.05c1.18,.12,2.36-.38,3.25-1.32,.91-.93,1.62-2.15,2.15-3.47,1.09-2.64,1.77-5.61,2.16-8.66l.03-.2,.17-.07c2.75-1.17,5.75-2.44,8.81-3.74l.1-.04,.1,.03c4.55,1.32,9.42,2.73,14.42,4.17l.06,.02,.08,.07c2.83,2.45,6.39,4.14,9.97,5.63,3.63,1.44,7.44,2.61,11.36,3.5,3.92,.89,7.99,1.37,12.12,1.51,4.12,.13,8.35-.05,12.51-.77l-.28,.28c.64-2.45,1.32-5.09,2.01-7.74,1.98-7.86,3.97-15.59,5.42-23.24,.17-.95,.33-1.92,.39-2.85,.02-.23,.02-.47,0-.65,.01-.1-.09-.16,.06-.03,.02,.02,.05,.02,.08,.02h-.04s-.08-.02-.08-.02l-.16-.03-1.3-.22c-1.73-.29-3.45-.59-5.16-.87-3.41-.6-6.78-1.18-10.09-1.76-6.63-1.19-13.05-2.35-19.21-3.65-1.54-.36-3.05-.64-4.58-1.16-1.37-.59-2.88-.39-4.33-.15-2.92,.57-5.71,1.63-8.35,2.78l-.04,.02h-.03c-10.1,1.89-19.33,3.72-27.38,5.87-2.01,.54-3.95,1.12-5.74,1.86-1.76,.77-3.18,2.16-4.55,3.41-2.73,2.56-5.09,5.1-7.23,7.38-4.26,4.58-7.5,8.29-9.72,10.8-1.09,1.24-1.94,2.2-2.53,2.87-.57,.65-.88,.97-.88,.97,0,0,.27-.37,.82-1.04,.58-.69,1.4-1.67,2.46-2.94,2.18-2.56,5.38-6.31,9.61-10.94,2.12-2.31,4.47-4.86,7.2-7.46,.68-.65,1.39-1.3,2.15-1.92,.75-.63,1.58-1.22,2.51-1.61,1.83-.78,3.78-1.37,5.79-1.92,8.08-2.2,17.3-4.08,27.41-5.99l-.07,.02c2.68-1.18,5.48-2.25,8.48-2.85,1.48-.25,3.12-.49,4.66,.16,1.41,.47,2.96,.78,4.48,1.12,6.14,1.28,12.57,2.43,19.19,3.61,3.31,.57,6.68,1.16,10.09,1.75,1.71,.29,3.42,.58,5.15,.87l1.3,.21,.16,.03h.08s.04,.02,.04,.02c.05,.01,.1,.03,.15,.06,.32,.27,.27,.48,.31,.61,.03,.3,.02,.56,0,.81-.07,1.01-.24,1.98-.4,2.95-1.46,7.71-3.44,15.43-5.43,23.31-.69,2.65-1.38,5.29-2.02,7.75l-.06,.24-.22,.04c-4.26,.74-8.49,.9-12.66,.77-4.17-.15-8.27-.64-12.24-1.54-3.96-.91-7.79-2.09-11.46-3.55-1.83-.74-3.61-1.57-5.33-2.5-1.71-.95-3.36-1.94-4.86-3.3l.14,.08c-5-1.46-9.86-2.88-14.41-4.21h.19c-3.07,1.28-6.07,2.54-8.82,3.7l.19-.27c-.41,3.12-1.1,6.11-2.24,8.85-.56,1.36-1.3,2.65-2.3,3.66-.98,1.02-2.35,1.62-3.69,1.46h-.07s-.06-.05-.06-.05c-1.03-.79-2.04-1.57-2.93-2.26l-.14-.11,.03-.18c.83-5.78,1.6-11.18,2.29-15.99l.32,.27c-3.36,1.53-6.48,2.95-9.26,4.21l.09-.08c-2.22,3.48-4.53,6.33-6.94,8.3-1.21,.97-2.45,1.72-3.71,2.02-1.29,.29-2.46-.13-3.39-.58-.94-.46-1.7-1.1-2.16-1.82-.47-.71-.64-1.46-.68-2.05-.05-1.19,.25-1.75,.25-1.75Z"/>
    </g>
    <path class="cls-10" d="M505.53,488.57c0,.05-.51,.04-1.42-.04-.91-.08-2.22-.22-3.84-.4-1.68-.21-3.6-.44-5.69-.7-.54-.07-1.08-.14-1.64-.21-.56-.09-1.05-.05-1.64,.04-1.13,.17-2.31,.47-3.51,.81-4.7,1.51-9.4,2.51-11.21,5.6-.96,1.4-1.41,2.78-1.67,3.73-.25,.96-.32,1.51-.37,1.51-.05,0-.08-.57,.1-1.58,.19-1,.57-2.46,1.53-3.99,.49-.75,1.11-1.53,1.91-2.17,.8-.64,1.78-1.18,2.8-1.57,2.04-.82,4.31-1.61,6.73-2.3,1.21-.34,2.41-.64,3.6-.81,.57-.09,1.25-.13,1.8-.02,.56,.08,1.11,.16,1.64,.24,2.09,.32,4,.61,5.67,.87,1.61,.26,2.92,.48,3.82,.66s1.39,.29,1.39,.35Z"/>
    <path class="cls-10" d="M455.23,499.99s.51-.66,1.55-1.73c1.04-1.06,2.57-2.56,4.51-4.36,1.94-1.79,4.29-3.88,7-6.06,1.36-1.08,2.81-2.19,4.38-3.24,.79-.52,1.61-1.02,2.49-1.44,.91-.42,1.82-.7,2.76-.98,7.48-2.28,14.48-2.88,19.47-3.71,2.41-.33,4.41-.61,5.94-.82,1.4-.18,2.18-.25,2.19-.19,0,.05-.76,.23-2.15,.5-1.52,.28-3.51,.64-5.9,1.07-4.97,.97-11.95,1.66-19.35,3.92-.92,.28-1.85,.56-2.67,.94-.84,.4-1.64,.89-2.41,1.39-1.55,1.02-2.99,2.1-4.35,3.16-2.71,2.13-5.09,4.17-7.07,5.9-1.89,1.68-3.45,3.08-4.65,4.15-1.09,.99-1.7,1.54-1.73,1.49Z"/>
  </g>
  <path class="cls-1" d="M704.85,355.07s-11.1,14.98-19.9,32.99c-7.54,15.43-31.95,67.96-31.95,67.96l-99.43,5.13,1.47,37.75s96.03,33.62,117.53,27.13c21.5-6.49,44.4-30.84,44.4-30.84l10.28-159.23s-8.53-1.58-22.4,19.11Z"/>
  <path class="cls-1" d="M725.64,336.32s-25.49,56.82-29.22,80.9c-7.39,47.79-9.88,77.7-9.88,77.7l-8.67,73.95h169.81s5.62-137.06,2.01-183.01c-2.71-34.43-29.54-55.87-40.52-67.65-.66-.71-3.68-10.35-3.68-10.35l-79.13,19.92-.72,8.56Z"/>
  <path class="cls-6" d="M717.43,344.95s-.05,.19-.2,.54c-.16,.39-.38,.9-.65,1.55-.6,1.4-1.45,3.39-2.54,5.94-2.18,5.16-5.33,12.65-8.5,22.14-3.19,9.49-6.31,21-8.78,33.99-2.53,12.98-4.57,27.38-6.28,42.54-3.13,30.36-5.96,57.84-8.02,77.78-1.05,9.91-1.9,17.95-2.5,23.56-.31,2.74-.55,4.89-.72,6.4-.09,.7-.16,1.25-.21,1.66-.05,.37-.08,.56-.1,.56-.01,0,0-.2,.02-.57,.03-.42,.07-.97,.13-1.67,.13-1.51,.32-3.67,.57-6.42,.53-5.62,1.3-13.66,2.24-23.59,1.96-19.91,4.56-47.43,7.78-77.81,1.71-15.17,3.78-29.59,6.35-42.59,2.52-13.01,5.7-24.55,8.97-34.03,3.25-9.5,6.48-16.96,8.76-22.09,1.12-2.57,2.06-4.54,2.68-5.88,.3-.64,.54-1.14,.72-1.52,.17-.34,.26-.51,.27-.51Z"/>
  <g class="cls-5">
    <path d="M805.65,434.41c-1.56-15.14-8.48-30.33-21.16-39.07l-103.54,145.29c18.28,9.69,38.57,19.69,58.88,15.42,10.92-2.3,20.64-8.63,28.51-16.41,16.37-16.18,25.26-38.23,31.5-60.21,4.16-14.66,7.37-29.88,5.8-45.02Z"/>
  </g>
  <path class="cls-1" d="M817.39,416.85c-12.9,44.86-41.93,99.59-50.85,110.59-17.42,21.48-40.44,26.12-54.17,26.12-11.68,0-110.41-18.89-139.67-24.54-4.94-.95-3.03-.83-10.88-3.92l-3.14-1.54-10.99-3.09,8.75-40.42,1.4-1.92,141.21,4.36h0l41.08-112.43c.78-1.28,12.64-39.01,44.8-37.3"/>
  <path class="cls-6" d="M667.93,473.59c-.24,.12-2.2-5.01-6.81-9.82-4.55-4.86-9.63-7.14-9.49-7.37,.04-.08,1.35,.37,3.29,1.46,1.94,1.09,4.46,2.9,6.8,5.36,2.33,2.47,3.99,5.07,4.96,7.04,.98,1.98,1.34,3.29,1.25,3.32Z"/>
  <path class="cls-6" d="M716.12,509.7c-.14,.02-.41-1.78-1.23-4.58-.81-2.8-2.29-6.57-4.63-10.37-2.36-3.79-5.11-6.8-7.27-8.79-2.16-2-3.66-3.06-3.58-3.17,.03-.05,.43,.18,1.14,.63,.71,.44,1.68,1.16,2.83,2.12,2.29,1.91,5.17,4.93,7.58,8.79,2.4,3.87,3.81,7.76,4.49,10.64,.34,1.44,.55,2.62,.62,3.44,.09,.82,.11,1.28,.05,1.28Z"/>
  <g class="cls-5">
    <path d="M678.45,481.62l8.22,.3c1.33-31.69,7.97-63.3,13.66-94.52-14.49,29.09-18.29,62.03-21.88,94.22Z"/>
  </g>
  <g>
    <g id="MIjohJ">
      <g>
        <path class="cls-7" d="M682.95,192.42c.9,8.3,5.18,14.39,12.56,18.41,1,.54,2.08,.96,3.12,1.43,.73-.38,.57-1.09,.63-1.7,.31-3.2,.6-6.4,1.32-9.55,.27-1.16,.8-1.86,2.04-2.1,1.32-.26,2.54-.87,3.77-1.44,.24,.44,0,.77-.08,1.1-.81,3.7,.7,6.67,4.27,8.16,2.61,1.09,5.39,1.51,8.21,1.62,5.77,.24,11.48-.39,17.15-1.42,1.75-.32,1.74-.32,2.18,1.35,.58,2.23,1.24,4.43,2.23,6.52,1.69,4.08,3.96,7.81,6.84,11.18,.84,.99,1.3,.94,2.21-.2,1.89-2.37,3.89-4.62,6.65-6.04,4.08-2.11,8.27-2.87,12.65-.86,4.41,2.02,6.51,5.56,6.74,10.18,.37,7.42-2.42,13.77-7.31,19.27-1.13,1.28-1.48,2.37-.76,3.96,1.97,4.32,3.53,8.83,5.73,13.04,4.06,7.77,10.61,12.29,19.33,13.81,.78,.14,1.58,.18,2.38,.06,1.38-.18,2.84,.33,4.16-.42,1.82-1.65,3.09-3.74,4.47-5.71,5.89-8.39,11.2-17.11,15.42-26.44,2.65-5.85,4.84-11.87,6.38-18.1,.88-3.55,1.54-7.17,1.79-10.81,.63-8.82-1.09-17.23-4.97-25.26-2.06-4.26-4.45-8.31-7.51-11.9-3.18-3.74-6.93-6.92-11.22-9.44-3.17-1.86-6.62-3.04-10.1-4.14-1.37-.43-2.6-1.19-3.56-2.18-6.38-6.56-14.26-10.53-23.02-12.95-7.51-2.07-15.17-3.22-22.99-3.46-2.61-.08-5.22-.29-7.83-.19-8.22,.29-16.38,1.02-24.41,2.94-5.75,1.38-11.27,3.18-16.38,6.14-3.06,1.77-5.48,4.16-7.26,7.17-2.6,4.38-.91,7.52,4.77,8.17-5.68,4.13-8.91,9.43-9.61,16.12-.14,1.21-.13,2.43,0,3.64Z"/>
        <path class="cls-3" d="M794.39,278.84c-9.65-.82-16.7-5.55-21-13.99-2.27-4.46-4.01-9.18-6.02-13.77-.31-.7-.03-1.11,.41-1.57,4.4-4.58,7.15-9.97,8.01-16.2,.6-4.39,.2-8.67-3.05-12.16-3.63-3.9-9.39-4.91-14.99-2.7-3.59,1.41-6.33,3.84-8.56,6.9-.29,.4-.59,.8-.92,1.25-3.18-3.58-5.57-7.56-7.51-11.8-.44-.38-.96-.61-1.54-.55-4.7,.5-9.42,.55-14.14,.55-.28,0-.55,.12-.82,.18-1.26,1.23-2.69,1.2-4.26,.66-.92-.32-1.92-.47-2.9-.48-1.3-.02-2.49-.3-3.58-1-4.41-.52-8.8-1.17-13.17-1.96-.56-.1-1.13-.12-1.58,.33-.52,3.63-.62,7.29-.91,10.93-.34,4.23-.67,8.47-1.06,12.7-.11,1.23,.14,2.48-.23,3.7-.14,.47-.2,.88-.85,.84-2.77-.13-5.11,3.12-4.54,6.21,.36,1.92,1.33,3.61,3.12,4.51,1.35,.68,1.43,1.63,1.3,2.82-.51,4.74-1.13,9.49-.76,14.24,.54,6.95,3.02,13.26,7.35,18.81,5.24,6.7,12.08,11.03,20.42,13.06,.32,.08,.62,.21,.92,.32,.64,.41,1.34,.62,2.09,.72,4.79,.6,9.58,.63,14.4,.29,6.95-.49,13.68-1.89,20.24-4.15,3.09-1.06,6.1-2.31,9.2-3.85-3.31,4.3-6.49,8.48-10.03,12.39-4.81,5.29-24.75,15.62-30.67,19.72-.41,.29-.87,.58-.81,1.19,5.07-1.83,24.98,0,30.05-1.85,15.19,.3,30.46,1.48,44.31-3.6,1.76-.65,1.76-.75,1.42-3.19-.52-3.74-3.75-28.23-4.2-31.98-.3-2.44-.58-4.88-.87-7.32-1.42-.35-2.87,.05-4.29-.22Z"/>
        <path class="cls-7" d="M742.74,321.55c7.89-5.39,14.6-12.01,20.65-19.31,2.5-3.02,4.93-6.1,7.25-9.37-.53-.18-.84,.14-1.16,.3-12.14,6-25.01,8.7-38.57,8.21-2.46-.09-4.91-.46-7.37-.7,.35,2.26,.72,4.53,1.04,6.79,.52,3.61,1.01,7.23,1.5,10.84,.36,2.59,.7,5.17,1.06,7.76,.09,.64,.06,1.29,1.14,.88,4.8-1.84,9.64-3.61,14.46-5.4Z"/>
        <path class="cls-3" d="M698.78,212.52c3.23,.5,6.47,1.02,9.7,1.51,1.69,.25,3.38,.54,5.1,.45,.04-.03,.09-.05,.11-.09,.95-2.3,1.03-2.35,3.66-2.18,.98,.07,1.93,.28,2.9,.45,1.7,.3,3.26,.78,3.86,2.64,2.88,0,5.76,.08,8.64-.03,2.68-.1,5.34-.49,8.02-.5-1.01-2.56-1.95-5.15-2.43-7.86-.15-.83-.5-.79-1.11-.69-1.95,.34-3.9,.71-5.86,.96-6.24,.79-12.5,1.34-18.71-.22-4.22-1.06-6.47-3.76-6.04-7.25,.13-1.11,.52-2.19,.83-3.45-1.98,1.32-4.02,2.03-6.17,2.48-.47,.1-.71,.25-.83,.75-.67,2.72-1.16,5.46-1.39,8.25-.12,1.5-.28,3-.42,4.51,.05,.09,.1,.18,.15,.26Z"/>
        <path class="cls-8" d="M794.39,278.84c1.41,.45,2.86,.15,4.29,.22,.1-.09,.2-.17,.31-.26-1.53,.01-3.06,.03-4.59,.04Z"/>
        <path class="cls-11" d="M682.95,192.42c0-1.21,0-2.43,0-3.64-.38,1.21-.37,2.43,0,3.64Z"/>
        <path class="cls-7" d="M727.29,251.47c-.81,.04-1.36,.41-1.79,1.01-2.74,3.86-6.39,6.48-10.97,7.88-1.2,.37-1.71,1.43-1.36,2.49,.38,1.12,1.29,1.6,2.57,1.2,5.48-1.73,9.86-4.93,13.13-9.58,.42-.59,.67-1.21,.23-1.92-.43-.69-1.08-.98-1.81-1.09Z"/>
        <path class="cls-7" d="M763.79,228.56c-1.15,.07-2.49,1.13-3.62,2.45-1.95,2.27-2.72,5.09-3.54,7.86-.35,1.21,.44,1.95,1.52,2.26,1.07,.31,1.79-.34,2.19-1.26,.58-1.35,.86-2.8,1.5-4.13,.8-1.66,1.6-3.16,3.77-3.44,1.06-.13,1.67-1.01,1.6-2.12-.06-.99-1.21-1.65-3.43-1.63Z"/>
        <path class="cls-7" d="M719.45,237.96c2.33,.03,4.23-1.74,4.27-3.99,.04-2.25-1.96-4.24-4.27-4.22-2.3,.02-4.14,1.87-4.15,4.15,0,2.33,1.73,4.03,4.14,4.06Z"/>
        <path class="cls-7" d="M724.1,215.3c.13-1.63-.19-2.17-1.74-2.61-2.1-.6-4.24-.99-6.44-1.01-2.1-.02-2.73,.74-2.34,2.8,.53,.71,1.23,1.12,2.14,1.09,1.94-.05,3.82,.32,5.64,.88,1.34,.41,2.16,.01,2.73-1.15Z"/>
      </g>
    </g>
    <path class="cls-2" d="M733.39,323.79c.32-.08,.64-.16,.96-.24,12.3-3.1,24.64-6,36.9-9.25,6.19-1.64,12.35-3.37,18.47-5.26,4.6-1.42,9.61-3.77,14.5-2.29,.89,.27,1.73,.65,2.53,1.12,3.88,2.3,6.66,6.41,7.11,10.86-30.5,7.35-60.9,15.1-91.19,23.25-1.05-4.52-1.47-9.72,1.45-13.36,2.21-2.75,5.79-3.92,9.27-4.83Z"/>
  </g>
</svg>