<?xml version="1.0" encoding="UTF-8"?>
<svg id="Capa_1" data-name="Capa 1" xmlns="http://www.w3.org/2000/svg" viewBox="0 0 578.07 1038.38">
  <defs>
    <style>
      .cls-1 {
        fill: #d3c0df;
      }

      .cls-2 {
        fill: #fff;
      }

      .cls-3 {
        opacity: .9;
      }

      .cls-4 {
        fill: #71543a;
      }

      .cls-5 {
        fill: #575756;
      }

      .cls-6 {
        fill: #796a5a;
      }

      .cls-7 {
        fill: #1c2545;
      }

      .cls-8 {
        fill: #9d9d9c;
      }

      .cls-9 {
        fill: none;
        stroke: #eeeae4;
        stroke-miterlimit: 10;
        stroke-width: 1.4px;
      }

      .cls-10 {
        opacity: .75;
      }

      .cls-11 {
        fill: #192e35;
      }

      .cls-12 {
        fill: #1b2545;
      }

      .cls-13 {
        fill: #3b2c1e;
      }

      .cls-14 {
        fill: #1c2440;
      }

      .cls-15 {
        fill: #e1e0e0;
      }

      .cls-16 {
        fill: #cfbcdb;
      }

      .cls-17 {
        fill: #1d2441;
      }

      .cls-18 {
        fill: #1d1d1b;
      }
    </style>
  </defs>
  <path class="cls-7" d="M203.52,84.29c12.9-13.13,33.25-20.88,50.11-13.5,11.34,4.96,19.03,15.6,28.98,22.95,7.25,5.36,16.2,9.5,20,17.67,3.35,7.21,1.73,15.59,.93,23.49-.81,7.9-.24,17.02,5.88,22.08,3.21,2.66,7.44,3.71,11.06,5.78,7.29,4.17,11.62,12.3,13.18,20.55,1.56,8.25,.72,16.75-.13,25.1l-34.73,6.62-5.7-9.6-1.99,15.09-44.32,4-43.25-140.24Z"/>
  <g>
    <path class="cls-1" d="M198,110.49l-.09,9.05-2.89,135.64c-.26,15.72,8.94,34.99,26.92,35.08l26.04,11.7c18.16,.09,6.4-30.29,6.94-46.17,.57-16.67,1.49-34.2,1.49-34.2,0,0,23.04-3,28.65-30.9,2.79-13.87,2.74-36.74,2.06-55.44-.62-16.83-16.06-29.77-34-28.44l-55.11,3.68Z"/>
    <path class="cls-7" d="M256.5,221.68s-19.91,.99-39.52-11.54c0,0,8.5,23.55,38.87,22.85l.65-11.3Z"/>
  </g>
  <path class="cls-7" d="M219.17,80.95c5.42,7.28,8,12.87,11.24,25.8,1.59,6.34-3.56,10.81-8.68,14.68-2.4,1.81-5.87,.55-6.52-2.39h0s1.78,19.83-5.39,28.72c-3.36,4.17-3.5,9.51-2.71,14.02,.81,4.6,3.18,8.74,6.4,12.13,8.31,8.74,10.62,22.99,4.89,33.71-1.47,2.74-3.38,5.26-4.56,8.14-.67,1.65-1.06,3.5-.96,5.26,.13,2.18-1.37,4.11-3.53,4.43-24.6,3.57-49.61,4.32-74.38,2.24-1.74-.15-3.24-1.38-3.64-3.08-1.94-8.22,1.3-17.17,5.45-24.74,4.64-8.45,10.54-16.55,12.14-26.06,1.5-8.94-.94-18.59,2.65-26.92,4.41-10.22,16.4-15.05,22.4-24.43,5.66-8.85,5.21-20.44,10.28-29.64,6.51-11.81,22.55-17.26,34.91-11.87"/>
  <path class="cls-7" d="M218.13,105.92c9.41,4.84,2.53,19.36,11.67,24.68,8.33,4.85,29.95,.56,39.48-.87-.35-2.11-.71-4.23-1.06-6.34,.96,1.85,1.96,3.75,3.53,5.13,1.57,1.38,3.85,2.15,5.79,1.37,3.2-1.29,3.62-5.69,2.8-9.03-1.31-5.36-4.45-10.16-8.32-14.09-7.04-7.15-16.7-11.66-26.7-12.45-10-.8-20.26,2.12-28.34,8.06"/>
  <path class="cls-7" d="M251.43,190.58c1.94,.11,3.13-.63,3.38-2.3,.23-1.57-.76-2.23-2.28-2.52-4.64-.88-8.83-2.76-12.37-5.95-1.28-1.16-2.64-1.36-3.77,.06-.88,1.12-.78,2.3,.25,3.51,2.38,2.79,11.4,7.21,14.79,7.2Z"/>
  <path class="cls-7" d="M235.21,162.34c-.36-2.46-1.69-4.23-4.13-4.31-2.58-.08-4.4,1.39-4.43,4.22-.03,2.56,1.39,4.05,3.93,4.2,2.85,.17,4.08-1.64,4.63-4.12Z"/>
  <path class="cls-7" d="M267.15,159.48c.26,2.91,1.48,4.54,4.12,4.62,2.83,.08,4.52-1.54,4.45-4.25-.06-2.4-1.52-4.06-4.24-4.02-2.67,.04-3.83,1.65-4.33,3.65Z"/>
  <path class="cls-7" d="M276.31,136.84c-1.72,.21-3.44,.41-5.15,.64-1.63,.22-2.89,1.07-2.53,2.81,.36,1.72,1.63,2.63,3.57,2.27,1.55-.29,3.13-.58,4.7-.64,1.86-.07,3.82-.21,3.67-2.54-.16-2.42-2.22-2.7-4.25-2.55Z"/>
  <path class="cls-7" d="M228.01,144.47c1.77-.79,6.3,1.34,5.66-3.13-.54-3.79-4.52-1.69-7.04-1.9-.55-.05-1.13,.26-1.69,.38-1.59,.34-3.42,.56-2.91,2.86,.45,1.98,2.03,2.21,3.78,1.94,.57-.09,1.16-.09,2.2-.16Z"/>
  <g>
    <g>
      <path class="cls-4" d="M165.28,113.27s3.66-21.87,11.86-34.85c8.2-12.98,22.75-30.72,35.15-32.87,5.65-.98,30.81,9.04,33.87,9.03,8.3-.03,25.49-.9,31.88,2.26,14.1,6.98,23.08,47.64,23.08,47.64,0,0-52.32,1.75-74.26,2.32-21.94,.58-61.58,6.48-61.58,6.48Z"/>
      <path class="cls-13" d="M165.27,113.26s39.65-5.91,61.61-6.47c21.91-.59,74.23-2.34,74.23-2.34,0,0-.89-5.23-2.55-12.59-9.42-.35-46.02-1.58-67.63,.25-7.9,.64-50.58,6.3-63.48,8.02-1.45,7.46-2.18,13.14-2.18,13.14Z"/>
    </g>
    <path class="cls-4" d="M318.79,120.07s-71.51-3.28-97.66-.1c-26.15,3.18-69.96,10.08-69.96,10.08l14.11-16.77s37.02-5.66,52.15-7.34c15.13-1.69,83.69-1.46,83.69-1.46l17.67,15.6Z"/>
  </g>
  <g>
    <path class="cls-16" d="M422.85,250.39s4.26,71.63,5.54,79.73c1.28,8.1-5.54,18.33-5.54,18.33,0,0-15.78,1.71-26.44-17.91l-6.82-15.35s3.95-14.84,1.39-37.86c-2.56-23.02-1.39-36.33-1.39-36.33l33.26,9.38Z"/>
    <g>
      <path class="cls-8" d="M403.71,150.55c1.87,17.29,1.63,32.24-6.89,35.29-.71,.26-6.43,.48-7.19,.56-9.8,1.06-19.39-13.27-21.42-32.01-2.03-18.74,4.28-34.79,14.08-35.85,.92-.1,6.15-.85,7.06-.69,8.79,1.57,12.53,15.72,14.37,32.7Z"/>
      <path class="cls-16" d="M430.95,212.44s7.19,2.39,5.89,9.33c-1.3,6.94-5.89,19.24-5.89,19.24l-8.93,9.9-32.43-9.9s-2.43-4.27-2.21-9.7c.22-5.42-.01-18.87-.01-18.87,0,0,4.57-5.64,5.87-12.36,1.09-5.61,1.87-12.12,2.1-14.13,.04-.35,.37-.59,.71-.51,1.45,.31,4.94,1.5,6.3,5.75,1.74,5.42,1.3,6.94,1.3,6.94l27.3,14.32Z"/>
      <polygon class="cls-5" points="405.17 189.34 400.53 181.94 395.67 185.69 404.69 203.52 407.15 196.04 405.17 189.34"/>
      <path class="cls-16" d="M405.17,189.34s5.07-7.66,9.78-4.01,3.62,5.82,0,12.53c0,0,9.24-1.27,7.06,8.51,0,0,9.16-1.8,8.93,6.07,0,0,7.56,6.24,4.3,10.95-3.26,4.71-15.76,13.77-19.2,12.68-3.44-1.09-3.86-5.8-3.86-5.8,0,0-4.11-1.45-5.37-3.44s.36-5.07,.36-5.07c0,0-3.62-3.13-4.53-4.01s0-5.41,0-5.41l4.89-5.62s-7.06,3.8-8.7,2.72c-1.63-1.09-3.44-1.99-1.99-4.35,1.45-2.35,6.85-7.8,6.85-7.8l1.48-7.95Z"/>
      <path class="cls-14" d="M412.96,230.76c-.09-.09,.81-1.21,2.16-3.12,1.36-1.87,3.28-4.63,6.25-6.77,2.91-2.13,5.59-3.88,7.2-5.54,1.65-1.61,2.23-2.96,2.37-2.89,.09,.02-.31,1.51-1.91,3.32-1.56,1.84-4.27,3.72-7.12,5.81-2.87,2.06-4.78,4.65-6.29,6.45-1.49,1.82-2.57,2.82-2.65,2.74Z"/>
      <path class="cls-14" d="M407.15,223.15c-.19-.16,2.91-4.13,6.92-8.86,2.02-2.33,3.72-4.58,5.24-6,1.48-1.44,2.66-2.02,2.71-1.93,.07,.11-.94,.85-2.26,2.36-1.35,1.48-2.97,3.77-5.01,6.13-4.01,4.73-7.41,8.44-7.6,8.29Z"/>
      <path class="cls-14" d="M407.53,206.73c-.19-.21,1.77-2.05,3.92-4.48,2.19-2.41,3.15-4.87,3.38-4.8,.26,.03-.42,2.85-2.71,5.38-2.24,2.52-4.45,4.05-4.59,3.9Z"/>
      <path class="cls-14" d="M394.5,216.02c.02-.09,1.29,.15,3.02,1.24,1.73,1.07,3.81,3.08,5.39,5.74,1.59,2.66,2.49,5.31,3.08,7.22,.58,1.91,.84,3.12,.73,3.16-.12,.04-.59-1.1-1.32-2.95-.73-1.84-1.72-4.4-3.24-6.97-1.53-2.56-3.42-4.53-4.99-5.68-1.56-1.17-2.72-1.62-2.67-1.76Z"/>
      <path class="cls-5" d="M407.57,150.18c2.03,18.74-3.11,34.67-11.47,35.57-8.37,.91-16.79-13.55-18.82-32.29-2.03-18.74,3.11-34.67,11.47-35.57,8.37-.91,16.79,13.55,18.82,32.29Z"/>
      <path class="cls-15" d="M393.02,185.31c7.84-3.93,12.51-18.34,10.73-34.85-1.78-16.42-9.36-29.45-17.8-31.72-6.65,3.79-10.42,18.11-8.64,34.63,1.78,16.41,8.46,29.53,15.71,31.94Z"/>
      <path class="cls-2" d="M393.38,171.82c-.24,.01-.87-7.17-1.4-16.06-.53-8.88-.76-16.1-.51-16.11,.24-.01,.87,7.17,1.4,16.06,.53,8.88,.76,16.09,.51,16.11Z"/>
      <path class="cls-2" d="M390.46,160.99c-.12,.02-.47-1.69-.87-4.47-.4-2.78-.81-6.64-1.04-10.92-.23-4.28-.24-8.16-.15-10.97,.09-2.81,.26-4.54,.38-4.53,.13,0,.18,1.74,.25,4.54,.07,2.8,.18,6.66,.41,10.92,.23,4.26,.54,8.11,.78,10.9,.23,2.79,.37,4.52,.25,4.54Z"/>
      <path class="cls-14" d="M405.17,189.32s0,.19-.05,.54c-.06,.4-.14,.91-.24,1.55-.24,1.42-.58,3.39-1.01,5.91v.06s-.05,.04-.05,.04c-.99,1.03-2.1,2.22-3.3,3.55-1.16,1.34-2.57,2.8-3.6,4.56-.22,.44-.38,.93-.29,1.38,.09,.45,.4,.85,.82,1.19,.41,.35,.9,.65,1.4,.97,.41,.3,.92,.25,1.5,.17,2.29-.47,4.65-1.62,7.01-2.84l1.66-.85-1.22,1.41c-1.54,1.78-3.18,3.67-4.87,5.63l.07-.12c-.54,1.7-.79,3.82,.18,5.42,1.06,1.57,2.82,2.83,4.56,3.93l.38,.24-.26,.37c-1.04,1.47-1.68,3.7-.05,4.91,1.47,1.29,3.41,2.21,5.32,3.02l-.6,.4v-.1s0-.05,0-.03h0c.12,.13-.27-.28,.29,.36,1.15-.67,.33-.26,.58-.38h0s0,0,0,0v.2s.05,.43,.05,.43c.04,.29,.09,.58,.15,.87,.13,.57,.33,1.13,.6,1.64,.27,.51,.63,.97,1.06,1.33,.44,.35,.96,.66,1.44,.67,1.1,.03,2.32-.47,3.45-.99,1.14-.53,2.26-1.17,3.35-1.86,2.07-1.3,4.03-2.75,5.88-4.27,1.83-1.53,3.61-3.13,5.05-4.91,.74-.88,1.19-1.83,1.17-2.91,0-1.06-.34-2.11-.83-3.08-1-1.94-2.52-3.6-4.1-5l-.14-.13v-.21c-.04-1.05-.09-2.14-.58-3.02-.44-.9-1.17-1.61-2.05-2.05-1.79-.88-3.94-.89-5.81-.61l-.53,.08,.08-.54c.09-.59,.21-1.18,.28-1.76-.01-.58,.1-1.17-.01-1.72-.06-1.13-.51-2.17-1.21-2.94-1.45-1.55-3.79-1.86-5.71-1.7l-.62,.05,.29-.53c.97-1.78,1.91-3.46,2.58-5.13,.32-.83,.55-1.67,.56-2.48,.01-.81-.25-1.56-.67-2.21-.87-1.24-2.06-2.3-3.18-2.92-1.19-.6-2.48-.46-3.5-.06-2.06,.85-3.28,2.23-4.09,3.06-.41,.44-.69,.79-.89,1.03-.19,.24-.29,.35-.31,.35-.02,0,.06-.15,.23-.41,.17-.25,.43-.63,.82-1.09,.38-.46,.88-1.02,1.54-1.61,.65-.59,1.48-1.22,2.56-1.67,1.06-.45,2.49-.64,3.83,0,.31,.19,.62,.38,.94,.58,.28,.23,.57,.46,.87,.7,.56,.52,1.16,1.05,1.62,1.76,.47,.7,.79,1.57,.79,2.49,0,.91-.24,1.82-.56,2.69-.68,1.74-1.61,3.44-2.55,5.23l-.33-.48c1.08-.12,2.17-.06,3.27,.19,1.09,.26,2.21,.77,3.04,1.67,.83,.89,1.35,2.11,1.42,3.34,.12,.62,.01,1.23,.02,1.86-.07,.62-.19,1.23-.28,1.86l-.45-.46c2.04-.31,4.25-.34,6.32,.65,1.02,.5,1.91,1.35,2.43,2.41,.57,1.05,.63,2.25,.67,3.41l-.15-.33c1.68,1.48,3.23,3.15,4.33,5.25,.53,1.04,.94,2.22,.94,3.48,0,.63-.15,1.25-.36,1.86-.29,.57-.6,1.13-.99,1.58-1.51,1.88-3.31,3.48-5.17,5.05-1.88,1.55-3.86,3.01-5.97,4.34-1.12,.7-2.26,1.36-3.45,1.91-1.2,.53-2.41,1.09-3.88,1.06-1.57-.2-2.57-1.31-3.22-2.47-.31-.59-.53-1.22-.68-1.86-.07-.32-.13-.64-.17-.96l-.04-.49v-.26s0-.05,0-.05h0c.25-.13-.57,.27,.58-.4,.56,.64,.17,.23,.29,.36v.04s0,.09,0,.09v.13s0,.65,0,.65l-.59-.25c-2-.86-3.93-1.76-5.58-3.2-.4-.38-.79-.81-1.02-1.37-.23-.55-.28-1.15-.22-1.71,.14-1.12,.6-2.08,1.21-2.96l.12,.61c-1.83-1.17-3.59-2.4-4.82-4.22-.59-.96-.78-2.07-.75-3.11,.02-1.05,.21-2.03,.53-3l.02-.06,.05-.06c1.71-1.95,3.36-3.83,4.91-5.6l.44,.55c-2.43,1.22-4.76,2.36-7.24,2.84-.59,.09-1.38,.14-1.95-.28-.49-.33-.99-.64-1.45-1.03-.46-.38-.89-.9-1.01-1.55-.11-.65,.11-1.25,.36-1.74,1.15-1.9,2.55-3.27,3.75-4.62,1.23-1.32,2.36-2.48,3.38-3.5l-.05,.1c.51-2.51,.91-4.48,1.2-5.9,.14-.62,.25-1.12,.33-1.52,.08-.34,.13-.51,.14-.5Z"/>
    </g>
  </g>
  <path class="cls-6" d="M428.53,332.9s3.91,7.05,3.91,13.71-3.89,18.31-3.89,18.31l-4.85,4.58s.06,19.7-18.39,23.86c-18.44,4.16-118.57-60.32-118.57-60.32l-2.88-78.82s14.98,6.24,25.8,17.06c10.82,10.82,72.41,56.18,72.41,56.18,0,0,2.5-16.07,5.28-15.01,2.77,1.06,41.17,20.44,41.17,20.44Z"/>
  <path class="cls-11" d="M395.19,350.73c-.07,.08-1.29-.94-2.98-2.85-1.7-1.9-3.83-4.74-5.7-8.16-1.87-3.43-3.1-6.76-3.78-9.21-.68-2.46-.88-4.03-.78-4.05,.28-.08,1.62,6.1,5.34,12.84,3.66,6.77,8.12,11.24,7.91,11.43Z"/>
  <path class="cls-11" d="M393.72,347.53s-.31-.28-.75-.87c-.45-.58-1.02-1.49-1.64-2.65-1.25-2.32-2.52-5.82-2.95-9.85-.41-4.03,.12-7.72,.86-10.25,.37-1.27,.74-2.27,1.06-2.93,.31-.67,.51-1.02,.56-1,.13,.05-.49,1.55-1.08,4.08-.59,2.52-1.01,6.1-.61,10.03,.42,3.92,1.57,7.34,2.66,9.68,1.09,2.35,2.01,3.69,1.89,3.77Z"/>
  <g class="cls-3">
    <path class="cls-4" d="M411.67,360.13c-2.04-1.69-6.56-2.75-8.89-4.02-10.58-5.75-16.19-16.27-20.31-27.58l-.36-1.27c.42,15.17,10.04,31.37,23.87,37.59,1.43,.64,2.99,1.21,4.54,.96,1.55-.26,3.02-1.63,2.83-3.19-.12-1.02-.88-1.85-1.68-2.5Z"/>
  </g>
  <g>
    <path class="cls-12" d="M211.29,888.95v37.71s8.93,21.52,15.41,25.22c0,0,7.88,5.84,1.23,9.16h-74.31s-4.44,0-5.55-6.65v-59.89l63.22-5.55Z"/>
    <line class="cls-9" x1="200.75" y1="920.94" x2="190.77" y2="920.94"/>
    <line class="cls-9" x1="200.75" y1="927.96" x2="190.77" y2="927.96"/>
    <line class="cls-9" x1="200.98" y1="935.16" x2="191" y2="935.16"/>
  </g>
  <g>
    <path class="cls-12" d="M320.44,888.95v37.71s8.93,21.52,15.41,25.22c0,0,7.88,5.84,1.23,9.16h-74.31s-4.44,0-5.55-6.65v-59.89l63.22-5.55Z"/>
    <line class="cls-9" x1="309.9" y1="920.94" x2="299.92" y2="920.94"/>
    <line class="cls-9" x1="309.9" y1="927.96" x2="299.92" y2="927.96"/>
    <line class="cls-9" x1="310.13" y1="935.16" x2="300.15" y2="935.16"/>
  </g>
  <path class="cls-17" d="M154.54,474.81s-13.94,31.62-14.2,63.54c-.1,12.35-5.65,382.33-5.65,382.33h81.46l6.67-337.62,5.18,1.5s22.05,139.18,22.8,161.45c.67,20.01-7.34,174.68-7.34,174.68h82.71l-.44-193.64-4.27-184.31-7.19-66.26-159.73-1.66Z"/>
  <path class="cls-6" d="M195.36,239.42c12.66,31.98,55.93,61.13,55.93,61.13,0,0,5.59-26.91,5.64-45.49l-.71-15.21s25.62-1.7,42.04,8.69c16.42,10.38,24.43,33.39,30.04,109.95,5.61,76.56,12.57,318.38,12.57,318.38,0,0-27.44,26.95-67.6,37.61l-12.67-64.06-7.13,65.83s-66.49,17.35-143.36-22.48c1.81-75.95,7.41-218.78,14.56-264.56,7.15-45.78,2.82-64.77,2.35-96.27-.78-51.89,1.46-74.13,1.46-74.13l66.89-19.38Z"/>
  <g class="cls-10">
    <path class="cls-18" d="M251.76,301.96c17.85,96.61,8.07,250.74,8.83,348.45-5.81-97.38,3.96-251.57-8.83-348.45h0Z"/>
  </g>
  <path class="cls-4" d="M251.28,300.55l30.65,91.48s69.36-40.51,84.4-81.73c0,0-18.65-10.82-31.28-36.89-10.42-21.5-27.39-25.58-41.71-29.39-17.36-4.61-37.8-4.19-37.8-4.19l-4.26,60.71Z"/>
  <path class="cls-16" d="M117.98,481.24c-1.19-2.96-29.4-62.45-29.4-62.45l30.1-53.61,2.32-80.76s-16.49,10.85-18.11,12.58c-7.26,7.77-54.8,99.14-58.3,105.5-5.51,10.03-1.24,28.29,3.86,34.36,6.06,7.21,41.75,61.91,41.75,61.91l27.77-17.54Z"/>
  <path class="cls-16" d="M110.34,464.65s1.5,3.33,9.49,6.41c0,0,5.68,9.89,7.96,12.6,2.27,2.72,25.38,23.59,24.76,27.4-.49,3.04-1.99,3.58-7.8,.12-5.81-3.46-12.92-11.97-16.71-11.73-3.79,.25,12.3,21.63,12.06,28.07-.18,4.76-4.74,5.01-4.74,5.01,0,0-1.48,5.46-5.87,3.73-4.38-1.73-23.44-30.39-21.92-26.69,1.52,3.7,4.8,11.36,6.57,14.32,1.77,2.96,10.61,12.17,6.57,13.86-4.04,1.69-6.32-1.77-9.85-5.47-3.54-3.7-16.42-23.21-17.18-23.45s-10.61-13.08-14.91-26.17l31.57-18.02Z"/>
  <path class="cls-6" d="M108.11,441.31l-36.35,31.89-16.19-18.07,3.31-3.73s-22.45-14.45-22.64-26.51c-.19-12.06,17.69-45.28,17.69-45.28,0,0,37.13-81.08,50.47-90.89,1.87-1.37,24.24,38.49,26.21,54.92,1.96,16.43-1.32,16.83-1.32,16.83,0,0-12.35,15.23-17.45,28.34-5.1,13.11-14.66,27.87-21.47,33.68l17.76,18.81Z"/>
  <path class="cls-18" d="M67.05,415.46c0-.05,.37-.13,1.05-.23,.68-.11,1.69-.18,2.93-.19,2.48-.02,5.94,.41,9.53,1.69,3.59,1.29,6.54,3.13,8.48,4.67,1.95,1.54,2.95,2.71,2.89,2.77-.16,.23-4.56-4.22-11.63-6.72-3.5-1.25-6.85-1.75-9.29-1.87-2.44-.13-3.96,0-3.97-.12Z"/>
  <path class="cls-18" d="M77.53,400.64c.04-.07,1.38,.61,3.24,2.15,1.86,1.53,4.17,4.01,6.04,7.21,1.86,3.21,2.87,6.44,3.3,8.81,.43,2.38,.38,3.88,.3,3.88-.13,.01-.27-1.46-.83-3.77-.55-2.3-1.63-5.41-3.43-8.54-1.82-3.12-4-5.58-5.73-7.19-1.73-1.61-2.96-2.45-2.88-2.56Z"/>
  <path class="cls-18" d="M92.28,428.13c.01,.13-2,.31-5.18,.98-3.17,.66-7.49,1.94-11.96,4.05-4.47,2.12-8.22,4.61-10.83,6.53-2.61,1.93-4.14,3.24-4.23,3.15-.04-.04,.31-.41,.97-1.04,.65-.64,1.65-1.51,2.93-2.54,2.55-2.05,6.3-4.65,10.83-6.8,4.54-2.14,8.95-3.36,12.18-3.89,1.62-.27,2.94-.42,3.85-.45,.92-.05,1.42-.05,1.42,0Z"/>
  <g class="cls-3">
    <path class="cls-4" d="M91.48,429.28c-6.89-.46-13.93,1.81-19.25,6.21-.39,.32-.81,.79-.65,1.27,.13,.36,.56,.54,.94,.5,.38-.04,.72-.24,1.05-.44,5.52-3.3,11.77-5.81,17.91-7.71"/>
  </g>
  <path class="cls-17" d="M135.08,532.34c-.52,.33-5.04-5.76-10.11-13.61-5.07-7.85-8.76-14.49-8.24-14.82,.52-.33,5.04,5.76,10.11,13.61,5.07,7.85,8.76,14.49,8.24,14.82Z"/>
  <circle class="cls-4" cx="240.92" cy="448.71" r="5.93"/>
  <circle class="cls-4" cx="240.92" cy="485.65" r="5.93"/>
  <circle class="cls-4" cx="240.92" cy="522.59" r="5.93"/>
  <path class="cls-4" d="M251.28,300.55l-15.03,94.03s-83.23,12.85-157.48-77.3c0,0,12.41-24.18,22.99-41.84,10.58-17.66,15.37-17.86,32.25-22.51,13.29-3.66,61.34-13.52,61.34-13.52,16.72,25.26,30.95,46.32,55.93,61.13Z"/>
</svg>