<?xml version="1.0" encoding="UTF-8"?>
<svg id="Capa_1" data-name="Capa 1" xmlns="http://www.w3.org/2000/svg" xmlns:xlink="http://www.w3.org/1999/xlink" viewBox="0 0 1261.44 1287.36">
  <defs>
    <style>
      .cls-1 {
        fill: #55917b;
      }

      .cls-2 {
        fill: #cbcaca;
      }

      .cls-3 {
        opacity: .7;
      }

      .cls-4, .cls-5 {
        fill: #fff;
      }

      .cls-6 {
        fill: #abdaf3;
      }

      .cls-7 {
        fill: #a2d0e9;
      }

      .cls-8 {
        filter: url(#drop-shadow-1);
      }

      .cls-9 {
        fill: none;
        stroke: #eeeae4;
        stroke-width: 1.4px;
      }

      .cls-9, .cls-5 {
        stroke-miterlimit: 10;
      }

      .cls-10 {
        opacity: .3;
      }

      .cls-11 {
        fill: #192e35;
      }

      .cls-5 {
        stroke: #3f5763;
        stroke-width: .25px;
      }

      .cls-12 {
        fill: #1b2444;
      }

      .cls-13 {
        fill: #1b2545;
      }

      .cls-14 {
        fill: #6f4539;
      }

      .cls-15 {
        fill: #f6f2eb;
      }

      .cls-16 {
        fill: #cfbcdb;
      }

      .cls-17 {
        fill: #6a97b0;
      }

      .cls-18 {
        fill: #1d2441;
      }

      .cls-19 {
        fill: #70b39b;
      }

      .cls-20 {
        fill: #010101;
      }
    </style>
    <filter id="drop-shadow-1" filterUnits="userSpaceOnUse">
      <feOffset dx="4" dy="5"/>
      <feGaussianBlur result="blur" stdDeviation="6"/>
      <feFlood flood-color="#6d7376" flood-opacity=".75"/>
      <feComposite in2="blur" operator="in"/>
      <feComposite in="SourceGraphic"/>
    </filter>
  </defs>
  <rect class="cls-15" x="475.09" y="699.51" width="364" height="10"/>
  <g class="cls-8">
    <g>
      <path class="cls-13" d="M747.75,1072.49v40.77s-9.66,23.26-16.66,27.26c0,0-8.52,6.31-1.33,9.91h80.33s4.8,0,5.99-7.19v-64.75l-68.34-5.99Z"/>
      <line class="cls-9" x1="759.14" y1="1107.07" x2="769.93" y2="1107.07"/>
      <line class="cls-9" x1="759.14" y1="1114.66" x2="769.93" y2="1114.66"/>
      <line class="cls-9" x1="758.89" y1="1122.45" x2="769.68" y2="1122.45"/>
    </g>
    <g>
      <path class="cls-13" d="M629.75,1072.49v40.77s-9.66,23.26-16.66,27.26c0,0-8.52,6.31-1.33,9.91h80.33s4.8,0,5.99-7.19v-64.75l-68.34-5.99Z"/>
      <line class="cls-9" x1="641.14" y1="1107.07" x2="651.93" y2="1107.07"/>
      <line class="cls-9" x1="641.14" y1="1114.66" x2="651.93" y2="1114.66"/>
      <line class="cls-9" x1="640.89" y1="1122.45" x2="651.68" y2="1122.45"/>
    </g>
    <path class="cls-18" d="M594.57,566.54s-11.71,41.02-8.65,80.76c1.18,15.37,31.17,445.22,31.17,445.22h88l-25.76-399.54,5.74,1.24s38.24,170.5,41.36,198.11c2.8,24.81,9.67,205.19,9.67,205.19l89.44,.62-20.46-238.44-23.8-228.79-8.96-66.6-177.74,2.22Z"/>
    <g id="OYJhNN">
      <g>
        <path class="cls-16" d="M637.4,269.85c-3.18-1.32-6.48-2.33-9.46-4.14-11.7-7.09-18.8-17.26-20.8-30.89-.49-3.33-.35-6.66-.19-9.98,.05-.95-.17-1.45-.87-2.04-4.93-4.15-8.4-9.22-9.65-15.65-1.22-6.28,2.03-11.2,8.22-12.55,.92-.2,1.73,.09,2.59,.09,.23-.21,.51-.34,.8-.29,1.25,.21,1.41-.52,1.52-1.54,.46-4.36,.7-8.74,1.38-13.08,.08-.52,.2-1.03,.3-1.55,.2-1.03,.74-1.51,1.84-1.39,2.51,.28,5.03,.12,7.54,.13,12.06,.05,23.55-2.71,34.59-7.4,7.5-3.19,14.67-7,21.28-11.81,.38-.28,.78-.52,1.18-.76,.99-.58,1.51-.28,1.67,.84,.26,1.85,.39,3.73,.76,5.56,2.56,13.02,9.69,22.48,21.92,27.88,1.47,.65,1.99,1.52,1.99,3.07-.01,3.84,.03,3.77,3.73,3,2.9-.6,5.79-1.45,8.81-1.26,7.81,.05,12.23,6.33,9.9,14.38-2.35,8.14-7.42,14.09-15.22,17.54-1,.44-1.56,.98-1.91,2.02-1.33,3.88-2.96,7.67-5.3,11.04-1.39,2.01-1.54,3.94-1.18,6.23,1.81,11.7,3.51,23.41,5.26,35.11,.99,6.63,.94,6.64,2,13.26,.25,1.57,.43,5.07-.19,6.78-11.55,8.45-17.25,8.45-17.25,8.45l-25.62,11.39c-11.39-8.54-14.23-5.69-19.92-8.54-.78,.12-3.67-4.62-3.8-5.5-1.23-8.6-1.75-11.94-3.02-20.53,.39-.71,1.13-.79,1.79-.97,9.86-2.71,18.56-7.6,26.38-14.12,1.98-1.65,3.65-3.62,5.57-5.36,.2-.09-.17-.28,0-.12,.03,.03,0,.08-.12,.12-4.99,2.12-10.2,3.39-15.56,4.05-5.65,.7-11.3,.68-16.93-.29-1.38-.24-2.78-.43-4.01-1.18Z"/>
        <path class="cls-12" d="M716.19,196.94c-2.88,.95-5.94,.98-8.86,1.78-1.07,.29-2.16,.47-3.24,.72-.75,.18-1.07-.04-1.03-.85,.05-1.17-.12-2.36,.05-3.51,.21-1.47-.52-1.95-1.71-2.48-12.47-5.6-19.76-15.25-22.2-28.64-.36-1.99-.55-4.01-.84-6.19-3.62,2.48-7.2,4.87-10.94,7-10.85,6.18-22.31,10.6-34.69,12.62-6.78,1.11-13.57,1.22-20.39,.74-.85-.06-.78,.35-.9,.88-.79,3.59-.92,7.26-1.36,10.9-.2,1.67-.3,3.36-.38,5.05-.04,.92-.54,1.07-1.28,.93-.51-.1-1.02-.23-1.53-.35-1.97-4.73-1.48-9.71-1.44-14.64,0-1.14-.33-2.32,.16-3.46,.24-.54-.24-.69-.61-.87-4.4-2.05-4.63-5.93-3.03-9.63,1.89-4.4,5.08-7.85,8.64-10.93,11.71-10.15,25.25-16.61,40.53-19.1,12.58-2.05,24.57-.34,35.74,6.4,3.63,2.19,7.75,3.6,11.26,6.12,9.84,7.05,16.65,16.04,18.25,28.39,.11,.81,.11,1.63,.16,2.45,.33,1.57-.11,3.17,.25,4.73-.17,3.98-.07,7.97-.6,11.93Z"/>
        <path class="cls-12" d="M637.42,270.32c2.38,.15,4.67,.89,7.05,1.13,10.4,1.06,20.4-.46,30.06-4.38,.2-.08,.42-.12,1.09-.3-9.95,10.76-21.53,17.91-35.32,21.42-.96-5.96-1.93-11.91-2.89-17.87Z"/>
        <path class="cls-12" d="M647.94,241.73c-1.29,.05-1.97-.65-2.21-1.82-.24-1.16,.34-1.96,1.38-2.33,.81-.29,1.71-.34,2.55-.57,3.49-.94,6.69-2.41,9.35-4.94,1.2-1.14,2.72-1.28,3.58-.4,1.04,1.07,.87,2.34-.56,3.63-4.03,3.61-8.75,5.7-14.09,6.44Z"/>
        <path class="cls-12" d="M627.55,209.68c2.21,0,3.86,1.7,3.82,3.9-.04,2.08-1.77,3.81-3.8,3.79-2.08-.02-3.95-1.92-3.88-3.96,.07-2.06,1.81-3.74,3.87-3.73Z"/>
        <path class="cls-12" d="M670.45,211.81c2.19-.04,3.99,1.68,3.98,3.79-.02,2.02-1.76,3.83-3.77,3.91-2.1,.09-3.89-1.69-3.9-3.87,0-2.18,1.55-3.79,3.69-3.83Z"/>
        <path class="cls-12" d="M626.23,192.44c1.64-.05,3.25,.21,4.85,.58,1.5,.34,2.02,1.37,1.7,2.75-.32,1.4-1.44,1.77-2.71,1.54-1.9-.35-3.79-.64-5.73-.59-1.51,.04-2.36-.84-2.35-2.24,0-1.36,.92-2.07,2.32-2.04,.64,.01,1.28,0,1.92,0Z"/>
        <path class="cls-12" d="M673.39,199.5c-2.08-.5-4.28-.63-6.5-.71-1.25-.05-1.83-.92-1.87-2.12-.04-1.18,.65-1.93,1.73-2.05,2.57-.27,5.13-.09,7.62,.62,1.19,.34,1.64,1.28,1.54,2.43-.1,1.07-1.24,1.87-2.52,1.83Z"/>
      </g>
    </g>
    <path class="cls-15" d="M676.26,102.51c1.3,.23,32.74,8.7,40.32,33.25,7.58,24.55,5.17,31.92,5.17,31.92,0,0,1.81,1.21,3.25,3.04,1.29,1.64-.72,9.22-4.83,8.21-30.62-15.17-67.05-17.87-107.68-18l-23.9-1.42c-8.72,.74-9.31-3.64-5.61-5.77,2.84-1.63,18.05-9.2,18.05-9.2l4.9-3.49,13.08-17.95s-1.55-2.62,1.61-4.64c3.17-2.02,29.96-20.57,55.63-15.96Z"/>
    <path d="M605.93,141.06s.42,.04,1.21,.05c.95,.01,2.09,.03,3.47,.04,3.01-.03,7.38,.16,12.76,.48,10.75,.75,25.62,2.64,41.65,6.79,16.06,4.04,30.23,9.16,40.42,13.01,5.1,1.92,9.2,3.56,12.03,4.67,1.3,.51,2.38,.93,3.27,1.28,.75,.29,1.15,.41,1.15,.41,0,0-.38-.19-1.12-.51-.88-.37-1.95-.83-3.24-1.37-2.82-1.17-6.9-2.87-11.98-4.83-10.16-3.95-24.34-9.13-40.43-13.18-16.06-4.16-30.97-5.99-41.75-6.65-10.79-.59-17.46-.19-17.46-.19Z"/>
    <path class="cls-2" d="M704.87,117.83s-33.91-6.87-49.22,.16c.59-.29,1.19-.57,1.78-.86-4.82,2.01-9.64,4.02-14.46,6.03-2.44,1.02-5.3,2.02-7.63,.66,0,0,7.77-6.86,22.05-11.33,14.28-4.47,36.88-5.82,47.49,5.34Z"/>
    <path d="M705.36,118.04s-1-.89-3.02-2.17c-2.02-1.27-5.05-2.97-9.07-4.35-4-1.41-8.97-2.47-14.53-2.67-5.53-.2-11.76,.38-17.68,2.95-2.96,1.24-5.68,2.79-8.29,4.3-2.58,1.55-5.14,2.91-7.46,4.46-2.3,1.55-4.42,3.12-6.65,4.09-2.21,1.08-4.5,1.17-6.58,1.14-8.35-.17-13.46-2.14-13.07-2.67,0-.02,.09,.37,.66,.7,.55,.31,1.41,.69,2.55,.98,2.28,.61,5.66,1.23,9.86,1.37,2.07,.06,4.5-.02,6.76-1.11,2.3-.97,4.45-2.56,6.74-4.08,2.29-1.52,4.87-2.88,7.45-4.42,2.61-1.49,5.31-3.04,8.23-4.26,5.83-2.53,11.97-3.12,17.47-2.95,5.51,.16,10.45,1.18,14.43,2.53,4,1.32,7.04,2.95,9.08,4.17,1.02,.61,1.79,1.12,2.31,1.48,.52,.35,.81,.51,.81,.51Z"/>
    <g class="cls-10">
      <path d="M719.41,146c-6.09-.26-10.69-2.05-16.72-3.63-6.43-1.68-12.8-3.06-19.14-5.05-4.82-1.51-10.52-2.92-13.63-6.64-.49,2.59,.24,4.99,2.07,6.89,1.83,1.9,7.81,4.3,10.27,5.08,14.06,4.47,23.81,7.48,38.44,9.04-.11-1.56-1.29-5.69-1.29-5.69"/>
    </g>
    <path class="cls-2" d="M715.63,133.08c3.84,1.86,6.19,3.11,6.26,6.51,.06,2.83-.54,6.27-3.24,6.67-.82,.12-1.66-.08-2.48-.28-13.98-3.41-27.96-6.82-41.94-10.22-1.42-.35-2.96-.77-3.84-1.98-1.36-1.86-.33-4.69,1.53-5.92,1.86-1.23,4.22-1.29,6.46-1.25,12.68,.2,25.01,2.8,37.26,6.47"/>
    <path d="M671.02,134.44c.07-.05-.73-.5-1.11-1.93-.36-1.34-.16-3.8,1.79-5.42,2-1.51,5.16-1.93,8.48-1.64,3.37,.29,7.08,.66,10.95,1.19,7.76,1.03,14.69,2.65,19.58,4.28,2.45,.79,4.4,1.56,5.74,2.09,.55,.23,1.06,.44,1.54,.64,.35,.14,.54,.21,.55,.19,0-.02-.17-.12-.51-.29-.47-.23-.97-.47-1.51-.73-1.32-.6-3.26-1.42-5.71-2.26-4.88-1.74-11.85-3.43-19.63-4.46-3.89-.53-7.6-.89-10.99-1.15-3.38-.27-6.62,.17-8.74,1.83-2.07,1.79-2.19,4.39-1.76,5.78,.22,.73,.57,1.22,.84,1.51,.29,.27,.46,.38,.46,.37Z"/>
    <polygon class="cls-5" points="614.91 128.75 641.37 129.09 639.04 136.72 610.28 135.09 614.91 128.75"/>
    <path class="cls-16" d="M564.55,539.58c-1.12-3.27-28.11-69.13-28.11-69.13l35.61-56.12,7.2-87.05s-18.43,10.75-20.28,12.53c-8.29,7.97-64.92,103.84-69.06,110.51-6.53,10.51-2.98,30.47,2.17,37.32,6.13,8.14,41.47,69.27,41.47,69.27l31-17.32Z"/>
    <path class="cls-19" d="M724.47,580.87s-38.24,15.09-70.48,15.09c-68.07,0-60.38-16.71-60.38-16.71l-20.6-168.83,5.2-102.55,51.64-10.29,4.52-9.59,4.21,.15h74l5.38,9.77,55.46,19.39-48.94,263.57Z"/>
    <path class="cls-19" d="M578.2,307.87s-18.73,11.43-22.95,18.42c-4.22,6.99-40.86,72.7-40.86,72.7l47.95,41.03,23.93-38.46-8.07-93.7Z"/>
    <path class="cls-15" d="M576.15,436.24l5.62-129.09,40.07-7.98,39.93,102.7,59.8-102.7,45.55,15.93-11.13,104.29,19.88,171.86s-67.95,37.58-111.63,38.05c-43.67,.47-78.84-20.83-78.84-20.83"/>
    <path class="cls-19" d="M769.81,316.04s19.33,4.21,29.78,31.27c3.88,10.03,13.37,74.31,13.37,74.31l-56.97-2.23,7.49-75.43,6.33-27.92Z"/>
    <g class="cls-3">
      <path class="cls-2" d="M581.73,540.88s53.3,13.38,80.77,13.38,100.44-24.52,100.44-24.52l2.78,16.26s-84.3,46.38-183.99,11.68v-16.81Z"/>
    </g>
    <g class="cls-3">
      <path class="cls-2" d="M581.73,572.54s53.3,13.38,80.77,13.38,100.44-24.52,100.44-24.52l2.78,16.27s-84.3,46.38-183.99,11.68v-16.81Z"/>
    </g>
    <path class="cls-11" d="M667.53,625.11c-.05,0-.17-.77-.34-2.24-.17-1.61-.4-3.76-.69-6.45-.58-5.6-1.3-13.71-2.08-23.75-1.57-20.07-3.23-47.84-4.05-78.55-.81-30.72-.63-58.55-.12-78.67,.25-10.06,.54-18.2,.82-23.83,.14-2.7,.26-4.85,.35-6.47,.1-1.48,.17-2.25,.22-2.25,.05,0,.08,.78,.08,2.26-.02,1.62-.04,3.78-.07,6.48-.08,5.78-.2,13.88-.35,23.83-.24,20.12-.25,47.92,.55,78.61,.82,30.68,2.31,58.44,3.62,78.52,.67,9.92,1.22,18.01,1.61,23.78,.17,2.7,.31,4.85,.41,6.47,.08,1.48,.09,2.26,.04,2.26Z"/>
    <path class="cls-16" d="M756,419.39l-2.92,80.24-47.61,110.18,40.24,12.75s54.8-104.63,57.93-112.36c3.14-7.73,3.79-68.54,4.48-88.77l-52.12-2.04Z"/>
    <path class="cls-16" d="M564.51,537.86s8.58,2.45,17.22,4.24c0,0,1.92,11.65,4.38,14.58,2.46,2.94,27.44,25.51,26.77,29.62-.53,3.29-2.15,3.87-8.43,.13-6.28-3.74-13.96-12.94-18.06-12.68-4.1,.27,13.3,23.39,13.04,30.35-.19,5.15-5.12,5.41-5.12,5.41,0,0-1.61,5.9-6.35,4.03-4.74-1.87-25.34-32.86-23.7-28.85,1.64,4,5.19,12.28,7.1,15.48,1.91,3.2,11.47,13.16,7.1,14.99-4.37,1.83-6.83-1.91-10.65-5.91-3.82-4-17.76-25.09-18.58-25.35s-11.47-14.15-16.12-28.29l31.39-17.75Z"/>
    <path class="cls-18" d="M573.09,580.47c-1,.05,4.69,6.57,10.53,14.59,5.87,8,9.47,15.46,10.68,14.47,1.79,0-3.71-7.22-9.61-15.26-5.86-8.06-10.6-14.75-11.6-13.8Z"/>
    <path class="cls-1" d="M629.21,298.97h91.83s1.33-8.75-7.41-13.12h-76.61s-7.81,0-7.81,13.12Z"/>
  </g>
  <rect class="cls-4" x="444.09" y="698.51" width="425" height="11"/>
  <g>
    <path class="cls-16" d="M744.89,627.38s2.48,9.57,2.98,23.88c.47,13.46-9.15,11.53-9.15,11.53-.1,4.19-4.04,11.94-7.97,14.71-1.29,.91,.89,19.9-2.95,22.49-3.84,2.6-8.26,2.88-8.26-4.04s-.59-21.05-2.95-26.82c-2.36-5.77-5.02-5.19-5.02-5.19,0,0,5.61,41.52,2.07,44.12-3.54,2.6-7.38,3.17-9.15-3.46-1.77-6.63-4.18-34.02-6.51-39.79-2.34-5.77-.27-6.63-2.63-7.21-2.36-.58-8.26,15.54-18.59,18.58-10.33,3.05-10.33-4.45-8.26-7.62,2.07-3.17,9.44-10.09,10.33-15.86,.89-5.77,.59-7.21,4.13-12.4,3.54-5.19,16.82-22.49,18.59-25.66,1.77-3.17,5.41-10.15,5.41-10.15l40.94,14.47-3,8.42Z"/>
    <path class="cls-20" d="M726.75,657.79c-.66-.27,1.05,5.27,2.09,11.74,1.07,6.47,.85,8.99,1.24,8.99,2,0,1.16-2.61,.07-9.2-1.07-6.59-2.07-11.8-3.41-11.53Z"/>
    <path class="cls-20" d="M738.03,650.04c-.34-.15-.53,2.89-.36,6.42,.17,3.53,.61,6.43,.97,6.36,1.46-.3,.53-2.89,.36-6.42-.17-3.53,.1-5.88-.97-6.36Z"/>
  </g>
  <polygon class="cls-6" points="440.29 656.37 440.29 647.53 255.24 647.91 255.09 647.91 255.09 656.5 255.24 656.5 255.24 709.46 455.09 709.46 455.09 656.37 440.29 656.37"/>
  <polygon class="cls-17" points="394.91 709.46 394.91 647.53 440.29 647.53 440.29 656.37 455.09 656.37 455.09 709.46 394.91 709.46"/>
  <path class="cls-17" d="M453.61,675.34c0,.35-44.24,.63-98.8,.63s-98.81-.28-98.81-.63,44.23-.63,98.81-.63,98.8,.28,98.8,.63Z"/>
  <path class="cls-17" d="M455.09,694.32c0,.35-44.57,.63-99.55,.63s-99.55-.28-99.55-.63,44.56-.63,99.55-.63,99.55,.28,99.55,.63Z"/>
  <path class="cls-17" d="M255.09,656.37c0-.35,41.46-.63,92.59-.63s92.6,.28,92.6,.63-41.45,.63-92.6,.63-92.59-.28-92.59-.63Z"/>
  <polygon class="cls-6" points="439.29 601.37 439.29 592.53 254.24 592.91 243.55 592.91 243.55 601.5 254.24 601.5 254.24 654.46 454.09 654.46 454.09 601.37 439.29 601.37"/>
  <polygon class="cls-17" points="393.91 654.46 393.91 592.53 439.29 592.53 439.29 601.37 454.09 601.37 454.09 654.46 393.91 654.46"/>
  <path class="cls-7" d="M439.29,592.53c0,.35-43.44,.63-97.02,.63s-97.03-.28-97.03-.63,43.43-.63,97.03-.63,97.02,.28,97.02,.63Z"/>
  <path class="cls-17" d="M452.61,620.34c0,.35-44.24,.63-98.8,.63s-98.81-.28-98.81-.63,44.23-.63,98.81-.63,98.8,.28,98.8,.63Z"/>
  <path class="cls-17" d="M454.09,639.32c0,.35-44.57,.63-99.55,.63s-99.55-.28-99.55-.63,44.56-.63,99.55-.63,99.55,.28,99.55,.63Z"/>
  <path class="cls-17" d="M245.23,601.37c0-.35,43.44-.63,97.02-.63s97.03,.28,97.03,.63-43.43,.63-97.03,.63-97.02-.28-97.02-.63Z"/>
  <g>
    <rect class="cls-11" x="307.92" y="736.33" width="28.04" height="414.53"/>
    <rect class="cls-11" x="912.63" y="736.33" width="28.04" height="416.46"/>
    <rect class="cls-14" x="206.42" y="709.81" width="881.1" height="30.22"/>
  </g>
</svg>