<?xml version="1.0" encoding="UTF-8"?>
<svg id="Capa_1" data-name="Capa 1" xmlns="http://www.w3.org/2000/svg" viewBox="0 0 386.68 444.96">
  <defs>
    <style>
      .cls-1 {
        fill: #d3c0df;
      }

      .cls-2 {
        fill: #34b296;
      }

      .cls-3 {
        fill: #1c2545;
      }

      .cls-4 {
        fill: #009579;
      }
    </style>
  </defs>
  <g id="Zv9YI0">
    <g>
      <path class="cls-1" d="M135.71,342.54c-.12-.84-.87-.89-1.45-1.19-6.03-3.13-9.34-8.03-9.49-14.89-.32-15.24-.51-30.49-.93-45.73-.16-5.82-.23-11.63-.35-17.45-.03-1.45-.36-2.73-1.04-4.01-8.43-15.93-16.77-31.91-24.41-48.24-4.07-8.7-8.29-17.35-10.34-26.83-1.52-7.04-2.48-14.18-3.43-21.31-1.29-9.72-2.48-19.45-3.54-29.2-1.08-9.95-1.98-19.93-2.92-29.89-.91-9.64-1.79-19.28-2.68-28.92-.13-1.46-.12-2.95-.41-4.38-.36-1.79,.26-2.5,2.03-2.37,.33,.02,.67-.04,1-.06,1.03-.71,2.24-.83,3.43-.91,11.35-.81,22.68-1.76,34.01-2.78,1.72-.15,3.43-.02,5.13,.23,1.1-.28,1.18,.42,1.25,1.24,1.08,12.44,2.06,24.89,3.28,37.32,1.43,14.55,2.86,29.1,4.68,43.62,1.13,9.07,2.13,18.17,4.03,27.12,1.28,6,4.25,11.36,6.8,16.87,4.83,10.42,10.08,20.64,15.35,30.85,.15,.29,.32,.57,.51,.9,.64-.52,.11-1.18,.38-1.68,1.04,.2,.82,1.1,.86,1.74,.1,1.81,1.1,2.47,2.75,2.32,3.63-.34,7.27-.48,10.92-.37,5.74-.21,11.47-.49,17.22-.51,3.79-.01,7.58-.66,11.39-.14,1.22,.47,1.26,1.59,1.47,2.64,1.29,6.4,3.65,12.25,8.33,17.03,2.77,2.83,6.04,3.31,9.59,2.3,8.15-2.32,12.76-9.78,11.79-18.8-.08-.77-.48-1.58,.24-2.27,16.75,12.31,33,25.24,48.38,39.25,7.28,6.62,14.29,13.5,20.41,21.23,5.53,6.98,10.19,14.43,11.65,23.42,1.31,8.07,.81,16.11-.84,24.1-3.4,16.45-9.81,31.83-16.83,46.98-1.37,2.97-2.96,5.83-4.33,8.8-.67,1.46-1.37,2.01-2.8,.9-.57-.44-1.29-.7-1.94-1.03-.91,.02-1.68-.39-2.44-.8-10.15-5.47-20.34-10.85-30.44-16.41-.57-.32-1.24-.53-1.57-1.18-1.07-1.09-3.04-2.61-2.32-4.86,6.82-13.59,13.01-27.41,16.22-42.39,.73-3.4,.22-6.15-2.2-8.83-4.48-4.97-8.94-9.94-14.04-14.28-.25-.21-.48-.47-.88-.44-.47,.65-.25,1.41-.27,2.12-.33,9.79,.66,19.48,2.16,29.14,.42,2.7,.74,5.43,.65,8.18-.13,4.03-1.02,5.08-5.11,5.81-.47-.06-.92-.17-1.39-.17-14.16-.17-28.33,.08-42.49-.18-19.12-.35-38.23-.29-57.35-.39-2.59-.01-5.21-.16-7.68-1.16Z"/>
      <path class="cls-4" d="M248.75,364.89c-.42,.97-.89,1.93-1.25,2.93-.21,.57-.59,.66-1.08,.66-.53,0-1.07,0-1.6,0-36.78,0-73.55,0-110.33,0-.8,0-1.6,.02-2.41,.03,.18-4.31,1.14-8.52,1.71-12.78,.58-4.4,1.28-8.79,1.92-13.19,1.2-.74,2.34,.11,3.49,.21,4.93,.45,9.87,.25,14.81,.31,9.81,.11,19.63-.08,29.45,.15,16.89,.38,33.78,.17,50.67,.4,3.07,.04,6.13,.35,9.19-.05,.7-.09,1.32-.01,1.75,.62,.82,.56,.81,1.49,1.02,2.31,1.21,4.88,1.84,9.86,2.73,14.79,.22,1.21,.07,2.4-.06,3.59Z"/>
      <path class="cls-2" d="M200.18,224.25c-7.24-.08-14.47,.54-21.72,.51-2.5-.01-5.02,.36-7.55,.28-1.15-1.63-.95-3.57-1.19-5.4-.11-.81,.46-1.43,1.2-1.67,4.64-1.53,8.73-3.98,12.36-7.23,.13-.12,.35-.2,.4-.17-3.27,1.26-6.8,1.45-10.39,1.42-9.71-.08-17.82-7.83-18.11-17.57-.06-1.98-.47-3.56-1.91-5.03-1.57-1.59-2.43-3.68-2.52-5.97-.12-2.8,1.27-4.65,4.04-5.06,1.44-.21,2.02-.81,1.95-2.19-.01-.2,0-.4,.02-.6,.53-4.98,.83-4.53,4.58-4.53,7.92,0,15.22-2.55,21.9-6.84,3.24-2.08,3.4-2.53,4.25,1.73,.96,4.8,3.75,8.34,8,10.74,.63,.36,1.55,.55,1.72,1.29,.44,1.98,1.71,1.59,3.07,1.33,1.76-.34,3.57-.82,5.2,.46,1.23,1.37,1.58,3.09,1.9,4.81-.24,3.72-2.41,6.17-5.27,8.27-3.12,2.29-4.97,5.45-4.51,9.35,.77,6.63,2,13.2,2.85,19.82,.1,.77,.45,1.58-.28,2.26Z"/>
      <path class="cls-2" d="M250.42,369.97c4.12,2.15,8.26,4.26,12.36,6.45,7.1,3.78,14.17,7.61,21.26,11.42,.29,.15,.55,.35,.83,.53-1.78,2.16-3.51,4.39-4.45,7.05-2.26,6.42-4.2,12.94-5.96,19.52-.15,.58-.32,1.17-.61,1.69-.75,1.36-1.91,1.86-3.37,1.26-1.36-.57-2.21-1.51-1.77-3.13,.95-3.45,1.9-6.91,2.9-10.56-1.44,.89-2.67,1.69-3.94,2.42-.78,.44-1.05,1.12-1.3,1.91-1.35,4.35-3.06,8.55-5.17,12.58-1.07,2.04-2.57,2.76-4.15,1.97-1.58-.79-1.92-2.44-.84-4.51,1.39-2.67,2.55-5.44,3.67-8.23,.48-1.18,.45-1.76-1.16-1.79-3.6-.07-3.57-.15-5.14,3.21-1.47,3.15-2.96,6.29-4.5,9.4-.87,1.76-2.41,2.32-3.97,1.61-1.48-.68-1.95-2.33-1.02-4.11,2-3.86,3.78-7.82,5.52-11.8,.46-1.06,.46-1.81-.42-2.67-.98-.95-1.78-2.1-2.75-3.26-1.39,2.62-2.68,5.16-4.08,7.66-1.34,2.39-2.91,4.65-4.67,6.75-1.17,1.4-2.81,1.68-4.05,.77-1.43-1.05-1.68-2.58-.33-4.2,5.28-6.35,8.19-13.89,10.95-21.5,.83-2.28,1.08-4.78,1.68-7.58-2.99,2.33-5.68,4.45-8.41,6.53-1.34,1.02-2.83,1.59-4.47,.69-1.5-.83-2.07-2.18-1.94-3.88,.09-1.11,.75-1.77,1.58-2.42,5.92-4.58,11.81-9.18,17.72-13.78Z"/>
      <path class="cls-3" d="M200.18,224.25c-.7-5-1.39-10-2.11-15-.41-2.83-.85-5.65-1.32-8.47-.11-.64-.01-1.17,.35-1.69,.23-.33,.46-.67,.61-1.03,1.15-2.78,2.59-5.15,5.42-6.73,2.45-1.37,3.28-4.21,4.25-6.76,2.32,5.94,5.56,11.33,9.84,16.07,6.35,7.04,11.72,14.66,13.92,24.1,.8,5,.6,9.88-2.19,14.3-3.19,5.04-7.71,7.84-13.8,7.74-2.16-.04-4-.85-5.55-2.38-5.03-4.98-7.66-11.15-8.98-17.98-.14-.72-.29-1.44-.44-2.15Z"/>
      <path class="cls-2" d="M120.32,64.59c-2.45,.68-4.99,.37-7.48,.64-5.73,.64-11.51,.86-17.26,1.33-5.62,.46-11.22,1.03-16.83,1.54-.33,.03-.66-.03-1-.05,1.1-7.91-1.39-15.44-2.49-23.12-.21-1.45-.61-2.87-.87-4.31-.29-1.57,.68-3.11,2.08-3.4,1.63-.34,3.03,.51,3.39,2.25,.72,3.38,1.34,6.79,1.99,10.13,3.51-2.8,2.98-6.5,2.32-10.24-.59-3.32-.31-6.66-.35-10-.02-1.68,1.01-2.72,2.53-2.84,1.52-.12,2.73,.79,2.95,2.42,.18,1.31,.08,2.67,.12,4,.06,2.53-.1,5.08,.61,7.56,.12,.02,.26,.07,.37,.04,1.45-.47,3.35-.56,4.23-1.54,.9-1.01,0-2.9,.04-4.42,.07-3.27-.04-6.54-.03-9.8,0-2.08,1-3.24,2.69-3.23,1.78,0,2.89,1.23,2.91,3.34,.05,3.88,.12,7.76,.08,11.63-.02,2.04,.49,3.49,2.77,3.85,.98,.15,1.82,.76,2.88,1.73,0-1.11,.03-1.87,0-2.62-.22-4.76,.32-9.46,1.21-14.12,.45-2.35,1.63-3.34,3.45-2.97,1.76,.36,2.59,1.79,2.08,4.09-1.06,4.8-1.34,9.66-1.09,14.53,.28,5.45,.77,10.89,2.97,16.28,1.52-3.18,2.96-6.17,4.39-9.17,.56-1.17,1.22-2.28,2.64-2.5,1.42-.23,2.83-.24,3.84,1.04,1.06,1.34,1.13,2.81,.4,4.33-1.91,3.97-3.84,7.94-5.7,11.93-.22,.48-1.27,1.26,.17,1.67Z"/>
      <path class="cls-3" d="M205.48,179.75c-2.49-.61-4.92-.06-7.32,.48-.96,.21-1.27-.02-1.13-.89,.19-1.14-.39-1.53-1.34-2.01-5.36-2.7-8.29-7.15-9.08-13.07-.06-.43,.14-.94-.39-1.39-4.57,3.21-9.47,5.82-14.93,7.28-3.96,1.06-7.96,1.71-12.06,1.34-1.21-.11-1.53,.28-1.59,1.37-.08,1.53-.29,3.05-.44,4.58-.09,.97-.28,1.54-1.58,1.41-2.55-.25-4.34,1.49-4.38,4.05-.04,2.94,1.34,5.27,3.37,7.23,.79,.75,1.09,1.49,1.09,2.59-.07,11.09,7.61,18.79,18.68,18.84,3.43,.02,6.75-.54,10.03-1.64-2.14,2.83-5,4.7-8.03,6.32-1.59,.85-3.24,1.61-5,2.02-1.22,.29-1.4,.97-1.21,2.04,.28,1.57,.48,3.16,.72,4.74-3.65,.13-7.31,.27-10.96,.37-2.66,.07-2.95-.23-3.06-2.88-.03-.58,.13-1.21-.29-1.72-.32-4.51-1.68-8.75-3.36-12.91-4.97-12.27-4.95-24.57-.14-36.88,.31-.79,.53-1.54,.4-2.48-.2-1.52,.63-2.84,1.58-3.99,4.34-5.25,10.07-8.29,16.49-10.06,6.59-1.82,12.86-1.26,19.06,2.2,4.25,2.37,8.08,4.83,10.44,9.18,1.48,2.74,1.74,5.86,2.73,8.76,.58,1.7,1.13,3.42,1.69,5.13Z"/>
      <path class="cls-3" d="M231.05,284.92c.27,.2,.65,.46,1,.76,3.52,2.98,7.23,5.7,11.23,8.03,.71,.42,1.53,.87,.96,1.85-.55,.95-1.3,.31-1.89-.04-4.21-2.48-8.17-5.32-11.83-8.55-.42-.37-1.05-.74-.6-1.49,.22-.36,.55-.57,1.14-.55Z"/>
      <path class="cls-3" d="M173.42,200.28c-.67-.08-1.3,.01-1.46-.68-.17-.78,.38-1.11,1-1.23,1.81-.35,3.4-1.12,4.79-2.33,.43-.38,1-.51,1.43-.01,.47,.55,.28,1.14-.22,1.59-1.62,1.47-3.52,2.36-5.54,2.66Z"/>
      <path class="cls-3" d="M184.21,189.37c.06,.78-.53,1.42-1.5,1.49-1.09,.08-1.75-.59-1.77-1.71-.01-1.05,.67-1.64,1.62-1.68,.99-.04,1.6,.56,1.64,1.9Z"/>
      <path class="cls-3" d="M164.45,189.82c-1.38-.04-1.94-.67-1.91-1.65,.03-.98,.68-1.63,1.68-1.6,1.08,.03,1.76,.69,1.68,1.8-.07,1-.67,1.57-1.45,1.45Z"/>
      <path class="cls-3" d="M182.8,182.12c-.53,0-.86,0-1.19,0-.74,.02-1.37-.24-1.41-1.04-.05-.91,.67-1,1.37-.99,.33,0,.66,0,.99,.02,.97,.07,2.33,.03,2.28,1.25-.05,1.34-1.43,.62-2.04,.76Z"/>
      <path class="cls-3" d="M164.76,181.34c-1-.3-2.72,.29-2.84-1.25-.1-1.25,1.42-.77,2.24-.82,.96-.05,2.19-.06,2.3,1.23,.1,1.12-.98,.74-1.7,.84Z"/>
      <path class="cls-3" d="M105.48,55.05c-.06,.66-.45,.96-.99,1.17-3.53,1.36-6.38,3.57-8.44,6.77-.34,.52-.82,.97-1.5,.54-.76-.49-.53-1.11-.13-1.72,2.35-3.59,5.56-6.06,9.57-7.55,.88-.33,1.21,.15,1.48,.79Z"/>
    </g>
  </g>
</svg>