<?xml version="1.0" encoding="UTF-8"?>
<svg id="Capa_1" data-name="Capa 1" xmlns="http://www.w3.org/2000/svg" viewBox="0 0 1177.72 1142.69">
  <defs>
    <style>
      .cls-1 {
        fill: #cbcaca;
      }

      .cls-2 {
        opacity: .7;
      }

      .cls-3 {
        fill: #e39d23;
      }

      .cls-4 {
        fill: #ea6c2c;
      }

      .cls-5 {
        fill: #f5e6c3;
      }

      .cls-6 {
        fill: #c79a25;
      }

      .cls-7 {
        fill: #fdc333;
      }

      .cls-8 {
        fill: #f6f2ec;
      }

      .cls-9 {
        fill: #192e35;
      }

      .cls-10 {
        fill: #1b2545;
      }

      .cls-11 {
        fill: #1c2440;
      }

      .cls-12 {
        fill: #e1e0e0;
      }

      .cls-13 {
        fill: #cfbcdb;
      }

      .cls-14 {
        fill: #fff8e2;
      }

      .cls-15 {
        fill: #cab7d5;
      }

      .cls-16 {
        fill: #e5cfa1;
      }

      .cls-17 {
        fill: #e3b02d;
      }
    </style>
  </defs>
  <path class="cls-15" d="M471.43,427.05c-16.34,.16-32.68,.47-49.03,.46-26.16-.02-52.32-.24-78.47-.38,1.58-3.65,.86-7.5,.89-11.25,.09-11.64-.39-23.29,.14-34.91,.4-8.75,.55-18.07-2.04-26.54-2.35-7.68-7.4-14.29-11.38-21.18-6.08-10.52-5.5-20.63-8.81-31.76-2.35-7.91-11.5-11.68-15.94-18.43-4.76-7.23-6.45-15.9-5.88-24.46,.7-10.61,6.15-15.98,16.78-16.3,3.86-2.89,7.15,.79,11.92,1.13-1.45-11.88,4.83-21.86,7.3-32.83,1.02-4.53,3.32-5.7,7.59-4.73,35.69,8.16,70.9,3.57,105.84-4.63,7.63-1.79,11.93,.23,16.65,6.27,7.32,9.36,13.32,18.82,14.63,30.99,.78,7.2,1.38,7.14,8.38,4.23,1.39-.58,2.77-1.33,4.3-.43,16.76,.15,23.99,8.97,20.61,25.88-2.26,11.32-7.84,20.79-18.07,26.85-2.31,1.37-4.17,2.6-4.22,5.64-.31,19.27-7.8,35.77-19.64,50.58-.77,.97-1.17,2.23-1.74,3.36-8.11,12.25-20.92,17.72-33.64,23.26-10.65,4.64-21.92,5.45-34.03,4.52,19.92,10.88,39.75,19.9,61.56,23.77,2.31,.41,4.33,1.31,5.89,3.11,.14,5.93,.28,11.86,.43,17.79Z"/>
  <path class="cls-10" d="M494.29,242.29c-13.06,8.58-9.85,8.64-15.43-6.44-5.63-15.64-11.34-22.05-17.68-32.64-1.75-2.93-4.52-.91-6.87-.36-26.36,6.17-52.97,10.19-80.16,9.36-11.63-.35-11.17-4.48-22.44-7.19-1.76,13.84-19.63,27.4-19.38,43.1-5.85-2.44-9.7-5.62-14.65-5.83-2.93-20.08,.2-39.57-7.81-58.33-3.45-8.08-5.44-16.55-3.57-25.5,2.65-12.63,10.68-20.16,22.5-24.22,21.25-7.3,35.54-7.04,57.46-5.54,15.42,1.06,30.69,3.85,45.46,8.58,14.11,4.52,27.89,9.99,38.44,21.01,2.26,2.36,5.14,3.01,7.65,4.59,25.86,16.31,29.8,31.23,24.97,57.74-1.39,7.64-4.16,15.03-8.5,21.66Z"/>
  <path class="cls-10" d="M471.01,409.26c-25.79-3.89-49.31-13.7-72.84-27.95,9.11-.43,16.82-.07,24.27-1.29,16.55-2.72,31.04-10.11,43.51-21.4,1.63-1.47,2.75-3.71,5.29-4.01-.07,18.22-.15,36.43-.22,54.65Z"/>
  <path class="cls-10" d="M412.69,321.65c-10.68,.24-19.21-2.39-27.09-7.2-2.62-1.6-5.4-3.43-3.07-7.15,2.26-3.6,4.92-2.14,7.73-.51,7.75,4.5,16.05,7.11,25.12,6.11,3.88-.43,7.59-.33,7.72,4.52,.12,4.91-4.22,3.9-7.28,4.21-1.49,.15-3.01,.03-3.14,.03Z"/>
  <path class="cls-10" d="M447.51,243.85c.79,.14,2.77,.4,4.7,.83,3.48,.78,6.43,2.29,5.1,6.57-1.24,4-4.21,3.32-7.31,2.15-1.36-.51-2.95-.48-4.44-.54-3.35-.13-7.18-.21-7.09-4.66,.1-5.09,4.33-4.47,9.03-4.36Z"/>
  <path class="cls-10" d="M368.55,243.77c4.76,.07,8.22-.44,8.65,3.84,.48,4.69-2.93,4.99-6.39,5.25-2.22,.17-4.46,.56-6.59,1.17-2.67,.77-4.56-.09-5.4-2.51-.92-2.64-.19-4.96,2.71-6.09,2.82-1.1,5.74-1.72,7.02-1.67Z"/>
  <path class="cls-10" d="M375.74,273.95c-.29,4.16-2.42,6.59-6.61,6.66-4.49,.08-7.25-2.33-7.18-6.83,.07-4.01,2.71-6.71,6.65-6.85,4.39-.16,6.81,2.58,7.14,7.01Z"/>
  <path class="cls-10" d="M446.73,280.54c-4.3-.1-6.38-2.5-6.36-6.66,.02-4.55,2.65-7.19,7.04-6.99,3.93,.18,6.79,3.06,6.71,6.87-.09,4.07-2.58,7.03-7.39,6.77Z"/>
  <g>
    <path class="cls-6" d="M513.32,202.53c.08-1.8,.13-3.6,.13-5.42,0-62.15-47.1-112.53-105.19-112.53s-105.19,50.38-105.19,112.53c0,1.82,.05,3.62,.13,5.42h210.13Z"/>
    <path class="cls-7" d="M440.74,89.54v57.03c0,3.49-2.76,6.32-6.16,6.32s-6.16-2.83-6.16-6.32v-63.06c-.35-6.29-5.39-11.3-11.61-11.3h-17.13c-6.22,0-11.26,5.01-11.61,11.3v63.06c0,3.49-2.76,6.32-6.16,6.32s-6.16-2.83-6.16-6.32v-57.03c-44.06,14.18-76.03,56.37-76.03,106.27,0,4.95,.35,9.81,.96,14.58h215.13c.61-4.78,.96-9.64,.96-14.58,0-49.9-31.98-92.09-76.03-106.27Z"/>
    <path class="cls-17" d="M299.73,195.81c0,4.95,.35,9.81,.96,14.58h215.13c.61-4.78,.96-9.64,.96-14.58,0-3.9-.26-7.73-.64-11.53h-215.76c-.38,3.8-.64,7.63-.64,11.53Z"/>
    <g>
      <path class="cls-3" d="M300.38,184.28c-.38,3.8-.64,7.63-.64,11.53,0,4.95,.35,9.81,.96,14.58h36.33c-5.1-7.89-8.94-16.71-11.35-26.11h-25.29Z"/>
      <path class="cls-3" d="M516.13,184.28h-25.29c-2.41,9.41-6.25,18.22-11.35,26.11h36.33c.61-4.78,.96-9.64,.96-14.58,0-3.9-.26-7.73-.64-11.53Z"/>
    </g>
    <path class="cls-7" d="M516.01,224.97h-215.5c-2.26,0-4.39-.54-6.28-1.5-4.69-2.38-7.92-7.34-7.92-13.08h0c0-4.03,1.59-7.67,4.16-10.31,2.57-2.64,6.12-4.27,10.04-4.27h215.5c5.62,0,10.48,3.35,12.78,8.22,.91,1.92,1.42,4.08,1.42,6.36h0c0,4.68-2.15,8.84-5.49,11.51-2.41,1.92-5.43,3.07-8.72,3.07Z"/>
    <path class="cls-3" d="M314.32,210.39c0-4.03,1.59-7.67,4.16-10.31,2.57-2.64,6.12-4.27,10.04-4.27h-28.02c-3.92,0-7.47,1.63-10.04,4.27-2.57,2.64-4.16,6.28-4.16,10.31,0,5.74,3.23,10.7,7.92,13.08,1.89,.96,4.03,1.5,6.28,1.5h28.02c-2.26,0-4.39-.54-6.28-1.5-4.69-2.38-7.92-7.34-7.92-13.08Z"/>
    <path class="cls-3" d="M502.2,210.39c0-4.03-1.59-7.67-4.16-10.31-2.57-2.64-6.12-4.27-10.04-4.27h28.02c3.92,0,7.47,1.63,10.04,4.27,2.57,2.64,4.16,6.28,4.16,10.31,0,5.74-3.23,10.7-7.92,13.08-1.89,.96-4.03,1.5-6.28,1.5h-28.02c2.26,0,4.39-.54,6.28-1.5,4.69-2.38,7.92-7.34,7.92-13.08Z"/>
    <g>
      <path class="cls-17" d="M382.09,161.97c6.34,0,11.47-5.27,11.47-11.77V74.02c-3.12,2-5.26,5.48-5.49,9.49v63.06c0,3.49-2.76,6.32-6.16,6.32s-6.15-2.83-6.15-6.32v-57.03c-1.75,.56-3.44,1.24-5.14,1.89v58.76c0,6.5,5.14,11.77,11.47,11.77Z"/>
      <path class="cls-17" d="M434.42,161.97c6.34,0,11.47-5.27,11.47-11.77v-58.76c-1.71-.65-3.4-1.33-5.14-1.89v57.03c0,3.49-2.76,6.32-6.16,6.32s-6.16-2.83-6.16-6.32v-63.06c-.23-4.01-2.36-7.48-5.49-9.49v76.17c0,6.5,5.14,11.77,11.47,11.77Z"/>
    </g>
    <ellipse class="cls-17" cx="408.26" cy="184.28" rx="28.02" ry="28.76"/>
    <ellipse class="cls-6" cx="408.26" cy="184.28" rx="23.7" ry="24.32"/>
    <path class="cls-5" d="M426.04,184.28c0,10.08-7.96,18.26-17.78,18.26s-17.78-8.17-17.78-18.26,7.96-18.26,17.78-18.26,17.78,8.17,17.78,18.26Z"/>
    <ellipse class="cls-14" cx="408.26" cy="171.99" rx="8.16" ry="3.64"/>
    <path class="cls-16" d="M408.26,192.03c-8.03,0-14.74-5.5-16.95-13-.49,1.67-.84,3.41-.84,5.25,0,10.08,7.96,18.26,17.78,18.26s17.78-8.17,17.78-18.26c0-1.84-.34-3.58-.84-5.25-2.21,7.5-8.92,13-16.95,13Z"/>
  </g>
  <path class="cls-11" d="M490.85,399.41c-5.42-.81-50.76-.81-50.76-.81h-118.05l-1.74,192.3,37.16,84.51,78.79,206.08h121.18l11.7-280.43,42.66-160.62-120.95-41.04Z"/>
  <path class="cls-9" d="M634.2,774.06s-.22,.26-.68,.72c-.51,.5-1.21,1.17-2.1,2.04-1.87,1.76-4.83,4.16-8.96,6.79-4.18,2.53-9.65,5.14-16.4,6.87-6.73,1.75-14.77,2.42-23.48,1.49-4.36-.49-8.87-1.45-13.44-2.85-4.58-1.46-9.16-3.25-14-4.95-9.63-3.49-19.96-7.13-30.83-10.95-21.75-7.62-45.73-15.77-70.99-24.06-50.54-16.6-96.62-30.59-130.02-40.56-16.67-4.93-30.18-8.93-39.58-11.71-4.62-1.37-8.24-2.45-10.76-3.2-1.18-.36-2.11-.65-2.79-.86-.63-.2-.94-.31-.94-.33,0-.02,.34,.05,.97,.21,.69,.18,1.63,.43,2.82,.74,2.54,.7,6.17,1.7,10.82,2.98,9.39,2.62,22.96,6.47,39.69,11.34,33.46,9.76,79.6,23.63,130.15,40.23,25.27,8.29,49.25,16.48,70.98,24.15,10.86,3.85,21.18,7.52,30.8,11.06,4.82,1.72,9.45,3.55,13.94,5,4.51,1.4,8.96,2.38,13.26,2.89,8.61,.97,16.54,.37,23.22-1.3,6.69-1.65,12.14-4.17,16.32-6.62,4.13-2.55,7.12-4.88,9.04-6.57,.92-.82,1.64-1.47,2.17-1.94,.5-.43,.76-.65,.77-.63Z"/>
  <path class="cls-9" d="M568.53,572.99c.34,0,.61,18.88,.61,42.16s-.27,42.16-.61,42.16-.61-18.87-.61-42.16,.27-42.16,.61-42.16Z"/>
  <path class="cls-12" d="M268.48,676.7c28.79-31.88,27.53-88.57,11-128.8-1.53,43.58-6.67,82.22-10.61,124.56"/>
  <g>
    <path class="cls-4" d="M268.48,593.98l-7.41-177.56,60.97-17.83,86.79,141.96,82.02-141.15,93.82,28.11-5.6,214.62-12.89,246.19s-86.56,.36-153.55,1.09c-66.99,.73-151.64-.67-151.64-.67"/>
    <g class="cls-2">
      <path class="cls-1" d="M262.26,833.79s98.08,8.07,140.22,8.07,166.65-9.54,166.65-9.54l-1.58,24.95s-167.17,23.76-305.83,2l.54-25.48Z"/>
    </g>
    <g class="cls-2">
      <path class="cls-1" d="M263.51,785.98s100.2,7.67,142.34,7.67,166.12-8.95,166.12-8.95l-2.25,24.95s-168.11,22.88-306.77,1.12l.57-24.8Z"/>
    </g>
    <path class="cls-9" d="M417.67,882.98c-.08,0-.26-1.18-.52-3.43-.26-2.47-.62-5.76-1.06-9.89-.89-8.59-1.99-21.04-3.19-36.43-2.41-30.78-4.95-73.38-6.22-120.49-1.24-47.12-.96-89.8-.18-120.67,.38-15.44,.55-27.57,.98-36.19,.22-4.14,.2-7.31,.33-9.79,.15-2.27,.01-5.52,1.02-5.52,1.3,0,.31,3.81,.31,6.08-.03,2.49,.04,4.77,0,8.91-.13,8.87-.82,21.28-1.04,36.54-.37,30.86-.39,73.5,.85,120.58,1.26,47.07,3.55,89.64,5.55,120.44,1.03,15.22,1.87,27.62,2.47,36.47,.26,4.14,.48,7.44,.63,9.92,.12,2.27,.14,3.47,.07,3.47Z"/>
  </g>
  <path class="cls-11" d="M440.47,742.83l-172.2-50.49,5.01-144.44-12.21-131.48s-63.86,28.97-71.52,64.71c-7.66,35.74-26.13,122.63-28.1,185.42-1.76,56.15-3.48,96.72,10.72,113.57,37.01,43.89,252.19,72.45,375.46-3.25"/>
  <g>
    <path class="cls-11" d="M611.81,440.45s40.82,30.13,44.35,78.61c2.87,39.38,9.46,147.19,10.65,170.67,1.86,36.55-26.61,122.15-100.71,97.9-44.44-14.54-208.63-70.35-208.63-70.35l10.92-69.73,194.88,11.61,21.39-231.65,27.14,12.94Z"/>
    <path class="cls-11" d="M629.82,693.34c-.79,.15-.65-4.03-3.21-9.98-2.52-5.87-7.59-13.68-15.87-19.04-4.09-2.66-8.69-3.9-12.88-4.64-4.21-.7-8.08-.95-11.33-1.18-3.06-.21-5.68-.18-7.75-.32-1.82-.17-2.87,.22-2.77-.6-.06-.79,1.06-.4,2.89-.38,2.08,.04,4.61,.38,7.68,.44,3.26,.11,7.16,.28,11.47,.93,4.27,.7,9.06,1.94,13.35,4.73,8.56,5.55,13.64,13.66,16.01,19.74,1.2,3.07,2.06,5.6,2.35,7.41,.47,1.79,.86,2.9,.06,2.9Z"/>
  </g>
  <g>
    <path class="cls-13" d="M511.81,654.29s21.01-38.06,26.89-42.62c5.88-4.57,45.28-22.57,51.16-18.93s3.22,13.05,3.22,13.05c0,0,23-7,25.26-4.07,2.26,2.94,4.11,9.98,1.4,14.05,0,0,12.7,.96,12.7,4.58s-1.36,8.14-6.79,12.21c-5.43,4.07-31.7,19.34-34.53,25.83l-12.69-.69-66.62-3.41Z"/>
    <g>
      <path class="cls-11" d="M580.1,646.02c-.34-.18,.22-.74,.84-1.95,.61-1.22,1.61-2.91,3.01-4.85,2.78-3.91,7.43-8.61,13.28-12.51,5.85-3.91,11.57-6.48,15.71-8.26,2.07-.88,3.76-1.55,4.94-1.99,1.18-.44,1.84-.65,1.86-.58,.1,.36-.59,.41-1.73,.97-1.34,.64-2.94,1.41-4.82,2.31-4.06,1.95-9.69,4.63-15.47,8.48-5.77,3.85-10.39,8.35-13.26,12.07-2.9,3.7-3.88,6.73-4.37,6.31Z"/>
      <path class="cls-11" d="M617.87,616.45c1.18-.44,1.79-.88,1.86-.58,.1,.36-.59,.41-1.73,.97"/>
    </g>
    <path class="cls-11" d="M548.81,643.78c-.35-.23,.27-.86,.92-2.32,.65-1.46,1.61-3.56,2.91-6.1,1.31-2.53,2.96-5.52,5.22-8.51,1.16-1.48,2.34-3,3.96-4.33,1.6-1.19,3.28-2.3,5.01-3.44,6.97-4.48,13.54-8.04,18.47-10.15,2.46-1.08,4.52-1.77,5.94-2.19,1.45-.36,2.13-.92,2.27-.45,.25,.66-3.14,1-7.94,3.36-4.83,2.28-11.31,5.92-18.24,10.38-1.72,1.13-3.41,2.24-4.97,3.38-1.43,1.14-2.69,2.69-3.81,4.09-2.24,2.88-3.93,5.79-5.31,8.25-1.26,2.34-2.32,4.31-3.18,5.91-.75,1.4-.79,2.66-1.26,2.12Z"/>
  </g>
  <path class="cls-13" d="M366.18,655.58s-55.16-5.96-67.93-2.88c-12.28,2.96-29.76,17.98-29.76,17.98l.25,21.79,88.74,24.8,8.7-61.7Z"/>
  <path class="cls-8" d="M268.73,692.87c-.04,.25-3.1-.41-8.04-.22-2.47,.11-5.39,.51-8.52,1.41-3.11,.94-6.42,2.36-9.59,4.37-6.35,4.08-10.71,9.54-13.34,13.71-2.62,4.21-3.74,7.11-3.96,7.02-.08-.03,.16-.77,.65-2.09,.46-1.33,1.34-3.17,2.57-5.38,2.48-4.36,6.86-10.08,13.42-14.29,3.28-2.08,6.72-3.52,9.94-4.43,3.25-.87,6.27-1.19,8.8-1.19,2.53,.02,4.57,.21,5.94,.53,1.38,.27,2.13,.47,2.12,.55Z"/>
  <path class="cls-8" d="M186.33,791.46l.08,.03h.02c10.79,5.59,22.62,9.63,34.68,13.26,12.09,3.62,24.58,6.54,37.27,9.15,28.39,5.8,56.55,9.21,83.75,10.2,13.61,.41,26.95-.1,39.98-1.04,13.03-.9,25.72-2.26,38.01-4.09,24.58-3.55,47.51-9.01,68.22-15.86,20.72-6.83,39.15-15.12,55.16-23.67l.06,.76c-32.11-11.37-57.89-20.49-75.67-26.79-8.85-3.16-15.68-5.27-20.35-6.94-2.3-.83-4.17-1.55-5.38-1.99-.98-.36-.77-.58-.77-.58,0,0,.15-.28,.95,.04,1.22,.42,2.98,1.12,5.29,1.9,4.69,1.62,11.54,4.07,20.42,7.14,17.81,6.21,43.63,15.22,75.8,26.43l.89,.31-.83,.45c-16.02,8.62-34.48,16.98-55.24,23.88-20.75,6.91-43.73,12.42-68.37,16.02-12.31,1.84-25.03,3.22-38.09,4.14-13.04,.96-26.45,1.48-40.1,1.08-27.28-.98-55.5-4.38-83.96-10.2-12.72-2.62-25.24-5.55-37.38-9.19-12.11-3.65-23.97-7.7-34.91-13.36l.1,.04"/>
</svg>