<?xml version="1.0" encoding="UTF-8"?>
<svg id="Capa_1" data-name="Capa 1" xmlns="http://www.w3.org/2000/svg" viewBox="0 0 634.04 1023.84">
  <defs>
    <style>
      .cls-1 {
        opacity: .7;
      }

      .cls-2 {
        fill: #fff;
      }

      .cls-3 {
        opacity: .9;
      }

      .cls-4 {
        fill: #71543a;
      }

      .cls-5 {
        fill: #575756;
      }

      .cls-6 {
        fill: #796a5a;
      }

      .cls-7 {
        opacity: .8;
      }

      .cls-8 {
        fill: #9d9d9c;
      }

      .cls-9 {
        fill: none;
        stroke: #eeeae4;
        stroke-miterlimit: 10;
        stroke-width: 1.4px;
      }

      .cls-10 {
        fill: #f6f2ec;
      }

      .cls-11 {
        opacity: .75;
      }

      .cls-12 {
        fill: #192e35;
      }

      .cls-13 {
        fill: #1b2444;
      }

      .cls-14 {
        fill: #1b2545;
      }

      .cls-15 {
        fill: #3b2c1e;
      }

      .cls-16 {
        fill: #1c2440;
      }

      .cls-17 {
        fill: #e1e0e0;
      }

      .cls-18 {
        fill: #cfbcdb;
      }

      .cls-19 {
        fill: #1d2441;
      }

      .cls-20 {
        fill: #1d1d1b;
      }
    </style>
  </defs>
  <g id="OYJhNN">
    <g>
      <path class="cls-18" d="M329.07,198.56c2.99-1.56,6.12-2.83,8.87-4.84,10.81-7.91,16.87-18.42,17.67-31.88,.2-3.29-.22-6.52-.66-9.75-.12-.92,.04-1.43,.68-2.06,4.46-4.46,7.41-9.7,8.08-16.08,.66-6.23-2.93-10.75-9.08-11.54-.91-.12-1.68,.23-2.52,.3-.24-.18-.52-.29-.8-.22-1.2,.31-1.42-.39-1.61-1.37-.82-4.21-1.42-8.46-2.45-12.63-.12-.5-.28-.99-.42-1.49-.28-.98-.84-1.41-1.91-1.2-2.42,.48-4.89,.54-7.34,.76-11.76,1.07-23.19-.64-34.35-4.28-7.58-2.47-14.9-5.59-21.76-9.72-.39-.24-.8-.44-1.22-.64-1.01-.48-1.5-.15-1.56,.96-.1,1.83-.07,3.67-.27,5.49-1.39,12.92-7.55,22.74-19.01,29.05-1.37,.76-1.82,1.65-1.68,3.16,.34,3.74,.29,3.68-3.39,3.24-2.88-.34-5.77-.92-8.7-.49-7.61,.71-11.39,7.21-8.44,14.87,2.99,7.74,8.43,13.11,16.33,15.82,1.01,.35,1.6,.83,2.04,1.81,1.62,3.68,3.53,7.22,6.1,10.31,1.53,1.84,1.83,3.72,1.68,5.97-.77,11.56-1.44,23.12-2.16,34.69-.41,6.55,.24-.24-.24,6.3-.11,1.56,0,4.99,.76,6.59,8.14,7.74,19.83,19.65,19.83,19.65l39.52,27.49c6.81-13.93,5.93-15.05,7.11-22.34,.16-3.48-.05-13.41,.03-18.23,.47-8.49-.96-11.55-.45-20.04-.44-.66-1.17-.68-1.83-.8-9.85-1.81-18.74-5.84-26.92-11.54-2.07-1.44-3.87-3.22-5.88-4.76-.2-.08,.15-.29,0-.12-.03,.03,.01,.07,.13,.11,5.04,1.65,10.23,2.44,15.51,2.63,5.57,.21,11.08-.29,16.49-1.72,1.32-.35,2.67-.65,3.81-1.49Z"/>
      <path class="cls-13" d="M246.06,134.14c2.89,.69,5.88,.46,8.79,.98,1.06,.19,2.15,.27,3.22,.43,.75,.11,1.04-.13,.93-.92-.15-1.13-.08-2.31-.34-3.42-.33-1.41,.34-1.95,1.46-2.57,11.69-6.51,17.98-16.55,19.22-29.8,.18-1.97,.19-3.96,.29-6.11,3.74,2.11,7.43,4.13,11.27,5.9,11.1,5.11,22.65,8.45,34.89,9.37,6.71,.5,13.34,.04,19.94-1.01,.82-.13,.79,.27,.95,.78,1.07,3.44,1.52,7,2.25,10.51,.34,1.62,.57,3.25,.8,4.89,.12,.89,.61,1,1.33,.8,.49-.14,.98-.31,1.47-.47,1.52-4.78,.62-9.6,.17-14.39-.1-1.11,.13-2.29-.45-3.36-.28-.51,.17-.7,.52-.9,4.12-2.37,4.01-6.17,2.14-9.64-2.22-4.13-5.62-7.22-9.35-9.93-12.28-8.91-26.03-14.06-41.13-15.19-12.44-.94-23.99,1.75-34.31,9.27-3.36,2.45-7.26,4.17-10.46,6.92-9,7.71-14.88,17.06-15.39,29.23-.03,.8,.03,1.6,.05,2.4-.19,1.55,.38,3.08,.16,4.64,.51,3.87,.74,7.77,1.6,11.59Z"/>
      <path class="cls-13" d="M329.07,198.56c-2.36,1.02-4.45,1.72-6.76,2.15-10.05,1.91-19.93,1.28-29.69-1.73-.2-.06-.42-.08-1.09-.2,10.62,9.65,22.51,15.64,36.25,17.9,.43-5.89,.85-12.24,1.28-18.13Z"/>
      <path class="cls-13" d="M317.62,169.27c1.16-.51,1.45-1.42,1.16-2.55-.29-1.13-1.14-1.58-2.21-1.46-.84,.09-1.65,.43-2.49,.59-3.47,.67-6.92,.75-10.34-.32-1.54-.49-2.94,.05-3.32,1.19-.46,1.39,.24,2.43,2.05,2.95,5.09,1.45,10.15,1.25,15.16-.39Z"/>
      <path class="cls-13" d="M333.58,139.05c-2.15,.19-3.62,1.98-3.39,4.13,.22,2.03,2.05,3.57,4.03,3.38,2.03-.19,3.69-2.21,3.45-4.19-.24-2-2.08-3.49-4.09-3.31Z"/>
      <path class="cls-13" d="M291.93,144.77c-2.14,.15-3.75,1.98-3.56,4.04,.19,1.97,2.04,3.58,4.01,3.49,2.05-.09,3.65-1.98,3.47-4.11-.18-2.13-1.83-3.57-3.92-3.42Z"/>
      <path class="cls-13" d="M333.41,122.13c-1.61,.09-3.15,.48-4.68,.97-1.43,.46-1.85,1.5-1.43,2.83,.43,1.34,1.56,1.6,2.78,1.27,1.82-.5,3.64-.94,5.53-1.06,1.48-.09,2.23-1.02,2.1-2.38-.12-1.32-1.07-1.94-2.44-1.79-.62,.07-1.25,.11-1.87,.16Z"/>
      <path class="cls-13" d="M288.02,133.01c1.98-.67,4.12-.98,6.28-1.24,1.22-.15,1.71-1.05,1.65-2.22-.06-1.15-.8-1.83-1.87-1.85-2.52-.05-5.01,.35-7.38,1.25-1.13,.43-1.49,1.39-1.29,2.5,.18,1.03,1.37,1.71,2.61,1.57Z"/>
    </g>
  </g>
  <g>
    <g>
      <path class="cls-15" d="M253.11,135.23c-.03,.18,1.78,.57,4.79,.81,3,.25,7.19,.3,11.8,.19,4.31-.08,8.23-.15,11.79-.22,3.01-.01,4.87,.03,4.91-.18,.03-.18-1.78-.57-4.79-.81-3-.25-7.19-.3-11.8-.19-4.31,.08-8.23,.15-11.78,.22-3.01,.01-4.87-.03-4.91,.18Z"/>
      <path class="cls-15" d="M320.92,121.01c-2.32,.42-4.13,2.31-4.34,4.66-.42,4.65,.65,9.44,3.08,13.44,3.14,5.16,8.49,8.92,14.41,10.11,3.4,.68,7.17,.48,9.98-1.55,3.94-2.84,4.88-8.26,4.94-13.11,.05-3.54-.27-7.31-2.39-10.15-2.7-3.62-7.65-4.78-12.17-4.76-4.52,.03-13.51,1.36-13.51,1.36h0Z"/>
      <path class="cls-15" d="M300.29,122.9c2.38,.07,4.48,1.69,5.04,4.01,1.12,4.59,.77,9.54-1.05,13.9-2.36,5.63-7.15,10.2-12.89,12.28-3.29,1.2-7.1,1.56-10.21-.05-4.36-2.24-6.12-7.53-6.92-12.37-.58-3.53-.83-7.35,.86-10.51,2.16-4.03,6.93-5.94,11.45-6.59,4.53-.65,13.72-.68,13.72-.68h0Z"/>
      <path class="cls-15" d="M296.17,123.88c.03,.39,6.8,.17,15.11-.5,8.32-.67,15.03-1.53,15-1.92-.03-.39-6.8-.17-15.11,.5-8.31,.67-15.03,1.53-15,1.92Z"/>
    </g>
    <g class="cls-1">
      <path class="cls-10" d="M347.64,134.68c.35,.15,1.37-2.94-.06-6.46-1.39-3.53-4.25-5.07-4.41-4.72-.25,.33,1.88,2.16,3.08,5.25,1.26,3.06,.98,5.86,1.39,5.92Z"/>
    </g>
    <g class="cls-1">
      <g class="cls-7">
        <path class="cls-10" d="M302.51,138.96c.31,.22,1.97-2.22,1.75-5.68-.19-3.47-2.14-5.69-2.42-5.43-.35,.22,.84,2.49,.99,5.51,.21,3.02-.69,5.41-.32,5.59Z"/>
      </g>
    </g>
  </g>
  <g>
    <g>
      <path class="cls-4" d="M239.67,109.04s3.15-18.8,10.2-29.97c7.05-11.16,19.56-26.41,30.22-28.26,4.86-.84,26.49,7.77,29.12,7.76,7.13-.03,21.92-.78,27.41,1.94,12.12,6,19.84,40.96,19.84,40.96,0,0-44.98,1.5-63.84,2-18.86,.5-52.94,5.57-52.94,5.57Z"/>
      <path class="cls-15" d="M239.67,109.03s34.09-5.08,52.97-5.57c18.83-.5,63.82-2.01,63.82-2.01,0,0-.76-4.5-2.19-10.82-8.1-.3-39.57-1.36-58.15,.21-6.79,.55-43.48,5.41-54.58,6.9-1.25,6.41-1.87,11.29-1.87,11.29Z"/>
    </g>
    <path class="cls-4" d="M371.65,114.88s-61.48-2.82-83.96-.09c-22.48,2.74-60.14,8.66-60.14,8.66l12.13-14.42s31.82-4.86,44.83-6.31c13.01-1.45,71.95-1.26,71.95-1.26l15.19,13.41Z"/>
  </g>
  <g>
    <path class="cls-18" d="M508.34,223.55s4.61,77.44,5.99,86.2c1.38,8.76-5.99,19.82-5.99,19.82,0,0-17.06,1.84-28.58-19.36l-7.38-16.59s4.27-16.04,1.5-40.94c-2.77-24.89-1.5-39.27-1.5-39.27l35.96,10.14Z"/>
    <g>
      <path class="cls-8" d="M487.65,115.61c2.02,18.69,1.76,34.85-7.45,38.15-.77,.28-6.95,.52-7.77,.61-10.6,1.15-20.97-14.35-23.16-34.61-2.19-20.26,4.62-37.61,15.22-38.76,.99-.11,6.65-.92,7.63-.74,9.5,1.69,13.55,16.99,15.53,35.35Z"/>
      <path class="cls-18" d="M517.1,182.52s7.77,2.58,6.36,10.08c-1.41,7.5-6.36,20.8-6.36,20.8l-9.65,10.7-35.06-10.7s-2.62-4.62-2.39-10.48c.23-5.86-.01-20.4-.01-20.4,0,0,4.94-6.1,6.35-13.37,1.17-6.06,2.02-13.11,2.27-15.28,.04-.38,.4-.63,.77-.55,1.56,.34,5.34,1.62,6.81,6.22,1.88,5.86,1.41,7.5,1.41,7.5l29.52,15.48Z"/>
      <polygon class="cls-5" points="489.23 157.55 484.22 149.54 478.96 153.6 488.71 172.87 491.37 164.79 489.23 157.55"/>
      <path class="cls-18" d="M489.23,157.55s5.48-8.29,10.58-4.34c5.09,3.95,3.92,6.3,0,13.54,0,0,9.99-1.37,7.64,9.2,0,0,9.9-1.95,9.65,6.57,0,0,8.17,6.75,4.64,11.84-3.53,5.09-17.04,14.88-20.76,13.71-3.72-1.17-4.18-6.27-4.18-6.27,0,0-4.44-1.57-5.81-3.72s.39-5.48,.39-5.48c0,0-3.92-3.38-4.9-4.33s0-5.85,0-5.85l5.29-6.07s-7.64,4.11-9.4,2.94c-1.76-1.17-3.72-2.15-2.15-4.7,1.57-2.55,7.4-8.44,7.4-8.44l1.6-8.6Z"/>
      <path class="cls-16" d="M497.65,202.33c-.1-.09,.87-1.31,2.33-3.37,1.47-2.02,3.54-5.01,6.76-7.32,3.14-2.3,6.05-4.19,7.79-5.98,1.78-1.74,2.42-3.19,2.56-3.12,.1,.02-.34,1.64-2.07,3.59-1.68,1.99-4.62,4.02-7.7,6.28-3.1,2.23-5.17,5.03-6.8,6.97-1.61,1.97-2.78,3.05-2.87,2.96Z"/>
      <path class="cls-16" d="M491.37,194.1c-.2-.17,3.15-4.46,7.48-9.58,2.18-2.52,4.03-4.95,5.66-6.48,1.6-1.56,2.88-2.19,2.93-2.08,.08,.12-1.01,.92-2.44,2.55-1.46,1.6-3.22,4.08-5.42,6.63-4.33,5.12-8.01,9.13-8.21,8.96Z"/>
      <path class="cls-16" d="M491.78,176.35c-.21-.22,1.92-2.22,4.24-4.84,2.37-2.61,3.41-5.27,3.66-5.19,.28,.04-.45,3.08-2.93,5.82-2.42,2.72-4.81,4.38-4.96,4.21Z"/>
      <path class="cls-16" d="M477.7,186.39c.03-.1,1.39,.16,3.27,1.34,1.87,1.15,4.12,3.33,5.83,6.21,1.71,2.88,2.69,5.74,3.33,7.8,.62,2.07,.91,3.37,.79,3.41-.13,.04-.64-1.19-1.43-3.19-.79-1.99-1.86-4.76-3.51-7.53-1.65-2.77-3.7-4.9-5.39-6.14-1.69-1.26-2.94-1.75-2.88-1.9Z"/>
      <path class="cls-5" d="M491.83,115.21c2.19,20.26-3.36,37.48-12.41,38.46-9.04,.98-18.15-14.65-20.35-34.91-2.19-20.26,3.36-37.48,12.41-38.46,9.04-.98,18.15,14.65,20.35,34.91Z"/>
      <path class="cls-17" d="M476.09,153.19c8.47-4.25,13.53-19.83,11.6-37.67-1.92-17.75-10.12-31.84-19.24-34.29-7.18,4.1-11.27,19.58-9.34,37.43,1.92,17.74,9.14,31.93,16.98,34.53Z"/>
      <path class="cls-2" d="M476.49,138.6c-.26,.02-.94-7.76-1.51-17.36-.57-9.6-.82-17.4-.56-17.42,.26-.02,.94,7.75,1.51,17.36,.57,9.6,.82,17.4,.56,17.41Z"/>
      <path class="cls-2" d="M473.32,126.89c-.13,.02-.51-1.82-.94-4.83-.43-3-.87-7.18-1.13-11.81-.25-4.63-.26-8.83-.17-11.86,.1-3.03,.28-4.91,.41-4.9,.14,0,.19,1.88,.27,4.9,.08,3.02,.2,7.2,.45,11.81,.25,4.6,.59,8.77,.84,11.78,.25,3.01,.4,4.89,.26,4.9Z"/>
      <path class="cls-16" d="M489.23,157.52s0,.2-.05,.58c-.07,.44-.15,.99-.26,1.67-.26,1.54-.63,3.67-1.09,6.38v.06s-.06,.05-.06,.05c-1.07,1.12-2.27,2.4-3.57,3.84-1.25,1.45-2.78,3.03-3.9,4.93-.24,.48-.41,1-.31,1.49,.09,.49,.44,.92,.89,1.29,.44,.37,.97,.7,1.51,1.05,.44,.32,.99,.27,1.62,.18,2.48-.5,5.02-1.75,7.57-3.07l1.79-.92-1.31,1.52c-1.66,1.92-3.43,3.97-5.27,6.09l.08-.13c-.58,1.84-.85,4.14,.2,5.86,1.15,1.7,3.05,3.06,4.93,4.24l.41,.26-.28,.4c-1.13,1.59-1.82,4-.06,5.31,1.59,1.39,3.68,2.39,5.75,3.26l-.64,.43v-.11s0-.05,0-.03h0c.13,.14-.3-.3,.31,.39,1.24-.72,.35-.28,.63-.41h0s0,0,0,0v.22s.05,.47,.05,.47c.04,.31,.09,.63,.17,.94,.14,.62,.36,1.22,.65,1.78,.3,.55,.68,1.05,1.15,1.44,.47,.38,1.04,.71,1.56,.73,1.19,.03,2.51-.51,3.73-1.07,1.24-.58,2.44-1.27,3.62-2.01,2.24-1.41,4.36-2.97,6.36-4.62,1.98-1.66,3.91-3.38,5.46-5.3,.8-.96,1.28-1.98,1.27-3.15,0-1.14-.37-2.28-.9-3.32-1.08-2.09-2.73-3.89-4.43-5.4l-.16-.14v-.22c-.05-1.14-.1-2.31-.62-3.27-.47-.97-1.26-1.74-2.22-2.22-1.93-.95-4.25-.96-6.29-.66l-.57,.08,.09-.58c.1-.64,.23-1.27,.3-1.9-.01-.62,.11-1.26-.01-1.86-.06-1.22-.55-2.34-1.31-3.18-1.57-1.68-4.09-2.01-6.17-1.83l-.67,.06,.31-.58c1.04-1.92,2.06-3.74,2.79-5.54,.35-.9,.6-1.8,.6-2.68,.01-.87-.27-1.69-.72-2.39-.94-1.34-2.23-2.48-3.44-3.16-1.29-.64-2.69-.5-3.78-.07-2.23,.91-3.54,2.41-4.42,3.31-.44,.47-.74,.86-.96,1.11-.21,.26-.32,.38-.33,.38-.02,0,.07-.16,.25-.44,.19-.27,.47-.68,.89-1.18,.41-.5,.95-1.1,1.66-1.74,.71-.64,1.6-1.32,2.77-1.81,1.14-.49,2.69-.69,4.14,0,.33,.2,.67,.41,1.02,.62,.31,.25,.62,.5,.94,.76,.6,.56,1.25,1.13,1.75,1.91,.51,.75,.85,1.7,.85,2.69,0,.99-.26,1.97-.61,2.91-.73,1.88-1.74,3.71-2.76,5.65l-.36-.52c1.17-.13,2.34-.07,3.54,.2,1.18,.28,2.39,.83,3.29,1.8,.9,.96,1.46,2.28,1.54,3.61,.13,.67,.01,1.33,.03,2.01-.08,.67-.2,1.33-.31,2.01l-.48-.5c2.21-.33,4.6-.36,6.83,.7,1.1,.54,2.06,1.46,2.62,2.6,.62,1.14,.68,2.44,.72,3.68l-.16-.36c1.81,1.6,3.49,3.41,4.68,5.67,.57,1.13,1.02,2.4,1.01,3.76,0,.68-.16,1.36-.39,2.01-.32,.62-.65,1.22-1.07,1.71-1.63,2.03-3.57,3.77-5.59,5.46-2.03,1.67-4.18,3.26-6.46,4.69-1.21,.76-2.44,1.47-3.73,2.07-1.3,.57-2.61,1.18-4.19,1.15-1.7-.21-2.78-1.42-3.48-2.68-.34-.64-.58-1.32-.73-2.01-.08-.34-.14-.69-.18-1.04l-.05-.53v-.28s0-.06,0-.06h0c.27-.14-.62,.29,.63-.43,.61,.69,.18,.25,.31,.39v.04s0,.09,0,.09v.14s0,.71,0,.71l-.64-.27c-2.16-.93-4.25-1.9-6.03-3.46-.43-.41-.85-.88-1.11-1.48-.25-.6-.3-1.25-.23-1.84,.15-1.21,.65-2.25,1.31-3.2l.13,.66c-1.98-1.27-3.88-2.59-5.21-4.56-.64-1.04-.84-2.24-.82-3.36,.02-1.13,.23-2.2,.58-3.24l.02-.07,.05-.06c1.85-2.11,3.63-4.14,5.31-6.05l.48,.6c-2.63,1.32-5.14,2.55-7.83,3.07-.64,.1-1.49,.15-2.11-.31-.52-.35-1.07-.69-1.56-1.11-.49-.41-.96-.97-1.09-1.68-.12-.7,.12-1.35,.39-1.89,1.25-2.05,2.76-3.54,4.06-5,1.33-1.43,2.55-2.68,3.66-3.78l-.06,.11c.55-2.71,.98-4.84,1.29-6.38,.15-.67,.27-1.21,.36-1.64,.09-.37,.14-.55,.16-.54Z"/>
    </g>
  </g>
  <path class="cls-6" d="M514.48,312.74s4.23,7.62,4.23,14.82-4.21,19.8-4.21,19.8l-5.24,4.95s.06,21.29-19.88,25.79c-19.94,4.5-128.18-65.21-128.18-65.21l-3.11-85.21s16.2,6.75,27.9,18.45c11.7,11.7,78.29,60.74,78.29,60.74,0,0,2.71-17.37,5.7-16.23,3,1.15,44.51,22.1,44.51,22.1Z"/>
  <path class="cls-12" d="M478.44,332.03c-.08,.08-1.39-1.02-3.22-3.08-1.83-2.06-4.14-5.12-6.17-8.82-2.02-3.71-3.35-7.31-4.09-9.96-.74-2.66-.96-4.35-.84-4.38,.3-.09,1.75,6.59,5.77,13.88,3.95,7.32,8.78,12.15,8.55,12.36Z"/>
  <path class="cls-12" d="M476.84,328.56s-.33-.3-.81-.94c-.49-.63-1.11-1.61-1.78-2.87-1.35-2.51-2.72-6.29-3.18-10.65-.44-4.36,.13-8.34,.93-11.08,.4-1.37,.8-2.46,1.15-3.17,.34-.72,.55-1.11,.6-1.08,.14,.06-.53,1.68-1.16,4.41-.64,2.72-1.1,6.59-.66,10.84,.45,4.24,1.69,7.94,2.87,10.47,1.18,2.54,2.17,3.99,2.04,4.07Z"/>
  <g class="cls-3">
    <path class="cls-4" d="M496.25,342.18c-2.21-1.83-7.09-2.97-9.61-4.34-11.44-6.21-17.5-17.59-21.96-29.82l-.39-1.37c.46,16.4,10.85,33.92,25.81,40.64,1.55,.7,3.23,1.31,4.91,1.04,1.67-.28,3.26-1.76,3.06-3.44-.13-1.11-.96-2-1.81-2.71Z"/>
  </g>
  <g>
    <path class="cls-14" d="M279.62,913.9v40.77s9.66,23.26,16.66,27.26c0,0,8.52,6.31,1.33,9.91h-80.33s-4.8,0-5.99-7.19v-64.75l68.34-5.99Z"/>
    <line class="cls-9" x1="268.23" y1="948.48" x2="257.44" y2="948.48"/>
    <line class="cls-9" x1="268.23" y1="956.07" x2="257.44" y2="956.07"/>
    <line class="cls-9" x1="268.48" y1="963.86" x2="257.69" y2="963.86"/>
  </g>
  <g>
    <path class="cls-14" d="M397.62,913.9v40.77s9.66,23.26,16.66,27.26c0,0,8.52,6.31,1.33,9.91h-80.33s-4.8,0-5.99-7.19v-64.75l68.34-5.99Z"/>
    <line class="cls-9" x1="386.23" y1="948.48" x2="375.44" y2="948.48"/>
    <line class="cls-9" x1="386.23" y1="956.07" x2="375.44" y2="956.07"/>
    <line class="cls-9" x1="386.48" y1="963.86" x2="375.69" y2="963.86"/>
  </g>
  <path class="cls-19" d="M218.27,466.17s-15.08,34.19-15.35,68.69c-.11,13.35-6.11,413.34-6.11,413.34h88.06l7.21-365.01,5.61,1.62s23.84,150.47,24.64,174.54c.72,21.63-7.94,188.84-7.94,188.84h89.42l-.48-209.35-4.61-199.26-7.77-71.63-172.69-1.79Z"/>
  <path class="cls-6" d="M260.1,211.68c21.19,26.55,62.76,66.09,62.76,66.09,0,0,6.04-29.1,6.09-49.17l-.77-16.45s27.7-1.83,45.45,9.39c17.75,11.23,26.41,36.1,32.47,118.86,6.06,82.77,13.59,344.21,13.59,344.21,0,0-29.67,29.14-73.08,40.66l-13.7-69.26-7.71,71.17s-71.88,18.75-154.99-24.31c1.96-82.11,8.01-236.53,15.74-286.02,7.73-49.49,3.05-70.03,2.54-104.08-.84-56.1,1.58-80.14,1.58-80.14l70.01-20.96Z"/>
  <g class="cls-11">
    <path class="cls-20" d="M323.37,279.3c19.29,104.45,8.73,271.08,9.55,376.71-6.28-105.28,4.29-271.97-9.55-376.71h0Z"/>
  </g>
  <path class="cls-4" d="M322.86,277.77l33.13,98.9s74.98-43.8,91.25-88.36c0,0-20.16-11.7-33.82-39.88-11.27-23.24-29.61-27.65-45.09-31.77-18.76-4.99-40.14-4.52-40.14-4.52l-5.33,65.62Z"/>
  <path class="cls-18" d="M178.75,473.12c-1.29-3.21-31.79-67.52-31.79-67.52l32.54-57.96,2.51-87.31s-17.82,11.73-19.58,13.6c-7.85,8.4-59.24,107.18-63.03,114.06-5.96,10.85-1.34,30.59,4.18,37.15,6.56,7.8,45.14,66.94,45.14,66.94l30.02-18.96Z"/>
  <path class="cls-18" d="M170.49,455.18s1.62,3.6,10.26,6.93c0,0,6.14,10.69,8.6,13.62,2.46,2.94,27.44,25.51,26.77,29.62-.53,3.29-2.15,3.87-8.43,.13-6.28-3.74-13.96-12.94-18.06-12.68-4.1,.27,13.3,23.39,13.04,30.35-.19,5.15-5.12,5.41-5.12,5.41,0,0-1.61,5.9-6.35,4.03-4.74-1.87-25.34-32.86-23.7-28.85,1.64,4,5.19,12.28,7.1,15.48,1.91,3.2,11.47,13.16,7.1,14.99-4.37,1.83-6.83-1.91-10.65-5.91-3.82-4-17.76-25.09-18.58-25.35s-11.47-14.15-16.12-28.29l34.13-19.49Z"/>
  <path class="cls-6" d="M168.07,429.95l-39.3,34.47-17.51-19.53,3.57-4.03s-24.27-15.62-24.48-28.66c-.21-13.04,19.12-48.95,19.12-48.95,0,0,40.14-87.65,54.56-98.26,2.02-1.48,26.21,41.61,28.33,59.38,2.12,17.77-1.43,18.19-1.43,18.19,0,0-13.35,16.46-18.87,30.64-5.51,14.17-15.85,30.13-23.21,36.41l19.2,20.34Z"/>
  <path class="cls-20" d="M123.68,402.01c0-.06,.4-.14,1.14-.25,.74-.12,1.83-.2,3.17-.2,2.68-.02,6.42,.45,10.3,1.83,3.88,1.39,7.07,3.38,9.16,5.05,2.11,1.67,3.19,2.93,3.13,2.99-.17,.25-4.93-4.56-12.57-7.26-3.78-1.35-7.41-1.89-10.04-2.02-2.63-.14-4.28,0-4.29-.13Z"/>
  <path class="cls-20" d="M135.01,385.99c.04-.07,1.49,.66,3.51,2.33,2.01,1.65,4.51,4.34,6.53,7.8,2.01,3.46,3.11,6.96,3.57,9.52,.47,2.57,.41,4.19,.33,4.2-.14,.01-.3-1.58-.9-4.07-.6-2.49-1.76-5.85-3.71-9.23-1.97-3.37-4.32-6.04-6.2-7.77-1.87-1.74-3.2-2.65-3.12-2.77Z"/>
  <path class="cls-20" d="M150.96,415.7c.01,.15-2.16,.34-5.6,1.06-3.43,.71-8.09,2.09-12.93,4.38-4.83,2.29-8.88,4.98-11.71,7.06-2.83,2.08-4.48,3.51-4.57,3.41-.04-.04,.34-.44,1.05-1.13,.71-.69,1.79-1.64,3.16-2.75,2.75-2.22,6.81-5.02,11.71-7.35,4.9-2.32,9.67-3.63,13.17-4.2,1.75-.29,3.18-.45,4.17-.49,.99-.05,1.54-.05,1.54,0Z"/>
  <g class="cls-3">
    <path class="cls-4" d="M150.09,416.95c-7.45-.5-15.06,1.96-20.81,6.72-.42,.35-.88,.86-.7,1.38,.14,.39,.6,.58,1.02,.54,.41-.04,.78-.26,1.13-.48,5.97-3.57,12.72-6.28,19.36-8.33"/>
  </g>
  <path class="cls-19" d="M197.24,528.36c-.56,.36-5.45-6.23-10.93-14.72-5.48-8.49-9.47-15.66-8.91-16.02,.56-.36,5.45,6.23,10.93,14.72,5.48,8.49,9.47,15.66,8.91,16.02Z"/>
  <circle class="cls-4" cx="311.65" cy="437.95" r="6.42"/>
  <circle class="cls-4" cx="311.65" cy="477.88" r="6.42"/>
  <circle class="cls-4" cx="311.65" cy="517.82" r="6.42"/>
  <path class="cls-4" d="M322.86,277.77l-16.25,101.66s-89.98,13.89-170.25-83.57c0,0,13.42-26.14,24.86-45.23,11.44-19.09,16.62-19.31,34.86-24.33,14.37-3.96,64.02-14.62,64.02-14.62,18.08,27.31,35.76,50.08,62.76,66.09Z"/>
</svg>