<?xml version="1.0" encoding="UTF-8"?>
<svg id="Capa_1" data-name="Capa 1" xmlns="http://www.w3.org/2000/svg" viewBox="0 0 523.63 729.16">
  <defs>
    <style>
      .cls-1 {
        opacity: .2;
      }

      .cls-2 {
        fill: #192e35;
      }

      .cls-3 {
        fill: #1b2545;
      }

      .cls-4 {
        fill: #d2bfdd;
      }

      .cls-5 {
        fill: #ebebeb;
      }

      .cls-6 {
        stroke: #1d2441;
        stroke-miterlimit: 10;
      }

      .cls-6, .cls-7 {
        fill: #1d2441;
      }
    </style>
  </defs>
  <path class="cls-4" d="M280.43,249.31c0,1.8,1.84,1.91-3.73,5.15-15.7,9.14-32.5,14.63-50.81,14.87-11.18,.14-13.84-3.82-13.84-3.82,0,0,.5-4.22,0-7.2-.39-2.32,.66-2.29,.43-4.55-.88-8.62-1.66-17.24-2.35-25.88-.13-1.68-.96-2.39-2.28-3.04-20.25-10-28.9-26.56-27.38-48.76,.15-2.22-.38-3.82-1.68-5.63-4.76-6.61-6.93-13.94-5.49-22.18,.77-4.43,3.67-7.2,7.01-9.71,2.29-.87,4.47-.64,6.55,.6,1.46-5.08,2.36-10.37,3.31-15.66,.85-4.76,1.88-5.43,6.39-4.13,13.12,3.78,26.27,4.5,39.5,.59,1.28-.38,3.01-1.05,3.71,.5,.67,1.46-.88,2.44-1.95,3.24-2.41,1.82-4.94,3.49-7.84,5.85,9.06,.54,17.45,1.23,24.77-4.59,3.12-2.48,3.84-2.15,4.54,1.99,.85,5.07,3.44,8.87,7.72,11.68,2.97,1.95,6.33,3.42,8.48,6.48,1.17,1.66,2.65,.75,4.11,.41,2.99-.69,5.95-2.59,9.08-.44,6.83,3.72,8.41,9.54,6.85,16.75-1.73,7.98-5.16,14.77-12.56,18.95-.84,.48-1.96,.9-2.04,1.9-.5,6.23-3.91,11.69-4.65,17.84-8.81,16.71-24.18,26-39.79,28.88,1.64,.03,2.95,.8,4.34,1.32,9.12,3.35,18.47,5.4,28.27,5.27,2.96-.04,6.08-.82,8.88,.92,.04,.13,.07,.27,.13,.39,1.07,2.24,1.08,4.63,1.57,6.84l.76,3.38v1.8Z"/>
  <path class="cls-3" d="M288.67,145.09c-3.84,.27-7.73,.44-11.13,2.52-1.27,.78-2.04,.61-2.48-.73-1.02-3.06-3.61-4.3-6.17-5.71-6.58-3.61-10.91-8.76-10.93-17.19-8.86,8.39-19.24,7.54-30.8,6.26,4.75-3.55,8.66-6.48,12.57-9.4-8.01,2.01-15.92,3.03-24.05,2.85-7.1-.16-13.94-1.53-20.62-3.71-2.3-.75-3.14-.53-3.49,1.97-.58,4.21-1.57,8.36-2.2,12.57-.56,3.76-2.04,5.99-6.29,4.71-.91-.27-1.85-.45-2.78-.66-3.41-7.78-3.48-15.81-1.34-23.85,.64-2.4,.48-4.11-1.09-6.03-1.1-1.35-1.9-3.05-2.45-4.73-1.84-5.6-1.27-7.26,3.38-11.05,14.35-11.69,31.03-14.57,48.89-12.91,10.27,.95,20.47,2.98,28.5,9.69,5.99,5.02,12.4,8.78,19.27,12.38,13.05,6.83,18.54,22.46,14.52,38.24-.41,1.6-.88,3.18-1.32,4.77Z"/>
  <path class="cls-3" d="M277.97,236.91c-17.61,.88-33.87-2.09-42.79-7.86,1.4-1.73,3.54-1.22,5.28-1.68,14.23-3.78,25.24-11.83,33.06-24.29,.67-1.06,.82-2.81,2.75-2.56,.25,12.14,2.33,24.2,1.7,36.38Z"/>
  <path class="cls-3" d="M205.86,162.63c-.56,2.16-1.48,3.99-4.01,3.93-2.51-.06-3.73-1.86-3.75-4.06-.02-2.3,1.5-3.95,3.87-3.96,2.48,0,3.37,1.95,3.89,4.08Z"/>
  <path class="cls-3" d="M246.06,159.08c2.63,0,3.79,1.56,3.71,3.9-.07,2.4-1.48,3.77-4.01,3.67-2.37-.1-3.44-1.48-3.45-3.72-.02-2.47,1.2-3.82,3.75-3.85Z"/>
  <path class="cls-3" d="M243.96,145.2c-1.85-.61-4.95,1.22-4.96-2.52,0-2.54,2.3-2.65,3.92-2.31,2.14,.45,5.76-.78,5.97,2.61,.22,3.64-3.2,1.56-4.92,2.21Z"/>
  <path class="cls-3" d="M202.49,144.49c-.49,.02-1.07-.07-1.57,.09-2.24,.75-4.53,.56-4.69-2.03-.16-2.55,2.45-2.35,4.33-2.45,.68-.03,1.36,0,2.04,0,1.91-.03,3.92,.34,3.75,2.62-.15,2.04-2.02,2.28-3.87,1.78Z"/>
  <path class="cls-3" d="M231.94,192.55c-4.02,3-7.99,4.32-12.32,4.63-1.44,.1-3,.16-3.12-1.9-.12-1.99,1.3-2.16,2.82-2.3,4.19-.39,8.07-1.65,11.27-4.51,1.37-1.22,2.81-2.19,4.18-.38,1.38,1.84-.55,2.64-1.64,3.59-.53,.46-1.14,.83-1.19,.86Z"/>
  <path class="cls-7" d="M274.24,237.91s-23.08,21.42-41.68,21.31c-18.6-.1-23.07-9.87-23.07-9.87l-10.47,13.34s-.99,86.98-2.16,88.49c-1.17,1.51,10.94,9.09,10.94,9.09l61.72-88.6,4.71-33.76Z"/>
  <g>
    <path class="cls-5" d="M143.5,557.47s-8.74-2.88-11.12-10.98c-2.38-8.1,4.13-89.05,4.13-89.05l4.91-4.89-3.75-3.01v-25.72l8.75-54.14s8.6-74.38,19.04-79.71l16.2,73.65-11.91,172.73-26.27,21.11Z"/>
    <path class="cls-5" d="M209.49,249.35h0l-1.22-7.56c-2.81,2.2-10.28,13.88-10.28,13.88-10.25,8.67-31.64,30.57-35.54,39.14-5.53,12.17-6.08,68.03-6.08,68.03l-20.32,275.89h215.63l-10.79-124.5-5.87-246.93-45.35-22.82-12.16-13.37-76.4,124.52,.54-83.85c.05-8.14,2.81-16.02,7.83-22.42Z"/>
    <path class="cls-5" d="M404.32,475.9c4.85-9.36,5.72-20.27,2.7-30.37-10.39-34.72-42.71-142.2-48.6-155.57-6.46-14.67-24.9-23.42-24.9-23.42l-28.37,74.51,7.21,34.74,25.99,74.2h0l-76.05,88.97,54.35,44.71s81.96-96.96,87.49-107.46c.06-.11,.11-.21,.16-.32Z"/>
    <path class="cls-4" d="M204.73,547.17c.57-.22,19.86,3.28,23.53,2.31,3.66-.96,11.76-3.09,20.64-3.86,8.87-.77,18.6-2.39,18.6-2.39l37.52,30.86-15.43,5.47s-9.84,1.54-23.72-2.7c-13.89-4.24-36.45-15.81-36.45-15.81,0,0-8.87,.39-15.43-.77-6.56-1.16-17.36-10.03-9.26-13.11Z"/>
    <path class="cls-6" d="M198.03,639.38s.03-.26,.04-.76c0-.55,.02-1.28,.03-2.22,0-2,0-4.87,0-8.53-.04-7.46-.11-18.16-.19-31.36-.19-26.48-.64-63.06-.56-103.46,.04-20.21,.23-39.45,.56-56.96,.2-8.75,.39-17.06,.56-24.85,.35-7.77,.68-15.01,.98-21.63,.57-13.19,1.03-23.88,1.35-31.33,.14-3.66,.24-6.52,.32-8.52,.02-.94,.04-1.67,.06-2.22,0-.5,0-.76-.01-.76-.02,0-.05,.25-.09,.75-.04,.54-.09,1.28-.16,2.21-.12,2-.29,4.86-.5,8.51-.4,7.45-.96,18.14-1.66,31.32-.34,6.62-.71,13.86-1.1,21.63-.2,7.79-.42,16.1-.65,24.85-.37,17.51-.59,36.76-.63,56.97-.07,40.41,.48,76.99,.85,103.47,.21,13.2,.38,23.9,.5,31.36,.08,3.66,.13,6.52,.18,8.53,.03,.94,.05,1.67,.07,2.22,.02,.5,.04,.76,.06,.76Z"/>
    <path class="cls-6" d="M289.67,244.47s-.24,.27-.63,.83c-.43,.63-1,1.46-1.7,2.5-1.51,2.28-3.63,5.47-6.28,9.47-5.37,8.22-12.87,19.7-21.63,33.12l.27-.2c-5.12,1.28-10.57,2.64-16.2,4.05l-.59,.15,.28,.54c1.81,3.54,3.71,7.25,5.64,11.03,.3,.58,.59,1.16,.87,1.69l.05-.52c-13.89,18.03-26.41,34.27-35.51,46.09-4.45,5.86-8.07,10.61-10.63,13.98-1.2,1.61-2.15,2.88-2.85,3.83-.29,.4-.53,.73-.72,1.01-.16,.23-.23,.35-.22,.36,.01,.01,.11-.09,.3-.3,.22-.26,.48-.57,.8-.95,.74-.91,1.73-2.15,2.99-3.71,2.62-3.32,6.32-8.02,10.88-13.79,9.17-11.78,21.77-27.96,35.75-45.91l.19-.24-.14-.28c-.27-.53-.57-1.11-.87-1.69-1.94-3.77-3.84-7.48-5.65-11.02l-.31,.69c5.63-1.42,11.07-2.8,16.19-4.09l.18-.04,.1-.15c8.64-13.49,16.04-25.05,21.34-33.31,2.56-4.06,4.6-7.3,6.06-9.61,.66-1.07,1.18-1.93,1.58-2.58,.35-.59,.52-.9,.5-.92Z"/>
    <path class="cls-6" d="M199.8,372.4s-.12-.44-.42-1.24c-.28-.81-.81-1.96-1.33-3.51-1.1-3.07-2.53-7.57-4.08-13.21-3.05-11.29-6.53-27.15-9.59-44.93l-.07,.33c.45-.73,.93-1.52,1.42-2.31,2.63-4.29,5.2-8.48,7.66-12.49l.6-.98-1.12,.27c-3.13,.75-6.17,1.48-9.09,2.19l.54,.59c4.04-12.05,7.5-22.36,9.98-29.77,1.17-3.59,2.1-6.48,2.78-8.57,.29-.94,.52-1.69,.7-2.3,.15-.52,.22-.8,.19-.81-.02,0-.14,.25-.33,.76-.22,.59-.5,1.33-.84,2.25-.74,2.07-1.76,4.93-3.03,8.49-2.57,7.39-6.14,17.66-10.32,29.66l-.27,.78,.81-.19c2.92-.69,5.96-1.41,9.1-2.15l-.52-.71c-2.47,4-5.04,8.18-7.68,12.47-.49,.79-.97,1.58-1.42,2.31l-.1,.16,.03,.18c3.07,17.82,6.66,33.68,9.9,44.95,1.64,5.63,3.17,10.12,4.39,13.16,.57,1.53,1.16,2.67,1.5,3.45,.36,.78,.56,1.18,.59,1.17Z"/>
    <path class="cls-4" d="M146.79,523.01s13.96,.95,18.4,2.96c4.44,2.02,7.52,8.88,11.02,11.7,3.5,2.82,8.75,4.23,7.54,7.76-1.21,3.53-6.05,5.96-10.49,4.34-4.44-1.61-9.68-4.34-9.68-4.34h-22.19s-4.44-17.55-4.84-17.3c-.4,.25,6.23-5.16,10.25-5.13Z"/>
    <path class="cls-6" d="M157.37,334.83c-.27,0-.49,42.34-.49,94.57s.22,94.57,.49,94.57,.49-42.33,.49-94.57-.22-94.57-.49-94.57Z"/>
    <path class="cls-6" d="M362.46,528.91s-.31,.31-.87,.95c-.59,.68-1.4,1.63-2.46,2.85-2.17,2.55-5.31,6.25-9.3,10.96-8.03,9.54-19.52,23.19-33.46,39.75l.56-.05c-15.63-12.89-34.19-28.19-54.3-44.78l.06,.69c5.63-6.58,11.51-13.46,17.51-20.48,21.56-25.27,41.67-48.83,58.48-68.54l.15-.18-.08-.22c-7.88-22.29-14.44-40.81-19.03-53.8-2.31-6.43-4.12-11.5-5.37-15-.62-1.69-1.1-3-1.44-3.93-.33-.89-.54-1.33-.54-1.33,0,0,.12,.48,.41,1.38,.31,.94,.76,2.27,1.33,3.97,1.2,3.52,2.95,8.61,5.16,15.07,4.52,13.02,10.96,31.58,18.7,53.92l.08-.4c-16.85,19.68-36.99,43.21-58.6,68.44-5.99,7.02-11.88,13.9-17.5,20.48l-.32,.37,.38,.31c20.15,16.53,38.74,31.79,54.41,44.65l.31,.25,.25-.3c13.83-16.66,25.23-30.38,33.2-39.97,3.93-4.77,7.01-8.51,9.14-11.1,1.02-1.26,1.81-2.23,2.37-2.93,.53-.67,.78-1.03,.78-1.03Z"/>
    <path class="cls-6" d="M367.65,455.55c.06-.09-1.25-1.21-3.69-2.54-2.43-1.33-6.05-2.77-10.25-3.47-4.21-.69-8.1-.49-10.83,0-2.74,.48-4.34,1.12-4.31,1.22,.04,.33,6.73-1.67,14.98-.25,8.26,1.31,13.96,5.35,14.1,5.05Z"/>
    <polygon class="cls-5" points="158.18 545.44 139.5 545.44 162.84 615.51 169.77 566.62 158.18 545.44"/>
    <path class="cls-6" d="M163.57,545.44s-.6-.09-1.73-.13c-1.26-.03-2.88-.07-4.89-.12-4.36-.04-10.33-.1-17.46-.17h-.58s.18,.55,.18,.55c2.27,6.88,4.95,14.98,7.8,23.63,4.27,12.83,8.2,24.43,11.08,32.81,1.43,4.08,2.6,7.43,3.46,9.91,.4,1.08,.72,1.96,.99,2.68,.24,.61,.38,.92,.41,.91s-.05-.35-.22-.97c-.22-.73-.49-1.64-.81-2.74-.79-2.5-1.86-5.88-3.17-10-2.72-8.43-6.53-20.07-10.81-32.9-2.9-8.64-5.62-16.72-7.93-23.59l-.4,.55c7.12-.07,13.1-.13,17.46-.17,2-.05,3.63-.09,4.89-.12,1.13-.04,1.73-.08,1.73-.13Z"/>
    <path class="cls-6" d="M157.37,523.97c.01-.05-.75-.34-2.19-.68-1.43-.33-3.55-.72-6.21-.75-2.63,0-5.93,.37-9.06,2.17-3.16,1.77-5.62,5.11-7.04,8.92-2.9,7.76-.7,15.94,3.21,19.68,1.93,1.89,3.9,2.86,5.24,3.45,1.37,.57,2.16,.75,2.18,.7,.03-.07-.73-.38-2.02-1.04-1.28-.68-3.14-1.73-4.91-3.59-3.56-3.63-5.56-11.46-2.79-18.86,1.37-3.65,3.67-6.81,6.58-8.49,2.9-1.73,6.05-2.17,8.61-2.25,5.19-.06,8.36,.95,8.39,.74Z"/>
    <path class="cls-6" d="M298.57,577.51c-.06-.21-3.79,1.85-10.39,2.17-3.28,.17-7.21-.13-11.46-1.07-4.26-.92-8.81-2.46-13.55-4.2-9.49-3.52-18.09-6.66-24.34-8.89-3-1.05-5.5-1.92-7.42-2.59-1.76-.59-2.74-.89-2.77-.83s.92,.48,2.63,1.18c1.89,.75,4.35,1.71,7.31,2.88,6.19,2.39,14.75,5.64,24.24,9.16,4.75,1.75,9.36,3.29,13.7,4.17,4.33,.91,8.35,1.15,11.69,.88,3.35-.24,5.99-.97,7.73-1.62,.88-.33,1.54-.62,1.97-.85,.44-.23,.66-.36,.64-.39Z"/>
    <path class="cls-6" d="M294.53,638.66c.27,.03,1.62-11.55,3.01-25.85,1.39-14.31,2.31-25.92,2.04-25.95-.27-.03-1.62,11.55-3.01,25.85-1.39,14.3-2.31,25.92-2.04,25.95Z"/>
    <path class="cls-2" d="M232.55,373.47s-2.36,1.82-2.18,4.72c.18,2.91,0,22.7,0,22.7,0,0-.73,2.91,2.18,2.91v-30.33Z"/>
    <rect class="cls-2" x="231.98" y="370.24" width="6.07" height="9.93"/>
    <path class="cls-2" d="M236.83,371.37h-3.72v-3.83c0-1.03,.83-1.86,1.86-1.86h0c1.03,0,1.86,.83,1.86,1.86v3.83Z"/>
    <path class="cls-2" d="M283.87,379.57c0-.27-13.63-.49-30.44-.49s-30.44,.22-30.44,.49,13.63,.49,30.44,.49,30.44-.22,30.44-.49Z"/>
    <g class="cls-1">
      <path d="M247.71,431.68c-5.04-.39-10.17-1.52-14.34-4.38-4.16-2.87-7.03-8.56-8.11-12.03,.5,4.04,1,9.02,2.38,12.85,1.38,3.83,3.72,7.44,7.18,9.59,3.98,2.48,8.94,2.75,13.61,2.37,6.26-.51,12.43-2.05,18.19-4.56,4.1-1.79,8.4-4.59,9.24-8.98-8.73,4.1-18.53,5.89-28.15,5.15Z"/>
    </g>
  </g>
</svg>