<?xml version="1.0" encoding="UTF-8"?>
<svg id="Capa_1" data-name="Capa 1" xmlns="http://www.w3.org/2000/svg" viewBox="0 0 1001.83 711.05">
  <defs>
    <style>
      .cls-1 {
        fill: #83ceeb;
      }

      .cls-2 {
        fill: #988ba1;
      }

      .cls-3 {
        fill: #eeeae4;
      }

      .cls-4 {
        fill: #d1bedc;
      }

      .cls-5 {
        stroke-width: 2px;
      }

      .cls-5, .cls-6, .cls-7 {
        stroke-miterlimit: 10;
      }

      .cls-5, .cls-7 {
        stroke: #1d2441;
      }

      .cls-5, .cls-8 {
        fill: #192e35;
      }

      .cls-9 {
        fill: #1d2440;
      }

      .cls-6 {
        fill: none;
        stroke: #eeeae4;
        stroke-width: 1.12px;
      }

      .cls-10 {
        fill: #8b8390;
      }

      .cls-11 {
        fill: #639cb2;
      }

      .cls-7 {
        stroke-width: .75px;
      }

      .cls-7, .cls-12 {
        fill: #1d2441;
      }

      .cls-13 {
        fill: #1b2545;
      }

      .cls-14 {
        fill: #d2bfdd;
      }
    </style>
  </defs>
  <path class="cls-8" d="M689.6,365.6c2.46,9.49-.82,20.24-8.16,26.74-4.82,4.27-11.11,6.74-15.51,11.45-5.66,6.05-7.29,15.32-4.81,23.23,2.48,7.91,8.71,14.37,16.19,17.95,10.2,4.88,22.76,4.45,32.6-1.11,12.24-6.92,19.37-20.79,21.17-34.73,1.8-13.94-1.03-28.07-4.71-41.64"/>
  <path class="cls-2" d="M843.9,611.48c12.67-2.07,24.54,1.8,37.07,4.57,3.38,.75,6.91,1.4,10.26,.55,5.43-1.38,9.3-6.67,10.14-12.22,.73-4.8-.52-9.83-3.2-13.87-1.13-1.71-2.55-3.29-4.34-4.31-1.83-1.04-3.96-1.44-6.06-1.65-7.63-.74-15.39,.96-22.33,4.21-6.94,3.25-13.1,8.01-18.52,13.43-2.65,2.65-1.86,5.72-3.03,9.28"/>
  <path class="cls-8" d="M587.12,407.12c-2.02-12.02-1.77-24.41,.74-36.34,1.22-5.8,3.01-11.58,6.26-16.55,1.18-1.81,2.64-3.56,4.65-4.36,2.77-1.11,6.06-.08,8.25,1.94,2.85,2.65,4.03,6.74,3.91,10.63-.12,3.89-1.4,7.65-2.82,11.27-4.9,12.51-12.62,22.89-20.98,33.4"/>
  <path class="cls-14" d="M830.8,440.67c2.89,2.04,62.58,136.65,62.58,136.65l6.39,14.69c-5.11-2.2-13.4-2.79-18.84-1.63l-3.45,.92c-6.18,1.65-12.04,4.32-17.34,7.91l-16.23,12.28-1.61-.95c-.64-.64-.82-1.37-.98-3.05l-.05-.53-51.25-84.68,40.78-81.61Z"/>
  <path class="cls-1" d="M593.66,234.73l16.96,96.44c5.47,12.98,69.15,91.62,69.15,91.62l-21.06,67.65-83.63-114.36c-7.77-8.31-11.99-19.31-11.78-30.68l3.27-103.04,27.09-7.63Z"/>
  <path class="cls-14" d="M683.95,407.67l43.67,3.3,38.08,5.91s65.73,17.75,65.73,25.07c0,2.43-11.54,56.52-21.71,91.31-4.39,15.02,2.55,33.21,2.55,33.21l20.21,73.02-177.93,.41v-70.88s2.59-92.22,4.49-104.83c1.9-12.61,24.9-56.52,24.9-56.52Z"/>
  <path class="cls-11" d="M572.99,195.76c.25-9.82,1.25-19.62,3-29.29,.25-1.37,.81-3.04,2.19-3.22,1.71-.22,2.58,1.97,2.8,3.68,1.51,11.63,1.03,23.52-1.43,34.99"/>
  <path class="cls-14" d="M592.41,399.98c18.74-16.75,19.37-45.76,17.77-68.85-.12-1.7-.25-3.56,.73-4.96,1.78-2.55,6.14-1.61,7.88,.97,1.74,2.58,1.65,5.94,1.48,9.05,.96-2.64,5.08-2.62,7.01-.59,1.93,2.04,2.26,5.07,2.48,7.87,.21,2.58,.42,5.16,.62,7.73l54.74,52.17s1.51-4.68,5.53-2.01c4.02,2.68,6.62,8.5,6.62,8.5l-38.58,84.2-71.59-87.1s2.25-4.27,5.3-7Z"/>
  <path class="cls-14" d="M663.5,452.17c-3.83,8.94-4.6,15.1-5.75,24.27-1.28,10.22,1.28,15.33,1.92,31.29,.52,13.01,2.55,24.27,6.39,42.14"/>
  <path class="cls-1" d="M843.9,611.48l2.86,27.78h44.7l.45-49.24h0c-12.36-.69-24.55,3.13-34.3,10.75l-13.71,10.71Z"/>
  <path class="cls-8" d="M611.48,393.78c-.05-.03,.27-.82,.89-2.22,.64-1.4,1.49-3.45,2.45-6.02,.98-2.56,1.99-5.67,2.96-9.16,.92-3.5,1.78-7.39,2.39-11.53,.59-4.14,.88-8.11,1-11.73,.07-3.62,0-6.89-.22-9.62-.2-2.73-.42-4.95-.63-6.47-.19-1.52-.27-2.37-.22-2.38,.06-.01,.24,.82,.54,2.33,.31,1.51,.63,3.72,.9,6.47,.28,2.74,.43,6.03,.4,9.68-.07,3.65-.35,7.66-.94,11.84-.62,4.17-1.51,8.09-2.48,11.61-1.01,3.51-2.09,6.62-3.14,9.17-1.04,2.55-1.98,4.58-2.71,5.94-.71,1.37-1.13,2.11-1.18,2.08Z"/>
  <path class="cls-8" d="M623.41,379.09c-.11-.06,.65-1.55,1.69-4.02,1.05-2.47,2.31-5.95,3.24-9.93,.91-3.98,1.31-7.67,1.45-10.34,.14-2.68,.11-4.34,.24-4.35,.1,0,.34,1.66,.34,4.37,0,2.71-.3,6.47-1.23,10.51-.94,4.04-2.31,7.55-3.51,9.98-1.19,2.44-2.14,3.82-2.22,3.78Z"/>
  <path class="cls-5" d="M827.31,581.35c-.2,.12-6.56-10.29-14.21-23.23-7.65-12.95-13.7-23.54-13.5-23.65,.2-.12,6.56,10.28,14.21,23.23,7.65,12.94,13.7,23.54,13.5,23.65Z"/>
  <path class="cls-1" d="M593.81,235.8c-2.54-24.07-7.15-46.71-8.39-70.33-.06-1.18-.2-2.52-1.12-3.26-1.26-1.01-3.28-.2-4.1,1.19-.82,1.39-.81,3.1-.8,4.71,.05,12.52-2.08,25.05-6.27,36.84-2.72,7.66-6.31,15.04-8.36,22.9-2.05,7.87,1.78,10.54,5.32,17.86"/>
  <g>
    <path class="cls-12" d="M512.99,140.46c-.15,.17-9.05-7.07-19.88-16.17-10.84-9.11-19.5-16.63-19.35-16.81,.15-.17,9.05,7.07,19.88,16.18,10.83,9.11,19.5,16.63,19.35,16.81Z"/>
    <path class="cls-12" d="M558.12,129.62c-.23,.01-1.12-14.06-2-31.42-.88-17.37-1.4-31.45-1.18-31.46,.23-.01,1.12,14.05,2,31.42,.88,17.36,1.4,31.45,1.18,31.46Z"/>
    <path class="cls-12" d="M529.38,119.57c-.22,.07-2.99-7.96-6.2-17.93-3.21-9.97-5.63-18.11-5.41-18.18,.22-.07,2.99,7.96,6.2,17.93,3.21,9.97,5.63,18.11,5.41,18.18Z"/>
    <path class="cls-12" d="M503.76,155.3c-.09,.21-5.56-2.1-12.21-5.15-6.65-3.05-11.96-5.69-11.87-5.9,.09-.21,5.56,2.1,12.21,5.15,6.65,3.05,11.96,5.69,11.87,5.9Z"/>
    <path class="cls-12" d="M462.11,137.12c-.03,.23-1.35,.25-2.94,.05-1.6-.2-2.87-.54-2.84-.77,.03-.23,1.35-.25,2.94-.05,1.6,.2,2.87,.54,2.84,.77Z"/>
    <path class="cls-12" d="M518.79,73.24c-.23,0-.41-1.29-.41-2.89s.18-2.89,.41-2.89,.41,1.29,.41,2.89-.18,2.89-.41,2.89Z"/>
    <path class="cls-12" d="M614.11,95.59c.17,.15-7.13,8.53-16.3,18.71-9.18,10.18-16.75,18.31-16.92,18.16-.17-.15,7.13-8.53,16.31-18.71,9.17-10.18,16.75-18.31,16.92-18.16Z"/>
    <path class="cls-12" d="M625.73,84.08c.16,.16-.68,1.26-1.88,2.46s-2.3,2.04-2.46,1.88c-.16-.16,.68-1.26,1.88-2.46,1.2-1.2,2.3-2.04,2.46-1.88Z"/>
    <path class="cls-12" d="M653.94,124.6c.03,.05-.74,.5-2.15,1.28-1.41,.78-3.47,1.86-6.04,3.15-5.14,2.59-12.34,5.98-20.45,9.34-8.12,3.36-15.6,6.07-21.06,7.87-2.73,.9-4.95,1.6-6.5,2.05-1.54,.45-2.41,.67-2.42,.62-.02-.05,.81-.38,2.32-.92,1.65-.59,3.81-1.36,6.41-2.29,5.41-1.94,12.84-4.73,20.94-8.08,8.09-3.36,15.31-6.65,20.51-9.11,2.49-1.18,4.56-2.16,6.15-2.92,1.45-.69,2.27-1.04,2.3-.99Z"/>
    <path class="cls-12" d="M630.78,163.56c.03,.1-1.57,.67-4.2,1.39-2.63,.72-6.31,1.58-10.42,2.29-4.11,.7-7.86,1.11-10.59,1.3-2.72,.19-4.41,.19-4.42,.08,0-.12,1.67-.32,4.36-.66,2.7-.34,6.42-.84,10.51-1.53,4.09-.7,7.76-1.46,10.42-2.04,2.66-.58,4.3-.94,4.34-.82Z"/>
    <path class="cls-12" d="M651.82,159.67c0,.23-2.04,.41-4.56,.41s-4.56-.18-4.56-.41,2.04-.41,4.56-.41,4.56,.18,4.56,.41Z"/>
  </g>
  <path class="cls-1" d="M570.08,245.73c-6.31-4.71-9.67-13.07-8.36-20.84,.8-4.75,3.15-9.06,5.03-13.49,1.88-4.43,3.31-9.35,2.17-14.02-.44-1.79-1.25-3.52-1.26-5.36,0-1.84,1.18-3.9,3.02-3.98,1.39-.06,2.57,.99,3.44,2.08,3.07,3.82,5.56,14.97,4,23.28"/>
  <path class="cls-11" d="M578.12,213.39c-.08-.01,.16-1.28,.26-3.59,.08-2.3-.02-5.67-.81-9.72-.4-2.02-.98-4.22-1.89-6.44-.46-1.1-1-2.24-1.77-3.22-.76-.96-1.77-1.93-2.97-2.01-1.2-.09-2.25,.96-2.64,2.21-.44,1.26-.16,2.68,.26,4.07,.43,1.39,.95,2.9,1.1,4.49,.16,1.58,.1,3.19-.17,4.78-1.1,6.42-4.53,11.62-6.26,16.75-.89,2.56-1.43,5.1-1.41,7.5-.01,2.4,.37,4.63,.98,6.59,1.22,3.93,3.23,6.7,4.76,8.4,1.55,1.7,2.61,2.45,2.56,2.52-.02,.02-.28-.16-.78-.52-.5-.36-1.2-.94-2.01-1.78-1.62-1.66-3.75-4.43-5.08-8.44-.65-2-1.09-4.29-1.1-6.77-.05-2.49,.49-5.13,1.38-7.75,1.74-5.26,5.12-10.45,6.16-16.64,.26-1.53,.32-3.07,.17-4.56-.14-1.5-.61-2.89-1.06-4.34-.42-1.42-.77-3.05-.23-4.55,.25-.73,.65-1.42,1.25-1.94,.58-.53,1.4-.83,2.18-.78,1.62,.15,2.69,1.31,3.5,2.32,.83,1.08,1.37,2.26,1.83,3.41,.92,2.3,1.46,4.54,1.83,6.59,.73,4.12,.74,7.52,.56,9.85-.1,1.16-.22,2.06-.35,2.66-.12,.6-.2,.91-.22,.91Z"/>
  <polygon class="cls-4" points="233.12 533.2 208.72 639.49 260.33 639.65 284.18 546.18 233.12 533.2"/>
  <path class="cls-8" d="M486.6,402.62c-4.91-6.58-10.54-12.9-13.13-20.68-1.25-3.76-1.74-7.75-3.07-11.48-1.33-3.73-3.75-7.38-7.45-8.78-3.71-1.41-6.52,.02-8.93,2.65l-17.71,51.81,10.21,39.8c10.19-2.3,22.96-5.02,32.47-9.31,9.52-4.29,15.9-11.16,16.49-21.58,.47-8.19-3.98-15.83-8.88-22.41Z"/>
  <path class="cls-4" d="M544.22,174.06c.51-3.63-2.03-7.62-.21-10.8,1.01-1.76,1.13-3.88,3.02-4.61,.98-.38,1.98-.76,3.03-.72,1.05,.03,2.15,.59,2.49,1.58,.4,1.16-.34,2.4-1.21,3.27-.87,.87-1.29,2.9-1.75,4.03-.76,1.86-.34,2.53,1.86,7.79,1.08,2.6,4.9,14.14,5.23,16.94"/>
  <path class="cls-4" d="M531.23,175.32c.23-5.49,4.33-24.8,4.56-30.3,3.71,1.15,6.32,3.84,7.02,7.66,.7,3.82,.23,6.71,.89,10.54,.89,5.14,3.56,9.78,6.26,14.25,2.7,4.47,5.5,8.99,6.71,14.07,1.21,5.08,5.81,18.23,2.23,22.03"/>
  <path class="cls-4" d="M530.2,212.35l-22.01,104.6c-.78,4.72-83.46,76.83-83.46,76.83l16.33,65.23,107.71-105.31c7.77-8.31,11.99-19.31,11.78-30.68l-1.83-98.14-28.53-12.53Z"/>
  <path class="cls-4" d="M526.44,175.98l3.76,36.38,28.53,12.53s.35-2.58,1.58-15.19c1.35-13.91-13.6-19.88-20.25-30.14-2.85-4.39-2.1-12.47-4.31-22.47-.25-1.15-1.84-5.59-2.7-9.34-.47-2.08-1.65-3.95-3.42-5.14-1.28-.86-2.75-1.29-3.82,0-1.09,1.31,.63,33.38,.63,33.38Z"/>
  <path class="cls-4" d="M544.23,218.46c3.24-2.74,3.93-7.65,2.74-11.72-1.2-4.07-3.94-7.49-6.72-10.69-2.78-3.21-5.71-6.4-7.43-10.28-1.21-2.73-1.76-5.73-3.09-8.41-1.33-2.68-3.75-5.13-6.73-5.25,2.39,15.05,2.33,23.71,7.21,40.24"/>
  <path class="cls-7" d="M525.89,189.24c0,.06-.11-.41-.29-1.21-.21-.96-.47-2.11-.76-3.45-.67-3.15-1.15-6.52-2.13-11.15v-1.28h1.28c1.92,.64,2.55,.79,4.03,2.1,2.49,2.12,3.63,5.1,4.46,7.62,.83,2.57,1.54,4.85,2.5,6.61,.88,1.81,2.09,2.91,2.78,3.84,.69,.92,.99,1.47,.95,1.5-.05,.04-.44-.46-1.19-1.3-.73-.82-2.07-1.92-3.05-3.76-1.06-1.78-1.85-4.12-2.71-6.64-.87-2.5-1.97-5.29-4.28-7.24-1.38-1.21-2.46-1.29-4.09-1.18l.37-.48c1.89,9.53,2.49,16.03,2.15,16.02Z"/>
  <path class="cls-7" d="M538.05,179.99c-.23,.03-1.4-6.62-2.63-14.85-1.23-8.24-2.04-14.94-1.81-14.97,.22-.03,1.4,6.62,2.63,14.85,1.23,8.23,2.04,14.94,1.81,14.97Z"/>
  <path class="cls-7" d="M547.12,181.21s.11,.17,.21,.56l-.24,.05c-.53-1.31-1.78-5.41-2.87-10.35-.68-3.05-1.18-5.84-1.48-7.87-.3-2.03-.4-3.3-.29-3.31,.23-.04,1.21,4.92,2.57,11.01,1.09,4.92,2.1,9.06,2.31,10.46l-.24,.05c-.02-.4,0-.59,.04-.59Z"/>
  <path class="cls-7" d="M553.37,201.26c-.12,.07-.69-.82-1.84-2.04-1.14-1.22-2.93-2.72-5.22-3.83-2.3-1.1-4.58-1.57-6.25-1.7-1.67-.14-2.72-.03-2.74-.17-.02-.09,1.02-.4,2.77-.41,1.74-.02,4.17,.39,6.58,1.54,2.41,1.17,4.24,2.82,5.3,4.19,1.08,1.37,1.48,2.38,1.4,2.42Z"/>
  <path class="cls-7" d="M532.14,215.22c-.1,.04-.86-1.59-1.87-4.3-1.01-2.72-2.24-6.54-3.27-10.85-1.03-4.31-1.66-8.27-1.99-11.15-.33-2.88-.38-4.68-.28-4.69,.12-.01,.38,1.76,.85,4.6,.47,2.85,1.19,6.77,2.21,11.04,1.03,4.28,2.16,8.1,3.02,10.85,.87,2.75,1.44,4.45,1.32,4.49Z"/>
  <path class="cls-9" d="M405.42,395.64c2.65-4.41,9.15-5.93,13.48-3.15,11.62-9.45,23.5-18.71,35.12-28.16-3.79,18.94-6.29,45.49,2.17,62.85,0,0,10.71,19.92,27.78,16.87l-15.21,14.96-24.06,22.24"/>
  <path class="cls-3" d="M414.19,416.17c-.08,.04-.77-1.22-1.32-3.46-.56-2.23-.85-5.46-.24-8.95,.62-3.48,2.01-6.42,3.3-8.32,1.29-1.91,2.37-2.85,2.43-2.79,.11,.09-.81,1.17-1.94,3.1-1.13,1.93-2.38,4.79-2.99,8.16-.59,3.36-.4,6.48,0,8.68,.39,2.21,.89,3.53,.75,3.58Z"/>
  <path class="cls-6" d="M288.34,576.38c-.23,0-.41-22.5-.41-50.25s.18-50.25,.41-50.25,.41,22.49,.41,50.25-.18,50.25-.41,50.25Z"/>
  <g id="OYJhNN">
    <g>
      <path class="cls-4" d="M386.51,377.86c2.56-1.62,5.27-2.98,7.58-4.98,9.09-7.87,13.74-17.73,13.46-29.84-.07-2.96-.68-5.82-1.3-8.68-.18-.81-.07-1.28,.45-1.9,3.66-4.32,5.92-9.23,6.05-14.99,.13-5.62-3.41-9.41-8.97-9.66-.83-.04-1.49,.33-2.23,.46-.23-.15-.49-.22-.74-.14-1.06,.36-1.3-.25-1.54-1.11-1.05-3.71-1.9-7.47-3.13-11.12-.15-.44-.32-.87-.49-1.3-.32-.86-.86-1.2-1.8-.93-2.13,.61-4.34,.84-6.51,1.22-10.45,1.82-20.8,1.13-31.06-1.3-6.97-1.65-13.75-3.9-20.19-7.09-.37-.18-.75-.34-1.13-.48-.94-.35-1.35-.02-1.32,.97,.05,1.64,.21,3.29,.17,4.93-.29,11.66-5.08,20.91-14.87,27.4-1.17,.78-1.5,1.61-1.27,2.96,.58,3.32,.53,3.27-2.79,3.15-2.61-.09-5.23-.4-7.82,.21-6.76,1.19-9.66,7.29-6.45,13.93,3.24,6.7,8.51,11.11,15.78,12.95,.93,.24,1.49,.62,1.95,1.47,1.72,3.17,3.69,6.21,6.22,8.78,1.51,1.53,1.91,3.19,1.94,5.22,.16,10.4,.42,20.8,.63,31.2,.12,5.89,.23,11.78,.28,17.68,.01,1.4,.35,2.07,1.96,2.02,6.55-.22,13.11-.31,19.67-.46,5.94-.13,11.89-.29,17.83-.41,6.45-.13,12.91-.24,19.36-.34,.7-.01,.97-.23,.94-1.01-.21-7.63-.36-15.26-.53-22.89-.44-.56-1.09-.52-1.69-.58-8.95-.9-17.2-3.84-24.94-8.34-1.96-1.14-3.7-2.6-5.61-3.82-.18-.05,.11-.27-.01-.1-.02,.03,.02,.06,.12,.09,4.63,1.1,9.34,1.43,14.08,1.21,5-.23,9.89-1.08,14.63-2.75,1.16-.41,2.34-.78,3.3-1.62Z"/>
      <path class="cls-13" d="M307.05,325.64c2.64,.4,5.3-.02,7.94,.23,.97,.09,1.94,.08,2.91,.15,.68,.04,.92-.19,.77-.89-.22-1-.24-2.06-.56-3.03-.4-1.24,.17-1.77,1.12-2.4,9.98-6.69,14.87-16.13,15-28.09,.02-1.78-.12-3.56-.19-5.49,3.5,1.61,6.96,3.15,10.52,4.45,10.31,3.75,20.9,5.89,31.92,5.81,6.04-.04,11.94-.95,17.77-2.37,.73-.18,.73,.19,.91,.63,1.21,3,1.87,6.16,2.78,9.24,.42,1.42,.75,2.87,1.07,4.32,.17,.79,.62,.85,1.25,.62,.43-.16,.85-.35,1.28-.53,1.01-4.39-.16-8.63-.91-12.89-.17-.99-.05-2.06-.65-2.97-.28-.43,.1-.64,.4-.84,3.51-2.42,3.13-5.82,1.21-8.79-2.29-3.53-5.56-6.05-9.1-8.19-11.65-7.06-24.33-10.66-37.93-10.56-11.2,.08-21.34,3.34-30.02,10.82-2.82,2.44-6.19,4.27-8.85,6.96-7.48,7.56-12.06,16.36-11.62,27.29,.03,.72,.14,1.43,.22,2.15-.05,1.4,.57,2.73,.49,4.14,.74,3.42,1.24,6.9,2.28,10.25Z"/>
      <path class="cls-13" d="M386.51,377.86c-2.04,.48-3.91,1.46-5.94,2.02-8.86,2.45-17.74,2.61-26.69,.64-.19-.04-.38-.04-.99-.1,10.21,7.85,21.3,12.34,33.76,13.34-.05-5.3-.09-10.61-.14-15.91Z"/>
      <path class="cls-10" d="M304.77,315.39c.25-1.43-.27-2.76-.49-4.14-.15,1.42,.23,2.77,.49,4.14Z"/>
      <path class="cls-13" d="M374.53,359.52c1.13-.15,1.61-.86,1.64-1.9,.03-1.04-.58-1.65-1.54-1.82-.75-.13-1.53-.05-2.3-.12-3.16-.3-6.15-1.1-8.83-2.9-1.2-.81-2.55-.7-3.16,.18-.75,1.08-.4,2.16,1.02,3.06,4.02,2.54,8.42,3.64,13.16,3.5Z"/>
      <path class="cls-13" d="M387.46,326.95c-1.91,.33-3.09,2.04-2.73,3.94,.34,1.8,2.1,3.04,3.85,2.72,1.8-.32,3.14-2.25,2.78-4-.36-1.77-2.12-2.97-3.9-2.66Z"/>
      <path class="cls-13" d="M351.8,333.34c-1.9,.29-3.21,2.05-2.89,3.87,.31,1.75,2.09,3.05,3.84,2.83,1.83-.23,3.12-2.04,2.8-3.93-.32-1.89-1.9-3.06-3.76-2.77Z"/>
      <path class="cls-13" d="M386.06,311.82c-1.43,.2-2.79,.66-4.11,1.22-1.24,.52-1.55,1.48-1.07,2.63,.48,1.17,1.51,1.32,2.58,.93,1.59-.58,3.19-1.11,4.87-1.36,1.32-.19,1.92-1.08,1.71-2.28-.2-1.18-1.1-1.66-2.31-1.43-.55,.11-1.11,.19-1.67,.29Z"/>
      <path class="cls-13" d="M346.24,324.9c1.73-.74,3.62-1.18,5.53-1.58,1.08-.22,1.45-1.07,1.31-2.11-.14-1.03-.85-1.58-1.81-1.52-2.26,.14-4.45,.68-6.51,1.66-.98,.47-1.23,1.35-.97,2.34,.24,.91,1.35,1.43,2.45,1.21Z"/>
    </g>
  </g>
  <path class="cls-1" d="M766.95,418.32c-13.32-.15-27.54-2.5-40.87-2.55-4.6-.02-9.33-.87-13.97-1.02-2.12-3-1.74-6.57-2.18-9.93-.19-1.49,.84-2.62,2.21-3.07,8.54-2.81,16.06-7.31,22.73-13.3,.25-.22,.65-.37,.73-.31-6.02,2.32-12.51,2.66-19.1,2.61-17.86-.15-32.77-14.4-33.31-32.3-.11-3.64-.86-6.55-3.51-9.25-2.89-2.93-4.46-6.76-4.64-10.98-.22-5.15,2.33-8.55,7.44-9.31,2.64-.39,3.71-1.49,3.58-4.03-.02-.37,0-.74,.04-1.11,.97-9.17,1.52-8.33,8.42-8.33,14.57,0,27.99-4.68,40.27-12.58,5.96-3.83,6.25-4.65,7.82,3.19,1.77,8.83,6.89,15.34,14.71,19.76,1.16,.66,2.85,1.01,3.16,2.37,.81,3.64,3.15,2.92,5.65,2.44,3.24-.62,6.56-1.5,9.56,.85,2.27,2.51,2.91,5.67,3.5,8.85-.44,6.85-4.43,11.35-9.69,15.2-5.74,4.21-9.13,10.03-8.3,17.2,1.41,12.19,3.67,24.27,5.25,36.44,.18,1.41,1.85,7.93,.5,9.17Z"/>
  <path class="cls-13" d="M765.93,413.3c-1.29-9.19-2.55-18.39-3.88-27.58-.75-5.2-1.56-10.4-2.42-15.58-.2-1.18-.02-2.16,.65-3.12,.42-.6,.84-1.22,1.12-1.9,2.11-5.11,4.77-9.47,9.97-12.38,4.51-2.52,6.03-7.75,7.82-12.43,4.27,10.93,10.23,20.83,18.1,29.56,11.69,12.95,21.56,26.95,25.61,44.32,1.46,9.2,1.11,18.17-4.04,26.3-5.86,9.27-14.17,14.43-25.38,14.23-3.97-.07-7.36-1.55-10.21-4.38-9.24-9.17-14.08-20.51-16.52-33.07-.26-1.32-.54-2.64-.81-3.96Z"/>
  <path class="cls-13" d="M775.68,331.46c-4.58-1.12-9.05-.11-13.47,.88-1.76,.39-2.34-.03-2.07-1.64,.34-2.09-.72-2.81-2.46-3.69-9.86-4.97-15.25-13.16-16.7-24.04-.11-.79,.27-1.72-.72-2.55-8.41,5.9-17.42,10.71-27.46,13.4-7.27,1.95-14.64,3.15-22.17,2.46-2.22-.2-2.81,.51-2.92,2.52-.15,2.81-.54,5.61-.8,8.42-.16,1.78-.52,2.82-2.9,2.59-4.7-.46-7.99,2.74-8.05,7.45-.07,5.4,2.46,9.69,6.2,13.29,1.44,1.39,2.01,2.74,2,4.75-.12,20.39,14,34.55,34.36,34.65,6.31,.03,12.41-.99,18.45-3.02-3.94,5.21-9.19,8.63-14.76,11.63-2.92,1.57-5.95,2.96-9.19,3.72-2.24,.52-2.58,1.78-2.22,3.76,.52,2.89,.89,5.81,1.33,8.72-6.72,.23-13.43,.5-20.15,.69-4.89,.14-5.42-.43-5.63-5.3-.05-1.07,.24-2.22-.53-3.17-.59-8.29-3.09-16.09-6.18-23.74-9.13-22.57-9.1-45.18-.26-67.83,.57-1.46,.97-2.83,.74-4.57-.38-2.8,1.16-5.22,2.9-7.34,7.97-9.65,18.52-15.25,30.32-18.5,12.12-3.34,23.64-2.31,35.05,4.04,7.82,4.36,14.87,8.88,19.2,16.89,2.73,5.04,3.2,10.78,5.02,16.1,1.07,3.13,2.07,6.29,3.1,9.43Z"/>
  <path class="cls-13" d="M716.73,369.22c-1.24-.15-2.39,.02-2.68-1.25-.32-1.43,.7-2.04,1.84-2.26,3.33-.65,6.25-2.05,8.81-4.28,.8-.69,1.85-.94,2.63-.02,.87,1.02,.51,2.1-.4,2.92-2.99,2.7-6.48,4.35-10.19,4.89Z"/>
  <path class="cls-13" d="M736.57,349.15c.11,1.44-.98,2.61-2.75,2.73-2,.14-3.23-1.09-3.25-3.15-.03-1.93,1.23-3.01,2.98-3.08,1.82-.08,2.94,1.02,3.02,3.5Z"/>
  <path class="cls-13" d="M700.23,349.99c-2.54-.07-3.56-1.23-3.51-3.03,.06-1.79,1.25-3,3.09-2.95,1.99,.05,3.23,1.27,3.08,3.31-.14,1.83-1.23,2.89-2.66,2.67Z"/>
  <path class="cls-13" d="M733.98,335.82c-.97,0-1.58-.01-2.18,0-1.36,.03-2.51-.43-2.59-1.91-.09-1.67,1.23-1.83,2.52-1.82,.6,0,1.21,0,1.81,.03,1.79,.12,4.28,.06,4.19,2.3-.09,2.46-2.63,1.15-3.75,1.4Z"/>
  <path class="cls-13" d="M700.8,334.38c-1.83-.55-5.01,.54-5.23-2.31-.18-2.29,2.6-1.42,4.11-1.5,1.76-.09,4.02-.11,4.23,2.26,.19,2.06-1.81,1.36-3.12,1.55Z"/>
  <path class="cls-9" d="M325.42,393.46s-61.58,26.81-69.27,38.9c-7.69,12.09-32.98,98.31-32.98,98.31l64.82,19.07-1.07,89.75,160.74-.23-2.98-158.01-19.96-87.47s-35.12-2.26-38.37-3.86c-3.25-1.6-60.94,3.54-60.94,3.54Z"/>
</svg>