<?xml version="1.0" encoding="UTF-8"?>
<svg id="Capa_1" data-name="Capa 1" xmlns="http://www.w3.org/2000/svg" viewBox="0 0 386.68 444.96">
  <defs>
    <style>
      .cls-1 {
        fill: #d3c0df;
      }

      .cls-2 {
        fill: #34b296;
      }

      .cls-3 {
        fill: #1c2545;
      }

      .cls-4 {
        fill: #009579;
      }

      .cls-5 {
        fill: #727e88;
      }

      .cls-6 {
        fill: #83cfeb;
      }
    </style>
  </defs>
  <path class="cls-3" d="M272.8,111.08c-.82-5.25-1.19-10.63-2.59-15.72-1.36-4.95,1.9-8.22,3.14-12.22,.19-.63,1-.67,1.54-.97,3.58-1.95,6.05-4.83,7.08-8.79,1.26-4.83-1.58-7.92-6.51-7.19-.89,.13-1.78,.3-2.64,.55-1.69,.5-3.16,.79-2.77-1.84,.09-.64-.37-.97-.91-1.21-6.73-2.97-10.36-8.22-11.39-15.41-.1-.68-.26-1.35-.43-2.21-1.65,1.04-3.19,2.04-4.77,2.98-8.57,5.13-17.76,7.97-27.83,7.44-1.28-.07-1.89,.17-1.96,1.56-.1,1.79-.58,3.58-.55,5.36,.03,1.78-.78,2.08-2.23,1.9-.41-.05-.83-.04-1.24-.06,.37-2.67,.75-5.34,1.11-8.01,.09-.65,.33-1.23-.38-1.86-1.99-1.75-2.19-3.1-.94-5.43,1.3-2.42,3.21-4.33,5.37-5.99,7.87-6.04,16.61-9.56,26.7-9.06,2.44,.12,4.87,.51,7.05,1.56,3.3,1.6,6.81,2.61,10.22,3.89,13.24,4.99,20.86,17.65,19.37,31.7-.8,7.57-1.63,15.17-.27,22.78,.56,3.15,1.44,6.19,3.04,8.99,1.89,3.29,3.52,18.84-.21,19.13-3.93,.31-7.87,.58-11.8,.86-.71,.52-4.52-12.13-5.19-12.74Z"/>
  <path class="cls-6" d="M180.08,402.19c.32-4.69,1.41-9.27,2.17-13.89,3.01-18.47,6.59-36.83,10.2-55.19,3.75-19.1,7.9-38.11,12.27-57.08,.76-3.29,1.57-6.57,2.35-9.85,1.95-1.12,4.14-.98,6.25-1.05,3.8-.13,7.61-.07,11.42-.03,1.7,.1,3.41,.26,5.1-.16,.4-.1,.82-.17,1.23-.15,6.99,.22,13.97-.57,20.96-.46,1.41,.02,2.73,.27,4.01,.9,9.14,4.49,18.35,8.81,27.79,12.64,13.56,5.51,27.25,10.57,41.89,12.45,2.4,.31,4.82,.38,7.23,.63,.81,.09,1.68-.08,2.33,.62,2,11.86,3.86,23.74,5.45,35.67,1.65,12.4,3.5,24.78,5.24,37.17,1.7,12.05,3.39,24.1,5.06,36.15,.07,.54-.01,1.1-.02,1.64H180.08Z"/>
  <path class="cls-2" d="M335.27,291.56c-18.26-.3-35.04-6.44-51.66-13.16-9.47-3.83-18.73-8.16-27.88-12.7-1.15-.57-2.28-.86-3.57-.82-7.4,.21-14.8,.37-22.2,.55-1.71,.41-3.47-.17-5.17,.33-5.92-.19-11.82-.04-17.72,.42-2.44-.31-4.72-1-6.6-2.69-2.28-2.05-3.34-4.62-2.86-7.62,.93-5.84,.8-11.7,.77-17.57-.03-6.69-.55-13.35-1.6-19.97,.23-.29,.55-.43,.9-.45,4.87-.27,9.54,.46,13.87,2.81,1.64,.89,2.48,3.05,2.12,4.81-.24,1.19-1.05,.91-1.76,.67-1.85-.63-3.76-.96-5.67-1.27-1.41-.22-2.78-.11-4.05,.56-1.36,.72-1.7,1.94-1.47,3.36,.24,1.46,1.32,1.94,2.6,1.82,5.64-.52,10.2,2.08,14.67,4.95,3.15,2.02,6.18,4.22,9.24,6.38,2.19,1.55,2.43,1.54,3.77-.83,5.63-9.95,11.27-19.9,16.87-29.86,1.19-2.11,2.42-4.2,3.59-6.33,.69-1.25,.59-2.31-.28-3.45-3.12-4.07-6.23-8.15-9.4-12.18-1.04-1.32-2.38-2.12-4.15-1.87-3.23,.46-4.41,3.06-2.57,5.73,1.77,2.57,3.79,4.95,5.68,7.43,.34,.44,.71,.85,.98,1.34,.23,.42,.55,.9,.27,1.36-.33,.54-.95,.51-1.51,.42-1.59-.24-3.08-.8-4.52-1.51-4.73-2.32-9.34-4.89-14.21-6.89-4.5-1.85-9.05-3.51-14.03-3.44-2.32,.03-3.14,.6-3.28,2.27-.15,1.82,.9,3.04,3.05,3.16,5.29,.3,10.16,2.02,14.93,4.16,.44,.2,.89,.39,1.29,.67,1.2,.83,1.2,1.37-.03,2.14-1.96,1.22-3.78,1.68-6.15,.46-4.15-2.13-8.71-3.17-13.42-3.29-.91-.02-1.79-.22-2.68-.28-1.91-.13-3.43,.74-3.89,2.14-.63,1.91,.68,3.61,3.04,3.6,3.28-.01,6.5,.32,9.69,1.04,1.42,.32,2.81,.75,4.16,1.31,1.44,.6,1.83,1.46,1.19,2.94-1.2,2.73-1.78,3.09-4.55,2.03-4.9-1.87-9.92-2.35-15.09-1.68-.59-4.58-1.12-9.17-1.78-13.73-.32-2.24-1.65-.82-2.39-.4-6.66,3.85-13.47,7.39-20.4,10.71-10.79,5.18-21.73,9.99-33.37,13.02-6.1,1.59-12.29,2.69-18.61,2.39-7.22-.34-13.56-3.21-19.13-7.65-7.25-5.77-13.01-12.97-18.59-20.3-11.33-14.86-21.77-30.33-31.96-45.98-6.19-9.5-12.16-19.15-18.27-28.7-.71-1.1-.55-1.61,.59-2.21,.86-.45,2-.78,2.18-2.03,11.85-7.08,23.54-14.44,35.34-21.6,1.64-1,3.15-2.22,4.95-2.95,1.26,.18,2.05-.78,2.95-1.34,1.05-.66,1.41-.41,2.02,.55,5.94,9.42,11.89,18.84,17.94,28.2,8.22,12.73,16.76,25.25,25.69,37.49,1.55,2.12,3.2,4.16,4.78,6.26,.92,1.22,1.93,1.49,3.42,.91,12.96-4.98,25.16-11.52,37.23-18.3,7.97-4.47,15.78-9.2,23.57-13.97,3.13-1.92,5.6-4.7,8.87-6.46,4.63-2.5,9.53-3.96,14.73-4.62,4.61-.59,9.25-.29,13.86-.81,.79-.72,1.78-.68,2.74-.69,11.24-.22,22.48-.72,33.72-.92,3.92-.07,7.85-.34,11.79-.32,1.03,0,2.09-.05,2.96,.69,4.13-.5,8.29-.43,12.43-.39,9.6,.09,18.01,3.28,25,9.9,3.44,3.26,5.84,7.31,8.22,11.39,7.54,12.9,15.14,25.76,21.93,39.07,7.95,15.6,15.48,31.4,20.64,48.17,2.47,8.03,4.33,16.22,4.57,24.74,.23,7.83-1.38,15.07-5.57,21.68-5.82,9.2-14.43,14.25-24.92,16.34-2.57,.51-5.17,.83-7.8,.87Z"/>
  <path class="cls-1" d="M216.81,77.23c.27-1.2-.51-2.07-.94-3.05-1.43-3.2-1.44-7.23,2.86-8.92,2.85-.32,3.05-2.44,3.16-4.64,.02-.48,.03-.97,.08-1.45,.31-2.66,.84-3.23,3.57-3.17,10.61,.22,20.14-3.07,28.93-8.83,.52-.34,1.03-.69,1.6-.97,.96-.46,1.59-.17,1.93,.82,.21,.59,.33,1.2,.42,1.82,.94,6.37,4.47,10.9,10.02,13.95,1.02,.56,1.9,1.12,2.05,2.39,.14,1.14,.91,1.23,1.83,1.07,1.36-.24,2.7-.61,4.09-.67,4.39-.2,7.18,3.1,6.23,7.38-.9,4.09-3.26,7.15-6.79,9.28-1.38,.84-2.39,1.83-2.87,3.37-.1,.33-.2,.69-.41,.95-2.53,3.14-2.14,6.6-1.44,10.25,.72,3.8,1.23,7.65,1.74,11.49,.14,1.07,.55,2.18-.05,3.25-1.31,.97-2.85,1.05-4.36,1-7.26-.2-14.49,.7-21.75,.44-2.04-.07-4.09,.95-6.12-.05-.68-1.42,.68-1.46,1.33-1.73,2.64-1.09,5.09-2.5,7.45-4.09,1.54-1.04,2.91-2.28,4.23-3.6-4.72,1.48-9.5,2.05-14.48,1.49-10.08-1.12-18.98-10.34-19.18-20.58-.06-3.03-.77-5.38-3.14-7.21Z"/>
  <path class="cls-1" d="M195.96,212.57c2.36-1.56,5.01-.89,7.49-.75,2.88,.16,5.75,.92,8.38,2.13,1.51,.69,2.15,.48,2.8-1.01,1.37-3.14,1.57-2.39-1.36-3.48-4.17-1.55-8.56-2.11-13.02-1.92-1.64,.07-2.83-.67-3.36-2.24-.52-1.55-.04-2.9,1.22-3.89,.95-.75,2.17-.95,3.33-.86,6.28,.49,12.49,1.34,18.13,4.48,.41,.23,.85,.54,1.34,.13,1.01-.83,2.29-1.17,3.78-1.89-4.47-2.24-8.68-4.05-13.26-4.86-1.42-.25-2.86-.4-4.31-.48-2.35-.14-3.52-1.61-3.31-3.88,.16-1.74,.97-2.71,2.92-2.77,5.4-.18,10.39,1.4,15.2,3.54,4.93,2.19,9.73,4.67,14.58,7.05,1.62,.8,3.32,1.26,5.35,1.55-.95-2.24-2.69-3.65-3.86-5.46-.89-1.39-2.01-2.63-3.03-3.94-1.99-2.57-2.05-4.41-.2-5.98,2.08-1.77,5.22-1.81,6.93,.29,3.69,4.56,7.14,9.3,10.74,13.94,.75,.97,.19,1.7-.24,2.46-3.2,5.73-6.41,11.46-9.64,17.18-3.91,6.92-7.9,13.79-11.74,20.75-.87,1.57-1.53,1.5-2.84,.58-4.91-3.46-9.7-7.09-15.03-9.93-3.03-1.61-6.19-2.3-9.59-2.05-1.71,.13-3.05-.33-3.3-2.28-.3-2.29,.6-3.82,2.49-4.37,3.24-.95,6.26,.15,9.32,.95,.44,.11,.8,.55,1.33,.33-.55-4.4-1.93-5.68-6.95-6.68-3.13-.63-6.27-.94-9.46-.86-2.13-1.85-2.3-3.07-.82-5.76Z"/>
  <path class="cls-1" d="M74.51,93.13c-2.15,2.43-5.15,3.65-7.81,5.31-10.17,6.34-20.43,12.55-30.65,18.81-.57,.35-1.07,.95-1.84,.44-3.15-5.76-5.79-11.81-9.8-17.07-1.72-2.25-3.81-3.97-6.48-5.01-2.23-.87-3.06-2.63-2.33-4.59,.76-2.02,2.33-2.56,4.8-1.62,3.25,1.23,5.84,3.37,7.97,5.95,2.19-3.06,1.02-5.41-1.26-7.68-2.34-2.32-4.96-4.19-7.9-5.64-2.51-1.25-3.14-2.42-2.32-4.29,.87-1.96,3.03-2.69,5.29-1.68,4.17,1.86,7.87,4.44,10.72,8.01,1.99,2.49,2.54-.42,3.67-.83,1.55-.56,.55-1.54-.07-2.22-3.09-3.45-6.87-5.99-10.96-8.1-2.25-1.16-2.95-2.61-2.11-4.42,.84-1.82,3.08-2.54,5.17-1.53,5.37,2.59,10.22,6.02,13.76,10.8,1.76,2.37,3.69,2.16,6.27,2.01-2.66-3.84-5.67-7.09-9.17-9.89-1.18-.95-2.52-1.7-3.79-2.55-2.08-1.39-2.56-2.93-1.47-4.69,1.08-1.75,2.76-2.15,4.8-1.09,5.35,2.79,9.34,7.1,12.99,11.75,2.61,3.32,5.07,6.75,7.61,10.12,1.29,1.72,2.87,3.14,4.89,4.74-.83-4.29-1.62-8.18-2.33-12.08-.47-2.53,1.23-4.9,3.75-5.35,2.65-.47,4.29,.6,4.88,3.47,1.29,6.29,2.47,12.6,3.69,18.9Z"/>
  <path class="cls-4" d="M237.55,112.65c.95-.08,1.9-.17,2.85-.25,.81,.59,1.78,.43,2.61,.28,3.71-.7,7.47,.02,11.15-.42,5.9-.72,11.86,.17,17.73-.79,.32-.05,.61-.25,.91-.38,.69,.02,1.39,.04,2.08,.06,1.03,.54,2.16,.96,3.09,1.64,2.35,1.73,2.92,4.25,2.8,7-8.37,.14-16.75,.05-25.1,.53-4.84,.27-9.69-.05-14.5,.39-3.88,.35-7.73,.26-11.6,.34,.05-4.76,1.59-7.27,5.1-8.13,.92-.22,1.91-.18,2.87-.26Z"/>
  <path class="cls-3" d="M216.81,77.23c1.56,.3,3.66,2.77,3.6,4.35-.25,6.65,1.85,12.4,6.66,17.03,4.39,4.22,9.68,6.05,15.79,6.03,4.27-.01,8.29-.83,12.32-2.27-2,3.32-7.57,7.08-14.79,10.03-.46,.46-1.64,4.84-2.8,8.76-1.01,3.41-3.97,5.94-7.51,6.23-.2,.02-.38,.02-.51,0-5.5-.6-10.99-1.33-16.24-3.18-1.16-.41-2.32-.84-3.41-1.4-2.41-1.24,3.02-20.38,3.58-23.88,1.15-7.22,2.21-14.46,3.31-21.69Z"/>
  <path class="cls-5" d="M224.79,265.76c1.69-.6,3.44-.3,5.17-.33-1.69,.73-3.45,.19-5.17,.33Z"/>
  <path class="cls-4" d="M326.99,235.87c-2.52-.87-5.41-1.81-8.26-2.87-2.79-1.04-5.52-2.2-8.28-3.3-.85-.34-1.87-.65-1.29-1.86,.46-.97,1.26-.75,2.13-.37,5.26,2.3,10.63,4.32,16.13,5.97,.78,.23,1.71,.49,1.45,1.64-.17,.77-.83,.82-1.87,.79Z"/>
  <path class="cls-4" d="M129.14,165.91c1.13,.07,5.62,6,5.32,6.77-.46,1.15-1.47,1.15-2.12,.36-1.44-1.76-2.78-3.63-4-5.55-.65-1.02,.14-1.45,.8-1.58Z"/>
  <path class="cls-3" d="M242.2,87.12c-.92,.05-1.48-.3-1.6-1.09-.11-.74,.36-1.06,1.08-1.19,2.19-.42,4.18-1.31,5.85-2.82,.61-.55,1.25-.64,1.78,.03,.42,.53,.37,1.09-.12,1.66-1.13,1.32-5.39,3.41-7,3.41Z"/>
  <path class="cls-3" d="M251.29,73.75c.17-1.16,.8-2,1.95-2.04,1.22-.04,2.08,.66,2.1,2,.01,1.21-.66,1.92-1.86,1.99-1.35,.08-1.93-.78-2.19-1.95Z"/>
  <path class="cls-3" d="M233.35,72.4c-.13,1.38-.7,2.15-1.95,2.18-1.34,.04-2.14-.73-2.11-2.01,.03-1.14,.72-1.92,2.01-1.9,1.26,.02,1.81,.78,2.05,1.73Z"/>
  <path class="cls-3" d="M230.43,61.68c.81,.1,1.63,.19,2.44,.3,.77,.11,1.37,.5,1.2,1.33-.17,.81-.77,1.25-1.69,1.08-.74-.14-1.48-.27-2.22-.3-.88-.03-1.81-.1-1.74-1.2,.07-1.15,1.05-1.28,2.01-1.21Z"/>
  <path class="cls-3" d="M253.29,65.29c-.84-.37-2.98,.63-2.68-1.48,.26-1.79,2.14-.8,3.33-.9,.26-.02,.53,.12,.8,.18,.75,.16,1.62,.26,1.37,1.35-.21,.94-.96,1.04-1.79,.92-.27-.04-.55-.04-1.04-.07Z"/>
</svg>