<?xml version="1.0" encoding="UTF-8"?>
<svg id="Capa_1" data-name="Capa 1" xmlns="http://www.w3.org/2000/svg" viewBox="0 0 851.58 1142.02">
  <defs>
    <style>
      .cls-1 {
        fill: #e39d23;
      }

      .cls-2 {
        fill: #008d79;
      }

      .cls-3 {
        fill: #f5e6c3;
      }

      .cls-4 {
        fill: #c79a25;
      }

      .cls-5 {
        fill: #fdc333;
      }

      .cls-6 {
        fill: #ede9e3;
      }

      .cls-7 {
        fill: #1b2545;
      }

      .cls-8 {
        fill: #fff8e2;
      }

      .cls-9 {
        fill: #cab7d5;
      }

      .cls-10 {
        fill: #e5cfa1;
      }

      .cls-11 {
        fill: #e3b02d;
      }
    </style>
  </defs>
  <path class="cls-2" d="M526.56,746.42c-.66-3.42-1.31-6.84-1.97-10.25-3.33-12.31-5.88-24.82-10.57-36.77-1.42-3.62-3.21-4.67-6.97-4.66-75.4,.11-150.8,.15-226.19-.07-5.2-.01-7.42,1.56-9.06,6.29-4,11.53-6.96,23.32-10.02,35.1-.09,.9-.09,1.82-.27,2.7-2.62,12.98-5.05,26-8.02,38.89-.25,1.06-.3,1.89-.19,2.57l-29.73,141.58h134.97c4.95,1.3,4.98-4.11,4.98-4.11,1.07-6.92,26.51-126.29,28.01-133.14,.42-1.9,.03-4.18,2.01-5.94,1.88,9.41,25.21,128.65,26.84,137.78,.34,1.89,1,2.74,2.28,2.99,.69,.3,1.6,.39,2.81,.07h134.97l-33.85-173.05Z"/>
  <path class="cls-7" d="M431.49,401.23c12.64,.31,25.29,.05,37.93,0,15.48-.06,30.62,2.9,44.91,9,41.86,17.85,67.15,49.33,75.99,93.9,1.39,6.98,1.86,14.23,1.9,21.37,.19,33.42,.75,66.85-.07,100.25-1.22,49.56-23.89,86.58-67.57,110.43-2.39-.8-2.23-3.07-2.7-4.88-2.54-9.89-4.93-19.82-8.44-29.44-1.46-3.99-3.74-5.68-8.1-5.68-74.84,.08-149.69,.09-224.53,0-4.21,0-6.39,1.56-7.68,5.47-3.06,9.27-6.06,18.55-8.28,28.06-.54,2.32-.67,4.92-3.07,6.37-36.98-19.82-59.1-50.33-65.99-91.79-1.08-6.48-1.65-13-1.64-19.56,0-34.18-.55-68.37,.23-102.53,1.4-61,46.05-108.73,101.45-118.88,15.01-2.75,30.04-1.44,45.07-1.83,4.57-.12,9.14-.14,13.72-.21,2.12-1.05,4.39-1.13,6.69-1.13,21.33,0,42.66,0,63.99,0,2.13,0,4.28-.06,6.22,1.08Z"/>
  <path class="cls-9" d="M431.49,401.23c-9.86,.1-19.71,.28-29.57,.28-15.78,0-31.56-.15-47.33-.23,.95-2.2,.52-4.52,.54-6.79,.05-7.02-.24-14.05,.08-21.05,.24-5.28,.33-10.9-1.23-16-1.42-4.63-4.46-8.62-6.86-12.78-3.67-6.34-3.32-12.45-5.31-19.16-1.42-4.77-6.94-7.04-9.62-11.11-2.87-4.36-3.89-9.59-3.55-14.76,.42-6.4,3.71-9.64,10.12-9.83,2.33-1.74,4.31,.48,7.19,.68-.87-7.17,2.91-13.19,4.4-19.8,.61-2.73,2-3.44,4.58-2.85,21.53,4.92,42.77,2.15,63.84-2.79,4.6-1.08,7.19,.14,10.04,3.78,4.41,5.65,8.03,11.35,8.82,18.69,.47,4.34,.83,4.3,5.05,2.55,.84-.35,1.67-.8,2.6-.26,10.11,.09,14.47,5.41,12.43,15.61-1.36,6.83-4.73,12.54-10.9,16.2-1.39,.83-2.51,1.57-2.54,3.4-.19,11.62-4.71,21.57-11.85,30.51-.47,.58-.71,1.35-1.05,2.03-4.89,7.39-12.62,10.69-20.29,14.03-6.42,2.8-13.22,3.29-20.53,2.72,12.01,6.56,23.97,12.01,37.13,14.34,1.39,.25,2.61,.79,3.55,1.87,.09,3.58,.17,7.15,.26,10.73Z"/>
  <path class="cls-7" d="M445.28,289.79c-7.88,5.18-5.94,5.21-9.31-3.88-3.39-9.43-6.84-13.3-10.66-19.69-1.06-1.77-2.73-.55-4.15-.21-15.9,3.72-31.95,6.14-48.35,5.64-7.01-.21-6.74-2.7-13.53-4.34-1.06,8.35-11.84,16.53-11.69,26-3.53-1.47-5.85-3.39-8.83-3.52-1.77-12.11,.12-23.86-4.71-35.18-2.08-4.88-3.28-9.98-2.15-15.38,1.6-7.62,6.44-12.16,13.57-14.61,12.82-4.4,21.44-4.25,34.66-3.34,9.3,.64,18.51,2.32,27.42,5.18,8.51,2.73,16.82,6.03,23.18,12.67,1.36,1.42,3.1,1.81,4.61,2.77,15.6,9.84,17.98,18.84,15.06,34.83-.84,4.61-2.51,9.07-5.13,13.06Z"/>
  <path class="cls-7" d="M431.24,390.49c-15.56-2.35-29.74-8.26-43.94-16.86,5.49-.26,10.14-.04,14.64-.78,9.98-1.64,18.72-6.1,26.24-12.91,.98-.89,1.66-2.24,3.19-2.42-.04,10.99-.09,21.97-.13,32.96Z"/>
  <path class="cls-6" d="M265.78,678.22c0,1.75,.02,3.89,0,6.02-.02,1.57,0,3.21-2.23,3.22-1.98,.01-2.58-1.31-2.74-2.98-.2-2.12-.49-4.25-.53-6.38-.52-27.94-3.96-55.62-7.3-83.32-2.37-19.66-5.24-39.3-5.44-59.14-.16-15.93,1.8-31.64,7.46-46.7,.48-1.28,.93-2.61,1.63-3.77,.87-1.45,2.18-2.17,3.86-1.17,1.45,.86,1.4,1.99,.82,3.51-3.21,8.41-5.49,17.05-6.84,26-2.54,16.77-1.64,33.46,.24,50.16,2.04,18.16,3.99,36.34,6.5,54.44,2.75,19.83,2.79,39.82,4.58,60.1Z"/>
  <path class="cls-6" d="M534.08,564.96c.11,22.77-2.55,45.36-4.45,68-1.01,12-1.45,24.06-2.14,36.09-.16,2.74-.16,5.5-.48,8.22-.23,1.96,.2,4.87-3.07,4.54-2.87-.29-2.13-2.85-2.13-4.74,0-2.75,.06-5.5,.19-8.24,1.24-25.59,3.98-51.07,5.87-76.62,2.4-32.42,2.11-64.65-8.7-95.88-1.69-4.89-3.86-9.62-5.84-14.4-.74-1.78-1.47-3.75,.65-4.82,2.5-1.27,3.44,.81,4.31,2.7,8.42,18.35,13.01,37.65,14.83,57.71,.83,9.14,.9,18.28,.97,27.44Z"/>
  <path class="cls-6" d="M503.37,738.08c-.68,2.04-2.08,3.22-4.13,2.22-8.49-4.17-16.18-9.54-23.04-16.06-1.24-1.18-.94-2.44,.17-3.58,1.4-1.43,2.83-.9,4.02,.19,3.94,3.57,8.12,6.84,12.62,9.68,2.56,1.62,5.21,3.09,7.84,4.6,1.2,.69,2.42,1.31,2.52,2.96Z"/>
  <path class="cls-6" d="M307.78,728.07c.09,1.44-.68,2.16-1.53,2.85-4.82,3.93-9.64,7.86-14.44,11.8-1.5,1.23-3.15,2.34-4.71,.38-1.56-1.95-.1-3.34,1.38-4.56,4.57-3.76,9.15-7.5,13.7-11.27,1.24-1.03,2.54-1.68,4.16-1.09,.96,.35,1.35,1.15,1.44,1.89Z"/>
  <path class="cls-7" d="M396.07,337.65c-6.44,.14-11.59-1.44-16.34-4.34-1.58-.96-3.26-2.07-1.85-4.31,1.36-2.17,2.97-1.29,4.66-.31,4.68,2.72,9.68,4.29,15.15,3.68,2.34-.26,4.58-.2,4.65,2.72,.07,2.96-2.54,2.35-4.39,2.54-.9,.09-1.82,.02-1.89,.02Z"/>
  <path class="cls-7" d="M417.07,290.73c.48,.08,1.67,.24,2.84,.5,2.1,.47,3.88,1.38,3.08,3.96-.75,2.41-2.54,2-4.41,1.3-.82-.31-1.78-.29-2.68-.32-2.02-.08-4.33-.13-4.27-2.81,.06-3.07,2.61-2.7,5.44-2.63Z"/>
  <path class="cls-7" d="M369.44,290.68c2.87,.04,4.96-.27,5.22,2.32,.29,2.83-1.77,3.01-3.85,3.16-1.34,.1-2.69,.34-3.98,.71-1.61,.47-2.75-.06-3.26-1.51-.55-1.59-.11-2.99,1.63-3.67,1.7-.66,3.46-1.04,4.23-1Z"/>
  <path class="cls-7" d="M373.78,308.88c-.18,2.51-1.46,3.97-3.99,4.02-2.71,.05-4.38-1.41-4.33-4.12,.04-2.42,1.63-4.05,4.01-4.13,2.65-.1,4.11,1.56,4.31,4.23Z"/>
  <path class="cls-7" d="M416.6,312.85c-2.6-.06-3.85-1.51-3.83-4.02,.01-2.75,1.6-4.34,4.25-4.21,2.37,.11,4.1,1.84,4.05,4.15-.06,2.45-1.56,4.24-4.46,4.08Z"/>
  <g>
    <path class="cls-4" d="M456.76,265.8c.05-1.08,.08-2.17,.08-3.27,0-37.49-28.41-67.87-63.45-67.87s-63.45,30.39-63.45,67.87c0,1.1,.03,2.18,.08,3.27h126.74Z"/>
    <path class="cls-5" d="M412.99,197.65v34.4c0,2.1-1.66,3.81-3.71,3.81s-3.71-1.71-3.71-3.81v-38.04c-.21-3.8-3.25-6.82-7-6.82h-10.33c-3.75,0-6.79,3.02-7,6.82v38.04c0,2.1-1.66,3.81-3.71,3.81s-3.71-1.71-3.71-3.81v-34.4c-26.57,8.55-45.86,34-45.86,64.1,0,2.98,.21,5.91,.58,8.79h129.76c.37-2.88,.58-5.81,.58-8.79,0-30.1-19.29-55.55-45.86-64.1Z"/>
    <path class="cls-11" d="M327.93,261.75c0,2.98,.21,5.91,.58,8.79h129.76c.37-2.88,.58-5.81,.58-8.79,0-2.35-.16-4.67-.39-6.96h-130.14c-.23,2.29-.39,4.6-.39,6.96Z"/>
    <g>
      <path class="cls-1" d="M328.32,254.79c-.23,2.29-.39,4.6-.39,6.96,0,2.98,.21,5.91,.58,8.79h21.91c-3.08-4.76-5.39-10.08-6.85-15.75h-15.25Z"/>
      <path class="cls-1" d="M458.46,254.79h-15.25c-1.45,5.67-3.77,10.99-6.85,15.75h21.91c.37-2.88,.58-5.81,.58-8.79,0-2.35-.16-4.67-.39-6.96Z"/>
    </g>
    <path class="cls-5" d="M458.38,279.34h-129.98c-1.36,0-2.65-.33-3.79-.91-2.83-1.44-4.78-4.43-4.78-7.89h0c0-2.43,.96-4.63,2.51-6.22,1.55-1.59,3.69-2.58,6.06-2.58h129.98c3.39,0,6.32,2.02,7.71,4.96,.55,1.16,.86,2.46,.86,3.84h0c0,2.82-1.3,5.33-3.31,6.94-1.45,1.16-3.28,1.85-5.26,1.85Z"/>
    <path class="cls-1" d="M336.73,270.54c0-2.43,.96-4.63,2.51-6.22,1.55-1.59,3.69-2.58,6.06-2.58h-16.9c-2.37,0-4.51,.98-6.06,2.58-1.55,1.59-2.51,3.79-2.51,6.22,0,3.46,1.95,6.45,4.78,7.89,1.14,.58,2.43,.91,3.79,.91h16.9c-1.36,0-2.65-.33-3.79-.91-2.83-1.44-4.78-4.43-4.78-7.89Z"/>
    <path class="cls-1" d="M450.05,270.54c0-2.43-.96-4.63-2.51-6.22-1.55-1.59-3.69-2.58-6.06-2.58h16.9c2.37,0,4.51,.98,6.06,2.58,1.55,1.59,2.51,3.79,2.51,6.22,0,3.46-1.95,6.45-4.78,7.89-1.14,.58-2.43,.91-3.79,.91h-16.9c1.36,0,2.65-.33,3.79-.91,2.83-1.44,4.78-4.43,4.78-7.89Z"/>
    <g>
      <path class="cls-11" d="M377.61,241.34c3.82,0,6.92-3.18,6.92-7.1v-45.94c-1.88,1.21-3.17,3.3-3.31,5.72v38.04c0,2.1-1.66,3.81-3.71,3.81s-3.71-1.71-3.71-3.81v-34.4c-1.05,.34-2.07,.75-3.1,1.14v35.44c0,3.92,3.1,7.1,6.92,7.1Z"/>
      <path class="cls-11" d="M409.17,241.34c3.82,0,6.92-3.18,6.92-7.1v-35.44c-1.03-.39-2.05-.8-3.1-1.14v34.4c0,2.1-1.66,3.81-3.71,3.81s-3.71-1.71-3.71-3.81v-38.04c-.14-2.42-1.43-4.51-3.31-5.72v45.94c0,3.92,3.1,7.1,6.92,7.1Z"/>
    </g>
    <ellipse class="cls-11" cx="393.39" cy="254.79" rx="16.9" ry="17.35"/>
    <ellipse class="cls-4" cx="393.39" cy="254.79" rx="14.29" ry="14.67"/>
    <path class="cls-3" d="M404.12,254.79c0,6.08-4.8,11.01-10.73,11.01s-10.73-4.93-10.73-11.01,4.8-11.01,10.73-11.01,10.73,4.93,10.73,11.01Z"/>
    <ellipse class="cls-8" cx="393.39" cy="247.38" rx="4.92" ry="2.19"/>
    <path class="cls-10" d="M393.39,259.47c-4.84,0-8.89-3.32-10.22-7.84-.3,1.01-.5,2.06-.5,3.17,0,6.08,4.8,11.01,10.73,11.01s10.73-4.93,10.73-11.01c0-1.11-.21-2.16-.5-3.17-1.33,4.53-5.38,7.84-10.22,7.84Z"/>
  </g>
</svg>