<?xml version="1.0" encoding="UTF-8"?>
<svg id="Capa_1" data-name="Capa 1" xmlns="http://www.w3.org/2000/svg" viewBox="0 0 470.04 817.92">
  <defs>
    <style>
      .cls-1 {
        fill: #3c3042;
      }

      .cls-2 {
        fill: #0b6753;
      }

      .cls-3, .cls-4, .cls-5, .cls-6, .cls-7 {
        stroke-miterlimit: 10;
      }

      .cls-3, .cls-5 {
        stroke: #1d2441;
      }

      .cls-3, .cls-5, .cls-6, .cls-7 {
        fill: none;
      }

      .cls-3, .cls-6 {
        stroke-width: 1.12px;
      }

      .cls-4 {
        fill: #6a81b0;
      }

      .cls-4, .cls-5, .cls-7 {
        stroke-width: 1.4px;
      }

      .cls-4, .cls-6, .cls-7 {
        stroke: #efeae4;
      }

      .cls-8 {
        fill: #1b2545;
      }

      .cls-9 {
        fill: #d2bfdd;
      }

      .cls-10 {
        fill: #009578;
      }

      .cls-11 {
        fill: #1d2441;
      }
    </style>
  </defs>
  <g>
    <g>
      <path class="cls-9" d="M259.25,192.43s3.56-14.93,0-32c0,0-4.62-19.55-16-34.48-11.38-14.93-21.33-25.6-21.33-25.6l-7.82-7.82s-4.27-5.69-2.84-12.8c0,0,2.13-5.69,6.4-1.42,0,0,1.42,3.56,.71,7.11,0,0,3.56-7.82,5.69-9.24,0,0,0-2.84-2.84-2.84,0,0-.71,2.84-4.27,1.42,0,0-2.84-1.42-.71-4.98,0,0,2.84-4.27,9.24-1.42l1.42,.71-6.4-6.4s-2.13-2.13-1.42-3.56c0,0,1.42-2.84,4.27-.71,0,0,6.4,4.98,8.53,9.24l-1.42-7.11s1.42-4.98,4.27-1.42l3.56,12.8v-6.75s0-5.33,2.13-4.62q2.13,.71,2.84,4.27l.71,6.4,.71,1.42,17.78,19.91s18.49,24.89,18.49,27.02c0,0,9.24,15.64,12.8,31.28,0,0,4.27,19.2,2.84,34.13,0,0-.71,14.22-3.56,21.33l-2.13,3.56-33.42-15.64,1.78-1.78Z"/>
      <path class="cls-8" d="M226.9,626.5v24.17s-6.4,17.78-11.38,18.49c0,0-3.56,1.42,.71,3.56h47.64s2.84,0,3.56-4.27v-38.39l-40.53-3.56Z"/>
      <path class="cls-8" d="M152.24,561.8s13.51,15.64,17.06,21.33c0,0,3.56,11.38,3.56,14.93,0,0,0,9.24-.71,11.38-.71,2.13,.71,2.84,.71,2.84,0,0,2.84,.71,3.56-.71s30.57-29.15,30.57-29.15c0,0,9.24-7.11,3.56-12.8l-22.04-36.26-36.26,28.44Z"/>
      <path class="cls-10" d="M168.6,291.62l91.72-4.27-1.42,35.55s-4.3,8.14-8.55,12.6c0,0-43.36,34.32-51.18,38.59l-32.71,24.89s-20.62,17.06-16.35,39.11c0,0,8.53,27.02,19.2,42.66,0,0,22.75,39.82,29.86,45.5l.71,1.42-56.17,43.37s-22.04-29.15-28.44-39.82c0,0-22.75-42.66-24.89-50.48,0,0-9.95-29.15-11.38-38.39,0,0-2.13-33.42,7.82-53.33,0,0,12.8-25.6,24.17-34.84,0,0,43.37-38.39,53.33-42.66l5.69-3.56-1.42-16.35Z"/>
      <path class="cls-2" d="M170.73,300.15l93.14-6.4,3.56,43.37,7.11,84.61,4.27,69.68,1.42,77.5-2.13,64.7v.71l-70.39-3.56,1.42-36.26,.71-35.55-1.42-51.19-1.42-44.79-2.84-40.53-3.56-49.06s39.11-28.44,42.66-31.28c3.56-2.84,9.95-8.53,13.51-15.64l-86.03-26.31Z"/>
      <path class="cls-9" d="M129.14,213.76s-8.53-12.8-11.38-29.15c0,0-1.07-32.35,12.44-49.41l31.28-38.39,12.09-15.64s3.56-9.95,5.69-12.09c0,0,1.42-3.56,4.27-2.84,0,0,2.84,1.42,.71,4.98l-2.84,5.69h2.84l3.56-8.53s4.98-5.69,5.69,.71l-4.27,9.24s.71,.71,2.13-.71l5.69-7.82s1.42-4.27,4.27-2.84c0,0,2.84,1.42,.71,4.27l-4.98,7.11s5.69-2.13,7.82-1.42c0,0,4.27,.71,4.98,4.27,0,0-.71,4.27-4.27,2.13,0,0-1.42-1.42-5.69-.71,0,0-1.42,.71,0,2.13,0,0,2.13,4.98,2.84,4.98h.71s1.42-2.84,2.84-2.84c0,0,4.27-1.42,4.27,4.27,0,0-2.13,4.27-5.69,7.82l-19.2,23.46-13.51,15.64-9.95,12.8s-7.11,11.38-7.82,14.93c0,0-2.84,10.67-1.42,17.78l4.98,12.09,.71,.71-29.51,17.42Z"/>
      <polygon class="cls-1" points="193.13 191.01 193.13 203.1 209.48 203.1 193.13 191.01"/>
      <line class="cls-4" x1="166.82" y1="564.29" x2="173.22" y2="557.89"/>
      <line class="cls-4" x1="171.8" y1="569.27" x2="178.19" y2="562.87"/>
      <line class="cls-4" x1="177.48" y1="575.66" x2="183.88" y2="569.27"/>
      <line class="cls-7" x1="233.65" y1="641.08" x2="240.05" y2="641.08"/>
      <line class="cls-7" x1="233.65" y1="648.54" x2="240.05" y2="648.54"/>
      <line class="cls-7" x1="232.23" y1="654.94" x2="238.63" y2="654.94"/>
      <line class="cls-5" x1="218.16" y1="85.13" x2="222.06" y2="89.36"/>
      <line class="cls-5" x1="201.94" y1="88.86" x2="195.97" y2="92.89"/>
      <path class="cls-11" d="M251.78,188.52l48.35,21.33s-7.11,18.49-13.51,29.86c0,0-12.09,17.78-16.35,22.75l-2.13,25.6s1.42,5.69-4.98,10.67c0,0-1.42,1.42-12.09,2.13l-81.77,2.13s-5.69-.71-7.82-7.11l-6.4-36.26s-22.04-15.64-29.15-30.57l-8.53-12.8,47.64-26.31s6.4,13.51,10.67,18.49l.71,.71h8.53v-4.27s0-4.27,6.4-3.56h34.84s4.98-.71,4.98,2.84v2.84h12.09l8.53-18.49Z"/>
      <line class="cls-6" x1="152.86" y1="247.95" x2="155.18" y2="261.34"/>
      <line class="cls-6" x1="272.05" y1="245.76" x2="270.63" y2="259.27"/>
      <path class="cls-9" d="M187.79,169.33s-4.27-1.42-4.98,2.13,.71,5.69,.71,5.69c0,0,1.42,4.98,4.98,4.98,0,0,.71,7.11,3.56,9.95,0,0,3.56,7.11,12.09,8.53l4.62,.71,13.15,.71-.71-6.4s8.53-8.53,6.4-13.51c0,0,4.27-.71,4.98-4.98,0,0,2.13-5.69-2.13-8.53l-4.27-.71-3.12-8.51-7.55-7.13-4.27-1.42-9.14,2.34-12.09,6.4-1.53,6.19-.71,3.56Z"/>
      <circle class="cls-11" cx="199.52" cy="176.79" r="1.42"/>
      <circle class="cls-11" cx="216.59" cy="176.79" r="1.42"/>
      <path class="cls-3" d="M197.04,173.59s2.13-1.42,4.27,0"/>
      <path class="cls-3" d="M214.1,173.59s2.13-1.42,4.27,0"/>
    </g>
    <path class="cls-8" d="M231.7,171.32c-1.61,.11-3.23,.18-4.66,1.06-.53,.33-.85,.25-1.04-.3-.43-1.28-1.51-1.8-2.58-2.39-2.75-1.51-4.56-3.66-4.57-7.19-3.71,3.51-8.05,3.15-12.89,2.62,1.99-1.49,3.62-2.71,5.26-3.94-3.35,.84-6.66,1.27-10.06,1.19-2.97-.07-5.83-.64-8.63-1.55-.96-.31-1.32-.22-1.46,.82-.24,1.76-.66,3.5-.92,5.26-.23,1.57-.85,2.51-2.63,1.97-.38-.11-.78-.19-1.16-.28-1.43-3.26-1.46-6.61-.56-9.98,.27-1.01,.2-1.72-.45-2.52-.46-.56-.79-1.28-1.03-1.98-.77-2.34-.53-3.04,1.42-4.62,6-4.89,12.98-6.1,20.46-5.4,4.3,.4,8.57,1.25,11.92,4.06,2.51,2.1,5.19,3.67,8.06,5.18,5.46,2.86,7.76,9.4,6.07,16-.17,.67-.37,1.33-.55,2Z"/>
  </g>
  <path class="cls-8" d="M207.88,187.99c.57-.07,1.11,0,1.24-.58,.15-.66-.33-.94-.85-1.05-1.54-.3-2.89-.95-4.08-1.98-.37-.32-.86-.43-1.22-.01-.4,.47-.24,.97,.19,1.35,1.38,1.25,3,2.01,4.72,2.26Z"/>
</svg>