<?xml version="1.0" encoding="UTF-8"?>
<svg id="Capa_1" data-name="Capa 1" xmlns="http://www.w3.org/2000/svg" viewBox="0 0 658.4 640.9">
  <defs>
    <style>
      .cls-1 {
        fill: #fff;
      }

      .cls-2 {
        fill: #f5f5f5;
      }

      .cls-3 {
        fill: #d1bedc;
      }

      .cls-4 {
        fill: #455a64;
      }

      .cls-5 {
        fill: none;
        stroke-width: 3.94px;
      }

      .cls-5, .cls-6, .cls-7 {
        stroke-miterlimit: 10;
      }

      .cls-5, .cls-7 {
        stroke: #eeeae4;
      }

      .cls-8 {
        fill: #039478;
      }

      .cls-9 {
        fill: #1d2440;
      }

      .cls-10 {
        opacity: .3;
      }

      .cls-11 {
        fill: #192e35;
      }

      .cls-12 {
        fill: #0f6753;
      }

      .cls-13 {
        fill: #1b2545;
      }

      .cls-6 {
        fill: #1d2441;
        stroke: #1d2441;
      }

      .cls-14 {
        fill: #5f8486;
      }

      .cls-15 {
        fill: #cfccd1;
      }

      .cls-7 {
        fill: #6a81b0;
        stroke-width: 3.99px;
      }
    </style>
  </defs>
  <rect class="cls-2" x="166.29" y="101.14" width="223.32" height="305.78" rx="7.2" ry="7.2"/>
  <path class="cls-11" d="M553.68,523.23c0,.14-89.96,.26-200.9,.26s-200.92-.12-200.92-.26,89.94-.26,200.92-.26,200.9,.12,200.9,.26Z"/>
  <g>
    <rect class="cls-1" x="176.34" y="87.78" width="223.32" height="305.78" rx="7.2" ry="7.2"/>
    <path class="cls-11" d="M392.47,393.56c-.01-.06,.95,.11,2.63-.53,.82-.33,1.81-.89,2.69-1.88,.89-.96,1.63-2.39,1.8-4.11,.05-6.95-.01-17.24-.01-30.47-.02-26.47-.05-64.76-.08-112.07,0-23.66-.02-49.57-.03-77.39,0-13.91,0-28.29-.01-43.11,0-7.41,0-14.93,0-22.55,0-1.91,0-3.82,0-5.73,.12-1.9-.4-3.79-1.64-5.22-1.2-1.43-3-2.35-4.88-2.46-1.91-.05-3.88-.01-5.83-.02-62.56,0-131.33,.01-203.52,.02-2.18,0-4.33,1.06-5.6,2.83-.65,.87-1.09,1.89-1.26,2.96-.17,1.05-.08,2.2-.1,3.32,0,4.49,0,8.96,0,13.42,0,8.91,0,17.77,0,26.56,0,17.58,0,34.91,0,51.93,0,34.05-.01,66.88-.02,98.17,0,31.28-.02,61.01-.02,88.83,0,3.48,0,6.92,0,10.34,0,1.66,.63,3.3,1.71,4.54,1.07,1.25,2.59,2.09,4.2,2.33,.8,.13,1.64,.08,2.47,.09,.83,0,1.67,0,2.5,0,1.66,0,3.32,0,4.96,0,3.29,0,6.55,0,9.78,0,12.91,0,25.31,.01,37.13,.02,47.31,.03,85.6,.06,112.06,.08,13.23,.02,23.5,.04,30.47,.05,3.48,.01,6.13,.02,7.92,.03,1.78,0,2.7,.03,2.7,.03,0,0-.91,.02-2.7,.03-1.79,0-4.44,.01-7.92,.03-6.97,.01-17.24,.03-30.47,.05-26.46,.02-64.75,.05-112.06,.08-11.83,0-24.22,.01-37.13,.02-3.23,0-6.49,0-9.78,0-1.65,0-3.3,0-4.96,0-.83,0-1.66,0-2.5,0-.83,0-1.67,.04-2.54-.1-1.71-.25-3.33-1.14-4.46-2.47-1.14-1.32-1.8-3.05-1.81-4.81,0-3.42,0-6.87,0-10.34,0-27.82-.02-57.55-.02-88.83,0-31.28,0-64.12-.02-98.17,0-17.02,0-34.35,0-51.93,0-8.79,0-17.65,0-26.56,0-4.46,0-8.93,0-13.42,.02-1.12-.07-2.23,.11-3.4,.18-1.15,.65-2.25,1.35-3.19,1.37-1.9,3.68-3.05,6.02-3.04,72.19,0,140.96,.01,203.52,.02,1.96,.01,3.89-.02,5.86,.03,2.01,.12,3.93,1.1,5.21,2.63,1.32,1.51,1.87,3.6,1.74,5.52,0,1.92,0,3.83,0,5.73,0,7.62,0,15.14,0,22.55,0,14.82,0,29.2-.01,43.11-.01,27.82-.02,53.73-.03,77.39-.03,47.31-.06,85.6-.08,112.07-.03,13.23,0,23.5-.08,30.48-.19,1.75-.94,3.19-1.85,4.16-.89,.99-1.89,1.56-2.72,1.88-.83,.34-1.52,.41-1.97,.46-.45,.02-.68,.02-.68,.02Z"/>
  </g>
  <g>
    <g>
      <path class="cls-13" d="M490.65,491.64v16.4s-4.34,12.06-7.72,12.54c0,0-2.41,.96,.48,2.41h32.31s1.93,0,2.41-2.89v-26.04l-27.49-2.41Z"/>
      <line class="cls-5" x1="495.23" y1="501.53" x2="499.57" y2="501.53"/>
      <line class="cls-5" x1="495.23" y1="506.59" x2="499.57" y2="506.59"/>
      <line class="cls-5" x1="494.27" y1="510.93" x2="498.61" y2="510.93"/>
    </g>
    <path class="cls-12" d="M518.5,302.52v23.21l-9.44,74.13s6.97,34.76,8.8,54.39c1.6,17.04,4.3,46.77,4.3,46.77l-33.3-.05-13.99-98.98-6.21-61.73-11.27-36.57,61.11-1.18Z"/>
    <g>
      <path class="cls-13" d="M462.49,487.79s4.32,13.44,5,17.86c0,0-1,7.6-2.04,9.59,0,0-2.72,5.18-3.81,6.12s-.37,1.84-.37,1.84c0,0,1.67,1.38,2.56,.83s28.76-5.72,28.76-5.72c0,0,8.2-.78,6.11-5.93l-3.9-27.95-32.31,3.35Z"/>
      <line class="cls-7" x1="471.38" y1="494.24" x2="477.49" y2="492.88"/>
      <line class="cls-7" x1="473.2" y1="498.75" x2="479.31" y2="497.39"/>
      <line class="cls-7" x1="475.08" y1="504.31" x2="481.19" y2="502.95"/>
    </g>
    <polygon class="cls-8" points="497.4 306.61 445.13 301.42 446.85 408.41 459.83 481.75 462.86 500.11 502.9 494.91 485.78 404.43 497.4 306.61"/>
    <g>
      <path class="cls-13" d="M457.46,130.79c.34,3.18,1.95,5.51,4.73,7.05,.38,.21,.78,.37,1.17,.55,.28-.15,.21-.42,.24-.65,.12-1.23,.23-2.45,.5-3.66,.1-.44,.3-.71,.77-.8,.5-.1,.96-.33,1.42-.55,.09,.17,0,.3-.03,.42-.31,1.42,.26,2.56,1.61,3.13,.98,.42,2.03,.58,3.09,.62,2.17,.09,4.32-.15,6.46-.54,.66-.12,.66-.12,.82,.52,.22,.85,.47,1.7,.84,2.5,.64,1.56,1.49,2.99,2.57,4.29,.32,.38,.49,.36,.83-.08,.71-.91,1.47-1.77,2.5-2.31,1.54-.81,3.11-1.1,4.76-.33,1.66,.77,2.45,2.13,2.54,3.9,.14,2.84-.91,5.28-2.75,7.38-.43,.49-.56,.91-.29,1.52,.74,1.66,1.33,3.38,2.16,5,1.53,2.98,3.99,4.71,7.28,5.29,.29,.05,.6,.07,.9,.02,.52-.07,1.07,.12,1.57-.16,.69-.63,1.16-1.43,1.68-2.19,2.22-3.21,4.22-6.56,5.8-10.13,1-2.24,1.82-4.55,2.4-6.93,.33-1.36,.58-2.75,.68-4.14,.24-3.38-.41-6.6-1.87-9.68-.77-1.63-1.67-3.18-2.83-4.56-1.2-1.43-2.61-2.65-4.22-3.62-1.19-.71-2.49-1.16-3.8-1.59-.51-.17-.98-.45-1.34-.83-2.4-2.51-5.37-4.04-8.67-4.96-2.83-.79-5.71-1.23-8.66-1.33-.98-.03-1.97-.11-2.95-.07-3.09,.11-6.17,.39-9.19,1.13-2.16,.53-4.25,1.22-6.17,2.35-1.15,.68-2.06,1.59-2.73,2.75-.98,1.68-.34,2.88,1.8,3.13-2.14,1.58-3.35,3.61-3.62,6.18-.05,.47-.05,.93,0,1.4Z"/>
      <path class="cls-3" d="M499.41,163.9c-3.63-.31-6.29-2.13-7.91-5.36-.86-1.71-1.51-3.52-2.27-5.28-.12-.27-.01-.42,.16-.6,1.65-1.75,2.69-3.82,3.02-6.21,.23-1.68,.08-3.32-1.15-4.66-1.37-1.5-3.54-1.88-5.65-1.04-1.35,.54-2.39,1.47-3.22,2.64-.11,.15-.22,.31-.35,.48-1.2-1.37-2.1-2.89-2.83-4.52-.17-.15-.36-.23-.58-.21-1.77,.19-3.55,.21-5.32,.21-.11,0-.21,.05-.31,.07-.47,.47-1.01,.46-1.6,.25-.35-.12-.72-.18-1.09-.18-.49,0-.94-.11-1.35-.38-1.66-.2-3.31-.45-4.96-.75-.21-.04-.42-.05-.59,.13-.2,1.39-.23,2.79-.34,4.19-.13,1.62-.25,3.25-.4,4.87-.04,.47,.05,.95-.09,1.42-.05,.18-.08,.34-.32,.32-1.04-.05-1.92,1.2-1.71,2.38,.13,.74,.5,1.38,1.17,1.73,.51,.26,.54,.62,.49,1.08-.19,1.81-.43,3.63-.29,5.46,.2,2.66,1.14,5.08,2.77,7.21,1.97,2.57,4.55,4.22,7.69,5,.12,.03,.23,.08,.35,.12,.24,.16,.5,.24,.79,.28,1.8,.23,3.61,.24,5.42,.11,2.62-.19,5.15-.73,7.62-1.59,1.16-.41,2.3-.88,3.46-1.47-1.25,1.65-2.44,3.25-3.78,4.75-1.81,2.03-3.76,3.9-5.99,5.47-.16,.11-.93,.94-.91,1.17,.62,1.94,4.45,1.38,6.36,.67,5.72,.12,11.47,.57,16.68-1.38,.66-.25,.66-.29,.53-1.22-.19-1.43-1.41-10.81-1.58-12.25-.11-.93-.22-1.87-.33-2.81-.53-.13-1.08,.02-1.61-.08Z"/>
      <path class="cls-13" d="M479.97,180.27c2.97-2.07,5.5-4.6,7.77-7.4,.94-1.16,1.86-2.34,2.73-3.59-.2-.07-.32,.05-.44,.11-4.57,2.3-9.42,3.33-14.52,3.14-.93-.03-1.85-.18-2.77-.27,.13,.87,.27,1.73,.39,2.6,.19,1.38,.38,2.77,.57,4.15,.13,.99,.26,1.98,.4,2.97,.03,.24,.02,.49,.43,.34,1.81-.7,3.63-1.38,5.44-2.07Z"/>
      <path class="cls-3" d="M463.42,138.49c1.22,.19,2.43,.39,3.65,.58,.64,.1,1.27,.21,1.92,.17,.01-.01,.03-.02,.04-.03,.36-.88,.39-.9,1.38-.83,.37,.02,.73,.11,1.09,.17,.64,.11,1.23,.3,1.45,1.01,1.08,0,2.17,.03,3.25-.01,1.01-.04,2.01-.19,3.02-.19-.38-.98-.73-1.97-.92-3.01-.06-.32-.19-.3-.42-.26-.74,.13-1.47,.27-2.21,.37-2.35,.3-4.7,.51-7.04-.08-1.59-.41-2.43-1.44-2.28-2.78,.05-.43,.2-.84,.31-1.32-.74,.51-1.51,.78-2.32,.95-.18,.04-.27,.09-.31,.29-.25,1.04-.44,2.09-.52,3.16-.05,.58-.1,1.15-.16,1.73,.02,.03,.04,.07,.06,.1Z"/>
      <path class="cls-14" d="M499.41,163.9c.53,.17,1.08,.06,1.61,.08,.04-.03,.08-.07,.12-.1-.58,0-1.15,.01-1.73,.02Z"/>
      <path class="cls-15" d="M457.46,130.79c0-.47,0-.93,0-1.4-.14,.46-.14,.93,0,1.4Z"/>
      <path class="cls-13" d="M474.15,153.42c-.3,.01-.51,.16-.67,.39-1.03,1.48-2.41,2.48-4.13,3.02-.45,.14-.65,.55-.51,.95,.14,.43,.49,.61,.97,.46,2.06-.66,3.71-1.89,4.94-3.67,.16-.23,.25-.46,.09-.73-.16-.27-.41-.37-.68-.42Z"/>
      <path class="cls-13" d="M487.9,144.64c-.43,.03-.94,.43-1.36,.94-.73,.87-1.03,1.95-1.33,3.01-.13,.46,.17,.75,.57,.87,.4,.12,.68-.13,.83-.48,.22-.52,.32-1.07,.57-1.58,.3-.64,.6-1.21,1.42-1.32,.4-.05,.63-.39,.6-.81-.02-.38-.46-.63-1.29-.63Z"/>
      <path class="cls-13" d="M471.2,148.24c.88,0,1.59-.67,1.61-1.53,.02-.86-.74-1.62-1.61-1.62-.86,0-1.56,.72-1.56,1.59,0,.89,.65,1.55,1.56,1.56Z"/>
      <path class="cls-13" d="M472.95,139.56c.05-.62-.07-.83-.66-1-.79-.23-1.6-.38-2.42-.39-.79,0-1.03,.28-.88,1.07,.2,.27,.46,.43,.81,.42,.73-.02,1.44,.12,2.13,.34,.51,.16,.81,0,1.03-.44Z"/>
    </g>
    <path class="cls-3" d="M527.27,221.41s8.51,45.9,8.09,50.19c-.41,4.29-2.67,11.12-7.8,12.29-5.13,1.17-9.85,0-9.85,0l6.16-56.38,3.4-6.1Z"/>
    <g>
      <g>
        <path class="cls-3" d="M390.19,172.98c-.36-.52-.27-1.25,.27-1.62,.14-.09,.28-.15,.43-.12,.57,.09,2.08,1.16,3.24,1.18,1.16,.02,3.13-.33,4.29,.72,1.16,1.05,3.99,6.77,4.35,8.02,.36,1.24,1.62,12.17,1.62,12.17l-14.19-20.34Z"/>
        <path class="cls-11" d="M385.29,171.55c.06,.07,13.87,5.98,19.94,8.58,1.35,.58,1.66,2.28,.59,3.28h0c-.66,.62-1.66,.77-2.47,.37l-19.82-9.37-1.63-2.41,3.39-.46Z"/>
        <path class="cls-3" d="M399.91,183.61l-4.4-3.15-5.81-8.18s-2.38-1.37-3.61-.51c-1.23,.86-1.64,1.86-1.06,2.98,0,0-3.29,.76-3.52,1.83-.23,1.07,.48,3.66,.48,3.66,0,0-.49,1.99-.02,3.05,.46,1.06,.41,1.97,.41,1.97,0,0-2.13,2.53-1.21,5.11,.91,2.58,4.75,8.35,6.8,9.84,2.05,1.49,5.94,3.28,5.94,3.28l2.54,5.16,10.53-9.25-7.05-15.78Z"/>
        <path class="cls-6" d="M389.88,172.63c-.39,.1,.04,.43,.22,.71,.21,.31,.51,.43,.82,.89,.67,.97,1.61,2.31,2.66,3.78,.53,.73,1.03,1.43,1.49,2.07,.24,.32,.48,.61,.76,.84,.27,.23,.57,.4,.84,.53,.56,.25,1.04,.37,1.36,.44,.02,0,.32,.02,.32,0,0-.01,0,0-.3-.08-.32-.1-.79-.24-1.32-.5-1.14-.46-1.89-2-2.98-3.43-1.05-1.47-2.01-2.79-2.71-3.74-.34-.45-.62-.82-.84-1.12-.2-.26-.32-.4-.33-.4Z"/>
        <path class="cls-6" d="M388.53,181.14c.05-.16-.71-1.47-1.7-3.22-.99-1.75-1.83-3.13-1.89-3.12-.34,.06,.71,1.47,1.7,3.22,.99,1.75,1.8,3.4,1.89,3.12Z"/>
        <path class="cls-6" d="M387.14,186.26s.05-.18,.16-.45c.1-.26,.32-.61,.69-.85,.36-.24,.77-.32,1.07-.33,.29,0,.48,.04,.49,0,0-.02-.16-.12-.48-.15-.31-.03-.78,.03-1.19,.31-.41,.28-.63,.68-.71,.98-.08,.3-.11,.41-.01,.49Z"/>
        <path class="cls-6" d="M382.26,187.79s.18-.1,.43-.29c.25-.19,.6-.46,1.03-.65,.43-.19,.87-.25,1.16-.18q.33,.12,.44,.22s-.05-.25-.39-.36c-.33-.11-.83-.07-1.29,.14-.47,.21-.81,.51-1.04,.73-.23,.23-.43,.32-.33,.4Z"/>
        <path class="cls-6" d="M384.14,183.48c.16-.06-.38-.78-.97-1.67-.58-.89-1.02-1.75-1.15-1.56s.38,.78,.97,1.67c.58,.89,.87,1.66,1.15,1.56Z"/>
        <path class="cls-6" d="M392.58,183.86s.03-.18,.11-.43c.08-.25,.26-.59,.6-.82,.33-.23,.72-.3,.99-.3,.28,0,.45,.06,.46,.02,.01-.02-.15-.13-.45-.17-.29-.04-.74,0-1.13,.28-.39,.27-.57,.67-.62,.96-.05,.29,.01,.47,.04,.47Z"/>
        <path class="cls-4" d="M404.1,183.83s-.19-.19-.38-.54c-.19-.34-.33-.92-.1-1.48,.23-.56,.72-.91,1.1-1.05,.38-.15,.65-.15,.65-.18,0-.02-.27-.08-.7,.05-.42,.12-.98,.48-1.24,1.12-.25,.64-.07,1.28,.17,1.63,.24,.37,.5,.49,.51,.47Z"/>
      </g>
      <g>
        <path class="cls-3" d="M441.75,209.99l-16.7,13.87-20.51-29.72-13.33,7.63s19.98,44.63,25.4,48.57c5.42,3.94,9.98,2.92,16.95-.2,6.97-3.12,31.79-27.36,31.79-27.36l-23.6-12.79Z"/>
        <path class="cls-3" d="M424.45,236.2c.16-.02-.29-2.83-.09-6.29,.18-3.46,.94-6.2,.78-6.24-.12-.05-1.13,2.68-1.32,6.22-.21,3.54,.5,6.35,.63,6.32Z"/>
      </g>
    </g>
    <g>
      <path class="cls-9" d="M509.92,187.3s-14.2,.2-14.41,17.37c-.21,17.17,3.61,40.14,3.61,40.14l36.25-6.2s-4.5-31.97-8.34-41.17c-3.86-9.27-11.24-11.7-17.12-10.14Z"/>
      <path class="cls-9" d="M503.19,174.94l.45,2.8s19.37,12.42,20.47,15.62c1.7,4.97-2.01,46.95-3.64,58.85-1.64,11.9-1.97,38.12-1.97,38.12,1.19,3.09,2.54,5.87,2.99,10.18,.44,4.27-2.99,8.17-2.99,8.17-20.79,6.58-46.18,1.53-73.65-4.55l.26-7.55,8.98-82.07s-2.62-21.33,8.11-27.51c1.18-.68,10.53-5.84,10.53-5.84l30.45-6.23Z"/>
      <g class="cls-10">
        <path d="M472.03,210.51s.17,11.81-6.38,25.31c-6.55,13.5-16.3,21.94-16.3,21.94l2.91-24.56,19.77-22.7Z"/>
      </g>
      <g>
        <path class="cls-9" d="M455.76,189.79c3.4-2.67,9.71-4.11,13.32-1.72,1.6,1.07,3.48,2.68,4.37,5.22,3.08,8.73,1.24,18.11-1.22,25.07-2.46,6.96-14.36,20.38-14.36,20.38l-29.39-17.31s19.67-23.13,21.72-25.52c1.07-1.25,3.67-4.65,5.56-6.13Z"/>
        <path class="cls-9" d="M455.76,189.79s-.23,.14-.62,.48c-.39,.34-.95,.87-1.62,1.6-1.36,1.46-3.16,3.72-5.58,6.49-4.8,5.6-11.59,13.53-19.65,22.93l-.18,.21,.24,.14c8.32,4.91,17.78,10.49,27.77,16.38,.55,.32,1.1,.65,1.61,.95l.2,.12,.15-.17c3.29-3.77,6.34-7.56,9.08-11.37,1.37-1.91,2.65-3.82,3.75-5.8,.55-.99,1.05-1.99,1.45-3.03,.39-1.03,.71-2.06,1.02-3.09,2.45-8.19,2.52-16.22,.28-22.33-.54-1.55-1.49-2.86-2.58-3.87-1.1-.98-2.25-1.86-3.54-2.25-1.27-.41-2.53-.48-3.66-.42-1.13,.06-2.15,.25-3.04,.5-1.79,.48-3.07,1.17-3.89,1.67-.82,.51-1.18,.86-1.18,.86,.02,.03,.4-.3,1.24-.78,.83-.47,2.11-1.12,3.89-1.56,.88-.23,1.89-.41,3-.45,1.11-.04,2.33,.04,3.55,.45,1.22,.39,2.34,1.25,3.4,2.22,1.05,.99,1.95,2.25,2.46,3.75,2.16,6.04,2.06,13.97-.39,22.08-.31,1.01-.63,2.04-1.02,3.05-.39,1-.88,1.99-1.42,2.96-1.09,1.94-2.37,3.85-3.73,5.74-2.73,3.79-5.79,7.57-9.06,11.32l.34-.05c-.51-.3-1.06-.62-1.61-.95-10-5.88-19.47-11.44-27.8-16.34l.06,.35c7.99-9.45,14.73-17.42,19.49-23.05,2.39-2.79,4.16-5.09,5.47-6.57,.66-.74,1.19-1.29,1.56-1.64,.37-.36,.58-.52,.57-.54Z"/>
      </g>
      <path class="cls-11" d="M524.49,202.86s-.05,.17-.08,.5c-.04,.39-.08,.86-.14,1.43-.1,1.33-.23,3.11-.39,5.27-.3,4.53-.7,10.64-1.14,17.4-.46,6.79-.94,12.94-1.35,17.38-.21,2.16-.38,3.94-.5,5.26-.05,.57-.09,1.04-.13,1.43-.02,.33-.03,.5,0,.5,.02,0,.06-.17,.12-.49,.06-.38,.14-.85,.23-1.42,.19-1.24,.43-3.03,.67-5.25,.51-4.44,1.05-10.59,1.51-17.38,.46-6.8,.77-12.95,.98-17.41,.09-2.17,.17-3.95,.22-5.28,.01-.57,.03-1.05,.04-1.44,0-.33,0-.5-.02-.5Z"/>
      <path class="cls-11" d="M459.49,302.52s.18,.07,.54,.17c.42,.1,.95,.22,1.59,.37,.69,.17,1.54,.34,2.53,.52,.99,.19,2.11,.4,3.37,.58,2.5,.42,5.5,.76,8.84,1.07,3.34,.27,7.02,.47,10.89,.52,3.87,.03,7.56-.1,10.9-.32,3.34-.26,6.35-.56,8.85-.95,1.26-.17,2.38-.37,3.37-.55,.99-.17,1.84-.34,2.53-.5,.64-.15,1.17-.27,1.59-.37,.36-.09,.55-.15,.54-.16,0-.02-.2,0-.57,.06-.43,.07-.96,.16-1.6,.27-.69,.13-1.55,.27-2.54,.42-.99,.16-2.12,.33-3.37,.48-2.5,.35-5.5,.6-8.83,.84-3.34,.19-7.01,.3-10.86,.27-3.86-.05-7.52-.23-10.86-.48-3.33-.29-6.32-.59-8.82-.96-1.25-.16-2.38-.34-3.37-.5-.99-.15-1.84-.29-2.54-.43-.65-.11-1.18-.2-1.6-.28-.37-.06-.56-.08-.57-.06Z"/>
    </g>
  </g>
</svg>