<?xml version="1.0" encoding="UTF-8"?>
<svg id="Capa_1" data-name="Capa 1" xmlns="http://www.w3.org/2000/svg" viewBox="0 0 658.48 797.74">
  <defs>
    <style>
      .cls-1 {
        fill: #83ceeb;
      }

      .cls-2 {
        stroke: #efeae4;
        stroke-miterlimit: 10;
        stroke-width: 1.42px;
      }

      .cls-2, .cls-3 {
        fill: #171b33;
      }

      .cls-4 {
        fill: #232f55;
      }

      .cls-5 {
        fill: #638291;
      }

      .cls-6 {
        fill: #1b2545;
      }

      .cls-7 {
        fill: #68a0b4;
      }

      .cls-8 {
        fill: #d2bfdd;
      }
    </style>
  </defs>
  <path class="cls-6" d="M251.29,200.71c2.12-.52,4.19-.05,6.23,.41,.81,.18,1.08-.01,.96-.76-.16-.97,.33-1.3,1.14-1.71,4.56-2.3,7.06-6.09,7.73-11.12,.05-.37-.12-.8,.33-1.18,3.89,2.73,8.06,4.96,12.71,6.2,3.37,.9,6.78,1.46,10.26,1.14,1.03-.09,1.3,.24,1.35,1.16,.07,1.3,.25,2.6,.37,3.9,.08,.83,.24,1.31,1.34,1.2,2.17-.21,3.7,1.27,3.73,3.45,.03,2.5-1.14,4.49-2.87,6.15-.67,.64-.93,1.27-.92,2.2,.06,9.44-6.48,15.99-15.9,16.04-2.92,.02-5.74-.46-8.54-1.4,1.82,2.41,4.25,4,6.83,5.38,1.35,.73,2.76,1.37,4.25,1.72,1.04,.24,1.19,.83,1.03,1.74-.24,1.34-.41,2.69-.61,4.03,3.11,.11,6.22,.23,9.33,.32,2.27,.06,2.51-.2,2.61-2.45,.02-.49-.11-1.03,.25-1.47,.27-3.84,1.43-7.44,2.86-10.99,4.23-10.45,4.21-20.91,.12-31.39-.26-.67-.45-1.31-.34-2.11,.17-1.3-.54-2.42-1.34-3.4-3.69-4.47-8.57-7.06-14.03-8.56-5.61-1.55-10.94-1.07-16.22,1.87-3.62,2.02-6.88,4.11-8.88,7.82-1.26,2.33-1.48,4.99-2.32,7.45-.49,1.45-.96,2.91-1.44,4.36Z"/>
  <circle class="cls-5" cx="294.63" cy="210.16" r="2.17"/>
  <path class="cls-3" d="M356.61,657.09l2.17,23.2,2.9,26.82v.72h10.87l-.72-13.77,13.77,13.05,.72,.72h53.65s.72-21.02-12.32-28.27c0,0-19.57-5.8-21.75-13.77,0,0-5.8-7.97-5.8-16.67l-43.5,7.97Z"/>
  <path class="cls-3" d="M265.27,691.89l1.45,2.17c4.35,7.25,0,13.77,0,13.77h-53.65l-7.97-12.32-7.25,12.32h-12.32l4.35-15.95,10.87-41.32,47.12,10.87s-1.45,8.7-1.45,13.77c0,0,1.45,5.07,13.77,13.05,0,0,3.62,1.45,5.07,3.62Z"/>
  <path class="cls-8" d="M255.8,238.59c6.17-.07,12.32,.46,18.48,.44,2.13,0,4.27,.3,6.42,.23,.98-1.39,.81-3.04,1.01-4.6,.09-.69-.39-1.21-1.02-1.42-3.95-1.3-7.43-3.38-10.52-6.16-.11-.1-.3-.17-.34-.14,2.79,1.07,5.79,1.23,8.84,1.21,8.26-.07,15.17-6.67,15.41-14.95,.05-1.68,.4-3.03,1.63-4.28,1.34-1.36,2.07-3.13,2.15-5.08,.1-2.39-1.08-3.96-3.44-4.31-1.22-.18-1.72-.69-1.66-1.86,0-.17,0-.34-.02-.51-.45-4.24-.7-3.86-3.9-3.86-6.74,0-12.95-2.17-18.63-5.82-2.76-1.77-2.89-2.15-3.62,1.47-.82,4.09-3.19,7.1-6.81,9.14-.54,.3-1.32,.47-1.46,1.1-.37,1.69-1.46,1.35-2.62,1.13-1.5-.29-3.04-.69-4.42,.39-1.05,1.16-1.35,2.63-1.62,4.1,.2,3.17,2.05,5.25,4.48,7.04,2.66,1.95,4.23,4.64,3.84,7.96-.65,5.64-1.7,11.23-2.43,16.87-.08,.65-.39,1.35,.24,1.92Z"/>
  <path class="cls-8" d="M218.44,113.62c-3.56-1.92-7.13-3.81-10.67-5.76-6.13-3.38-12.23-6.8-18.35-10.2-.25-.14-.48-.31-.71-.47,1.58-1.86,3.11-3.77,3.96-6.08,2.05-5.56,3.82-11.21,5.43-16.91,.14-.5,.3-1.01,.55-1.46,.67-1.17,1.69-1.6,2.95-1.05,1.17,.51,1.9,1.34,1.5,2.75-.87,2.99-1.74,5.98-2.66,9.15,1.27-.76,2.35-1.44,3.46-2.05,.68-.37,.93-.96,1.16-1.65,1.23-3.76,2.77-7.4,4.66-10.88,.96-1.76,2.27-2.37,3.63-1.66,1.36,.7,1.64,2.14,.68,3.94-1.24,2.31-2.29,4.7-3.3,7.12-.43,1.02-.41,1.53,.98,1.57,3.13,.1,3.11,.18,4.51-2.72,1.31-2.72,2.65-5.43,4.03-8.12,.78-1.52,2.12-1.99,3.47-1.35,1.28,.61,1.67,2.05,.84,3.59-1.79,3.33-3.39,6.75-4.95,10.19-.41,.91-.43,1.57,.33,2.32,.84,.84,1.53,1.85,2.35,2.87,1.24-2.26,2.4-4.46,3.64-6.61,1.2-2.07,2.59-4.01,4.15-5.82,1.04-1.2,2.47-1.42,3.53-.62,1.23,.93,1.43,2.27,.24,3.65-4.67,5.45-7.3,11.98-9.79,18.56-.75,1.98-1,4.15-1.56,6.58,2.63-1.99,5-3.8,7.4-5.58,1.18-.87,2.48-1.35,3.89-.54,1.3,.74,1.77,1.92,1.64,3.4-.09,.96-.68,1.53-1.41,2.08-5.21,3.91-10.39,7.84-15.58,11.76Z"/>
  <path class="cls-6" d="M278.57,218.18c.57-.07,1.11,0,1.24-.58,.15-.66-.33-.94-.85-1.05-1.54-.3-2.89-.95-4.08-1.98-.37-.32-.86-.43-1.22-.01-.4,.47-.24,.97,.19,1.35,1.38,1.25,3,2.01,4.72,2.26Z"/>
  <path class="cls-6" d="M269.39,208.9c-.05,.67,.45,1.21,1.27,1.26,.93,.06,1.49-.5,1.51-1.46,.01-.89-.57-1.39-1.38-1.43-.84-.03-1.36,.47-1.4,1.62Z"/>
  <path class="cls-6" d="M286.2,209.28c1.17-.03,1.65-.57,1.62-1.4-.03-.83-.58-1.39-1.43-1.37-.92,.02-1.5,.59-1.43,1.53,.06,.85,.57,1.34,1.23,1.24Z"/>
  <path class="cls-6" d="M270.59,202.73c.45,0,.73,0,1.01,0,.63,.01,1.16-.2,1.2-.88,.04-.77-.57-.85-1.17-.84-.28,0-.56,0-.84,.02-.83,.06-1.98,.03-1.94,1.06,.04,1.14,1.22,.53,1.74,.65Z"/>
  <path class="cls-6" d="M285.94,202.06c.85-.26,2.32,.25,2.42-1.07,.08-1.06-1.2-.66-1.9-.7-.81-.04-1.86-.05-1.96,1.04-.09,.95,.84,.63,1.44,.72Z"/>
  <g>
    <path class="cls-8" d="M426.13,123.03c1.82,1.17,3.96,1.55,5.92,2.4,4.5,1.96,9.14,3.59,13.7,5.41,4.45,1.78,8.87,3.65,13.3,5.48,.26,.11,.55,.14,.82,.21,1.09-6.71,5.01-12.21,7.83-18.17,.53-1.12,1.21-2.18,1.79-3.28,.63-1.21,.23-2.7-.84-3.29-1.24-.69-2.59-.34-3.33,.98-1.43,2.57-2.79,5.19-4.16,7.74-2.15-3.16-.79-6.04,.69-8.91,1.32-2.55,1.93-5.34,2.8-8.04,.44-1.36-.14-2.47-1.35-2.94-1.21-.48-2.42-.04-3.01,1.23-.48,1.02-.74,2.15-1.1,3.22-.69,2.04-1.2,4.15-2.39,5.99-.1-.02-.23,0-.31-.06-1.06-.75-2.59-1.29-3.05-2.32-.48-1.05,.72-2.36,1.08-3.6,.77-2.67,1.67-5.31,2.49-7.96,.52-1.7,0-2.89-1.37-3.3-1.45-.44-2.66,.28-3.21,1.98-1.02,3.14-2.05,6.28-2.99,9.44-.49,1.66-1.27,2.71-3.22,2.43-.84-.12-1.67,.16-2.77,.68,.28-.9,.45-1.53,.66-2.13,1.37-3.82,2.11-7.77,2.56-11.79,.23-2.02-.49-3.13-2.06-3.28-1.52-.15-2.56,.81-2.72,2.8-.34,4.17-1.33,8.19-2.76,12.09-1.6,4.36-3.36,8.66-6.51,12.49-.44-2.97-.86-5.76-1.27-8.56-.16-1.1-.42-2.16-1.52-2.7-1.1-.54-2.24-.9-3.38-.12-1.2,.83-1.62,2-1.41,3.42,.55,3.71,1.13,7.42,1.64,11.13,.06,.45,.71,1.34-.55,1.31Z"/>
    <path class="cls-6" d="M440.59,119c-.12,.55,.13,.9,.51,1.2,2.53,2,4.29,4.5,5.16,7.63,.14,.51,.42,.99,1.08,.81,.74-.2,.71-.77,.54-1.37-1.01-3.51-3-6.33-5.89-8.54-.64-.49-1.02-.18-1.4,.27Z"/>
  </g>
  <path class="cls-7" d="M419.32,119.55l41.32,16.67s-6.52,18.12-18.12,34.8c0,0-19.94,28.64-22.84,30.81l-33.35,34.07-29.72,25.37-24.65,18.12-8.7,5.07-16.67-43.5s13.05-5.8,24.65-17.4l33.35-29.72s24.65-25.37,32.62-36.97c0,0,13.77-19.57,15.22-23.92l6.89-13.41Z"/>
  <polygon class="cls-6" points="310.21 346.82 340.66 409.16 368.21 472.96 381.98 510.65 397.93 561.4 410.26 611.42 417.5 654.19 345.74 662.89 339.21 625.19 331.24 589.67 320.36 555.6 308.76 520.8 289.91 473.68 281.22 416.41 273.97 359.87 310.21 346.82"/>
  <path class="cls-4" d="M308.76,338.84s-2.17,15.95-6.52,21.02c0,0-7.25,11.6-20.3,15.95l4.35,47.12,6.52,42.05v44.95s-5.07,49.3-12.32,68.14l-16.67,65.24-5.07,24.65-71.04-18.12,16.67-66.69,10.87-42.77s5.8-32.62,5.8-47.12c0,0-1.45-41.32-6.52-63.79l-4.35-36.25-3.51-34.23,102.11-20.14Z"/>
  <polygon class="cls-6" points="311.66 342.47 204.37 335.22 208 372.91 311.66 345.37 311.66 342.47"/>
  <path class="cls-1" d="M318.19,240.25l-29.72-2.9-26.75-1.58-34.15-2.04-26.1-16.67s-11.6-4.35-10.15-18.85c0,0,2.9-23.92,8.7-34.07,0,0,13.05-31.9,17.4-36.25l6.52-9.42-38.42-25.37-18.12,32.62-13.05,32.62-6.52,23.92s-5.07,21.02,2.17,40.6c0,0,2.17,12.32,22.47,29.72l28.27,17.4-1.45,60.17s0,10.15,7.97,11.6l100.04,6.52s10.87,1.45,13.05-7.97l15.95-79.74s.72-17.4-15.22-21.02l-2.9,.72Z"/>
  <line class="cls-2" x1="405.54" y1="677.75" x2="411.34" y2="671.95"/>
  <line class="cls-2" x1="399.74" y1="673.4" x2="406.99" y2="667.6"/>
  <line class="cls-2" x1="241.71" y1="679.2" x2="246.78" y2="675.58"/>
  <line class="cls-2" x1="243.88" y1="683.55" x2="248.96" y2="678.48"/>
  <path class="cls-6" d="M255.8,238.59c.6-4.25,1.18-8.51,1.79-12.76,.35-2.41,.72-4.81,1.12-7.21,.09-.55,.01-1-.3-1.44-.19-.28-.39-.57-.52-.88-.98-2.36-2.21-4.38-4.61-5.73-2.09-1.17-2.79-3.59-3.62-5.75-1.98,5.06-4.73,9.64-8.38,13.68-5.41,5.99-9.98,12.47-11.85,20.51-.68,4.26-.51,8.41,1.87,12.17,2.71,4.29,6.56,6.68,11.75,6.58,1.84-.03,3.41-.72,4.73-2.03,4.28-4.24,6.52-9.49,7.65-15.3,.12-.61,.25-1.22,.37-1.83Z"/>
  <circle class="cls-5" cx="254.75" cy="211.61" r="2.17"/>
</svg>