<?xml version="1.0" encoding="UTF-8"?>
<svg id="Capa_1" data-name="Capa 1" xmlns="http://www.w3.org/2000/svg" viewBox="0 0 706.89 796.08">
  <defs>
    <style>
      .cls-1 {
        fill: #83ceeb;
      }

      .cls-2 {
        opacity: .2;
      }

      .cls-3 {
        fill: #34b296;
      }

      .cls-4 {
        fill: #8b8390;
      }

      .cls-5 {
        fill: #fbfbfb;
      }

      .cls-6 {
        fill: #1b2545;
      }

      .cls-7 {
        stroke: #1e1e1c;
        stroke-miterlimit: 10;
      }

      .cls-7, .cls-8 {
        fill: #1d2441;
      }
    </style>
  </defs>
  <g id="OYJhNN">
    <g>
      <path class="cls-3" d="M379.34,214.35c-3.53-2.17-7.26-4-10.46-6.71-12.57-10.65-19.08-24.08-18.89-40.67,.05-4.05,.84-7.98,1.66-11.9,.23-1.12,.08-1.75-.65-2.59-5.08-5.87-8.25-12.55-8.51-20.44-.26-7.7,4.53-12.94,12.15-13.37,1.13-.06,2.04,.43,3.07,.59,.31-.2,.67-.31,1.01-.2,1.45,.48,1.77-.36,2.09-1.54,1.38-5.09,2.49-10.26,4.12-15.29,.2-.6,.43-1.19,.65-1.79,.43-1.18,1.16-1.65,2.45-1.3,2.93,.8,5.96,1.09,8.94,1.58,14.34,2.34,28.51,1.24,42.53-2.24,9.52-2.37,18.77-5.55,27.55-10.01,.5-.26,1.02-.48,1.55-.68,1.29-.5,1.85-.05,1.83,1.31-.04,2.25-.24,4.5-.16,6.76,.57,15.97,7.27,28.56,20.78,37.31,1.62,1.05,2.08,2.19,1.78,4.03-.74,4.56-.68,4.49,3.87,4.27,3.57-.17,7.16-.62,10.72,.17,9.27,1.53,13.34,9.85,9.05,18.98-4.34,9.23-11.49,15.34-21.42,17.98-1.27,.34-2.04,.88-2.66,2.04-2.31,4.37-4.97,8.55-8.39,12.12-2.04,2.12-2.57,4.4-2.59,7.18-.06,14.25-.27,28.5-.4,42.75-.07,8.07-.13,16.14-.12,24.22,0,1.92-.45,2.84-2.66,2.79-8.98-.2-17.97-.23-26.95-.33-8.14-.09-16.29-.21-24.43-.29-8.84-.08-17.69-.13-26.53-.18-.95,0-1.33-.3-1.31-1.37,.17-10.46,.27-20.91,.39-31.37,.59-.77,1.49-.73,2.31-.82,12.24-1.36,23.51-5.52,34.04-11.79,2.67-1.59,5.03-3.62,7.63-5.32,.25-.07-.15-.37,.01-.14,.03,.04-.02,.09-.17,.12-6.33,1.58-12.77,2.09-19.27,1.87-6.86-.23-13.57-1.33-20.08-3.55-1.59-.54-3.22-1.04-4.54-2.16Z"/>
      <path class="cls-6" d="M487.4,141.64c-3.6,.59-7.25,.04-10.87,.43-1.32,.14-2.66,.14-3.99,.25-.93,.07-1.26-.25-1.06-1.21,.28-1.38,.3-2.83,.72-4.16,.53-1.7-.25-2.42-1.56-3.28-13.77-9.02-20.61-21.88-20.97-38.25-.05-2.43,.11-4.87,.18-7.52-4.77,2.26-9.48,4.42-14.34,6.25-14.07,5.3-28.54,8.38-43.63,8.43-8.27,.03-16.37-1.12-24.38-2.99-1-.23-1,.27-1.23,.87-1.62,4.12-2.47,8.46-3.68,12.7-.55,1.95-.99,3.94-1.41,5.93-.23,1.08-.84,1.17-1.7,.86-.59-.21-1.17-.47-1.76-.7-1.44-6,.09-11.83,1.05-17.68,.22-1.36,.04-2.82,.85-4.08,.38-.6-.15-.87-.56-1.14-4.85-3.27-4.38-7.92-1.78-12.02,3.09-4.87,7.53-8.37,12.34-11.36,15.85-9.85,33.17-14.96,51.8-15.03,15.34-.06,29.28,4.25,41.28,14.38,3.9,3.3,8.54,5.75,12.23,9.41,10.36,10.25,16.76,22.23,16.33,37.21-.03,.98-.18,1.96-.27,2.94,.09,1.92-.74,3.75-.61,5.68-.96,4.7-1.59,9.47-2.97,14.08Z"/>
      <path class="cls-6" d="M379.34,214.35c2.81,.63,5.38,1.94,8.16,2.68,12.17,3.23,24.34,3.32,36.58,.49,.25-.06,.52-.06,1.36-.15-13.87,10.91-28.99,17.22-46.05,18.78-.02-7.27-.03-14.53-.05-21.8Z"/>
      <path class="cls-4" d="M490.38,127.56c-.36-1.95,.33-3.79,.61-5.68,.23,1.94-.27,3.8-.61,5.68Z"/>
      <path class="cls-6" d="M395.45,186.59c-1.55-.19-2.22-1.15-2.28-2.58-.06-1.43,.77-2.27,2.08-2.51,1.02-.2,2.1-.09,3.15-.2,4.32-.46,8.41-1.6,12.05-4.1,1.64-1.12,3.48-1,4.33,.2,1.04,1.47,.59,2.95-1.35,4.2-5.47,3.53-11.49,5.12-17.97,4.99Z"/>
      <path class="cls-6" d="M377.28,144.62c2.62,.42,4.27,2.75,3.8,5.36-.44,2.47-2.83,4.19-5.24,3.79-2.47-.42-4.33-3.03-3.87-5.44,.47-2.44,2.86-4.1,5.31-3.71Z"/>
      <path class="cls-6" d="M427.88,155.29c2.61,.37,4.43,2.76,4.01,5.26-.4,2.4-2.81,4.22-5.22,3.93-2.51-.29-4.31-2.75-3.9-5.35,.41-2.6,2.56-4.22,5.11-3.85Z"/>
      <path class="cls-6" d="M378.97,123.88c1.96,.26,3.82,.87,5.65,1.6,1.71,.69,2.14,2.01,1.5,3.59-.64,1.61-2.05,1.83-3.52,1.31-2.19-.77-4.38-1.48-6.7-1.79-1.8-.24-2.64-1.45-2.37-3.1,.26-1.62,1.48-2.29,3.15-1.99,.76,.14,1.52,.25,2.29,.37Z"/>
      <path class="cls-6" d="M433.71,141.2c-2.38-.99-4.97-1.56-7.59-2.08-1.48-.29-2-1.44-1.82-2.87,.18-1.41,1.14-2.18,2.45-2.11,3.1,.16,6.11,.87,8.94,2.18,1.35,.62,1.71,1.84,1.36,3.19-.32,1.25-1.83,1.98-3.34,1.7Z"/>
    </g>
  </g>
  <g>
    <path class="cls-3" d="M116.66,348.52l-37.7-42.75c-10.2-10.19-13.68-15.11-11.65-16.9,2.71-2.38,1.56-1.59,22.73,14.3,0,0-30.01-22.94-19.61-23.09,1.83-.03,6.92,2.95,12.38,6.53-7.43-6.32-9.48-10.56-8.07-12.6,2.42-3.51,20.78,9.22,29.23,15.35-6.91-5.15-20.07-15.14-22.4-18.27-3.17-4.28,3.26-3.94,8.5-2.15,5.88,2.01,38.38,18.59,48.01,22.89,6.62,2.96,8.95-3.04,8.95-3.04,3.54-14.89,14.25-24.59,18.39-25.85,4.14-1.26,7.26,3.99,4.34,7.78-2.36,3.06-4.75,9.35-6.34,14.14-1.32,3.95-1.99,8.07-1.92,12.2,.08,4.81,.34,8.88,.65,12.33l34.44,47.28-57.61,33.41-22.3-41.56Z"/>
    <path class="cls-8" d="M110.48,317.67c-.39,.54-7.08-4.07-14.96-10.29-7.87-6.22-13.9-11.68-13.46-12.18,.44-.5,7.13,4.1,14.96,10.29,7.82,6.18,13.85,11.64,13.46,12.18Z"/>
    <path class="cls-8" d="M117.82,310.15c-.38,.55-7.79-3.96-16.55-10.06-8.76-6.11-15.56-11.49-15.18-12.04,.38-.55,7.79,3.96,16.55,10.06,8.76,6.1,15.56,11.49,15.18,12.04Z"/>
    <path class="cls-8" d="M123.15,302.15c-.37,.55-7.46-3.6-15.82-9.26-8.37-5.67-14.85-10.7-14.47-11.25,.37-.55,7.46,3.59,15.82,9.26,8.36,5.66,14.84,10.7,14.47,11.25Z"/>
  </g>
  <path class="cls-3" d="M157.97,294.36l137.33,174.16-31.45,73.22s-37.67-8.34-49.09-24.21c-11.42-15.87-105.47-190.56-105.47-190.56l48.68-32.61Z"/>
  <path class="cls-5" d="M413.01,545.89c-.06,.06-1.23-.83-3.3-2.51-1.02-.85-2.28-1.87-3.83-2.96-1.53-1.1-3.21-2.44-5.23-3.7-1.97-1.32-4.14-2.75-6.58-4.1-2.37-1.47-5.05-2.78-7.83-4.22-5.65-2.71-12.03-5.32-18.95-7.42-6.94-2.04-13.71-3.36-19.92-4.2-3.11-.32-6.07-.7-8.86-.77-2.78-.2-5.38-.2-7.75-.18-2.37-.06-4.51,.14-6.4,.22-1.89,.06-3.5,.22-4.82,.37-2.64,.26-4.12,.37-4.13,.28-.01-.08,1.43-.35,4.07-.76,1.32-.22,2.93-.45,4.83-.58,1.89-.15,4.04-.41,6.43-.41,2.39-.08,5.01-.13,7.82,.03,2.81,.03,5.8,.37,8.95,.67,6.27,.78,13.13,2.08,20.14,4.14,6.99,2.13,13.43,4.8,19.1,7.59,2.79,1.48,5.48,2.84,7.85,4.36,2.44,1.41,4.59,2.89,6.55,4.27,2,1.31,3.65,2.71,5.15,3.87,1.51,1.15,2.74,2.23,3.72,3.14,1.98,1.79,3.04,2.81,2.98,2.87Z"/>
  <path class="cls-1" d="M273.06,423.6l19.54-84.6c7.47-31.81,16.33-62.39,31.2-66.01v9.85l-6.37,241.71s-39.81,45.33-90.56,20.13c-15.86-7.87-44.79-63.23-44.79-63.23,0,0-79.32-139.07-79.32-141.34,0-6.12,58.81-42.68,63.02-45.32l107.28,128.81Z"/>
  <path class="cls-1" d="M473.98,249.15c38.81,7.44,82.51,30.08,102.61,88.06,7.34,21.18,60.79,177.39,60.79,177.39l-91.14-1.89-14.84-32.21,7.24,52.24,6.18,74.54-230.1,3.87,1.61-112.28,2.21-223.34s2.59-3.39,42.26-25.28c24.65-13.6,113.18-1.11,113.18-1.11Z"/>
  <g class="cls-2">
    <path d="M496.94,398.44c3.78,47.15,8.13,61.71,11.91,108.86,.36,4.45,.73,9,2.48,13.11,1.75,4.11,5.14,7.79,9.52,8.68,6.7,1.36,15.41,6.21,17.31-.36l-6.36-45.41s-1.5-8.54-6.28-19.16c-14.12-31.35-19.35-33.18-28.57-65.7"/>
  </g>
  <path class="cls-1" d="M361.28,285.03l.58-4.93,5.61-47.28c.34-2.85,2.82-4.96,5.69-4.83l90.82,4.2c5.71,.26,10.14,5.08,9.93,10.79l-1.01,27.39-26.9,37.93-40.47,7.86"/>
  <path class="cls-7" d="M315.32,362.88c.34,0,.62,36.86,.62,82.31s-.28,82.32-.62,82.32-.62-36.85-.62-82.32,.28-82.31,.62-82.31Z"/>
  <g>
    <g>
      <g>
        <path class="cls-1" d="M636.21,531.43c7.54,39.2-22.27,75.66-62.18,76.06l-180.35-2,4.74-58.4,154.63-23.06"/>
        <path class="cls-3" d="M409.57,549.75c-.83,.28-11.24-4.39-20.57-8.71-9.91-4.58-20.77-6.69-31.67-6.14l-42.99,2.19s2.65,7.09,7.21,9.61c4.56,2.52,31.29,3.06,31.29,3.06l-1.37,1.41c-5.63,5.8-13.32,9.16-21.4,9.36l-4.11,.1c-3.05-.24-6.06-.83-8.97-1.75l-10.6-4.29c-3.21-1.45-6.6-1.21-7.99,2.02-1.26,2.92-.34,6.95,8.42,11.36,4.89,2.47,23.04,8.74,23.04,8.74,0,0,.26,5.02,1.06,7.66,.79,2.64,7.92,5.28,7.92,5.28,0,0,4.49,9.24,6.34,11.35,.83,.95,7.28,2.96,14.15,4.88,11.09,3.11,22.84,3.04,33.88-.26l16.39-4.89v-49.91"/>
      </g>
      <path class="cls-8" d="M350.76,582.35c-.02,.28-5.12,.01-11.18-1.59-6.07-1.58-10.64-3.86-10.52-4.11,.12-.29,4.81,1.51,10.79,3.07,5.97,1.58,10.94,2.32,10.9,2.63Z"/>
      <path class="cls-8" d="M349.25,592.42c0,.28-2.77,.46-6.05-.44-3.28-.88-5.58-2.44-5.44-2.68,.15-.28,2.58,.8,5.72,1.64,3.13,.86,5.78,1.17,5.76,1.48Z"/>
    </g>
    <path class="cls-8" d="M357.1,545.88c.1,.1-1.13,1.49-3.32,3.55-2.19,2.04-5.37,4.76-9.37,7.09-4,2.33-8.03,3.64-10.98,4.24-2.96,.6-4.83,.64-4.84,.52-.1-.39,7.45-1.09,15.28-5.69,3.89-2.27,7.1-4.86,9.4-6.73,2.3-1.9,3.71-3.09,3.82-2.97Z"/>
  </g>
  <path class="cls-1" d="M413.95,541.87l-4.38,66.04,169.89,.06c11.53,0,22.85-3.13,32.73-9.07h0c22.95-13.78,34.79-40.46,29.63-66.73-1.75-10.73-5.83-23.28-10.96-36.63l-85.41,14.05,2.73,10.63-134.23,21.63Z"/>
  <path class="cls-7" d="M587.53,514.72s-.58,.18-1.72,.39c-1.25,.23-2.9,.52-4.96,.89-4.45,.74-10.66,1.78-18.28,3.05-15.57,2.48-36.86,5.87-60.38,9.61-23.55,3.6-44.86,6.87-60.45,9.25-7.64,1.11-13.87,2.01-18.34,2.66-2.07,.27-3.73,.49-5,.66-1.14,.14-1.75,.19-1.75,.15,0-.04,.59-.18,1.72-.39,1.25-.23,2.9-.52,4.96-.89,4.45-.74,10.66-1.78,18.28-3.05,15.57-2.48,36.86-5.87,60.39-9.61,23.54-3.6,44.85-6.86,60.43-9.25,7.64-1.11,13.87-2.01,18.34-2.66,2.07-.27,3.73-.5,5-.66,1.14-.14,1.75-.19,1.76-.15Z"/>
  <polygon class="cls-6" points="568.57 693.66 302.69 697.48 308.04 611.15 554.05 608.1 568.57 693.66"/>
</svg>