<?xml version="1.0" encoding="UTF-8"?>
<svg id="Capa_1" data-name="Capa 1" xmlns="http://www.w3.org/2000/svg" viewBox="0 0 386.68 444.96">
  <defs>
    <style>
      .cls-1 {
        fill: #d3c0df;
      }

      .cls-2 {
        fill: #34b296;
      }

      .cls-3 {
        fill: #1c2545;
      }

      .cls-4 {
        fill: #009579;
      }

      .cls-5 {
        fill: #8c8491;
      }
    </style>
  </defs>
  <g id="OYJhNN">
    <g>
      <path class="cls-1" d="M173.28,216.06c-1.35-.56-2.75-.99-4.02-1.76-4.97-3.01-7.99-7.33-8.84-13.12-.21-1.41-.15-2.83-.08-4.24,.02-.4-.07-.62-.37-.87-2.09-1.76-3.57-3.92-4.1-6.65-.52-2.67,.86-4.76,3.49-5.33,.39-.09,.73,.04,1.1,.04,.1-.09,.22-.14,.34-.12,.53,.09,.6-.22,.64-.65,.2-1.85,.3-3.71,.59-5.55,.03-.22,.08-.44,.13-.66,.08-.44,.31-.64,.78-.59,1.06,.12,2.14,.05,3.2,.05,5.12,.02,10-1.15,14.69-3.14,3.19-1.35,6.23-2.98,9.04-5.02,.16-.12,.33-.22,.5-.32,.42-.25,.64-.12,.71,.36,.11,.79,.17,1.58,.32,2.36,1.09,5.53,4.12,9.55,9.31,11.85,.62,.28,.85,.65,.84,1.31,0,1.63,.01,1.6,1.59,1.27,1.23-.26,2.46-.61,3.74-.54,3.32,.02,5.2,2.69,4.21,6.11-1,3.46-3.15,5.98-6.47,7.45-.42,.19-.66,.42-.81,.86-.56,1.65-1.26,3.26-2.25,4.69-.59,.85-.65,1.68-.5,2.65,.77,4.97,1.49,9.94,2.24,14.92,.42,2.82,.85,5.63,1.3,8.44,.11,.67,0,1.02-.77,1.12-3.14,.43-6.27,.92-9.41,1.38-2.84,.42-5.69,.83-8.53,1.25-3.09,.46-6.17,.94-9.25,1.41-.33,.05-.48-.03-.53-.41-.52-3.65-1.07-7.3-1.6-10.95,.16-.3,.48-.34,.76-.41,4.19-1.15,7.88-3.23,11.21-6,.84-.7,1.55-1.54,2.36-2.28,.08-.04-.07-.12,0-.05,.01,.01,0,.03-.05,.05-2.12,.9-4.33,1.44-6.61,1.72-2.4,.3-4.8,.29-7.19-.12-.58-.1-1.18-.18-1.7-.5Z"/>
      <path class="cls-3" d="M206.89,184.73c-1.22,.41-2.53,.42-3.76,.75-.45,.12-.92,.2-1.38,.31-.32,.08-.45-.02-.44-.36,.02-.5-.05-1,.02-1.49,.09-.62-.22-.83-.73-1.06-5.3-2.38-8.4-6.48-9.43-12.16-.15-.85-.23-1.7-.36-2.63-1.54,1.05-3.06,2.07-4.65,2.97-4.61,2.63-9.48,4.5-14.74,5.36-2.88,.47-5.76,.52-8.66,.31-.36-.03-.33,.15-.38,.37-.33,1.53-.39,3.09-.58,4.63-.08,.71-.13,1.43-.16,2.14-.02,.39-.23,.46-.54,.4-.22-.04-.43-.1-.65-.15-.84-2.01-.63-4.13-.61-6.22,0-.49-.14-.99,.07-1.47,.1-.23-.1-.29-.26-.37-1.87-.87-1.96-2.52-1.29-4.09,.8-1.87,2.16-3.33,3.67-4.64,4.98-4.31,10.73-7.05,17.22-8.11,5.34-.87,10.44-.14,15.18,2.72,1.54,.93,3.29,1.53,4.78,2.6,4.18,3,7.07,6.82,7.75,12.06,.04,.34,.05,.69,.07,1.04,.14,.67-.05,1.35,.1,2.01-.07,1.69-.03,3.39-.25,5.07Z"/>
      <path class="cls-3" d="M173.28,216.06c1.01,.06,1.98,.38,2.99,.48,4.42,.45,8.67-.2,12.77-1.86,.08-.03,.18-.05,.46-.13-4.23,4.57-9.15,7.61-15,9.1-.41-2.53-.82-5.06-1.23-7.59Z"/>
      <path class="cls-5" d="M207.15,179.66c-.23-.66-.1-1.34-.1-2.01,.19,.66,.12,1.34,.1,2.01Z"/>
      <path class="cls-3" d="M177.35,205.5c-.55,.02-.84-.28-.94-.77-.1-.49,.14-.83,.58-.99,.35-.13,.73-.15,1.09-.24,1.48-.4,2.84-1.02,3.97-2.1,.51-.48,1.16-.54,1.52-.17,.44,.46,.37,1-.24,1.54-1.71,1.53-3.72,2.42-5.99,2.73Z"/>
      <path class="cls-3" d="M168.69,191.88c.94,0,1.64,.72,1.62,1.66-.02,.89-.75,1.62-1.62,1.61-.88,0-1.68-.82-1.65-1.68,.03-.87,.77-1.59,1.64-1.59Z"/>
      <path class="cls-3" d="M186.91,192.79c.93-.02,1.7,.72,1.69,1.61,0,.86-.75,1.62-1.6,1.66-.89,.04-1.65-.72-1.66-1.65,0-.93,.66-1.61,1.57-1.63Z"/>
      <path class="cls-3" d="M168.13,184.56c.7-.02,1.38,.09,2.06,.25,.64,.15,.86,.58,.72,1.17-.14,.6-.61,.75-1.15,.65-.81-.15-1.61-.27-2.43-.25-.64,.02-1-.36-1-.95,0-.58,.39-.88,.99-.87,.27,0,.54,0,.82,0Z"/>
      <path class="cls-3" d="M188.16,187.56c-.88-.21-1.82-.27-2.76-.3-.53-.02-.78-.39-.8-.9-.02-.5,.28-.82,.74-.87,1.09-.12,2.18-.04,3.24,.26,.5,.14,.7,.55,.65,1.03-.04,.45-.53,.79-1.07,.78Z"/>
    </g>
  </g>
  <path class="cls-2" d="M313.95,312.11c-1.44-8.87-6.04-16.21-11.49-23.1-6.04-7.62-12.96-14.4-20.14-20.94-10.51-9.57-22.23-17.68-32.85-27.11-9.36-8.31-16.36-15.34-29.87-14.96,0,0-57.64,1.66-57.64,1.66-1.24,.2-1.63-1.12-1.78-1.41-5.19-10.07-10.37-20.15-15.14-30.43-2.52-5.43-5.45-10.72-6.71-16.64-1.88-8.83-2.86-17.8-3.98-26.75-1.79-14.32-3.2-28.67-4.61-43.02-1.21-12.26-2.18-24.54-3.24-36.81-.07-.81-.15-1.49-1.24-1.22-1.68-.24-3.36-.38-5.06-.22-11.18,1-22.36,1.94-33.55,2.74-1.18,.08-2.36,.2-3.39,.9-.33,.02-.66,.09-.99,.06-1.74-.13-2.35,.57-2,2.34,.28,1.41,.27,2.88,.4,4.32,.88,9.51,1.74,19.02,2.64,28.52,.93,9.83,1.82,19.67,2.88,29.49,1.05,9.61,2.22,19.22,3.49,28.81,.94,7.03,1.88,14.07,3.38,21.02,2.02,9.36,6.19,17.89,10.2,26.47,7.53,16.11,15.77,31.87,24.08,47.59,.67,1.26,1,2.53,1.03,3.95,.11,5.74,.18,11.47,.34,17.21,.41,15.03,.61,30.07,.92,45.1,.14,6.77,3.41,11.6,9.36,14.69,.57,.3,1.31,.35,1.43,1.18,2.43,.98,5.02,1.13,7.58,1.14,18.86,.09,37.71,.04,56.57,.38,13.97,.26,27.94,.01,41.92,.17,.47,0,.92,.11,1.38,.17,2.13-.38,3.37-.85,4.1-1.8,1.96-.33,2.39-1.23,2.52-3.94,.14-2.84-.04-5.69-.44-8.51l-1.02-7.25c-1.04-7.37-1.44-14.81-1.21-22.24,4.81,4.17,9.05,8.89,13.31,13.61,2.38,2.64,2.89,5.35,2.17,8.71-3.17,14.78-9.28,28.41-16,41.82-.71,2.21,1.23,3.71,2.29,4.79,.32,.64,.98,.86,1.55,1.17,9.96,5.49,20.01,10.8,30.03,16.19,.75,.4,1.51,.8,2.4,.79,.64,.33,1.35,.59,1.91,1.02,1.41,1.09,2.1,.55,2.76-.89,1.35-2.93,2.91-5.76,4.27-8.68,6.92-14.95,13.25-30.11,16.6-46.34,1.63-7.88,2.12-15.81,.82-23.77Z"/>
  <path class="cls-4" d="M251.96,367.62c-.42,.96-.87,1.91-1.23,2.89-.21,.56-.58,.65-1.07,.65-.53,0-1.06,0-1.58,0-36.28,0-72.55,0-108.83,0-.79,0-1.58,.02-2.37,.03,.17-4.25,1.13-8.4,1.68-12.61,.57-4.34,1.26-8.67,1.9-13.01,1.19-.73,2.31,.11,3.44,.21,4.87,.45,9.74,.25,14.61,.3,9.68,.11,19.37-.08,29.05,.14,16.66,.38,33.32,.17,49.98,.4,3.02,.04,6.05,.34,9.07-.05,.69-.09,1.3-.01,1.73,.62,.81,.55,.8,1.47,1,2.28,1.2,4.81,1.81,9.73,2.7,14.59,.22,1.2,.07,2.36-.06,3.54Z"/>
  <path class="cls-1" d="M253.61,372.63c4.06,2.12,8.15,4.2,12.19,6.36,7,3.73,13.98,7.51,20.97,11.27,.28,.15,.55,.35,.82,.52-1.76,2.13-3.46,4.33-4.39,6.96-2.23,6.33-4.14,12.77-5.88,19.26-.15,.57-.32,1.15-.6,1.66-.74,1.34-1.89,1.84-3.33,1.24-1.34-.56-2.18-1.49-1.74-3.09,.93-3.41,1.87-6.81,2.86-10.41-1.43,.88-2.64,1.67-3.89,2.38-.77,.44-1.04,1.11-1.28,1.89-1.34,4.29-3.02,8.43-5.1,12.41-1.06,2.01-2.53,2.72-4.09,1.94-1.55-.78-1.9-2.4-.83-4.45,1.37-2.64,2.51-5.37,3.62-8.12,.47-1.16,.44-1.74-1.14-1.77-3.55-.07-3.53-.15-5.07,3.16-1.45,3.11-2.92,6.2-4.44,9.28-.86,1.73-2.38,2.29-3.91,1.58-1.46-.67-1.92-2.29-1.01-4.05,1.98-3.81,3.73-7.71,5.45-11.64,.46-1.04,.46-1.78-.41-2.63-.97-.94-1.76-2.07-2.71-3.22-1.37,2.58-2.65,5.09-4.02,7.55-1.32,2.36-2.87,4.58-4.61,6.66-1.16,1.38-2.77,1.65-3.99,.76-1.41-1.04-1.65-2.54-.33-4.14,5.21-6.26,8.08-13.7,10.8-21.2,.82-2.25,1.06-4.72,1.66-7.48-2.95,2.3-5.6,4.39-8.3,6.44-1.32,1.01-2.79,1.57-4.41,.68-1.48-.82-2.04-2.15-1.91-3.82,.09-1.09,.74-1.75,1.56-2.38,5.84-4.51,11.65-9.06,17.48-13.59Z"/>
  <path class="cls-1" d="M125.27,71.39c-2.42,.67-4.92,.36-7.38,.64-5.65,.63-11.35,.84-17.03,1.31-5.54,.45-11.07,1.01-16.6,1.52-.32,.03-.66-.03-.98-.04,1.09-7.81-1.38-15.23-2.46-22.8-.2-1.43-.6-2.83-.86-4.25-.28-1.55,.67-3.06,2.05-3.35,1.61-.34,2.98,.5,3.35,2.22,.71,3.34,1.32,6.7,1.96,10,3.46-2.76,2.94-6.41,2.28-10.1-.59-3.27-.31-6.57-.35-9.86-.02-1.66,1-2.68,2.5-2.8,1.5-.11,2.69,.78,2.91,2.39,.18,1.3,.08,2.63,.11,3.95,.06,2.5-.1,5.01,.6,7.46,.12,.02,.26,.07,.36,.04,1.43-.46,3.31-.55,4.17-1.52,.89-1,0-2.86,.04-4.36,.07-3.22-.04-6.45-.03-9.67,0-2.06,.99-3.2,2.65-3.19,1.76,0,2.85,1.22,2.87,3.29,.05,3.83,.12,7.65,.08,11.48-.02,2.01,.48,3.44,2.74,3.79,.97,.15,1.79,.75,2.84,1.7,0-1.1,.03-1.84,0-2.59-.22-4.7,.32-9.33,1.2-13.93,.44-2.32,1.61-3.29,3.41-2.93,1.74,.36,2.55,1.77,2.05,4.03-1.05,4.73-1.32,9.52-1.07,14.33,.28,5.37,.76,10.74,2.93,16.06,1.5-3.13,2.92-6.09,4.34-9.05,.55-1.16,1.2-2.24,2.61-2.47,1.4-.22,2.79-.23,3.79,1.03,1.04,1.33,1.11,2.77,.39,4.27-1.88,3.92-3.79,7.83-5.62,11.77-.22,.47-1.25,1.25,.16,1.64Z"/>
  <path class="cls-3" d="M234.5,288.73c.27,.2,.64,.46,.98,.75,3.48,2.94,7.14,5.62,11.07,7.92,.7,.41,1.51,.86,.95,1.82-.54,.94-1.28,.3-1.87-.04-4.15-2.45-8.05-5.25-11.67-8.44-.41-.36-1.04-.73-.59-1.47,.22-.36,.54-.57,1.13-.54Z"/>
  <path class="cls-3" d="M110.64,61.99c-.06,.65-.45,.95-.98,1.15-3.48,1.35-6.29,3.52-8.32,6.68-.33,.52-.81,.96-1.48,.53-.75-.48-.52-1.09-.13-1.7,2.32-3.54,5.49-5.98,9.44-7.44,.87-.32,1.2,.15,1.46,.78Z"/>
</svg>