<?xml version="1.0" encoding="UTF-8"?>
<svg id="Capa_1" data-name="Capa 1" xmlns="http://www.w3.org/2000/svg" viewBox="0 0 386.68 444.96">
  <defs>
    <style>
      .cls-1 {
        fill: #34b296;
      }

      .cls-2 {
        fill: #1c2545;
      }

      .cls-3 {
        fill: #009579;
      }

      .cls-4 {
        fill: #83cfeb;
      }
    </style>
  </defs>
  <g>
    <path class="cls-1" d="M215.64,275.85c-5.43,.05-10.85,.16-16.28,.15-8.69,0-17.37-.08-26.06-.13,.52-1.21,.29-2.49,.3-3.74,.03-3.86-.13-7.73,.04-11.59,.13-2.9,.18-6-.68-8.81-.78-2.55-2.46-4.75-3.78-7.03-2.02-3.49-1.83-6.85-2.93-10.55-.78-2.63-3.82-3.88-5.29-6.12-1.58-2.4-2.14-5.28-1.95-8.12,.23-3.52,2.04-5.31,5.57-5.41,1.28-.96,2.37,.26,3.96,.37-.48-3.95,1.6-7.26,2.42-10.9,.34-1.5,1.1-1.89,2.52-1.57,11.85,2.71,23.55,1.18,35.15-1.54,2.53-.59,3.96,.08,5.53,2.08,2.43,3.11,4.42,6.25,4.86,10.29,.26,2.39,.46,2.37,2.78,1.4,.46-.19,.92-.44,1.43-.14,5.57,.05,7.97,2.98,6.84,8.59-.75,3.76-2.6,6.9-6,8.92-.77,.45-1.38,.86-1.4,1.87-.1,6.4-2.59,11.88-6.52,16.8-.26,.32-.39,.74-.58,1.12-2.69,4.07-6.95,5.88-11.17,7.72-3.54,1.54-7.28,1.81-11.3,1.5,6.61,3.61,13.2,6.61,20.44,7.89,.77,.14,1.44,.43,1.96,1.03,.05,1.97,.09,3.94,.14,5.91Z"/>
    <path class="cls-2" d="M223.24,214.5c-4.34,2.85-4.69,2.88-5.12-2.14-.4-4.64-3.77-7.32-5.87-10.84-.58-.97-1.5-.3-2.28-.12-8.75,2.05-17.59,3.38-26.62,3.11-3.86-.12-7.62-.83-11.36-1.73-.58,4.6-3.72,8.53-2.52,13.65-1.94-.81-3.22-1.87-4.86-1.94-.97-6.67-2.48-13.19-5.14-19.42-1.15-2.68-1.81-5.49-1.18-8.47,.88-4.19,3.55-6.7,7.47-8.04,7.06-2.42,14.35-2.29,21.63-1.79,5.12,.35,10.19,1.28,15.1,2.85,4.69,1.5,9.26,3.32,12.76,6.98,.75,.78,1.71,1,2.54,1.52,8.59,5.42,9.9,10.37,8.29,19.18-.46,2.54-1.38,4.99-2.82,7.19Z"/>
    <path class="cls-2" d="M215.5,269.95c-8.57-1.29-16.37-4.55-24.19-9.28,3.02-.14,5.58-.02,8.06-.43,5.5-.9,10.31-3.36,14.45-7.11,.54-.49,.91-1.23,1.76-1.33-.02,6.05-.05,12.1-.07,18.15Z"/>
    <path class="cls-2" d="M196.14,240.85c-3.55,.08-6.38-.79-9-2.39-.87-.53-1.79-1.14-1.02-2.37,.75-1.2,1.64-.71,2.57-.17,2.57,1.5,5.33,2.36,8.34,2.03,1.29-.14,2.52-.11,2.56,1.5,.04,1.63-1.4,1.3-2.42,1.4-.5,.05-1,0-1.04,0Z"/>
    <path class="cls-2" d="M207.7,215.02c.26,.05,.92,.13,1.56,.28,1.16,.26,2.14,.76,1.7,2.18-.41,1.33-1.4,1.1-2.43,.72-.45-.17-.98-.16-1.47-.18-1.11-.04-2.38-.07-2.35-1.55,.03-1.69,1.44-1.49,3-1.45Z"/>
    <path class="cls-2" d="M181.48,214.99c1.58,.02,2.73-.15,2.87,1.28,.16,1.56-.97,1.66-2.12,1.74-.74,.06-1.48,.18-2.19,.39-.89,.26-1.52-.03-1.79-.83-.3-.88-.06-1.65,.9-2.02,.94-.37,1.91-.57,2.33-.55Z"/>
    <path class="cls-2" d="M183.87,225.01c-.1,1.38-.8,2.19-2.19,2.21-1.49,.03-2.41-.77-2.38-2.27,.02-1.33,.9-2.23,2.21-2.27,1.46-.05,2.26,.86,2.37,2.33Z"/>
    <path class="cls-2" d="M207.44,227.2c-1.43-.03-2.12-.83-2.11-2.21,0-1.51,.88-2.39,2.34-2.32,1.3,.06,2.26,1.01,2.23,2.28-.03,1.35-.86,2.34-2.46,2.25Z"/>
  </g>
  <g>
    <path class="cls-3" d="M261.22,430.12c-.55,1.28-1.16,2.54-1.64,3.85-.27,.75-.78,.86-1.42,.86-.7,0-1.41,0-2.11,0-48.3,0-96.6,0-144.89,0-1.05,0-2.11,.02-3.16,.04,.23-5.66,1.5-11.19,2.24-16.78,.76-5.78,1.68-11.55,2.52-17.32,1.58-.97,3.07,.14,4.58,.28,6.48,.6,12.97,.33,19.45,.4,12.89,.15,25.79-.1,38.67,.19,22.18,.5,44.36,.22,66.54,.53,4.03,.06,8.05,.46,12.07-.06,.92-.12,1.73-.02,2.3,.82,1.08,.73,1.07,1.96,1.34,3.04,1.59,6.4,2.41,12.95,3.59,19.43,.29,1.59,.09,3.15-.08,4.72Z"/>
    <g id="TnSYzz">
      <g>
        <path class="cls-4" d="M248.27,270.9c21.5-15.44,34.34-36.69,41.31-61.82,3.86-13.92,5.7-28.12,6.25-42.59,.36-9.38,.16-18.72-.36-28.03-.58-10.29-1.91-20.55-3.73-30.72-1.43-7.99-3.08-15.92-5.13-23.76-.34-1.3,.03-1.77,1.23-2.12,2.71-.77,5.39-1.67,8.08-2.51,.62-.62,1.41-.87,2.22-1.12,12.38-3.68,24.71-7.51,37.08-11.19,.93-.28,1.86-.79,2.87-.27,.44-.14,.91-.21,1.31-.42,1.67-.86,2.3-.07,2.69,1.49,1.72,6.9,3.38,13.81,4.77,20.79,2.56,12.84,4.17,25.79,5.58,38.81,1.56,14.39,1.7,28.8,1.11,43.19-.96,23.68-5.01,46.86-13.24,69.19-7.5,20.35-18.19,38.82-32.73,55.01-9.38,10.45-19.98,19.45-31.72,27.13-.44,.29-.94,.49-1.42,.73-5.77,2.35-11.26,5.22-16.3,8.9-1.02,.75-2.24,1.31-2.95,2.68,1.25,.61,1.97-.21,2.68-.76,3.25-2.46,6.65-4.66,10.34-6.41,.79-.38,1.57-1.07,2.56-.47-1.12,7.33-2.22,14.66-3.37,21.98-1.61,10.35-3.26,20.69-4.88,31.04-1.14,7.25-2.17,14.52-3.41,21.75-1.5,8.7-8.07,13.85-17.56,13.15-4.59-.34-9.18-.35-13.77-.62-10.4-.62-20.83-.75-31.25-1.13-11.79-.43-23.58-.92-35.37-1.39-7.58-.3-15.17-.4-22.73-.99-4.89-.38-9.8-.11-14.69-.7-9.39-1.12-14.95-8.44-13.61-17.76,.83-5.75,1.16-11.57,1.71-17.35,.73-7.77,1.54-15.53,2.12-23.31,.29-3.86,1.1-7.7,.74-11.6,1.34-4.9,1.5-9.98,2.28-14.96,1.12-7.19,2.22-14.37,3.58-21.52,.2-1.03,.57-2.07,.02-3.37-.92,.74-.96,1.75-1.13,2.64-1.54,8.44-2.96,16.89-4.08,25.39-.12,.91,.19,2.06-1.09,2.48,.1-1.44-.72-2.44-1.59-3.42-22.97-25.84-37.46-56.19-47.4-88.97-4.78-15.77-8.27-31.83-10.83-48.09-1.24-7.85-2.1-15.76-2.92-23.67-1.5-14.48-2.15-28.99-2.5-43.55-.29-12.05,.37-24.04,.76-36.06,.07-2.12,.24-4.28,.42-6.41,.11-1.35,.41-2.23,2.24-1.89,2.24,.42,4.56,.39,6.85,.55,1.12-.36,2.27-.33,3.41-.2,12.46,1.44,24.96,2.55,37.43,4.01,.91,.11,1.84,.16,2.6,.77,.6,.1,1.21,.19,1.81,.3,3.49,.65,3.47,.65,3.13,4.3-1.43,15.46-1.15,30.96-.69,46.43,.44,14.52,1.95,29,4.06,43.38,3.61,24.55,9.56,48.48,19.76,71.22,4.03,8.98,8.74,17.56,14.22,25.72,1.37,2.04,44.9,.44,51.9,.45,4.04,.27,50.67-3.21,51.28-4.33Z"/>
        <path class="cls-1" d="M338.1,66.77c-11.7,3.58-23.39,7.18-35.11,10.71-2.33,.7-4.59,1.73-7.07,1.87-.4-3.34-.83-6.68-1.2-10.02-.15-1.39-.52-2.66-1.23-3.9-5.23-9.21-9.71-18.78-13.44-28.69-1.13-3.02-.42-5.11,2.08-6.12,2.65-1.07,5.33-.06,6.54,2.56,.67,1.46,1.37,2.94,1.76,4.49,.56,2.23,1.9,3.09,4.08,3.59,1.68,.38,2.39,.1,2.83-1.46,1.2-4.23,.66-8.52,.39-12.78-.19-3.05-.79-6.06-1.51-9.05-.61-2.49,.53-4.18,2.84-4.65,2.08-.42,3.38,.55,4.01,3.04,1.08,4.32,1.75,8.7,1.88,13.17,.02,.75-.45,2.26,1.14,1.82,1.14-.31,3.14,.38,3.02-2.12-.22-4.68-.83-9.3-1.71-13.89-.13-.68-.28-1.35-.37-2.03-.3-2.23,.95-3.96,3.11-4.33,1.78-.3,3.29,.77,3.76,2.89,.93,4.19,1.59,8.42,1.99,12.7,.17,1.83,.27,3.67,.41,5.5,.04,.51-.12,1.15,.54,1.38,1.14,.4,2.29,1.51,3.37,1.09,.79-.31,.29-1.8,.31-2.76,.14-5.24-.66-10.39-1.53-15.52-.43-2.51,.72-4.42,2.95-4.85,2.04-.39,3.47,.75,3.94,3.42,1.35,7.63,2.29,15.32,1.61,23.08-.22,2.54,.3,4.6,2.5,6.48,.4-4.73,.26-9.22,.15-13.7-.08-3.27,.79-4.58,3.06-4.6,1.75-.02,3.86,1.61,3.99,4.67,.38,8.99-.2,17.9-1.36,26.8-.09,.67-.05,1.39,.1,2.04,.69,3.06,1.44,6.1,2.17,9.16Z"/>
        <path class="cls-1" d="M102.8,83.43c-4.15,.14-8.22-.72-12.32-1.08-6.69-.58-13.38-1.32-20.05-2.11-3.69-.43-7.44-.44-11.06-1.4,.28-3.05,.51-6.1,.87-9.14,.15-1.28-.29-2.42-.57-3.6-2.05-8.72-4.32-17.4-4.47-26.43-.05-2.89,2.08-4.49,4.67-3.5,1.71,.66,2.27,2.06,2.34,3.85,.08,2.29,.27,4.59,.59,6.87,.31,2.25,.84,4.47,1.32,6.87,1.72-2.13,2.08-4.16,1.59-6.73-1.47-7.7-2.12-15.49-1.35-23.33,.26-2.64,1.67-3.9,3.96-3.77,2.2,.12,3.13,1.37,3.08,4.2-.09,5.37-.37,10.74,.46,16.07,.13,.86-.53,2.18,.88,2.45,1.02,.19,3.37-2.16,3.32-3.16-.1-1.99-.25-3.98-.39-5.96-.3-4.07,.32-8.11,.41-12.18,.05-2.22,1.78-3.46,4.11-3.31,2.05,.13,2.86,1.13,2.81,3.62-.11,5.22-.29,10.43-.03,15.65,.07,1.46,2.69,2.96,3.96,2.27,.67-.36,.23-.96,.22-1.44-.14-4.68-.35-9.36,.29-14.01,.35-2.55,2.5-3.96,4.79-3.23,1.59,.5,2.34,1.55,2.2,3.27-.38,4.89-.8,9.79,0,14.68,.46,2.85,.42,5.81,2.03,8.41,.54,.88,.95,.94,1.98,.69,2.83-.7,4.21-2.3,4.46-5.2,.14-1.58,.7-3.14,1.21-4.66,.66-1.99,2.48-3.09,4.45-2.85,2.27,.29,4.16,2.05,4.37,4.07,.16,1.56-.24,3.06-.63,4.53-2.58,9.77-5.27,19.51-9.26,28.83-.86,2.01-.22,4.24-.29,6.37-.04,1.45,.04,2.91,.06,4.37Z"/>
        <path class="cls-2" d="M114.33,330.35c.87-5.88,1.7-11.77,2.63-17.64,.65-4.07,1.47-8.12,2.19-12.18,.18-1.01,.24-2.19,1.65-1.94,1.32,.24,1.16,1.29,.96,2.37-1.94,10.44-3.65,20.92-5.02,31.46-.23,1.74-.43,3.49-.6,5.24-.09,.95-.18,1.87-1.39,2.04-1.45-.05-1.44-.91-1.28-2.05,.35-2.42,.58-4.86,.86-7.29Z"/>
        <path class="cls-2" d="M270.79,326.61c-4.69,1.93-8.9,4.67-12.95,7.69-.37,.27-.71,.58-1.09,.83-.8,.52-1.6,.59-2.22-.25-.66-.88,.05-1.42,.64-1.89,3.48-2.75,7.17-5.19,11.11-7.23,1.96-1.02,4-1.87,6-2.81,.7-.33,1.39-.65,2.18-.29,.46,1.35,.2,2.26-1.31,2.76-.81,.27-1.74,.47-2.36,1.19Z"/>
        <path class="cls-2" d="M306.2,50.96c-.04,.52-.35,.86-.79,1.05-.56,.24-1.08,.05-1.45-.4-2.1-2.55-4.33-4.97-6.93-7.02-.56-.44-.63-1.08-.24-1.64,.41-.59,1.17-.66,1.66-.31,2.98,2.2,5.56,4.81,7.64,7.88,.08,.12,.08,.29,.12,.44Z"/>
        <path class="cls-2" d="M96.18,49.37c1.2,.26,1.89,.94,1.01,1.9-2.27,2.5-4.31,5.15-6.02,8.06-.35,.59-.91,.84-1.56,.48-.61-.34-.91-.95-.61-1.56,1.64-3.23,3.81-6.08,6.39-8.6,.19-.19,.55-.2,.79-.28Z"/>
      </g>
    </g>
  </g>
</svg>