<?xml version="1.0" encoding="UTF-8"?>
<svg id="Capa_1" data-name="Capa 1" xmlns="http://www.w3.org/2000/svg" viewBox="0 0 386.68 444.96">
  <defs>
    <style>
      .cls-1 {
        fill: #d3c0df;
      }

      .cls-2 {
        fill: #fff;
      }

      .cls-3 {
        fill: #9ab1dd;
      }

      .cls-4 {
        fill: #1c2545;
      }

      .cls-5 {
        fill: #b098c8;
      }

      .cls-6 {
        fill: #83cfeb;
      }

      .cls-7 {
        fill: #58b3cf;
      }

      .cls-8 {
        fill: #7e9dd2;
      }
    </style>
  </defs>
  <g id="qOalL9">
    <g>
      <path class="cls-6" d="M75.66,111.7c1.98,.19,3.83-.46,5.69-.92,1.82-.46,2.57,.13,2.98,1.94,1.69,7.46,3.34,14.94,5.33,22.32,4.39,16.35,9.53,32.47,15.96,48.15,.27,.65,.34,1.41,1.14,1.99,3.9-4.61,7.83-9.18,11.67-13.82,8.85-10.69,17.94-21.17,26.69-31.94,5.96-7.35,13.86-11.12,23.41-11.23,1.94-.02,3.87-.04,5.81-.07,4.32-.23,8.64-.03,12.97-.11,.87-.02,1.76,.15,2.62-.16,.46-.03,.93-.06,1.39-.08,.92-.83,2.07-.82,3.19-.82,10.13-.02,20.26-.02,30.39,0,.88,0,1.78,0,2.59,.44,4.74,.22,9.49,.26,14.23-.02,15.56-.43,27.93,5.46,37.11,18.21,4.29,5.96,9.85,10.86,14.82,16.26,14.58,15.85,28.96,31.87,41.33,49.57,10.24,14.65,16.49,30.89,20.12,48.27,3.17,15.15,5.12,30.46,6.4,45.89,.88,10.68,1.16,21.38,1.65,32.08,.06,1.25,.42,2.57-.29,3.77-2.25,.59-4.57-.16-6.82,.41-.1,.07-.21,.1-.33,.1-1.04,.77-2.25,.79-3.46,.79-13.43,.01-26.87,.01-40.3,0-1.2,0-2.43,.05-3.44-.81-5.3-.22-5.21-.22-5.35-5.77-.58-22.55-2.35-44.95-7.19-67.06-2.99-13.64-10.32-24.77-19.17-35.57-.32,2.21-.52,4.09-.87,5.95-1.24,6.67-5.65,10.19-12.39,9.96-.64-.02-1.29-.04-1.93-.06-3.55,.88-7.07-.06-10.57-.36-12.36-1.05-24.73-2.13-37.08-3.27-11.71-1.08-23.44-2.06-35.15-3.18-6.74-.64-13.49-1.13-20.23-1.79-1.41-.35-2.86-.28-4.29-.36-1.06-.06-2.07-.25-2.83-1.08-2.64-.74-5.01-2.03-6.41-4.42-.77-1.32-1.07-.95-1.77-.1-2.89,3.48-5.84,6.89-8.71,10.38-5.97,7.27-13.33,12.42-22.62,14.39-14.3,3.03-26.55-1.26-37.22-10.84-6.76-6.07-10.76-14.06-14.82-21.93-12.76-24.67-21.21-50.95-28.39-77.66-2.17-8.08-3.86-16.29-5.92-24.4-.48-1.9,.05-2.57,1.81-2.78,.71-.08,1.4-.33,2.1-.51,1.35-1.02,3-1.13,4.56-1.45,13.16-2.69,26.3-5.46,39.47-8.14,.71-.14,1.41-.32,2.15-.16Z"/>
      <path class="cls-4" d="M158.46,240.14c8.75,.71,17.49,1.38,26.24,2.13,8.34,.72,16.67,1.51,25.01,2.27,8.26,.75,16.51,1.52,24.77,2.25,8.18,.72,16.36,1.41,24.54,2.12,.87,.08,1.79-.14,2.57,.44,.5,7.38-.68,14.57-1.99,21.82-1.56,8.62-2.32,17.39-3.34,26.11-1.1,9.36-14.01,105.98-15.56,105.98-31-.05-62-.04-93-.05-.16,0-.32-.04-.48-.06-1.39-2.5-.78-5.2-.6-7.8,.62-8.84,1.08-17.69,1.79-26.52,.85-10.52,1.63-21.05,2.6-31.56,1.01-11,2.06-21.99,3.17-32.98,1.61-15.96,3.25,11.35,5.12-4.58,.71-6.01,1.28-12.03,2.08-18.02,.22-1.66-.22-3.18-.93-4.67-5.01-10.5-5.87-21.51-3.87-32.84,.26-1.47,.36-3.1,1.89-4.01Z"/>
      <path class="cls-4" d="M158.46,240.14c-3.46,11.78-2.98,23.47,1.95,34.64,1.74,3.94,1.74,7.52,1.28,11.42-.78,6.68-1.56,13.36-2.33,20.04-.77,6.68-1.58,13.36-2.31,20.05-.57,5.26-1.04,10.53-1.57,15.79-.6,5.9-1.25-31.49-1.83-25.59-.4,3.99-.7,7.99-1.07,11.98-.61,6.7-1.26,13.4-1.85,20.11-.39,4.48-.71,8.96-1.05,13.44-.64,8.56-1.46,17.11-1.85,25.68-.23,5.14-.89,10.27-.61,15.43-1.77,.03-3.55,.08-5.32,.08-28.65,0-57.3,0-85.95,0-.96,0,78.18-132.05,94.18-161.32,.46-.85,.87-1.72,1.31-2.59,2.31,.56,4.75,0,7.02,.83Z"/>
      <path class="cls-4" d="M190.34,116.69c-3.94-.31-7.86-.75-11.76-1.39-1.15-.19-1.43-.61-1.39-1.68,.07-1.98,.02-3.96-.26-5.97-.37,1.7-.85,3.39-1.07,5.11-.23,1.82-.86,2.55-2.89,2.32-5.9-.66-11.55-2.16-16.95-4.6-4.79-2.17-5.94-5.71-3.24-10.16,7.53-12.42,13.4-25.65,19.34-38.86,2.29-5.11,5.14-9.88,9.27-13.74,5.16-4.83,11.16-7.28,18.32-6.21,2.81,.42,5.61,.41,8.41-.02,9.66-1.48,17.35,2.09,23.61,9.25,4.34,4.97,7.56,10.65,9.98,16.74,4.69,11.82,12.4,20.99,23.34,27.47,2.75,1.63,2.82,4.36,.21,6.19-3.44,2.42-7.23,4.22-11.02,6.01-1.15,.55-1.69,.28-2.29-.76-1.64-2.82-3.39-5.58-5.49-8.2,.85,3.08,1.61,6.19,2.6,9.22,.48,1.47,.11,2.07-1.22,2.71-6.74,3.24-13.84,5.25-21.17,6.56-2.69,1.43-5.03,.21-7.24-1.13-2.39-1.44-3.78-3.74-4.44-6.41-1.63-6.58-3.12-13.19-4.79-19.75-.49-1.9-.17-3.19,1.62-4.25,2.91-1.72,4.04-4.49,3.97-7.78-.04-1.96-1.06-3.4-2.82-4.17-1.78-.77-3.47-.43-4.91,.95-.62,.59-1.13,1.62-2.15,1.29-1.22-.4-1.13-1.64-1.22-2.67-.09-1-.36-1.91-1.07-2.63-2.34-2.4-3.38-5.44-4.24-8.58-.66-2.41-.68-2.44-2.87-1.48-4.05,1.78-8.35,2.51-12.69,2.89-2.12,.19-2.94,1.13-3.32,3.05-.76,3.96-1.41,7.94-2.25,11.89-.27,1.28-.57,2.51-1.74,3.34-1.51,1.06-1.66,2.54-.96,4.08,.7,1.55,.72,3.1,.43,4.73-1.83,10.32,6.33,20.03,16.24,21.11,5.35,.58,10.44,.04,15.49-1.59,.61-.2,1.22-.44,1.87-.46,1.26-.05,1.61,.57,1.09,1.68-.31,.67-.85,1.18-1.44,1.61-5.23,3.86-11.13,5.32-17.56,4.86-.5-.04-.93-.25-1.32-.55Z"/>
      <path class="cls-1" d="M308.5,341.89c15.73,.01,31.47,.02,47.2,.03-.17,4.75-.26,9.51-1.09,14.21-.16,.89,.02,1.73,.42,2.57,2.18,4.61,5.23,8.28,10.18,10.12,2.42,.9,3.33,2.73,2.61,4.69-.8,2.16-2.67,2.98-5.11,2.17-3.6-1.2-6.63-3.3-9.17-6.09-.96-1.06-1.38-1.28-2,.35-1.83,4.79-1.68,5.4,2.81,8.12,1.67,1.01,3.49,1.64,5.39,2.06,2.39,.53,3.8,2.26,3.48,4.17-.37,2.18-2.49,3.51-5.01,3-4.11-.83-7.91-2.45-10.9-5.42-1.42-1.42-2.34-1.47-3.66-.12-.55,.57-1.28,.95-2.11,1.55,2.88,2.9,6.16,4.99,9.82,6.51,2.65,1.1,3.72,2.83,2.94,4.92-.84,2.22-2.91,2.88-5.66,1.87-4.87-1.79-9.12-4.69-12.59-8.39-2.87-3.07-6.42-3.91-10.42-5.11,3.71,5.9,8.32,10.38,13.98,13.79,2.18,1.31,2.91,3.03,1.89,4.93-1.02,1.9-3.07,2.57-5.18,1.44-7.08-3.78-12.47-9.35-16.78-16.04-4.84-7.5-7.63-15.77-9.25-25.05-1.42,3.06-1.9,5.92-2.66,8.69-.3,1.08-.43,2.22-.77,3.28-.96,2.99-3.23,4.25-6.19,3.56-2.34-.55-3.82-3.12-3.2-5.95,1.62-7.41,3.48-14.74,7.12-21.48,1.03-1.91,2.13-3.8,3.25-5.67,.51-.85,1-1.67,.68-2.71Z"/>
      <path class="cls-1" d="M75.66,111.7c-3,1.73-6.45,1.72-9.7,2.43-11.34,2.48-22.72,4.77-34.09,7.11-.78,.16-1.59,.14-2.39,.21-.49-2.2-1.01-4.39-1.47-6.59-.26-1.25-.97-2.17-1.88-3.02-3.46-3.25-7.35-5.44-12.28-5.42-2.48,0-4.18-1.68-4.11-3.81,.07-2.06,1.7-3.4,4.14-3.48,3.8-.11,7.37,.81,10.68,2.61,1.43,.78,1.67,.48,1.74-1.05,.24-5.05,.29-5.03-4.63-6.47-2.15-.63-4.31-.43-6.49-.32-2.82,.14-4.36-.92-4.54-3.14-.19-2.33,1.26-3.88,4.03-4.14,3.98-.38,7.94-.23,11.64,1.44,1.69,.76,2.78,.69,3.56-1.14,.31-.72,.9-1.32,1.49-2.15-3.45-1.47-6.86-2.5-10.52-2.68-3.93-.19-5.53-1.44-5.34-4.05,.19-2.63,2.4-3.76,6.14-3.35,4.53,.5,9,1.42,12.98,3.56,3.72,1.99,7.44,1.86,11.65,1.36-5.29-4.06-10.85-6.94-17.23-8.03-2.6-.44-4.02-1.8-3.87-4.02,.14-2.18,1.78-3.52,4.49-3.2,7.4,.88,13.83,4.16,19.8,8.44,7.61,5.46,13.3,12.63,18.2,21.1,.44-2.42,.19-4.43,.06-6.41-.11-1.77-.44-3.52-.62-5.28-.3-3.04,1.5-5.49,4.21-5.77,2.91-.3,4.92,1.43,5.38,4.56,1.52,10.3,1.67,20.55-1.02,30.7Z"/>
      <path class="cls-1" d="M190.34,116.69c4.2,.02,8.39-.03,12.4-1.53,3.1-1.15,6.01-2.6,8.37-6.04-4.22,1.56-7.9,2.67-11.75,2.93-10.12,.71-18.78-2.37-22.88-11.98-1.34-3.14-1.94-6.46-1.21-9.92,.33-1.56,.36-3.05-.42-4.65-.93-1.92-1.06-3.98,1.55-4.98,.86-.33,.81-1.08,.95-1.79,.93-4.73,1.93-9.45,2.8-14.19,.3-1.65,1.04-2.13,2.73-2.24,5.08-.33,10.1-1.16,14.69-3.55,1.61-.84,1.81-.44,2.16,1.18,.82,3.86,1.82,7.73,5.13,10.4,.67,.54,.56,1.27,.62,1.99,.08,1-.2,2.07,.54,3.12,1.26-1.48,2.16-3.2,4.27-3.44,4.48-.5,7.55,3.67,6.02,8.29-.84,2.53-2.22,4.69-4.77,5.79-1.02,.44-1.17,.92-.91,2.01,1.75,7.1,3.29,14.26,5.11,21.34,1.24,4.84,5.05,7.2,10.92,7.23-.08,3.58,.3,7.12,1,10.63,.16,.06,.22,.14,.19,.24-.03,.11-.07,.16-.12,.16-12.14,.02-24.27,.04-36.41,.06-.32-3.69-.65-7.38-.97-11.07Z"/>
      <path class="cls-1" d="M189.92,127.85c-5.19,.62-10.39,.3-15.59,.27,5.19-.64,10.39-.3,15.59-.27Z"/>
      <path class="cls-3" d="M227.72,127.7c-.06-.13-.08-.26-.07-.4,4.69,.02,9.37,.04,14.06,.07-4.65,.73-9.33,.23-13.99,.33Z"/>
      <path class="cls-8" d="M356.03,341.83c2.23-.87,4.55-.22,6.82-.41-2.22,.93-4.55,.24-6.82,.41Z"/>
      <path class="cls-7" d="M144.87,198.04c-.02-6.04-.27-12.1,.03-18.13,.25-5.12,1.38-10.17,3.41-14.94,.23-.55,.4-1.49,1.23-1.19,1.06,.38,.36,1.17,.12,1.79-2.23,5.83-3.24,11.87-3.41,18.11-.27,9.91,.47,19.79,.64,29.68,.07,4,.26,8.02,.34,12.04,.01,.51,.24,1.33-.54,1.38-.87,.05-.88-.78-.89-1.41-.03-2.18-.03-4.35-.04-6.53-.59-2.06,.16-4.2-.41-6.26-.03-2.6-.05-5.19-.08-7.79-.58-2.22,.15-4.52-.41-6.75Z"/>
      <path class="cls-7" d="M274.29,231.29c-3.26,.49-4.32-1.91-5.94-3.12-4.25-3.16-8.28-6.61-12.36-9.99-.58-.48-1.89-.93-1.08-1.93,.67-.83,1.4,.1,2.01,.6,4.86,3.95,9.74,7.88,14.59,11.83,.86,.7,1.62,1.51,2.78,2.61Z"/>
      <path class="cls-7" d="M103.78,188.69c.39,.23,.73,.32,.9,.54,.31,.41-.02,.75-.32,1.01-1.38,1.21-2.75,2.42-4.17,3.59-.45,.37-1.13,.53-1.54,.05-.52-.61,.18-1.02,.55-1.35,1.49-1.3,3.02-2.55,4.57-3.84Z"/>
      <path class="cls-5" d="M144.87,198.04c.91,2.2,.24,4.5,.41,6.75-.93-2.2-.28-4.5-.41-6.75Z"/>
      <path class="cls-5" d="M145.36,212.57c.94,2.04,.22,4.18,.41,6.26-.96-2.03-.27-4.17-.41-6.26Z"/>
      <path class="cls-2" d="M244.63,274.62c-.33,1.43-1.23,1.44-2.32,.79-3.05-1.81-6.09-3.64-9.13-5.47-4.98-2.98-9.97-5.95-14.93-8.97-.8-.49-2.29-.89-1.47-2.27,.83-1.39,1.96-.49,2.92,.08,7.75,4.62,15.5,9.24,23.24,13.89,.73,.44,1.66,.77,1.69,1.94Z"/>
      <path class="cls-4" d="M192.32,83.53c.02,.8-.39,1.21-.81,1.58-2.05,1.86-4.33,3.36-6.88,4.44-.68,.29-1.45,.61-1.89-.29-.41-.84-.14-1.64,.71-2.04,2.52-1.16,4.75-2.69,6.84-4.51,1.06-.91,1.73-.17,2.01,.81Z"/>
      <path class="cls-4" d="M188.21,76.65c-.2,1.12-.74,2.03-1.96,2.04-1.16,0-2.02-.75-2.08-1.9-.06-1.27,.76-2.16,2.05-2.16,1.18,0,1.8,.87,1.99,2.02Z"/>
      <path class="cls-4" d="M191.36,68.42c-.28,1.1-1.1,1.58-1.83,1.19-1.22-.65-3.35-.03-3.53-2.16-.09-1.01,.83-1.4,1.69-1.13,1.37,.44,3.04,.47,3.67,2.09Z"/>
    </g>
  </g>
</svg>