<?xml version="1.0" encoding="UTF-8"?>
<svg id="Capa_1" data-name="Capa 1" xmlns="http://www.w3.org/2000/svg" viewBox="0 0 386.68 444.96">
  <defs>
    <style>
      .cls-1 {
        fill: #d3c0df;
      }

      .cls-2 {
        fill: #34b296;
      }

      .cls-3 {
        fill: #1c2545;
      }

      .cls-4 {
        fill: #727e88;
      }

      .cls-5 {
        fill: #83cfeb;
      }

      .cls-6 {
        fill: #cfcbd1;
      }

      .cls-7 {
        fill: #b79cc9;
      }

      .cls-8 {
        fill: #5d8486;
      }
    </style>
  </defs>
  <g id="MIjohJ">
    <g>
      <path class="cls-3" d="M182.79,52.5c-.49,4.58-2.8,7.93-6.8,10.15-.54,.3-1.13,.53-1.69,.79-.4-.21-.31-.6-.34-.94-.17-1.76-.32-3.53-.72-5.26-.14-.64-.43-1.02-1.11-1.16-.72-.14-1.38-.48-2.04-.79-.13,.24,0,.42,.04,.61,.44,2.04-.38,3.68-2.31,4.5-1.41,.6-2.92,.83-4.44,.9-3.13,.13-6.22-.22-9.29-.78-.95-.17-.94-.18-1.18,.75-.32,1.23-.67,2.44-1.21,3.59-.91,2.25-2.14,4.31-3.7,6.17-.46,.54-.7,.52-1.2-.11-1.02-1.31-2.11-2.54-3.6-3.33-2.21-1.16-4.48-1.58-6.85-.48-2.39,1.11-3.53,3.07-3.65,5.61-.2,4.09,1.31,7.59,3.96,10.62,.61,.7,.8,1.31,.41,2.18-1.07,2.38-1.91,4.87-3.11,7.19-2.2,4.28-5.75,6.78-10.47,7.61-.42,.08-.86,.1-1.29,.04-.75-.1-1.54,.18-2.25-.23-.99-.91-1.67-2.06-2.42-3.15-3.19-4.62-6.07-9.43-8.35-14.58-1.43-3.23-2.62-6.54-3.46-9.98-.48-1.96-.83-3.95-.97-5.96-.34-4.86,.59-9.5,2.69-13.92,1.11-2.35,2.41-4.58,4.07-6.56,1.72-2.06,3.75-3.81,6.08-5.2,1.72-1.03,3.58-1.67,5.47-2.28,.74-.24,1.41-.65,1.93-1.2,3.46-3.62,7.72-5.81,12.47-7.14,4.07-1.14,8.22-1.77,12.45-1.91,1.41-.04,2.83-.16,4.24-.11,4.45,.16,8.87,.56,13.22,1.62,3.11,.76,6.11,1.75,8.87,3.38,1.66,.97,2.97,2.29,3.93,3.95,1.41,2.42,.49,4.15-2.59,4.51,3.08,2.28,4.83,5.2,5.21,8.88,.08,.67,.07,1.34,0,2.01Z"/>
      <path class="cls-5" d="M122.42,100.14c5.23-.45,9.05-3.06,11.38-7.71,1.23-2.46,2.17-5.06,3.26-7.59,.17-.39,.02-.61-.22-.87-2.38-2.52-3.88-5.5-4.34-8.93-.33-2.42-.11-4.78,1.65-6.71,1.97-2.15,5.09-2.71,8.12-1.49,1.94,.78,3.43,2.12,4.63,3.8,.16,.22,.32,.44,.5,.69,1.72-1.97,3.01-4.16,4.07-6.51,.24-.21,.52-.34,.84-.3,2.55,.28,5.1,.3,7.66,.3,.15,0,.3,.07,.44,.1,.68,.68,1.46,.66,2.31,.37,.5-.17,1.04-.26,1.57-.26,.71,0,1.35-.16,1.94-.55,2.39-.28,4.77-.64,7.13-1.08,.3-.06,.61-.06,.85,.18,.28,2,.34,4.02,.49,6.03,.18,2.33,.36,4.67,.57,7,.06,.68-.08,1.37,.13,2.04,.08,.26,.11,.48,.46,.47,1.5-.07,2.77,1.72,2.46,3.43-.19,1.06-.72,1.99-1.69,2.48-.73,.38-.78,.9-.71,1.56,.28,2.61,.61,5.23,.41,7.85-.29,3.83-1.63,7.31-3.98,10.37-2.84,3.7-6.54,6.08-11.06,7.2-.17,.04-.33,.12-.5,.18-.35,.22-.72,.34-1.13,.4-2.59,.33-5.19,.35-7.8,.16-3.76-.27-7.41-1.04-10.97-2.29-1.67-.59-3.31-1.27-4.98-2.12,1.79,2.37,3.51,4.68,5.43,6.83,2.6,2.92,5.41,5.61,8.61,7.87,.22,.16,.47,.32,.44,.66-2.75-1.01-5.53,3-8.28,1.98-8.23,.17-16.5,.81-24-1.98-.95-.36-.95-.41-.77-1.76,.28-2.06,2.03-15.56,2.28-17.63,.16-1.35,.32-2.69,.47-4.04,.77-.19,1.55,.02,2.32-.12Z"/>
      <path class="cls-3" d="M150.4,123.68c-4.28-2.97-7.91-6.62-11.18-10.64-1.36-1.67-2.67-3.36-3.93-5.16,.29-.1,.45,.08,.63,.16,6.57,3.31,13.55,4.79,20.89,4.52,1.33-.05,2.66-.25,3.99-.39-.19,1.25-.39,2.49-.57,3.74-.28,1.99-.54,3.98-.81,5.98-.19,1.43-.38,2.85-.57,4.28-.05,.35-.03,.71-.62,.48-2.6-1.01-5.22-1.99-7.83-2.98Z"/>
      <path class="cls-5" d="M174.21,63.58c-1.75,.28-3.5,.56-5.26,.83-.91,.14-1.83,.3-2.76,.25-.02-.02-.05-.03-.06-.05-.51-1.27-.56-1.3-1.98-1.2-.53,.04-1.05,.15-1.57,.25-.92,.17-1.77,.43-2.09,1.45-1.56,0-3.12,.05-4.68-.02-1.45-.06-2.89-.27-4.35-.28,.55-1.41,1.05-2.84,1.32-4.33,.08-.46,.27-.44,.6-.38,1.06,.19,2.11,.39,3.18,.53,3.38,.44,6.77,.74,10.13-.12,2.29-.58,3.5-2.07,3.27-4-.07-.61-.28-1.21-.45-1.9,1.07,.73,2.18,1.12,3.34,1.37,.25,.05,.38,.14,.45,.41,.36,1.5,.63,3.01,.75,4.55,.07,.83,.15,1.66,.23,2.48-.03,.05-.05,.1-.08,.15Z"/>
      <path class="cls-8" d="M122.42,100.14c-.76,.25-1.55,.08-2.32,.12-.06-.05-.11-.1-.17-.14,.83,0,1.66,.02,2.49,.02Z"/>
      <path class="cls-6" d="M182.79,52.5c0-.67,0-1.34,0-2.01,.2,.67,.2,1.34,0,2.01Z"/>
      <path class="cls-3" d="M158.77,85.05c.44,.02,.74,.23,.97,.56,1.48,2.13,3.46,3.57,5.94,4.34,.65,.2,.93,.79,.74,1.37-.2,.62-.7,.88-1.39,.66-2.97-.95-5.34-2.72-7.11-5.28-.23-.33-.36-.66-.12-1.06,.23-.38,.59-.54,.98-.6Z"/>
      <path class="cls-3" d="M139,72.42c.63,.04,1.35,.62,1.96,1.35,1.05,1.25,1.48,2.81,1.92,4.34,.19,.66-.24,1.08-.82,1.25-.58,.17-.97-.19-1.19-.69-.32-.74-.46-1.54-.81-2.28-.43-.92-.87-1.74-2.04-1.89-.57-.07-.9-.55-.87-1.17,.03-.55,.66-.91,1.86-.9Z"/>
      <path class="cls-3" d="M163.02,77.6c-1.26,.01-2.29-.96-2.31-2.2-.02-1.24,1.06-2.34,2.31-2.32,1.24,.01,2.24,1.03,2.25,2.28,0,1.29-.94,2.22-2.24,2.24Z"/>
      <path class="cls-3" d="M160.5,65.11c-.07-.9,.11-1.2,.94-1.44,1.14-.33,2.3-.55,3.49-.56,1.14,0,1.48,.41,1.27,1.54-.29,.39-.67,.62-1.16,.6-1.05-.03-2.07,.18-3.06,.49-.73,.23-1.17,0-1.48-.63Z"/>
    </g>
  </g>
  <path class="cls-1" d="M56.38,302.87c18.5-.3,35.5-6.52,52.33-13.33,9.6-3.88,18.97-8.27,28.24-12.87,1.16-.58,2.31-.87,3.61-.83,7.49,.21,14.99,.38,22.48,.56,1.73,.41,3.52-.17,5.24,.33,5.99-.19,11.98-.04,17.95,.43,2.47-.32,4.78-1.02,6.68-2.73,2.31-2.07,3.39-4.68,2.9-7.72-.94-5.91-.81-11.85-.78-17.79,.03-6.78,.56-13.53,1.62-20.22-.24-.29-.56-.44-.92-.46-4.93-.28-9.67,.46-14.05,2.84-1.66,.9-2.52,3.09-2.15,4.88,.25,1.21,1.07,.93,1.79,.68,1.87-.64,3.8-.97,5.75-1.28,1.43-.23,2.81-.11,4.1,.57,1.38,.73,1.72,1.97,1.49,3.4-.24,1.48-1.33,1.97-2.63,1.85-5.71-.53-10.33,2.11-14.86,5.01-3.19,2.04-6.26,4.27-9.36,6.46-2.22,1.57-2.46,1.56-3.82-.84-5.7-10.08-11.41-20.15-17.09-30.24-1.2-2.14-2.45-4.26-3.64-6.41-.7-1.27-.6-2.34,.29-3.49,3.16-4.12,6.31-8.25,9.52-12.34,1.05-1.34,2.41-2.15,4.2-1.9,3.27,.47,4.47,3.1,2.6,5.8-1.8,2.6-3.84,5.01-5.76,7.52-.34,.45-.72,.86-.99,1.36-.23,.43-.56,.91-.27,1.37,.34,.55,.96,.51,1.53,.43,1.61-.25,3.12-.81,4.58-1.52,4.79-2.35,9.46-4.95,14.4-6.98,4.56-1.88,9.17-3.56,14.21-3.49,2.35,.03,3.18,.6,3.32,2.3,.15,1.84-.91,3.08-3.08,3.2-5.36,.3-10.3,2.04-15.12,4.22-.45,.2-.9,.4-1.31,.67-1.22,.84-1.22,1.39,.03,2.16,1.99,1.23,3.83,1.71,6.23,.47,4.21-2.16,8.82-3.21,13.59-3.34,.92-.02,1.81-.23,2.72-.29,1.93-.13,3.48,.75,3.94,2.17,.64,1.94-.69,3.65-3.08,3.64-3.32-.01-6.58,.32-9.81,1.05-1.44,.33-2.84,.76-4.21,1.33-1.46,.6-1.86,1.48-1.2,2.98,1.21,2.77,1.8,3.13,4.61,2.06,4.96-1.89,10.05-2.38,15.29-1.7,.59-4.64,1.14-9.28,1.8-13.91,.33-2.26,1.68-.83,2.42-.4,6.74,3.9,13.65,7.48,20.66,10.85,10.93,5.24,22.01,10.12,33.8,13.19,6.18,1.61,12.45,2.72,18.85,2.42,7.32-.34,13.73-3.25,19.38-7.75,7.35-5.85,13.17-13.14,18.83-20.56,11.47-15.05,22.05-30.72,32.38-46.57,6.27-9.62,12.32-19.4,18.51-29.07,.71-1.12,.56-1.63-.6-2.24-.87-.46-2.02-.79-2.2-2.06-12.01-7.17-23.84-14.62-35.8-21.88-1.66-1.01-3.19-2.25-5.02-2.99-1.27,.19-2.08-.79-2.98-1.36-1.07-.67-1.43-.42-2.05,.56-6.02,9.54-12.05,19.08-18.17,28.56-8.32,12.89-16.97,25.57-26.02,37.97-1.57,2.15-3.24,4.22-4.85,6.34-.93,1.23-1.95,1.51-3.47,.92-13.13-5.04-25.48-11.67-37.71-18.53-8.07-4.53-15.99-9.31-23.87-14.15-3.17-1.94-5.67-4.76-8.99-6.54-4.69-2.53-9.65-4.01-14.92-4.68-4.67-.6-9.37-.3-14.04-.82-.8-.73-1.8-.68-2.78-.7-11.39-.22-22.76-.73-34.15-.94-3.97-.07-7.95-.34-11.94-.33-1.05,0-2.12-.05-2.99,.7-4.19-.51-8.39-.43-12.59-.39-9.72,.09-18.24,3.33-25.32,10.03-3.48,3.3-5.92,7.4-8.33,11.53-7.63,13.06-15.34,26.09-22.21,39.58-8.05,15.8-15.68,31.8-20.9,48.79-2.5,8.14-4.38,16.43-4.63,25.06-.23,7.93,1.4,15.27,5.64,21.96,5.9,9.31,14.62,14.43,25.25,16.55,2.6,.52,5.24,.84,7.9,.88Z"/>
  <path class="cls-5" d="M197.5,222.86c-2.39-1.58-5.07-.9-7.59-.76-2.92,.16-5.82,.93-8.49,2.16-1.53,.7-2.18,.49-2.84-1.02-1.38-3.18-1.59-2.42,1.38-3.52,4.22-1.57,8.67-2.14,13.19-1.95,1.66,.07,2.87-.68,3.4-2.27,.53-1.57,.04-2.94-1.24-3.94-.96-.75-2.19-.97-3.37-.88-6.37,.5-12.65,1.36-18.36,4.54-.41,.23-.86,.54-1.35,.13-1.02-.84-2.32-1.19-3.83-1.91,4.53-2.27,8.79-4.1,13.44-4.92,1.44-.25,2.89-.4,4.36-.49,2.38-.14,3.56-1.63,3.35-3.93-.16-1.76-.98-2.74-2.95-2.81-5.47-.18-10.52,1.42-15.39,3.59-4.99,2.22-9.86,4.73-14.77,7.14-1.64,.81-3.36,1.27-5.42,1.57,.96-2.27,2.73-3.7,3.91-5.53,.91-1.4,2.04-2.66,3.07-3.99,2.01-2.6,2.07-4.46,.2-6.05-2.11-1.79-5.29-1.84-7.01,.3-3.73,4.62-7.24,9.42-10.88,14.12-.76,.99-.19,1.72,.24,2.49,3.24,5.81,6.49,11.61,9.76,17.4,3.96,7.01,8,13.97,11.89,21.01,.88,1.59,1.55,1.52,2.87,.58,4.97-3.5,9.82-7.19,15.22-10.06,3.07-1.63,6.27-2.33,9.71-2.08,1.74,.13,3.08-.34,3.34-2.31,.3-2.32-.6-3.87-2.52-4.43-3.28-.96-6.34,.15-9.44,.96-.45,.12-.81,.56-1.35,.33,.55-4.46,1.96-5.75,7.04-6.77,3.17-.64,6.35-.95,9.58-.87,2.15-1.88,2.33-3.11,.83-5.84Z"/>
  <path class="cls-5" d="M320.51,101.88c2.18,2.46,5.21,3.7,7.91,5.38,10.3,6.43,20.69,12.71,31.05,19.05,.58,.35,1.08,.96,1.86,.44,3.19-5.83,5.87-11.96,9.93-17.29,1.74-2.28,3.86-4.02,6.56-5.07,2.25-.88,3.1-2.66,2.36-4.65-.77-2.04-2.36-2.59-4.87-1.64-3.29,1.24-5.91,3.41-8.07,6.03-2.21-3.1-1.04-5.48,1.28-7.77,2.37-2.35,5.03-4.24,8-5.72,2.54-1.26,3.18-2.46,2.35-4.34-.88-1.98-3.07-2.72-5.35-1.7-4.22,1.89-7.97,4.5-10.86,8.11-2.02,2.52-2.57-.42-3.72-.84-1.57-.57-.56-1.56,.07-2.25,3.13-3.49,6.95-6.07,11.1-8.2,2.28-1.17,2.99-2.64,2.14-4.48-.86-1.84-3.12-2.57-5.24-1.55-5.44,2.63-10.35,6.1-13.94,10.94-1.78,2.4-3.74,2.19-6.35,2.04,2.69-3.89,5.75-7.18,9.29-10.02,1.2-.96,2.55-1.72,3.83-2.58,2.11-1.41,2.59-2.96,1.49-4.75-1.1-1.77-2.8-2.18-4.87-1.1-5.42,2.82-9.46,7.19-13.16,11.9-2.64,3.36-5.14,6.84-7.71,10.25-1.31,1.74-2.91,3.18-4.96,4.8,.84-4.35,1.64-8.29,2.36-12.24,.47-2.57-1.25-4.96-3.8-5.42-2.68-.48-4.34,.61-4.94,3.52-1.3,6.37-2.5,12.76-3.74,19.14Z"/>
  <path class="cls-7" d="M155.37,121.66c-.18,0-.36-.01-.54-.01-6.97-.17-13.95-.22-20.92-.48-3.52-.13-7.04-.31-10.55-.58-2.64-.2-5.62-.87-8.05,.54-.44,.26-.85,.57-1.21,.92-1.79,1.73-2.76,4.32-2.44,6.8,17.25,.23,34.5,.7,51.74,1.4,0-2.59-.43-5.48-2.46-7.1-1.53-1.22-3.59-1.42-5.57-1.48Z"/>
  <path class="cls-4" d="M168.29,276.73c-1.72-.61-3.49-.3-5.24-.33,1.71,.73,3.49,.19,5.24,.33Z"/>
  <path class="cls-7" d="M64.77,246.46c2.55-.88,5.48-1.83,8.37-2.91,2.82-1.05,5.6-2.23,8.39-3.34,.86-.34,1.89-.66,1.31-1.89-.47-.98-1.28-.76-2.16-.37-5.33,2.33-10.77,4.38-16.34,6.05-.79,.24-1.73,.49-1.47,1.66,.17,.78,.84,.83,1.9,.8Z"/>
  <path class="cls-7" d="M265.18,175.6c-1.14,.07-5.7,6.07-5.39,6.86,.46,1.17,1.49,1.17,2.14,.37,1.46-1.78,2.81-3.68,4.05-5.63,.66-1.04-.14-1.47-.81-1.6Z"/>
  <path class="cls-2" d="M211.39,400.86c-3.05-18.71-6.67-37.31-10.33-55.9-3.8-19.35-8-38.61-12.43-57.82-.77-3.33-1.59-6.65-2.38-9.98-1.98-1.13-4.2-.99-6.33-1.06-3.85-.13-7.71-.07-11.57-.03-1.73,.1-3.46,.26-5.17-.16-.41-.1-.83-.17-1.25-.15-7.08,.22-14.14-.57-21.23-.47-1.43,.02-2.77,.27-4.06,.91-9.25,4.55-18.59,8.92-28.14,12.8-13.73,5.58-27.61,10.71-42.43,12.61-2.43,.31-4.89,.38-7.32,.64-.82,.09-1.71-.08-2.36,.62-2.02,12.01-3.91,24.05-5.52,36.13-1.67,12.56-3.54,25.1-5.31,37.65-1.72,12.2-3.43,24.41-5.13,36.62-.08,.54,.01,1.11,.02,1.66h59.73l26.81-80.9,16.86,80.9h69.73c-.32-4.75-1.43-9.39-2.19-14.07Z"/>
</svg>