<?xml version="1.0" encoding="UTF-8"?>
<svg id="Capa_1" data-name="Capa 1" xmlns="http://www.w3.org/2000/svg" viewBox="0 0 386.68 444.96">
  <defs>
    <style>
      .cls-1 {
        fill: #d3c0df;
      }

      .cls-2 {
        fill: #34b296;
      }

      .cls-3 {
        fill: #1c2545;
      }

      .cls-4 {
        fill: #009579;
      }

      .cls-5 {
        fill: #94a278;
      }
    </style>
  </defs>
  <path class="cls-4" d="M255.71,433.33c-.55,1.27-1.15,2.52-1.63,3.82-.27,.74-.77,.85-1.41,.86-.7,0-1.39,0-2.09,0-47.91,0-95.82,0-143.73,0-1.04,0-2.09,.02-3.13,.04,.23-5.62,1.49-11.1,2.22-16.65,.76-5.74,1.66-11.45,2.5-17.18,1.57-.96,3.05,.14,4.55,.28,6.43,.59,12.86,.33,19.29,.4,12.79,.15,25.58-.1,38.36,.19,22,.5,44.01,.22,66.01,.53,3.99,.06,7.98,.46,11.97-.06,.91-.12,1.72-.02,2.28,.81,1.07,.73,1.06,1.94,1.33,3.01,1.58,6.35,2.39,12.85,3.56,19.27,.29,1.58,.09,3.12-.08,4.68Z"/>
  <g id="TnSYzz">
    <g>
      <path class="cls-1" d="M242.86,275.39c21.33-15.32,34.07-36.4,40.98-61.33,3.83-13.81,5.66-27.89,6.2-42.24,.35-9.3,.16-18.57-.36-27.8-.57-10.21-1.9-20.38-3.7-30.48-1.41-7.92-3.06-15.79-5.09-23.57-.34-1.29,.03-1.76,1.22-2.1,2.69-.77,5.34-1.65,8.01-2.49,.61-.61,1.39-.87,2.2-1.11,12.28-3.65,24.51-7.45,36.78-11.1,.93-.28,1.84-.78,2.85-.27,.43-.14,.9-.21,1.3-.42,1.65-.86,2.28-.07,2.67,1.47,1.71,6.84,3.36,13.7,4.73,20.62,2.54,12.74,4.14,25.59,5.54,38.49,1.55,14.27,1.69,28.57,1.1,42.84-.96,23.49-4.97,46.49-13.13,68.63-7.44,20.19-18.05,38.51-32.47,54.57-9.31,10.37-19.82,19.29-31.46,26.91-.44,.29-.94,.48-1.41,.72-5.72,2.33-11.17,5.18-16.17,8.82-1.02,.74-2.22,1.3-2.93,2.66,1.24,.6,1.95-.21,2.66-.75,3.22-2.44,6.6-4.63,10.26-6.36,.79-.37,1.56-1.06,2.54-.46-1.11,7.27-2.21,14.54-3.34,21.8-1.6,10.26-3.24,20.52-4.85,30.79-1.13,7.19-2.15,14.4-3.38,21.58-1.49,8.63-8.01,13.74-17.42,13.04-4.55-.34-9.11-.35-13.66-.62-10.32-.61-20.66-.74-30.99-1.12-11.7-.43-23.39-.91-35.08-1.38-7.52-.3-15.05-.4-22.55-.98-4.86-.37-9.72-.11-14.57-.69-9.31-1.11-14.83-8.37-13.5-17.61,.82-5.7,1.15-11.47,1.69-17.21,.72-7.71,1.53-15.41,2.11-23.12,.29-3.83,1.09-7.64,.73-11.51,1.33-4.86,1.49-9.9,2.26-14.84,1.11-7.13,2.21-14.26,3.55-21.35,.19-1.02,.57-2.05,.02-3.34-.91,.74-.95,1.73-1.12,2.62-1.53,8.37-2.93,16.76-4.04,25.19-.12,.9,.18,2.05-1.08,2.46,.1-1.42-.71-2.42-1.58-3.39-22.78-25.63-37.16-55.74-47.02-88.25-4.74-15.64-8.21-31.58-10.75-47.7-1.23-7.79-2.08-15.64-2.9-23.48-1.49-14.36-2.13-28.76-2.48-43.2-.28-11.95,.37-23.85,.75-35.77,.07-2.11,.24-4.24,.42-6.36,.11-1.34,.41-2.21,2.22-1.87,2.22,.42,4.53,.39,6.8,.55,1.11-.36,2.25-.33,3.39-.2,12.36,1.43,24.76,2.53,37.13,3.98,.91,.11,1.82,.16,2.58,.77,.6,.1,1.2,.19,1.8,.3,3.46,.64,3.44,.64,3.1,4.27-1.42,15.33-1.14,30.71-.68,46.05,.43,14.4,1.93,28.77,4.03,43.04,3.58,24.35,9.48,48.09,19.6,70.65,3.99,8.91,8.67,17.42,14.11,25.52,1.36,2.02,3.84,2.32,5.76,.81,5.82,.14,11.64,0,17.45,.11,2.5,.04,4.95-.63,7.46-.4,6.94-.22,13.87-.09,20.81-.08,4,.27,8.01,.04,12.02,.12,.9,.02,1.82-.07,2.7,.19,.27,.1,.5,.27,.69,.48,.76,1.51,.34,3.14,.42,4.71,.05,.99,0,1.98,.32,2.93,.43,3.03,.43,3.04,3.49,3.05,5.16,0,10.32,.01,15.48,0,2.92,0,2.92-.03,3.11-2.83,.02-.23,0-.46,.04-.68,.11-.66,.08-1.59,.87-1.65,.76-.06,.95,.85,1.2,1.48,.25,.64,.41,1.3,.61,1.95,.37,1.17,1.14,1.72,2.36,1.72,4.62,.02,9.24,.01,13.8,0,.49-.83-.08-1.29-.35-1.76-2.01-3.58-3.92-7.2-5.48-11-.39-.96-1.05-1.9-.45-3.01Z"/>
      <path class="cls-3" d="M171.15,280.45c-7.86,.69-15.75,.34-23.62,.52-.68,.02-1.2-.11-1.25-.92,2.7-15.3,4.22-30.73,4.76-46.26,.28-8.04,1.79-15.85,4.96-23.29,2.02-4.73,4.75-9.01,8.27-12.76,6.51-6.95,14.85-8.92,24.02-8.89,16.7,.06,35.67,14.45,41.34,32.56,2.89,9.21,4.22,18.64,5.48,28.14,1.19,9,3.83,17.62,7.77,25.82,1.86,5.07,4.43,9.81,7.04,14.52,1.19,2.15,1.21,2.15-1.35,2.15-4.48,0-8.97-.07-13.45,.04-1.62,.04-2.54-.35-2.82-2.05-.21-1.24-.68-2.43-1.15-4.03-.17,.59-.26,.76-.26,.93q-.12,5.12-5.15,5.12c-5.09,0-10.19-.1-15.27,.05-2.17,.06-3.37-.34-2.88-2.79,.07-.36-.01-.76-.02-1.14-.44-2.54,.23-5.13-.35-7.67l-.02-.08c-.16-.18-.3-.39-.42-.6-.48-2.03-.18-4.09-.24-6.13-.07-2.77-.05-2.75-2.7-3.17-4.43-.7-8.86-1.41-13.22-2.53-.52-.13-1.05-.22-1.54-.42-.59-.24-1.53-.28-1.43-1.15,.08-.68,.92-.69,1.5-.78,2.56-.38,5.06-.96,7.53-1.8,10.37-3.56,16.3-13.59,16.54-23.51,.1-3.9-1.22-7.58-3-11.12-2.97-5.9-6.12-11.74-8.05-18.11-.57-1.88-.83-3.83-1.3-5.72-1.18,.07-1.75,.86-2.46,1.4-8.5,6.49-17.57,11.8-28.39,13.31-3.16,.44-6.33,.6-9.49-.33-2.63-.78-4.94,.55-5.54,3.3-1.19,5.45,.56,10.1,4.61,13.77,1.43,1.3,2.12,2.56,2.18,4.46,.22,7.02,2.89,13.02,7.99,17.83,1.46,1.38,2.08,2.84,2.04,4.81-.08,4.56-.02,9.13-.03,13.69,0,.98,.1,2-.62,2.83Z"/>
      <path class="cls-2" d="M331.97,72.89c-11.61,3.55-23.21,7.12-34.82,10.63-2.31,.7-4.55,1.72-7.01,1.85-.4-3.31-.83-6.63-1.19-9.94-.15-1.38-.52-2.63-1.22-3.86-5.19-9.13-9.63-18.63-13.33-28.46-1.12-2.99-.42-5.07,2.06-6.07,2.63-1.06,5.28-.06,6.48,2.54,.67,1.45,1.36,2.92,1.75,4.45,.56,2.21,1.88,3.07,4.04,3.56,1.67,.38,2.37,.1,2.81-1.44,1.19-4.2,.65-8.45,.39-12.68-.19-3.02-.78-6.01-1.5-8.98-.6-2.47,.53-4.15,2.81-4.61,2.06-.42,3.35,.54,3.97,3.02,1.07,4.29,1.73,8.63,1.87,13.06,.02,.75-.45,2.24,1.13,1.81,1.13-.31,3.11,.37,3-2.11-.21-4.64-.82-9.23-1.69-13.78-.13-.67-.28-1.34-.37-2.01-.3-2.21,.95-3.93,3.08-4.29,1.77-.3,3.26,.77,3.73,2.87,.93,4.15,1.57,8.36,1.98,12.59,.17,1.82,.27,3.64,.41,5.46,.04,.51-.12,1.14,.54,1.37,1.13,.39,2.27,1.5,3.34,1.09,.78-.31,.29-1.78,.31-2.73,.14-5.19-.65-10.3-1.52-15.4-.42-2.49,.71-4.39,2.93-4.81,2.03-.39,3.44,.74,3.91,3.4,1.34,7.57,2.27,15.19,1.6,22.9-.22,2.52,.3,4.57,2.48,6.43,.39-4.7,.26-9.14,.14-13.59-.08-3.24,.79-4.54,3.04-4.56,1.74-.02,3.83,1.6,3.96,4.63,.38,8.92-.2,17.76-1.35,26.59-.09,.66-.05,1.37,.1,2.03,.68,3.03,1.43,6.06,2.15,9.08Z"/>
      <path class="cls-2" d="M98.55,89.42c-4.12,.14-8.15-.72-12.22-1.07-6.64-.57-13.27-1.31-19.89-2.09-3.66-.43-7.38-.44-10.98-1.39,.28-3.02,.51-6.05,.86-9.07,.15-1.27-.29-2.4-.56-3.57-2.03-8.65-4.28-17.26-4.43-26.22-.05-2.87,2.06-4.45,4.64-3.47,1.7,.65,2.26,2.05,2.32,3.82,.08,2.28,.27,4.56,.58,6.81,.31,2.23,.84,4.43,1.3,6.82,1.7-2.11,2.06-4.13,1.58-6.68-1.45-7.63-2.1-15.36-1.34-23.14,.26-2.62,1.65-3.86,3.93-3.73,2.18,.12,3.1,1.35,3.05,4.17-.09,5.32-.37,10.65,.46,15.94,.13,.85-.53,2.17,.87,2.43,1.01,.19,3.35-2.14,3.3-3.13-.1-1.97-.24-3.95-.39-5.92-.3-4.04,.32-8.05,.41-12.08,.05-2.21,1.76-3.43,4.08-3.28,2.03,.13,2.84,1.12,2.79,3.59-.11,5.17-.29,10.35-.03,15.52,.07,1.45,2.66,2.93,3.93,2.25,.67-.36,.23-.96,.21-1.43-.13-4.64-.35-9.28,.29-13.9,.35-2.53,2.48-3.92,4.76-3.21,1.57,.5,2.32,1.54,2.19,3.25-.38,4.85-.79,9.71,0,14.56,.46,2.82,.42,5.77,2.01,8.34,.54,.87,.94,.93,1.96,.68,2.81-.69,4.17-2.29,4.42-5.16,.14-1.57,.7-3.11,1.2-4.62,.65-1.98,2.46-3.07,4.41-2.82,2.25,.28,4.13,2.04,4.34,4.04,.16,1.55-.24,3.03-.62,4.5-2.56,9.69-5.23,19.35-9.18,28.6-.85,1.99-.22,4.21-.29,6.32-.04,1.44,.03,2.89,.06,4.34Z"/>
      <path class="cls-3" d="M109.99,334.36c.87-5.83,1.68-11.67,2.61-17.5,.65-4.04,1.46-8.05,2.17-12.08,.18-1,.24-2.18,1.64-1.92,1.31,.24,1.15,1.28,.95,2.35-1.93,10.36-3.62,20.75-4.98,31.2-.22,1.73-.42,3.46-.59,5.2-.09,.95-.18,1.85-1.38,2.02-1.44-.05-1.43-.9-1.27-2.03,.35-2.4,.58-4.82,.85-7.23Z"/>
      <path class="cls-3" d="M265.2,330.65c-4.65,1.92-8.83,4.63-12.84,7.63-.36,.27-.7,.58-1.08,.83-.79,.51-1.59,.58-2.2-.24-.65-.87,.05-1.41,.64-1.87,3.45-2.73,7.11-5.15,11.02-7.17,1.94-1.01,3.97-1.86,5.95-2.79,.69-.32,1.38-.65,2.16-.29,.46,1.34,.2,2.24-1.3,2.73-.81,.26-1.73,.46-2.34,1.18Z"/>
      <path class="cls-2" d="M171.15,280.45c-.02-5.78-.06-11.56-.03-17.34,0-1.21-.25-2.09-1.23-2.96-5.86-5.17-8.74-11.75-8.8-19.53,0-1.37-.42-2.16-1.55-2.95-4.31-3.01-6.72-10.11-5.27-15.07,.94-3.2,3.85-4.42,6.99-3.41,3.71,1.19,7.53,.57,11.25-.2,9.36-1.94,17.42-6.58,24.91-12.33,1.15-.88,2.26-1.81,3.39-2.7,.11-.09,.28-.09,.65-.21,.29,2.48,.59,4.93,1.33,7.29,1.96,6.19,4.91,11.95,7.89,17.66,4.73,9.06,3.96,17.64-1.44,26.09-4.99,7.82-12.63,10.72-21.67,11.73,5.88,1.67,11.59,2.78,17.38,3.39,1.64,.17,2.28,.63,2.22,2.31-.09,2.58,0,5.17,.03,7.76-3.05,.57-6.12,.1-9.18,.26-2.02,.1-4.05-.23-6.05,.2-6.94,0-13.89,.01-20.83,.02Z"/>
      <path class="cls-5" d="M191.98,280.43c1.8-.8,3.7-.33,5.55-.38,3.23-.1,6.46-.06,9.69-.07-.01,.15-.03,.31-.04,.46-5.07,0-10.13,0-15.2,0Z"/>
      <path class="cls-5" d="M207.2,280.51c.75,2.53,.39,5.1,.35,7.67-.79-2.53-.38-5.1-.35-7.67Z"/>
      <path class="cls-3" d="M300.32,57.21c-.04,.51-.35,.85-.78,1.04-.55,.24-1.07,.05-1.44-.4-2.08-2.53-4.29-4.93-6.88-6.96-.56-.44-.62-1.08-.24-1.63,.4-.59,1.16-.66,1.64-.3,2.95,2.18,5.51,4.77,7.58,7.82,.08,.12,.08,.29,.11,.43Z"/>
      <path class="cls-3" d="M91.99,55.63c1.19,.25,1.87,.93,1,1.89-2.25,2.48-4.28,5.11-5.97,8-.35,.59-.9,.83-1.55,.47-.61-.33-.91-.94-.6-1.54,1.63-3.2,3.77-6.03,6.34-8.53,.19-.19,.55-.2,.78-.28Z"/>
      <path class="cls-3" d="M184.96,246.96c-.58-.33-1.88,.25-1.94-1.14-.05-1.23,.87-1.45,1.86-1.45,2.82-.02,5.29-1.08,7.62-2.55,.83-.52,1.75-1.28,2.52-.07,.7,1.1-.33,1.61-1.05,2.12-2.66,1.87-5.66,2.8-9.01,3.09Z"/>
      <path class="cls-3" d="M198.63,224.17c-.45,0-.9,0-1.35,0-.86,0-1.5-.33-1.47-1.29,.03-.9,.61-1.34,1.47-1.35,.9-.01,1.8,.01,2.69,.09,.9,.08,1.71,.5,1.64,1.49-.08,1.03-.95,1.21-1.86,1.12-.37-.04-.75-.04-1.12-.06Z"/>
      <path class="cls-3" d="M173.45,233.55c-1.32-.18-1.97-.95-1.87-2.29,.09-1.24,.8-1.98,2.06-1.95,1.39,.03,2.07,.88,2.02,2.22-.06,1.33-.74,2.09-2.2,2.02Z"/>
      <path class="cls-3" d="M195.67,231.46c.04-1.29,.64-2.14,2.05-2.15,1.29,0,1.97,.87,2.03,2.02,.07,1.28-.67,2.27-1.99,2.33-1.33,.06-2.06-.79-2.09-2.2Z"/>
      <path class="cls-3" d="M174.43,223.81c-.4,.08-.84,.23-1.29,.25-.78,.04-1.34-.4-1.48-1.13-.15-.82,.42-1.28,1.16-1.36,.97-.1,1.95-.09,2.93-.1,.81-.01,1.62,.18,1.64,1.14,.02,.94-.72,1.22-1.57,1.21-.45,0-.9,0-1.4,0Z"/>
    </g>
  </g>
</svg>