<?xml version="1.0" encoding="UTF-8"?>
<svg id="Capa_1" data-name="Capa 1" xmlns="http://www.w3.org/2000/svg" viewBox="0 0 595.28 396.93">
  <defs>
    <style>
      .cls-1 {
        fill: #d3c0df;
      }

      .cls-2 {
        fill: #2d2929;
      }

      .cls-3 {
        fill: #f7a418;
      }

      .cls-4 {
        fill: #fff;
      }

      .cls-5 {
        fill: #e4e6ea;
      }

      .cls-6 {
        fill: #eba523;
      }

      .cls-7 {
        fill: #fccf49;
      }

      .cls-8 {
        fill: #1c2545;
      }

      .cls-9 {
        fill: #b098c8;
      }

      .cls-10 {
        fill: #d58c41;
      }

      .cls-11 {
        fill: none;
        stroke: #b098c8;
        stroke-miterlimit: 10;
      }

      .cls-12 {
        fill: #83cfeb;
      }

      .cls-13 {
        fill: #d2c9cc;
      }

      .cls-14 {
        fill: #eeaa1d;
      }

      .cls-15 {
        fill: #feeedb;
      }
    </style>
  </defs>
  <g>
    <path class="cls-12" d="M162.55,83.01s25.31-17.39,57.45-1.24l-5.43,19.42s-27.02-3.27-47.05,1.7l-4.97-19.88Z"/>
    <polygon class="cls-4" points="195.38 83.38 192.16 83.38 192.16 80.15 188.05 80.15 188.05 83.38 184.83 83.38 184.83 87.49 188.05 87.49 188.05 90.71 192.16 90.71 192.16 87.49 195.38 87.49 195.38 83.38"/>
  </g>
  <g>
    <path class="cls-8" d="M170.84,202.42l-.52,.02c-1.84,.08-3.59-.69-5.06-2.23-2.34-2.44-3.57-6.44-3.22-10.44l.92-10.43c.63-7.2,4.84-12.59,10-12.82l.48-.02c.41-.02,.76,.3,.78,.71,.02,.41-.3,.76-.71,.78l-.48,.02c-4.4,.2-8.01,5.01-8.58,11.46l-.92,10.43c-.32,3.58,.76,7.14,2.81,9.28,1.17,1.22,2.52,1.83,3.92,1.77l.52-.02c.41-.02,.76,.3,.78,.71,.02,.41-.3,.76-.71,.78Z"/>
    <path class="cls-8" d="M179.71,202.03l-.52,.02c-.41,.02-.76-.3-.78-.71-.02-.41,.3-.76,.71-.78l.52-.02c1.39-.06,2.69-.79,3.75-2.11,1.85-2.31,2.61-5.95,1.98-9.49l-1.84-10.31c-1.14-6.37-5.16-10.85-9.56-10.65l-.48,.02c-.41,.02-.76-.3-.78-.71-.02-.41,.3-.76,.71-.78l.48-.02c5.16-.23,9.83,4.77,11.1,11.88l1.84,10.31c.71,3.95-.17,8.05-2.28,10.69-1.33,1.67-3.01,2.59-4.84,2.67Z"/>
    <rect class="cls-8" x="170.52" y="198.99" width="2.28" height="5.29" rx="1.14" ry="1.14" transform="translate(-8.8 7.83) rotate(-2.55)"/>
    <rect class="cls-8" x="177.35" y="198.69" width="2.28" height="5.29" rx="1.14" ry="1.14" transform="translate(-8.78 8.14) rotate(-2.55)"/>
    <path class="cls-8" d="M176.64,150.12l-.33,1.8c-1.02,.49-2.22,1.34-2.68,3.06-.78,2.94,.09,12.12,.1,12.22,.04,.41-.26,.78-.67,.82h-.04c-.4,.02-.74-.28-.78-.67-.04-.39-.9-9.54-.05-12.74,.79-2.97,3.5-4.14,4.45-4.48Z"/>
    <path class="cls-8" d="M210.03,176.73s-.09,.01-.14,.02c-.35,.01-.68-.22-.76-.58-1.14-4.93-4.44-18.2-5.89-20.32-.7-1.03-1.8-1.6-2.8-1.92l.3-1.48c1.3,.39,2.77,1.13,3.74,2.55,1.87,2.74,5.69,18.98,6.11,20.82,.09,.4-.16,.8-.56,.9Z"/>
    <circle class="cls-8" cx="210.59" cy="179.49" r="4.92"/>
    <path class="cls-12" d="M213.67,178.74c.41,1.7-.63,3.41-2.33,3.82-1.7,.41-3.41-.63-3.82-2.33-.41-1.7,.63-3.41,2.33-3.82,1.7-.41,3.41,.63,3.82,2.33Z"/>
    <path class="cls-8" d="M163.6,181.33c-.1,0-.21-.02-.31-.07-.29-.16-.4-.52-.24-.81,.17-.32,4.34-7.9,10.73-8.28,3.86-.23,7.63,2.22,11.2,7.3,.19,.27,.13,.64-.14,.83-.27,.19-.64,.13-.83-.14-3.32-4.71-6.74-7-10.16-6.79-5.74,.34-9.71,7.59-9.75,7.66-.1,.19-.3,.3-.5,.31Z"/>
  </g>
  <path class="cls-12" d="M220.23,239.09c-.19-.05-.38-.07-.57-.04-.18,.03-.35,.1-.52,.18-3,1.3-6,2.61-9,3.91-.22-.06-.43-.14-.67-.14h-10.41c-.37,0-.75-.1-1.09-.26-6.81-3.29-13.13-.77-14.83,.04-.33,.16-.69,.23-1.05,.23h-10.21c-.46,0-.88,.16-1.26,.37-3.18-1.38-6.36-2.76-9.54-4.14-.17-.07-.34-.15-.52-.18-.19-.03-.38,0-.57,.04-1.18,.29-1.66,1.4-1.26,2.52,.05,.13,.11,.26,.21,.35,.08,.07,.17,.11,.26,.15,3.38,1.48,6.76,2.95,10.15,4.43,.5,22.1,21.39,21,21.39,21,17.75,0,20.79-14.94,21.27-21.51,3-1.31,6-2.62,8.99-3.93,.09-.04,.19-.08,.26-.15,.1-.09,.17-.22,.21-.35,.4-1.12-.07-2.23-1.26-2.52Z"/>
  <g>
    <polygon class="cls-1" points="286.46 68.59 286.46 117.41 309.09 117.45 309.11 86.58 302.69 67.85 286.46 68.59"/>
    <polygon class="cls-1" points="331.18 68.61 331.18 117.42 308.55 117.47 308.53 86.6 314.95 67.86 331.18 68.61"/>
    <rect class="cls-9" x="289.22" y="74.68" width="12.44" height="2.44" transform="translate(-4.82 22.16) rotate(-4.26)"/>
    <rect class="cls-9" x="289.74" y="81.61" width="12.44" height="2.44" transform="translate(-5.34 22.22) rotate(-4.26)"/>
    <rect class="cls-9" x="316.96" y="75.22" width="12.44" height="2.44" transform="translate(21.76 -62.97) rotate(11.51)"/>
    <rect class="cls-9" x="315.54" y="82.19" width="12.44" height="2.44" transform="translate(23.12 -62.54) rotate(11.51)"/>
    <line class="cls-11" x1="309.11" y1="85.73" x2="309.09" y2="117.45"/>
    <path class="cls-9" d="M290.59,96.24h13.9v10.49c0,2.9-2.35,5.25-5.25,5.25h-3.41c-2.9,0-5.25-2.35-5.25-5.25v-10.49h0Z"/>
    <path class="cls-9" d="M313.71,96.24h13.9v10.49c0,2.9-2.35,5.25-5.25,5.25h-3.41c-2.9,0-5.25-2.35-5.25-5.25v-10.49h0Z"/>
  </g>
  <g>
    <polygon class="cls-1" points="287.76 141.87 283.23 191.58 306.54 193.7 309.43 162.27 304.55 142.6 287.76 141.87"/>
    <polygon class="cls-1" points="333.82 145.99 329.29 195.7 305.97 193.67 308.82 162.23 317.18 143.74 333.82 145.99"/>
    <rect class="cls-9" x="290.5" y="149.66" width="12.44" height="2.44" transform="translate(6.33 -11.84) rotate(2.31)"/>
    <rect class="cls-9" x="290.22" y="156.61" width="12.44" height="2.44" transform="translate(6.61 -11.83) rotate(2.31)"/>
    <rect class="cls-9" x="318" y="153.38" width="12.44" height="2.44" transform="translate(64.01 -93.01) rotate(18.09)"/>
    <rect class="cls-9" x="315.79" y="160.13" width="12.44" height="2.44" transform="translate(66 -91.99) rotate(18.09)"/>
    <line class="cls-11" x1="309.28" y1="161.36" x2="305.53" y2="193.73"/>
    <path class="cls-9" d="M288.63,171.28h13.9v10.49c0,2.9-2.35,5.25-5.25,5.25h-3.41c-2.9,0-5.25-2.35-5.25-5.25v-10.49h0Z" transform="translate(22.45 -32.65) rotate(6.57)"/>
    <path class="cls-9" d="M311.6,173.92h13.9v10.49c0,2.9-2.35,5.25-5.25,5.25h-3.41c-2.9,0-5.25-2.35-5.25-5.25v-10.49h0Z" transform="translate(22.9 -35.27) rotate(6.57)"/>
  </g>
  <g>
    <polygon class="cls-1" points="284.78 222.67 284.78 268.12 305.85 268.17 305.87 239.42 299.88 221.97 284.78 222.67"/>
    <polygon class="cls-1" points="326.41 222.68 326.41 268.14 305.34 268.18 305.32 239.43 311.31 221.98 326.41 222.68"/>
    <rect class="cls-9" x="287.3" y="229.58" width="12.44" height="2.44" transform="translate(-16.34 22.45) rotate(-4.26)"/>
    <rect class="cls-9" x="287.82" y="237.2" width="12.44" height="2.44" transform="translate(-16.9 22.51) rotate(-4.26)"/>
    <rect class="cls-9" x="312.07" y="230.45" width="12.44" height="2.44" transform="translate(52.65 -58.87) rotate(11.51)"/>
    <rect class="cls-9" x="310.65" y="237.42" width="12.44" height="2.44" transform="translate(54.01 -58.45) rotate(11.51)"/>
    <line class="cls-11" x1="305.75" y1="237.31" x2="305.73" y2="268.18"/>
    <path class="cls-9" d="M287.23,246.96h13.9v10.49c0,2.9-2.35,5.25-5.25,5.25h-3.41c-2.9,0-5.25-2.35-5.25-5.25v-10.49h0Z"/>
    <path class="cls-9" d="M309.92,246.96h13.9v10.49c0,2.9-2.35,5.25-5.25,5.25h-3.41c-2.9,0-5.25-2.35-5.25-5.25v-10.49h0Z"/>
  </g>
  <g>
    <g>
      <path class="cls-13" d="M409.12,88.76c-.2,.26-.57,.3-.83,.1l-3.74-2.9c-1.97-1.53-1.49-2.35-.46-3.67l10.68-13.74c1.08-1.38,.94-2.48-.45-3.56l-2.73-2.13c-.11-.08-.22-.18-.34-.28-.38-.33-.82-.7-1.21-.66-.36,.04-.71,.41-.95,.71l-12.34,15.87c-.2,.26-.57,.3-.83,.1-.26-.2-.3-.57-.1-.83l12.34-15.87c.56-.72,1.14-1.1,1.77-1.16,.89-.09,1.59,.51,2.1,.94,.1,.09,.2,.17,.29,.24l2.73,2.13c1.89,1.47,2.12,3.32,.65,5.22l-10.68,13.74c-.35,.45-.65,.84-.65,1.03,0,.13,.16,.4,.9,.98l3.74,2.9c.26,.2,.3,.57,.1,.83Z"/>
      <path class="cls-10" d="M482.62,143.66c.77,.6,.91,1.72,.31,2.49h0c-.6,.77-1.72,.91-2.49,.31l-72.88-56.77c-.77-.6-.91-1.72-.31-2.49h0c.6-.77,1.72-.91,2.49-.31l72.88,56.77Z"/>
      <path class="cls-5" d="M407.25,87.2c-.6,.77-.46,1.89,.31,2.49l7.6,5.91,2.18-2.8-7.6-5.91c-.77-.6-1.89-.46-2.49,.31Z"/>
      <rect class="cls-15" x="377.33" y="71.5" width="38.69" height="13.69" rx="5.07" ry="5.07" transform="translate(91.39 343.46) rotate(-52.14)"/>
    </g>
    <path class="cls-1" d="M409.95,64.16l-2.8-2.18c-2.21-1.72-5.39-1.32-7.11,.89l-17.52,22.54c-1.66,2.14-1.34,5.19,.68,6.94,2.84,1.38,6.11,1.43,5.59-.9-.68-3.04-3.72-5.07-1.18-6.93s5.41,5.74,7.77,2.87-5.74-5.91-4.56-8.45,4.9,3.21,6.76,1.52-3.38-3.89-2.87-5.74,4.56-1.01,7.43,1.18,5.24-1.52,3.38-3.89c-1.86-2.37-5.07-5.24-3.38-6.59s5.91,2.87,7.43,1.35c.53-.53,.94-1.17,1.24-1.77-.25-.31-.53-.6-.86-.85Z"/>
  </g>
  <g id="kMbiBz">
    <g>
      <path class="cls-7" d="M416.03,149.07c-1.72-3.24-4.61-5.91-8.11-6.97-.89-.27-1.98-.61-2.15-1.52-.11-.6,.21-1.34-.24-1.75-.23-.2-.56-.21-.87-.21-2.68,0-5.37,0-8.05-.01-.54,0-1.2,.07-1.43,.56-.28,.59,.31,1.34,.02,1.93-.19,.38-.66,.51-1.07,.62-3.57,.93-6.72,3.34-8.61,6.49-2.26,3.76-2.8,8.51-2.31,12.83,.16,1.45,.5,2.97,1.5,4.03,1.48,1.57,3.89,1.69,6.05,1.69,6.24,.02,12.48,.04,18.71,.06,1.37,0,2.76,0,4.09-.32,1.33-.32,2.63-1.01,3.42-2.13,.73-1.05,.96-2.37,1.08-3.65,.35-3.81-.12-7.76-1.8-11.19-.07-.15-.15-.3-.23-.44Z"/>
      <path class="cls-14" d="M404.72,138.59c-2.76,0-5.53-.02-8.29-.03-.45,0-1.07,.09-1.25,.59-.19,.55,.08,1.52,.13,2.11l.38,4.61c.25,3.07,.5,6.14,.76,9.21l.37,4.51c.02,.25,.09,.56,.33,.62,.19,.05,.39-.1,.46-.28s.06-.39,.04-.58c-.58-6.32-1.1-12.65-1.55-18.99-.02-.29-.03-.61,.15-.83,.21-.26,.6-.28,.94-.28,2.3,0,4.61,0,6.91,0,.2,0,.44,.02,.56,.19,.07,.11,.08,.25,.08,.38-.05,6.58-.66,13.13-1.18,19.69-.01,.15-.02,.31,.04,.45s.22,.24,.36,.19c.16-.06,.2-.26,.21-.44,.56-6.59,1.12-13.18,1.67-19.77,.04-.41,.04-.9-.28-1.16-.22-.18-.53-.19-.85-.19Z"/>
      <path class="cls-6" d="M422.35,165.45c-.28-.07-.55-.14-.77-.33-.49-.41-.46-1.16-.41-1.79,.49-6.69-2.26-14.79-8.31-18.36,.45,1.07,1.5,2.17,2.13,3.24,2.24,3.83,2.73,7.62,2.54,12.01-.07,1.54-.21,3.19-1.21,4.36-1.35,1.59-3.72,1.71-5.8,1.71-6.77,0-13.54,0-20.31-.01-1.66,0-3.47-.05-4.76-1.1-1.41-1.15-1.76-3.14-1.87-4.96-.18-2.83-.02-5.71,.82-8.41s2.4-5.24,4.67-6.93c-.07-.43-.74-.29-1.09-.03-5.87,4.36-8.84,11.47-8.23,18.71,.05,.57,.08,1.25-.38,1.6-.27,.21-.65,.23-.98,.32-.81,.22-1.47,.91-1.65,1.72s.13,1.72,.77,2.26c.77,.65,1.85,.72,2.86,.76,13.33,.53,26.68,.55,40.02,.05,1.21-.05,2.57-.16,3.37-1.07,.98-1.11,.43-3.15-.97-3.63-.13-.05-.27-.08-.41-.11Z"/>
    </g>
  </g>
  <g>
    <g id="kMbiBz-2" data-name="kMbiBz">
      <g>
        <path class="cls-7" d="M412.06,192.47c-1.75-2.32-4.17-4.19-6.94-5.1-2.76-.91-5.8-.62-8.64-.32-6.16,.65-12.25,3.31-14.69,9.37-1.64,4.07-1.42,8.85-.26,13.03,.39,1.41,.96,2.85,2.12,3.74,1.71,1.32,4.11,1.05,6.24,.72,6.16-.96,12.33-1.93,18.49-2.89,1.36-.21,2.73-.43,3.99-.96,1.27-.53,2.44-1.41,3.04-2.65,.56-1.15,.57-2.49,.49-3.77-.26-3.82-1.34-7.64-3.54-10.77-.1-.14-.19-.27-.29-.4Z"/>
        <path class="cls-6" d="M420.89,207.65c-.29-.03-.57-.06-.81-.2-.55-.33-.64-1.07-.69-1.7-.57-6.68-4.56-14.25-11.1-16.82,.61,.99,1.83,1.91,2.61,2.86,2.82,3.43,3.9,7.09,4.4,11.46,.18,1.53,.29,3.18-.51,4.5-1.08,1.78-3.4,2.27-5.46,2.6-6.69,1.06-13.37,2.13-20.06,3.19-1.64,.26-3.44,.5-4.88-.34-1.57-.92-2.23-2.83-2.63-4.6-.62-2.76-.92-5.63-.52-8.44s1.55-5.55,3.52-7.58c-.14-.42-.77-.17-1.08,.14-5.11,5.23-6.93,12.72-5.18,19.77,.14,.56,.27,1.22-.12,1.64-.24,.25-.6,.33-.92,.47-.76,.34-1.31,1.13-1.36,1.96s.4,1.68,1.11,2.11c.86,.52,1.94,.42,2.94,.3,13.25-1.58,26.44-3.66,39.52-6.26,1.19-.24,2.51-.56,3.16-1.59,.79-1.25-.07-3.18-1.53-3.43-.14-.02-.28-.03-.42-.05Z"/>
      </g>
    </g>
    <path class="cls-7" d="M398.95,187.96s.26-3.64-2.28-2.79l-3.99,.78,1.2,5.95,5.07-3.93Z"/>
    <path class="cls-6" d="M395.67,185.65c.56-.16,1.92-.48,2.27-.02,.18,.23,.24,.69,.32,.96,.38,1.2,.74,2.41,1.09,3.62,.97,3.29,1.92,6.59,2.84,9.89,.37,1.33,.75,2.66,1.09,3.99,.12,.47,.84,.27,.72-.2-1.57-6.04-3.21-12.13-5.2-18.04-.08-.24-.15-.55-.32-.75-.67-.77-2.22-.41-3.02-.17-.46,.14-.27,.86,.2,.72h0Z"/>
  </g>
  <g>
    <rect class="cls-2" x="396.74" y="234.97" width="42.85" height="32.89" rx="1.21" ry="1.21" transform="translate(-50.71 386.43) rotate(-47.08)"/>
    <rect class="cls-4" x="404.68" y="232.98" width="26.96" height="35.94" transform="translate(282.84 -217.58) rotate(42.92)"/>
    <path class="cls-3" d="M436.14,242.38l-1.66-1.54c-.04-.95-.44-1.89-1.19-2.59l-.29-.27c.11-.05,.21-.12,.3-.21l1.36-1.46c.75-.81,.7-2.08-.1-2.83s-2.08-.7-2.83,.1l-1.36,1.46c-.09,.09-.14,.2-.19,.31l-.02-.02c-.75-.7-1.72-1.03-2.67-1l-1.81-1.69c-.79-.73-2.01-.69-2.75,.1l-.48,.52,13.31,12.38,.48-.52c.73-.79,.69-2.01-.1-2.75Zm-3.51-8.21c.36-.38,.96-.4,1.34-.05,.38,.36,.4,.96,.05,1.34-.36,.38-.96,.4-1.34,.05-.38-.36-.4-.96-.05-1.34Z"/>
  </g>
</svg>