<svg height="200px" width="200px" version="1.1" id="Layer_1" xmlns="http://www.w3.org/2000/svg" xmlns:xlink="http://www.w3.org/1999/xlink" viewBox="0 0 392.598 392.598" xml:space="preserve" fill="#000000"><g id="SVGRepo_bgCarrier" stroke-width="0"></g><g id="SVGRepo_tracerCarrier" stroke-linecap="round" stroke-linejoin="round"></g><g id="SVGRepo_iconCarrier"> <path style="fill:#FFFFFF;" d="M150.073,238.158c0-51.459,41.891-93.285,93.285-93.285c13.964,0,27.216,3.168,39.111,8.727v-49.455 h-71.305c-2.844,0-5.624-1.164-7.758-3.168c-2.004-2.004-3.168-4.784-3.168-7.758V21.786H32.739 c-6.012,0-10.925,4.848-10.925,10.925v327.111c0,6.012,4.848,10.925,10.925,10.925h238.933c6.012,0,10.925-4.848,10.925-10.925 v-37.107c-11.895,5.56-25.083,8.727-39.111,8.727C191.964,331.442,150.073,289.552,150.073,238.158z"></path> <polygon style="fill:#70b39b;" points="222.089,37.236 222.089,82.295 267.147,82.295 "></polygon> <path style="fill:#FFFFFF;" d="M243.422,166.594c-39.434,0-71.499,32.065-71.499,71.499s32.129,71.434,71.499,71.434 s71.499-32.065,71.499-71.499S282.857,166.594,243.422,166.594z"></path> <path style="fill:#9fcee7;" d="M243.422,287.806c-27.41,0-49.713-22.238-49.713-49.713s22.238-49.713,49.713-49.713 s49.713,22.238,49.713,49.713C293.135,265.503,270.768,287.806,243.422,287.806z"></path> <g> <path style="fill:#1c2441;" d="M57.822,166.723h90.505c6.012,0,10.925-4.848,10.925-10.925c0-6.012-4.848-10.925-10.925-10.925 H57.822c-6.012,0-10.925,4.848-10.925,10.925C46.897,161.81,51.81,166.723,57.822,166.723z"></path> <path style="fill:#1c2441;" d="M57.822,222.836h66.715c6.012,0,10.925-4.848,10.925-10.925c0-6.012-4.848-10.925-10.925-10.925 H57.822c-6.012,0-10.925,4.848-10.925,10.925S51.81,222.836,57.822,222.836z"></path> <path style="fill:#1c2441;" d="M57.822,278.95h66.715c6.012,0,10.925-4.849,10.925-10.925s-4.848-10.925-10.925-10.925H57.822 c-6.012,0-10.925,4.849-10.925,10.925S51.81,278.95,57.822,278.95z"></path> <path style="fill:#1c2441;" d="M148.327,313.277H57.822c-6.012,0-10.925,4.848-10.925,10.925c0,6.012,4.848,10.925,10.925,10.925 h90.505c6.012,0,10.925-4.848,10.925-10.925C159.188,318.125,154.339,313.277,148.327,313.277z"></path> </g> <g> <path style="fill:#70b39b;" d="M46.444,53.333h14.675v26.505c0,7.434-4.073,8.275-5.624,8.275c-3.232,0-6.335-1.875-9.374-5.495 l-5.689,9.051c4.396,5.236,9.632,7.887,15.515,7.887c4.784,0,16.291-1.939,16.291-20.17V42.537H46.444V53.333z"></path> <path style="fill:#70b39b;" d="M171.859,69.624c0.84-0.453,7.24-2.78,7.24-12.218c0-14.998-14.158-14.998-17.455-14.998H142.38 v56.501h21.657c6.788,0,17.39-1.939,17.842-15.709C182.202,73.568,174.962,70.4,171.859,69.624z M153.499,53.139h5.301 c3.232,0,5.56,0.388,6.982,1.228c1.422,0.776,2.069,2.457,2.069,4.913c0,2.457-0.776,4.202-2.263,4.848 c-1.487,0.776-3.814,1.164-6.788,1.164h-5.236V53.075h-0.065V53.139z M168.174,87.014c-1.552,0.905-3.943,1.293-7.111,1.293h-7.564 V75.313h6.465c3.685,0,6.335,0.388,8.016,1.228c1.681,0.84,2.457,2.521,2.457,5.172C170.566,84.364,169.725,86.044,168.174,87.014z "></path> <path style="fill:#70b39b;" d="M107.147,41.18c-17.261,0-25.988,15.709-25.988,29.22c0,11.055,6.853,29.22,25.988,29.22 c17.261,0,25.988-15.709,25.988-29.22C133.071,59.345,126.218,41.18,107.147,41.18z M121.822,70.4 c0,8.727-5.624,18.166-14.675,18.166c-7.564,0-14.675-7.564-14.675-18.166h0.065c0-8.727,5.624-18.166,14.675-18.166 C114.776,52.17,121.822,59.733,121.822,70.4L121.822,70.4z"></path> <path style="fill:#70b39b;" d="M312.659,300.671c-0.065,0-0.129,0-0.259,0c-2.521,2.78-5.172,5.495-8.145,7.952v7.758 l51.911,51.911c3.168,3.168,8.792,3.168,11.96,0c3.297-3.297,3.297-8.663,0-11.96L312.659,300.671z"></path> </g> <path style="fill:#1c2441;" d="M383.705,340.816l-58.311-58.44c7.176-13.188,11.442-28.186,11.442-44.283 c0-28.121-12.606-53.398-32.388-70.465V93.156c0-2.844-1.164-5.624-3.168-7.758l-82.36-82.23C216.917,1.164,214.137,0,211.164,0 H32.739C14.703,0,0.028,14.675,0.028,32.711v327.111c0,18.101,14.675,32.776,32.711,32.776h238.933 c18.036,0,32.711-14.675,32.711-32.711v-12.671l36.461,36.461c12.283,12.671,32.517,10.99,42.796,0 C395.535,371.846,395.535,352.646,383.705,340.816z M368.319,368.291c-3.232,3.168-8.792,3.168-11.96,0l-51.911-51.911v-7.758 c2.844-2.457,5.56-5.172,8.145-7.952c0.065,0,0.129,0,0.259,0l55.661,55.661C371.551,359.564,371.551,364.929,368.319,368.291z M314.921,238.158c0,39.434-32.065,71.499-71.499,71.499s-71.499-32.065-71.499-71.499s32.129-71.499,71.499-71.499 C282.857,166.594,314.921,198.659,314.921,238.158z M222.089,37.236l45.059,45.059h-45.059L222.089,37.236L222.089,37.236z M282.533,359.822c0,6.012-4.848,10.925-10.925,10.925H32.739c-6.012,0-10.925-4.848-10.925-10.925V32.711 c0-6.012,4.848-10.925,10.925-10.925h167.499v71.305c0,2.844,1.164,5.624,3.168,7.758c2.004,2.004,4.784,3.168,7.758,3.168h71.305 v49.455c-11.895-5.56-25.083-8.727-39.111-8.727c-51.459,0-93.285,41.891-93.285,93.285c0,51.459,41.891,93.285,93.285,93.285 c13.964,0,27.216-3.168,39.111-8.727v37.236H282.533z"></path> </g></svg>