<svg height="200px" width="200px" version="1.1" id="Layer_1" xmlns="http://www.w3.org/2000/svg" xmlns:xlink="http://www.w3.org/1999/xlink" viewBox="0 0 512 512" xml:space="preserve" fill="#000000"><g id="SVGRepo_bgCarrier" stroke-width="0"></g><g id="SVGRepo_tracerCarrier" stroke-linecap="round" stroke-linejoin="round"></g><g id="SVGRepo_iconCarrier"> <circle style="fill:#FFD15D;" cx="256" cy="256" r="256"></circle> <path style="fill:#F9B54C;" d="M257.419,511.983c125.523-0.683,229.655-91.693,250.696-211.344L369.778,162.302l-79.658,90.465 L143.658,398.222L257.419,511.983z"></path> <polygon style="fill:#FFFFFF;" points="321.253,113.778 143.658,113.778 143.658,398.222 369.778,398.222 369.778,162.302 "></polygon> <polygon style="fill:#E6F3FF;" points="369.778,162.302 321.253,113.778 237.325,113.778 237.325,398.222 369.778,398.222 "></polygon> <polygon style="fill:#CFDBE6;" points="321.253,162.304 369.778,162.302 321.253,113.778 "></polygon> <circle style="fill:#26BEBE;" cx="237.037" cy="215.143" r="37.9"></circle> <path style="fill:#21ADA9;" d="M274.937,215.14c0-20.835-16.813-37.736-37.612-37.893v75.785 C258.124,252.876,274.937,235.973,274.937,215.14z"></path> <path style="fill:#324A5E;" d="M158.868,334.76c0-43.172,34.997-78.169,78.169-78.169s78.169,34.997,78.169,78.169L158.868,334.76 L158.868,334.76z"></path> <path style="fill:#2B3B4E;" d="M237.325,256.6v78.16h77.881C315.206,291.687,280.362,256.755,237.325,256.6z"></path> <g> <polygon style="fill:#C1321F;" points="244.145,364.058 233.174,353.087 296.077,290.182 333.714,327.818 404.858,238.889 416.971,248.582 335,351.048 296.077,312.125 "></polygon> <polygon style="fill:#C1321F;" points="408.926,273.994 405.359,251.471 383.3,253.771 381.69,238.34 418.383,234.515 424.251,271.567 "></polygon> </g> </g></svg>